<svg width="30" height="30" viewBox="0 0 30 30" fill="none" xmlns="http://www.w3.org/2000/svg">
<path d="M15 29.55C23.0358 29.55 29.55 23.0357 29.55 15C29.55 6.96421 23.0358 0.449951 15 0.449951C6.96427 0.449951 0.450012 6.96421 0.450012 15C0.450012 23.0357 6.96427 29.55 15 29.55Z" fill="url(#paint0_linear_108_214)"/>
<path d="M21.3675 20.7974L16.4475 8.90243C16.17 8.28743 15.7575 7.98743 15.2138 7.98743H14.7788C14.235 7.98743 13.8225 8.28743 13.545 8.90243L11.4038 14.0849H9.78377C9.30002 14.0887 8.90627 14.4787 8.90252 14.9662V14.9774C8.90627 15.4612 9.30002 15.8549 9.78377 15.8587H10.6538L8.61002 20.7974C8.57252 20.9062 8.55002 21.0187 8.55002 21.1349C8.55002 21.4124 8.63627 21.6299 8.79002 21.7987C8.94377 21.9674 9.16502 22.0499 9.44252 22.0499C9.62627 22.0462 9.80252 21.9899 9.94877 21.8812C10.1063 21.7724 10.215 21.6149 10.3013 21.4349L12.5513 15.8549H14.1113C14.595 15.8512 14.9888 15.4612 14.9925 14.9737V14.9512C14.9888 14.4674 14.595 14.0737 14.1113 14.0699H13.2788L14.9963 9.79118L19.6763 21.4312C19.7625 21.6112 19.8713 21.7687 20.0288 21.8774C20.175 21.9862 20.355 22.0424 20.535 22.0462C20.8125 22.0462 21.03 21.9637 21.1875 21.7949C21.345 21.6262 21.4275 21.4087 21.4275 21.1312C21.4313 21.0187 21.4125 20.9024 21.3675 20.7974Z" fill="white"/>
<defs>
<linearGradient id="paint0_linear_108_214" x1="25.8483" y1="5.87194" x2="4.19788" y2="24.0885" gradientUnits="userSpaceOnUse">
<stop stop-color="#B6509E"/>
<stop offset="1" stop-color="#2EBAC6"/>
</linearGradient>
</defs>
</svg>
