<svg width="127" height="80" viewBox="0 0 127 80" fill="none" xmlns="http://www.w3.org/2000/svg">
<path d="M75.6741 51.9756L65.9859 28.4785C65.9094 28.2641 65.8691 28.0385 65.8667 27.8109C65.8476 27.329 66.0184 26.8589 66.3424 26.5017C66.5086 26.3317 66.7091 26.1993 66.9307 26.1132C67.1523 26.0271 67.3897 25.9894 67.627 26.0026C67.9867 26.0068 68.3361 26.1233 68.6264 26.3358C68.9313 26.5621 69.1699 26.866 69.3173 27.2159L78.5297 50.214L87.7435 27.2159C87.89 26.8658 88.1282 26.5618 88.4331 26.3358C88.7234 26.1233 89.0728 26.0068 89.4325 26.0026C89.67 25.9893 89.9077 26.0269 90.1295 26.1129C90.3513 26.199 90.5521 26.3316 90.7184 26.5017C91.0423 26.8589 91.2132 27.329 91.1941 27.8109C91.1917 28.0381 91.1514 28.2633 91.0749 28.4772L81.3867 51.9756C80.841 53.1902 80.0295 53.7904 78.9588 53.7904H78.102C77.0313 53.7852 76.2211 53.1902 75.6741 51.9756Z" fill="#9CA1AA"/>
<path d="M95.3135 53.0709C95.149 52.9052 95.0199 52.7079 94.9339 52.4909C94.8479 52.2739 94.8068 52.0417 94.8131 51.8083V28.0014C94.8045 27.5241 94.9842 27.0625 95.3135 26.7168C95.4747 26.5456 95.6706 26.4107 95.8881 26.3213C96.1056 26.2319 96.3397 26.1899 96.5747 26.1983H112.31C112.532 26.1921 112.754 26.2334 112.959 26.3195C113.164 26.4055 113.348 26.5343 113.5 26.6974C113.661 26.8504 113.789 27.0353 113.875 27.2404C113.962 27.4455 114.004 27.6662 114 27.8886C114.006 28.1077 113.964 28.3254 113.878 28.5268C113.792 28.7282 113.663 28.9085 113.5 29.0552C113.181 29.3628 112.753 29.5315 112.31 29.5245H98.3843V38.1925H110.905C111.127 38.1865 111.349 38.2281 111.554 38.3144C111.759 38.4006 111.943 38.5297 112.095 38.6929C112.255 38.8468 112.381 39.0317 112.467 39.2363C112.554 39.4409 112.597 39.6609 112.595 39.8828C112.601 40.1019 112.559 40.3196 112.473 40.521C112.386 40.7224 112.257 40.9027 112.095 41.0495C111.938 41.2034 111.752 41.3248 111.547 41.4064C111.343 41.4881 111.125 41.5285 110.905 41.5252H98.3843V50.2386H112.31C112.533 50.2319 112.754 50.2732 112.959 50.3595C113.165 50.4458 113.349 50.5752 113.5 50.7389C113.661 50.8916 113.789 51.0763 113.876 51.2811C113.962 51.486 114.004 51.7066 114 51.9289C114.006 52.1479 113.964 52.3657 113.878 52.5671C113.792 52.7685 113.663 52.9487 113.5 53.0955C113.182 53.4055 112.754 53.5766 112.31 53.5712H96.5747C96.3404 53.5885 96.1051 53.5525 95.8867 53.4658C95.6682 53.3792 95.4723 53.2441 95.3135 53.0709Z" fill="#9CA1AA"/>
<path d="M68.1764 51.3096L58.4895 27.8112C57.9438 26.5979 57.1284 26.0029 56.0616 26.0029H55.2035C54.1315 26.0029 53.3226 26.5979 52.7756 27.8177L48.5615 38.0581H45.3727C44.9125 38.0608 44.472 38.2448 44.1466 38.5702C43.8212 38.8956 43.6372 39.3362 43.6344 39.7963V39.8197C43.6368 40.28 43.8207 40.7207 44.1462 41.0462C44.4717 41.3717 44.9124 41.5556 45.3727 41.5579H47.0864L43.068 51.3187C42.9916 51.5327 42.9513 51.7578 42.9487 51.985C42.9295 52.4669 43.1004 52.937 43.4244 53.2942C43.5907 53.4645 43.7914 53.5972 44.0132 53.6835C44.235 53.7698 44.4727 53.8077 44.7103 53.7945C45.0698 53.7892 45.4189 53.6729 45.7097 53.4614C46.0144 53.2344 46.2529 52.9301 46.4006 52.58L50.8273 41.5618H53.8722C54.3324 41.5591 54.773 41.3751 55.0984 41.0497C55.4238 40.7243 55.6078 40.2837 55.6105 39.8236V39.7652C55.6081 39.3049 55.4242 38.8642 55.0987 38.5387C54.7733 38.2132 54.3325 38.0293 53.8722 38.027H52.226L55.6312 29.5754L64.8437 52.5735C64.9902 52.9236 65.2284 53.2276 65.5333 53.4536C65.8239 53.6664 66.1738 53.7829 66.534 53.7868C66.7713 53.8 67.0087 53.7623 67.2303 53.6762C67.4518 53.5901 67.6524 53.4577 67.8186 53.2877C68.1427 52.9301 68.3136 52.4595 68.2943 51.9772C68.3046 51.7487 68.2643 51.5208 68.1764 51.3096Z" fill="#9CA1AA"/>
<path d="M39.2304 51.3096L29.5435 27.8112C28.9991 26.5979 28.1851 26.0029 27.1131 26.0029H26.2563C25.1855 26.0029 24.3767 26.5979 23.8284 27.8177L19.6156 38.0581H16.4255C15.9654 38.0611 15.5251 38.2452 15.1997 38.5706C14.8744 38.8959 14.6903 39.3363 14.6872 39.7963V39.8197C14.6926 40.2782 14.8778 40.7162 15.2029 41.0396C15.528 41.363 15.967 41.5458 16.4255 41.5489H18.1391L14.1208 51.3096C14.0443 51.5236 14.004 51.7487 14.0015 51.9759C13.982 52.4578 14.1529 52.9281 14.4772 53.2851C14.6435 53.4554 14.8442 53.5882 15.066 53.6745C15.2878 53.7608 15.5255 53.7986 15.7631 53.7855C16.1226 53.7801 16.4717 53.6638 16.7625 53.4523C17.0672 53.2253 17.3057 52.921 17.4534 52.5709L21.8801 41.5528H24.947C25.4072 41.55 25.8478 41.366 26.1732 41.0406C26.4986 40.7152 26.6826 40.2747 26.6853 39.8145V39.7652C26.6829 39.3049 26.499 38.8642 26.1735 38.5387C25.8481 38.2132 25.4073 38.0293 24.947 38.0269H23.3047L26.6853 29.5741L35.8978 52.5709C36.0446 52.9215 36.2833 53.226 36.5887 53.4523C36.8795 53.6638 37.2286 53.7801 37.5881 53.7855C37.8257 53.7983 38.0632 53.7603 38.285 53.674C38.5067 53.5877 38.7075 53.4551 38.874 53.2851C39.1979 52.9279 39.3687 52.4578 39.3497 51.9759C39.3584 51.7478 39.3178 51.5205 39.2304 51.3096Z" fill="#9CA1AA"/>
</svg>
