<svg width="30" height="30" viewBox="0 0 30 30" fill="none" xmlns="http://www.w3.org/2000/svg">
<path d="M15 30C23.2843 30 30 23.2843 30 15C30 6.71573 23.2843 0 15 0C6.71573 0 0 6.71573 0 15C0 23.2843 6.71573 30 15 30Z" fill="#3468D1"/>
<path fill-rule="evenodd" clip-rule="evenodd" d="M13.3274 10.3986C13.6206 10.3987 13.9072 10.4857 14.151 10.6486C14.3948 10.8116 14.5848 11.0431 14.697 11.3141C14.8092 11.585 14.8385 11.8831 14.7813 12.1707C14.7241 12.4583 14.5828 12.7224 14.3755 12.9298C14.1681 13.1371 13.9039 13.2783 13.6163 13.3355C13.3287 13.3927 13.0306 13.3633 12.7597 13.2511C12.4888 13.1388 12.2573 12.9488 12.0943 12.705C11.9314 12.4612 11.8445 12.1745 11.8445 11.8813C11.8446 11.488 12.0008 11.1109 12.2789 10.8329C12.557 10.5548 12.9341 10.3986 13.3274 10.3986ZM16.907 10.3986C17.2002 10.3987 17.4868 10.4857 17.7306 10.6487C17.9744 10.8116 18.1644 11.0432 18.2765 11.3141C18.3887 11.5851 18.418 11.8832 18.3608 12.1708C18.3035 12.4583 18.1623 12.7225 17.9549 12.9298C17.7475 13.1371 17.4834 13.2783 17.1958 13.3355C16.9082 13.3927 16.6101 13.3633 16.3392 13.251C16.0683 13.1388 15.8367 12.9488 15.6738 12.705C15.5109 12.4612 15.424 12.1745 15.424 11.8813C15.424 11.488 15.5803 11.1109 15.8584 10.8328C16.1365 10.5548 16.5137 10.3986 16.907 10.3986ZM16.907 16.6361C17.2002 16.6361 17.4868 16.7231 17.7306 16.8861C17.9744 17.0491 18.1644 17.2806 18.2765 17.5516C18.3887 17.8225 18.418 18.1206 18.3608 18.4082C18.3035 18.6958 18.1623 18.9599 17.9549 19.1672C17.7475 19.3745 17.4834 19.5157 17.1958 19.5729C16.9082 19.6301 16.6101 19.6007 16.3392 19.4885C16.0683 19.3762 15.8367 19.1862 15.6738 18.9424C15.5109 18.6986 15.424 18.4119 15.424 18.1187C15.424 17.924 15.4624 17.7312 15.5369 17.5513C15.6114 17.3714 15.7207 17.2079 15.8584 17.0702C15.9961 16.9325 16.1596 16.8233 16.3395 16.7488C16.5194 16.6743 16.7123 16.636 16.907 16.6361ZM13.3274 16.6361C13.6206 16.6361 13.9072 16.7231 14.151 16.886C14.3948 17.049 14.5848 17.2806 14.697 17.5515C14.8092 17.8224 14.8385 18.1205 14.7813 18.4081C14.7241 18.6957 14.5828 18.9599 14.3755 19.1672C14.1681 19.3745 13.9039 19.5157 13.6163 19.5729C13.3287 19.6301 13.0306 19.6007 12.7597 19.4885C12.4888 19.3763 12.2573 19.1862 12.0943 18.9424C11.9314 18.6986 11.8445 18.4119 11.8445 18.1187C11.8445 17.924 11.8829 17.7312 11.9574 17.5513C12.0319 17.3714 12.1412 17.2079 12.2789 17.0703C12.4166 16.9326 12.58 16.8234 12.7599 16.7489C12.9398 16.6744 13.1327 16.636 13.3274 16.6361ZM11.4865 13.5684C11.7797 13.5685 12.0664 13.6555 12.3101 13.8184C12.5539 13.9814 12.7439 14.2129 12.8561 14.4839C12.9683 14.7548 12.9976 15.0529 12.9404 15.3405C12.8832 15.6281 12.7419 15.8922 12.5346 16.0996C12.3272 16.3069 12.063 16.4481 11.7754 16.5053C11.4878 16.5625 11.1897 16.5331 10.9188 16.4209C10.6479 16.3086 10.4164 16.1186 10.2535 15.8748C10.0905 15.631 10.0036 15.3443 10.0036 15.0511C10.0037 14.6578 10.1599 14.2807 10.438 14.0027C10.7161 13.7246 11.0932 13.5684 11.4865 13.5684ZM18.7479 13.5684C19.0411 13.5685 19.3277 13.6555 19.5715 13.8185C19.8153 13.9814 20.0053 14.213 20.1174 14.4839C20.2296 14.7549 20.2589 15.053 20.2017 15.3406C20.1444 15.6281 20.0032 15.8923 19.7958 16.0996C19.5884 16.3069 19.3243 16.4481 19.0367 16.5053C18.7491 16.5625 18.451 16.5331 18.1801 16.4209C17.9092 16.3086 17.6776 16.1186 17.5147 15.8748C17.3518 15.631 17.2649 15.3443 17.2649 15.0511C17.2649 14.8564 17.3033 14.6635 17.3778 14.4836C17.4523 14.3037 17.5616 14.1403 17.6993 14.0026C17.837 13.8649 18.0005 13.7557 18.1804 13.6812C18.3603 13.6067 18.5532 13.5684 18.7479 13.5684ZM20.4354 11.0122C20.6174 11.0123 20.7953 11.0663 20.9466 11.1674C21.0979 11.2686 21.2158 11.4123 21.2854 11.5805C21.3551 11.7487 21.3733 11.9337 21.3377 12.1122C21.3022 12.2907 21.2145 12.4546 21.0858 12.5833C20.9571 12.712 20.7931 12.7996 20.6146 12.8351C20.4361 12.8706 20.2511 12.8524 20.0829 12.7827C19.9148 12.713 19.7711 12.5951 19.67 12.4438C19.5689 12.2924 19.5149 12.1145 19.5149 11.9325C19.5149 11.8116 19.5387 11.6919 19.585 11.5803C19.6312 11.4686 19.699 11.3671 19.7845 11.2817C19.87 11.1962 19.9715 11.1284 20.0831 11.0822C20.1948 11.036 20.3145 11.0122 20.4354 11.0122ZM20.4354 17.1472C20.6174 17.1473 20.7953 17.2013 20.9466 17.3024C21.0979 17.4036 21.2158 17.5473 21.2854 17.7155C21.3551 17.8837 21.3733 18.0687 21.3377 18.2472C21.3022 18.4257 21.2145 18.5896 21.0858 18.7183C20.9571 18.847 20.7931 18.9346 20.6146 18.9701C20.4361 19.0056 20.2511 18.9874 20.0829 18.9177C19.9148 18.848 19.7711 18.7301 19.67 18.5788C19.5689 18.4274 19.5149 18.2495 19.5149 18.0675C19.5149 17.9466 19.5387 17.8269 19.585 17.7153C19.6312 17.6036 19.699 17.5021 19.7845 17.4167C19.87 17.3312 19.9715 17.2634 20.0831 17.2172C20.1948 17.171 20.3145 17.1472 20.4354 17.1472ZM9.79898 17.1472C9.98099 17.1472 10.1589 17.2012 10.3102 17.3024C10.4616 17.4035 10.5795 17.5473 10.6491 17.7154C10.7188 17.8836 10.737 18.0686 10.7014 18.2471C10.6659 18.4256 10.5783 18.5896 10.4496 18.7183C10.3208 18.847 10.1569 18.9346 9.97836 18.9701C9.79985 19.0056 9.61482 18.9874 9.44667 18.9177C9.27852 18.8481 9.1348 18.7301 9.03368 18.5788C8.93256 18.4274 8.87859 18.2495 8.87859 18.0675C8.87863 17.8234 8.97561 17.5893 9.14821 17.4168C9.32082 17.2442 9.5549 17.1472 9.79898 17.1472ZM9.79898 11.0122C9.98099 11.0123 10.1589 11.0662 10.3102 11.1674C10.4616 11.2685 10.5795 11.4122 10.6491 11.5804C10.7188 11.7486 10.737 11.9336 10.7014 12.1121C10.6659 12.2906 10.5783 12.4546 10.4496 12.5833C10.3208 12.712 10.1569 12.7996 9.97836 12.8351C9.79985 12.8706 9.61482 12.8524 9.44667 12.7827C9.27852 12.7131 9.1348 12.5951 9.03368 12.4438C8.93256 12.2924 8.87859 12.1145 8.87859 11.9325C8.87863 11.6884 8.97561 11.4543 9.14821 11.2818C9.32082 11.1092 9.5549 11.0122 9.79898 11.0122ZM15.1172 7.94461C15.2992 7.94466 15.4771 7.99867 15.6284 8.09982C15.7797 8.20097 15.8976 8.34471 15.9672 8.51287C16.0369 8.68104 16.055 8.86607 16.0195 9.04457C15.984 9.22307 15.8963 9.38702 15.7676 9.5157C15.6389 9.64438 15.4749 9.732 15.2964 9.76749C15.1179 9.80298 14.9329 9.78474 14.7647 9.71508C14.5966 9.64542 14.4529 9.52747 14.3518 9.37614C14.2506 9.2248 14.1967 9.04688 14.1967 8.86488C14.1967 8.74401 14.2205 8.62432 14.2668 8.51265C14.313 8.40098 14.3808 8.29953 14.4663 8.21407C14.5518 8.12861 14.6533 8.06083 14.7649 8.01459C14.8766 7.96836 14.9963 7.94458 15.1172 7.94461ZM15.1172 20.2148C15.2992 20.2149 15.4771 20.2689 15.6284 20.3701C15.7797 20.4712 15.8976 20.6149 15.9672 20.7831C16.0369 20.9513 16.055 21.1363 16.0195 21.3148C15.984 21.4933 15.8963 21.6573 15.7676 21.7859C15.6389 21.9146 15.4749 22.0022 15.2964 22.0377C15.1179 22.0732 14.9329 22.055 14.7647 21.9853C14.5966 21.9157 14.4529 21.7977 14.3518 21.6464C14.2506 21.495 14.1967 21.3171 14.1967 21.1351C14.1967 21.0142 14.2205 20.8946 14.2668 20.7829C14.313 20.6712 14.3808 20.5698 14.4663 20.4843C14.5518 20.3988 14.6533 20.3311 14.7649 20.2848C14.8766 20.2386 14.9963 20.2148 15.1172 20.2148ZM19.0547 21.1351C19.2064 21.1352 19.3546 21.1802 19.4807 21.2645C19.6068 21.3488 19.705 21.4686 19.763 21.6087C19.821 21.7488 19.8362 21.903 19.8066 22.0518C19.7769 22.2005 19.7039 22.3371 19.5966 22.4443C19.4894 22.5516 19.3527 22.6246 19.204 22.6542C19.0552 22.6837 18.901 22.6685 18.7609 22.6105C18.6208 22.5524 18.5011 22.4541 18.4168 22.328C18.3326 22.2019 18.2876 22.0537 18.2876 21.902C18.2876 21.8013 18.3074 21.7015 18.346 21.6085C18.3845 21.5154 18.441 21.4309 18.5123 21.3596C18.5835 21.2884 18.6681 21.232 18.7611 21.1934C18.8542 21.1549 18.954 21.1351 19.0547 21.1351ZM11.1797 21.1351C11.3314 21.1352 11.4796 21.1802 11.6057 21.2645C11.7318 21.3488 11.83 21.4686 11.888 21.6087C11.946 21.7488 11.9612 21.903 11.9316 22.0518C11.9019 22.2005 11.8289 22.3371 11.7216 22.4443C11.6144 22.5516 11.4777 22.6246 11.329 22.6542C11.1802 22.6837 11.026 22.6685 10.8859 22.6105C10.7458 22.5524 10.6261 22.4541 10.5418 22.328C10.4575 22.2019 10.4126 22.0537 10.4126 21.902C10.4126 21.8013 10.4324 21.7015 10.471 21.6085C10.5095 21.5154 10.566 21.4309 10.6373 21.3596C10.7085 21.2884 10.7931 21.232 10.8861 21.1934C10.9792 21.1549 11.079 21.1351 11.1797 21.1351ZM11.1797 7.33114C11.3314 7.33118 11.4796 7.3762 11.6057 7.46049C11.7318 7.54478 11.83 7.66457 11.888 7.8047C11.946 7.94483 11.9612 8.09902 11.9316 8.24776C11.9019 8.39651 11.8289 8.53313 11.7216 8.64035C11.6144 8.74758 11.4777 8.8206 11.329 8.85017C11.1802 8.87974 11.026 8.86454 10.8859 8.80649C10.7458 8.74844 10.6261 8.65015 10.5418 8.52404C10.4575 8.39793 10.4126 8.24967 10.4126 8.09801C10.4126 7.99728 10.4324 7.89754 10.471 7.80448C10.5095 7.71143 10.566 7.62688 10.6373 7.55566C10.7085 7.48445 10.7931 7.42797 10.8861 7.38944C10.9792 7.35092 11.079 7.3311 11.1797 7.33114ZM19.0547 7.33114C19.2064 7.33118 19.3546 7.3762 19.4807 7.46049C19.6068 7.54478 19.705 7.66457 19.763 7.8047C19.821 7.94483 19.8362 8.09902 19.8066 8.24776C19.7769 8.39651 19.7039 8.53313 19.5966 8.64035C19.4894 8.74758 19.3527 8.8206 19.204 8.85017C19.0552 8.87974 18.901 8.86454 18.7609 8.80649C18.6208 8.74844 18.5011 8.65015 18.4168 8.52404C18.3326 8.39793 18.2876 8.24967 18.2876 8.09801C18.2876 7.99728 18.3074 7.89754 18.346 7.80448C18.3845 7.71143 18.441 7.62688 18.5123 7.55566C18.5835 7.48445 18.6681 7.42797 18.7611 7.38944C18.8542 7.35092 18.954 7.3311 19.0547 7.33114ZM23.0433 14.182C23.1949 14.1821 23.3432 14.2271 23.4693 14.3113C23.5954 14.3956 23.6937 14.5154 23.7517 14.6555C23.8097 14.7956 23.8249 14.9498 23.7953 15.0986C23.7657 15.2473 23.6926 15.384 23.5854 15.4912C23.4781 15.5984 23.3415 15.6715 23.1927 15.7011C23.044 15.7306 22.8898 15.7154 22.7497 15.6574C22.6095 15.5994 22.4898 15.5011 22.4055 15.3749C22.3213 15.2488 22.2763 15.1006 22.2763 14.9489C22.2763 14.7455 22.3571 14.5505 22.501 14.4066C22.6448 14.2628 22.8399 14.182 23.0433 14.182ZM7.19098 14.182C7.34265 14.1821 7.4909 14.2271 7.617 14.3113C7.74309 14.3956 7.84137 14.5154 7.89939 14.6555C7.95742 14.7956 7.97259 14.9498 7.94298 15.0986C7.91338 15.2473 7.84033 15.384 7.73308 15.4912C7.62583 15.5984 7.48918 15.6715 7.34043 15.7011C7.19167 15.7306 7.03748 15.7154 6.89736 15.6574C6.75724 15.5994 6.63748 15.5011 6.55322 15.3749C6.46896 15.2488 6.42398 15.1006 6.42398 14.9489C6.42398 14.8482 6.44382 14.7485 6.48237 14.6554C6.52092 14.5624 6.57741 14.4778 6.64864 14.4066C6.71986 14.3354 6.80442 14.2789 6.89747 14.2404C6.99053 14.2018 7.09026 14.182 7.19098 14.182ZM6.62848 9.47836C6.74984 9.47836 6.86848 9.51435 6.96938 9.58177C7.07029 9.6492 7.14894 9.74504 7.19537 9.85717C7.24181 9.96929 7.25396 10.0927 7.23027 10.2117C7.20659 10.3307 7.14814 10.4401 7.06231 10.5259C6.97649 10.6117 6.86714 10.6701 6.74811 10.6938C6.62908 10.7174 6.5057 10.7053 6.39358 10.6588C6.28147 10.6123 6.18564 10.5337 6.11824 10.4328C6.05083 10.3318 6.01486 10.2132 6.01488 10.0918C6.01491 9.92912 6.07957 9.77308 6.19464 9.65803C6.30971 9.54299 6.46576 9.47836 6.62848 9.47836ZM6.62848 19.2946C6.74984 19.2946 6.86848 19.3306 6.96938 19.398C7.07029 19.4654 7.14894 19.5613 7.19537 19.6734C7.24181 19.7855 7.25396 19.9089 7.23027 20.0279C7.20659 20.1469 7.14814 20.2563 7.06231 20.3421C6.97649 20.4279 6.86714 20.4863 6.74811 20.51C6.62908 20.5336 6.5057 20.5215 6.39358 20.475C6.28147 20.4286 6.18564 20.3499 6.11824 20.249C6.05083 20.1481 6.01486 20.0294 6.01488 19.908C6.01491 19.7453 6.07957 19.5893 6.19464 19.4742C6.30971 19.3592 6.46576 19.2946 6.62848 19.2946ZM23.6058 19.2946C23.7271 19.2946 23.8458 19.3306 23.9467 19.398C24.0476 19.4654 24.1262 19.5613 24.1727 19.6734C24.2191 19.7855 24.2313 19.9089 24.2076 20.0279C24.1839 20.1469 24.1254 20.2563 24.0396 20.3421C23.9538 20.4279 23.8444 20.4863 23.7254 20.51C23.6064 20.5336 23.483 20.5215 23.3709 20.475C23.2588 20.4286 23.1629 20.3499 23.0955 20.249C23.0281 20.1481 22.9922 20.0294 22.9922 19.908C22.9922 19.7453 23.0569 19.5893 23.1719 19.4742C23.287 19.3592 23.4431 19.2946 23.6058 19.2946ZM23.6058 9.47836C23.7271 9.47836 23.8458 9.51435 23.9467 9.58177C24.0476 9.6492 24.1262 9.74504 24.1727 9.85717C24.2191 9.96929 24.2313 10.0927 24.2076 10.2117C24.1839 10.3307 24.1254 10.4401 24.0396 10.5259C23.9538 10.6117 23.8444 10.6701 23.7254 10.6938C23.6064 10.7174 23.483 10.7053 23.3709 10.6588C23.2588 10.6123 23.1629 10.5337 23.0955 10.4328C23.0281 10.3318 22.9922 10.2132 22.9922 10.0918C22.9922 9.92912 23.0569 9.77308 23.1719 9.65803C23.287 9.54299 23.4431 9.47836 23.6058 9.47836ZM15.1172 4.57031C15.2385 4.57034 15.3572 4.60635 15.4581 4.67379C15.559 4.74123 15.6376 4.83708 15.684 4.9492C15.7304 5.06133 15.7425 5.18471 15.7189 5.30373C15.6952 5.42275 15.6367 5.53207 15.5509 5.61787C15.465 5.70367 15.3557 5.76208 15.2367 5.78573C15.1176 5.80939 14.9943 5.79721 14.8822 5.75075C14.77 5.70429 14.6742 5.62562 14.6068 5.5247C14.5394 5.42378 14.5035 5.30514 14.5035 5.18379C14.5035 5.1032 14.5194 5.02341 14.5502 4.94897C14.581 4.87452 14.6263 4.80688 14.6832 4.74991C14.7402 4.69294 14.8079 4.64776 14.8823 4.61694C14.9568 4.58612 15.0366 4.57028 15.1172 4.57031ZM15.1172 24.2026C15.2385 24.2026 15.3572 24.2386 15.458 24.3061C15.5589 24.3735 15.6376 24.4694 15.684 24.5815C15.7304 24.6936 15.7425 24.817 15.7189 24.936C15.6952 25.055 15.6367 25.1643 15.5509 25.2501C15.4651 25.3359 15.3558 25.3944 15.2367 25.418C15.1177 25.4417 14.9943 25.4295 14.8822 25.3831C14.7701 25.3366 14.6743 25.258 14.6069 25.1571C14.5395 25.0562 14.5035 24.9376 14.5035 24.8162C14.5035 24.7356 14.5194 24.6558 14.5502 24.5814C14.581 24.5069 14.6262 24.4393 14.6832 24.3823C14.7402 24.3253 14.8079 24.2801 14.8823 24.2493C14.9568 24.2185 15.0366 24.2026 15.1172 24.2026ZM20.5376 23.7936C20.6387 23.7936 20.7376 23.8236 20.8216 23.8798C20.9057 23.936 20.9712 24.0158 21.0099 24.1093C21.0486 24.2027 21.0588 24.3055 21.039 24.4047C21.0193 24.5038 20.9706 24.595 20.8991 24.6665C20.8276 24.738 20.7365 24.7867 20.6373 24.8064C20.5381 24.8261 20.4353 24.816 20.3419 24.7773C20.2485 24.7386 20.1686 24.6731 20.1125 24.589C20.0563 24.5049 20.0263 24.406 20.0263 24.3049C20.0263 24.2378 20.0395 24.1713 20.0652 24.1093C20.0909 24.0472 20.1286 23.9909 20.176 23.9434C20.2235 23.8959 20.2799 23.8582 20.3419 23.8326C20.4039 23.8069 20.4704 23.7936 20.5376 23.7936ZM9.69668 23.7936C9.7978 23.7936 9.89665 23.8236 9.98074 23.8798C10.0648 23.936 10.1304 24.0158 10.169 24.1093C10.2077 24.2027 10.2179 24.3055 10.1981 24.4047C10.1784 24.5038 10.1297 24.595 10.0582 24.6665C9.98671 24.738 9.89561 24.7867 9.79643 24.8064C9.69725 24.8261 9.59444 24.816 9.50102 24.7773C9.40759 24.7386 9.32774 24.6731 9.27156 24.589C9.21538 24.5049 9.18539 24.406 9.18539 24.3049C9.18539 24.2378 9.19862 24.1713 9.22431 24.1093C9.25 24.0472 9.28767 23.9909 9.33514 23.9434C9.38262 23.8959 9.43898 23.8582 9.50102 23.8326C9.56305 23.8069 9.62954 23.7936 9.69668 23.7936ZM9.69668 5.18426C9.7978 5.18426 9.89665 5.21425 9.98074 5.27043C10.0648 5.32661 10.1304 5.40646 10.169 5.49989C10.2077 5.59331 10.2179 5.69611 10.1981 5.7953C10.1784 5.89448 10.1297 5.98558 10.0582 6.05709C9.98671 6.12859 9.89561 6.17728 9.79643 6.19701C9.69725 6.21674 9.59444 6.20661 9.50102 6.16791C9.40759 6.12922 9.32774 6.06368 9.27156 5.9796C9.21538 5.89552 9.18539 5.79667 9.18539 5.69555C9.18533 5.62836 9.19851 5.56183 9.22418 5.49974C9.24984 5.43766 9.28749 5.38123 9.33498 5.33371C9.38246 5.28618 9.43885 5.24848 9.50091 5.22275C9.56297 5.19703 9.6295 5.18379 9.69668 5.18379V5.18426ZM20.5376 5.18426C20.6387 5.18426 20.7376 5.21425 20.8216 5.27043C20.9057 5.32661 20.9712 5.40646 21.0099 5.49989C21.0486 5.59331 21.0588 5.69611 21.039 5.7953C21.0193 5.89448 20.9706 5.98558 20.8991 6.05709C20.8276 6.12859 20.7365 6.17728 20.6373 6.19701C20.5381 6.21674 20.4353 6.20661 20.3419 6.16791C20.2485 6.12922 20.1686 6.06368 20.1125 5.9796C20.0563 5.89552 20.0263 5.79667 20.0263 5.69555C20.0262 5.62836 20.0394 5.56183 20.0651 5.49974C20.0907 5.43766 20.1284 5.38123 20.1759 5.33371C20.2234 5.28618 20.2797 5.24848 20.3418 5.22275C20.4039 5.19703 20.4704 5.18379 20.5376 5.18379V5.18426ZM25.8558 14.4889C25.9569 14.4889 26.0558 14.5189 26.1399 14.5751C26.2239 14.6313 26.2895 14.7112 26.3282 14.8046C26.3669 14.8981 26.377 15.0009 26.3572 15.1001C26.3375 15.1993 26.2888 15.2904 26.2172 15.3619C26.1457 15.4334 26.0546 15.482 25.9554 15.5017C25.8562 15.5214 25.7534 15.5113 25.66 15.4725C25.5665 15.4338 25.4867 15.3682 25.4305 15.2841C25.3744 15.2 25.3444 15.1011 25.3445 15C25.3445 14.9329 25.3577 14.8664 25.3834 14.8043C25.4091 14.7423 25.4468 14.6859 25.4942 14.6385C25.5417 14.591 25.5981 14.5533 25.6601 14.5276C25.7222 14.5019 25.7886 14.4887 25.8558 14.4887V14.4889ZM4.37848 14.4889C4.47961 14.4889 4.57847 14.5189 4.66256 14.5751C4.74664 14.6313 4.81218 14.7112 4.85087 14.8046C4.88956 14.8981 4.89967 15.0009 4.87992 15.1001C4.86018 15.1993 4.81146 15.2904 4.73993 15.3619C4.6684 15.4334 4.57728 15.482 4.47808 15.5017C4.37888 15.5214 4.27607 15.5113 4.18265 15.4725C4.08923 15.4338 4.00939 15.3682 3.95324 15.2841C3.89709 15.2 3.86714 15.1011 3.86719 15C3.86719 14.9329 3.88041 14.8664 3.90611 14.8043C3.9318 14.7423 3.96946 14.6859 4.01694 14.6385C4.06442 14.591 4.12078 14.5533 4.18282 14.5276C4.24485 14.5019 4.31133 14.4887 4.37848 14.4887V14.4889Z" fill="white"/>
</svg>
