<svg width="35" height="35" viewBox="0 0 35 35" fill="none" xmlns="http://www.w3.org/2000/svg">
<path d="M28.9188 10.9373L25.6083 7.62692C25.7104 7.01442 25.8708 6.44567 26.075 5.94984C26.1917 5.68734 26.25 5.41025 26.25 5.104C26.25 3.89359 25.2729 2.9165 24.0625 2.9165C21.6708 2.9165 19.5562 4.06859 18.2292 5.83317H10.9375C6.50416 5.83317 2.91666 9.42067 2.91666 13.854C2.91666 18.2873 6.5625 30.6248 6.5625 30.6248H14.5833V27.7082H17.5V30.6248H25.5208L27.9708 22.4728L32.0833 21.1019V10.9373H28.9188ZM18.9583 13.1248H11.6667V10.2082H18.9583V13.1248ZM23.3333 16.0415C22.5312 16.0415 21.875 15.3853 21.875 14.5832C21.875 13.7811 22.5312 13.1248 23.3333 13.1248C24.1354 13.1248 24.7917 13.7811 24.7917 14.5832C24.7917 15.3853 24.1354 16.0415 23.3333 16.0415Z" fill="#CED2D9"/>
</svg>
