<svg width="102" height="80" viewBox="0 0 102 80" fill="none" xmlns="http://www.w3.org/2000/svg">
<g clip-path="url(#clip0_1772_895)">
<path d="M10.7031 48.2005C10.8304 48.2007 10.9565 48.1757 11.0741 48.127C11.1917 48.0783 11.2985 48.0069 11.3884 47.9169L18.9665 40.3388C19.0565 40.2488 19.1279 40.1419 19.1766 40.0243C19.2253 39.9068 19.2504 39.7807 19.2504 39.6535C19.2504 39.5262 19.2253 39.4002 19.1766 39.2826C19.1279 39.165 19.0565 39.0582 18.9665 38.9682L11.3884 31.3901C11.2985 31.3 11.1917 31.2286 11.0741 31.1799C10.9565 31.1312 10.8304 31.1063 10.7031 31.1064V48.2005Z" fill="#9CA1AA"/>
<path opacity="0.5" d="M9.63939 45.012C9.39145 45.012 9.14352 44.9535 8.95441 44.8341L1.37545 40.0834C0.997246 39.8463 0.997246 39.4616 1.37545 39.2245L8.95383 34.4739C9.14293 34.3553 9.39087 34.2959 9.63881 34.2959L9.63939 45.012Z" fill="#9CA1AA"/>
<path opacity="0.5" d="M9.63939 41.8076C9.39145 41.8076 9.14352 41.7491 8.95441 41.63L1.37545 36.8793C0.997246 36.6422 0.997246 36.2575 1.37545 36.0201L8.95383 31.2698C9.14176 31.1503 9.39087 31.0918 9.63939 31.0918V41.8076Z" fill="#9CA1AA"/>
<path opacity="0.5" d="M9.63939 48.2148C9.39145 48.2148 9.14352 48.1563 8.95441 48.0369L1.37545 43.2865C0.997246 43.0491 0.997246 42.6644 1.37545 42.4274L8.95383 37.6767C9.14293 37.5582 9.39087 37.499 9.63881 37.499L9.63939 48.2148Z" fill="#9CA1AA"/>
<path opacity="0.5" d="M22.2051 45.5035L26.6738 33.8047H29.8353L34.3041 45.5035H31.2516L30.1977 42.8514H26.2924L25.2568 45.5035H22.2051ZM26.692 40.6896H29.7981L28.2361 36.6207L26.692 40.6896Z" fill="#9CA1AA"/>
<path opacity="0.5" d="M35.3242 45.5035V33.8047H38.2489V43.2509H43.7726V45.5035H35.3242Z" fill="#9CA1AA"/>
<path d="M59.1777 45.5035L63.6465 33.8047H66.8079L71.2766 45.5035H68.2244L67.1706 42.8514H63.2651L62.2297 45.5035H59.1777ZM63.6646 40.6896H66.771L65.2088 36.6207L63.6646 40.6896Z" fill="#9CA1AA"/>
<path d="M73.2912 45.5035V41.1981L69.0938 33.8047H72.1455L74.7612 38.6551L77.3779 33.8047H80.4296L76.234 41.1981V45.5035H73.2912Z" fill="#9CA1AA"/>
<path d="M81.4082 45.5035V33.8047H90.0369V36.0587H84.3328V38.5111H89.3648V40.7999H84.3328V43.2524H90.0369V45.5049L81.4082 45.5035Z" fill="#9CA1AA"/>
<path d="M91.0254 45.5035V33.8047H96.8752C98.2551 33.8047 99.2726 34.1681 99.927 34.8948C100.58 35.6215 100.908 36.5964 100.908 37.8194C100.908 38.6069 100.708 39.2971 100.308 39.8902C99.9085 40.4832 99.3632 40.9253 98.6728 41.2165C98.8345 41.3401 98.9732 41.4907 99.0832 41.6615C99.2125 41.8792 99.3253 42.107 99.4186 42.3426L100.799 45.5041H97.7467L96.439 42.525C96.3299 42.2713 96.1904 42.0866 96.0212 41.9709C95.8512 41.8552 95.609 41.7976 95.2948 41.7982H93.9501V45.5041L91.0254 45.5035ZM93.9501 39.545H96.1109C96.6802 39.545 97.1257 39.4028 97.4464 39.1182C97.7671 38.8337 97.9279 38.4008 97.9279 37.8194C97.9279 36.645 97.365 36.0576 96.2384 36.0572H93.9501V39.545Z" fill="#9CA1AA"/>
<path d="M58.1813 43.2507H52.659V33.8044H52.6382V33.7988H49.7109V45.5079H52.6382V45.5032H58.1813V43.2507Z" fill="#9CA1AA"/>
<path opacity="0.5" d="M42.2832 36.0572H45.7748V45.5035H48.6544V33.8047H42.2832V36.0572Z" fill="#9CA1AA"/>
</g>
<defs>
<clipPath id="clip0_1772_895">
<rect width="100" height="17.3752" fill="white" transform="translate(1 31)"/>
</clipPath>
</defs>
</svg>
