<svg xmlns="http://www.w3.org/2000/svg" xmlns:xlink="http://www.w3.org/1999/xlink" width="30" height="30" viewBox="0 0 30 30"><defs><linearGradient id="a" x1="0.843" y1="0.135" x2="0.206" y2="0.886" gradientUnits="objectBoundingBox"><stop offset="0" stop-color="#b6509e"/><stop offset="1" stop-color="#2ebac6"/></linearGradient></defs><g transform="translate(0 0.001)"><circle cx="15" cy="15" r="15" transform="translate(0 -0.001)" fill="#fff"/><g transform="translate(0 -0.001)"><path d="M14.9,29.809a15.019,15.019,0,0,1-3-.3A14.9,14.9,0,0,1,.3,17.909,15.051,15.051,0,0,1,.3,11.9,14.9,14.9,0,0,1,11.9.3a15.05,15.05,0,0,1,6.008,0,14.9,14.9,0,0,1,11.6,11.6,15.05,15.05,0,0,1,0,6.008,14.9,14.9,0,0,1-11.6,11.6,15.019,15.019,0,0,1-3,.3ZM14.9,1.6a13.415,13.415,0,0,0-2.685.271A13.3,13.3,0,0,0,1.867,12.222a13.438,13.438,0,0,0,0,5.364A13.3,13.3,0,0,0,12.224,27.942a13.435,13.435,0,0,0,5.364,0A13.3,13.3,0,0,0,27.942,17.586a13.438,13.438,0,0,0,0-5.364A13.3,13.3,0,0,0,17.586,1.867,13.408,13.408,0,0,0,14.9,1.6Z" transform="translate(0 0.001)" fill="url(#a)"/><g transform="translate(4.04 4.041)"><path d="M10.864,21.73a10.838,10.838,0,1,0-7.69-3.174,10.864,10.864,0,0,0,7.69,3.174Z" transform="translate(0 -0.001)" fill="#2775ca"/><path d="M724.129,517.017c0-1.949-1.169-2.617-3.508-2.9-1.671-.223-2.005-.668-2.005-1.448s.557-1.281,1.671-1.281a1.648,1.648,0,0,1,1.838,1.169.419.419,0,0,0,.39.278h.891a.381.381,0,0,0,.39-.39v-.056a2.782,2.782,0,0,0-2.506-2.283v-1.336c0-.223-.167-.39-.445-.446h-.835c-.223,0-.39.167-.446.446v1.281a2.839,2.839,0,0,0-2.729,2.729c0,1.838,1.114,2.561,3.452,2.84,1.559.278,2.06.612,2.06,1.5s-.78,1.5-1.838,1.5c-1.448,0-1.949-.613-2.116-1.448a.407.407,0,0,0-.39-.334h-.947a.381.381,0,0,0-.39.39v.056a3.11,3.11,0,0,0,2.951,2.673V521.3c0,.223.167.39.445.445h.835c.223,0,.39-.167.446-.445v-1.336a3.05,3.05,0,0,0,2.784-2.951Z" transform="translate(-709.574 -504.089)" fill="#fff"/><path d="M253.395,304.562a6.142,6.142,0,0,1,0-11.588.413.413,0,0,0,.251-.413v-.577a.314.314,0,0,0-.251-.33.254.254,0,0,0-.167.041,7.39,7.39,0,0,0,0,14.145.257.257,0,0,0,.231.012.252.252,0,0,0,.146-.177c.042-.041.042-.082.042-.165v-.577A.549.549,0,0,0,253.395,304.562Zm4.433-12.866a.257.257,0,0,0-.231-.012.251.251,0,0,0-.146.177c-.042.041-.042.082-.042.165v.577a.546.546,0,0,0,.251.413,6.142,6.142,0,0,1,0,11.588.413.413,0,0,0-.251.413v.577a.314.314,0,0,0,.251.33.255.255,0,0,0,.167-.041,7.421,7.421,0,0,0,0-14.186Z" transform="translate(-244.665 -287.757)" fill="#fff"/></g></g></g></svg>