<svg width="30" height="30" viewBox="0 0 30 30" fill="none" xmlns="http://www.w3.org/2000/svg">
<path d="M15 30C23.3628 30 30 23.2301 30 15C30 6.63717 23.2301 0 15 0C6.63717 0 0 6.76991 0 15C0 23.2301 6.76991 30 15 30Z" fill="#2C374B"/>
<path fill-rule="evenodd" clip-rule="evenodd" d="M23.23 9.55746C23.0972 9.42472 16.5928 5.57516 15.7964 5.30968C15.5309 5.17693 14.8672 5.04419 14.4689 5.17693C14.0707 5.30968 7.16804 9.29198 6.90256 9.55746C6.76981 9.69021 6.63707 9.95569 6.50433 10.0884C6.37158 10.3539 6.37158 10.4867 6.37158 15.1327V19.9114L7.30079 20.4424C7.83176 20.7079 8.22999 20.9734 8.22999 20.9734C8.36273 20.9734 14.6017 11.0176 14.6017 10.8849C14.6017 10.7522 13.1415 10.7522 12.7433 10.8849C12.2123 11.0176 11.8141 11.2831 11.5486 11.5486C11.4158 11.6814 10.6194 13.0088 9.55742 14.469C8.62822 15.9291 7.83176 17.2566 7.83176 17.2566C7.83176 17.2566 7.83176 15.9291 7.83176 14.0707V10.7522L7.9645 10.6194C8.22999 10.3539 14.9999 6.50437 15.2654 6.50437C15.3981 6.50437 15.5309 6.50437 17.1238 7.43357C17.6548 7.69906 19.1149 8.49552 20.3096 9.29198C21.5043 9.95569 22.5663 10.6194 22.699 10.7522L22.8318 10.8849V17.7876L19.5132 12.6106C19.3804 12.3451 19.2477 12.0796 19.1149 11.9468C19.1149 11.9468 18.9822 12.2123 18.1857 13.5398C18.053 13.6725 17.9203 13.938 17.9203 14.0707L17.7875 14.3362L17.9203 14.469L18.053 14.6017C18.053 14.6017 18.053 14.7345 18.1857 14.7345L18.4512 15.1327C18.4512 15.1327 18.4512 15.2654 18.584 15.2654C18.7167 15.3982 18.8495 15.6637 18.8495 15.7964C18.8495 15.7964 18.8495 15.7964 18.8495 15.9291L21.6371 20.4424L21.3716 20.5752C21.2388 20.7079 21.1061 20.7079 20.9734 20.7079L17.522 15.3982L17.3893 15.2654L17.1238 15.7964L15.7964 17.9203L18.4512 22.1681C18.053 22.4336 15.7964 24.0265 15.6636 24.0265C15.5309 24.0265 12.4778 22.0353 12.6105 21.9026C12.6105 21.9026 13.5397 20.3097 14.6017 18.4513C15.5309 16.8583 16.7256 14.8672 17.522 13.5398C18.4512 11.9468 18.8495 11.1504 18.8495 11.1504C18.8495 11.1504 18.1857 11.1504 17.3893 11.1504H16.0618L13.0088 16.1946C11.9468 18.053 10.8849 19.7787 10.3539 20.7079C9.42468 20.8406 9.15919 21.1061 9.15919 21.1061L9.02645 21.3716L11.4158 22.6991C12.7433 23.4955 13.938 24.1592 14.2034 24.292C14.6017 24.5575 15.2654 24.5575 15.5309 24.5575C15.7964 24.4247 22.699 20.4424 23.0972 20.1769C23.23 20.0442 23.3627 19.9114 23.4955 19.646L23.6282 19.2477V14.8672V10.4867L23.4955 10.2212C23.4955 9.95569 23.23 9.69021 23.23 9.55746Z" fill="white"/>
<path d="M22.566 17.6548L18.5837 11.5486L17.1235 13.938L20.9731 20.1769L22.6988 19.3804L22.566 17.6548Z" fill="#24A2EE"/>
<path d="M20.7075 20.9734L16.7252 14.8672L14.9995 17.5221L18.1854 22.5663L20.1765 21.7698L20.7075 20.9734Z" fill="#24A2EE"/>
<path fill-rule="evenodd" clip-rule="evenodd" d="M7.69895 10.7522L14.9998 6.50438L22.3007 10.7522V19.2477L14.9998 23.4955L9.55735 20.4424L8.89364 21.6371L14.8671 25.0885C14.9998 25.2212 15.1326 25.2212 15.2653 25.0885L23.6282 20.3097C23.7609 20.1769 23.8936 20.0442 23.8936 19.9115V10.3539C23.8936 10.2212 23.7609 10.0885 23.6282 9.95571L15.2653 5.17695C15.1326 5.04421 14.9998 5.04421 14.8671 5.17695L6.50426 9.82297C6.37151 9.95571 6.23877 10.0885 6.23877 10.2212V19.7787C6.23877 19.9115 6.37151 20.0442 6.50426 20.1769L8.22992 21.1062L9.02638 19.9115L7.83169 19.2477V10.7522H7.69895Z" fill="#98BCDC"/>
<path d="M18.1856 10.7522H15.398L8.89355 21.3717L11.1502 22.6991L18.1856 10.7522Z" fill="white"/>
<path d="M11.1503 11.8141C11.814 10.7521 13.6724 10.7521 14.4689 10.8849L8.09718 21.1061C7.83169 20.9734 7.30072 20.7079 6.90249 20.4424C6.37151 20.1769 6.23877 20.1769 6.23877 19.7787V19.2477C7.69895 17.1238 10.4866 12.876 11.1503 11.8141Z" fill="white"/>
</svg>
