<svg width="25" height="28" viewBox="0 0 25 28" fill="none" xmlns="http://www.w3.org/2000/svg">
<path d="M24.004 9.66477C24.004 8.13003 23.3718 6.97897 22.1072 6.2116C19.4551 4.62205 16.7855 3.0325 14.1158 1.44294C12.9742 0.748657 11.8501 0.748657 10.7085 1.42467C8.02131 3.0325 5.3341 4.62205 2.64689 6.22987C1.4877 6.94243 0.802728 8.00213 0.802728 9.44552C0.785164 12.5881 0.802728 15.7124 0.802728 18.8549C0.802728 20.2801 1.41745 21.3763 2.5942 22.0889C5.21115 23.6784 7.86323 25.2314 10.4802 26.8392C11.7623 27.6249 12.9918 27.6614 14.2739 26.8575C16.9084 25.2314 19.5956 23.6784 22.2301 22.0523C23.1434 21.4859 23.846 20.682 23.8811 19.5127C23.9338 17.7222 23.8987 15.9316 23.8987 14.1411C23.9338 14.1411 23.9689 14.1411 24.004 14.1411C24.004 12.6429 24.004 11.163 24.004 9.66477ZM22.757 18.7819C22.7746 19.8781 22.3706 20.6272 21.4573 21.157C18.9633 22.637 16.4869 24.0986 14.028 25.6334C12.9215 26.3277 11.9204 26.3094 10.8315 25.6334C9.00486 24.4823 7.14313 23.4043 5.26384 22.2533C7.3539 18.6722 9.40882 15.1277 11.4813 11.5832C11.4989 11.5649 11.5164 11.5284 11.534 11.5101C13.0796 8.93394 13.0796 8.93394 16.2059 9.28108C13.6943 13.6843 11.2354 18.0328 8.70628 22.4725C9.91816 23.1851 11.0598 23.8611 12.2365 24.5189C12.3946 24.6102 12.6932 24.5371 12.8864 24.4458C13.7997 23.9159 14.6954 23.3678 15.6965 22.7649C14.6603 21.0474 13.624 19.3848 12.5702 17.6308C13.1498 16.6076 13.747 15.5479 14.432 14.3421C15.837 16.6076 17.1719 18.7819 18.5242 20.9926C18.8053 20.8464 19.0687 20.7186 19.42 20.5358C19.0512 19.8964 18.7174 19.2752 18.3662 18.6722C17.4178 17.0644 16.4869 15.4749 15.5033 13.8853C15.1696 13.3555 15.1521 12.917 15.5033 12.4054C15.9249 11.7842 16.2586 11.1264 16.7152 10.3408C18.1905 12.6977 19.6132 14.9998 21.1763 17.4846C21.229 17.0096 21.2817 16.7903 21.2817 16.5528C21.2817 14.3603 21.2641 12.1679 21.2993 9.97537C21.2993 9.22627 21.0534 8.73296 20.4035 8.34928C17.9622 6.92416 15.5736 5.42596 13.1147 4.03739C12.7634 3.83641 12.1312 3.85468 11.7799 4.05566C9.30344 5.4625 6.87968 6.9607 4.4208 8.42236C3.91146 8.73296 3.68313 9.09837 3.68313 9.71958C3.71826 12.04 3.7007 14.3421 3.7007 16.6625C3.77095 16.6807 3.8412 16.7173 3.91146 16.7355C5.03552 14.945 6.2474 13.2093 7.24851 11.3457C8.23207 9.40898 9.76009 8.95221 11.9204 9.22627C9.40882 13.4285 6.93237 17.5394 4.47349 21.6321C2.68202 21.084 2.0673 20.2435 2.0673 18.4164C2.0673 15.4931 2.08486 12.5698 2.04973 9.6465C2.03217 8.53198 2.45369 7.74634 3.38456 7.19822C5.89613 5.70002 8.4077 4.20182 10.8841 2.64881C11.9204 2.00934 12.8513 1.99107 13.9226 2.64881C16.3113 4.12874 18.7174 5.57213 21.1412 6.9607C22.2828 7.61845 22.7922 8.51371 22.757 9.92056C22.7043 12.8621 22.7219 15.822 22.757 18.7819Z" fill="white"/>
</svg>
