<svg width="30" height="30" viewBox="0 0 30 30" fill="none" xmlns="http://www.w3.org/2000/svg">
<path d="M15 30C23.3628 30 30 23.2301 30 15C30 6.63717 23.2301 0 15 0C6.63717 0 0 6.76991 0 15C0 23.2301 6.76991 30 15 30Z" fill="#2C374B"/>
<g clip-path="url(#clip0_1719_867)">
<path d="M6.80811 11.0801V18.9201C6.80811 19.4241 7.07211 19.8801 7.51211 20.1361L14.3041 24.0561C14.7361 24.3041 15.2721 24.3041 15.7041 24.0561L22.4961 20.1361C22.9281 19.8881 23.2001 19.4241 23.2001 18.9201V11.0801C23.2001 10.5761 22.9361 10.1201 22.4961 9.86406L15.7041 5.94406C15.2721 5.69606 14.7361 5.69606 14.3041 5.94406L7.51211 9.86406C7.08011 10.1121 6.81611 10.5761 6.81611 11.0801H6.80811Z" fill="#213147"/>
<path d="M16.4801 16.52L15.5121 19.176C15.4881 19.248 15.4881 19.328 15.5121 19.408L17.1761 23.976L19.1041 22.864L16.7921 16.52C16.7361 16.376 16.5361 16.376 16.4801 16.52Z" fill="#12AAFF"/>
<path d="M18.424 12.056C18.368 11.912 18.168 11.912 18.112 12.056L17.144 14.712C17.12 14.784 17.12 14.864 17.144 14.944L19.872 22.424L21.8 21.312L18.424 12.064V12.056Z" fill="#12AAFF"/>
<path d="M15.0002 6.24C15.0482 6.24 15.0962 6.256 15.1362 6.28L22.4802 10.52C22.5682 10.568 22.6162 10.664 22.6162 10.76V19.24C22.6162 19.336 22.5602 19.432 22.4802 19.48L15.1362 23.72C15.0962 23.744 15.0482 23.76 15.0002 23.76C14.9522 23.76 14.9042 23.744 14.8642 23.72L7.52023 19.48C7.43223 19.432 7.38423 19.336 7.38423 19.24V10.752C7.38423 10.656 7.44023 10.56 7.52023 10.512L14.8642 6.272C14.9042 6.248 14.9522 6.232 15.0002 6.232V6.24ZM15.0002 5C14.7362 5 14.4802 5.064 14.2402 5.2L6.89623 9.44C6.42423 9.712 6.13623 10.208 6.13623 10.752V19.232C6.13623 19.776 6.42423 20.272 6.89623 20.544L14.2402 24.784C14.4722 24.92 14.7362 24.984 15.0002 24.984C15.2642 24.984 15.5202 24.92 15.7602 24.784L23.1042 20.544C23.5762 20.272 23.8642 19.776 23.8642 19.232V10.752C23.8642 10.208 23.5762 9.712 23.1042 9.44L15.7522 5.2C15.5202 5.064 15.2562 5 14.9922 5H15.0002Z" fill="#9DCCED"/>
<path d="M10.1362 22.432L10.8162 20.576L12.1762 21.704L10.9042 22.872L10.1362 22.432Z" fill="#213147"/>
<path d="M14.376 10.152H12.512C12.376 10.152 12.248 10.24 12.2 10.368L8.20801 21.312L10.136 22.424L14.536 10.368C14.576 10.256 14.496 10.144 14.384 10.144L14.376 10.152Z" fill="white"/>
<path d="M17.6398 10.152H15.7758C15.6398 10.152 15.5118 10.24 15.4638 10.368L10.9038 22.864L12.8318 23.976L17.7918 10.368C17.8318 10.256 17.7518 10.144 17.6398 10.144V10.152Z" fill="white"/>
</g>
<defs>
<clipPath id="clip0_1719_867">
<rect width="20" height="20" fill="white" transform="translate(5 5)"/>
</clipPath>
</defs>
</svg>
