<svg width="30" height="30" viewBox="0 0 30 30" fill="none" xmlns="http://www.w3.org/2000/svg">
<path d="M2.71191 9.11996V20.88C2.71191 21.636 3.10791 22.32 3.76791 22.704L13.9559 28.584C14.6039 28.956 15.4079 28.956 16.0559 28.584L26.2439 22.704C26.8919 22.332 27.2999 21.636 27.2999 20.88V9.11996C27.2999 8.36396 26.9039 7.67996 26.2439 7.29596L16.0559 1.41596C15.4079 1.04396 14.6039 1.04396 13.9559 1.41596L3.76791 7.29596C3.11991 7.66796 2.72391 8.36396 2.72391 9.11996H2.71191Z" fill="#213147"/>
<path d="M17.2202 17.28L15.7682 21.264C15.7322 21.372 15.7322 21.492 15.7682 21.612L18.2642 28.464L21.1562 26.796L17.6882 17.28C17.6042 17.064 17.3042 17.064 17.2202 17.28Z" fill="#12AAFF"/>
<path d="M20.1365 10.584C20.0525 10.368 19.7525 10.368 19.6685 10.584L18.2165 14.568C18.1805 14.676 18.1805 14.796 18.2165 14.916L22.3085 26.136L25.2005 24.468L20.1365 10.596V10.584Z" fill="#12AAFF"/>
<path d="M15.0001 1.86C15.0721 1.86 15.1441 1.884 15.2041 1.92L26.2201 8.28C26.3521 8.352 26.4241 8.496 26.4241 8.64V21.36C26.4241 21.504 26.3401 21.648 26.2201 21.72L15.2041 28.08C15.1441 28.116 15.0721 28.14 15.0001 28.14C14.9281 28.14 14.8561 28.116 14.7961 28.08L3.7801 21.72C3.6481 21.648 3.5761 21.504 3.5761 21.36V8.628C3.5761 8.484 3.6601 8.34 3.7801 8.268L14.7961 1.908C14.8561 1.872 14.9281 1.848 15.0001 1.848V1.86ZM15.0001 0C14.6041 0 14.2201 0.096 13.8601 0.3L2.8441 6.66C2.1361 7.068 1.7041 7.812 1.7041 8.628V21.348C1.7041 22.164 2.1361 22.908 2.8441 23.316L13.8601 29.676C14.2081 29.88 14.6041 29.976 15.0001 29.976C15.3961 29.976 15.7801 29.88 16.1401 29.676L27.1561 23.316C27.8641 22.908 28.2961 22.164 28.2961 21.348V8.628C28.2961 7.812 27.8641 7.068 27.1561 6.66L16.1281 0.3C15.7801 0.096 15.3841 0 14.9881 0H15.0001Z" fill="#9DCCED"/>
<path d="M7.7041 26.148L8.7241 23.364L10.7641 25.056L8.8561 26.808L7.7041 26.148Z" fill="#213147"/>
<path d="M14.064 7.72794H11.268C11.064 7.72794 10.872 7.85994 10.8 8.05194L4.81201 24.4679L7.70401 26.1359L14.304 8.05194C14.364 7.88394 14.244 7.71594 14.076 7.71594L14.064 7.72794Z" fill="white"/>
<path d="M18.96 7.72794H16.164C15.96 7.72794 15.768 7.85994 15.696 8.05194L8.85596 26.7959L11.748 28.4639L19.188 8.05194C19.248 7.88394 19.128 7.71594 18.96 7.71594V7.72794Z" fill="white"/>
</svg>
