<svg width="102" height="80" viewBox="0 0 102 80" fill="none" xmlns="http://www.w3.org/2000/svg">
<g clip-path="url(#clip0_1772_864)">
<path d="M33.6532 33.6377C33.8873 33.6377 34.0906 33.6842 34.2521 33.7834C34.4136 33.8827 34.5751 34.0702 34.7312 34.3515L37.82 39.9618C37.8515 40.0241 37.8563 40.0761 37.8406 40.1178C37.8249 40.1596 37.7783 40.1801 37.7051 40.1801H36.5176C36.4135 40.1801 36.3403 40.1384 36.3041 40.0604L35.6422 38.8571H31.2509L30.6049 40.0604C30.5631 40.1438 30.4905 40.1801 30.3913 40.1801H29.1778C29.0943 40.1801 29.0477 40.1596 29.032 40.1178C29.0163 40.0761 29.0217 40.0241 29.0526 39.9618L32.1208 34.3466C32.2769 34.0653 32.4282 33.8778 32.5794 33.7786C32.7306 33.6794 32.9024 33.6328 33.1003 33.6328H33.6526V33.6383L33.6532 33.6377ZM31.8353 37.7682H35.0542L33.5697 35.0284C33.5437 34.9867 33.5122 34.9607 33.4656 34.9607H33.4082C33.3664 34.9607 33.3301 34.9812 33.3041 35.0284L31.8353 37.7682Z" fill="#9CA1AA"/>
<path d="M44.6227 33.6373C45.3413 33.6373 45.8519 33.7988 46.1647 34.1219C46.4774 34.4449 46.6335 34.924 46.6335 35.5598V36.091C46.6335 36.6276 46.524 37.0492 46.3056 37.362C46.0866 37.6747 45.7327 37.8726 45.2379 37.9609L46.8368 39.9403C46.8682 39.9717 46.8785 40.0183 46.8628 40.0806C46.8525 40.1429 46.8005 40.1744 46.7115 40.1744H45.5083C45.4248 40.1744 45.3728 40.1641 45.3413 40.1484C45.3099 40.1278 45.279 40.0963 45.2476 40.0546L43.7685 38.1115H40.7474V39.9711C40.7474 40.1066 40.6796 40.1744 40.5441 40.1744H39.5339C39.3881 40.1744 39.3203 40.1066 39.3203 39.9711V33.918C39.3203 33.7305 39.4141 33.6367 39.6016 33.6367H44.6233L44.6227 33.6373ZM40.7522 36.9712H44.3311C44.6487 36.9712 44.8731 36.9034 45.0032 36.7679C45.1332 36.6324 45.201 36.4243 45.201 36.143V35.7522C45.201 35.4709 45.1332 35.2628 45.0032 35.1273C44.8731 34.9918 44.6487 34.924 44.3311 34.924H40.8726C40.7891 34.924 40.7528 34.9603 40.7528 35.0384V36.9712H40.7522Z" fill="#9CA1AA"/>
<path d="M54.4536 33.6377C55.0943 33.6377 55.5528 33.7678 55.8238 34.023C56.0949 34.2783 56.2304 34.6637 56.2304 35.1797V35.628C56.2304 36.1488 56.0325 36.5445 55.6315 36.8155C56.0586 37.0653 56.2776 37.4664 56.2776 38.0187V38.5607C56.2776 38.8106 56.2515 39.035 56.1941 39.2328C56.1366 39.4307 56.0483 39.6025 55.9182 39.7434C55.7882 39.8838 55.6212 39.9933 55.4076 40.0665C55.1941 40.1397 54.9334 40.1808 54.6212 40.1808H49.0684C48.8809 40.1808 48.7871 40.087 48.7871 39.8995V33.9196C48.7871 33.7321 48.8809 33.6383 49.0684 33.6383H54.4542L54.4536 33.6377ZM50.219 36.3569H54.0526C54.3653 36.3569 54.5734 36.3103 54.6878 36.2166C54.8021 36.1228 54.8547 35.9873 54.8547 35.8052V35.4876C54.8547 35.2946 54.8027 35.1543 54.6932 35.0605C54.5837 34.9722 54.4065 34.925 54.1669 34.925H50.3436C50.2602 34.925 50.2239 34.9668 50.2239 35.0448V36.3575H50.2184L50.219 36.3569ZM50.219 37.3726V38.7634C50.219 38.8469 50.2608 38.8832 50.3388 38.8832H54.1723C54.4222 38.8832 54.5994 38.8366 54.7035 38.7477C54.8075 38.6594 54.865 38.5136 54.865 38.3151V37.9606C54.865 37.7677 54.8075 37.6219 54.6932 37.5233C54.5789 37.4241 54.3653 37.372 54.0526 37.372H50.219V37.3726Z" fill="#9CA1AA"/>
<path d="M59.7609 33.6377C59.8964 33.6377 59.9642 33.7054 59.9642 33.841V39.9721C59.9642 40.1076 59.8964 40.1753 59.7609 40.1753H58.7507C58.6049 40.1753 58.5371 40.1076 58.5371 39.9721V33.841C58.5371 33.7054 58.6103 33.6377 58.7507 33.6377H59.7609Z" fill="#9CA1AA"/>
<path d="M69.5536 33.6377C69.6994 33.6377 69.7672 33.7054 69.7672 33.841V34.7575C69.7672 34.9032 69.694 34.971 69.5536 34.971H66.6209V39.9715C66.6209 40.107 66.5531 40.1747 66.4176 40.1747H65.3965C65.261 40.1747 65.1932 40.107 65.1932 39.9715V34.971H62.2604C62.1146 34.971 62.0469 34.8978 62.0469 34.7575V33.841C62.0469 33.7054 62.1201 33.6377 62.2604 33.6377H69.553H69.5536Z" fill="#9CA1AA"/>
<path d="M76.9449 33.6373C77.6636 33.6373 78.1742 33.7988 78.4869 34.1219C78.7997 34.4449 78.9558 34.924 78.9558 35.5598V36.091C78.9558 36.6276 78.8463 37.0492 78.6279 37.362C78.4089 37.6747 78.055 37.8726 77.5602 37.9609L79.159 39.9403C79.1905 39.9717 79.2008 40.0183 79.185 40.0806C79.1748 40.1429 79.1227 40.1744 79.0338 40.1744H77.8306C77.7471 40.1744 77.6951 40.1641 77.6636 40.1484C77.6322 40.1278 77.6013 40.0963 77.5698 40.0546L76.0907 38.1115H73.0696V39.9711C73.0696 40.1066 73.0019 40.1744 72.8664 40.1744H71.8561C71.7103 40.1744 71.6426 40.1066 71.6426 39.9711V33.918C71.6426 33.7305 71.7363 33.6367 71.9239 33.6367H76.9455L76.9449 33.6373ZM73.0799 36.9712H76.6588C76.9764 36.9712 77.2008 36.9034 77.3309 36.7679C77.461 36.6324 77.5287 36.4243 77.5287 36.143V35.7522C77.5287 35.4709 77.461 35.2628 77.3309 35.1273C77.2008 34.9918 76.9764 34.924 76.6588 34.924H73.2003C73.1168 34.924 73.0805 34.9603 73.0805 35.0384V36.9712H73.0799Z" fill="#9CA1AA"/>
<path d="M82.2012 33.6377C82.3367 33.6377 82.4045 33.7054 82.4045 33.841V37.5704C82.4045 37.8203 82.425 38.029 82.4668 38.1905C82.5085 38.3575 82.5763 38.4875 82.67 38.5813C82.7638 38.6805 82.889 38.7483 83.0505 38.7846C83.2121 38.8263 83.4099 38.8469 83.6549 38.8469H86.2434C86.4885 38.8469 86.6863 38.8263 86.8478 38.7846C87.0093 38.7428 87.1345 38.6751 87.2283 38.5813C87.3221 38.4821 87.3898 38.352 87.4261 38.1905C87.4624 38.0236 87.4836 37.8209 87.4836 37.5704V33.841C87.4836 33.7054 87.5513 33.6377 87.6868 33.6377H88.708C88.8435 33.6377 88.9113 33.7054 88.9113 33.841V37.7114C88.9113 38.1597 88.8647 38.5396 88.7709 38.8572C88.6771 39.1699 88.5259 39.4252 88.3178 39.623C88.1097 39.8208 87.8387 39.9618 87.5054 40.0501C87.172 40.1384 86.771 40.1802 86.2967 40.1802H83.6035C83.1292 40.1802 82.7281 40.1384 82.4002 40.0501C82.0723 39.9618 81.8013 39.8208 81.5926 39.623C81.3845 39.4252 81.2333 39.1699 81.1341 38.8572C81.0349 38.5444 80.9883 38.1591 80.9883 37.7114V33.841C80.9883 33.7054 81.0615 33.6377 81.2018 33.6377H82.2018H82.2012Z" fill="#9CA1AA"/>
<path d="M92.9261 33.6377C93.0616 33.6377 93.1814 33.648 93.2806 33.6637C93.3798 33.6843 93.4681 33.7157 93.5413 33.7732C93.6145 33.8252 93.6817 33.8984 93.7446 33.9867C93.802 34.0751 93.8643 34.1949 93.9267 34.3461L95.8697 38.8312C95.8958 38.8886 95.9375 38.9146 95.9998 38.9146H96.1141C96.1765 38.9146 96.2182 38.8886 96.2442 38.8312L98.1873 34.3461C98.2496 34.1949 98.3125 34.0751 98.3694 33.9867C98.4269 33.8984 98.4946 33.8252 98.5726 33.7732C98.6458 33.7212 98.7342 33.6849 98.8279 33.6637C98.9271 33.6431 99.0415 33.6377 99.177 33.6377H100.177C100.5 33.6377 100.719 33.7109 100.833 33.8567C100.948 34.0025 101 34.2523 101 34.6068V39.9721C101 40.1076 100.927 40.1753 100.787 40.1753H99.8334C99.6978 40.1753 99.6301 40.1076 99.6301 39.9721V35.0914C99.6301 35.0291 99.6041 34.9976 99.5569 34.9976H99.4734C99.4111 34.9976 99.3694 35.0236 99.3536 35.0708L97.468 39.2589C97.3948 39.4258 97.3168 39.5716 97.2387 39.6859C97.1607 39.8003 97.0772 39.894 96.9889 39.9727C96.9006 40.0459 96.7959 40.1028 96.6816 40.1342C96.5672 40.1657 96.4317 40.1808 96.2751 40.1808H95.8268C95.6707 40.1808 95.5352 40.1651 95.4203 40.1342C95.3059 40.1028 95.2013 40.0507 95.113 39.9727C95.0246 39.8995 94.9357 39.8009 94.8631 39.6859C94.7851 39.5716 94.707 39.4307 94.6338 39.2589L92.7482 35.0708C92.7277 35.0188 92.6908 34.9976 92.6284 34.9976H92.545C92.4929 34.9976 92.4718 35.0291 92.4718 35.0914V39.9721C92.4718 40.1076 92.404 40.1753 92.2685 40.1753H91.3151C91.1693 40.1753 91.1016 40.1076 91.1016 39.9721V34.6068C91.1016 34.2523 91.159 34.0025 91.2685 33.8567C91.3829 33.7109 91.6018 33.6377 91.9303 33.6377H92.9255H92.9261Z" fill="#9CA1AA"/>
<path d="M32.5772 42.1133C32.8501 42.1133 33.083 42.1393 33.2747 42.1913C33.4671 42.2433 33.6232 42.3262 33.7436 42.4393C33.864 42.5525 33.9511 42.6989 34.0049 42.8785C34.0588 43.0582 34.086 43.2772 34.086 43.5361V44.4629C34.086 44.7212 34.0594 44.9414 34.0049 45.1229C33.9511 45.3044 33.864 45.4514 33.7436 45.5645C33.6232 45.6776 33.4671 45.7593 33.2747 45.8095C33.0824 45.8597 32.8501 45.8851 32.5772 45.8851H30.9124C30.6396 45.8851 30.4079 45.8597 30.2173 45.8095C30.0268 45.7593 29.8713 45.6776 29.7515 45.5645C29.6312 45.4514 29.5428 45.3044 29.4878 45.1229C29.4321 44.9414 29.4043 44.7212 29.4043 44.4629V43.5361C29.4043 43.2778 29.4321 43.0582 29.4878 42.8785C29.5434 42.6989 29.6312 42.5525 29.7515 42.4393C29.8719 42.3262 30.0268 42.2439 30.2173 42.1913C30.4079 42.1393 30.6396 42.1133 30.9124 42.1133H32.5772ZM30.2282 44.403C30.2282 44.5433 30.2397 44.6607 30.2633 44.7557C30.2863 44.8507 30.325 44.9263 30.3795 44.9819C30.4333 45.0376 30.5059 45.0775 30.5979 45.1005C30.6892 45.1241 30.8054 45.1356 30.9457 45.1356H32.5458C32.6855 45.1356 32.8017 45.1241 32.893 45.1005C32.9844 45.0775 33.0576 45.0376 33.1114 44.9819C33.1652 44.9263 33.204 44.8507 33.2276 44.7557C33.2505 44.6607 33.2626 44.5427 33.2626 44.403V43.5948C33.2626 43.4544 33.2511 43.3371 33.2276 43.2421C33.204 43.1465 33.1659 43.0715 33.1114 43.0159C33.0576 42.9602 32.985 42.9209 32.893 42.8973C32.8017 42.8743 32.6855 42.8622 32.5458 42.8622H30.9457C30.8054 42.8622 30.6898 42.8743 30.5979 42.8973C30.5065 42.9209 30.4333 42.9602 30.3795 43.0159C30.3256 43.0715 30.2869 43.1471 30.2633 43.2421C30.2397 43.3371 30.2282 43.4551 30.2282 43.5948V44.403Z" fill="#9CA1AA"/>
<path d="M38.3473 42.1133C38.7605 42.1133 39.0569 42.207 39.2366 42.3934C39.4163 42.5803 39.5058 42.8568 39.5058 43.2234V43.5307C39.5058 43.8398 39.4429 44.0836 39.3171 44.2633C39.1912 44.4429 38.9868 44.5579 38.703 44.6081L39.6244 45.7502C39.6425 45.7684 39.6474 45.795 39.6407 45.8313C39.6335 45.867 39.605 45.8851 39.5548 45.8851H38.8597C38.8132 45.8851 38.7805 45.8797 38.7629 45.8688C38.7448 45.8579 38.7272 45.8404 38.7091 45.8149L37.8579 44.694H36.1175V45.7659C36.1175 45.8446 36.0782 45.8845 35.9989 45.8845H35.417C35.3341 45.8845 35.293 45.8452 35.293 45.7659V42.2748C35.293 42.1671 35.3468 42.1133 35.4545 42.1133H38.3479H38.3473ZM36.1169 44.037H38.1804C38.3637 44.037 38.4931 43.9977 38.5681 43.9184C38.6438 43.8398 38.6813 43.7194 38.6813 43.5573V43.331C38.6813 43.1695 38.6438 43.0491 38.5681 42.9699C38.4925 42.8912 38.3631 42.8513 38.1804 42.8513H36.1871C36.1405 42.8513 36.1169 42.8731 36.1169 42.916V44.037Z" fill="#9CA1AA"/>
<path d="M43.9733 42.1129C44.3429 42.1129 44.606 42.1867 44.7627 42.3337C44.9188 42.4813 44.9968 42.7039 44.9968 43.0016V43.2599C44.9968 43.5618 44.8819 43.7898 44.652 43.9441C44.9001 44.0875 45.0241 44.3191 45.0241 44.6392V44.9519C45.0241 45.0953 45.0077 45.2248 44.9757 45.3397C44.9436 45.4546 44.8904 45.5526 44.8166 45.6331C44.7428 45.7142 44.6448 45.7759 44.5232 45.8188C44.401 45.8618 44.2503 45.8835 44.0707 45.8835H40.8705C40.7628 45.8835 40.709 45.8297 40.709 45.722V42.2738C40.709 42.1661 40.7628 42.1123 40.8705 42.1123H43.9739L43.9733 42.1129ZM41.5329 43.6809H43.7416C43.9212 43.6809 44.0434 43.6543 44.1082 43.5999C44.1729 43.546 44.205 43.4674 44.205 43.3627V43.1794C44.205 43.0681 44.1735 42.9865 44.1106 42.9344C44.0477 42.8824 43.9461 42.8564 43.8063 42.8564H41.6025C41.5559 42.8564 41.5323 42.88 41.5323 42.9266V43.6809H41.5329ZM41.5329 44.2683V45.0711C41.5329 45.1177 41.5559 45.1413 41.6031 45.1413H43.8118C43.9551 45.1413 44.058 45.1153 44.1191 45.0632C44.1802 45.0112 44.2104 44.9277 44.2104 44.8128V44.6077C44.2104 44.4964 44.1771 44.4123 44.1106 44.3548C44.0441 44.2974 43.9212 44.2689 43.7416 44.2689H41.5329V44.2683Z" fill="#9CA1AA"/>
<path d="M46.9032 42.1133C46.9825 42.1133 47.0218 42.1526 47.0218 42.2319V45.7659C47.0218 45.8446 46.9825 45.8845 46.9032 45.8845H46.3213C46.2384 45.8845 46.1973 45.8452 46.1973 45.7659V42.2319C46.1973 42.1526 46.2384 42.1133 46.3213 42.1133H46.9032Z" fill="#9CA1AA"/>
<path d="M52.3775 42.1133C52.4598 42.1133 52.5016 42.1526 52.5016 42.2319V42.76C52.5016 42.8428 52.4604 42.884 52.3775 42.884H50.6855V45.7665C50.6855 45.8452 50.6462 45.8851 50.5669 45.8851H49.9795C49.9003 45.8851 49.861 45.8458 49.861 45.7665V42.884H48.1689C48.0861 42.884 48.0449 42.8428 48.0449 42.76V42.2319C48.0449 42.1526 48.0861 42.1133 48.1689 42.1133H52.3769H52.3775Z" fill="#9CA1AA"/>
<path d="M22.6292 32.6375L13.333 27.2704C12.7087 26.9099 11.9332 26.9099 11.3089 27.2704L2.01207 32.6375C1.38777 32.998 1 33.6695 1 34.3906V45.1254C1 45.8465 1.38777 46.518 2.01207 46.8785L11.3089 52.2462C11.621 52.4265 11.9707 52.5166 12.321 52.5166C12.6712 52.5166 13.0209 52.4265 13.333 52.2462L22.6298 46.8785C23.2541 46.518 23.6419 45.8465 23.6419 45.1254V34.3906C23.6419 33.6695 23.2541 32.998 22.6298 32.6375H22.6292ZM12.523 50.8427C12.3984 50.9147 12.2435 50.9147 12.1189 50.8427L2.8221 45.4757C2.69748 45.4037 2.62005 45.2694 2.62005 45.1254V37.3766H12.321C12.9404 37.3766 13.506 37.6144 13.9301 38.0046C14.4044 38.4401 14.7026 39.065 14.7026 39.7583C14.7026 40.4516 14.4044 41.0765 13.9301 41.512H15.9168C16.1763 40.9821 16.3221 40.3869 16.3221 39.7583C16.3221 39.1298 16.1763 38.5345 15.9168 38.0046C15.8085 37.7832 15.6802 37.5732 15.5338 37.3766C14.8043 36.3942 13.6355 35.7566 12.3204 35.7566H2.62005V35.1293H12.321C14.0027 35.1293 15.4782 36.0312 16.2888 37.3766C16.4092 37.5763 16.5151 37.7862 16.6046 38.0046C16.8272 38.5454 16.95 39.1382 16.95 39.7583C16.95 40.3784 16.8272 40.9706 16.6046 41.512H18.3214C18.4854 40.9495 18.5694 40.3602 18.5694 39.7583C18.5694 38.0893 17.9197 36.52 16.7395 35.3398C15.5592 34.1595 13.99 33.5098 12.321 33.5098H3.74222L12.1189 28.6733C12.1812 28.6376 12.2508 28.6194 12.321 28.6194C12.3911 28.6194 12.4607 28.6376 12.523 28.6733L21.8198 34.0404C21.9444 34.1123 22.0219 34.2466 22.0219 34.3906V42.1394H12.321C11.7015 42.1394 11.1359 41.9016 10.7118 41.5114C10.2375 41.0759 9.93929 40.451 9.93929 39.7577C9.93929 39.0644 10.2375 38.4395 10.7118 38.004H8.72516C8.46564 38.5339 8.31985 39.1292 8.31985 39.7577C8.31985 41.9639 10.1147 43.7588 12.321 43.7588H22.0219V44.3868H12.321C9.76869 44.3868 7.69191 42.31 7.69191 39.7577C7.69191 39.1376 7.81472 38.5454 8.03673 38.004H6.3199C6.15595 38.5666 6.07126 39.1558 6.07126 39.7577C6.07126 41.4268 6.72097 42.996 7.90122 44.1762C9.08147 45.3565 10.6507 46.0068 12.3197 46.0068H20.8979L12.5218 50.8427H12.523Z" fill="#9CA1AA"/>
</g>
<defs>
<clipPath id="clip0_1772_864">
<rect width="100" height="25.516" fill="white" transform="translate(1 27)"/>
</clipPath>
</defs>
</svg>
