<svg width="30" height="30" viewBox="0 0 30 30" fill="none" xmlns="http://www.w3.org/2000/svg">
<circle cx="15" cy="15" r="15" fill="white"/>
<path d="M18.088 4H11.9119C11.7055 4 11.5402 4.17135 11.5357 4.38435C11.4109 10.3714 8.37646 16.0537 3.15351 20.0786C2.98769 20.2063 2.94991 20.4464 3.07114 20.6193L6.68466 25.7768C6.80759 25.9523 7.04711 25.9919 7.21572 25.863C10.4815 23.3628 13.1083 20.3467 15 17.0037C16.8917 20.3467 19.5186 23.3628 22.7844 25.863C22.9528 25.9919 23.1924 25.9523 23.3155 25.7768L26.929 20.6193C27.05 20.4464 27.0123 20.2063 26.8466 20.0786C21.6235 16.0537 18.5891 10.3714 18.4644 4.38435C18.4599 4.17135 18.2944 4 18.088 4Z" fill="#FF875B"/>
</svg>
