<svg width="104" height="104" viewBox="0 0 104 104" fill="none" xmlns="http://www.w3.org/2000/svg">
<g filter="url(#filter0_d_28_167)">
<ellipse cx="52" cy="52" rx="20" ry="20" transform="rotate(-180 52 52)" fill="#CD7A37"/>
<ellipse cx="52" cy="52" rx="20" ry="20" transform="rotate(-180 52 52)" stroke="#203B60" stroke-opacity="0.6" stroke-width="8"/>
</g>
<path d="M48.5486 58.4347C49.4019 58.3992 50.1841 58.0436 50.8241 57.4036L51.8552 56.3725C52.1752 56.0525 52.1752 55.5192 51.8552 55.1992C51.5352 54.8792 51.0019 54.8792 50.6819 55.1992L49.6508 56.2303C49.3308 56.5503 48.9041 56.7636 48.4775 56.7636C48.193 56.7636 47.7664 56.7281 47.4108 56.3725C47.0908 56.0525 47.0197 55.6614 47.0197 55.377C47.0197 54.9503 47.233 54.4881 47.553 54.1325L50.1486 51.537C50.7886 50.897 51.7841 50.8259 52.353 51.3947C52.673 51.7147 53.2064 51.7147 53.5264 51.3947C53.8464 51.0747 53.8464 50.5414 53.5264 50.2214C52.9219 49.617 52.1752 49.3325 51.3575 49.3325C50.5041 49.3325 49.6152 49.6881 48.9397 50.3636L46.3441 52.9592C45.7041 53.5992 45.313 54.4881 45.313 55.377C45.313 56.1947 45.633 56.977 46.2019 57.5459C46.8419 58.1859 47.6952 58.5059 48.5486 58.4347Z" fill="white"/>
<path d="M52.9219 48.8347C52.9219 48.7992 52.9219 48.7992 52.9219 48.8347L53.633 48.1236L53.9886 47.7681C54.3086 47.4481 54.6997 47.2347 55.1263 47.1992C55.4108 47.1992 55.8374 47.2347 56.193 47.5903C56.513 47.9103 56.5841 48.3014 56.5841 48.5858C56.5841 49.0125 56.4063 49.4747 56.0508 49.8303L53.4552 52.4258C52.8152 53.0658 51.8197 53.137 51.2508 52.5681C50.9308 52.2481 50.3974 52.2481 50.0774 52.5681C49.7574 52.8881 49.7574 53.4214 50.0774 53.7414C50.6819 54.3458 51.4286 54.6303 52.2463 54.6303C53.0997 54.6303 53.9885 54.2747 54.6641 53.5992L57.2597 51.0036C57.8997 50.3636 58.2908 49.4747 58.2908 48.5858C58.2908 47.7681 57.9708 46.9858 57.4019 46.417C56.7974 45.8125 55.9441 45.4925 55.0908 45.5281C54.2374 45.5636 53.4552 45.9192 52.8152 46.5592L52.4597 46.9147L51.7486 47.5903C51.4286 47.9103 51.4286 48.4436 51.7486 48.7636C52.0686 49.1192 52.6019 49.1547 52.9219 48.8347Z" fill="white"/>
<defs>
<filter id="filter0_d_28_167" x="0" y="0" width="104" height="104" filterUnits="userSpaceOnUse" color-interpolation-filters="sRGB">
<feFlood flood-opacity="0" result="BackgroundImageFix"/>
<feColorMatrix in="SourceAlpha" type="matrix" values="0 0 0 0 0 0 0 0 0 0 0 0 0 0 0 0 0 0 127 0" result="hardAlpha"/>
<feMorphology radius="2" operator="erode" in="SourceAlpha" result="effect1_dropShadow_28_167"/>
<feOffset/>
<feGaussianBlur stdDeviation="15"/>
<feColorMatrix type="matrix" values="0 0 0 0 0.159566 0 0 0 0 0.262489 0 0 0 0 0.420833 0 0 0 1 0"/>
<feBlend mode="normal" in2="BackgroundImageFix" result="effect1_dropShadow_28_167"/>
<feBlend mode="normal" in="SourceGraphic" in2="effect1_dropShadow_28_167" result="shape"/>
</filter>
</defs>
</svg>
