<svg width="30" height="30" viewBox="0 0 30 30" fill="none" xmlns="http://www.w3.org/2000/svg">
<g clip-path="url(#clip0_501_422)">
<path d="M24.2352 5.14624H5.72461V21.9813H24.2352V5.14624Z" fill="white"/>
<path fill-rule="evenodd" clip-rule="evenodd" d="M29.9699 15C29.9699 23.2733 23.2632 29.98 14.9898 29.98C6.71656 29.98 0.00976562 23.2733 0.00976562 15C0.00976562 6.72669 6.71656 0.0198975 14.9898 0.0198975C23.2632 0.0198975 29.9699 6.72669 29.9699 15ZM10.7449 20.9613H7.83769C7.2268 20.9613 6.92504 20.9613 6.74106 20.8436C6.54233 20.7147 6.42089 20.5013 6.40617 20.2657C6.39512 20.0487 6.54602 19.7836 6.84777 19.2537L14.026 6.60105C14.3315 6.06376 14.486 5.79512 14.6811 5.69576C14.8908 5.58905 15.1411 5.58905 15.3508 5.69576C15.5459 5.79512 15.7004 6.06376 16.0059 6.60105L17.4816 9.17706L17.4891 9.1902C17.819 9.76661 17.9863 10.0589 18.0593 10.3657C18.1403 10.7006 18.1403 11.0539 18.0593 11.3887C17.9857 11.6979 17.8201 11.9923 17.4852 12.5774L13.7147 19.2427L13.7049 19.2598C13.3729 19.8409 13.2046 20.1355 12.9713 20.3577C12.7174 20.6006 12.412 20.7771 12.0771 20.8767C11.7716 20.9613 11.4294 20.9613 10.7449 20.9613ZM18.0866 20.9613H22.2523C22.8668 20.9613 23.176 20.9613 23.3601 20.84C23.5588 20.7111 23.6838 20.4939 23.695 20.2585C23.7056 20.0485 23.558 19.7938 23.2687 19.2946C23.2588 19.2776 23.2488 19.2603 23.2386 19.2428L21.152 15.6732L21.1282 15.633C20.835 15.1371 20.687 14.8867 20.4969 14.7899C20.2873 14.6832 20.0405 14.6832 19.8309 14.7899C19.6395 14.8893 19.485 15.1506 19.1795 15.6768L17.1003 19.2464L17.0932 19.2587C16.7888 19.7841 16.6367 20.0467 16.6477 20.2621C16.6624 20.4977 16.7838 20.7147 16.9825 20.8436C17.1629 20.9613 17.472 20.9613 18.0866 20.9613Z" fill="#E84142"/>
</g>
<defs>
<clipPath id="clip0_501_422">
<rect width="29.9801" height="30" fill="white"/>
</clipPath>
</defs>
</svg>
