<svg xmlns="http://www.w3.org/2000/svg" width="30" height="30" viewBox="0 0 30 30"><path d="M15,0A15,15,0,1,1,0,15,15,15,0,0,1,15,0Z" fill="#0055d5" fill-rule="evenodd"/><g transform="translate(6.14 8.576)"><path d="M214.784,293.219s-1.658-1.325-1.772,1.948c-.114,2.536-.111,7.461,1.063,9.787.5.875,1.159.607,2.391-.265,1.072-.792,4.952-4.367,6.595-5.935s4.974-6.068,5.667-3.011a13.789,13.789,0,0,1,.354,5.227c-.08.878-.456,1.544-2.169.354-1.294-.832-2.524-1.726-2.524-1.726s-.237-.425-.8.265c-.441.552-.663.687.043,1.106s4.293,2.891,5.667,3.276c1.134.33,1.781.324,1.815-1.9-.006-1.769-.108-6.832-.752-8.989-.487-1.344-1.2-1.954-2.746-.444s-6.413,6.231-9.075,8.37c-1.766,1.325-2.521,2.521-3.186.311-.468-1.673-1.076-6.881.841-5.889,1.2.573,1.8.57,1.328.931s-1.815,1.593-1.815,1.593a1.006,1.006,0,0,0-.222,1.063c.194.508.194.761,1.239-.222s1.815-1.726,1.815-1.726.166-.262.663.222a4.428,4.428,0,0,1,.576.619s.133.361.663-.265.875-1.008-.133-1.593-5.528-3.1-5.528-3.1Z" transform="translate(-212.965 -292.024)" fill="#fff" fill-rule="evenodd"/></g></svg>