<svg width="24" height="30" viewBox="0 0 24 30" fill="none" xmlns="http://www.w3.org/2000/svg">
<g clip-path="url(#clip0_324_546)">
<path d="M8.32695 29.9964C7.92733 29.8477 7.5495 29.6663 7.1971 29.4268C7.08085 29.347 6.93553 29.3869 6.80111 29.3833C6.23073 29.3688 5.66036 29.4232 5.09362 29.347C4.12361 29.22 3.49875 28.6541 3.15361 27.7725C2.91384 27.1557 2.71766 26.5172 2.68133 25.846C2.67406 25.7009 2.56507 25.6718 2.47788 25.6138C0.784921 24.4964 -0.0797241 22.9363 0.007467 20.8938C0.0474296 19.9904 0.327168 19.1559 0.824884 18.3977C0.944772 18.2163 1.05376 18.024 1.31897 18.0712C1.59507 18.1183 1.58781 18.3542 1.6205 18.5501C1.87481 19.9215 2.60504 20.9591 3.80028 21.6738C4.01826 21.8044 4.02189 21.8008 4.03642 21.5432C4.08002 20.6797 4.37429 19.9106 4.91923 19.2358C5.11178 18.9963 5.02822 18.5573 4.76665 18.4195C2.16545 17.0299 0.883011 14.6354 1.15912 11.6859C1.23904 10.8405 1.38436 10.0097 1.66047 9.20432C1.72223 9.02292 1.74039 8.84514 1.69316 8.64923C1.14822 6.43615 1.10099 4.22306 1.72223 2.0136C1.82758 1.63266 1.96563 1.25898 2.16545 0.917946C2.68859 0.0327119 3.16088 -0.12692 4.08365 0.083504C4.96646 0.286673 5.70395 0.78371 6.43418 1.288C6.79748 1.54196 7.14261 1.81769 7.46957 2.11882C7.56403 2.20589 7.64032 2.2204 7.76021 2.16598C9.36961 1.47303 11.048 1.14651 12.8028 1.22995C14.147 1.29526 15.4294 1.62178 16.661 2.14421C16.8245 2.21314 16.9225 2.19863 17.057 2.08254C17.8816 1.37507 18.7499 0.72929 19.7599 0.293929C20.1704 0.116156 20.5918 -0.00719617 21.046 5.98466e-05C21.4129 0.00368785 21.7181 0.14518 21.9651 0.420909C22.4991 1.01227 22.7317 1.74513 22.8988 2.49613C23.3456 4.5387 23.3166 6.57764 22.8043 8.6057C22.7571 8.7871 22.7571 8.95398 22.8152 9.13901C23.1313 10.1295 23.3311 11.1453 23.3493 12.1902C23.3783 13.8083 23.0187 15.3103 21.9724 16.5946C21.3511 17.3601 20.5955 17.966 19.7199 18.4195C19.4874 18.5428 19.3639 18.9963 19.5383 19.1995C20.3993 20.2008 20.5519 21.3799 20.4175 22.6316C20.3957 22.8384 20.4429 22.9472 20.6245 23.0669C21.224 23.4588 21.5618 24.0429 21.7144 24.7322C22.0014 26.0165 21.6745 27.2029 21.046 28.3058C20.6681 28.9697 20.0251 29.2999 19.2549 29.3543C18.7027 29.3942 18.1469 29.376 17.591 29.3724C17.4275 29.3724 17.2895 29.4051 17.1551 29.5103C16.8281 29.7606 16.443 29.8767 16.0434 29.942C16.0107 29.9456 15.9816 29.9529 15.9743 29.9892C15.5929 29.9892 15.2151 29.9892 14.8336 29.9892C14.7028 29.942 14.5611 29.9565 14.4267 29.9239C14.2233 29.8368 14.0271 29.7388 13.8709 29.572C13.7764 29.474 13.6638 29.4377 13.5294 29.4377C12.6756 29.4377 11.8255 29.4377 10.9718 29.4377C10.8482 29.4377 10.7356 29.4631 10.6448 29.5502C10.3941 29.7933 10.1035 29.9529 9.75108 29.9855C9.70385 29.9855 9.65662 29.9855 9.60939 29.9855C9.56943 29.9456 9.5222 29.9674 9.47497 29.9602C9.43864 29.9638 9.39868 29.9529 9.36961 29.9855C9.27516 29.9855 9.1807 29.9855 9.08624 29.9855C8.99179 29.9456 8.89733 29.9456 8.80287 29.9855C8.74111 29.9855 8.67572 29.9855 8.61396 29.9855C8.58126 29.9565 8.5522 29.9565 8.5195 29.9855C8.45411 29.9964 8.38871 29.9964 8.32695 29.9964Z" fill="#31201B"/>
<path d="M9.75098 29.9964C10.1143 29.8695 10.4521 29.6953 10.7173 29.4087C10.7646 29.3579 10.8372 29.3833 10.899 29.3833C11.7927 29.3833 12.6864 29.3869 13.5801 29.3869C13.7145 29.3869 13.8199 29.4123 13.9107 29.5284C14.0488 29.7062 14.2558 29.7969 14.4557 29.8949C14.4738 29.9674 14.6155 29.8767 14.5937 30.0001C12.9843 29.9964 11.3676 29.9964 9.75098 29.9964Z" fill="#FEFEFE"/>
<path d="M14.5975 29.9964C14.5685 29.9384 14.4776 29.9638 14.4595 29.8912C14.5866 29.9203 14.7283 29.9021 14.8373 29.9964C14.7574 29.9964 14.6775 29.9964 14.5975 29.9964Z" fill="#EEEDED"/>
<path d="M8.80273 29.9964C8.89719 29.9239 8.99165 29.9239 9.08611 29.9964C8.99165 29.9964 8.89719 29.9964 8.80273 29.9964Z" fill="#4B3C37"/>
<path d="M9.46758 29.9565C9.51844 29.9601 9.5802 29.9166 9.60926 29.9964C9.56203 29.9964 9.51481 29.9964 9.46758 29.9964C9.45305 29.9855 9.44578 29.9783 9.45305 29.9674C9.45668 29.9601 9.46394 29.9565 9.46758 29.9565Z" fill="#AAA3A1"/>
<path d="M8.51562 29.9964C8.54832 29.9275 8.57738 29.9384 8.61008 29.9964C8.58102 29.9964 8.54832 29.9964 8.51562 29.9964Z" fill="#978F8C"/>
<path d="M9.46772 29.9565C9.46772 29.971 9.46772 29.9819 9.46409 29.9964C9.43139 29.9964 9.40233 29.9964 9.36963 29.9964C9.38779 29.9456 9.42776 29.9456 9.46772 29.9565Z" fill="#8E8683"/>
<path d="M19.0768 2.00638C18.7389 2.41272 18.3538 2.78277 18.0777 3.23627C17.9106 3.50837 17.936 3.64624 18.1904 3.83852C20.6753 5.71057 22.1248 8.19576 22.5899 11.2578C22.6952 11.9399 22.6371 12.6292 22.6298 13.3149C22.6298 13.3657 22.6153 13.4092 22.5753 13.4419C22.1321 13.8845 21.6126 14.1856 20.9805 14.2473C19.7126 14.3706 18.6663 13.8772 17.7362 13.0645C16.8716 12.3099 16.0978 11.461 15.2077 10.7354C14.6555 10.2855 14.0887 9.84288 13.3803 9.65785C12.1778 9.33858 11.0443 9.48733 9.99802 10.1912C9.43854 10.5685 8.94809 11.0292 8.44311 11.4719C7.72742 12.1031 7.11345 12.8541 6.32872 13.4056C5.81648 13.7648 5.27153 14.0876 4.63576 14.1711C3.70573 14.2908 2.79748 14.2763 2.04909 13.5834C1.9946 13.5398 1.94737 13.4927 1.91467 13.431C1.79479 13.0138 1.81295 12.5893 1.83475 12.1648C1.91104 10.5395 2.32883 9.00481 3.09539 7.56811C3.84741 6.15319 4.83921 4.94144 6.12165 3.97276C6.623 3.59182 6.62299 3.50475 6.25607 2.98957C5.9509 2.56509 5.54037 2.23494 5.2461 1.79958C5.37326 1.72702 5.47498 1.80684 5.58033 1.854C6.01629 2.05354 6.38685 2.35104 6.74288 2.66668C6.92816 2.82994 7.12071 2.98231 7.30599 3.13832C7.48401 3.29069 7.65839 3.31246 7.87273 3.21813C8.46491 2.95692 9.07161 2.73198 9.70738 2.57598C10.7609 2.31476 11.8254 2.18778 12.9044 2.26759C14.1214 2.35467 15.2912 2.64128 16.4102 3.13469C16.4901 3.17097 16.5737 3.19999 16.65 3.23264C16.8498 3.32335 16.9951 3.26892 17.1622 3.12743C17.6636 2.69207 18.2121 2.31839 18.7498 1.92293C18.8806 1.82861 19.0005 1.84675 19.0768 2.00638Z" fill="#FDA524"/>
<path d="M2.04192 13.5289C2.23447 13.6522 2.41248 13.8046 2.61956 13.8989C3.50964 14.3162 4.41788 14.2509 5.31159 13.9135C6.24889 13.5579 6.92099 12.8432 7.62215 12.172C8.34148 11.4827 9.06081 10.7934 9.86732 10.2056C11.2406 9.2043 13.2133 9.18979 14.5793 10.1839C15.3894 10.7752 16.1088 11.4573 16.8281 12.1466C17.166 12.4695 17.5074 12.7851 17.8562 13.0972C18.6191 13.7792 19.5128 14.171 20.5373 14.2182C21.0932 14.2436 21.62 14.1166 22.0814 13.7756C22.2376 13.6559 22.3902 13.5289 22.5754 13.4491C22.5609 13.6885 22.51 13.9243 22.4301 14.1493C21.6272 15.4191 20.5555 16.3696 19.1822 16.9973C17.7763 17.643 16.2977 17.9841 14.7718 18.1546C13.7655 18.2671 12.7555 18.3287 11.7419 18.2925C9.91092 18.2308 8.09807 18.0349 6.35425 17.4181C5.1808 17.0045 4.09454 16.4422 3.20447 15.5751C2.71402 15.0998 2.25263 14.5774 2.02375 13.9062C1.98742 13.801 1.98016 13.6885 1.96199 13.5833C1.94746 13.5107 1.98742 13.4962 2.04192 13.5289Z" fill="#FDFEFD"/>
<path d="M2.0418 13.5289C1.94734 13.6341 2.01273 13.7393 2.0418 13.8409C2.16895 14.269 2.46685 14.5919 2.72843 14.9365C3.54948 16.0141 4.6648 16.6816 5.89637 17.1678C7.01533 17.6104 8.17424 17.9006 9.36949 18.0385C9.98709 18.111 10.6083 18.1437 11.2296 18.1872C11.7418 18.2199 12.2577 18.2344 12.7699 18.2163C14.4338 18.1582 16.0832 17.9986 17.6817 17.4943C18.7207 17.1641 19.7016 16.7324 20.5845 16.0866C21.2057 15.6367 21.6961 15.0671 22.1357 14.4468C22.2193 14.3307 22.3137 14.2291 22.4264 14.1384C22.0958 15.5025 21.282 16.5329 20.1485 17.3238C18.9315 18.1691 17.5582 18.6298 16.1159 18.9019C13.2858 19.4353 10.4666 19.4171 7.662 18.7423C6.30327 18.4158 5.02446 17.9042 3.92731 17.0154C2.83015 16.1265 2.16895 14.9837 1.92191 13.5942C1.91101 13.5397 1.91464 13.4853 1.91464 13.4309C1.95824 13.4636 1.9982 13.4962 2.0418 13.5289Z" fill="#DEDEDE"/>
<path d="M10.3108 25.7843C10.3217 26.6151 10.3326 27.4423 10.3035 28.2731C10.1873 28.3311 10.071 28.3021 9.95474 28.2731C9.7404 28.2259 9.52605 28.1643 9.30808 28.1171C8.87212 28.0264 8.44343 28.0663 8.02201 28.2042C7.92755 28.2368 7.83309 28.2912 7.7241 28.2586C7.69867 28.2441 7.68778 28.2223 7.68778 28.1933C7.84036 28.0046 7.80403 27.8196 7.68414 27.6309C7.08834 26.6659 6.67781 25.6101 6.23822 24.5725C5.82406 23.5893 5.64242 22.5445 5.64605 21.4778C5.64605 21.115 5.75141 20.7595 5.80227 20.4003C5.81317 20.3205 5.8495 20.2443 5.95485 20.2552C6.1474 20.3132 6.32905 20.3931 6.50343 20.491C6.45983 21.0352 6.63785 21.525 6.91032 21.9749C7.21186 22.4683 7.60058 22.8964 7.97478 23.3354C8.55969 24.0174 9.26811 24.5653 9.87482 25.2256C10.0383 25.3997 10.2163 25.5593 10.3108 25.7843Z" fill="#FDA524"/>
<path d="M18.0631 20.4693C18.2048 20.3895 18.3429 20.306 18.5027 20.2661C18.648 20.2226 18.6626 20.3423 18.6771 20.4221C18.7788 20.9409 18.8551 21.4525 18.8188 21.993C18.7606 22.813 18.5935 23.6039 18.3102 24.3694C17.9033 25.465 17.46 26.5462 16.8461 27.5475C16.7298 27.7362 16.6572 27.9466 16.53 28.1244C16.2394 28.1498 15.956 28.0591 15.6617 28.0663C15.2948 28.0736 14.9388 28.1171 14.59 28.2296C14.5064 28.255 14.4265 28.2913 14.3357 28.2695C14.2521 28.2259 14.2303 28.1498 14.2231 28.0663C14.1686 27.8704 14.234 27.6709 14.1831 27.4749C14.1831 27.4314 14.1831 27.3915 14.1831 27.348C14.2194 27.2935 14.194 27.2246 14.2194 27.1666C14.2376 26.8038 14.2231 26.441 14.2267 26.0782C14.2267 26.0528 14.2267 26.0274 14.2231 26.002C14.2267 25.9476 14.234 25.8931 14.2376 25.8423C14.4011 25.3888 14.7281 25.0551 15.0804 24.7467C15.956 23.9884 16.7552 23.1576 17.4237 22.2107C17.7652 21.7282 17.9687 21.1949 18.0195 20.6071C18.0159 20.5491 18.0268 20.5055 18.0631 20.4693Z" fill="#FDA524"/>
<path d="M8.80284 21.1622C9.39865 21.2312 9.99809 21.3001 10.5939 21.3727C10.7574 21.3944 10.6484 21.4815 10.623 21.5395C10.3033 22.2506 10.4304 23.0633 10.9463 23.5894C11.5239 24.1807 12.454 24.2968 13.1987 23.8687C13.8926 23.4696 14.2014 22.6207 13.9726 21.7826C13.9362 21.6484 13.7945 21.4888 13.8745 21.3944C13.9435 21.3146 14.1433 21.3509 14.2814 21.3327C14.7355 21.2783 15.1896 21.2203 15.6473 21.1659C15.7454 21.3255 15.6219 21.438 15.5529 21.5504C15.3712 21.8443 15.1278 22.0983 14.9535 22.3994C14.6192 22.9799 14.3177 23.5785 14.1142 24.2206C14.0852 24.3113 14.0634 24.402 14.0125 24.4855C13.9871 24.529 13.9653 24.6197 13.9834 24.6379C13.5766 24.5798 13.4857 24.6487 13.4748 25.095C13.4603 25.7335 13.4676 26.3757 13.4639 27.0142C13.4639 27.094 13.4567 27.1702 13.453 27.25C13.1951 27.4641 12.8754 27.4858 12.5666 27.5294C12.1088 27.5947 11.6547 27.5258 11.2188 27.3734C11.1388 27.3444 11.0553 27.3117 11.019 27.221C11.0117 26.5135 11.0081 25.8025 10.9972 25.095C10.9899 24.6741 10.9863 24.6741 10.5612 24.5871C10.434 24.4383 10.405 24.2424 10.3396 24.0683C10.0126 23.2048 9.58756 22.3994 9.02082 21.6665C8.9082 21.5214 8.77378 21.3763 8.80284 21.1622Z" fill="#DEDEDE"/>
<path d="M8.80275 21.1623C9.02799 21.6811 9.44215 22.0765 9.70735 22.5699C10.0561 23.2157 10.3758 23.8724 10.5611 24.5835C10.3722 24.7177 10.3104 24.9064 10.3104 25.1313C10.3068 25.349 10.354 25.5667 10.3141 25.7843C9.26413 24.5944 7.99259 23.6148 7.06256 22.3123C6.72469 21.8371 6.51035 21.3219 6.43405 20.7487C6.42315 20.6652 6.3505 20.5383 6.50671 20.4911C7.21151 20.7559 7.94173 20.9264 8.66833 21.1151C8.71555 21.1296 8.75915 21.1478 8.80275 21.1623Z" fill="#FDFEFD"/>
<path d="M13.9801 24.6378C13.9764 24.587 13.8638 24.6052 13.9365 24.4818C14.1 24.2061 14.1545 23.8796 14.2852 23.5821C14.5868 22.9036 14.921 22.247 15.3969 21.6701C15.5132 21.525 15.6367 21.3726 15.644 21.1694C16.04 21.0679 16.436 20.9735 16.8283 20.8611C17.2425 20.7413 17.653 20.6035 18.0635 20.4692C18.0817 21.1114 17.8492 21.6774 17.4968 22.1962C16.9591 22.9798 16.327 23.6873 15.6222 24.3258C15.1136 24.7866 14.5904 25.2364 14.2344 25.8351C14.1036 25.5412 14.1908 25.2292 14.1617 24.9281C14.1472 24.7938 14.1254 24.6813 13.9801 24.6378Z" fill="#FDFEFD"/>
<path d="M16.5449 28.099C16.494 27.9103 16.6284 27.7833 16.7084 27.6491C17.5258 26.2777 18.1616 24.8301 18.5612 23.2882C18.801 22.3631 18.8591 21.4125 18.6302 20.4656C18.612 20.3894 18.6193 20.2806 18.4994 20.2624C18.5575 20.2262 18.6157 20.1826 18.6774 20.15C19.3023 19.8307 19.1897 19.7509 19.4948 20.4366C19.8581 21.2529 19.8146 22.1091 19.662 22.9726C19.4513 24.1517 18.9717 25.2328 18.4849 26.314C18.1325 27.094 17.7329 27.845 17.1879 28.5089C17.0608 28.5017 17.0026 28.3747 16.89 28.3384C16.7701 28.2695 16.6212 28.2332 16.5449 28.099Z" fill="#F08102"/>
<path d="M5.95842 20.2553C5.90756 20.2843 5.86759 20.3206 5.86033 20.3823C5.79493 20.9954 5.66051 21.5977 5.74771 22.2326C5.85669 23.038 5.99111 23.8361 6.31445 24.5871C6.77583 25.6574 7.20816 26.7458 7.81849 27.7435C7.93838 27.9394 7.91295 28.0845 7.70951 28.1934C7.50243 28.3893 7.29535 28.2877 7.08827 28.197C6.90662 27.9975 6.7613 27.7725 6.63415 27.5367C5.93299 26.227 5.28632 24.8919 4.93029 23.4407C4.70505 22.5264 4.59606 21.6049 4.90849 20.6834C4.97388 20.4875 5.06471 20.3061 5.1519 20.1174C5.23183 19.9397 5.34081 19.878 5.51883 19.9904C5.66051 20.0811 5.80947 20.1682 5.95842 20.2553Z" fill="#F08102"/>
<path d="M17.9688 28.6721C18.7462 27.5293 19.2839 26.3176 19.7671 25.0804C19.9124 24.7067 20.0286 24.3185 20.1558 23.9376C20.1812 23.865 20.1667 23.7635 20.2611 23.7417C20.3665 23.7163 20.4392 23.7852 20.5046 23.8614C20.8897 24.3004 21.0786 24.8228 21.1149 25.3961C21.173 26.274 20.8933 27.0794 20.5227 27.8558C20.2793 28.3638 19.8252 28.5959 19.2839 28.6613C18.8588 28.712 18.4338 28.6794 17.9688 28.6721Z" fill="#F08102"/>
<path d="M6.45584 28.6722C5.91089 28.6722 5.37685 28.7447 4.8537 28.5778C4.45771 28.4508 4.14164 28.2187 3.96362 27.845C3.60033 27.0758 3.33512 26.2777 3.37872 25.4069C3.40415 24.8664 3.58943 24.3911 3.90913 23.963C3.94546 23.9122 3.99269 23.865 4.03992 23.8251C4.22156 23.68 4.27969 23.6945 4.34145 23.9158C4.71565 25.2546 5.29329 26.5062 5.93996 27.7325C6.10344 28.0409 6.36501 28.2948 6.45584 28.6722Z" fill="#F08102"/>
<path d="M21.6747 6.60301C21.1334 5.78308 20.5521 4.99943 19.8401 4.31737C19.5422 4.03438 19.2297 3.76591 18.9173 3.50107C18.8337 3.42851 18.8119 3.38134 18.8882 3.29064C19.5131 2.53602 20.2143 1.87572 21.0571 1.3678C21.3623 2.02447 21.533 2.71742 21.6456 3.42851C21.7873 4.34276 21.8164 5.26428 21.7946 6.18579C21.791 6.33091 21.791 6.48692 21.6747 6.60301Z" fill="#C74F02"/>
<path d="M3.48406 1.41504C4.28695 1.89394 4.98085 2.49256 5.54759 3.2363C5.64568 3.36328 5.66021 3.43584 5.51489 3.55556C4.65388 4.27754 3.89459 5.10472 3.19706 5.9827C3.1244 5.99721 3.1026 6.0734 3.04448 6.10605C3.00815 6.14596 2.97908 6.19675 2.93549 6.2294C2.8483 6.29108 2.79017 6.26568 2.7611 6.1641C2.75021 6.12419 2.74657 6.08791 2.74657 6.048C2.75747 5.11198 2.68845 4.17232 2.87373 3.24355C3.00088 2.60865 3.168 1.98464 3.48406 1.41504Z" fill="#C74F02"/>
<path d="M19.0767 2.00639C18.9496 1.90844 18.8551 1.90844 18.7098 2.02453C18.1612 2.45989 17.5618 2.83358 17.0495 3.3161C16.9623 3.39955 16.8606 3.37778 16.7625 3.33787C16.3665 3.18549 15.9705 3.02223 15.5709 2.88074C14.2122 2.39096 12.8026 2.21682 11.3748 2.34742C10.2849 2.44538 9.19869 2.66669 8.20689 3.1601C7.72371 3.39955 7.38221 3.35964 6.99348 2.98233C6.57932 2.57599 6.13247 2.18779 5.59842 1.93746C5.4858 1.88304 5.36228 1.84676 5.24603 1.80322C4.8464 1.50573 4.44677 1.2046 4.05078 0.907105C4.06531 0.787381 4.14524 0.841801 4.207 0.849057C4.71925 0.990549 5.1552 1.27353 5.59479 1.55652C6.1797 1.93746 6.72101 2.37282 7.23326 2.84446C7.42944 3.02223 7.61108 3.03312 7.83633 2.92428C10.1324 1.83225 12.5119 1.65085 14.9606 2.28212C15.5346 2.43087 16.0904 2.64129 16.6245 2.90614C16.8751 3.02949 17.075 3.01135 17.2929 2.81907C18.005 2.18779 18.7497 1.60005 19.589 1.14655C19.8614 1.00143 20.1412 0.870825 20.4463 0.801893C20.5008 0.780125 20.5481 0.765613 20.5444 0.852685C20.0176 1.19372 19.5381 1.58917 19.0767 2.00639Z" fill="#E8C587"/>
<path d="M0.875515 20.0267C0.900946 19.9178 0.919111 19.809 0.951808 19.7074C0.973605 19.6385 0.969972 19.526 1.06806 19.526C1.14799 19.526 1.19158 19.6203 1.22065 19.6929C1.3914 20.1101 1.59484 20.5092 1.87095 20.872C2.41589 21.5903 3.10616 22.1309 3.90541 22.5409C3.99986 22.5917 4.10522 22.6171 4.10885 22.7658C4.11249 22.9109 4.05073 22.9726 3.9381 23.0379C3.61114 23.2266 3.35683 23.495 3.15702 23.8143C3.12069 23.8723 3.11342 23.9558 3.02623 23.9703C2.71743 23.8796 2.49945 23.6547 2.28147 23.4442C1.7002 22.8783 1.26424 22.218 1.0499 21.4234C0.966339 21.0244 0.85735 20.6289 0.864616 20.2153C0.860983 20.15 0.886414 20.0883 0.875515 20.0267Z" fill="#F08102"/>
<path d="M3.48416 1.41499C3.51323 1.48392 3.52413 1.5456 3.48053 1.61453C3.1354 2.18776 3.02641 2.82991 2.91016 3.4757C2.74667 4.38633 2.84476 5.30059 2.81207 6.23298C2.95375 6.20396 2.99735 6.06972 3.1027 6.02619C3.12813 6.05521 3.13177 6.08424 3.1027 6.11326C2.81933 6.62844 2.53596 7.14361 2.23079 7.70233C2.12544 7.43386 2.10364 7.20166 2.08184 6.9731C1.93652 5.32235 1.95469 3.6825 2.44514 2.07529C2.53233 1.79593 2.65222 1.53109 2.7721 1.26261C2.85566 1.07759 2.95375 1.05582 3.11723 1.16103C3.24076 1.24447 3.37517 1.30978 3.48416 1.41499Z" fill="#DF6D03"/>
<path d="M21.6744 6.60299C21.8088 4.97401 21.6998 3.37043 21.1694 1.81039C21.1221 1.66527 20.9986 1.53466 21.0567 1.36415C21.0749 1.34963 21.0931 1.33149 21.1112 1.32061C21.5981 1.0086 21.6271 1.01223 21.8524 1.55643C22.1902 2.37273 22.3683 3.22894 22.4409 4.10692C22.5027 4.84703 22.539 5.58715 22.4845 6.33089C22.4518 6.76262 22.39 7.19073 22.2593 7.68776C22.0449 7.29594 21.8596 6.95128 21.6744 6.60299Z" fill="#DF6D03"/>
<path d="M11.0881 20.3314C11.0881 20.3858 11.0809 20.4438 11.0881 20.4983C11.1099 20.6579 11.0409 20.6978 10.8883 20.6978C10.3216 20.7051 9.77301 20.5781 9.2208 20.491C8.2508 20.3386 7.30986 20.0629 6.40525 19.6783C6.23087 19.6058 6.06375 19.5114 5.90027 19.4207C5.83487 19.3845 5.75132 19.3518 5.75495 19.2502C5.75858 19.1414 5.72589 18.9854 5.78401 18.931C5.86031 18.862 5.95113 18.9999 6.03832 19.0434C6.19817 19.1305 6.36165 19.2067 6.54694 19.2248C6.68862 19.2393 6.83031 19.2611 6.96109 19.3119C7.63683 19.5731 8.34889 19.682 9.05731 19.7835C9.64222 19.867 10.2344 19.9105 10.8266 19.9359C11.0591 19.9468 11.1063 20.0339 11.0845 20.2298C11.0809 20.2697 11.0845 20.3023 11.0881 20.3314C11.0845 20.3314 11.0845 20.3314 11.0881 20.3314Z" fill="#C74F02"/>
<path d="M11.0151 27.2209C11.7308 27.5475 12.461 27.5547 13.2022 27.3262C13.2857 27.3008 13.3657 27.2754 13.4492 27.25C13.4347 27.689 13.5691 28.128 13.4165 28.5669C13.3875 28.6431 13.3875 28.6867 13.3039 28.6867C12.5773 28.6867 11.8507 28.6867 11.1241 28.6867C11.0224 28.6867 10.9824 28.6504 10.9861 28.5452C10.997 28.1026 11.0079 27.6599 11.0151 27.2209Z" fill="#F08102"/>
<path d="M11.9274 23.3898C11.5205 23.2882 11.1608 22.8311 11.1318 22.3812C11.1027 21.9132 11.4115 21.4633 11.862 21.3037C12.3307 21.1405 12.8356 21.2711 13.0972 21.6266C13.0681 21.8116 13.0427 21.9967 13.0427 22.1889C13.0391 22.7767 12.505 23.3427 11.9274 23.3898Z" fill="#F2E156"/>
<path d="M16.5009 19.6022C17.1258 19.4644 17.7434 19.2975 18.3429 19.0725C18.3937 19.0544 18.4482 19.0326 18.5027 19.0254C18.5935 19.0109 18.7279 18.9165 18.7679 19.0471C18.8079 19.1741 18.8442 19.341 18.6517 19.4317C17.7906 19.8344 16.9006 20.1573 15.9705 20.3569C15.4692 20.4621 14.9678 20.5673 14.4556 20.6108C14.2376 20.6398 14.0269 20.7197 13.8053 20.716C13.6527 20.7124 13.4747 20.7342 13.3948 20.5564C13.3439 20.4403 13.4965 20.1573 13.6418 20.0739C13.7544 20.0086 13.8779 19.9904 14.0051 19.9687C14.5282 19.878 15.0587 19.8598 15.5818 19.7764C15.8833 19.722 16.1921 19.6639 16.5009 19.6022Z" fill="#C74F02"/>
<path d="M1.11212 21.4415C1.44271 22.5154 2.11481 23.3281 3.02669 23.963C2.94313 24.2351 2.84867 24.5 2.77601 24.7757C2.73605 24.9244 2.68882 24.9281 2.57257 24.8446C1.52991 24.0646 0.905036 23.0379 0.723388 21.7463C0.661628 21.3146 0.672527 20.8828 0.777882 20.4547C0.901403 20.4729 0.901403 20.5781 0.912302 20.6651C0.937733 20.8647 0.992227 21.0606 0.974062 21.2638C0.963164 21.3581 1.00676 21.4306 1.11212 21.4415Z" fill="#DEDEDE"/>
<path d="M16.5449 28.099C16.672 28.1643 16.7992 28.2296 16.9227 28.2949C16.8537 28.4545 16.7265 28.3638 16.643 28.3348C16.4577 28.2731 16.3342 28.3167 16.2143 28.4727C16.0435 28.6976 15.8219 28.879 15.6112 29.0858C15.7238 29.1693 15.891 29.0786 16.0072 29.26C15.5422 29.2527 15.1171 29.2854 14.6921 29.2382C14.3506 29.0967 14.198 28.8173 14.2234 28.3747C14.2707 28.3421 14.198 28.2223 14.3179 28.2369C14.7357 28.1208 15.1462 27.9902 15.5858 27.9865C15.9128 27.9829 16.2288 28.0301 16.5449 28.099Z" fill="#FDFEFD"/>
<path d="M10.1798 28.8609C10.0962 29.0532 9.97633 29.2019 9.75472 29.2418C9.51494 29.2636 9.25337 29.3325 9.04266 29.191C8.71569 28.9733 8.41415 28.7121 8.22524 28.3529C8.14168 28.1969 8.19981 28.1316 8.37056 28.099C8.93367 27.9901 9.46408 28.1244 9.99086 28.2949C10.2742 28.3856 10.2888 28.4255 10.2088 28.7266C10.1979 28.7702 10.2125 28.821 10.1798 28.8609Z" fill="#FDFEFD"/>
<path d="M10.18 28.8609C10.2017 28.4292 10.2017 28.4292 9.75126 28.2804C9.29714 28.128 8.83575 28.0772 8.35983 28.1426C8.22905 28.1607 8.21452 28.2151 8.26901 28.3131C8.49062 28.6904 8.81032 28.9698 9.17362 29.1983C9.34437 29.3035 9.56235 29.2092 9.75853 29.2382C8.60324 29.3906 7.94204 29.3326 7.33534 28.5162C7.27358 28.3929 7.36803 28.3457 7.44796 28.3131C7.53152 28.2804 7.61508 28.2369 7.70953 28.2333C8.42159 27.9466 9.13729 27.943 9.86388 28.1788C10.0056 28.226 10.1582 28.2405 10.3035 28.2695C10.3071 28.4763 10.2853 28.6759 10.18 28.8609Z" fill="#DEDEDD"/>
<path d="M14.6953 29.2346C15.1058 29.2346 15.5164 29.2346 15.9269 29.2346C15.8143 29.1657 15.698 29.1983 15.5854 29.1875C15.5491 29.1838 15.5018 29.1947 15.4837 29.1475C15.4655 29.1004 15.5018 29.0714 15.5309 29.0496C15.8215 28.8283 16.0758 28.5671 16.2974 28.2804C16.3628 28.1934 16.4391 28.2115 16.53 28.2369C16.6607 28.2732 16.7843 28.3603 16.9332 28.295C17.0495 28.3349 17.1221 28.4256 17.1948 28.5126C16.7661 29.0532 16.2212 29.3435 15.5164 29.2927C15.2366 29.2709 14.9605 29.3362 14.6953 29.2346Z" fill="#DEDEDE"/>
<path d="M11.9272 23.3898C12.276 23.2737 12.5848 23.0923 12.7955 22.7767C12.9336 22.5663 13.0026 22.3413 12.9917 22.0874C12.9844 21.9314 12.9554 21.7536 13.1007 21.6302C13.424 22.0438 13.4458 22.5518 13.1625 22.969C12.8972 23.3608 12.4177 23.5241 11.9272 23.3898Z" fill="#FCFCFB"/>
<path d="M16.5009 19.6022C16.0904 19.8053 15.6399 19.8271 15.1967 19.8851C14.7353 19.9432 14.2739 19.9758 13.8162 20.0665C13.5619 20.1173 13.5001 20.2951 13.4383 20.4946C13.402 20.6144 13.5001 20.6071 13.5582 20.6216C13.7689 20.6651 13.9833 20.6543 14.194 20.6252C14.2812 20.6144 14.3647 20.5926 14.4519 20.6071C14.1395 20.6978 13.8416 20.8538 13.4928 20.7486C13.3003 20.6905 13.2422 20.5781 13.2712 20.3967C13.2712 20.3894 13.2749 20.3822 13.2749 20.3749C13.3475 19.9069 13.3838 19.8525 13.8743 19.8452C14.6227 19.8343 15.3638 19.74 16.0977 19.6094C16.2285 19.5876 16.3665 19.6022 16.5009 19.6022Z" fill="#613F36"/>
<path d="M12.2362 20.5237C12.2217 20.5237 12.2036 20.5237 12.189 20.5237C11.8112 20.5346 11.8185 20.5346 11.8257 20.1609C11.8294 20.0086 11.8621 19.9251 12.0364 19.9432C12.16 19.9578 12.2871 19.9432 12.4143 19.9469C12.6213 19.9505 12.7158 20.0231 12.6976 20.2625C12.6831 20.4657 12.654 20.5745 12.4215 20.5274C12.367 20.5128 12.3016 20.5237 12.2362 20.5237Z" fill="#DCDCDC"/>
<path d="M1.11213 21.4417C1.10123 21.4888 1.09397 21.5396 1.02494 21.4924C0.945015 21.438 0.883254 21.3909 0.901419 21.2675C0.941382 20.9881 0.894153 20.7124 0.774265 20.4548C0.748834 20.3532 0.79243 20.2589 0.821493 20.1646C0.850557 20.1392 0.879621 20.1392 0.901419 20.1718C0.937749 20.6036 1.02857 21.0208 1.11213 21.4417Z" fill="#FBF5EE"/>
<path d="M7.70913 28.2369C7.59651 28.3457 7.37489 28.3095 7.33493 28.5162C7.22958 28.4255 7.15328 28.3131 7.08789 28.197C7.29497 28.1934 7.50568 28.2986 7.70913 28.1934C7.70913 28.2042 7.70913 28.2224 7.70913 28.2369Z" fill="#F4A025"/>
<path d="M14.2231 27.1956C14.2195 27.25 14.2304 27.3081 14.1722 27.3444C14.1977 26.8945 14.1323 26.4446 14.2122 25.9948C14.2195 26.002 14.2267 26.0129 14.2304 26.0238C14.2413 26.4156 14.2594 26.8074 14.2231 27.1956Z" fill="#988F8D"/>
<path d="M14.1759 27.4713C14.2777 27.6563 14.1759 27.8668 14.2522 28.0518C14.2232 28.0954 14.2631 28.1534 14.2123 28.1897C14.1178 27.9575 14.1578 27.7144 14.1759 27.4713Z" fill="#DBBD93"/>
<path d="M14.2158 28.1933C14.2304 28.1461 14.2086 28.0917 14.2558 28.0554C14.2776 28.1171 14.2994 28.1751 14.3175 28.2368C14.2848 28.284 14.2558 28.3312 14.2231 28.3747C14.2195 28.313 14.2195 28.2513 14.2158 28.1933Z" fill="#FAD8A5"/>
<path d="M4.20009 0.849053C4.1456 0.863565 4.0802 0.841797 4.04387 0.907102C4.00028 0.885334 3.95668 0.867193 3.91309 0.845425C3.95305 0.740213 4.02571 0.787377 4.09473 0.805517C4.1347 0.820029 4.16739 0.834541 4.20009 0.849053Z" fill="#C6A774"/>
<path d="M4.09841 0.805485C4.03665 0.819997 3.96399 0.776461 3.91676 0.845393C3.88043 0.823625 3.78234 0.809113 3.8877 0.761949C3.94583 0.732924 4.03665 0.747437 4.09841 0.805485Z" fill="#937955"/>
<path d="M0.904609 20.1718C0.879178 20.1682 0.850114 20.1682 0.824683 20.1646C0.810151 20.1065 0.853747 20.0702 0.875545 20.0231C0.915508 20.0702 0.91914 20.121 0.904609 20.1718Z" fill="#D9B690"/>
<path d="M3.09912 6.11331C3.09912 6.08428 3.09912 6.05526 3.09912 6.02623C3.12092 5.98995 3.13182 5.92102 3.19721 5.9827C3.17178 6.03349 3.16088 6.09517 3.09912 6.11331Z" fill="#CB6105"/>
<path d="M20.5375 0.856317C20.5194 0.812781 20.4758 0.816409 20.4395 0.805525C20.4903 0.758361 20.5557 0.736593 20.6029 0.783757C20.6284 0.809153 20.5811 0.845433 20.5375 0.856317Z" fill="#9A7F59"/>
<path d="M17.9796 11.022C17.6054 11.0075 17.3039 10.9929 17.0169 10.895C16.1776 10.6193 15.8943 9.9118 16.3084 9.12815C16.6681 8.44608 17.4928 8.13408 18.2412 8.39892C18.9714 8.66014 19.3964 9.38937 19.2548 10.1476C19.1676 10.612 18.8697 10.9059 18.3792 10.9893C18.223 11.0147 18.0668 11.0147 17.9796 11.022Z" fill="#31201B"/>
<path d="M6.53245 11.0147C6.38713 11.0111 6.21275 11.0256 6.042 10.9821C5.40986 10.8261 5.12286 10.3073 5.25365 9.54903C5.3917 8.74361 6.22002 8.17402 7.0338 8.31914C7.90208 8.47151 8.46519 9.23339 8.33077 10.0678C8.27991 10.3835 8.08373 10.5866 7.81852 10.7426C7.48792 10.9349 7.12826 11.0147 6.53245 11.0147Z" fill="#31201B"/>
<path d="M8.14872 5.64524C8.83898 5.57268 9.36213 6.4434 9.06423 7.12184C8.99157 7.29236 8.85351 7.4012 8.6864 7.46287C8.20685 7.64065 7.72729 7.6479 7.26591 7.39757C6.79362 7.14361 6.681 6.61029 7.01886 6.19307C7.30587 5.84116 7.6728 5.62348 8.14872 5.64524Z" fill="#FDFEFD"/>
<path d="M16.4138 7.59351C16.3084 7.58263 16.2139 7.57537 16.1195 7.56086C15.2839 7.42299 15.1931 6.70828 15.4946 6.13868C15.8288 5.5074 16.5772 5.52917 17.1222 5.87383C17.1948 5.921 17.2602 5.97905 17.322 6.04072C17.5581 6.27654 17.7543 6.54139 17.6344 6.90056C17.5182 7.25248 17.2421 7.44476 16.8933 7.53183C16.7371 7.57174 16.5663 7.57537 16.4138 7.59351Z" fill="#FDFEFD"/>
<path d="M10.4193 11.5262C10.4048 11.0292 10.5937 10.7171 11.0551 10.5249C11.818 10.2056 12.5955 10.1947 13.3656 10.4958C13.6926 10.6228 13.9905 10.8115 14.0668 11.2033C14.1322 11.45 14.0886 11.6858 13.9942 11.9108C13.7834 12.4078 13.4056 12.7379 12.9261 12.9665C12.8716 12.9919 12.8025 12.9955 12.7662 13.0608C12.8389 13.1878 13.0205 13.1914 13.0786 13.3329C13.6853 13.7211 14.0959 13.6522 14.5391 13.0935C14.6808 12.9121 14.7934 12.7126 14.9024 12.5094C15.0077 12.3171 15.1676 12.2953 15.3456 12.3824C15.5091 12.4658 15.5963 12.5819 15.5091 12.7851C15.2911 13.3075 14.9896 13.7647 14.4882 14.0513C14.3248 14.1456 14.2521 14.269 14.2158 14.4576C14.085 15.1578 13.8016 15.7855 13.2276 16.2426C12.6027 16.7433 11.7962 16.7288 11.1822 16.2099C10.6082 15.7238 10.3394 15.078 10.2013 14.3633C10.1723 14.2182 10.1105 14.1311 9.98699 14.0513C9.52197 13.7502 9.195 13.3329 8.99156 12.8178C8.908 12.6001 8.96976 12.4513 9.15867 12.3715C9.37302 12.2808 9.5038 12.3316 9.61279 12.5493C9.70725 12.7416 9.81624 12.923 9.95066 13.0935C10.3902 13.6486 10.808 13.7175 11.4111 13.3293C11.4692 13.1878 11.64 13.1697 11.7381 13.0427C11.5092 12.9266 11.284 12.8178 11.0878 12.6618C10.8553 12.4767 10.6664 12.2591 10.5356 11.9942C10.4629 11.8491 10.4193 11.6967 10.4193 11.5262Z" fill="#31201B"/>
<path d="M13.0788 13.3366C12.9153 13.2605 12.7664 13.1661 12.6138 13.0391C13.4602 12.6981 14.0561 12.1793 14.067 11.2034C14.3249 11.802 14.0996 12.5929 13.5765 12.9956C13.4167 13.119 13.2132 13.177 13.0788 13.3366Z" fill="#DEDEDD"/>
<path d="M10.4197 11.5262C10.6123 12.299 11.1391 12.7561 11.8802 13.0319C11.7276 13.1661 11.575 13.2568 11.4152 13.3366C11.2517 13.2169 11.0955 13.0935 10.9284 12.9811C10.5978 12.7561 10.4306 12.426 10.3362 12.0559C10.289 11.8745 10.3834 11.704 10.4197 11.5262Z" fill="#DDDDDD"/>
<path d="M14.2231 27.1957C14.2268 26.8038 14.2304 26.412 14.234 26.0238C14.2849 26.4156 14.2958 26.8075 14.2231 27.1957Z" fill="#E5BA7E"/>
<path d="M17.9872 9.30587C17.9908 9.5816 17.7874 9.81742 17.5367 9.82467C17.2315 9.83193 17.0172 9.62876 17.0099 9.31675C17.0027 9.05191 17.2315 8.81609 17.504 8.8052C17.7329 8.79795 17.9799 9.05554 17.9872 9.30587Z" fill="#FCFDFC"/>
<path d="M7.47332 9.32772C7.47332 9.6361 7.28804 9.81025 6.97197 9.81025C6.67407 9.80662 6.51059 9.62885 6.51422 9.30233C6.51422 9.03748 6.71403 8.82706 6.96834 8.82343C7.26624 8.81617 7.47332 9.01934 7.47332 9.32772Z" fill="#FCFDFC"/>
<path d="M12.2577 11.6351C11.9634 11.5915 11.6583 11.6024 11.3858 11.4464C11.255 11.3738 11.1351 11.2759 11.1388 11.1235C11.1424 10.9639 11.2659 10.855 11.4112 10.797C11.9634 10.5829 12.5156 10.5866 13.0679 10.797C13.2095 10.8514 13.3403 10.9421 13.3585 11.109C13.373 11.2904 13.2277 11.3666 13.1006 11.4428C12.8426 11.6024 12.5483 11.606 12.2577 11.6351Z" fill="#614037"/>
<path d="M13.1296 15.2922C13.1042 15.3321 13.0788 15.372 13.0497 15.4083C12.4612 16.1048 11.8835 16.0758 11.335 15.3321C11.3749 15.245 11.4585 15.2124 11.542 15.187C12.0543 15.0382 12.5593 15.0817 13.0606 15.2341C13.0897 15.2414 13.1115 15.2668 13.1296 15.2922Z" fill="#F28B7E"/>
<path d="M13.1296 15.2921C12.6319 15.1905 12.1305 15.0889 11.6219 15.2304C11.5238 15.2594 11.4293 15.2957 11.3349 15.3284C11.1678 15.1107 11.1678 15.107 11.4221 15.0272C11.9634 14.8567 12.5047 14.8567 13.0533 15.0163C13.2495 15.078 13.2822 15.1506 13.1296 15.2921Z" fill="#DDDBDB"/>
</g>
<defs>
<clipPath id="clip0_324_546">
<rect width="23.3491" height="30" fill="white"/>
</clipPath>
</defs>
</svg>
