<svg width="22" height="10" viewBox="0 0 22 10" fill="none" xmlns="http://www.w3.org/2000/svg">
<rect width="22" height="10" rx="5" fill="#CD7A37"/>
<path d="M7.45177 4.438C7.4331 4.44267 7.42377 4.452 7.42377 4.466C7.42377 4.47533 7.4331 4.48467 7.45177 4.494C7.91843 4.718 8.15177 5.10067 8.15177 5.642C8.15177 6.08533 8.00243 6.42367 7.70377 6.657C7.40977 6.88567 7.02477 7 6.54877 7H4.81277C4.7381 7 4.70077 6.96267 4.70077 6.888V2.212C4.70077 2.13733 4.7381 2.1 4.81277 2.1H6.49277C7.00143 2.1 7.39343 2.20967 7.66877 2.429C7.9441 2.64833 8.08177 2.97967 8.08177 3.423C8.08177 3.90367 7.87177 4.242 7.45177 4.438ZM5.55477 2.8C5.52677 2.8 5.51277 2.814 5.51277 2.842V4.123C5.51277 4.151 5.52677 4.165 5.55477 4.165H6.49277C6.7401 4.165 6.93377 4.10667 7.07377 3.99C7.21843 3.86867 7.29077 3.703 7.29077 3.493C7.29077 3.27833 7.21843 3.11033 7.07377 2.989C6.93377 2.863 6.7401 2.8 6.49277 2.8H5.55477ZM6.54877 6.293C6.79143 6.293 6.98277 6.22767 7.12277 6.097C7.26743 5.96633 7.33977 5.789 7.33977 5.565C7.33977 5.33633 7.26743 5.159 7.12277 5.033C6.9781 4.90233 6.7821 4.837 6.53477 4.837H5.55477C5.52677 4.837 5.51277 4.851 5.51277 4.879V6.251C5.51277 6.279 5.52677 6.293 5.55477 6.293H6.54877ZM10.3363 6.37C10.5089 6.36533 10.6583 6.33033 10.7843 6.265C10.9149 6.195 11.0199 6.10167 11.0993 5.985C11.1226 5.94767 11.1529 5.929 11.1903 5.929C11.2136 5.929 11.2346 5.936 11.2533 5.95L11.5893 6.216C11.6219 6.24867 11.6383 6.279 11.6383 6.307C11.6383 6.32567 11.6313 6.34667 11.6173 6.37C11.4819 6.58467 11.2976 6.75267 11.0643 6.874C10.8309 6.99533 10.5626 7.056 10.2593 7.056C9.89059 7.056 9.58026 6.96967 9.32826 6.797C9.08092 6.61967 8.90126 6.37467 8.78926 6.062C8.69592 5.80533 8.64926 5.516 8.64926 5.194C8.64926 4.872 8.67492 4.62467 8.72626 4.452C8.81492 4.12067 8.98992 3.857 9.25126 3.661C9.51259 3.465 9.82992 3.367 10.2033 3.367C11.0759 3.367 11.5869 3.84533 11.7363 4.802C11.7596 4.956 11.7759 5.14733 11.7853 5.376C11.7853 5.45067 11.7479 5.488 11.6733 5.488H9.50326C9.47526 5.488 9.46126 5.502 9.46126 5.53C9.46126 5.656 9.47526 5.75867 9.50326 5.838C9.55459 6.006 9.65259 6.13667 9.79726 6.23C9.94192 6.32333 10.1216 6.37 10.3363 6.37ZM10.1963 4.067C10.0189 4.067 9.87192 4.11133 9.75526 4.2C9.64326 4.284 9.56626 4.403 9.52426 4.557C9.49159 4.65033 9.47292 4.74833 9.46826 4.851C9.46359 4.879 9.47526 4.893 9.50326 4.893H10.9103C10.9383 4.893 10.9523 4.879 10.9523 4.851C10.9336 4.711 10.9196 4.627 10.9103 4.599C10.8683 4.43567 10.7843 4.30733 10.6583 4.214C10.5369 4.116 10.3829 4.067 10.1963 4.067ZM14.1108 3.969C14.1108 4.04367 14.0735 4.081 13.9988 4.081H13.3198C13.2918 4.081 13.2778 4.095 13.2778 4.123V5.775C13.2778 5.957 13.3152 6.08767 13.3898 6.167C13.4692 6.24633 13.5928 6.286 13.7608 6.286H13.9428C14.0175 6.286 14.0548 6.32333 14.0548 6.398V6.867C14.0548 6.94167 14.0175 6.98133 13.9428 6.986L13.6068 6.993C13.2382 6.993 12.9628 6.93 12.7808 6.804C12.5988 6.67333 12.5055 6.433 12.5008 6.083V4.123C12.5008 4.095 12.4868 4.081 12.4588 4.081H12.0948C12.0202 4.081 11.9828 4.04367 11.9828 3.969V3.535C11.9828 3.46033 12.0202 3.423 12.0948 3.423H12.4588C12.4868 3.423 12.5008 3.409 12.5008 3.381V2.597C12.5008 2.52233 12.5382 2.485 12.6128 2.485H13.1658C13.2405 2.485 13.2778 2.52233 13.2778 2.597V3.381C13.2778 3.409 13.2918 3.423 13.3198 3.423H13.9988C14.0735 3.423 14.1108 3.46033 14.1108 3.535V3.969ZM15.952 3.367C16.246 3.367 16.505 3.41833 16.729 3.521C16.9577 3.62367 17.1327 3.766 17.254 3.948C17.3753 4.12533 17.436 4.32833 17.436 4.557V6.888C17.436 6.96267 17.3987 7 17.324 7H16.736C16.6613 7 16.624 6.96267 16.624 6.888V6.713C16.624 6.69433 16.6193 6.685 16.61 6.685C16.6007 6.68033 16.589 6.68267 16.575 6.692C16.323 6.93467 15.987 7.056 15.567 7.056C15.2217 7.056 14.937 6.96733 14.713 6.79C14.4937 6.61267 14.384 6.349 14.384 5.999C14.384 5.635 14.51 5.35267 14.762 5.152C15.0187 4.94667 15.378 4.844 15.84 4.844H16.582C16.61 4.844 16.624 4.83 16.624 4.802V4.641C16.624 4.459 16.568 4.319 16.456 4.221C16.3487 4.11833 16.1877 4.067 15.973 4.067C15.8097 4.067 15.6743 4.09733 15.567 4.158C15.4597 4.214 15.3873 4.29333 15.35 4.396C15.3313 4.46133 15.2893 4.49167 15.224 4.487L14.594 4.41C14.5567 4.40533 14.5287 4.396 14.51 4.382C14.4913 4.36333 14.4843 4.34233 14.489 4.319C14.531 4.039 14.685 3.81033 14.951 3.633C15.2217 3.45567 15.5553 3.367 15.952 3.367ZM15.791 6.412C16.0197 6.412 16.2157 6.35133 16.379 6.23C16.5423 6.10867 16.624 5.95467 16.624 5.768V5.446C16.624 5.418 16.61 5.404 16.582 5.404H16.001C15.7537 5.404 15.5577 5.45067 15.413 5.544C15.2683 5.63733 15.196 5.77033 15.196 5.943C15.196 6.09233 15.252 6.209 15.364 6.293C15.476 6.37233 15.6183 6.412 15.791 6.412Z" fill="#E0ECFF"/>
</svg>
