<svg width="26" height="12" viewBox="0 0 26 12" fill="none" xmlns="http://www.w3.org/2000/svg">
<path d="M0 2C0 0.895431 0.895431 0 2 0H24C25.1046 0 26 0.895431 26 2V10C26 11.1046 25.1046 12 24 12H0V2Z" fill="#CD7A37"/>
<path d="M7.66 5.34C7.63333 5.34667 7.62 5.36 7.62 5.38C7.62 5.39333 7.63333 5.40667 7.66 5.42C8.32667 5.74 8.66 6.28667 8.66 7.06C8.66 7.69333 8.44667 8.17667 8.02 8.51C7.6 8.83667 7.05 9 6.37 9H3.89C3.78333 9 3.73 8.94667 3.73 8.84V2.16C3.73 2.05333 3.78333 2 3.89 2H6.29C7.01667 2 7.57667 2.15667 7.97 2.47C8.36333 2.78333 8.56 3.25667 8.56 3.89C8.56 4.57667 8.26 5.06 7.66 5.34ZM4.95 3C4.91 3 4.89 3.02 4.89 3.06V4.89C4.89 4.93 4.91 4.95 4.95 4.95H6.29C6.64333 4.95 6.92 4.86667 7.12 4.7C7.32667 4.52667 7.43 4.29 7.43 3.99C7.43 3.68333 7.32667 3.44333 7.12 3.27C6.92 3.09 6.64333 3 6.29 3H4.95ZM6.37 7.99C6.71667 7.99 6.99 7.89667 7.19 7.71C7.39667 7.52333 7.5 7.27 7.5 6.95C7.5 6.62333 7.39667 6.37 7.19 6.19C6.98333 6.00333 6.70333 5.91 6.35 5.91H4.95C4.91 5.91 4.89 5.93 4.89 5.97V7.93C4.89 7.97 4.91 7.99 4.95 7.99H6.37ZM12.1307 8.1C12.3774 8.09333 12.5907 8.04333 12.7707 7.95C12.9574 7.85 13.1074 7.71667 13.2207 7.55C13.254 7.49667 13.2974 7.47 13.3507 7.47C13.384 7.47 13.414 7.48 13.4407 7.5L13.9207 7.88C13.9674 7.92667 13.9907 7.97 13.9907 8.01C13.9907 8.03667 13.9807 8.06667 13.9607 8.1C13.7674 8.40667 13.504 8.64667 13.1707 8.82C12.8374 8.99333 12.454 9.08 12.0207 9.08C11.494 9.08 11.0507 8.95667 10.6907 8.71C10.3374 8.45667 10.0807 8.10667 9.9207 7.66C9.78737 7.29333 9.7207 6.88 9.7207 6.42C9.7207 5.96 9.75737 5.60667 9.8307 5.36C9.95737 4.88667 10.2074 4.51 10.5807 4.23C10.954 3.95 11.4074 3.81 11.9407 3.81C13.1874 3.81 13.9174 4.49333 14.1307 5.86C14.164 6.08 14.1874 6.35333 14.2007 6.68C14.2007 6.78667 14.1474 6.84 14.0407 6.84H10.9407C10.9007 6.84 10.8807 6.86 10.8807 6.9C10.8807 7.08 10.9007 7.22667 10.9407 7.34C11.014 7.58 11.154 7.76667 11.3607 7.9C11.5674 8.03333 11.824 8.1 12.1307 8.1ZM11.9307 4.81C11.6774 4.81 11.4674 4.87333 11.3007 5C11.1407 5.12 11.0307 5.29 10.9707 5.51C10.924 5.64333 10.8974 5.78333 10.8907 5.93C10.884 5.97 10.9007 5.99 10.9407 5.99H12.9507C12.9907 5.99 13.0107 5.97 13.0107 5.93C12.984 5.73 12.964 5.61 12.9507 5.57C12.8907 5.33667 12.7707 5.15333 12.5907 5.02C12.4174 4.88 12.1974 4.81 11.9307 4.81ZM17.873 4.67C17.873 4.77667 17.8196 4.83 17.713 4.83H16.743C16.703 4.83 16.683 4.85 16.683 4.89V7.25C16.683 7.51 16.7363 7.69667 16.843 7.81C16.9563 7.92333 17.133 7.98 17.373 7.98H17.633C17.7396 7.98 17.793 8.03333 17.793 8.14V8.81C17.793 8.91667 17.7396 8.97333 17.633 8.98L17.153 8.99C16.6263 8.99 16.233 8.9 15.973 8.72C15.713 8.53333 15.5796 8.19 15.573 7.69V4.89C15.573 4.85 15.553 4.83 15.513 4.83H14.993C14.8863 4.83 14.833 4.77667 14.833 4.67V4.05C14.833 3.94333 14.8863 3.89 14.993 3.89H15.513C15.553 3.89 15.573 3.87 15.573 3.83V2.71C15.573 2.60333 15.6263 2.55 15.733 2.55H16.523C16.6296 2.55 16.683 2.60333 16.683 2.71V3.83C16.683 3.87 16.703 3.89 16.743 3.89H17.713C17.8196 3.89 17.873 3.94333 17.873 4.05V4.67ZM20.8532 3.81C21.2732 3.81 21.6432 3.88333 21.9632 4.03C22.2899 4.17667 22.5399 4.38 22.7132 4.64C22.8865 4.89333 22.9732 5.18333 22.9732 5.51V8.84C22.9732 8.94667 22.9199 9 22.8132 9H21.9732C21.8665 9 21.8132 8.94667 21.8132 8.84V8.59C21.8132 8.56333 21.8065 8.55 21.7932 8.55C21.7799 8.54333 21.7632 8.54667 21.7432 8.56C21.3832 8.90667 20.9032 9.08 20.3032 9.08C19.8099 9.08 19.4032 8.95333 19.0832 8.7C18.7699 8.44667 18.6132 8.07 18.6132 7.57C18.6132 7.05 18.7932 6.64667 19.1532 6.36C19.5199 6.06667 20.0332 5.92 20.6932 5.92H21.7532C21.7932 5.92 21.8132 5.9 21.8132 5.86V5.63C21.8132 5.37 21.7332 5.17 21.5732 5.03C21.4199 4.88333 21.1899 4.81 20.8832 4.81C20.6499 4.81 20.4565 4.85333 20.3032 4.94C20.1499 5.02 20.0465 5.13333 19.9932 5.28C19.9665 5.37333 19.9065 5.41667 19.8132 5.41L18.9132 5.3C18.8599 5.29333 18.8199 5.28 18.7932 5.26C18.7665 5.23333 18.7565 5.20333 18.7632 5.17C18.8232 4.77 19.0432 4.44333 19.4232 4.19C19.8099 3.93667 20.2865 3.81 20.8532 3.81ZM20.6232 8.16C20.9499 8.16 21.2299 8.07333 21.4632 7.9C21.6965 7.72667 21.8132 7.50667 21.8132 7.24V6.78C21.8132 6.74 21.7932 6.72 21.7532 6.72H20.9232C20.5699 6.72 20.2899 6.78667 20.0832 6.92C19.8765 7.05333 19.7732 7.24333 19.7732 7.49C19.7732 7.70333 19.8532 7.87 20.0132 7.99C20.1732 8.10333 20.3765 8.16 20.6232 8.16Z" fill="#E0ECFF"/>
</svg>
