<svg width="22" height="11" viewBox="0 0 22 11" fill="none" xmlns="http://www.w3.org/2000/svg">
<path d="M0 2C0 0.895431 0.895431 0 2 0H20C21.1046 0 22 0.895431 22 2V9C22 10.1046 21.1046 11 20 11H0V2Z" fill="#CD7A37"/>
<path d="M6.728 5.072C6.70667 5.07733 6.696 5.088 6.696 5.104C6.696 5.11467 6.70667 5.12533 6.728 5.136C7.26133 5.392 7.528 5.82933 7.528 6.448C7.528 6.95467 7.35733 7.34133 7.016 7.608C6.68 7.86933 6.24 8 5.696 8H3.712C3.62667 8 3.584 7.95733 3.584 7.872V2.528C3.584 2.44267 3.62667 2.4 3.712 2.4H5.632C6.21333 2.4 6.66133 2.52533 6.976 2.776C7.29067 3.02667 7.448 3.40533 7.448 3.912C7.448 4.46133 7.208 4.848 6.728 5.072ZM4.56 3.2C4.528 3.2 4.512 3.216 4.512 3.248V4.712C4.512 4.744 4.528 4.76 4.56 4.76H5.632C5.91467 4.76 6.136 4.69333 6.296 4.56C6.46133 4.42133 6.544 4.232 6.544 3.992C6.544 3.74667 6.46133 3.55467 6.296 3.416C6.136 3.272 5.91467 3.2 5.632 3.2H4.56ZM5.696 7.192C5.97333 7.192 6.192 7.11733 6.352 6.968C6.51733 6.81867 6.6 6.616 6.6 6.36C6.6 6.09867 6.51733 5.896 6.352 5.752C6.18667 5.60267 5.96267 5.528 5.68 5.528H4.56C4.528 5.528 4.512 5.544 4.512 5.576V7.144C4.512 7.176 4.528 7.192 4.56 7.192H5.696ZM10.3046 7.28C10.5019 7.27467 10.6726 7.23467 10.8166 7.16C10.9659 7.08 11.0859 6.97333 11.1766 6.84C11.2032 6.79733 11.2379 6.776 11.2806 6.776C11.3072 6.776 11.3312 6.784 11.3526 6.8L11.7366 7.104C11.7739 7.14133 11.7926 7.176 11.7926 7.208C11.7926 7.22933 11.7846 7.25333 11.7686 7.28C11.6139 7.52533 11.4032 7.71733 11.1366 7.856C10.8699 7.99467 10.5632 8.064 10.2166 8.064C9.79523 8.064 9.44056 7.96533 9.15256 7.768C8.8699 7.56533 8.66456 7.28533 8.53656 6.928C8.4299 6.63467 8.37656 6.304 8.37656 5.936C8.37656 5.568 8.4059 5.28533 8.46456 5.088C8.5659 4.70933 8.7659 4.408 9.06456 4.184C9.36323 3.96 9.7259 3.848 10.1526 3.848C11.1499 3.848 11.7339 4.39467 11.9046 5.488C11.9312 5.664 11.9499 5.88267 11.9606 6.144C11.9606 6.22933 11.9179 6.272 11.8326 6.272H9.35256C9.32056 6.272 9.30456 6.288 9.30456 6.32C9.30456 6.464 9.32056 6.58133 9.35256 6.672C9.41123 6.864 9.52323 7.01333 9.68856 7.12C9.8539 7.22667 10.0592 7.28 10.3046 7.28ZM10.1446 4.648C9.9419 4.648 9.7739 4.69867 9.64056 4.8C9.51256 4.896 9.42456 5.032 9.37656 5.208C9.33923 5.31467 9.3179 5.42667 9.31256 5.544C9.30723 5.576 9.32056 5.592 9.35256 5.592H10.9606C10.9926 5.592 11.0086 5.576 11.0086 5.544C10.9872 5.384 10.9712 5.288 10.9606 5.256C10.9126 5.06933 10.8166 4.92267 10.6726 4.816C10.5339 4.704 10.3579 4.648 10.1446 4.648ZM14.8984 4.536C14.8984 4.62133 14.8557 4.664 14.7704 4.664H13.9944C13.9624 4.664 13.9464 4.68 13.9464 4.712V6.6C13.9464 6.808 13.989 6.95733 14.0744 7.048C14.165 7.13867 14.3064 7.184 14.4984 7.184H14.7064C14.7917 7.184 14.8344 7.22667 14.8344 7.312V7.848C14.8344 7.93333 14.7917 7.97867 14.7064 7.984L14.3224 7.992C13.901 7.992 13.5864 7.92 13.3784 7.776C13.1704 7.62667 13.0637 7.352 13.0584 6.952V4.712C13.0584 4.68 13.0424 4.664 13.0104 4.664H12.5944C12.509 4.664 12.4664 4.62133 12.4664 4.536V4.04C12.4664 3.95467 12.509 3.912 12.5944 3.912H13.0104C13.0424 3.912 13.0584 3.896 13.0584 3.864V2.968C13.0584 2.88267 13.101 2.84 13.1864 2.84H13.8184C13.9037 2.84 13.9464 2.88267 13.9464 2.968V3.864C13.9464 3.896 13.9624 3.912 13.9944 3.912H14.7704C14.8557 3.912 14.8984 3.95467 14.8984 4.04V4.536ZM17.2826 3.848C17.6186 3.848 17.9146 3.90667 18.1706 4.024C18.4319 4.14133 18.6319 4.304 18.7706 4.512C18.9092 4.71467 18.9786 4.94667 18.9786 5.208V7.872C18.9786 7.95733 18.9359 8 18.8506 8H18.1786C18.0932 8 18.0506 7.95733 18.0506 7.872V7.672C18.0506 7.65067 18.0452 7.64 18.0346 7.64C18.0239 7.63467 18.0106 7.63733 17.9946 7.648C17.7066 7.92533 17.3226 8.064 16.8426 8.064C16.4479 8.064 16.1226 7.96267 15.8666 7.76C15.6159 7.55733 15.4906 7.256 15.4906 6.856C15.4906 6.44 15.6346 6.11733 15.9226 5.888C16.2159 5.65333 16.6266 5.536 17.1546 5.536H18.0026C18.0346 5.536 18.0506 5.52 18.0506 5.488V5.304C18.0506 5.096 17.9866 4.936 17.8586 4.824C17.7359 4.70667 17.5519 4.648 17.3066 4.648C17.1199 4.648 16.9652 4.68267 16.8426 4.752C16.7199 4.816 16.6372 4.90667 16.5946 5.024C16.5732 5.09867 16.5252 5.13333 16.4506 5.128L15.7306 5.04C15.6879 5.03467 15.6559 5.024 15.6346 5.008C15.6132 4.98667 15.6052 4.96267 15.6106 4.936C15.6586 4.616 15.8346 4.35467 16.1386 4.152C16.4479 3.94933 16.8292 3.848 17.2826 3.848ZM17.0986 7.328C17.3599 7.328 17.5839 7.25867 17.7706 7.12C17.9572 6.98133 18.0506 6.80533 18.0506 6.592V6.224C18.0506 6.192 18.0346 6.176 18.0026 6.176H17.3386C17.0559 6.176 16.8319 6.22933 16.6666 6.336C16.5012 6.44267 16.4186 6.59467 16.4186 6.792C16.4186 6.96267 16.4826 7.096 16.6106 7.192C16.7386 7.28267 16.9012 7.328 17.0986 7.328Z" fill="#E0ECFF"/>
</svg>
