<svg width="102" height="18" viewBox="0 0 102 18" fill="none" xmlns="http://www.w3.org/2000/svg">
<g clip-path="url(#clip0_312_392)">
<path d="M2.9688 2.72573L7.69107 0L12.4133 2.72573L10.6772 3.73268L7.69107 2.01391L4.70493 3.73268L2.9688 2.72573ZM12.4133 6.16326L10.6772 5.1563L7.69107 6.87508L4.70493 5.1563L2.9688 6.16326V8.17717L5.95493 9.89595V13.3335L7.69107 14.3404L9.42719 13.3335V9.89595L12.4133 8.17717V6.16326ZM12.4133 11.6147V9.6008L10.6772 10.6078V12.6216L12.4133 11.6147ZM13.646 12.3265L10.6598 14.0453V16.0592L15.3822 13.3335V7.88203L13.646 8.88898V12.3265ZM11.9099 4.44449L13.646 5.45144V7.46536L15.3822 6.45841V4.44449L13.646 3.43754L11.9099 4.44449ZM5.95493 14.7745V16.7884L7.69107 17.7953L9.42719 16.7884V14.7745L7.69107 15.7814L5.95493 14.7745ZM2.9688 11.6147L4.70493 12.6216V10.6078L2.9688 9.6008V11.6147ZM5.95493 4.44449L7.69107 5.45144L9.42719 4.44449L7.69107 3.43754L5.95493 4.44449ZM1.73613 5.45144L3.47226 4.44449L1.73613 3.43754L0 4.44449V6.45841L1.73613 7.46536V5.45144ZM1.73613 8.88898L0 7.88203V13.3335L4.72226 16.0592V14.0453L1.73613 12.3265V8.88898Z" fill="#A1A6B5"/>
<path d="M29.0695 11.1677V11.1394C29.0695 9.80945 28.362 9.1445 27.2161 8.7059C27.9235 8.30977 28.5177 7.68725 28.5177 6.56955V6.54125C28.5177 4.98498 27.2726 3.98047 25.2495 3.98047H20.6514V13.8841H25.3627C27.5981 13.8841 29.0695 12.9786 29.0695 11.1677ZM26.3531 6.9374C26.3531 7.6731 25.7447 7.98436 24.7826 7.98436H22.7736V5.89045H24.9241C25.8437 5.89045 26.3531 6.2583 26.3531 6.90911V6.9374ZM26.9049 10.8989C26.9049 11.6345 26.3247 11.9741 25.3627 11.9741H22.7736V9.7953H25.292C26.4096 9.7953 26.9049 10.2056 26.9049 10.8705V10.8989Z" fill="#A1A6B5"/>
<path d="M39.803 13.8841V3.98047H37.6525V10.0783L33.0119 3.98047H31.0029V13.8841H33.1534V7.58821L37.9496 13.8841H39.803Z" fill="#A1A6B5"/>
<path d="M50.7404 11.1677V11.1394C50.7404 9.80945 50.033 9.1445 48.887 8.7059C49.5944 8.30977 50.1886 7.68725 50.1886 6.56955V6.54125C50.1886 4.98498 48.9436 3.98047 46.9204 3.98047H42.3223V13.8841H47.0336C49.269 13.8841 50.7404 12.9786 50.7404 11.1677ZM48.024 6.9374C48.024 7.6731 47.4156 7.98436 46.4535 7.98436H44.4446V5.89045H46.595C47.5146 5.89045 48.024 6.2583 48.024 6.90911V6.9374ZM48.5758 10.8989C48.5758 11.6345 47.9957 11.9741 47.0336 11.9741H44.4446V9.7953H46.9629C48.0805 9.7953 48.5758 10.2056 48.5758 10.8705V10.8989Z" fill="#A1A6B5"/>
<path d="M63.8711 12.1348L62.7535 11.0029C61.9046 11.7952 61.1264 12.2905 59.9097 12.2905C58.0139 12.2905 56.6415 10.7058 56.6415 8.75343C56.6415 6.801 58.0139 5.24472 59.9097 5.24472C61.0415 5.24472 61.8904 5.7399 62.6827 6.4756L63.8004 5.18813C62.8525 4.28265 61.7489 3.646 59.9238 3.646C56.9245 3.646 54.8164 5.95212 54.8164 8.78172C54.8164 11.6396 56.9668 13.8891 59.853 13.8891C61.7064 13.8891 62.8383 13.21 63.8711 12.1348Z" fill="#A1A6B5"/>
<path d="M72.3074 9.54538V13.719H74.0476V3.81543H72.3074V7.93251H67.582V3.81543H65.8418V13.719H67.582V9.54538H72.3074Z" fill="#A1A6B5"/>
<path d="M81.8543 3.74463H80.2414L75.8838 13.719H77.6665L78.6851 11.3279H83.3681L84.3726 13.719H86.2119L81.8543 3.74463ZM82.7314 9.78583H79.3217L81.0195 5.82439L82.7314 9.78583Z" fill="#A1A6B5"/>
<path d="M88.1504 3.81543V13.719H89.8906V3.81543H88.1504Z" fill="#A1A6B5"/>
<path d="M99.602 10.6631L94.2964 3.81543H92.6836V13.719H94.3955V6.67333L99.8566 13.719H101.314V3.81543H99.602V10.6631Z" fill="#A1A6B5"/>
</g>
<defs>
<clipPath id="clip0_312_392">
<rect width="101.33" height="17.864" fill="white"/>
</clipPath>
</defs>
</svg>
