<svg width="97" height="97" viewBox="0 0 97 97" fill="none" xmlns="http://www.w3.org/2000/svg">
<g clip-path="url(#clip0_1814_840)">
<path d="M66.8525 48.1686L76.6297 43.7696L80 34.4292L73.2594 30H28.3778L18 36.9601H70.7567L67.9537 44.794H46.7976L44.7621 50.5187H65.9182L59.9785 67L69.8891 62.5708L73.4263 52.6881L66.7858 48.2891L66.8525 48.1686Z" fill="white"/>
<path d="M31.9439 60.1421L39.7954 41.0826L31.0858 36L18 68H66.7393L70 60.1421H31.9439Z" fill="white"/>
<path d="M95.5 48.5C95.5 74.4574 74.4574 95.5 48.5 95.5C22.5426 95.5 1.5 74.4574 1.5 48.5C1.5 22.5426 22.5426 1.5 48.5 1.5C74.4574 1.5 95.5 22.5426 95.5 48.5Z" stroke="white" stroke-opacity="0.2" stroke-width="3"/>
</g>
<defs>
<clipPath id="clip0_1814_840">
<rect width="97" height="97" fill="white"/>
</clipPath>
</defs>
</svg>
