<svg xmlns="http://www.w3.org/2000/svg" width="30" height="30" viewBox="0 0 30 30"><path d="M9.174,12.606,15,6.78l5.829,5.829,3.39-3.39L15,0,5.784,9.216l3.39,3.39M0,15l3.39-3.391L6.78,15l-3.39,3.39Zm9.174,2.394L15,23.22l5.829-5.829,3.392,3.388,0,0L15,30,5.784,20.784l0,0,3.395-3.385M23.22,15l3.39-3.39L30,15l-3.39,3.39Z" fill="#f3ba2f"/><path d="M970.363,966.776h0l-3.586-3.586-2.651,2.65h0l-.3.3-.628.628-.005,0,.005.005,3.583,3.584,3.586-3.586,0,0,0,0" transform="translate(-951.778 -951.778)" fill="#f3ba2f"/></svg>