<svg width="12" height="13" viewBox="0 0 12 13" fill="none" xmlns="http://www.w3.org/2000/svg">
<path d="M6 12.082C2.68636 12.082 0 9.39567 0 6.08203C0 2.7684 2.68636 0.0820312 6 0.0820312C9.31364 0.0820312 12 2.7684 12 6.08203C12 9.39567 9.31364 12.082 6 12.082ZM6 10.9911C8.71091 10.9911 10.9091 8.79294 10.9091 6.08203C10.9091 3.37112 8.71091 1.17294 6 1.17294C3.28882 1.17294 1.09091 3.37112 1.09091 6.08203C1.09091 8.79294 3.28882 10.9911 6 10.9911ZM6 3.79467C5.8553 3.79467 5.71653 3.73719 5.61421 3.63487C5.51189 3.53255 5.45441 3.39378 5.45441 3.24908C5.45441 3.10438 5.51189 2.9656 5.61421 2.86329C5.71653 2.76097 5.8553 2.70349 6 2.70349C6.1447 2.70349 6.28347 2.76097 6.38579 2.86329C6.48811 2.9656 6.54559 3.10438 6.54559 3.24908C6.54559 3.39378 6.48811 3.53255 6.38579 3.63487C6.28347 3.73719 6.1447 3.79467 6 3.79467ZM6.00736 9.40112C5.86976 9.40109 5.73724 9.34905 5.63639 9.25543C5.53554 9.16181 5.4738 9.03353 5.46355 8.89631L5.46191 8.8554V5.03721C5.46135 4.8957 5.51582 4.75951 5.6138 4.6574C5.71178 4.55529 5.84561 4.49526 5.98703 4.48999C6.12845 4.48471 6.26638 4.53461 6.3717 4.62913C6.47701 4.72366 6.54147 4.85541 6.55146 4.99658L6.55282 5.03749V8.85567C6.55282 9.00033 6.49535 9.13907 6.39306 9.24136C6.29077 9.34366 6.15203 9.40112 6.00736 9.40112Z" fill="#EEF1F5" fill-opacity="0.5"/>
</svg>
