<svg width="20" height="20" viewBox="0 0 20 20" fill="none" xmlns="http://www.w3.org/2000/svg">
<path d="M7.86719 5.84766H7.31445V5.29297C7.31445 4.76953 6.89062 4.34375 6.36523 4.34375C5.83984 4.34375 5.41601 4.76758 5.41601 5.29297V5.84766H4.86328C4.33984 5.84766 3.91406 6.27149 3.91406 6.79688C3.91406 7.32031 4.33789 7.7461 4.86328 7.7461H5.41797V8.29883C5.41797 8.82227 5.8418 9.24805 6.36719 9.24805C6.89258 9.24805 7.3164 8.82422 7.3164 8.29883V7.7461H7.86914C8.39258 7.7461 8.81836 7.32227 8.81836 6.79688C8.8164 6.27149 8.39062 5.84766 7.86719 5.84766V5.84766ZM15.1367 5.84766H12.1328C11.6094 5.84766 11.1836 6.27149 11.1836 6.79688C11.1836 7.32031 11.6074 7.7461 12.1328 7.7461H15.1367C15.6601 7.7461 16.0859 7.32227 16.0859 6.79688C16.0859 6.27149 15.6601 5.84766 15.1367 5.84766ZM14.9883 11.502H12.2812C11.7578 11.502 11.332 11.9258 11.332 12.4512C11.332 12.9766 11.7578 13.3984 12.2812 13.3984H14.9883C15.5117 13.3984 15.9375 12.9746 15.9375 12.4492C15.9375 11.9238 15.5117 11.502 14.9883 11.502ZM14.9883 13.5684H12.2812C11.7578 13.5684 11.332 13.9922 11.332 14.5176C11.332 15.043 11.7559 15.4668 12.2812 15.4668H14.9883C15.5117 15.4668 15.9375 15.043 15.9375 14.5176C15.9375 13.9922 15.5117 13.5684 14.9883 13.5684ZM8.25781 11.5898C7.88672 11.2188 7.28711 11.2188 6.91601 11.5898L6.36328 12.1426L5.81055 11.5898C5.43945 11.2188 4.83984 11.2188 4.46875 11.5898C4.09766 11.9609 4.09766 12.5606 4.46875 12.9316L5.02148 13.4844L4.47266 14.0352C4.10156 14.4063 4.10156 15.0059 4.47266 15.377C4.6582 15.5625 4.90039 15.6543 5.14258 15.6543C5.38476 15.6543 5.62695 15.5625 5.8125 15.377L6.36523 14.8242L6.91797 15.377C7.10351 15.5625 7.3457 15.6543 7.58789 15.6543C7.83008 15.6543 8.07226 15.5625 8.25781 15.377C8.6289 15.0059 8.6289 14.4063 8.25781 14.0352L7.70508 13.4824L8.25781 12.9297C8.6289 12.5606 8.6289 11.9609 8.25781 11.5898V11.5898Z" fill="#E0ECFF"/>
<path d="M14.2031 0H5.79297C2.60742 0.00976562 0.00976562 2.60938 0 5.79688V14.207C0.00976562 17.3926 2.60742 19.9902 5.79688 20H14.207C17.3926 19.9902 19.9922 17.3906 20 14.2031V5.79297C19.9902 2.60938 17.3926 0.00976562 14.2031 0ZM18.1035 14.2012C18.0977 16.3457 16.3457 18.0977 14.2031 18.1035H5.79883C3.65234 18.0977 1.90234 16.3457 1.89648 14.2031V5.79883C1.90234 3.6543 3.65234 1.9043 5.79883 1.89648H14.2012C16.3477 1.90234 18.0977 3.6543 18.1035 5.79688V14.2012Z" fill="#E0ECFF"/>
</svg>
