<svg width="113" height="97" viewBox="0 0 113 97" fill="none" xmlns="http://www.w3.org/2000/svg">
<path d="M106.329 51.9522L102.52 45.3456C102.461 45.2475 102.377 45.1663 102.277 45.11C102.177 45.0537 102.064 45.0241 101.949 45.0241C101.835 45.0241 101.722 45.0537 101.622 45.11C101.522 45.1663 101.438 45.2475 101.379 45.3456L97.5699 51.9522C97.5253 52.0326 97.4998 52.1221 97.4953 52.214C97.4893 52.3031 97.5011 52.3926 97.5301 52.4772C97.5592 52.5617 97.6048 52.6396 97.6644 52.7062C97.724 52.7729 97.7963 52.8269 97.8771 52.8652C97.9578 52.9035 98.0454 52.9252 98.1347 52.9291C98.3953 52.9349 98.5939 52.804 98.7558 52.5239L99.3447 51.4999C99.3824 51.4339 99.4369 51.3791 99.5026 51.341C99.5683 51.3029 99.643 51.2829 99.7189 51.2829H104.166C104.242 51.283 104.317 51.3031 104.382 51.3412C104.448 51.3793 104.503 51.434 104.54 51.4999L105.129 52.5239C105.277 52.7891 105.474 52.9211 105.719 52.9291C105.808 52.9325 105.897 52.9181 105.98 52.8866C106.063 52.8551 106.139 52.8073 106.203 52.7459C106.267 52.6846 106.318 52.611 106.354 52.5295C106.389 52.4479 106.408 52.3602 106.408 52.2714C106.406 52.1604 106.379 52.0514 106.329 51.9522ZM103.153 49.9662H100.742C100.69 49.966 100.639 49.9523 100.595 49.9264C100.55 49.9005 100.513 49.8633 100.487 49.8186C100.461 49.7738 100.448 49.7231 100.448 49.6714C100.448 49.6198 100.461 49.569 100.487 49.5242L101.698 47.4338C101.724 47.389 101.761 47.3518 101.806 47.3259C101.851 47.3 101.902 47.2864 101.953 47.2864C102.005 47.2864 102.056 47.3 102.101 47.3259C102.146 47.3518 102.183 47.389 102.209 47.4338L103.412 49.5242C103.438 49.5694 103.451 49.6206 103.451 49.6726C103.451 49.7246 103.437 49.7757 103.411 49.8206C103.384 49.8654 103.346 49.9026 103.301 49.9281C103.256 49.9537 103.205 49.9669 103.153 49.9662ZM31.652 46.1102C31.174 43.863 30.0984 41.7864 28.5386 40.0995C26.9789 38.4126 24.9929 37.1779 22.7899 36.5255C20.587 35.8731 18.2489 35.8273 16.0221 36.3929C13.7953 36.9584 11.7624 38.1144 10.1378 39.7389C9.55809 40.3185 9.03493 40.9519 8.57541 41.6308C8.43951 41.8127 8.31748 42.0045 8.21036 42.2048C7.31818 43.7008 6.74151 45.3635 6.51583 47.0907C6.29015 48.8178 6.42023 50.5729 6.89808 52.2479C7.37592 53.923 8.19141 55.4825 9.2944 56.8307C10.3974 58.1788 11.7645 59.287 13.3117 60.0871C14.8589 60.8872 16.5535 61.3623 18.2911 61.4832C20.0288 61.6041 21.7728 61.3681 23.4159 60.7899C25.059 60.2117 26.5664 59.3034 27.8454 58.1209C29.1244 56.9385 30.1479 55.5068 30.853 53.9141C30.9294 53.7561 30.9968 53.594 31.0551 53.4285C31.954 51.1111 32.1637 48.5831 31.6589 46.1492L31.652 46.1102ZM27.2243 40.2727C27.2978 40.3427 27.3701 40.4139 27.4424 40.4862C28.554 41.594 29.4309 42.9144 30.0207 44.3687C30.0341 44.4014 30.0383 44.4372 30.0331 44.4721C30.0279 44.5071 30.0134 44.54 29.9911 44.5675C29.9688 44.5949 29.9396 44.6159 29.9064 44.6282C29.8733 44.6405 29.8374 44.6436 29.8026 44.6373C29.4284 44.5739 29.049 44.547 28.6696 44.557C28.5292 44.56 28.3923 44.5129 28.2835 44.4241C28.1747 44.3354 28.1012 44.2107 28.0761 44.0725C27.873 42.8795 27.5444 41.7112 27.0957 40.5873L27.0234 40.4139C27.0116 40.3874 27.0094 40.3577 27.0171 40.3297C27.0248 40.3018 27.042 40.2774 27.0658 40.2607C27.0895 40.244 27.1183 40.2361 27.1472 40.2383C27.1761 40.2405 27.2033 40.2526 27.2243 40.2727ZM28.4377 47.7621C28.4373 47.7331 28.4461 47.7048 28.4628 47.6811C28.4796 47.6575 28.5034 47.6398 28.5309 47.6306C28.5584 47.6214 28.5881 47.6212 28.6157 47.63C28.6433 47.6387 28.6674 47.6561 28.6845 47.6794C28.7809 47.8138 28.8728 47.9492 28.9612 48.0847C29.0783 48.2645 29.1873 48.4436 29.2883 48.6219C29.3195 48.6759 29.3326 48.7384 29.3258 48.8003C29.319 48.8623 29.2926 48.9204 29.2505 48.9663C29.1135 49.1194 28.965 49.2747 28.805 49.4324L28.6294 49.6092C28.6131 49.6268 28.5917 49.6389 28.5682 49.6437C28.5448 49.6485 28.5203 49.6459 28.4984 49.6361C28.4765 49.6264 28.4582 49.61 28.4461 49.5893C28.434 49.5686 28.4286 49.5447 28.4308 49.5208C28.4388 49.3291 28.4434 49.1362 28.4469 48.9468C28.4503 48.5462 28.448 48.1524 28.4377 47.7621ZM12.366 39.2292C14.3475 37.8103 16.725 37.0505 19.162 37.0572C19.8078 37.0568 20.4524 37.1094 21.0895 37.2145C21.1263 37.2211 21.1605 37.2381 21.188 37.2635C21.2156 37.2888 21.2352 37.3216 21.2448 37.3577C21.2543 37.3939 21.2533 37.4321 21.2418 37.4677C21.2304 37.5034 21.209 37.535 21.1802 37.5589C20.5695 38.0387 20.0012 38.7482 19.4984 39.6677C19.4389 39.7765 19.3444 39.8619 19.2301 39.9101C19.1159 39.9582 18.9887 39.9663 18.8693 39.9329C17.305 39.4754 15.6796 39.2613 14.0501 39.2981C13.5183 39.3154 12.9884 39.3714 12.4648 39.4657C12.4357 39.4698 12.4061 39.4642 12.3807 39.4496C12.3552 39.4351 12.3353 39.4124 12.3241 39.3853C12.3129 39.3582 12.3111 39.3282 12.3189 39.2999C12.3267 39.2716 12.3437 39.2467 12.3672 39.2292H12.366ZM10.6946 56.7175C10.4489 56.2525 10.7669 55.1769 12.3832 53.5422C12.4231 53.5019 12.4541 53.4537 12.4741 53.4007C12.4941 53.3477 12.5027 53.2911 12.4993 53.2346C12.496 53.178 12.4807 53.1228 12.4546 53.0726C12.4285 53.0223 12.392 52.9781 12.3477 52.9429L12.1548 52.7891C12.0773 52.7262 11.9792 52.6943 11.8795 52.6996C11.7798 52.7049 11.6857 52.747 11.6153 52.8178L11.5521 52.8809C10.7485 53.7098 10.1745 54.4778 9.8623 55.1677C9.84186 55.2123 9.80987 55.2507 9.76965 55.2788C9.72942 55.3069 9.68242 55.3237 9.6335 55.3276C9.58457 55.3315 9.53551 55.3222 9.49137 55.3007C9.44723 55.2793 9.40963 55.2464 9.38244 55.2056C8.11968 53.2951 7.44916 51.0543 7.45499 48.7643C7.4544 47.9433 7.53982 47.1246 7.70984 46.3214C7.70847 46.2909 7.71925 46.2612 7.73981 46.2387C7.76037 46.2162 7.78903 46.2028 7.81947 46.2014C7.84992 46.2001 7.87966 46.2108 7.90216 46.2314C7.92466 46.252 7.93807 46.2806 7.93944 46.3111C8.21567 47.1862 8.61413 48.0179 9.123 48.7815C9.92093 49.9802 10.8818 51.062 11.978 51.9958C12.3706 52.3402 12.7816 52.6651 13.2167 52.9819C14.117 53.6409 15.0665 54.23 16.0568 54.7441C16.5056 54.9737 16.943 55.2033 17.3907 55.4007C17.5139 55.4567 17.647 55.4875 17.7823 55.4913C17.9175 55.495 18.0522 55.4716 18.1782 55.4225C18.3895 55.3399 18.6018 55.2538 18.8154 55.1642C18.928 55.1173 19.0201 55.0314 19.0746 54.9222C19.1292 54.8131 19.1427 54.6879 19.1127 54.5696C19.1046 54.5386 19.0989 54.5145 19.0955 54.4996C18.7266 52.8909 18.5342 51.2469 18.5215 49.5966V49.5334C18.5215 49.4381 18.5215 49.3417 18.5215 49.2464C18.5215 49.2166 18.5215 49.1649 18.5215 49.1316V49.0949C18.5215 48.9858 18.5215 48.8768 18.5215 48.7666C18.5215 48.467 18.5375 48.1685 18.5536 47.8735C18.6684 45.7623 19.0208 43.7786 19.5868 42.1106C19.612 42.0365 19.6069 41.9554 19.5725 41.885C19.538 41.8147 19.4771 41.7608 19.4031 41.7352C19.2516 41.6847 19.1012 41.6354 18.952 41.5883C18.8789 41.5653 18.7997 41.5717 18.7313 41.6062C18.6629 41.6408 18.6107 41.7006 18.5858 41.7731C17.9693 43.5846 17.5882 45.7348 17.486 48.0101C17.4798 48.152 17.4383 48.2901 17.3654 48.4119C17.2924 48.5338 17.1903 48.6355 17.0681 48.708C15.7942 49.4562 14.5733 50.2913 13.4141 51.2072C13.306 51.2932 13.1711 51.3386 13.033 51.3357C12.8948 51.3327 12.762 51.2816 12.6576 51.1911C11.6387 50.3242 10.7454 49.3196 10.0035 48.2064C8.66381 46.1492 8.34467 44.2114 9.10693 42.7512L9.11267 42.7409C9.21025 42.579 9.31127 42.4206 9.41573 42.2633C10.2916 41.105 11.9206 40.4334 14.0811 40.3577C14.2173 40.3531 14.3551 40.3508 14.4944 40.3508C15.9154 40.3662 17.3273 40.5803 18.6891 40.9867L18.7844 41.0154L18.8578 41.0361C19.1923 41.1364 19.5271 41.2466 19.8623 41.3667L19.8864 41.3748L20.1482 41.4723L20.2308 41.5033L20.31 41.5332C21.0303 41.8119 21.7347 42.13 22.42 42.486C23.7238 43.1592 24.9506 43.9721 26.0786 44.9105C24.0272 45.3801 21.644 46.2881 19.2458 47.5095C19.1912 47.537 19.1449 47.5784 19.1116 47.6297C19.0784 47.6809 19.0593 47.7401 19.0564 47.8011C19.0472 47.9492 19.0369 48.2477 19.0289 48.4899C19.0277 48.5239 19.0356 48.5576 19.0515 48.5876C19.0675 48.6176 19.0911 48.6429 19.12 48.6609C19.1488 48.6789 19.1819 48.6891 19.2158 48.6903C19.2498 48.6915 19.2835 48.6838 19.3136 48.6679C21.6864 47.4212 24.0559 46.4867 26.0866 45.9977C26.27 45.9531 26.4303 45.8419 26.5364 45.6858C26.6425 45.5297 26.6867 45.3397 26.6606 45.1528C26.6231 44.8818 26.581 44.614 26.5343 44.3492C26.4756 44.021 26.2957 43.7268 26.0304 43.5249C25.0465 42.7781 24.0003 42.1171 22.9033 41.5493C22.1581 41.1617 21.3916 40.8168 20.6073 40.5161C20.5685 40.5014 20.5333 40.4785 20.5041 40.449C20.4749 40.4194 20.4525 40.3839 20.4383 40.3449C20.4242 40.3058 20.4186 40.2642 20.422 40.2228C20.4254 40.1814 20.4377 40.1413 20.4581 40.1051C21.2514 38.6851 22.195 37.8907 23.1145 37.8907H23.1432C24.2281 37.9102 25.3095 39.0386 26.1096 40.9902C26.5439 42.0727 26.8603 43.1989 27.0532 44.3492C27.1451 44.8772 27.2185 45.4225 27.2736 45.9816L27.2587 45.9908L27.2782 46.0103C27.372 46.9789 27.4104 47.952 27.393 48.925C27.3816 49.5564 27.3483 50.1786 27.2943 50.7882C25.6652 52.0775 23.9183 53.2106 22.0768 54.1724C21.4293 54.5168 20.7807 54.8348 20.1401 55.1298L20.1103 55.1436L19.9622 55.2102C19.4311 55.4512 18.906 55.6732 18.3872 55.876L18.2999 55.9093L18.1851 55.9518L17.9257 56.0505L17.8545 56.0769L17.5411 56.1917L17.5032 56.2066C16.4835 56.5785 15.437 56.8725 14.3727 57.086C12.0412 57.5325 10.9506 57.1881 10.6946 56.7175ZM13.9032 52.1726C15.0318 51.265 16.2238 50.439 17.4699 49.701C17.4898 51.3136 17.6717 52.92 18.0129 54.4961C17.5216 54.2857 17.0322 54.0561 16.5447 53.8073C15.6245 53.3293 14.7415 52.7829 13.9032 52.1726ZM20.6762 60.3761C20.1752 60.4406 19.6706 60.4728 19.1655 60.4725C16.9244 60.4788 14.7294 59.8369 12.8447 58.6242C12.8167 58.6062 12.7951 58.5797 12.7832 58.5485C12.7712 58.5174 12.7694 58.4833 12.7781 58.4511C12.7868 58.4189 12.8055 58.3903 12.8315 58.3694C12.8575 58.3485 12.8895 58.3365 12.9228 58.335H13.0112C13.5339 58.2974 14.0538 58.2273 14.5678 58.1249C15.9094 57.8517 17.2249 57.4634 18.4997 56.9643C18.56 56.9419 18.6267 56.9439 18.6856 56.9698C18.7445 56.9958 18.7911 57.0436 18.8154 57.1032C19.3572 58.4211 20.023 59.4163 20.7669 60.05C20.7938 60.0734 20.8134 60.1039 20.8236 60.138C20.8337 60.1721 20.8339 60.2084 20.8242 60.2426C20.8144 60.2769 20.7951 60.3076 20.7685 60.3312C20.7419 60.3549 20.7091 60.3704 20.6739 60.3761H20.6762ZM25.6263 57.2501C24.7894 58.894 23.7608 59.817 22.7632 59.7986C21.6784 59.7791 20.597 58.6506 19.7957 56.6991C19.7716 56.6393 19.7717 56.5725 19.7962 56.5129C19.8206 56.4532 19.8674 56.4055 19.9266 56.38L19.9519 56.3696C20.0043 56.3464 20.0632 56.3423 20.1183 56.3581C21.5367 56.7683 23.0042 56.9834 24.4806 56.9976C24.631 56.9976 24.7802 56.9976 24.9272 56.9895C25.1005 56.9838 25.2716 56.9746 25.4392 56.9608C25.4738 56.9597 25.5081 56.9676 25.5387 56.9838C25.5693 56.9999 25.5952 57.0238 25.6138 57.0529C25.6325 57.0821 25.6432 57.1156 25.645 57.1502C25.6468 57.1848 25.6395 57.2192 25.624 57.2501H25.6263ZM25.9891 55.8358C25.6242 55.8887 25.2566 55.9213 24.8881 55.9334C23.8995 55.9609 22.9108 55.882 21.939 55.6981C21.9118 55.693 21.8869 55.6794 21.8678 55.6594C21.8487 55.6394 21.8364 55.6139 21.8326 55.5865C21.8288 55.5591 21.8337 55.5311 21.8466 55.5067C21.8595 55.4822 21.8798 55.4624 21.9046 55.4501C22.1261 55.3353 22.3488 55.2205 22.5704 55.1057C24.0595 54.3212 25.4922 53.4339 26.8581 52.4504C26.8793 52.435 26.9046 52.4263 26.9308 52.4253C26.957 52.4244 26.9828 52.4312 27.0051 52.445C27.0274 52.4588 27.0451 52.4789 27.0559 52.5028C27.0667 52.5266 27.0702 52.5532 27.0659 52.579C26.9018 53.5859 26.6569 54.5779 26.3335 55.5454C26.3084 55.6208 26.2629 55.6878 26.2022 55.7391C26.1414 55.7903 26.0676 55.8238 25.9891 55.8358ZM27.711 56.7645C27.6226 56.8587 27.5331 56.9516 27.4412 57.0435C27.2813 57.2034 27.1179 57.3565 26.9511 57.5027C26.9288 57.5228 26.9003 57.5346 26.8704 57.536C26.8404 57.5375 26.8109 57.5285 26.7868 57.5107C26.7627 57.4928 26.7456 57.4671 26.7382 57.4381C26.7309 57.409 26.7339 57.3783 26.7467 57.3511L26.7972 57.2363C26.8676 57.0833 26.9354 56.9249 27.0004 56.7611C27.0084 56.7424 27.0205 56.7258 27.0358 56.7125C27.0511 56.6992 27.0692 56.6895 27.0888 56.6842C27.2553 56.6428 27.4171 56.5958 27.5744 56.5453C27.6033 56.5308 27.6366 56.5276 27.6677 56.5363C27.6988 56.5451 27.7256 56.5652 27.7427 56.5926C27.7598 56.6201 27.766 56.6529 27.7601 56.6847C27.7543 56.7165 27.7368 56.745 27.711 56.7645ZM30.0644 53.0508C30.0081 53.1943 29.9496 53.3355 29.8864 53.4767C29.8773 53.4962 29.8681 53.5158 29.8577 53.5353C29.472 54.278 28.8246 54.8635 27.959 55.271C27.9157 55.2905 27.8678 55.2973 27.8208 55.2907C27.7738 55.284 27.7297 55.2641 27.6936 55.2333C27.6575 55.2025 27.6309 55.162 27.6169 55.1167C27.6029 55.0713 27.6021 55.0229 27.6146 54.9771C27.9134 53.8904 28.1291 52.7824 28.2598 51.6629C28.2866 51.4449 28.3938 51.2447 28.5605 51.1016C28.9164 50.7928 29.2493 50.4851 29.5547 50.1832C29.5889 50.1487 29.6314 50.1237 29.6781 50.1105C29.7248 50.0973 29.7742 50.0965 29.8213 50.108C29.8685 50.1196 29.9119 50.1432 29.9472 50.1765C29.9825 50.2097 30.0087 50.2516 30.023 50.298C30.325 51.299 30.3422 52.2346 30.0655 53.0508H30.0644ZM30.294 47.5658C30.2738 47.6017 30.2447 47.6317 30.2096 47.653C30.1744 47.6743 30.1343 47.6862 30.0932 47.6875C30.0521 47.6887 30.0113 47.6794 29.9749 47.6603C29.9385 47.6412 29.9076 47.613 29.8853 47.5784L29.8405 47.5084C29.4788 46.9554 29.0779 46.429 28.6409 45.9334C28.6165 45.9051 28.6008 45.8705 28.5955 45.8336C28.5902 45.7966 28.5956 45.759 28.6111 45.725C28.6266 45.6911 28.6514 45.6623 28.6827 45.6421C28.7141 45.6218 28.7505 45.611 28.7878 45.6108C29.8371 45.6108 30.387 45.8702 30.5546 46.1848C30.7038 46.4511 30.6613 46.9137 30.2997 47.5635L30.294 47.5658ZM30.8599 49.1133C30.8595 49.1301 30.8533 49.1462 30.8424 49.159C30.8314 49.1717 30.8165 49.1804 30.8 49.1835C30.7835 49.1866 30.7664 49.1839 30.7516 49.1759C30.7368 49.168 30.7252 49.1552 30.7187 49.1397C30.7061 49.1087 30.6923 49.0765 30.6785 49.0455C30.666 49.0171 30.6612 48.9859 30.6646 48.9551C30.668 48.9242 30.6796 48.8948 30.6981 48.8699L30.7405 48.8136C30.7922 48.7471 30.8657 48.7574 30.8657 48.8309C30.8714 48.9284 30.8691 49.0134 30.8657 49.1133H30.8599ZM68.013 46.3444H72.4143C72.5075 46.3441 72.5996 46.324 72.6845 46.2856C72.7694 46.2471 72.8452 46.1912 72.9069 46.1213C72.9686 46.0515 73.0148 45.9694 73.0425 45.8804C73.0702 45.7914 73.0787 45.6976 73.0675 45.6051C73.0442 45.4444 72.9634 45.2977 72.8401 45.1922C72.7168 45.0866 72.5594 45.0294 72.3971 45.0311H66.9316C66.7573 45.0317 66.5904 45.1012 66.4672 45.2244C66.3439 45.3476 66.2744 45.5146 66.2738 45.6889V52.2702C66.2744 52.4445 66.3439 52.6114 66.4672 52.7347C66.5904 52.8579 66.7573 52.9274 66.9316 52.928H72.4201C72.5132 52.9277 72.6051 52.9077 72.6899 52.8693C72.7747 52.8309 72.8505 52.7751 72.9122 52.7053C72.9738 52.6356 73.0201 52.5537 73.0479 52.4648C73.0756 52.376 73.0843 52.2823 73.0733 52.1898C73.0499 52.0292 72.9691 51.8825 72.8458 51.777C72.7226 51.6714 72.5652 51.6142 72.4029 51.6159H68.0187C67.9052 51.6159 67.7963 51.5707 67.716 51.4904C67.6357 51.4101 67.5905 51.3012 67.5905 51.1877V50.0684C67.5905 49.9548 67.6357 49.8459 67.716 49.7656C67.7963 49.6853 67.9052 49.6402 68.0187 49.6402H71.3226C71.4157 49.6399 71.5077 49.6199 71.5925 49.5815C71.6773 49.5431 71.753 49.4873 71.8147 49.4175C71.8764 49.3478 71.9226 49.2659 71.9504 49.177C71.9782 49.0882 71.9868 48.9945 71.9758 48.902C71.9525 48.7414 71.8717 48.5947 71.7484 48.4892C71.6251 48.3836 71.4677 48.3264 71.3054 48.3281H68.0187C67.9052 48.3281 67.7963 48.2829 67.716 48.2026C67.6357 48.1223 67.5905 48.0134 67.5905 47.8999V46.7806C67.5895 46.7237 67.5998 46.6671 67.6208 46.6142C67.6418 46.5614 67.6732 46.5132 67.7131 46.4726C67.753 46.432 67.8005 46.3997 67.853 46.3777C67.9055 46.3557 67.9618 46.3443 68.0187 46.3444H68.013ZM81.4661 48.902C80.8623 48.5175 80.0495 48.32 79.029 48.32C77.679 48.32 76.9982 47.9905 76.9982 47.3316C76.9982 46.6727 77.679 46.3444 79.029 46.3444C79.7644 46.3424 80.4931 46.4836 81.1745 46.7599C81.5706 46.8805 81.845 46.7381 81.9976 46.3535C82.1297 46.0091 81.954 45.6843 81.5924 45.5201C80.7833 45.1799 79.9123 45.0118 79.0347 45.0265C78.036 45.0265 77.2347 45.2343 76.609 45.6406C76.3215 45.8173 76.0853 46.0664 75.9242 46.3629C75.763 46.6594 75.6825 46.9931 75.6907 47.3305C75.6907 48.0881 75.9983 48.6701 76.6022 49.0524C77.206 49.4347 78.0176 49.6344 79.0382 49.6344C80.3882 49.6344 81.0689 49.9639 81.0689 50.6229C81.0689 51.2818 80.3882 51.6101 79.0382 51.6101H78.7087C77.9797 51.5994 77.2585 51.4583 76.5792 51.1934C76.4986 51.1631 76.4128 51.1494 76.3269 51.153C76.2409 51.1566 76.1565 51.1774 76.0788 51.2142C76.001 51.2511 75.9315 51.3032 75.8743 51.3674C75.8171 51.4317 75.7734 51.5068 75.7458 51.5883C75.6868 51.7558 75.6964 51.9398 75.7725 52.1002C75.8486 52.2607 75.9851 52.3845 76.1521 52.4447C76.9632 52.7757 77.8328 52.9396 78.7087 52.9268H79.0382C80.0369 52.9268 80.8382 52.7191 81.4489 52.3127C81.7402 52.1389 81.9801 51.8909 82.1441 51.594C82.3081 51.2971 82.3903 50.9619 82.3822 50.6229C82.3822 49.8675 82.0746 49.2855 81.4719 48.902H81.4661ZM94.6426 45.0276C94.4681 45.0279 94.3009 45.0973 94.1774 45.2206C94.0539 45.3438 93.9843 45.5109 93.9837 45.6854V52.2702C93.9908 52.4401 94.0632 52.6006 94.1859 52.7183C94.3086 52.8359 94.472 52.9016 94.642 52.9016C94.812 52.9016 94.9754 52.8359 95.0981 52.7183C95.2208 52.6006 95.2933 52.4401 95.3004 52.2702V45.6854C95.2998 45.5121 95.2311 45.346 95.1091 45.223C94.9871 45.0999 94.8216 45.0297 94.6483 45.0276H94.6426ZM91.1619 45.0276H84.6001C84.507 45.0278 84.4149 45.0476 84.33 45.0859C84.2451 45.1243 84.1693 45.1801 84.1076 45.2499C84.0459 45.3196 83.9996 45.4017 83.9719 45.4906C83.9442 45.5795 83.9357 45.6733 83.9469 45.7658C83.9698 45.9266 84.0505 46.0736 84.1739 46.1792C84.2972 46.2849 84.4549 46.3419 84.6173 46.3398H86.8054C86.9192 46.3398 87.0284 46.385 87.109 46.4655C87.1895 46.546 87.2347 46.6552 87.2347 46.7691V52.2702C87.235 52.3633 87.255 52.4552 87.2934 52.5401C87.3318 52.6249 87.3876 52.7006 87.4574 52.7623C87.5271 52.824 87.609 52.8702 87.6979 52.898C87.7867 52.9257 87.8804 52.9344 87.9729 52.9234C88.1337 52.9 88.2805 52.8191 88.3861 52.6955C88.4917 52.572 88.5488 52.4143 88.5468 52.2518V46.7737C88.5467 46.7173 88.5577 46.6614 88.5792 46.6092C88.6007 46.5571 88.6324 46.5097 88.6723 46.4698C88.7122 46.4299 88.7595 46.3982 88.8117 46.3767C88.8639 46.3552 88.9198 46.3442 88.9762 46.3444H91.1803C91.2735 46.344 91.3656 46.324 91.4506 46.2856C91.5355 46.2471 91.6114 46.1912 91.6732 46.1214C91.735 46.0516 91.7813 45.9695 91.8091 45.8805C91.837 45.7915 91.8457 45.6976 91.8346 45.6051C91.8121 45.4444 91.7322 45.2974 91.6095 45.1912C91.4869 45.085 91.3299 45.0269 91.1677 45.0276H91.1619ZM63.4578 51.6124H59.076C58.962 51.6124 58.8527 51.5672 58.772 51.4867C58.6913 51.4062 58.6458 51.297 58.6455 51.1831V45.7026C58.6472 45.5403 58.59 45.3829 58.4844 45.2597C58.3788 45.1364 58.2321 45.0556 58.0715 45.0322C57.979 45.021 57.8852 45.0296 57.7962 45.0573C57.7072 45.0849 57.6251 45.1312 57.5553 45.1929C57.4854 45.2546 57.4294 45.3304 57.391 45.4153C57.3526 45.5001 57.3325 45.5922 57.3322 45.6854V52.2702C57.3328 52.4447 57.4025 52.6118 57.526 52.7351C57.6495 52.8583 57.8167 52.9277 57.9912 52.928H63.4785C63.5716 52.9279 63.6637 52.908 63.7486 52.8697C63.8335 52.8314 63.9093 52.7755 63.971 52.7057C64.0327 52.636 64.079 52.5539 64.1067 52.465C64.1344 52.3761 64.1429 52.2823 64.1317 52.1898C64.1095 52.0278 64.0287 51.8795 63.9045 51.7731C63.7803 51.6667 63.6214 51.6095 63.4578 51.6124ZM41.9987 46.3444C42.345 46.3382 42.6887 46.4044 43.0079 46.5386C43.3271 46.6728 43.6149 46.8721 43.8527 47.1238C43.9466 47.2139 44.0647 47.2747 44.1926 47.2986C44.3205 47.3225 44.4526 47.3086 44.5727 47.2585C44.6928 47.2084 44.7956 47.1243 44.8686 47.0165C44.9416 46.9088 44.9815 46.7821 44.9835 46.652C44.9795 46.5494 44.9528 46.4489 44.9054 46.3578C44.8579 46.2667 44.7909 46.1872 44.7091 46.1251C44.1463 45.5927 43.4391 45.2381 42.6758 45.1054C41.9126 44.9728 41.1272 45.068 40.4177 45.3792C39.7083 45.6904 39.1063 46.2038 38.687 46.8553C38.2678 47.5067 38.0498 48.2672 38.0603 49.0418C38.0709 49.8165 38.3095 50.5708 38.7463 51.2106C39.1832 51.8503 39.7989 52.3472 40.5165 52.639C41.2342 52.9308 42.0219 53.0046 42.7812 52.8512C43.5406 52.6978 44.2379 52.324 44.786 51.7766C44.9014 51.6512 44.9639 51.486 44.9603 51.3157C44.9568 51.1453 44.8874 50.9829 44.7669 50.8624C44.6463 50.742 44.4838 50.6729 44.3134 50.6695C44.143 50.6662 43.9779 50.7288 43.8527 50.8444C43.6128 51.0927 43.3245 51.289 43.0055 51.4211C42.6866 51.5532 42.3439 51.6184 41.9987 51.6124C41.6523 51.6141 41.3089 51.5471 40.9885 51.4153C40.6681 51.2835 40.377 51.0895 40.132 50.8445C39.8871 50.5995 39.6931 50.3084 39.5613 49.988C39.4295 49.6676 39.3624 49.3243 39.3641 48.9778C39.3582 48.6326 39.4233 48.2899 39.5554 47.971C39.6875 47.652 39.8838 47.3637 40.1321 47.1238C40.3738 46.8737 40.664 46.6755 40.985 46.5414C41.3059 46.4074 41.6509 46.3403 41.9987 46.3444ZM49.5754 46.3444H53.9756C54.0688 46.344 54.1609 46.324 54.2458 46.2856C54.3308 46.2471 54.4066 46.1912 54.4684 46.1214C54.5302 46.0516 54.5766 45.9695 54.6044 45.8805C54.6322 45.7915 54.6409 45.6976 54.6299 45.6051C54.6065 45.4442 54.5256 45.2974 54.402 45.1918C54.2785 45.0862 54.1208 45.0291 53.9583 45.0311H48.4825C48.3081 45.0317 48.141 45.1011 48.0176 45.2243C47.8942 45.3475 47.8245 45.5145 47.8236 45.6889V52.2702C47.8245 52.4446 47.8942 52.6115 48.0176 52.7347C48.141 52.8579 48.3081 52.9274 48.4825 52.928H53.9698C54.063 52.9278 54.1551 52.908 54.24 52.8697C54.325 52.8314 54.4008 52.7755 54.4627 52.7058C54.5245 52.636 54.5708 52.554 54.5987 52.4651C54.6265 52.3762 54.6352 52.2824 54.6242 52.1898C54.6008 52.029 54.5198 51.8822 54.3963 51.7766C54.2728 51.671 54.1151 51.6139 53.9526 51.6159H49.5696C49.5133 51.6159 49.4575 51.6047 49.4055 51.5831C49.3535 51.5616 49.3062 51.5299 49.2664 51.49C49.2267 51.4502 49.1951 51.4028 49.1737 51.3507C49.1522 51.2986 49.1413 51.2428 49.1414 51.1865V50.0661C49.1413 50.0098 49.1522 49.954 49.1737 49.9019C49.1951 49.8498 49.2267 49.8025 49.2664 49.7626C49.3062 49.7227 49.3535 49.691 49.4055 49.6694C49.4575 49.6479 49.5133 49.6367 49.5696 49.6367H52.8724C52.9655 49.6366 53.0576 49.6167 53.1426 49.5784C53.2275 49.5401 53.3034 49.4843 53.3652 49.4145C53.427 49.3448 53.4734 49.2628 53.5012 49.1739C53.529 49.0849 53.5377 48.9911 53.5267 48.8986C53.5033 48.7378 53.4224 48.5909 53.2988 48.4853C53.1753 48.3798 53.0176 48.3226 52.8551 48.3246H49.5696C49.5133 48.3246 49.4575 48.3135 49.4055 48.2919C49.3535 48.2703 49.3062 48.2387 49.2664 48.1988C49.2267 48.1589 49.1951 48.1116 49.1737 48.0595C49.1522 48.0074 49.1413 47.9516 49.1414 47.8953V46.7783C49.1407 46.7216 49.1512 46.6653 49.1724 46.6127C49.1935 46.56 49.225 46.5122 49.2648 46.4718C49.3046 46.4314 49.3521 46.3994 49.4044 46.3775C49.4568 46.3556 49.5129 46.3443 49.5696 46.3444H49.5754Z" fill="#9CA1AA"/>
</svg>
