<svg width="16" height="16" viewBox="0 0 16 16" fill="none" xmlns="http://www.w3.org/2000/svg">
<g clip-path="url(#clip0_1_468)">
<path d="M15.1724 16C15.3832 16 15.5939 15.9199 15.7541 15.7585C16.0755 15.4371 16.0755 14.9159 15.7541 14.5944L1.40073 0.241098C1.07927 -0.0803659 0.558096 -0.0803659 0.236633 0.241098C-0.0848301 0.562561 -0.0848301 1.08373 0.236633 1.4054L14.5898 15.7585C14.7511 15.9189 14.9619 16 15.1724 16V16Z" fill="#E0ECFF"/>
<path d="M0.81808 16C1.02884 16 1.2394 15.9199 1.39973 15.7585L15.7541 1.4054C16.0755 1.08373 16.0755 0.562561 15.7541 0.241098C15.4326 -0.0803659 14.9114 -0.0803659 14.5898 0.241098L0.236634 14.5944C-0.0848291 14.9159 -0.0848291 15.4371 0.236634 15.7585C0.397968 15.9189 0.608527 16 0.81808 16Z" fill="#E0ECFF"/>
</g>
<defs>
<clipPath id="clip0_1_468">
<rect width="16" height="16" fill="white" transform="matrix(-1 0 0 1 16 0)"/>
</clipPath>
</defs>
</svg>
