<svg width="68" height="16" viewBox="0 0 68 16" fill="none" xmlns="http://www.w3.org/2000/svg">
<path d="M0 6.18182C0 2.76769 2.76769 0 6.18182 0H60C64.4183 0 68 3.58172 68 8V8C68 12.4183 64.4183 16 60 16H0V6.18182Z" fill="#0A172B" fill-opacity="0.5"/>
<path d="M9.07 12.08C8.57 12.08 8.13 11.9833 7.75 11.79C7.37 11.59 7.07667 11.3133 6.87 10.96C6.66333 10.6067 6.56 10.1967 6.56 9.73V7.26C6.56 6.79333 6.66333 6.38333 6.87 6.03C7.07667 5.67667 7.37 5.40333 7.75 5.21C8.13 5.01667 8.57 4.92 9.07 4.92C9.56333 4.92 10 5.01333 10.38 5.2C10.76 5.38667 11.0533 5.65 11.26 5.99C11.4667 6.33 11.57 6.72333 11.57 7.17C11.57 7.23667 11.52 7.27667 11.42 7.29L10.57 7.34H10.53C10.45 7.34 10.41 7.32333 10.41 7.29V7.23C10.41 6.83667 10.2867 6.52 10.04 6.28C9.8 6.04 9.47667 5.92 9.07 5.92C8.66333 5.92 8.33667 6.04 8.09 6.28C7.84333 6.52 7.72 6.83667 7.72 7.23V9.78C7.72 10.1667 7.84333 10.48 8.09 10.72C8.33667 10.96 8.66333 11.08 9.07 11.08C9.47667 11.08 9.8 10.9633 10.04 10.73C10.2867 10.49 10.41 10.1733 10.41 9.78C10.41 9.74667 10.4233 9.72 10.45 9.7C10.4833 9.67333 10.5233 9.66333 10.57 9.67L11.41 9.71C11.5167 9.72333 11.57 9.74 11.57 9.76V9.81C11.57 10.2633 11.4667 10.6633 11.26 11.01C11.0533 11.35 10.76 11.6133 10.38 11.8C10 11.9867 9.56333 12.08 9.07 12.08ZM12.974 12C12.8673 12 12.814 11.9467 12.814 11.84V5.16C12.814 5.05333 12.8673 5 12.974 5H13.814C13.9207 5 13.974 5.05333 13.974 5.16V10.94C13.974 10.98 13.994 11 14.034 11H17.334C17.4407 11 17.494 11.0533 17.494 11.16V11.84C17.494 11.9467 17.4407 12 17.334 12H12.974ZM20.8383 12.1C20.3383 12.1 19.8949 12 19.5083 11.8C19.1216 11.5933 18.8216 11.3033 18.6083 10.93C18.4016 10.5567 18.2983 10.1267 18.2983 9.64V7.36C18.2983 6.88 18.4049 6.45667 18.6183 6.09C18.8316 5.71667 19.1283 5.43 19.5083 5.23C19.8949 5.02333 20.3383 4.92 20.8383 4.92C21.3449 4.92 21.7883 5.02333 22.1683 5.23C22.5549 5.43 22.8549 5.71667 23.0683 6.09C23.2816 6.45667 23.3883 6.88 23.3883 7.36V9.64C23.3883 10.1267 23.2816 10.5567 23.0683 10.93C22.8549 11.3033 22.5549 11.5933 22.1683 11.8C21.7883 12 21.3449 12.1 20.8383 12.1ZM20.8383 11.1C21.2583 11.1 21.5949 10.97 21.8483 10.71C22.1016 10.45 22.2283 10.1067 22.2283 9.68V7.35C22.2283 6.91667 22.1016 6.57 21.8483 6.31C21.5949 6.05 21.2583 5.92 20.8383 5.92C20.4249 5.92 20.0916 6.05 19.8383 6.31C19.5849 6.57 19.4583 6.91667 19.4583 7.35V9.68C19.4583 10.1067 19.5849 10.45 19.8383 10.71C20.0916 10.97 20.4249 11.1 20.8383 11.1ZM26.9292 12.08C26.4226 12.08 25.9759 11.9967 25.5892 11.83C25.2092 11.6633 24.9159 11.43 24.7092 11.13C24.5026 10.8233 24.3992 10.47 24.3992 10.07V9.86C24.3992 9.75333 24.4526 9.7 24.5592 9.7H25.3792C25.4859 9.7 25.5392 9.75 25.5392 9.85V10.01C25.5392 10.3167 25.6726 10.5733 25.9392 10.78C26.2126 10.98 26.5726 11.08 27.0192 11.08C27.4259 11.08 27.7326 10.9933 27.9392 10.82C28.1459 10.6467 28.2492 10.4233 28.2492 10.15C28.2492 9.96333 28.1926 9.80667 28.0792 9.68C27.9659 9.54667 27.8026 9.42667 27.5892 9.32C27.3826 9.21333 27.0692 9.08 26.6492 8.92C26.1759 8.74667 25.7926 8.58333 25.4992 8.43C25.2059 8.27667 24.9592 8.07 24.7592 7.81C24.5659 7.54333 24.4692 7.21333 24.4692 6.82C24.4692 6.23333 24.6826 5.77 25.1092 5.43C25.5359 5.09 26.1059 4.92 26.8192 4.92C27.3192 4.92 27.7592 5.00667 28.1392 5.18C28.5259 5.35333 28.8259 5.59667 29.0392 5.91C29.2526 6.21667 29.3592 6.57333 29.3592 6.98V7.11C29.3592 7.21667 29.3059 7.27 29.1992 7.27H28.3792C28.3326 7.27 28.2926 7.26 28.2592 7.24C28.2326 7.21333 28.2192 7.18333 28.2192 7.15V7.04C28.2192 6.72667 28.0892 6.46333 27.8292 6.25C27.5759 6.03 27.2226 5.92 26.7692 5.92C26.4026 5.92 26.1159 5.99667 25.9092 6.15C25.7092 6.30333 25.6092 6.52 25.6092 6.8C25.6092 7 25.6626 7.16333 25.7692 7.29C25.8759 7.41667 26.0359 7.53333 26.2492 7.64C26.4626 7.74 26.7926 7.87 27.2392 8.03C27.7126 8.21 28.0892 8.37333 28.3692 8.52C28.6559 8.66667 28.8992 8.87333 29.0992 9.14C29.3059 9.4 29.4092 9.72667 29.4092 10.12C29.4092 10.5067 29.3092 10.85 29.1092 11.15C28.9092 11.4433 28.6226 11.6733 28.2492 11.84C27.8759 12 27.4359 12.08 26.9292 12.08ZM35.3177 5.84C35.3177 5.94667 35.2643 6 35.1577 6H31.7977C31.7577 6 31.7377 6.02 31.7377 6.06V7.91C31.7377 7.95 31.7577 7.97 31.7977 7.97H34.0377C34.1443 7.97 34.1977 8.02333 34.1977 8.13V8.81C34.1977 8.91667 34.1443 8.97 34.0377 8.97H31.7977C31.7577 8.97 31.7377 8.99 31.7377 9.03V10.94C31.7377 10.98 31.7577 11 31.7977 11H35.1577C35.2643 11 35.3177 11.0533 35.3177 11.16V11.84C35.3177 11.9467 35.2643 12 35.1577 12H30.7377C30.631 12 30.5777 11.9467 30.5777 11.84V5.16C30.5777 5.05333 30.631 5 30.7377 5H35.1577C35.2643 5 35.3177 5.05333 35.3177 5.16V5.84ZM40.8676 12.1C40.3676 12.1 39.9242 12 39.5376 11.8C39.1509 11.5933 38.8509 11.3033 38.6376 10.93C38.4309 10.5567 38.3276 10.1267 38.3276 9.64V7.36C38.3276 6.88 38.4342 6.45667 38.6476 6.09C38.8609 5.71667 39.1576 5.43 39.5376 5.23C39.9242 5.02333 40.3676 4.92 40.8676 4.92C41.3742 4.92 41.8176 5.02333 42.1976 5.23C42.5842 5.43 42.8842 5.71667 43.0976 6.09C43.3109 6.45667 43.4176 6.88 43.4176 7.36V9.64C43.4176 10.1267 43.3109 10.5567 43.0976 10.93C42.8842 11.3033 42.5842 11.5933 42.1976 11.8C41.8176 12 41.3742 12.1 40.8676 12.1ZM40.8676 11.1C41.2876 11.1 41.6242 10.97 41.8776 10.71C42.1309 10.45 42.2576 10.1067 42.2576 9.68V7.35C42.2576 6.91667 42.1309 6.57 41.8776 6.31C41.6242 6.05 41.2876 5.92 40.8676 5.92C40.4542 5.92 40.1209 6.05 39.8676 6.31C39.6142 6.57 39.4876 6.91667 39.4876 7.35V9.68C39.4876 10.1067 39.6142 10.45 39.8676 10.71C40.1209 10.97 40.4542 11.1 40.8676 11.1ZM44.8685 12C44.7618 12 44.7085 11.9467 44.7085 11.84V5.16C44.7085 5.05333 44.7618 5 44.8685 5H45.6685C45.7618 5 45.8285 5.03667 45.8685 5.11L48.6685 9.69C48.6818 9.71667 48.6952 9.72667 48.7085 9.72C48.7285 9.71333 48.7385 9.69667 48.7385 9.67V5.16C48.7385 5.05333 48.7918 5 48.8985 5H49.7385C49.8452 5 49.8985 5.05333 49.8985 5.16V11.84C49.8985 11.9467 49.8452 12 49.7385 12H48.9185C48.8252 12 48.7585 11.9633 48.7185 11.89L45.9185 7.28C45.9052 7.25333 45.8885 7.24333 45.8685 7.25C45.8552 7.25667 45.8485 7.27333 45.8485 7.3L45.8585 11.84C45.8585 11.9467 45.8052 12 45.6985 12H44.8685ZM51.5091 12C51.4025 12 51.3491 11.9467 51.3491 11.84V5.16C51.3491 5.05333 51.4025 5 51.5091 5H52.3491C52.4558 5 52.5091 5.05333 52.5091 5.16V10.94C52.5091 10.98 52.5291 11 52.5691 11H55.8691C55.9758 11 56.0291 11.0533 56.0291 11.16V11.84C56.0291 11.9467 55.9758 12 55.8691 12H51.5091ZM58.4919 11.99C58.3852 11.99 58.3319 11.9367 58.3319 11.83V9.2C58.3319 9.18 58.3252 9.15667 58.3119 9.13L56.2919 5.19C56.2719 5.15667 56.2619 5.12667 56.2619 5.1C56.2619 5.03333 56.3085 5 56.4019 5H57.3119C57.3985 5 57.4619 5.04 57.5019 5.12L58.8719 7.87C58.8852 7.89 58.8985 7.9 58.9119 7.9C58.9319 7.9 58.9452 7.89 58.9519 7.87L60.3319 5.12C60.3719 5.04 60.4352 5 60.5219 5H61.4419C61.5352 5 61.5819 5.03333 61.5819 5.1C61.5819 5.12667 61.5719 5.15667 61.5519 5.19L59.5119 9.13C59.4985 9.17 59.4919 9.19333 59.4919 9.2V11.83C59.4919 11.9367 59.4385 11.99 59.3319 11.99H58.4919Z" fill="#93A1B8"/>
</svg>
