<svg width="10" height="10" viewBox="0 0 10 10" fill="none" xmlns="http://www.w3.org/2000/svg">
<path d="M0.127871 0.264164L0.191017 0.191017C0.422553 -0.0405188 0.78487 -0.0615674 1.04018 0.127871L1.11333 0.191017L5 4.07739L8.88667 0.191017C9.14136 -0.0636724 9.55429 -0.0636724 9.80898 0.191017C10.0637 0.445707 10.0637 0.858641 9.80898 1.11333L5.92261 5L9.80898 8.88667C10.0405 9.11821 10.0616 9.48052 9.87213 9.73584L9.80898 9.80898C9.57745 10.0405 9.21513 10.0616 8.95982 9.87213L8.88667 9.80898L5 5.92261L1.11333 9.80898C0.858641 10.0637 0.445707 10.0637 0.191017 9.80898C-0.0636724 9.55429 -0.0636724 9.14136 0.191017 8.88667L4.07739 5L0.191017 1.11333C-0.0405188 0.881795 -0.0615674 0.519478 0.127871 0.264164L0.191017 0.191017L0.127871 0.264164Z" fill="#F1A811"/>
</svg>
