<svg width="7" height="7" viewBox="0 0 7 7" fill="none" xmlns="http://www.w3.org/2000/svg">
<path d="M0.757015 5.43739C0.831607 5.43739 0.903145 5.40763 0.955889 5.35466C1.00863 5.30169 1.03827 5.22984 1.03827 5.15492L1.03827 1.31713L5.80827 6.10778C5.86158 6.15768 5.9321 6.18484 6.00496 6.18355C6.07782 6.18226 6.14734 6.15261 6.19887 6.10086C6.2504 6.04911 6.27992 5.97929 6.28121 5.90611C6.28249 5.83293 6.25545 5.76211 6.20577 5.70856L1.43577 0.917911L5.25702 0.917912C5.33161 0.917912 5.40314 0.888152 5.45589 0.835179C5.50863 0.782206 5.53827 0.710359 5.53827 0.635444C5.53827 0.560529 5.50863 0.488682 5.45589 0.435709C5.40314 0.382736 5.33161 0.352977 5.25702 0.352977L0.757016 0.352976C0.682424 0.352976 0.610886 0.382736 0.558142 0.435709C0.505397 0.488682 0.475766 0.560529 0.475766 0.635444L0.475765 5.15492C0.475765 5.22984 0.505397 5.30169 0.558141 5.35466C0.610886 5.40763 0.682423 5.43739 0.757015 5.43739Z" fill="#CE5E5E"/>
</svg>
