<svg width="38" height="38" viewBox="0 0 38 38" fill="none" xmlns="http://www.w3.org/2000/svg">
<path d="M33.5469 0H16.0312C13.5758 0 11.5781 1.99767 11.5781 4.45312V8.90625H14.5469V4.45312C14.5469 3.63464 15.2128 2.96875 16.0312 2.96875H33.5469C34.3654 2.96875 35.0312 3.63464 35.0312 4.45312V21.6719C35.0312 22.4904 34.3654 23.1562 33.5469 23.1562H29.3906V26.125H33.5469C36.0023 26.125 38 24.1273 38 21.6719V4.45312C38 1.99767 36.0023 0 33.5469 0ZM21.9688 11.875H4.45312C1.99767 11.875 0 13.8727 0 16.3281V33.5469C0 36.0023 1.99767 38 4.45312 38H21.9688C24.4242 38 26.4219 36.0023 26.4219 33.5469V16.3281C26.4219 13.8727 24.4242 11.875 21.9688 11.875ZM23.4531 33.5469C23.4531 34.3654 22.7872 35.0312 21.9688 35.0312H4.45312C3.63464 35.0312 2.96875 34.3654 2.96875 33.5469V16.3281C2.96875 15.5096 3.63464 14.8438 4.45312 14.8438H21.9688C22.7872 14.8438 23.4531 15.5096 23.4531 16.3281V33.5469Z" fill="#93A1B8"/>
</svg>