<svg width="14" height="14" viewBox="0 0 14 14" fill="none" xmlns="http://www.w3.org/2000/svg">
<path fill-rule="evenodd" clip-rule="evenodd" d="M10.3532 4.64639C10.447 4.74016 10.4996 4.86731 10.4996 4.99989C10.4996 5.13248 10.447 5.25963 10.3532 5.35339L6.35322 9.35339C6.25945 9.44713 6.1323 9.49979 5.99972 9.49979C5.86713 9.49979 5.73998 9.44713 5.64622 9.35339L3.64622 7.35339C3.55514 7.25909 3.50474 7.13279 3.50588 7.00169C3.50702 6.87059 3.5596 6.74519 3.65231 6.65248C3.74501 6.55978 3.87042 6.5072 4.00151 6.50606C4.13261 6.50492 4.25891 6.55531 4.35322 6.64639L5.99972 8.29289L9.64622 4.64639C9.73998 4.55266 9.86713 4.5 9.99972 4.5C10.1323 4.5 10.2595 4.55266 10.3532 4.64639Z" fill="#E0ECFF"/>
<circle cx="7" cy="7" r="6.5" stroke="#93A1B8"/>
</svg>
