<svg width="30" height="30" viewBox="0 0 30 30" fill="none" xmlns="http://www.w3.org/2000/svg">
<path d="M15 0C23.285 0 30 6.71632 30 15C30 23.285 23.285 30 15 30C6.71632 30 0 23.2844 0 15C0 6.71632 6.71632 0 15 0Z" fill="#F5AC37"/>
<path d="M15.5528 16.059H21.2526C21.3741 16.059 21.4314 16.059 21.4402 15.8997C21.4868 15.3198 21.4868 14.7366 21.4402 14.1561C21.4402 14.0434 21.3842 13.9968 21.262 13.9968H9.91853C9.77812 13.9968 9.74032 14.0434 9.74032 14.175V15.8436C9.74032 16.059 9.74032 16.059 9.9651 16.059H15.5528ZM20.8037 12.0467C20.8199 12.0042 20.8199 11.9576 20.8037 11.9158C20.7085 11.7085 20.5958 11.5108 20.4648 11.3251C20.2677 11.0079 20.0355 10.7156 19.7709 10.453C19.646 10.2944 19.5016 10.152 19.3396 10.0312C18.5282 9.34062 17.5637 8.85192 16.5268 8.60622C16.0037 8.48876 15.4691 8.43274 14.9332 8.43746H9.89895C9.75855 8.43746 9.73965 8.49349 9.73965 8.61567V11.9434C9.73965 12.0839 9.73965 12.1217 9.91785 12.1217H20.7362C20.7362 12.1217 20.83 12.1028 20.8489 12.0467H20.803H20.8037ZM20.8037 18.0091C20.6444 17.9915 20.4837 17.9915 20.3244 18.0091H9.92798C9.78757 18.0091 9.74032 18.0091 9.74032 18.1967V21.4502C9.74032 21.6001 9.74032 21.6379 9.92798 21.6379H14.7279C14.9575 21.6554 15.187 21.6392 15.4117 21.5913C16.1083 21.5414 16.7935 21.3902 17.4469 21.1411C17.6845 21.0587 17.914 20.9514 18.1307 20.8225H18.1961C19.3214 20.2373 20.2353 19.3179 20.8118 18.1893C20.8118 18.1893 20.8773 18.0475 20.8037 18.0104V18.0091ZM7.85638 23.3247V23.2687V21.0844V20.3439V18.1407C7.85638 18.0185 7.85638 18.0003 7.70653 18.0003H5.67206C5.55933 18.0003 5.51276 18.0003 5.51276 17.8504V16.0691H7.68763C7.80913 16.0691 7.85638 16.0691 7.85638 15.9098V14.1473C7.85638 14.0346 7.85638 14.0069 7.70653 14.0069H5.67206C5.55933 14.0069 5.51276 14.0069 5.51276 13.8571V12.2074C5.51276 12.1041 5.51276 12.0764 5.66261 12.0764H7.67818C7.81858 12.0764 7.85638 12.0764 7.85638 11.8982V6.84512C7.85638 6.69527 7.85638 6.65747 8.04403 6.65747H15.0749C15.5852 6.67772 16.0921 6.73375 16.5937 6.82622C17.6271 7.01725 18.62 7.38648 19.5279 7.91366C20.13 8.26804 20.6842 8.69599 21.1776 9.18875C21.5489 9.57418 21.8837 9.99133 22.1807 10.4355C22.4757 10.8857 22.7207 11.367 22.9131 11.8699C22.9367 12.0008 23.0623 12.0893 23.1932 12.067H24.8713C25.0866 12.067 25.0866 12.067 25.0961 12.2735V13.8112C25.0961 13.961 25.04 13.9988 24.8895 13.9988H23.5955C23.4646 13.9988 23.4268 13.9988 23.4362 14.1676C23.4875 14.7387 23.4875 15.3117 23.4362 15.8828C23.4362 16.0421 23.4362 16.061 23.6151 16.061H25.0954C25.1609 16.1454 25.0954 16.2297 25.0954 16.3148C25.1048 16.4235 25.1048 16.5335 25.0954 16.6422V17.7769C25.0954 17.9362 25.0488 17.9834 24.9077 17.9834H23.1358C23.0123 17.9598 22.8922 18.0388 22.8638 18.1616C22.4419 19.2585 21.7669 20.242 20.8948 21.0304C20.5762 21.3173 20.2414 21.5873 19.8918 21.8363C19.5164 22.0524 19.1513 22.2771 18.7665 22.4553C18.0584 22.7739 17.3159 23.0088 16.5538 23.158C15.8302 23.2876 15.0965 23.3463 14.3601 23.3362H7.85368V23.3268L7.85638 23.3247Z" fill="#FEFEFD"/>
</svg>
