<svg width="17" height="16" viewBox="0 0 17 16" fill="none" xmlns="http://www.w3.org/2000/svg">
<path d="M14.0562 2.33613C12.6109 0.890755 10.6109 0 8.39246 0H4.02277V3.63025H0.392578V8V15.1092V16H8.39246C10.5941 16 12.6109 15.1092 14.0562 13.6639C15.5016 12.2185 16.3923 10.2185 16.3923 8C16.4092 5.78151 15.5184 3.78151 14.0562 2.33613ZM5.80427 5.39496H8.42607C9.13194 5.39496 9.7874 5.69748 10.258 6.16807C10.7286 6.63866 11.0143 7.27731 11.0143 8C11.0143 8.72269 10.7286 9.36134 10.258 9.83193C9.7874 10.3025 9.14875 10.5882 8.42607 10.605H5.80427V5.39496ZM12.8126 12.3866C11.6865 13.5126 10.1571 14.2017 8.44287 14.2185H2.17406V7.98319V5.39496H4.03959V12.3697H8.32524H8.42607C9.63614 12.3697 10.7118 11.8824 11.5017 11.0924C12.2916 10.3025 12.779 9.21008 12.779 8.01681C12.779 6.80672 12.2916 5.73109 11.5017 4.94117C10.7118 4.15126 9.61933 3.66387 8.42607 3.66387H5.82107V1.79832H8.40927C10.1235 1.79832 11.6865 2.4874 12.8126 3.63025C13.9386 4.7563 14.6445 6.31933 14.6445 8.03362C14.6277 9.71429 13.9386 11.2605 12.8126 12.3866Z" fill="#E0ECFF"/>
<path d="M4.04112 15.9395H5.75537L5.75537 7.62013H4.04112L4.04112 15.9395Z" fill="#E0ECFF"/>
</svg>
