<svg width="26" height="26" viewBox="0 0 26 26" fill="none" xmlns="http://www.w3.org/2000/svg">
<path d="M12.5 15C12.5 15.2761 12.7239 15.5 13 15.5C13.2761 15.5 13.5 15.2761 13.5 15H12.5ZM13 14L13 13.5C12.8674 13.5 12.7402 13.5527 12.6464 13.6464C12.5527 13.7402 12.5 13.8674 12.5 14H13ZM9 10.5C9 10.7761 9.22386 11 9.5 11C9.77614 11 10 10.7761 10 10.5H9ZM24.5 13C24.5 19.3513 19.3513 24.5 13 24.5V25.5C19.9036 25.5 25.5 19.9036 25.5 13H24.5ZM13 24.5C6.64873 24.5 1.5 19.3513 1.5 13H0.5C0.5 19.9036 6.09644 25.5 13 25.5V24.5ZM1.5 13C1.5 6.64873 6.64873 1.5 13 1.5V0.5C6.09644 0.5 0.5 6.09644 0.5 13H1.5ZM13 1.5C19.3513 1.5 24.5 6.64873 24.5 13H25.5C25.5 6.09644 19.9036 0.5 13 0.5V1.5ZM13.5 19.5C13.5 19.7761 13.2761 20 13 20V21C13.8284 21 14.5 20.3284 14.5 19.5H13.5ZM13 20C12.7239 20 12.5 19.7761 12.5 19.5H11.5C11.5 20.3284 12.1716 21 13 21V20ZM12.5 19.5C12.5 19.2239 12.7239 19 13 19V18C12.1716 18 11.5 18.6716 11.5 19.5H12.5ZM13 19C13.2761 19 13.5 19.2239 13.5 19.5H14.5C14.5 18.6716 13.8284 18 13 18V19ZM13.5 15V14H12.5V15H13.5ZM13 14.5C13.7911 14.5 14.5645 14.2654 15.2223 13.8259L14.6667 12.9944C14.1734 13.3241 13.5933 13.5 13 13.5L13 14.5ZM15.2223 13.8259C15.8801 13.3864 16.3928 12.7616 16.6955 12.0307L15.7716 11.648C15.5446 12.1962 15.1601 12.6648 14.6667 12.9944L15.2223 13.8259ZM16.6955 12.0307C16.9983 11.2998 17.0775 10.4956 16.9231 9.71964L15.9423 9.91473C16.0581 10.4967 15.9987 11.0999 15.7716 11.648L16.6955 12.0307ZM16.9231 9.71964C16.7688 8.94372 16.3879 8.23099 15.8284 7.67157L15.1213 8.37868C15.5409 8.79823 15.8266 9.33278 15.9423 9.91473L16.9231 9.71964ZM15.8284 7.67157C15.269 7.11216 14.5563 6.7312 13.7804 6.57686L13.5853 7.55764C14.1672 7.6734 14.7018 7.95912 15.1213 8.37868L15.8284 7.67157ZM13.7804 6.57686C13.0044 6.42252 12.2002 6.50173 11.4693 6.80448L11.852 7.72836C12.4001 7.5013 13.0033 7.44189 13.5853 7.55764L13.7804 6.57686ZM11.4693 6.80448C10.7384 7.10723 10.1137 7.61992 9.67412 8.27772L10.5056 8.83329C10.8352 8.33994 11.3038 7.95543 11.852 7.72836L11.4693 6.80448ZM9.67412 8.27772C9.2346 8.93551 9 9.70887 9 10.5H10C10 9.90666 10.1759 9.32664 10.5056 8.83329L9.67412 8.27772Z" fill="#959D9B"/>
</svg>
