<svg width="79" height="16" viewBox="0 0 79 16" fill="none" xmlns="http://www.w3.org/2000/svg">
<path d="M0 8C0 3.58172 3.58172 0 8 0H71C75.4183 0 79 3.58172 79 8V8C79 12.4183 75.4183 16 71 16H8C3.58172 16 0 12.4183 0 8V8Z" fill="#3756CD"/>
<path d="M7.71328 12C7.67995 12 7.64995 11.99 7.62328 11.97C7.60328 11.9433 7.59328 11.9133 7.59328 11.88V5.12C7.59328 5.08667 7.60328 5.06 7.62328 5.04C7.64995 5.01333 7.67995 5 7.71328 5H10.1533C10.6266 5 11.0433 5.08333 11.4033 5.25C11.7633 5.41667 12.0399 5.65667 12.2333 5.97C12.4333 6.27667 12.5333 6.63667 12.5333 7.05V9.95C12.5333 10.3633 12.4333 10.7267 12.2333 11.04C12.0399 11.3467 11.7633 11.5833 11.4033 11.75C11.0433 11.9167 10.6266 12 10.1533 12H7.71328ZM8.75328 10.95C8.75328 10.9833 8.76995 11 8.80328 11H10.2033C10.5566 11 10.8366 10.89 11.0433 10.67C11.2566 10.4433 11.3666 10.1433 11.3733 9.77V7.24C11.3733 6.86 11.2666 6.56 11.0533 6.34C10.8399 6.11333 10.5533 6 10.1933 6H8.80328C8.76995 6 8.75328 6.01667 8.75328 6.05V10.95ZM18.5149 5.88C18.5149 5.91333 18.5016 5.94333 18.4749 5.97C18.4549 5.99 18.4283 6 18.3949 6H14.9849C14.9516 6 14.9349 6.01667 14.9349 6.05V7.92C14.9349 7.95333 14.9516 7.97 14.9849 7.97H17.2749C17.3083 7.97 17.3349 7.98333 17.3549 8.01C17.3816 8.03 17.3949 8.05667 17.3949 8.09V8.85C17.3949 8.88333 17.3816 8.91333 17.3549 8.94C17.3349 8.96 17.3083 8.97 17.2749 8.97H14.9849C14.9516 8.97 14.9349 8.98667 14.9349 9.02V10.95C14.9349 10.9833 14.9516 11 14.9849 11H18.3949C18.4283 11 18.4549 11.0133 18.4749 11.04C18.5016 11.06 18.5149 11.0867 18.5149 11.12V11.88C18.5149 11.9133 18.5016 11.9433 18.4749 11.97C18.4549 11.99 18.4283 12 18.3949 12H13.8949C13.8616 12 13.8316 11.99 13.8049 11.97C13.7849 11.9433 13.7749 11.9133 13.7749 11.88V5.12C13.7749 5.08667 13.7849 5.06 13.8049 5.04C13.8316 5.01333 13.8616 5 13.8949 5H18.3949C18.4283 5 18.4549 5.01333 18.4749 5.04C18.5016 5.06 18.5149 5.08667 18.5149 5.12V5.88ZM23.6229 12C23.5562 12 23.5096 11.97 23.4829 11.91L22.1629 9.03C22.1496 9.00333 22.1296 8.99 22.1029 8.99H20.9029C20.8696 8.99 20.8529 9.00667 20.8529 9.04V11.88C20.8529 11.9133 20.8396 11.9433 20.8129 11.97C20.7929 11.99 20.7662 12 20.7329 12H19.8129C19.7796 12 19.7496 11.99 19.7229 11.97C19.7029 11.9433 19.6929 11.9133 19.6929 11.88V5.12C19.6929 5.08667 19.7029 5.06 19.7229 5.04C19.7496 5.01333 19.7796 5 19.8129 5H22.5629C22.9696 5 23.3296 5.08667 23.6429 5.26C23.9562 5.42667 24.1996 5.66667 24.3729 5.98C24.5462 6.28667 24.6329 6.64 24.6329 7.04C24.6329 7.5 24.5129 7.89333 24.2729 8.22C24.0396 8.54 23.7129 8.76333 23.2929 8.89C23.2796 8.89 23.2696 8.89667 23.2629 8.91C23.2562 8.92333 23.2562 8.93667 23.2629 8.95L24.6729 11.86C24.6862 11.8867 24.6929 11.9067 24.6929 11.92C24.6929 11.9733 24.6562 12 24.5829 12H23.6229ZM20.9029 6C20.8696 6 20.8529 6.01667 20.8529 6.05V8.04C20.8529 8.07333 20.8696 8.09 20.9029 8.09H22.4029C22.7229 8.09 22.9796 7.99667 23.1729 7.81C23.3729 7.61667 23.4729 7.36333 23.4729 7.05C23.4729 6.73667 23.3729 6.48333 23.1729 6.29C22.9796 6.09667 22.7229 6 22.4029 6H20.9029ZM25.9457 12C25.9124 12 25.8824 11.99 25.8557 11.97C25.8357 11.9433 25.8257 11.9133 25.8257 11.88V5.12C25.8257 5.08667 25.8357 5.06 25.8557 5.04C25.8824 5.01333 25.9124 5 25.9457 5H26.8657C26.899 5 26.9257 5.01333 26.9457 5.04C26.9724 5.06 26.9857 5.08667 26.9857 5.12V11.88C26.9857 11.9133 26.9724 11.9433 26.9457 11.97C26.9257 11.99 26.899 12 26.8657 12H25.9457ZM28.1529 9.49C28.1196 9.49 28.0896 9.48 28.0629 9.46C28.0429 9.43333 28.0329 9.40333 28.0329 9.37V8.61C28.0329 8.57667 28.0429 8.55 28.0629 8.53C28.0896 8.50333 28.1196 8.49 28.1529 8.49H31.3029C31.3362 8.49 31.3629 8.50333 31.3829 8.53C31.4096 8.55 31.4229 8.57667 31.4229 8.61V9.37C31.4229 9.40333 31.4096 9.43333 31.3829 9.46C31.3629 9.48 31.3362 9.49 31.3029 9.49H28.1529ZM36.9959 5.08C37.0292 5.02667 37.0759 5 37.1359 5H38.0559C38.0892 5 38.1159 5.01333 38.1359 5.04C38.1625 5.06 38.1759 5.08667 38.1759 5.12V11.88C38.1759 11.9133 38.1625 11.9433 38.1359 11.97C38.1159 11.99 38.0892 12 38.0559 12H37.1359C37.1025 12 37.0725 11.99 37.0459 11.97C37.0259 11.9433 37.0159 11.9133 37.0159 11.88V7.11C37.0159 7.09 37.0059 7.07667 36.9859 7.07C36.9725 7.06333 36.9625 7.07 36.9559 7.09L35.7059 9.01C35.6725 9.06333 35.6259 9.09 35.5659 9.09H35.1059C35.0459 9.09 34.9992 9.06333 34.9659 9.01L33.7059 7.1C33.6992 7.08 33.6859 7.07333 33.6659 7.08C33.6525 7.08667 33.6459 7.1 33.6459 7.12V11.88C33.6459 11.9133 33.6325 11.9433 33.6059 11.97C33.5859 11.99 33.5592 12 33.5259 12H32.6059C32.5725 12 32.5425 11.99 32.5159 11.97C32.4959 11.9433 32.4859 11.9133 32.4859 11.88V5.12C32.4859 5.08667 32.4959 5.06 32.5159 5.04C32.5425 5.01333 32.5725 5 32.6059 5H33.5259C33.5859 5 33.6325 5.02667 33.6659 5.08L35.2959 7.55C35.3092 7.56333 35.3225 7.57 35.3359 7.57C35.3492 7.57 35.3592 7.56333 35.3659 7.55L36.9959 5.08ZM41.4743 6.81C41.8943 6.81 42.2643 6.88333 42.5843 7.03C42.9043 7.17667 43.151 7.38 43.3243 7.64C43.4976 7.89333 43.5843 8.18333 43.5843 8.51V11.88C43.5843 11.9133 43.571 11.9433 43.5443 11.97C43.5243 11.99 43.4976 12 43.4643 12H42.5443C42.511 12 42.481 11.99 42.4543 11.97C42.4343 11.9433 42.4243 11.9133 42.4243 11.88V11.56C42.4243 11.54 42.4176 11.53 42.4043 11.53C42.391 11.5233 42.3776 11.5267 42.3643 11.54C42.0376 11.9 41.5643 12.08 40.9443 12.08C40.4443 12.08 40.031 11.9533 39.7043 11.7C39.3843 11.4467 39.2243 11.07 39.2243 10.57C39.2243 10.05 39.4043 9.64667 39.7643 9.36C40.131 9.06667 40.6443 8.92 41.3043 8.92H42.3743C42.4076 8.92 42.4243 8.90333 42.4243 8.87V8.63C42.4243 8.37 42.3476 8.17 42.1943 8.03C42.041 7.88333 41.811 7.81 41.5043 7.81C41.251 7.81 41.0443 7.85667 40.8843 7.95C40.731 8.03667 40.6343 8.16 40.5943 8.32C40.5743 8.4 40.5276 8.43333 40.4543 8.42L39.4843 8.3C39.451 8.29333 39.421 8.28333 39.3943 8.27C39.3743 8.25 39.3676 8.22667 39.3743 8.2C39.4276 7.79333 39.6443 7.46 40.0243 7.2C40.411 6.94 40.8943 6.81 41.4743 6.81ZM41.2343 11.16C41.561 11.16 41.841 11.0733 42.0743 10.9C42.3076 10.7267 42.4243 10.5067 42.4243 10.24V9.77C42.4243 9.73667 42.4076 9.72 42.3743 9.72H41.5343C41.181 9.72 40.901 9.78667 40.6943 9.92C40.4943 10.0533 40.3943 10.2433 40.3943 10.49C40.3943 10.7033 40.471 10.87 40.6243 10.99C40.7843 11.1033 40.9876 11.16 41.2343 11.16ZM47.1289 6.83C47.3422 6.83 47.5289 6.87333 47.6889 6.96C47.7422 6.98667 47.7622 7.03667 47.7489 7.11L47.5789 8.01C47.5722 8.09 47.5256 8.11333 47.4389 8.08C47.3389 8.04667 47.2222 8.03 47.0889 8.03C47.0022 8.03 46.9356 8.03333 46.8889 8.04C46.6089 8.05333 46.3756 8.15333 46.1889 8.34C46.0022 8.52 45.9089 8.75667 45.9089 9.05V11.88C45.9089 11.9133 45.8956 11.9433 45.8689 11.97C45.8489 11.99 45.8222 12 45.7889 12H44.8689C44.8356 12 44.8056 11.99 44.7789 11.97C44.7589 11.9433 44.7489 11.9133 44.7489 11.88V7.01C44.7489 6.97667 44.7589 6.95 44.7789 6.93C44.8056 6.90333 44.8356 6.89 44.8689 6.89H45.7889C45.8222 6.89 45.8489 6.90333 45.8689 6.93C45.8956 6.95 45.9089 6.97667 45.9089 7.01V7.46C45.9089 7.48667 45.9122 7.50333 45.9189 7.51C45.9322 7.51 45.9456 7.5 45.9589 7.48C46.2389 7.04667 46.6289 6.83 47.1289 6.83ZM51.4531 7.01C51.4531 6.97667 51.4631 6.95 51.4831 6.93C51.5098 6.90333 51.5398 6.89 51.5731 6.89H52.4931C52.5265 6.89 52.5531 6.90333 52.5731 6.93C52.5998 6.95 52.6131 6.97667 52.6131 7.01V11.66C52.6131 12.4933 52.3731 13.0867 51.8931 13.44C51.4198 13.8 50.7965 13.98 50.0231 13.98C49.8165 13.98 49.6131 13.97 49.4131 13.95C49.3398 13.9433 49.3031 13.9 49.3031 13.82L49.3331 13C49.3331 12.9267 49.3798 12.89 49.4731 12.89C49.6665 12.91 49.8398 12.92 49.9931 12.92C50.4931 12.92 50.8598 12.82 51.0931 12.62C51.3331 12.4267 51.4531 12.0967 51.4531 11.63V11.55C51.4531 11.53 51.4465 11.52 51.4331 11.52C51.4198 11.5133 51.4065 11.5167 51.3931 11.53C51.1198 11.8233 50.7331 11.97 50.2331 11.97C49.7998 11.97 49.4031 11.86 49.0431 11.64C48.6831 11.42 48.4331 11.0833 48.2931 10.63C48.2065 10.3167 48.1631 9.91333 48.1631 9.42C48.1631 8.86667 48.2165 8.44333 48.3231 8.15C48.4565 7.74333 48.6865 7.42 49.0131 7.18C49.3398 6.93333 49.7231 6.81 50.1631 6.81C50.6898 6.81 51.0998 6.96333 51.3931 7.27C51.4065 7.29 51.4198 7.29667 51.4331 7.29C51.4465 7.28333 51.4531 7.27 51.4531 7.25V7.01ZM51.3831 10.3C51.4098 10.2 51.4265 10.0933 51.4331 9.98C51.4465 9.86 51.4531 9.67 51.4531 9.41C51.4531 9.15667 51.4465 8.97667 51.4331 8.87C51.4265 8.75667 51.4065 8.64667 51.3731 8.54C51.3198 8.32 51.2098 8.14333 51.0431 8.01C50.8831 7.87667 50.6765 7.81 50.4231 7.81C50.1831 7.81 49.9798 7.87667 49.8131 8.01C49.6465 8.14333 49.5265 8.32 49.4531 8.54C49.3731 8.72667 49.3331 9.02 49.3331 9.42C49.3331 9.83333 49.3665 10.1233 49.4331 10.29C49.4998 10.5033 49.6198 10.68 49.7931 10.82C49.9731 10.9533 50.1865 11.02 50.4331 11.02C50.6931 11.02 50.9031 10.9533 51.0631 10.82C51.2231 10.6867 51.3298 10.5133 51.3831 10.3ZM54.4714 6.19C54.2647 6.19 54.0947 6.12333 53.9614 5.99C53.8281 5.85667 53.7614 5.68667 53.7614 5.48C53.7614 5.27333 53.8281 5.10333 53.9614 4.97C54.0947 4.83667 54.2647 4.77 54.4714 4.77C54.6781 4.77 54.8481 4.83667 54.9814 4.97C55.1147 5.10333 55.1814 5.27333 55.1814 5.48C55.1814 5.68667 55.1147 5.85667 54.9814 5.99C54.8481 6.12333 54.6781 6.19 54.4714 6.19ZM53.9914 12C53.9581 12 53.9281 11.99 53.9014 11.97C53.8814 11.9433 53.8714 11.9133 53.8714 11.88V7C53.8714 6.96667 53.8814 6.94 53.9014 6.92C53.9281 6.89333 53.9581 6.88 53.9914 6.88H54.9114C54.9447 6.88 54.9714 6.89333 54.9914 6.92C55.0181 6.94 55.0314 6.96667 55.0314 7V11.88C55.0314 11.9133 55.0181 11.9433 54.9914 11.97C54.9714 11.99 54.9447 12 54.9114 12H53.9914ZM58.8102 6.81C59.3502 6.81 59.7802 6.97 60.1002 7.29C60.4269 7.61 60.5902 8.04667 60.5902 8.6V11.88C60.5902 11.9133 60.5769 11.9433 60.5502 11.97C60.5302 11.99 60.5036 12 60.4702 12H59.5502C59.5169 12 59.4869 11.99 59.4602 11.97C59.4402 11.9433 59.4302 11.9133 59.4302 11.88V8.84C59.4302 8.53333 59.3436 8.28667 59.1702 8.1C58.9969 7.90667 58.7669 7.81 58.4802 7.81C58.1936 7.81 57.9602 7.90333 57.7802 8.09C57.6069 8.27667 57.5202 8.52333 57.5202 8.83V11.88C57.5202 11.9133 57.5069 11.9433 57.4802 11.97C57.4602 11.99 57.4336 12 57.4002 12H56.4802C56.4469 12 56.4169 11.99 56.3902 11.97C56.3702 11.9433 56.3602 11.9133 56.3602 11.88V7.01C56.3602 6.97667 56.3702 6.95 56.3902 6.93C56.4169 6.90333 56.4469 6.89 56.4802 6.89H57.4002C57.4336 6.89 57.4602 6.90333 57.4802 6.93C57.5069 6.95 57.5202 6.97667 57.5202 7.01V7.33C57.5202 7.35 57.5269 7.36333 57.5402 7.37C57.5536 7.37667 57.5636 7.37 57.5702 7.35C57.8436 6.99 58.2569 6.81 58.8102 6.81ZM66.0706 8.87C66.0973 9.03667 66.1106 9.22333 66.1106 9.43L66.1006 9.74C66.1006 9.82 66.0606 9.86 65.9806 9.86H62.8506C62.8173 9.86 62.8006 9.87667 62.8006 9.91C62.8206 10.13 62.8506 10.28 62.8906 10.36C63.0506 10.84 63.4406 11.0833 64.0606 11.09C64.514 11.09 64.874 10.9033 65.1406 10.53C65.1673 10.49 65.2006 10.47 65.2406 10.47C65.2673 10.47 65.2906 10.48 65.3106 10.5L65.9306 11.01C65.9906 11.0567 66.0006 11.11 65.9606 11.17C65.754 11.4633 65.4773 11.69 65.1306 11.85C64.7906 12.01 64.4106 12.09 63.9906 12.09C63.4706 12.09 63.0273 11.9733 62.6606 11.74C62.3006 11.5067 62.0373 11.18 61.8706 10.76C61.7173 10.4 61.6406 9.9 61.6406 9.26C61.6406 8.87333 61.6806 8.56 61.7606 8.32C61.894 7.85333 62.144 7.48667 62.5106 7.22C62.884 6.94667 63.3306 6.81 63.8506 6.81C65.164 6.81 65.904 7.49667 66.0706 8.87ZM63.8506 7.81C63.604 7.81 63.3973 7.87333 63.2306 8C63.0706 8.12 62.9573 8.29 62.8906 8.51C62.8506 8.62333 62.824 8.77 62.8106 8.95C62.7973 8.98333 62.8106 9 62.8506 9H64.8806C64.914 9 64.9306 8.98333 64.9306 8.95C64.9173 8.78333 64.8973 8.65667 64.8706 8.57C64.8106 8.33 64.6906 8.14333 64.5106 8.01C64.3373 7.87667 64.1173 7.81 63.8506 7.81ZM70.3408 5.12C70.3408 5.08667 70.3508 5.06 70.3708 5.04C70.3974 5.01333 70.4274 5 70.4608 5H71.3808C71.4141 5 71.4408 5.01333 71.4608 5.04C71.4874 5.06 71.5008 5.08667 71.5008 5.12V11.88C71.5008 11.9133 71.4874 11.9433 71.4608 11.97C71.4408 11.99 71.4141 12 71.3808 12H70.4608C70.4274 12 70.3974 11.99 70.3708 11.97C70.3508 11.9433 70.3408 11.9133 70.3408 11.88V11.58C70.3408 11.56 70.3341 11.5467 70.3208 11.54C70.3074 11.5333 70.2941 11.54 70.2808 11.56C69.9874 11.9067 69.6041 12.08 69.1308 12.08C68.6574 12.08 68.2574 11.9567 67.9308 11.71C67.6041 11.4633 67.3674 11.12 67.2208 10.68C67.1008 10.3067 67.0408 9.89 67.0408 9.43C67.0408 8.95667 67.0974 8.55 67.2108 8.21C67.3574 7.77 67.5941 7.42667 67.9208 7.18C68.2474 6.93333 68.6574 6.81 69.1508 6.81C69.6108 6.81 69.9874 6.97667 70.2808 7.31C70.2941 7.32333 70.3074 7.33 70.3208 7.33C70.3341 7.32333 70.3408 7.31 70.3408 7.29V5.12ZM70.1008 10.6C70.2541 10.3267 70.3308 9.94 70.3308 9.44C70.3308 8.92 70.2474 8.52333 70.0808 8.25C69.9008 7.95667 69.6474 7.81 69.3208 7.81C68.9808 7.81 68.7141 7.95 68.5208 8.23C68.3208 8.52333 68.2208 8.93 68.2208 9.45C68.2208 9.91667 68.3008 10.3 68.4608 10.6C68.6474 10.92 68.9308 11.08 69.3108 11.08C69.6508 11.08 69.9141 10.92 70.1008 10.6Z" fill="#E0ECFF"/>
</svg>
