<svg width="20" height="20" viewBox="0 0 123 123" fill="none" xmlns="http://www.w3.org/2000/svg">
<path d="M61.44 0C78.406 0 93.766 6.877 104.884 17.996C116.002 29.115 122.88 44.475 122.88 61.441C122.88 78.407 116.002 93.766 104.884 104.885C93.767 116.003 78.406 122.88 61.44 122.88C44.474 122.88 29.114 116.003 17.996 104.885C6.877 93.766 0 78.406 0 61.44C0 44.474 6.877 29.114 17.996 17.995C29.114 6.877 44.475 0 61.44 0ZM103.653 27.788L27.788 103.652C37.017 111.019 48.714 115.423 61.44 115.423C76.347 115.423 89.843 109.38 99.612 99.611C109.381 89.842 115.424 76.346 115.424 61.439C115.424 48.713 111.02 37.016 103.653 27.788ZM22.289 98.607L98.607 22.289C88.929 13.098 75.844 7.457 61.44 7.457C46.532 7.457 33.036 13.499 23.268 23.268C13.5 33.036 7.457 46.532 7.457 61.44C7.457 75.843 13.098 88.928 22.289 98.607Z" fill="#93A1B8"/>
</svg>
