<svg width="117" height="24" viewBox="0 0 117 24" fill="none" xmlns="http://www.w3.org/2000/svg">
<g clip-path="url(#clip0_166_247)">
<path d="M24.7183 2.59778C22.8294 1.71404 20.8097 1.07174 18.6982 0.706055C18.4389 1.17488 18.1359 1.80546 17.9271 2.30711C15.6825 1.96955 13.4585 1.96955 11.2552 2.30711C11.0463 1.80546 10.7365 1.17488 10.4749 0.706055C8.36107 1.07174 6.33907 1.71638 4.4502 2.60247C0.640314 8.35971 -0.392486 13.9739 0.123914 19.5085C2.65083 21.3955 5.09971 22.5418 7.50729 23.2919C8.10172 22.4738 8.63189 21.6042 9.08862 20.6876C8.21877 20.3571 7.38565 19.9492 6.59842 19.4757C6.80728 19.321 7.01154 19.1592 7.20892 18.9928C12.0103 21.2385 17.2271 21.2385 21.9711 18.9928C22.1708 19.1592 22.375 19.321 22.5816 19.4757C21.7921 19.9515 20.9566 20.3594 20.0868 20.6899C20.5435 21.6042 21.0714 22.4762 21.6681 23.2943C24.078 22.5442 26.5292 21.3979 29.0561 19.5085C29.662 13.0925 28.021 7.52988 24.7183 2.59778ZM9.74272 16.1048C8.3014 16.1048 7.11941 14.7592 7.11941 13.1207C7.11941 11.4821 8.27615 10.1342 9.74272 10.1342C11.2093 10.1342 12.3913 11.4798 12.366 13.1207C12.3683 14.7592 11.2093 16.1048 9.74272 16.1048ZM19.4373 16.1048C17.9959 16.1048 16.814 14.7592 16.814 13.1207C16.814 11.4821 17.9707 10.1342 19.4373 10.1342C20.9038 10.1342 22.0858 11.4798 22.0606 13.1207C22.0606 14.7592 20.9038 16.1048 19.4373 16.1048Z" fill="white"/>
<path d="M39.2117 6.46826H45.4773C46.9875 6.46826 48.2636 6.70971 49.3102 7.19026C50.3544 7.67081 51.1371 8.34124 51.6558 9.1992C52.1745 10.0572 52.4361 11.0394 52.4361 12.1458C52.4361 13.2288 52.1653 14.211 51.6236 15.09C51.082 15.9715 50.258 16.6677 49.1495 17.181C48.041 17.6944 46.6685 17.9523 45.0275 17.9523H39.2117V6.46826ZM44.9632 15.0338C45.98 15.0338 46.7626 14.7736 47.3088 14.2555C47.8551 13.7351 48.1282 13.0272 48.1282 12.1294C48.1282 11.2972 47.8849 10.6338 47.3983 10.1369C46.9118 9.6399 46.175 9.38907 45.1904 9.38907H43.2304V15.0338H44.9632Z" fill="white"/>
<path d="M61.8165 17.9382C60.949 17.7085 60.1664 17.3756 59.4709 16.9373V14.2134C59.9965 14.6283 60.7011 14.9705 61.5847 15.2401C62.4684 15.5074 63.3221 15.641 64.1484 15.641C64.534 15.641 64.8254 15.5894 65.0228 15.4863C65.2202 15.3831 65.3189 15.2589 65.3189 15.1159C65.3189 14.9518 65.2661 14.8158 65.1582 14.7057C65.0504 14.5955 64.8415 14.5041 64.5317 14.4267L62.6038 13.9837C61.4998 13.7211 60.7172 13.3578 60.2513 12.8913C59.7854 12.4271 59.5536 11.8177 59.5536 11.0628C59.5536 10.4276 59.7555 9.8767 60.1641 9.40553C60.5703 8.93435 61.1487 8.57101 61.8992 8.3155C62.6497 8.05764 63.5264 7.92871 64.534 7.92871C65.4336 7.92871 66.2576 8.02717 67.0081 8.22407C67.7586 8.42098 68.3783 8.67181 68.8717 8.97889V11.5551C68.3668 11.248 67.7884 11.0066 67.1274 10.8237C66.4687 10.6432 65.7917 10.5542 65.094 10.5542C64.0864 10.5542 63.5838 10.73 63.5838 11.0792C63.5838 11.2433 63.6618 11.3652 63.8179 11.4473C63.974 11.5293 64.2608 11.6137 64.6763 11.7028L66.2828 11.9982C67.3317 12.1833 68.1143 12.5092 68.6284 12.9733C69.1425 13.4375 69.3996 14.1243 69.3996 15.0338C69.3996 16.0301 68.975 16.8201 68.1235 17.4061C67.272 17.9922 66.0648 18.2852 64.4995 18.2852C63.5792 18.2828 62.6841 18.168 61.8165 17.9382Z" fill="white"/>
<path d="M73.1911 17.5937C72.2708 17.1343 71.5754 16.5107 71.1118 15.7231C70.6482 14.9355 70.4141 14.0494 70.4141 13.0648C70.4141 12.0803 70.6551 11.1989 71.137 10.423C71.619 9.64707 72.3259 9.03759 73.2577 8.59455C74.1895 8.1515 75.3026 7.93115 76.5994 7.93115C78.206 7.93115 79.5394 8.27574 80.5998 8.96492V11.9678C80.2257 11.7052 79.7896 11.4919 79.2916 11.3278C78.7935 11.1637 78.261 11.0817 77.6919 11.0817C76.6958 11.0817 75.9177 11.2669 75.3554 11.6396C74.7931 12.0123 74.5108 12.4976 74.5108 13.1C74.5108 13.6907 74.784 14.1736 75.3302 14.5534C75.8764 14.9308 76.6682 15.1207 77.7079 15.1207C78.2427 15.1207 78.7706 15.041 79.2916 14.8839C79.8102 14.7245 80.2578 14.5299 80.6319 14.3002V17.2046C79.4545 17.9266 78.0889 18.2876 76.5351 18.2876C75.2269 18.2829 74.1115 18.0532 73.1911 17.5937Z" fill="white"/>
<path d="M84.607 17.594C83.6798 17.1346 82.9729 16.5063 82.4863 15.707C81.9997 14.9076 81.7542 14.0169 81.7542 13.0323C81.7542 12.0478 81.9974 11.1687 82.4863 10.3975C82.9752 9.62627 83.6775 9.02148 84.6001 8.58312C85.5204 8.14476 86.6198 7.92676 87.8936 7.92676C89.1674 7.92676 90.2667 8.14476 91.1871 8.58312C92.1074 9.02148 92.8097 9.62158 93.2917 10.3881C93.7737 11.1547 94.0146 12.0337 94.0146 13.03C94.0146 14.0145 93.7737 14.9053 93.2917 15.7046C92.8097 16.504 92.1051 17.1322 91.1779 17.5917C90.2507 18.0511 89.1559 18.2809 87.8913 18.2809C86.6267 18.2809 85.5319 18.0535 84.607 17.594ZM89.4887 14.6826C89.8789 14.2841 90.0762 13.7567 90.0762 13.1003C90.0762 12.4439 89.8811 11.9212 89.4887 11.5344C89.0985 11.1453 88.5661 10.9507 87.8913 10.9507C87.205 10.9507 86.668 11.1453 86.2755 11.5344C85.8854 11.9235 85.6903 12.4439 85.6903 13.1003C85.6903 13.7567 85.8854 14.2841 86.2755 14.6826C86.6657 15.0811 87.205 15.2827 87.8913 15.2827C88.5661 15.2804 89.0985 15.0811 89.4887 14.6826Z" fill="white"/>
<path d="M103.668 8.53591V12.0803C103.26 11.806 102.732 11.67 102.078 11.67C101.222 11.67 100.561 11.9349 100.102 12.4647C99.6402 12.9945 99.4107 13.8196 99.4107 14.9354V17.9547H95.4746V8.35541H99.3304V11.4075C99.5438 10.2917 99.8904 9.46888 100.368 8.93676C100.843 8.40698 101.458 8.14209 102.206 8.14209C102.773 8.14209 103.26 8.27336 103.668 8.53591Z" fill="white"/>
<path d="M116.745 6.14014V17.9547H112.809V15.8051C112.477 16.6138 111.972 17.2303 111.292 17.6523C110.613 18.0719 109.773 18.2828 108.777 18.2828C107.886 18.2828 107.111 18.0625 106.447 17.6194C105.784 17.1764 105.272 16.5693 104.912 15.798C104.554 15.0268 104.373 14.1548 104.373 13.1796C104.361 12.174 104.552 11.2715 104.944 10.4721C105.334 9.67277 105.887 9.04923 106.599 8.60149C107.31 8.15376 108.123 7.92872 109.034 7.92872C110.909 7.92872 112.167 8.7609 112.809 10.4229V6.14014H116.745ZM112.222 14.6166C112.623 14.2181 112.823 13.7 112.823 13.0671C112.823 12.4553 112.628 11.956 112.238 11.5739C111.848 11.1918 111.313 10.9996 110.641 10.9996C109.977 10.9996 109.447 11.1941 109.05 11.5833C108.653 11.9724 108.456 12.4764 108.456 13.0999C108.456 13.7235 108.653 14.2321 109.05 14.626C109.447 15.0198 109.97 15.2167 110.624 15.2167C111.288 15.2143 111.82 15.0151 112.222 14.6166Z" fill="white"/>
<path d="M55.7526 9.37747C56.8364 9.37747 57.7149 8.57144 57.7149 7.57716C57.7149 6.58288 56.8364 5.77686 55.7526 5.77686C54.6688 5.77686 53.7903 6.58288 53.7903 7.57716C53.7903 8.57144 54.6688 9.37747 55.7526 9.37747Z" fill="white"/>
<path d="M53.7886 10.6177C54.9912 11.1475 56.483 11.1709 57.7132 10.6177V18.0064H53.7886V10.6177Z" fill="white"/>
</g>
<defs>
<clipPath id="clip0_166_247">
<rect width="116.8" height="22.5882" fill="white" transform="translate(0 0.706055)"/>
</clipPath>
</defs>
</svg>
