<svg width="30" height="30" viewBox="0 0 30 30" fill="none" xmlns="http://www.w3.org/2000/svg">
<path d="M15 30C23.2843 30 30 23.2843 30 15C30 6.71573 23.2843 0 15 0C6.71573 0 0 6.71573 0 15C0 23.2843 6.71573 30 15 30Z" fill="#988430"/>
<path d="M15 29.5195C23.0189 29.5195 29.5195 23.0189 29.5195 15C29.5195 6.98107 23.0189 0.480469 15 0.480469C6.98107 0.480469 0.480469 6.98107 0.480469 15C0.480469 23.0189 6.98107 29.5195 15 29.5195Z" fill="#7A6A2A"/>
<path d="M15.0002 29.2136C22.8502 29.2136 29.2138 22.8499 29.2138 15C29.2138 7.15002 22.8502 0.786377 15.0002 0.786377C7.15026 0.786377 0.786621 7.15002 0.786621 15C0.786621 22.8499 7.15026 29.2136 15.0002 29.2136Z" fill="#BA9F33"/>
<path fill-rule="evenodd" clip-rule="evenodd" d="M6.55805 13.3981C6.47309 13.3205 6.38333 13.2427 6.30077 13.1651C6.21821 13.0875 6.13341 13.0098 6.04845 12.9322L5.79597 12.6922C5.75469 12.6509 5.71101 12.6146 5.66973 12.5731C5.62845 12.5368 5.57997 12.4955 5.53869 12.459C5.20365 12.1411 4.86669 11.8232 4.53629 11.5051C4.87853 11.8182 5.21357 12.1291 5.55581 12.4469L5.67469 12.5659C5.71597 12.607 5.75965 12.6435 5.80093 12.6848L6.05325 12.9178C6.13821 12.9954 6.22077 13.0731 6.30573 13.1578C6.39069 13.2424 6.47325 13.3203 6.55821 13.3978L6.55805 13.3981ZM2.11149 13.3501C2.11149 13.3501 3.32989 13.4762 3.92461 13.5611C4.47549 13.6389 6.19885 13.9034 6.19885 13.9034L2.11149 13.3501ZM2.11149 13.3501C2.45373 13.3792 2.79597 13.4155 3.13821 13.452C3.31293 13.469 3.48045 13.4883 3.64797 13.5053L3.90509 13.5346C3.99005 13.5466 4.07261 13.5587 4.15757 13.5709L5.17709 13.7334L5.68669 13.8184C5.85421 13.8475 6.02173 13.8792 6.19645 13.9083C6.02893 13.8914 5.85421 13.867 5.68669 13.8427L5.17709 13.7699L4.15757 13.6195C4.07261 13.6074 3.99005 13.5902 3.90509 13.5782L3.64781 13.5486C3.48029 13.5317 3.30557 13.5074 3.13805 13.4878C2.79581 13.4467 2.45357 13.4029 2.11133 13.3496L2.11149 13.3501ZM6.07757 14.2208C6.07757 14.2208 4.77661 14.551 4.33725 14.6773C3.90525 14.7962 2.59693 15.1942 2.59693 15.1942L6.07741 14.221L6.07757 14.2208Z" fill="#CFB66C"/>
<path fill-rule="evenodd" clip-rule="evenodd" d="M6.07765 14.2208C5.78885 14.3058 5.50165 14.3884 5.20869 14.4661L4.33973 14.6991C4.05093 14.784 3.76373 14.8666 3.47573 14.9516L3.04373 15.0705C2.90053 15.1117 2.75493 15.1481 2.60693 15.1895C2.74997 15.1415 2.89573 15.0924 3.03893 15.0511L3.47093 14.9128C3.75973 14.8229 4.04693 14.738 4.33493 14.6482C4.62853 14.5754 4.91749 14.4976 5.21109 14.4272C5.49013 14.3568 5.78389 14.2866 6.07765 14.221V14.2208ZM2.77925 15.9953C2.92229 15.9418 4.57285 15.1725 4.95637 14.9929C5.14837 14.9029 5.70645 14.7048 5.70645 14.7048L2.77925 15.9953Z" fill="#CFB66C"/>
<path fill-rule="evenodd" clip-rule="evenodd" d="M2.77897 15.9951C2.90505 15.9471 3.02409 15.8884 3.14537 15.8326L3.50457 15.6651L4.22553 15.318C4.46553 15.2039 4.69881 15.078 4.94633 14.9708C5.07257 14.9175 5.19881 14.8739 5.32489 14.8326L5.51689 14.7719C5.58233 14.755 5.64313 14.7355 5.70889 14.7185C5.46889 14.8326 5.21625 14.9297 4.97593 15.0412C4.73593 15.1603 4.49049 15.2574 4.24281 15.3641L3.50985 15.6868C3.26377 15.7865 3.02377 15.8932 2.77881 15.9951H2.77897ZM2.93897 16.6671C2.93897 16.6671 4.43401 15.791 4.94857 15.5094C5.21801 15.359 6.08937 14.9268 6.08937 14.9268L2.93897 16.6671Z" fill="#CFB66C"/>
<path fill-rule="evenodd" clip-rule="evenodd" d="M2.93945 16.6675C3.19177 16.5121 3.44905 16.3544 3.70633 16.1942L4.09033 15.9611C4.22137 15.8835 4.34761 15.8107 4.48121 15.7331C4.61225 15.6553 4.73849 15.5777 4.87193 15.5049C4.93546 15.4657 5.00202 15.4316 5.07097 15.403L5.27481 15.3011C5.54425 15.17 5.81369 15.0364 6.09769 14.9224C5.84041 15.0851 5.57577 15.2235 5.31129 15.3665C5.18025 15.4393 5.04665 15.5049 4.91561 15.5777C4.78457 15.6505 4.65833 15.7283 4.52473 15.7987C4.39369 15.8763 4.26745 15.9491 4.13401 16.0195L3.73833 16.2355L2.93977 16.6675H2.93945ZM6.07769 15.1188C6.07769 15.1188 5.14809 15.8324 4.84713 16.0606C4.54617 16.2888 3.66025 16.9296 3.66025 16.9296L6.07769 15.1188Z" fill="#CFB66C"/>
<path fill-rule="evenodd" clip-rule="evenodd" d="M11.4127 20.8737L10.937 19.9732L11.2137 18.847L13.1869 18.0849L12.3471 16.3617L12.7621 14.6214L13.5413 13.063L15.9492 12.6844L17.7185 10.9976L21.5389 11.2864L22.2889 15.3713L20.8447 20.5145L20.022 23.1772L16.6869 23.3035L15.1385 22.2307L13.3253 21.4732L11.4127 20.8737Z" fill="#E2CC85"/>
<path fill-rule="evenodd" clip-rule="evenodd" d="M17.262 20.8446C17.262 20.8446 16.8007 21.0558 16.014 21.0072C15.7863 20.7014 14.1918 20.5582 14.1918 20.5582C14.1918 20.5582 13.9927 20.4976 13.6407 20.6432C13.2865 20.7872 12.9515 20.7694 12.6383 20.847C12.3252 20.9246 12.0143 20.5169 11.7743 20.432C11.5343 20.3422 11.2161 20.1262 11.2161 20.1262L10.5441 20.0606L9.19465 19.4902L7.05081 17.3544L6.46825 18.2664L6.28857 19.395L6.93673 20.7324L8.68185 22.3222L12.0847 23.1862L14.1017 22.592L16.6284 21.524L17.262 20.8444V20.8446Z" fill="#F1D789"/>
<path fill-rule="evenodd" clip-rule="evenodd" d="M5.17246 13.2961L5.60446 11.988L6.11918 11.1432L7.77678 11.0048L7.27918 12.4563L5.89342 14.9224L6.46862 17.1238L5.44926 17.6334L5.13598 17.1529L4.88366 16.051L4.8667 14.8131L5.17246 13.2961Z" fill="#F4ECB4"/>
<path fill-rule="evenodd" clip-rule="evenodd" d="M7.03143 20.7549L6.71351 20.3107C6.71351 20.3107 6.62855 20.0995 6.67719 19.915C6.72519 19.7281 6.71831 19.716 6.69415 19.6456C6.66999 19.5752 6.46599 19.3325 6.47815 19.1237C6.49015 18.9125 6.46119 18.8421 6.61639 18.6747C6.77895 18.5121 6.73047 18.2305 6.73047 18.2305L6.94167 18.3616L6.98967 18.2888C6.98967 18.2888 7.06727 18.3494 7.06727 18.4441C7.08423 18.3131 7.01383 17.7062 7.17399 17.568C7.33416 17.4297 7.61816 18.216 7.61816 18.216L7.44344 17.0752L6.99431 15.9054L6.19574 14.8374L6.14774 13.6601V13.5582C6.14774 13.5582 5.78118 14.1214 5.67926 14.5662C5.60646 14.872 5.78118 15.2433 5.74486 15.6827C5.71558 16.1197 5.67926 16.0856 5.78598 16.2587C5.8927 16.4318 6.15254 16.7878 6.05062 17.0451C5.96086 17.2661 5.65494 17.1107 5.65494 17.1107C5.65494 17.1107 5.5943 17.2902 5.51174 17.3558C5.48262 17.2491 5.45109 17.1811 5.39285 17.1158C5.38789 17.1571 5.37589 17.2129 5.37589 17.2129C5.37589 17.2129 5.32245 17.0454 5.26901 16.8342C5.19637 16.5528 5.11861 16.1814 5.04821 15.9824C5.01909 16.0965 4.94629 16.4435 4.94629 16.4435L4.98757 16.9776L5.18661 17.7105L5.37861 18.1905L5.5655 18.7779L5.7279 19.1725L5.85894 19.4734L5.97302 20.1507L6.52391 20.7331L6.81767 20.8643L7.03111 20.755L7.03143 20.7549Z" fill="#F3E19D"/>
<path fill-rule="evenodd" clip-rule="evenodd" d="M5.46132 12.2281C5.46132 12.2281 5.06564 12.9001 4.95172 13.5775C4.8378 14.255 4.73572 14.9708 4.80772 15.8931C4.88052 16.8228 5.01892 17.3931 5.1306 17.8009C5.3226 18.4782 5.81989 19.4199 5.81989 19.4199L5.83685 19.3835C5.75326 19.225 5.68655 19.0582 5.63781 18.8859C5.57221 18.6286 5.54789 18.3228 5.48725 18.1844C5.4338 18.0462 5.34404 17.9271 5.30036 17.7572C5.25908 17.5947 5.25236 17.3374 5.12564 17.1457C5.0722 17.0679 5.0066 16.8641 4.98724 16.6603C4.96292 16.3543 4.9994 16.0121 4.97028 15.7307C4.91684 15.2622 4.88052 14.9443 4.929 14.699C4.97748 14.4537 5.23012 13.7574 5.38548 13.2039C5.4874 12.8495 5.4266 12.551 5.61349 12.2427C5.80037 11.9369 5.91461 11.6675 5.95573 11.4806C6.00373 11.3107 5.46068 12.2281 5.46068 12.2281H5.46132Z" fill="#F2E8B0"/>
<path fill-rule="evenodd" clip-rule="evenodd" d="M7.33759 11.9587C7.33759 11.9587 7.13375 12.0195 7.03663 12.1263C6.93951 12.2282 6.89823 12.3131 6.76719 12.4855C6.63614 12.6578 6.62878 12.7986 6.5219 13.0146C6.41518 13.2258 6.17966 13.5437 6.15054 13.6578C6.12142 13.7718 6.07294 14.3057 6.0123 14.5582C5.95886 14.8107 6.07294 15.1214 6.07294 15.1214L6.21118 15.0921C6.21118 15.0921 6.21118 15.2718 6.34958 15.3933C6.48782 15.5121 6.51214 14.9902 6.51214 14.9902L7.02911 13.2451L7.80816 12.716L7.89312 12.2888L7.33727 11.9587H7.33759Z" fill="#F5EEC0"/>
<path fill-rule="evenodd" clip-rule="evenodd" d="M7.71606 12.7501C7.71606 12.7501 7.3495 12.7743 7.16998 12.9055C7.09718 12.9588 7.06806 13.0025 6.99046 13.0681C6.84726 13.1869 6.7015 13.2962 6.63126 13.4521C6.5535 13.6073 6.46854 13.8428 6.4103 14.2869C6.38598 14.4738 6.38598 14.6461 6.36902 14.7967C6.3447 15.0005 6.30838 15.1631 6.32774 15.2767C6.35206 15.5097 6.59238 15.6311 6.61574 15.8956L7.11334 15.6433L7.58182 13.7961L8.57702 13.1721L8.01382 12.541L7.71542 12.749L7.71606 12.7501Z" fill="#E6DB9D"/>
<path fill-rule="evenodd" clip-rule="evenodd" d="M5.09098 25.1887C5.09306 25.1704 5.09514 25.1522 5.09722 25.1335C5.16986 24.5095 5.18218 24.0365 5.23546 23.7404C5.31306 23.3205 5.3665 23.1644 5.35434 23.0072C5.33738 22.7549 5.31802 22.5704 5.34234 22.3762C5.37866 22.1189 5.63114 21.8132 5.62394 21.602C5.61898 21.4344 5.53402 21.3253 5.46122 21.2234C5.38842 21.1215 5.33018 21.0365 5.33018 21.0365C5.33018 21.0365 5.82778 20.6943 5.82298 19.3156C5.83314 19.3184 5.84292 19.3225 5.8521 19.3277L6.09722 20.0242L6.26474 20.228L6.90794 21.4271L7.73562 22.2306L8.95882 23.0533L9.72586 23.888L9.80346 26.1138L8.80106 27.4148L8.6369 27.712C7.33269 27.0573 6.13674 26.2062 5.09082 25.1885L5.09098 25.1887Z" fill="#E5CB7A"/>
<path fill-rule="evenodd" clip-rule="evenodd" d="M8.15283 27.3179C8.15283 27.3179 8.16979 27.0413 8.39795 26.8616C8.43443 26.9222 8.45859 26.9806 8.45139 27.0242C8.49267 26.9515 8.78147 26.4854 9.43442 26.364C10.0874 26.2451 10.2451 25.7694 10.2451 25.7694L11.6309 24.5098L13.2158 23.051L15.143 22.3738L16.0437 22.1528C16.0437 22.1528 16.0606 22.2184 16.0267 22.364C16.1941 22.352 16.5654 22.267 16.9513 22.131C17.1067 22.0704 17.2525 22.0461 17.3301 22.1262C17.4441 22.233 17.4611 22.4854 17.4683 22.6358C17.6552 22.5946 17.8712 22.415 18.0443 22.432C18.3211 22.4611 18.5662 22.7864 18.8478 22.7864C19.2192 22.7864 19.3865 22.5582 19.6464 22.3786C19.8017 22.2718 20.0249 22.1386 20.1512 22.0485C20.4521 21.8275 23.6366 20.8542 23.6366 20.8542L24.7531 20.927L24.9327 22.1261L24.8367 25.2605C24.8249 25.2718 24.8131 25.2837 24.8011 25.295L19.7246 27.9464L12.6878 29.0251C11.1116 28.7676 9.59047 28.2444 8.18931 27.4778L8.15331 27.3178L8.15283 27.3179Z" fill="#D8C173"/>
<path fill-rule="evenodd" clip-rule="evenodd" d="M5.51758 25.5873C5.61758 25.3782 5.7075 25.2033 5.72334 25.1407C5.73582 25.2668 5.7587 25.5435 5.80478 25.8375C5.70803 25.7553 5.6123 25.6718 5.51758 25.5871V25.5873Z" fill="#F1D789"/>
<path fill-rule="evenodd" clip-rule="evenodd" d="M10.6579 28.5371L11.5679 28.284L11.6455 28.3083C11.6455 28.3083 11.6868 28.3327 11.6868 28.4151C11.8009 28.3496 11.898 28.3616 11.9684 28.3181C12.0047 28.3957 12.0411 28.653 12.2014 28.6845C12.3687 28.721 12.5484 28.6117 12.7305 28.4735C12.91 28.3303 13.1145 28.1506 13.2692 28.0778C13.326 28.1822 13.3763 28.2899 13.4198 28.4005C13.6236 28.2379 13.978 27.5778 14.4828 27.5898C14.6287 27.245 14.8725 26.9505 15.1839 26.7427C15.6524 26.4248 15.946 26.4005 16.3126 26.4296C16.4582 26.2405 16.6376 26.08 16.8417 25.9563C16.9023 25.9807 17.0699 26.0826 17.2787 25.9855C17.4899 25.8885 17.7276 25.5122 18.0407 25.4637C18.2095 25.4405 18.381 25.4765 18.5262 25.5656C18.5262 25.5656 19.4382 24.6602 20.0675 24.3592C20.0431 24.2864 19.9947 24.0122 20.7324 23.4053C20.7737 23.4418 20.7446 23.5437 20.7737 23.5493C20.7857 23.5493 20.9657 23.4717 21.1935 23.2968C21.4751 23.0858 21.8124 22.8648 22.0163 22.8042C22.4003 22.6901 22.8076 22.923 22.8076 22.923C22.8423 22.8987 22.8809 22.8807 22.9217 22.8696C23.0187 22.8526 23.0891 22.8405 23.1425 22.8216C23.1377 22.9478 23.2081 23.1638 23.1425 23.3507C23.2185 23.3935 23.299 23.4276 23.3825 23.4526C23.3414 23.5424 23.2515 23.7706 23.1011 23.8798C23.2271 23.9405 23.2441 24.0109 23.4238 24.0718C23.351 24.1738 23.2318 24.3486 23.1787 24.4558C23.1252 24.5699 22.9334 25.0432 22.8484 25.2227C22.7587 25.4024 22.6374 25.7325 22.579 25.7987C22.5206 25.865 22.3095 26.1458 22.147 26.284C22.291 26.2306 22.8801 26.051 23.13 25.983C23.0556 26.0922 22.6785 26.6517 22.3159 27.1898C20.58 28.2302 18.6423 28.8888 16.6318 29.1215C14.6214 29.3543 12.5845 29.1559 10.6567 28.5395L10.6579 28.5371Z" fill="#E0CD81"/>
<path fill-rule="evenodd" clip-rule="evenodd" d="M7.77589 12.6844C7.77589 12.6844 7.56485 12.6844 7.52357 12.7136C7.48229 12.7427 7.73477 12.8035 7.81237 12.8326C7.88997 12.8617 8.05749 12.9952 8.10117 13.102C8.14245 13.204 9.61814 13.7985 9.61814 13.7985L10.6618 13.7451L11.0217 13.248L10.3372 12.6484L10.8172 11.2334L10.1813 11.3353L8.65222 12.2473L7.88517 12.5411L7.77589 12.6844Z" fill="#DFC57C"/>
<path fill-rule="evenodd" clip-rule="evenodd" d="M10.0681 13.153C10.0832 13.1774 10.1045 13.1975 10.1298 13.2111C10.155 13.2247 10.1834 13.2314 10.2121 13.2306C10.4281 13.2306 10.627 13.284 10.7096 13.3932C10.848 13.568 11.2315 14.1263 11.2315 14.1263L12.1489 14.4564L12.2081 13.376L11.2057 12.6796L10.0649 13.0994V13.1528H10.0675L10.0681 13.153Z" fill="#E5CC7C"/>
<path fill-rule="evenodd" clip-rule="evenodd" d="M9.88777 13.5535C9.88777 13.5535 10.0551 13.5657 10.2663 13.4879C10.4775 13.4101 10.8246 13.2428 10.9751 13.3084C11.1862 13.3981 11.1425 13.6797 11.3708 13.9324C11.509 14.0877 11.7615 14.0829 11.9047 14.2505C12.0479 14.418 12.5406 14.3402 12.5406 14.3402L12.7274 15.3482L11.9775 16.3095L11.7323 17.5036H10.7182L9.79177 17.1361L9.33545 16.0321L9.56361 14.9156L9.88777 13.5535Z" fill="#D2C281"/>
<path fill-rule="evenodd" clip-rule="evenodd" d="M11.8498 13.6019C11.875 13.6097 11.9011 13.6138 11.9274 13.6141C11.8983 13.6384 11.8375 13.6917 11.8618 13.8301C11.8861 13.9685 11.9637 14.1432 11.8983 14.2499C11.9505 14.307 11.9895 14.375 12.0124 14.449C12.0536 14.568 12.0658 14.6771 12.3351 14.6942C12.2962 14.7182 12.2604 14.7467 12.2284 14.7792C12.2284 14.7792 12.4152 14.9417 12.51 15.0921C12.6069 15.088 12.8642 15.008 12.8642 15.008L12.9176 15.0445L13.0317 14.9965C13.0317 14.9965 12.925 14.9552 13.0026 14.6955C13.0754 14.4674 13.141 14.4795 13.1466 14.4626C13.1522 14.4456 13.2 14.2053 13.2 14.1082C13.2364 13.9821 13.2655 13.5986 13.2655 13.5986L13.1879 12.7516L12.7511 12.4869L12.3959 12.144L12.0608 12.7751L11.8402 12.9951L11.8232 13.5411L11.8498 13.6019Z" fill="#E2C270"/>
<path fill-rule="evenodd" clip-rule="evenodd" d="M12.9004 12.8933C12.9004 12.8933 12.978 13.1141 13.0073 13.284C13.0176 13.251 13.0233 13.2167 13.0242 13.1821C13.0242 13.1821 13.0849 13.5171 13.0969 13.6555C13.1212 13.6505 13.1449 13.6433 13.1503 13.6675C13.1558 13.6917 13.2111 13.9613 13.1983 14.1117C13.2994 13.9449 13.4392 13.8051 13.606 13.704C13.7031 13.6432 13.8172 13.5777 13.9362 13.5728C14.1231 13.568 14.259 13.6918 14.4823 13.6918C15.021 13.6918 15.509 13.2961 15.8682 13.1749C16.1327 13.0849 16.3609 13.0195 16.521 12.8737C16.5988 12.8083 16.7372 12.6627 16.8633 12.4465C17.0308 12.1585 17.2055 11.9078 17.3804 11.8763C17.3013 11.8908 17.2208 11.8965 17.1404 11.8933C17.1404 11.8933 17.1938 11.8398 17.2844 11.767C17.375 11.6942 17.4834 11.6045 17.6386 11.6045C17.9154 11.6045 18.0537 11.6456 18.209 11.6456C18.3644 11.6408 18.4542 11.6045 18.4542 11.6045C18.4542 11.6045 18.6169 11.7185 18.9833 11.7185C19.3498 11.7233 19.595 11.7549 19.7868 11.772C19.9786 11.7891 20.6217 11.7185 20.8062 11.724C20.9264 11.7286 21.0445 11.7575 21.1534 11.8089L20.5586 10.0809L18.4223 8.21375L17.1505 9.11423L15.194 11.0705L13.3009 11.772L12.9052 12.2161V12.8933H12.9004Z" fill="#CCB360"/>
<path fill-rule="evenodd" clip-rule="evenodd" d="M17.1483 11.9029C17.1483 11.9029 17.2017 11.8496 17.2913 11.7768C17.3809 11.704 17.4905 11.6141 17.6457 11.6141C17.9224 11.6141 18.0608 11.6554 18.2161 11.6554C18.3715 11.6506 18.4612 11.6141 18.4612 11.6141C18.4612 11.6141 18.6241 11.728 18.9904 11.728C19.3569 11.7328 19.6021 11.7644 19.7939 11.7813C19.9857 11.7983 20.6288 11.728 20.8133 11.7333C20.9335 11.7378 21.0516 11.7667 21.1603 11.8183L20.8909 11.0391L20.5779 10.4445L19.6846 9.46628C19.6846 9.46628 18.6126 8.83524 18.6044 8.83044C18.5996 8.82564 18.2331 8.72852 18.2331 8.72852L17.2622 9.31588L16.3812 11.5951L16.3643 12.0751L16.9345 12.3445C17.0777 12.1045 17.2356 11.9125 17.3836 11.8882C17.25 11.9028 17.1481 11.9028 17.1481 11.9028L17.1483 11.9029Z" fill="#D5B457"/>
<path fill-rule="evenodd" clip-rule="evenodd" d="M17.1358 12.0656C17.0509 12.0704 16.9806 12.0534 16.9611 11.9928C16.8883 11.7889 16.8301 11.7598 16.7691 11.7598C16.7081 11.7598 16.6259 11.8909 16.5771 11.9029C16.5283 11.9149 16.4704 11.7525 16.4704 11.7525L16.4169 11.7281C16.4169 11.7281 16.1038 11.932 15.883 12.1723C15.6622 12.4126 15.3005 12.8205 15.1379 12.8931C14.9753 12.9657 14.417 12.9902 14.2259 13.0315C14.0349 13.0728 13.823 13.2112 13.7939 13.2427C13.7648 13.2742 13.879 13.3081 13.896 13.3397C13.913 13.3688 13.709 13.3566 13.692 13.3877C13.68 13.412 13.74 13.5502 13.7698 13.6206C13.8218 13.5947 13.879 13.5806 13.9371 13.5793C14.124 13.5745 14.26 13.6984 14.4832 13.6984C15.0221 13.6984 15.5099 13.3027 15.8691 13.1813C16.1337 13.0915 16.3619 13.0259 16.5221 12.8803C16.5997 12.8149 16.7381 12.6691 16.8643 12.4531C16.9565 12.3051 17.0464 12.1667 17.1363 12.0648L17.1358 12.0656Z" fill="#D2B257"/>
<path fill-rule="evenodd" clip-rule="evenodd" d="M9.40791 24.0779C9.40791 24.0779 9.35991 23.8982 8.91511 23.4347C8.78887 23.3036 8.71127 23.1946 8.62631 23.1167C8.41511 22.9175 8.29127 22.8642 8.14087 22.7502C7.81079 22.505 7.45159 22.505 7.17495 22.2041C6.89831 21.9031 6.57591 21.3281 6.35191 20.7404C6.13111 20.153 6.07031 19.9661 6.07031 19.9492C6.07031 19.9322 6.13111 19.8181 6.20871 19.8351C6.28631 19.852 6.28631 20.0025 6.30583 20.0389C6.34449 20.0985 6.38835 20.1545 6.43687 20.2063C6.55095 20.3375 6.71351 20.4943 6.79607 20.7282C6.77911 20.5292 6.71111 20.3084 6.71111 20.3084C6.71111 20.3084 7.13831 20.5778 7.50231 20.8593C7.86887 21.1409 8.01927 21.238 8.12631 21.4175C8.23335 21.597 8.48551 22.0705 8.60631 22.2089C8.72711 22.3473 10.3823 22.869 10.3823 22.869L11.1697 23.4561L11.5606 24.3129L11.2546 24.7929L10.6673 24.9191L9.71335 24.4919L9.40791 24.0777V24.0779Z" fill="#D2B159"/>
<path fill-rule="evenodd" clip-rule="evenodd" d="M7.28857 21.1262C7.28857 21.1262 7.48761 21.4441 7.97305 21.7451C8.41001 22.0097 9.10169 22.25 9.71833 22.3932C10.0726 22.4782 10.427 22.5436 10.7449 22.5486C11.6017 22.5606 12.1915 22.3156 12.9222 22.2355C13.3179 22.1942 13.8033 22.1627 14.3081 22.0435C14.9561 21.8881 15.3396 21.7132 15.8615 21.4675C16.2401 21.2927 16.5873 21.1617 16.8687 20.9942C17.2644 20.7612 17.5532 20.5016 17.8883 20.424C17.847 20.538 17.8033 20.7419 17.4732 20.9531C17.6479 20.9481 17.8883 20.9361 17.8883 20.9361C17.8883 20.9361 17.6553 21.0743 17.2451 21.3851C16.9926 21.5771 16.6577 21.902 16.3155 22.118C16.0945 22.2564 15.8542 22.358 15.6964 22.4409C15.3124 22.6521 15.1575 22.7588 14.9052 23.0169C14.995 23.0121 15.0023 23.0169 15.0023 23.0169C15.0023 23.0169 14.6843 23.0582 14.4563 23.1795C14.4083 23.1795 14.3251 23.1625 14.1795 23.2038C14.0654 23.2401 13.9148 23.3228 13.7596 23.3664C13.5387 23.432 13.466 23.4028 13.466 23.4028L13.5023 23.4756C13.5023 23.4756 13.2143 23.4707 13.1183 23.4804C13.1353 23.4852 13.1305 23.4926 13.1305 23.4926C13.1136 23.4954 13.0974 23.5012 13.0825 23.5095C13.0363 23.5395 12.9855 23.5616 12.9321 23.575C12.903 23.5798 12.8787 23.5798 12.8422 23.5871C12.8543 23.6163 12.9491 23.7791 12.9927 23.8751C12.9564 23.8995 12.4102 24.3121 12.4102 24.3121C12.4271 24.3388 12.441 24.3673 12.4515 24.3971C12.4684 24.4503 12.4758 24.5281 12.4927 24.5644C12.5339 24.6372 12.5582 24.6494 12.5582 24.6494C12.5582 24.6494 12.4927 24.6616 12.3785 24.6907C12.2815 24.715 12.1625 24.7561 11.9945 24.7804C11.9429 24.7871 11.8911 24.7912 11.8391 24.7926C11.8635 24.846 11.9702 25.0499 11.7735 25.2852C11.5769 25.5206 11.5163 25.5548 11.4556 25.7052C11.4251 25.6821 11.3926 25.6618 11.3585 25.6444C11.2931 25.6153 11.2031 25.5718 11.1716 25.5134C11.1532 25.5912 11.1289 25.6675 11.0988 25.7415C11.0382 25.9041 10.9484 26.0644 10.9315 26.1857C10.8659 26.1129 10.7446 25.9697 10.5771 25.9988C10.4095 26.028 10.2761 26.2561 10.247 26.3217C10.247 26.2804 10.2179 26.2489 10.2107 26.2974C10.2057 26.3508 10.1135 26.9089 9.59897 27.3604C9.59417 27.2464 9.59417 26.9939 9.58201 26.9115C9.53401 26.9595 9.47529 27.0304 9.12569 27.1809C8.78345 27.3313 8.83769 27.4819 8.83769 27.4819C8.83769 27.4819 8.80857 27.2419 8.99305 26.9891C9.17993 26.7367 9.29401 26.6177 9.29401 26.5984C9.291 26.5786 9.28258 26.5601 9.26969 26.5449C9.24537 26.5206 9.19689 26.4915 9.19689 26.4721C9.22601 26.4601 9.51481 26.3217 9.49785 26.0351C9.48089 25.778 9.37177 25.6444 9.29401 25.5499C9.28201 25.5377 9.40825 25.448 9.39113 25.4188C9.37897 25.4019 9.22377 25.2876 9.20425 25.2268C9.20884 25.1905 9.21699 25.1548 9.22857 25.1201C9.24553 25.0667 9.25769 25.0302 9.25289 24.9939C9.24073 24.9332 9.17513 24.7657 9.15577 24.7488C9.17273 24.7536 9.29401 24.7488 9.29401 24.7488C9.29401 24.7488 9.19705 24.5934 9.17993 24.5206C9.16281 24.4478 9.12649 24.2559 9.10713 24.2196C9.14841 24.2244 9.25033 24.2316 9.25033 24.2196C9.25529 24.1832 9.16057 24.1225 9.20233 24.0756C9.23145 24.0804 9.28729 24.1048 9.34057 24.1728C9.31145 24.095 9.26297 23.9446 9.16089 23.884C9.20889 23.867 9.37209 23.8232 9.51529 23.9081C9.65849 23.9931 9.70729 24.112 9.70729 24.112C9.70729 24.112 9.79225 24.1776 9.92345 24.2747C10.0739 24.3936 10.2655 24.5627 10.5715 24.6824C10.6371 24.7188 10.8044 24.7188 10.9259 24.6945C10.9787 24.6819 11.0294 24.6615 11.0763 24.6339C11.0932 24.6239 11.1111 24.6158 11.1297 24.6095C11.1036 24.5572 11.0736 24.5068 11.0399 24.459C11.0812 24.459 11.1297 24.464 11.1297 24.464C11.1297 24.464 11.1588 24.3984 11.0278 24.272C11.0569 24.2428 11.0934 24.224 11.0934 24.1748C11.0521 24.17 10.9793 24.1094 10.9623 24.0851C10.9865 24.0681 11.023 24.0123 11.0643 23.9953C11.0278 23.9662 10.938 23.8448 10.8967 23.8328C10.9362 23.8181 10.9743 23.8002 11.0108 23.7793C11.0108 23.7793 10.807 23.7259 10.7414 23.6822C10.6758 23.6342 10.5788 23.5512 10.5206 23.5268C10.4598 23.5025 10.3531 23.4905 10.3094 23.4419C10.3505 23.454 10.4161 23.4419 10.4647 23.4419C10.5011 23.4419 10.5182 23.4467 10.5302 23.4467C10.5254 23.4297 10.5254 23.3932 10.6201 23.3812C10.6657 23.3744 10.7099 23.3604 10.7511 23.34C10.7511 23.34 10.6612 23.3352 10.5591 23.238C10.4571 23.1409 10.3723 23.0633 10.314 23.0511C10.2534 23.039 10.1393 23.0924 10.0689 23.0875C9.97177 23.0755 9.93049 23.0268 9.93049 23.0268C9.93049 23.0268 9.60777 23.0559 8.89177 22.6191C8.27273 22.2404 8.00329 21.9055 8.00329 21.9055C7.94536 21.8845 7.88936 21.8585 7.83593 21.8278C7.60297 21.7065 7.28009 21.454 7.28985 21.1238L7.28857 21.1262Z" fill="#C2A44D"/>
<path fill-rule="evenodd" clip-rule="evenodd" d="M16.2183 6.55828C16.2745 6.57652 16.3244 6.61017 16.3623 6.6554C16.4764 6.78644 16.5492 7.03396 16.2895 7.2986C16.3914 7.33492 16.4335 7.3466 16.5225 7.33492C16.4327 7.4418 16.2289 7.66996 16.2167 7.869C16.2045 8.03156 16.3065 8.0802 16.3065 8.0802C16.3065 8.0802 16.1511 8.25972 16.1439 8.5602C16.2173 8.47746 16.2976 8.40113 16.3839 8.33204C16.5636 8.18884 16.8111 8.02628 16.9786 7.92436C16.9764 7.96707 16.9821 8.00984 16.9956 8.05044C16.9956 8.05044 17.3086 7.79316 17.5716 7.9074C17.6905 7.96084 17.637 8.1282 17.637 8.1282C17.637 8.1282 17.7998 8.06756 17.9138 8.18164C18.0279 8.29572 18.1892 8.58996 18.2719 8.70404C18.3082 8.75748 18.403 8.8594 18.4999 9.01716C18.6324 9.23803 18.743 9.47129 18.8302 9.71363C18.835 9.58739 18.8665 9.39091 19.2259 9.51459C19.5851 9.64083 19.9927 9.90547 20.335 10.4266C20.6772 10.9477 20.762 11.536 20.9344 11.76C21.1091 11.976 21.2888 12.3352 21.3009 12.4858C21.3131 12.6364 21.2475 13.1216 21.6067 14.4348C21.7086 14.0271 21.864 13.1216 21.864 13.1216L21.9489 12.3231L22.046 9.8522L19.4659 7.70868L17.4489 6.245L16.1357 6.37124L16.2181 6.55812L16.2183 6.55828Z" fill="#CAA13E"/>
<path fill-rule="evenodd" clip-rule="evenodd" d="M21.0121 10.2354C21.0121 10.2354 20.9756 9.99535 20.3689 9.58735C19.762 9.18447 19.2887 9.18447 18.8519 8.84223C18.5169 8.57279 18.1674 7.95375 17.9399 7.74991C17.7189 7.54847 17.6826 6.96591 17.6826 6.96591L18.4277 6.3419L19.5359 4.74014L20.4727 3.70862L20.9217 4.33262L21.5457 5.06558L21.8927 6.53646L22.0189 8.68943L21.0109 10.2355L21.0121 10.2354Z" fill="#B59544"/>
<path fill-rule="evenodd" clip-rule="evenodd" d="M21.7624 12.8159C21.7808 12.4894 21.7405 12.1623 21.6434 11.85C21.4834 11.3524 21.1338 10.4689 20.9714 10.138C20.9058 9.77147 20.9544 9.74235 21.0248 9.70107C21.0952 9.65979 21.3599 9.50907 21.5048 8.98027C21.6498 8.45147 22.0995 8.43419 22.0995 8.43419L22.3762 8.23035L22.7962 9.28123L23.1626 10.2303L23.2767 10.9561L23.3616 11.575L23.1626 12.8833L22.1797 13.7716L21.7623 12.8159H21.7624Z" fill="#C89D3A"/>
<path fill-rule="evenodd" clip-rule="evenodd" d="M8.04639 27.3982V27.3713C8.06681 27.3586 8.08484 27.3423 8.09967 27.3233C8.11663 27.299 8.12895 27.2699 8.14095 27.2627C8.16527 27.2505 8.27935 27.2147 8.33999 27.2262C8.40063 27.2377 8.56095 27.3038 8.64591 27.299C8.82063 27.2942 9.02447 27.1606 9.34735 27.2214C9.83279 27.3112 9.94687 27.6412 10.2285 27.8281C10.4205 27.9593 10.6192 27.9009 10.6483 27.9009H10.7137C10.7259 27.9009 10.8157 27.799 10.8643 27.804C10.9614 27.8088 10.971 27.8889 11.0317 27.8937C11.1749 27.9107 11.4517 27.8209 11.5901 27.8574C11.6311 27.8703 11.6684 27.8929 11.6988 27.9232C11.7293 27.9536 11.7519 27.9909 11.7648 28.032C11.7939 28.1217 11.7696 28.2358 11.6992 28.3014C11.5488 28.4397 11.4056 28.5709 11.3765 28.6854C11.4135 28.7137 11.4491 28.7438 11.483 28.7757C10.2821 28.4697 9.12664 28.007 8.04639 27.3996V27.3982Z" fill="#CEB052"/>
<path fill-rule="evenodd" clip-rule="evenodd" d="M20.9707 22.5486C20.9707 22.5486 21.3493 22.0438 21.4805 21.7937C21.6115 21.5359 21.0654 18.2719 21.0654 18.2719L22.1626 14.6774L22.1333 13.5075C22.1333 13.5075 22.1867 12.4273 22.313 11.9588C22.4635 12.2283 22.932 12.5535 23.0339 12.7259C23.0819 12.3956 23.245 11.6991 23.2208 10.9564C23.3106 11.0947 23.5266 12.4855 23.5266 12.4855L23.7426 13.4223L24.0242 14.4175L24.3373 15.4686L24.5242 16.1943L24.6309 16.3691L24.7209 16.6748L24.8058 17.0051L25.0509 17.7793L25.1949 18.4151L25.309 19.5681C25.3338 19.6564 25.3517 19.7465 25.3625 19.8375C25.3673 19.9638 25.3455 20.0366 25.3455 20.0585C25.3455 20.0804 25.3868 20.3351 25.3698 20.527C25.3455 20.719 25.3455 20.8692 25.1949 21.007C25.0444 21.1447 24.9498 21.9681 24.9498 21.9681L24.6804 21.7886C24.6804 21.7886 24.7338 21.5433 24.6076 21.3201C24.4813 21.0969 24.2362 21.0507 24.0978 21.0871C23.9596 21.1163 23.6829 21.1598 23.593 21.2375C23.508 21.3151 23.2994 21.5555 23.1075 21.6647C22.8675 21.8087 22.4765 21.8201 22.2678 21.8686C22.0566 21.9166 21.8237 22.0606 21.5784 22.2278C21.3861 22.3523 21.183 22.4594 20.9717 22.5478L20.9707 22.5486Z" fill="#CCA847"/>
<path fill-rule="evenodd" clip-rule="evenodd" d="M20.9707 27.852C20.9707 27.852 20.9867 27.8624 21.0176 27.8793C22.742 27.0714 24.2871 25.9262 25.5616 24.5113C25.5477 24.0201 25.5296 23.5166 25.5097 23.33C25.4686 22.9344 25.4977 22.5315 25.4856 22.2985C25.4734 22.0656 25.3424 21.1164 25.2817 20.8713C25.2161 20.6262 25.0897 20.5048 25.0705 20.5048C25.0536 20.5097 24.9515 20.966 24.9515 21.0808C24.9515 21.1955 24.9272 21.4716 24.9272 21.542C24.9102 21.5371 24.903 21.494 24.903 21.4764C24.8787 21.5371 24.8496 21.644 24.8374 21.6561C24.8253 21.6683 24.8544 21.5542 24.8374 21.5299C24.8205 21.5056 24.7894 21.5177 24.7961 21.4571C24.799 21.4211 24.8047 21.3854 24.8131 21.3504C24.8131 21.3504 24.7403 21.4571 24.687 21.7289C24.6336 21.9984 24.6336 22.0057 24.6142 22.0299C24.5973 22.0592 24.5001 22.1561 24.4952 22.1926C24.4904 22.258 24.5851 22.3236 24.5923 22.36C24.5971 22.4208 24.5073 22.7022 24.4782 22.84C24.4491 22.9777 24.4613 23.2476 24.4302 23.386C24.4059 23.5123 24.3822 23.5851 24.2992 23.6384C24.3598 23.6505 24.4181 23.6675 24.4181 23.6675C24.4181 23.6675 24.503 24.0267 24.287 24.3326C24.2094 24.4393 24.1901 24.488 24.1075 24.5851C23.9448 24.7646 23.8185 24.9691 23.8064 25.102C23.798 25.0628 23.7923 25.023 23.7894 24.983C23.7894 24.983 23.5371 25.2768 23.4302 25.4443C23.292 25.6603 23.1001 25.6481 23.0462 25.7016C22.9923 25.755 22.9806 25.852 22.9982 25.9297C22.9502 25.9417 22.86 25.9588 22.7992 26.1457C22.7701 26.2427 22.6973 26.3377 22.5832 26.403C22.4691 26.4683 22.3307 26.488 22.2603 26.5049C22.3209 26.5219 22.3453 26.5219 22.3744 26.5412C22.3381 26.6019 22.1705 26.6966 21.9837 26.818C21.7968 26.9321 21.7069 27.0995 21.6608 27.2088C21.6128 27.3107 21.5419 27.3763 21.4278 27.3884C21.4758 27.4176 21.5469 27.4854 21.5832 27.5073C21.5297 27.5195 21.4392 27.5195 21.2774 27.6579C21.1075 27.7987 21.0493 27.84 20.9715 27.8521L20.9707 27.852Z" fill="#C39D3C"/>
<path fill-rule="evenodd" clip-rule="evenodd" d="M17.5936 28.9768C17.6865 28.9116 17.7872 28.8583 17.8933 28.8179C18.2718 28.6675 18.6723 28.6384 18.8301 28.5899C18.9806 28.5419 19.0995 28.4757 19.2864 28.4393C19.2814 28.4819 19.2773 28.5219 19.2728 28.5597C18.7218 28.7329 18.1608 28.8722 17.5928 28.9768H17.5936Z" fill="#D2BA6B"/>
<path fill-rule="evenodd" clip-rule="evenodd" d="M24.5761 19.0195C24.5761 19.0195 24.4985 19.4393 24.3601 19.704C24.2217 19.9686 24.0721 20.335 24.0721 20.335C24.073 20.2525 24.0827 20.1702 24.1012 20.0897C23.9265 20.1917 23.5017 20.4369 23.3812 20.5461C23.2671 20.648 23.0753 20.8277 23.0268 20.9126C23.1409 20.5777 23.2598 20.2768 23.2793 20.1384C23.1046 20.2646 22.2889 20.9369 21.8642 21.3811L20.5414 22.4515C20.3887 22.5339 20.2315 22.6075 20.0705 22.672C19.8425 22.7689 19.573 22.8515 19.374 22.9293C19.4274 22.7861 19.5122 22.6597 19.6313 22.5384C19.7575 22.4195 20.1361 22.0093 20.1943 21.8184C20.2478 21.6193 20.2599 21.5005 20.1895 21.3329C20.1239 21.3499 19.9735 21.3573 19.8716 21.3864C19.7697 21.4155 19.6604 21.5246 19.6604 21.5246C19.6604 21.5246 19.738 21.0805 19.9055 20.6606C19.7793 20.6654 19.5633 20.7017 19.5633 20.7017C19.5633 20.7017 19.8642 20.1969 20.3793 19.8451C20.2215 19.8787 20.0672 19.9266 19.9182 19.9881C19.6172 20.1144 19.2871 20.3013 19.042 20.4032C19.1802 20.2112 20.1511 18.8256 20.7289 17.5342C21.3049 16.2454 21.5201 15.9153 21.6463 15.2237C21.7118 14.8814 21.6943 14.3757 21.7118 13.9227C21.7287 13.4736 21.7846 13.0707 21.7482 12.8013C21.8986 12.9881 22.4618 13.5149 22.4812 14.6921C22.4982 15.8693 21.9425 17.4592 21.3526 18.3158C21.4966 18.3571 21.8697 18.4057 22.253 17.7398C22.6364 17.0739 22.6318 16.888 22.7702 16.6112C22.7871 16.7496 22.7822 16.7981 22.7822 16.7981C22.7822 16.7981 23.3406 16.1209 23.605 15.2689C23.6585 15.6355 23.8162 15.9584 23.5686 16.6307C23.3478 17.2374 23.059 17.3856 23.059 17.3856C23.059 17.3856 23.2022 17.3613 23.4132 17.235C23.4497 17.3248 23.4425 17.427 23.5031 17.4632C23.5638 17.4993 23.6463 17.5603 23.6585 17.6185C23.7239 17.5214 23.8258 17.3976 23.8575 17.3054C23.8332 17.4974 23.8162 18.3369 23.9055 18.7641C24.0926 18.7472 24.2842 18.735 24.4153 18.3976C24.3255 18.7278 24.3255 18.9267 24.3862 19.2083C24.4857 19.1405 24.5754 19.019 24.5754 19.019L24.5761 19.0195Z" fill="#C0993A"/>
<path fill-rule="evenodd" clip-rule="evenodd" d="M18.2696 5.64081C18.2696 5.64081 18.0827 5.71841 17.7648 5.71841C17.4881 5.71841 17.5657 5.61169 17.1337 5.61169C16.4688 5.61169 14.1459 5.99569 13.7381 5.99025C13.4734 5.98545 14.6312 6.10433 14.6312 6.10433L17.5901 6.14561L18.1846 6.09761L18.4056 5.64801L18.2696 5.64081Z" fill="#A88F33"/>
<path fill-rule="evenodd" clip-rule="evenodd" d="M10.5969 11.4248C10.5969 11.4248 10.2182 11.7136 10.0581 11.9345C9.8979 12.1555 9.81294 12.3009 9.63086 12.4806C9.6736 12.4823 9.7163 12.4765 9.7571 12.4637C9.7571 12.4637 9.7571 12.5117 9.72798 12.5243C9.75314 12.5215 9.77862 12.5243 9.80254 12.5326C9.82646 12.5409 9.84822 12.5545 9.86622 12.5723C9.81278 12.6014 9.66718 12.7472 9.78126 12.9195C9.86622 13.0505 10.0459 13.0625 10.0459 13.0625C10.0459 13.0625 10.0046 13.1816 10.1769 13.1694C10.5483 13.1525 10.9633 12.9897 11.155 13.031C11.347 13.079 11.4561 13.0966 11.592 13.3321C11.736 13.5651 11.8614 13.6016 11.8614 13.6016C11.8614 13.6016 11.9464 13.3854 11.927 13.0627C11.9967 12.8887 12.0353 12.7039 12.0411 12.5166L11.9149 11.587L11.364 10.8904L10.6504 11.2861L10.5969 11.4243V11.4248Z" fill="#E3C571"/>
<path fill-rule="evenodd" clip-rule="evenodd" d="M11.2744 11.2864C11.2744 11.2864 11.3279 11.4126 11.5512 11.4246C11.5269 11.478 11.5269 11.4854 11.5343 11.5265C11.5391 11.5678 11.5463 11.6284 11.5463 11.6284C11.5708 11.6165 11.5931 11.6003 11.6119 11.5804C11.624 11.6339 11.5997 11.7187 11.6119 11.7795C11.6194 11.8165 11.6316 11.8523 11.6482 11.8862C11.6517 11.8779 11.6558 11.8698 11.6603 11.862C11.6651 11.8499 11.7083 11.9931 11.8279 12.102C11.8277 12.0853 11.8319 12.0688 11.8399 12.054C11.8417 12.0845 11.8518 12.1138 11.869 12.139C11.86 12.1347 11.8519 12.129 11.8448 12.122C11.8448 12.122 11.8568 12.506 11.9224 12.7046C11.9334 12.6918 11.9431 12.678 11.9515 12.6633C11.9515 12.6513 11.9467 12.7702 11.9346 12.8553C11.9176 12.9403 11.9298 13.0592 11.9298 13.0592C11.9735 13.0247 12.0216 12.9962 12.0728 12.9742C12.1456 12.9449 12.2648 12.8552 12.3375 12.6561C12.3796 12.5434 12.4121 12.4273 12.4346 12.3091C12.458 12.3543 12.4742 12.4029 12.4826 12.4531C12.4875 12.5137 12.6016 12.4822 12.6016 12.4822L12.6259 12.2176L12.7699 11.618L12.901 11.2467L13.532 10.2638L14.6722 9.38573L15.6674 9.61389L16.5071 8.47309L15.0605 7.60413L13.6915 7.74733L12.4491 9.46813L11.4541 11.0289L11.2744 11.2862V11.2864Z" fill="#D8B65B"/>
<path fill-rule="evenodd" clip-rule="evenodd" d="M18.4443 8.79611C18.4443 8.79611 18.3594 8.81307 18.1143 8.94011C17.8692 9.06715 17.6992 9.10747 17.6045 9.29435C17.5098 9.48123 17.5026 9.62939 17.5026 9.62939C17.5026 9.62939 17.6701 9.55659 17.7672 9.53227C17.8692 9.50811 17.9832 9.51531 17.9711 9.55659C17.9594 9.58489 17.9432 9.61111 17.9231 9.63419C17.9231 9.63419 18.1151 9.62939 18.11 9.72411C18.1048 9.81883 18.0736 9.92315 18.0373 9.96923C18.0008 10.0172 17.8504 10.0883 17.8335 10.1441C17.7922 10.2582 17.8504 10.263 17.8285 10.3551C17.8116 10.4451 17.7316 10.6198 17.4693 10.9255C17.1999 11.2315 17.0853 11.4475 17.0853 11.4475C17.0853 11.4475 16.9543 11.2023 16.8863 10.9911C16.8383 11.0153 16.5805 11.1585 16.5805 11.1585L15.9834 9.07851L15.9954 8.94011C15.9954 8.94011 16.0488 8.87467 16.061 8.75323C15.9712 8.72411 15.9591 8.69979 15.84 8.58587C15.721 8.47195 15.624 8.33339 15.4252 8.23867C15.396 8.18523 15.3596 8.11259 15.214 8.08331C15.0684 8.05403 14.981 8.03003 14.981 8.03003C14.981 8.03003 15.0586 8.00075 15.0951 7.94011C15.0052 7.95227 14.9325 7.98139 14.7359 7.97659C14.5368 7.97163 14.5149 7.96443 14.4058 7.98139C14.2967 7.99835 14.1658 8.04699 14.117 7.87947C14.0636 7.83819 13.9495 7.87467 13.8524 8.01771C13.7553 8.16075 13.7213 8.27499 13.5345 8.33083C13.5213 8.41321 13.4925 8.49229 13.4495 8.56379C13.3961 8.65371 13.3111 8.74347 13.197 8.87691C13.0173 9.08811 13.0465 9.43515 12.7601 9.69979C12.4713 9.96427 12.8081 8.96667 12.8081 8.96667L13.2692 7.86267L14.5823 6.57867L16.6212 6.44043L16.8202 7.49643L17.8154 7.83867L18.444 8.79739L18.4443 8.79611Z" fill="#D3AE4D"/>
<path fill-rule="evenodd" clip-rule="evenodd" d="M18.767 9.02914L17.9102 7.79378L17.3107 7.3325C17.3107 7.3325 16.8835 6.54626 16.8544 6.52194C16.8301 6.50498 16.4272 6.4613 16.17 6.44434L16.218 6.56322C16.2741 6.58146 16.324 6.61511 16.362 6.66034C16.476 6.79138 16.5488 7.0389 16.2892 7.30354C16.3911 7.33986 16.4331 7.35154 16.5221 7.33986C16.4323 7.44674 16.2285 7.6749 16.2164 7.87394C16.2042 8.0365 16.3061 8.08498 16.3061 8.08498C16.3061 8.08498 16.1508 8.26466 16.1436 8.56498C16.2169 8.48224 16.2972 8.40591 16.3835 8.33682C16.5632 8.19282 16.8107 8.0309 16.9783 7.92898C16.976 7.97175 16.9817 8.01457 16.9952 8.05522C16.9952 8.05522 17.3082 7.79794 17.5712 7.91202C17.6901 7.96546 17.6366 8.13298 17.6366 8.13298C17.6366 8.13298 17.7994 8.07234 17.9134 8.18642C18.0275 8.3005 18.1901 8.5941 18.2726 8.70834C18.309 8.76178 18.4037 8.8637 18.5006 9.0213C18.6331 9.24221 18.7437 9.47553 18.8309 9.71794C18.8357 9.62082 18.8552 9.48498 19.0229 9.48498L18.768 9.02866L18.767 9.02914Z" fill="#CAA13E"/>
<path fill-rule="evenodd" clip-rule="evenodd" d="M5.92246 12.5389C5.92246 12.5389 5.86182 12.3884 5.92246 12.0948C5.9831 11.8012 6.07782 11.6628 6.10934 11.2308C6.14086 10.7988 6.42246 10.2599 6.42246 10.2599L7.20151 9.90564L7.75256 10.056L7.91512 10.794L7.21847 11.178C7.21847 11.178 7.18215 11.3405 6.98551 11.4716C6.78887 11.6026 6.51703 11.7045 6.45159 11.8381C6.41246 11.9199 6.38391 12.0064 6.36662 12.0954C6.36662 12.0954 6.16758 12.0541 6.0487 12.1852C5.92246 12.3188 5.92726 12.4376 5.92246 12.5396V12.5389Z" fill="#F4EFC8"/>
<path fill-rule="evenodd" clip-rule="evenodd" d="M7.49515 12.3423C7.49515 12.3423 7.42955 12.3836 7.38107 12.4863C7.33307 12.4087 7.21835 11.9474 7.21355 11.5324C7.20875 11.1173 7.18395 11.0145 7.27995 10.8714C7.37595 10.7284 7.75243 10.5777 7.69899 10.3201C7.64555 10.075 7.42219 9.97304 7.14795 10.0434C6.95595 10.0914 6.81307 10.4998 6.61403 10.7036C6.46347 10.859 6.28395 10.8346 6.23547 10.9196C6.16987 11.0337 6.23051 11.1477 6.21115 11.2205C6.20619 11.2449 6.14555 11.3759 6.03627 11.5337C5.81547 11.8516 5.44171 12.3007 5.39307 12.7036C5.41003 12.4754 5.39803 12.4706 5.45867 12.2181L5.42219 12.1575L5.66219 11.3711L5.81755 10.7231L6.16475 9.638L6.77627 8.52889L7.37099 7.86377L7.98987 7.90505L8.06267 8.83464L8.41707 10.5799L9.16219 11.4973L7.96795 12.301L7.49467 12.3423H7.49515Z" fill="#EBCC73"/>
<path fill-rule="evenodd" clip-rule="evenodd" d="M7.86679 12.6721C7.86679 12.6721 7.76487 12.6964 7.72839 12.677C7.69191 12.6577 7.65575 12.6358 7.66775 12.6114C7.67975 12.5871 7.74535 12.546 7.74535 12.5265C7.74669 12.5088 7.74112 12.4914 7.72979 12.4778C7.71847 12.4642 7.7023 12.4555 7.68471 12.4537C7.62887 12.4465 7.61191 12.4828 7.61191 12.4828C7.61191 12.4828 7.55847 12.4417 7.51495 12.4348C7.5407 12.4316 7.56661 12.43 7.59255 12.4298C7.52547 12.3994 7.45432 12.379 7.38135 12.3692C7.44199 12.3329 7.56103 12.226 7.63863 12.226C7.71623 12.226 7.76487 12.214 7.75271 12.1727C7.74055 12.1314 7.67991 12.0708 7.61447 12.0465C7.63863 12.0173 7.65575 11.9737 7.59751 11.8545C7.53671 11.7356 7.56103 11.6554 7.58055 11.6265C7.59751 11.59 7.65815 11.5245 7.68727 11.4833C7.71639 11.442 7.74071 11.3861 7.78919 11.357C7.81351 11.34 7.89111 11.309 7.96887 11.2794C8.05383 11.2503 8.12423 11.2138 8.17271 11.2503C8.22615 11.2866 8.20183 11.3352 8.20183 11.3352C8.20183 11.3352 8.36935 11.2744 8.51975 11.3522C8.67031 11.4249 9.03687 11.4711 9.03687 11.4711L9.16823 11.7357L8.29927 12.4809L7.94007 12.6606L7.86727 12.6726L7.86679 12.6721Z" fill="#E5C66B"/>
<path fill-rule="evenodd" clip-rule="evenodd" d="M9.07258 11.4539C9.07258 11.4539 8.80314 11.6336 8.7425 11.699C8.77882 11.704 8.83946 11.7283 8.81514 11.7646C8.78602 11.8009 8.6113 11.9272 8.51418 12.0462C8.41226 12.1651 8.31514 12.3156 8.28122 12.3884C8.2449 12.4539 7.9681 12.6457 7.87354 12.6699C8.07258 12.6699 8.47306 12.4248 8.62346 12.4248C8.61866 12.4976 8.66474 12.5801 8.7497 12.5873C8.83466 12.5945 9.07978 12.6408 9.40986 12.4369C9.73994 12.2379 9.63082 12.0897 9.76906 11.9928C10.0337 11.8179 10.1404 11.6625 10.286 11.5656C10.4316 11.4686 10.507 11.4465 10.507 11.4465C10.507 11.4465 10.5118 11.3737 10.555 11.3811C10.5668 11.3824 10.578 11.387 10.5874 11.3943C10.5969 11.4016 10.6041 11.4113 10.6084 11.4224C10.6084 11.4224 10.8609 11.2427 11.1844 11.1942C11.1769 11.1908 11.1708 11.1848 11.1675 11.1772C11.1675 11.1772 11.1916 11.1651 11.1966 11.1529C11.1966 11.1529 11.2135 11.1286 11.2257 11.1408C11.2379 11.1529 11.2548 11.2427 11.2791 11.2792C11.3326 11.2548 11.4345 11.0267 11.4345 11.0267L11.6798 10.3252V9.68445L11.4878 9.72093L10.0478 10.3324L9.17386 11.2379L9.07194 11.4539H9.07258Z" fill="#E6BD62"/>
<path fill-rule="evenodd" clip-rule="evenodd" d="M13.2185 8.31076C13.2964 8.29186 13.3711 8.26156 13.4401 8.22084C13.411 8.2986 13.411 8.38356 13.2847 8.56804C13.1585 8.75252 13.1537 8.77924 13.0518 8.97091C12.9499 9.16995 12.9377 9.45635 12.8406 9.58243C12.8841 9.56128 12.9308 9.54739 12.9788 9.54131C12.9788 9.54131 12.8819 9.62627 12.8406 9.71603C12.7993 9.80579 12.7265 9.99267 12.547 10.1069C12.3675 10.2211 12.1391 10.2938 11.894 10.5632C11.6487 10.8277 11.3964 11.1627 11.27 11.2832C11.3356 11.1691 11.4254 10.941 11.4497 10.7906C11.474 10.6402 11.4447 10.4603 11.486 10.2615C11.5273 10.0626 11.5273 9.91923 11.726 9.57203C11.9247 9.22483 12.2649 8.0186 12.2649 8.0186L12.9979 7.78564L13.2188 8.30996L13.2185 8.31076Z" fill="#B6933F"/>
<path fill-rule="evenodd" clip-rule="evenodd" d="M12.6891 7.86651C12.6891 7.86651 12.4683 8.18443 12.4077 8.46603C12.347 8.74763 12.4027 8.72331 12.3664 8.86171C12.3447 8.94609 12.3447 9.0346 12.3664 9.11899C12.4429 8.99579 12.5476 8.89258 12.6718 8.81787C12.8806 8.69179 13.0505 8.60187 13.1518 8.49515C13.2537 8.38107 13.3387 8.19419 13.5595 8.05099C13.4697 8.03883 13.3435 7.99755 13.3195 8.00299C13.4094 7.90107 13.6787 7.74571 13.9505 7.55883C14.22 7.36683 14.203 7.28939 14.64 7.09771C14.4968 7.12203 14.4288 7.08555 14.3097 7.09771C14.3577 6.99579 14.5257 6.94715 14.6937 6.77979C14.8617 6.61243 14.587 6.36475 14.587 6.36475L13.307 7.13899L12.6881 7.86715L12.6891 7.86651Z" fill="#C49937"/>
<path fill-rule="evenodd" clip-rule="evenodd" d="M9.21582 7.2888L9.24494 7.05584L9.6115 6.46848L9.99502 5.43696V4.02673L9.9659 3.21121L10.0265 2.67713L10.0726 2.50737L10.1213 2.44177L10.4342 2.60433L10.8664 3.19169L10.9077 4.32529L10.4877 6.11408L9.28862 7.4224L9.21582 7.2888Z" fill="#DFC068"/>
<path fill-rule="evenodd" clip-rule="evenodd" d="M10.1701 2.37613C10.1701 2.37613 9.97814 2.38109 9.93718 3.17966C9.89622 3.97822 9.87638 4.39806 9.84726 4.79374C9.81814 5.18943 9.7503 5.42959 9.71622 5.66271C9.68214 5.89583 9.66278 6.21359 9.55366 6.40783C9.50566 6.49759 9.4031 6.77919 9.16278 6.99039C8.89334 7.22335 8.49078 7.38608 8.42982 7.39824C8.32294 7.4224 7.78166 7.47584 7.56086 7.59728C7.48326 7.63856 7.34966 7.68704 7.20166 7.82544C6.9079 8.08992 6.51718 8.5632 6.23558 9.1336C5.80358 9.98561 5.37158 12.3909 5.37158 12.3909L5.4687 12.2283C5.4687 12.2283 5.48086 12.0123 5.69686 11.6336C5.90806 11.2551 5.84742 10.8303 6.14102 10.1045C6.2551 9.82785 6.3983 9.46864 6.57302 9.16272C6.84982 8.66512 7.1847 8.23792 7.52214 8.00496C8.07302 7.6264 8.6799 7.54384 8.6799 7.54384L9.33286 7.11183C9.33286 7.11183 9.44694 6.89103 9.5975 6.63855C9.80854 6.28431 10.0775 5.88863 10.1362 5.31343C10.2261 4.46142 10.01 3.90318 10.0221 3.39838C10.0343 2.89358 10.0391 2.52221 10.1412 2.43229C10.2433 2.34237 10.1703 2.37645 10.1703 2.37645L10.1701 2.37613Z" fill="#A88F33"/>
<path fill-rule="evenodd" clip-rule="evenodd" d="M10.1698 6.18682C10.1698 6.18682 10.4578 5.47802 10.5896 4.84938C10.6139 4.72314 10.6624 4.59706 10.6746 4.49514C10.7352 3.90042 10.7522 3.6553 10.6746 3.33002C10.6139 3.09002 10.381 2.8737 10.2595 2.70602C10.1406 2.53114 10.0848 2.46602 10.1091 2.42922C10.1334 2.39242 10.228 2.33226 10.3202 2.33946C10.4181 2.34231 10.5145 2.36506 10.6034 2.40632C10.6923 2.44757 10.7719 2.50648 10.8373 2.57946C11.0242 2.79546 11.1722 3.52858 11.1722 3.52858L11.3279 4.49594L11.7235 5.71434L10.1701 6.18778L10.1698 6.18682Z" fill="#C99E3D"/>
<path fill-rule="evenodd" clip-rule="evenodd" d="M12.8764 5.44914C12.8764 5.44914 12.8229 5.4733 12.726 5.44914C12.7301 5.48876 12.7232 5.52875 12.7061 5.56472C12.6889 5.60069 12.6622 5.63122 12.6288 5.65298C12.5269 5.6117 11.5728 5.69426 11.5728 5.69426C11.5728 5.69426 11.1287 5.6165 10.9903 5.02914C10.8933 4.63826 11.0631 4.09953 11.0072 3.74513C10.9223 3.22321 10.8034 3.12113 10.7912 2.95873C10.7791 2.79633 10.7669 2.75489 10.7669 2.65297C10.7135 2.64081 10.682 2.62385 10.6287 2.62385C10.6165 2.57585 10.6407 2.53393 10.5874 2.44897C10.6165 2.46113 10.8156 2.48545 11.0485 2.70625C11.2405 2.88593 11.2405 2.95137 11.2695 2.98785C11.3058 3.02417 11.5996 3.27585 11.7258 3.52673C11.852 3.77761 12.0972 4.57762 12.153 4.70866C12.17 4.7621 12.2064 4.81553 12.297 4.93681C12.4378 5.11169 12.644 5.40082 12.877 5.44881L12.8764 5.44914Z" fill="#B58634"/>
<path fill-rule="evenodd" clip-rule="evenodd" d="M11.3037 3C11.4507 3.23752 11.5828 3.48397 11.6992 3.73792C11.8424 4.06064 11.9274 4.32528 12.1071 4.54128C12.01 4.25984 11.8376 3.7064 11.7357 3.50976C11.6216 3.30176 11.3887 3.07776 11.3037 3.00016V3Z" fill="#A88F33"/>
<path fill-rule="evenodd" clip-rule="evenodd" d="M9.65303 6.99039C9.65303 6.99039 9.40791 7.05103 8.95159 7.29135C8.80103 7.36895 8.658 7.43439 8.5196 7.49519C8.16008 7.65775 7.77448 7.80799 7.46856 7.89087C7.49288 7.91999 7.50488 7.93199 7.50488 7.93199C7.50488 7.93199 7.50488 8.05103 7.57048 8.11887C7.53416 8.15535 7.04856 8.48543 7.19192 9.58975C7.28888 9.55343 7.40296 9.50479 7.41992 9.50479C7.4492 9.50975 7.4564 9.58975 7.49272 9.58975C7.52904 9.58975 7.64808 9.54175 7.77432 9.37855C7.76952 9.44415 7.69672 10.1043 8.08744 10.5485C8.16024 10.4635 8.34472 10.1819 8.34472 10.1819L8.34952 10.0922C8.34952 10.0922 8.36648 9.77903 8.46856 9.49263C8.57064 9.20623 8.76952 8.99503 8.76952 8.99503L9.80807 7.51199L9.65271 6.99023L9.65303 6.99039Z" fill="#E6C367"/>
<path fill-rule="evenodd" clip-rule="evenodd" d="M8.68205 9.16805C8.6345 9.20165 8.58212 9.22782 8.52669 9.24565C8.50973 9.18501 8.48541 8.97621 8.62861 8.77237C8.79613 8.52709 9.16253 8.20917 9.26445 7.95637C9.33005 7.79365 9.30093 7.38597 9.88349 6.86405C10.4661 6.34213 10.6941 6.16261 10.6941 6.16261L11.6358 5.68933L12.7936 6.14565L12.2184 8.40005L11.7718 9.45605L9.99581 9.12117L8.68189 9.16805H8.68205Z" fill="#DCBA5A"/>
<path fill-rule="evenodd" clip-rule="evenodd" d="M9.35986 8.55579L9.58082 8.27915V8.08251C9.58082 8.08251 9.82595 8.01691 10.0904 7.74747C10.3549 7.47803 10.7215 6.96107 11.0444 6.99259C11.3672 7.02907 11.3988 7.69403 11.4109 7.88107C11.4231 8.06811 11.4644 8.49259 11.5298 8.72091C11.6026 8.94907 10.7434 9.81307 10.7434 9.81307L10.1599 10.2572L9.35986 8.55579Z" fill="#E9CE77"/>
<path fill-rule="evenodd" clip-rule="evenodd" d="M10.0435 10.8593C10.0435 10.8593 10.2231 10.5777 10.0915 10.517C10.1691 10.3423 10.3123 10.1578 10.3123 10.1578C10.3123 10.1578 10.4142 9.9055 10.7442 9.59478C11.0743 9.28406 11.2783 9.07766 11.3317 8.86902C11.3647 8.73304 11.3826 8.59386 11.3852 8.45398C11.4209 8.48313 11.459 8.5091 11.4993 8.53158C11.5527 8.5559 11.805 8.76454 11.7687 9.18454C11.7324 9.60454 11.5767 9.77926 11.5767 9.77926C11.5767 9.77926 11.4263 9.92966 11.3196 10.0074C11.2054 10.085 11.1642 10.1748 10.9724 10.1821C10.9921 10.1665 11.0143 10.1541 11.038 10.1457C11.038 10.1457 10.839 10.1215 10.7321 10.2185C10.6252 10.3154 10.398 10.6141 10.2839 10.7041C10.1699 10.7769 10.0439 10.8594 10.0439 10.8594L10.0435 10.8593Z" fill="#CDAE50"/>
<path fill-rule="evenodd" clip-rule="evenodd" d="M18.1143 6.13824C17.8275 6.03373 17.5261 5.97477 17.2211 5.96352C16.7114 5.94656 15.9663 5.97568 15.2357 5.98048C14.4493 5.98528 13.7357 5.71104 12.7455 5.66256C12.5829 5.56544 12.1695 5.14064 10.8789 6.04112C10.9565 6.03632 11.8159 5.84208 12.1143 6.216C12.4152 6.58736 12.3303 7.2184 12.2891 7.3688C12.2114 7.70384 11.9589 8.19168 11.8571 8.53392C11.7554 8.87616 11.7794 9.056 11.7066 9.296C11.6338 9.536 11.4736 9.6552 11.5682 9.93184C11.6944 9.85424 11.7602 9.85424 11.9711 9.38096C12.1819 8.90768 12.1386 8.57024 12.4882 8.16976C12.8304 7.76688 13.4002 7.21584 13.6168 7.07744C13.8335 6.93904 15.5536 6.04592 17.3547 6.89792C17.7891 6.85184 18.1144 6.13808 18.1144 6.13808L18.1143 6.13824Z" fill="#D2A83E"/>
<path fill-rule="evenodd" clip-rule="evenodd" d="M11.6042 5.80803C11.6025 5.78979 11.5984 5.77184 11.5922 5.75459C11.5754 5.71909 11.5533 5.68635 11.5266 5.65747C11.5266 5.65747 11.0994 5.57987 10.8834 5.60403C10.5047 5.64531 10.1624 6.11379 10.0023 6.35411C9.84212 6.59444 9.64308 6.96564 9.42707 7.15748C9.42944 7.13879 9.42513 7.11987 9.41491 7.10404C9.41491 7.10404 9.42707 7.121 9.40291 7.14532C9.37875 7.16964 9.37859 7.18164 9.39075 7.19332L9.42723 7.22964C9.43923 7.22964 9.77428 7.07908 10.2306 6.65364C10.7161 6.20947 11.0874 5.98163 11.2817 5.90355C11.3853 5.85953 11.4935 5.82748 11.6044 5.80803H11.6042Z" fill="#C29637"/>
<path fill-rule="evenodd" clip-rule="evenodd" d="M19.8909 3.98303C19.8909 3.98303 19.8132 4.07999 19.7161 4.18687C19.5001 4.41503 19.2185 4.67215 18.9781 4.93679C18.7501 5.18927 18.4929 5.38591 18.2039 5.71599C17.9149 6.04607 17.5799 6.41247 17.4951 6.51935C17.4175 6.62623 17.3569 6.80095 17.3569 6.89071C17.3156 6.86159 17.2671 6.83007 17.2671 6.83007C17.2875 6.86818 17.3119 6.90401 17.3399 6.93695C17.4005 7.02191 17.4951 7.12895 17.5437 7.19423C17.6034 7.27734 17.6462 7.37132 17.6698 7.47087C17.6989 7.47567 17.8858 7.51215 18.1189 7.12863C18.3521 6.74511 18.6577 6.32527 18.6577 6.32527L19.1431 5.60431L19.449 4.99279L19.833 4.30831L19.8914 3.98303H19.8909Z" fill="#AC8132"/>
<path fill-rule="evenodd" clip-rule="evenodd" d="M20.3885 3.4928C20.3885 3.4928 20.0948 3.7328 19.9807 3.8768C19.8666 4.0208 19.5967 4.39872 19.5967 4.39872L19.6938 4.38656L20.1866 3.94976L20.3786 3.60752L20.3884 3.49344L20.3885 3.4928Z" fill="#A88F33"/>
<path fill-rule="evenodd" clip-rule="evenodd" d="M20.2986 22.7815C20.2986 22.7815 20.2938 22.5825 20.4055 22.4636C20.5196 22.3446 20.8084 22.1699 21.09 21.5145C21.3716 20.8591 21.403 20.7111 21.403 20.7111C21.403 20.7111 20.8982 21.1431 20.587 21.2451C20.6598 21.0945 20.701 20.9878 20.7375 20.91C20.6962 20.8737 20.5215 20.8324 20.5046 20.8131C20.6015 20.7159 20.655 20.478 20.8516 20.3203C21.1041 20.1283 21.5652 19.7983 21.9236 19.5043C22.282 19.2102 22.9866 18.5262 23.0766 18.3271C23.13 18.4047 23.142 18.4532 23.142 18.4532C23.142 18.4532 22.7878 18.9145 22.6033 19.2081C22.4406 19.4606 22.4527 19.6038 22.4527 19.6038L22.7878 19.4598C22.7878 19.4598 22.8847 19.819 22.4455 20.3652C22.6375 20.2924 22.715 20.3361 22.8241 20.2753C22.6444 20.3895 22.3969 20.5449 22.1639 20.9719C21.9358 21.3991 21.625 21.8967 21.1009 22.2073C20.5911 22.535 20.2974 22.7801 20.2974 22.7801L20.2986 22.7815Z" fill="#A67A2E"/>
<path fill-rule="evenodd" clip-rule="evenodd" d="M18.983 6.39082C18.983 6.39082 18.7839 6.8057 18.7548 7.12858C18.75 7.20634 18.7305 7.26698 18.7305 7.35674C18.7257 7.64554 18.7474 7.96842 18.6825 8.11882C18.6582 8.05818 18.646 8.0169 18.6217 7.99274C18.5854 8.09466 18.5198 8.41258 18.4663 8.53146C18.4422 8.45386 18.3887 8.18442 18.3937 7.8665C18.3986 7.54858 18.4057 7.48778 18.4057 7.42234C18.3937 7.5193 18.3281 7.6505 18.3038 7.7281C18.2675 7.66266 18.2262 7.5777 18.1775 7.5073C18.1484 7.5553 18.1121 7.62618 18.0806 7.66266C18.0756 7.63354 18.0636 7.55578 18.0563 7.44666C18.0515 7.32042 18.0441 7.15786 18.0515 7.12378C18.0635 7.05834 18.1655 6.80106 18.3815 6.56554C18.6388 6.28394 18.9034 5.74282 18.981 5.5753C19.0586 5.40778 19.3887 4.7113 19.3887 4.7113H19.6412L19.2746 5.54618C19.2746 5.54618 19.0538 6.0025 18.9398 6.17018C18.8257 6.33786 18.5854 6.81834 18.4785 7.00522C18.5561 6.9033 18.6217 6.84986 18.6994 6.75274C18.7746 6.68474 18.9833 6.39114 18.9833 6.39114L18.983 6.39082Z" fill="#8C6228"/>
<path fill-rule="evenodd" clip-rule="evenodd" d="M20.3932 3.46106C20.352 3.58799 20.2868 3.70585 20.2012 3.80826C20.0507 3.98794 19.7278 4.2281 19.5702 4.41978C19.4262 4.60666 19.1382 5.11642 19.2691 5.72074C19.3171 5.5897 19.4075 5.33002 19.6478 5.03626C19.8881 4.7425 20.1454 4.40522 20.2718 4.14314C20.3979 3.8785 20.4148 3.66986 20.4148 3.66986L20.4628 3.60922L20.4337 3.47082L20.3924 3.46106H20.3932Z" fill="#CBA94C"/>
<path fill-rule="evenodd" clip-rule="evenodd" d="M25.3085 19.5606C25.3085 19.5606 25.2114 19.2961 25.1823 19.0558C25.1531 18.8155 25.2303 18.7678 25.141 18.4927C25.0875 18.3252 24.9906 18.3487 24.9663 18.3252C24.9419 18.3017 24.925 18.0486 24.9298 17.9102C24.9346 17.7718 24.925 17.5923 24.9007 17.5145C24.8643 17.4854 24.84 17.4611 24.7866 17.2815C24.7259 17.1019 24.6968 17.0121 24.6677 16.9588C24.6386 16.9055 24.5535 16.8569 24.5535 16.8035C24.5535 16.6966 24.6506 16.6409 24.6506 16.6115C24.6458 16.5508 24.573 16.5995 24.5535 16.5823C24.5293 16.5532 24.6143 16.3785 24.5827 16.3542C24.5706 16.3422 24.4856 16.4441 24.4637 16.415C24.4394 16.3857 24.4103 16.0969 24.3666 15.9052C24.3255 15.7184 24.2816 15.5825 24.2768 15.5267C24.272 15.4732 23.9418 14.5315 23.8618 14.3033C23.7973 14.1105 23.743 13.9145 23.6992 13.716C23.6749 13.6019 23.6579 13.3688 23.6458 13.3931C23.6336 13.4174 23.641 13.5363 23.6215 13.5315C23.6045 13.5265 23.5439 13.1116 23.5245 13.046C23.5075 12.9804 23.4055 12.758 23.3805 12.5971C23.3562 12.4344 23.3029 12.0096 23.2664 11.7208C23.2299 11.432 23.213 11.3131 23.213 11.2408C23.2189 11.0639 23.2092 10.8868 23.1839 10.7117C23.1359 10.4057 23.0399 10.0344 22.9557 9.81854C22.7931 9.4107 22.361 8.36703 22.2837 8.10735C22.2837 8.04175 22.3687 8.07823 22.3687 8.07823C22.3687 8.07823 22.5797 8.60735 22.7351 9.01502C22.8856 9.42286 23.0288 9.78206 23.0653 9.81854C23.0944 9.85486 23.3226 10.2553 23.4245 10.9107C23.5264 11.5661 23.5627 12.1704 23.6235 12.5732C23.6527 12.7652 23.677 12.9689 23.7376 13.1728C23.8031 13.3937 23.905 13.6219 24.0386 13.9713C24.1527 14.2651 24.2376 14.5102 24.2837 14.7214C24.3371 14.9908 24.3371 15.1947 24.3687 15.3283C24.3979 15.4424 24.4415 15.6704 24.5435 16.0003C24.6456 16.3302 24.7959 16.7551 24.8978 17.0196C25.097 17.5487 25.1858 17.9905 25.2159 18.226C25.2424 18.4687 25.3323 19.3086 25.308 19.5609L25.3085 19.5606Z" fill="#A88F33"/>
<path fill-rule="evenodd" clip-rule="evenodd" d="M20.4055 3.43196L20.3934 3.46108C20.3934 3.46108 20.4297 3.47324 20.4225 3.52188C20.423 3.58843 20.4189 3.65493 20.4103 3.72092C20.3983 3.80588 20.374 3.87132 20.3692 3.92476C20.3692 4.03884 20.3862 4.16988 20.2252 4.49516C20.1772 4.58492 20.1476 4.66252 20.1233 4.71597C20.0627 4.84701 20.0505 4.86653 19.9971 4.92717C20.082 4.87917 20.3879 4.68717 20.5431 4.71597C20.4364 4.77661 20.2737 4.89565 20.1718 5.05101C20.1961 5.05581 20.298 5.07533 20.4598 5.05101C20.7292 5.00973 21.0302 4.91261 21.2946 4.93197C21.5836 4.94893 21.4695 4.58492 21.4695 4.58492L21.1361 3.85196L20.5051 3.40796L20.4055 3.43212V3.43196Z" fill="#BE9C44"/>
<path fill-rule="evenodd" clip-rule="evenodd" d="M22.0509 8.92247C22.0509 8.92247 21.7693 8.64087 21.6552 7.67446C21.5412 6.70357 21.5655 5.27444 21.5655 5.27444L21.3373 4.7162C21.3373 4.7162 21.2893 4.34483 21.1698 4.20659C21.0503 4.06835 20.8156 3.83523 20.7087 3.72115C20.6018 3.60707 20.4805 3.45171 20.4077 3.42739C20.444 3.36675 20.6068 3.0245 21.2304 3.0197C21.8541 3.0149 22.0464 3.36195 22.1116 3.48819C22.1767 3.61443 22.4708 4.16019 22.5799 5.2002C22.6818 6.23893 22.6868 6.31669 22.6698 6.67589C22.6576 6.87493 22.592 7.33606 22.4778 7.8287C22.3735 8.2463 22.2594 8.71239 22.0506 8.92343L22.0509 8.92247Z" fill="#A17C34"/>
<path fill-rule="evenodd" clip-rule="evenodd" d="M21.168 9.75007C21.2619 9.75685 21.3556 9.73569 21.4375 9.68928C21.5272 9.68448 21.8525 9.72575 22.1025 9.40784C22.1194 9.48048 22.1633 9.67728 22.049 9.85199C22.1098 9.79119 22.1996 9.76703 22.2118 9.75007C22.2166 9.83983 22.3015 10.1165 21.9423 10.7888C22.0393 10.6821 22.1534 10.6869 22.2553 10.6747C22.2602 10.8009 22.3281 11.2256 22.1486 11.4539C22.0297 11.6093 21.8354 11.5606 21.8354 11.5606C21.8383 11.5267 21.8383 11.4926 21.8354 11.4587C21.8306 11.3931 21.8063 11.3277 21.8234 11.284C21.7296 11.2411 21.6441 11.1819 21.5709 11.1091C21.3597 10.9101 21.0855 10.5704 21.0661 10.3179C21.0418 10.0363 21.2943 9.97567 21.2943 9.97567C21.2731 9.95675 21.2551 9.93461 21.2408 9.91007C21.2287 9.86895 21.2165 9.80335 21.168 9.75007Z" fill="#8C6228"/>
<path fill-rule="evenodd" clip-rule="evenodd" d="M19.2959 6.69665C19.2959 6.69665 19.2837 6.67969 19.2183 6.75729C19.2304 6.67969 19.2426 6.60673 19.2474 6.53633C19.2784 6.47116 19.3184 6.41071 19.3664 6.35681C19.3299 6.42945 19.3056 6.49505 19.3056 6.49505C19.3056 6.49505 19.3955 6.32753 19.5266 6.22561C19.6163 6.15281 19.7304 6.11889 19.7789 6.05089C19.8323 5.97809 19.8202 5.96593 19.8323 5.95377C19.8323 5.95377 19.9514 5.87617 20.1334 5.64785C20.1576 5.61873 20.1941 5.58721 20.2184 5.55809C20.2595 5.54113 20.3566 5.49745 20.4707 5.43905C20.5898 5.37361 20.7232 5.28385 20.8057 5.24705C20.9683 5.17425 21.1408 5.18161 21.2208 5.06737C21.2814 5.05041 21.3469 4.86833 21.3349 4.71313C21.4246 4.74945 21.8857 5.03585 22.0436 5.66209C22.1577 6.10625 21.9537 6.79073 21.8688 7.12097C21.7838 7.45121 21.7718 7.69617 21.6528 7.84657C21.5022 8.04577 21.0169 8.32657 20.8979 8.46561C20.796 8.57969 20.4902 8.86849 20.5022 9.07714C20.5144 9.23249 20.7061 9.31713 20.7475 9.34657C20.7889 9.37601 20.7886 9.41217 20.8664 9.39457C20.9441 9.37697 20.9731 9.34114 21.0048 9.34114C21.0411 9.34593 21.0411 9.3533 21.0581 9.3533C21.0704 9.35293 21.0826 9.35127 21.0945 9.34834C21.0945 9.34834 21.0824 9.5693 20.5654 9.63634C20.529 9.6413 20.4926 9.65329 20.4464 9.66065C20.5072 9.63153 20.5435 9.63153 20.6091 9.54177C20.5363 9.52961 20.3275 9.51746 20.2741 9.5005C20.291 9.47138 20.3469 9.39362 20.393 9.3573C20.4342 9.32098 20.3882 9.3093 20.3518 9.32818C20.2893 9.37072 20.2293 9.41688 20.1722 9.46642C20.1115 9.51986 20.0581 9.59266 19.961 9.65842C19.9318 9.5613 19.9366 9.37682 20.0509 9.24338C20.0216 9.24818 19.9658 9.33314 19.9125 9.31617C19.9029 9.22764 19.9086 9.13811 19.9294 9.05153C19.9586 8.94225 20.1163 8.75057 20.1163 8.75057L20.8784 7.38881L21.0409 6.35729L19.2959 6.69633V6.69665Z" fill="#92723A"/>
<path fill-rule="evenodd" clip-rule="evenodd" d="M19.2547 6.7549C19.2547 6.7549 19.2134 6.78402 19.296 6.83986C19.2838 6.85682 19.2547 6.91746 19.2182 6.95874C19.1771 7.00674 19.1332 7.0365 19.1163 7.07778C19.08 7.16274 19.0508 7.22098 19.0508 7.25746C19.0508 7.29394 19.0387 7.5269 18.9368 7.6773C18.9003 7.73074 18.859 7.8205 18.8299 7.88114C18.7692 7.98786 18.7158 8.07314 18.7036 8.12114C18.6795 8.2061 18.6625 8.43906 18.6625 8.43906C18.6625 8.43906 18.7159 8.37346 18.7353 8.3493C18.706 8.40994 18.6745 8.47538 18.6284 8.52402C18.6575 8.4997 18.7425 8.43906 18.8857 8.31282C19.0848 8.14546 19.3955 7.86386 19.7742 7.64082C19.66 7.6821 19.563 7.6821 19.4854 7.69426C19.5461 7.63362 20.0922 6.99282 20.3786 6.93218C20.396 6.91013 20.4046 6.88245 20.4029 6.85442L20.1576 6.83026L19.66 6.93698L19.5873 6.55298L19.2547 6.75442V6.7549Z" fill="#B18E3E"/>
<path fill-rule="evenodd" clip-rule="evenodd" d="M20.0462 8.93931C20.0462 8.93931 19.9806 9.00475 19.9199 9.16747C19.8732 9.11872 19.8332 9.064 19.8009 9.00475C19.7111 8.85435 19.5729 8.66251 19.25 8.77179C19.2452 8.66987 19.2378 8.61643 19.25 8.54363C19.3034 8.53163 19.466 8.40059 19.6286 8.20875C19.7428 8.07771 19.8495 7.92715 19.9223 7.73547C19.9703 7.69899 20.0534 7.63835 20.1623 7.56795C20.3177 7.46123 20.5046 7.31547 20.5337 7.15291C20.4609 7.18203 20.3055 7.25483 20.0724 7.24283C20.1623 7.20155 20.3006 7.15787 20.2836 6.97819C20.3201 6.95387 20.3492 6.93691 20.3492 6.93691C20.3218 6.92778 20.2931 6.92366 20.2642 6.92475C20.2593 6.90779 20.2521 6.88363 20.2108 6.89563C20.1695 6.90763 20.1628 6.90779 20.1573 6.92475C20.1404 6.92971 20.0845 6.92475 20.0433 6.95403C20.002 6.98331 19.8879 7.08011 19.8442 7.09707C19.8612 7.06795 19.8853 7.02443 19.8853 7.02443C19.8853 7.02443 19.7665 7.03643 19.6815 7.07243C19.5261 7.12587 19.3466 7.22299 19.1646 7.31755C19.1815 7.28843 19.1889 7.26955 19.2009 7.26411C19.2129 7.25867 19.2422 7.25211 19.2422 7.24715C19.2422 7.24219 19.2301 7.19915 19.2373 7.18171C19.2918 7.06639 19.356 6.95596 19.4293 6.85163C19.5143 6.73739 19.5313 6.57483 19.5313 6.57483L19.9026 6.38795L20.9463 6.14795L21.6236 6.18923L21.5386 6.65771L21.1386 7.47563L20.7964 8.22075L20.4055 8.67723L20.0463 8.93931H20.0462Z" fill="#543E26"/>
<path fill-rule="evenodd" clip-rule="evenodd" d="M21.7379 6.912C21.7379 6.912 21.3301 7.4168 21.216 7.49456C21.2888 7.3392 21.7379 6.4144 21.9005 6.15712C21.8641 6.128 21.8155 6.128 21.9296 5.67712C21.8326 5.90512 21.7985 6.02416 21.7185 6.0848C21.6385 6.14544 21.6286 6.12608 21.5745 6.12608C21.5848 6.10761 21.589 6.08641 21.5865 6.06544C21.5865 6.06544 21.2443 6.02416 21.0106 6.02416C20.7768 6.02416 20.3141 6.1504 20.0567 6.25232C19.8528 6.33728 19.7388 6.33728 19.666 6.39056C19.5932 6.4512 19.5519 6.5168 19.5154 6.53376C19.4863 6.55072 19.348 6.5944 19.3164 6.64048C19.2872 6.68848 19.2388 6.7424 19.2388 6.75456C19.2388 6.76672 19.2266 6.78384 19.2631 6.77152C19.2751 6.76672 19.365 6.71808 19.4669 6.65744C19.6052 6.57984 19.7727 6.49008 19.8941 6.43664C20.2411 6.29824 20.3504 6.32256 20.5056 6.29344C20.6682 6.26432 20.9013 6.19632 21.0565 6.19632C21.2118 6.19152 21.5056 6.19632 21.5736 6.20848C21.5445 6.2328 21.5202 6.26192 21.5323 6.36384C21.5323 6.39296 21.508 6.42448 21.4843 6.49488C21.4117 6.69392 21.2733 7.024 21.1963 7.19152C21.0896 7.41952 20.9683 7.61136 20.9083 7.73024C20.8483 7.84912 20.7163 8.16224 20.5856 8.32976C20.4549 8.49728 20.3866 8.5992 20.3456 8.63568C20.3047 8.67216 20.0106 8.888 20.0325 8.96576C20.0859 8.9488 20.4234 8.82176 20.6683 8.54592C20.9133 8.27008 20.9621 8.10176 21.1538 7.9512C21.3454 7.80064 21.496 7.54832 21.5857 7.33968C21.6609 7.14544 21.644 7.0848 21.7385 6.91248L21.7379 6.912Z" fill="#806031"/>
<path fill-rule="evenodd" clip-rule="evenodd" d="M12.9491 10.6797C12.9491 10.6797 12.8956 10.9005 12.7742 11.0098C12.6553 11.1167 12.4441 11.2088 12.4199 11.3885C12.3908 11.568 12.6311 11.6579 12.6311 11.6579C12.6311 11.6579 12.4999 11.8739 12.4999 12.0365C12.4999 12.204 12.4951 12.2355 12.5121 12.3957C12.4928 12.4081 12.4765 12.4245 12.4641 12.4437C12.4641 12.4437 12.4761 12.5991 12.5951 12.696C12.7142 12.793 12.8159 12.8514 12.8766 12.8271C12.8858 12.8469 12.894 12.8672 12.9009 12.8879C12.9009 12.8879 12.9908 12.6597 13.0515 12.4607C13.1121 12.2568 13.1655 12.2858 13.1897 12.0115C13.2139 11.7373 13.4777 11.2664 13.4777 11.2664L13.6577 10.864L13.3641 10.6359L12.9491 10.6795V10.6797Z" fill="#B6903C"/>
<path fill-rule="evenodd" clip-rule="evenodd" d="M13.4952 11.0752C13.4347 11.1373 13.3788 11.2039 13.328 11.2742C13.2504 11.3811 13.1898 11.4781 13.0757 11.5195C12.9616 11.561 12.8888 11.5606 12.896 11.6749C12.9032 11.7891 13.0101 11.8374 13.0707 11.8957C13.1363 11.9563 13.1898 12.0582 13.1606 12.1725C13.197 12.1555 13.2626 12.136 13.3232 12.005C13.3838 11.8739 13.808 11.0754 13.808 11.0754H13.4952V11.0752Z" fill="#685026"/>
<path fill-rule="evenodd" clip-rule="evenodd" d="M15.1678 9.23301C15.1678 9.23301 15.2041 9.13605 15.1678 9.06565C15.1313 8.99285 14.9105 8.96853 14.8012 8.88597C14.6872 8.80101 14.5488 8.74197 14.4347 8.77925C14.4516 8.73797 14.5196 8.64805 14.4638 8.62869C14.4104 8.61173 14.2115 8.70149 14.158 8.74277C14.1046 8.78405 13.9832 8.83253 13.959 8.86181C13.9348 8.89109 13.8934 8.94677 13.8691 8.92245C13.8448 8.90549 13.8328 8.86181 13.7915 8.88597C13.7502 8.91013 13.5515 9.07285 13.5149 9.16757C13.4782 9.26229 13.3958 9.47349 13.1483 9.71365C12.9008 9.95381 12.7939 10.1093 12.8667 10.1991C12.9395 10.2888 12.9736 10.2234 12.9857 10.301C12.9951 10.3772 12.991 10.4544 12.9736 10.5292C12.9445 10.6554 12.896 10.7743 12.9614 10.7986C13.1289 10.852 13.2917 10.7506 13.328 10.7816C13.4008 10.8471 13.2867 11.0826 13.459 11.1287C13.6339 11.1767 13.8062 11.0874 13.8062 11.0874L14.442 10.7452L15.0537 10.4224L15.3667 9.80341L15.1988 9.28645L15.1668 9.23301H15.1678Z" fill="#D4B968"/>
<path fill-rule="evenodd" clip-rule="evenodd" d="M14.5679 10.7112C14.5679 10.7112 14.461 10.5487 14.5922 10.4053C14.7234 10.2619 14.9101 10.2015 14.9829 10.1117C14.9691 10.0946 14.9505 10.082 14.9295 10.0754C14.9778 9.98891 15.0515 9.91937 15.1407 9.87618C15.1044 9.83986 15.0557 9.81074 15.0025 9.81074C14.8834 9.81074 14.8105 9.88354 14.7013 9.88354C14.5946 9.88354 14.5825 9.8301 14.5825 9.8301C14.5825 9.8301 14.7621 9.81314 14.745 9.73298C14.7281 9.64802 14.697 9.64802 14.697 9.64802C14.697 9.64802 15.0441 9.50402 15.1047 9.42722C15.1653 9.35042 15.1581 9.2597 15.1703 9.22338C15.2114 9.22338 15.4517 9.09714 15.5489 9.15058C15.646 9.20402 15.578 9.34962 15.578 9.34962C15.578 9.34962 15.8719 9.12866 16.0217 8.91202C16.1527 8.92418 16.2137 8.82227 16.3097 8.82227C16.4287 8.82227 16.6156 8.98482 16.6519 9.33186C16.6762 9.5309 16.7125 9.64498 16.6762 9.99698C16.6593 10.196 16.6641 10.621 16.7242 10.8319C16.7653 10.9994 16.8625 10.9824 16.8625 10.9824C16.8476 11.0335 16.818 11.079 16.7775 11.1135C16.7119 11.1741 16.7047 11.3344 16.7119 11.3951C16.7216 11.4394 16.7338 11.4831 16.7484 11.5261C16.7484 11.5261 16.6708 11.6159 16.6513 11.6766C16.6343 11.7373 16.5543 11.7786 16.4959 11.7786C16.4375 11.7786 16.4668 11.7736 16.3892 11.7786C16.3116 11.7835 16.2873 11.7955 16.2386 11.7786C16.19 11.7616 16.1537 11.7421 16.1732 11.5866C16.1901 11.4312 15.5737 11.0696 15.5737 11.0696L14.5657 10.7104L14.5679 10.7112Z" fill="#CCA849"/>
<path fill-rule="evenodd" clip-rule="evenodd" d="M13.4105 12.2451C13.4105 12.2451 13.6313 12.5388 14.5391 12.5388C14.9711 12.5388 15.1217 12.4975 15.2112 12.4732C15.3083 12.4489 15.6723 12.3059 16.0389 11.8737C16.3689 11.483 16.2961 11.3228 16.2961 11.3228L16.1041 11.2937L15.4801 11.3787L13.6337 12.1651L13.4097 12.2451H13.4105Z" fill="#585136"/>
<path fill-rule="evenodd" clip-rule="evenodd" d="M14.0872 12.3179C14.0872 12.3179 13.3008 12.4928 13.3008 11.9952C13.3008 11.5098 13.7862 11 13.9077 10.9103C14.0339 10.8203 14.3349 10.7183 14.3349 10.7183H15.0606L15.1989 11.0848L15.1382 11.876L14.0872 12.3177V12.3179Z" fill="#252211"/>
<path fill-rule="evenodd" clip-rule="evenodd" d="M14.813 10.8666C14.813 10.8666 14.6626 10.7282 14.3203 10.9146C13.9781 11.101 13.7013 11.4906 13.6843 11.8443C13.6674 12.1573 13.9416 12.3904 14.3688 12.4026C14.6867 12.4146 14.8786 12.3783 14.9757 12.3546C14.9514 12.3255 14.8251 12.1677 14.8251 12.1677L14.8131 10.8667L14.813 10.8666Z" fill="#C3B378"/>
<path fill-rule="evenodd" clip-rule="evenodd" d="M14.6649 10.944C14.6649 10.944 14.6286 10.9149 14.5209 10.9732C14.4312 11.0212 14.3001 11.148 14.1982 11.2378C14.1326 11.2912 14.0913 11.3154 14.0542 11.3567C13.9037 11.5363 13.7774 11.8301 13.8504 11.9757C13.9233 12.1213 14.1635 12.2888 14.7752 12.1747L14.6632 10.9442L14.6649 10.944Z" fill="#E6D89C"/>
<path fill-rule="evenodd" clip-rule="evenodd" d="M14.466 11.2451C14.466 11.2451 14.3689 11.3957 14.3689 11.636C14.3689 11.8812 14.5073 12.2719 15.017 12.301C15.4077 12.3253 15.6698 11.738 15.9538 11.5098C16.1698 11.3351 16.3008 11.3301 16.3008 11.3301C16.3008 11.3301 16.08 11.0901 15.4903 10.7792C14.9077 10.4661 14.2548 10.4248 13.9004 10.9055C14.0679 10.8933 14.6092 10.7549 14.6092 10.7549L14.8738 10.8399L14.466 11.2453V11.2451Z" fill="#252211"/>
<path fill-rule="evenodd" clip-rule="evenodd" d="M15.2283 11.5631C15.2113 11.5268 15.1991 11.4781 15.2695 11.4661C15.3399 11.4541 15.3714 11.4612 15.3958 11.5141C15.4201 11.5671 15.4437 11.6112 15.4077 11.6332C15.3714 11.6525 15.2767 11.6332 15.2281 11.5628L15.2283 11.5631ZM15.1142 11.2208C15.1142 11.2208 15.0899 11.2378 15.102 11.2039C15.1068 11.1628 15.1385 11.0898 15.2161 11.1069C15.2937 11.124 15.2769 11.2088 15.2641 11.2332C15.2513 11.2575 15.1865 11.2986 15.1379 11.2812C15.1317 11.2796 15.126 11.2766 15.1212 11.2724C15.1164 11.2682 15.1127 11.2629 15.1103 11.257C15.108 11.2511 15.107 11.2447 15.1076 11.2384C15.1081 11.232 15.1102 11.2259 15.1136 11.2205L15.1142 11.2208Z" fill="#6F674D"/>
<path fill-rule="evenodd" clip-rule="evenodd" d="M8.54395 11.376C8.54395 11.376 8.73595 11.52 8.95899 11.5144C9.17979 11.5095 9.46379 11.2815 9.59483 11.1357C9.67243 11.0508 9.73883 10.961 9.81083 10.8906C9.87163 10.83 9.91275 10.8008 9.94187 10.7596C9.98315 10.7116 10.0268 10.6213 10.0487 10.592C9.99531 10.6333 9.9177 10.7063 9.83755 10.7548C9.75995 10.8028 9.59243 10.893 9.52443 10.9173C9.45899 10.9416 8.77931 11.3013 8.77931 11.3013L8.54395 11.376Z" fill="#AC924C"/>
<path fill-rule="evenodd" clip-rule="evenodd" d="M8.8374 9.58254C8.8374 9.58254 8.94412 9.50974 9.15052 9.4635C9.34956 9.4155 9.75004 9.37854 9.75004 9.37854L10.0801 9.52254L10.2112 10.0201L9.97116 10.5373L9.6654 10.7293L9.3182 10.171L8.8382 9.5835L8.8374 9.58254Z" fill="#9F8E57"/>
<path fill-rule="evenodd" clip-rule="evenodd" d="M8.40526 10.0267L8.29102 10.112C8.29102 10.112 8.3203 10.0586 8.34446 9.89599C8.36862 9.73343 8.49502 9.33775 8.6795 9.10958C8.86398 8.88142 8.85918 8.89358 8.85918 8.89358C8.8422 8.89047 8.82476 8.89102 8.80801 8.89519C8.79127 8.89936 8.7756 8.90704 8.76206 8.91774C8.78638 8.86398 8.94174 8.67198 9.0971 8.57598C9.25246 8.47997 9.3131 8.44973 9.47566 8.52797C9.63822 8.60622 9.6795 8.64686 9.79854 8.64206C9.91758 8.63726 10.0193 8.51101 10.0193 8.51101C10.0193 8.51101 10.0437 8.58862 9.9539 8.7683C9.86414 8.94798 9.50974 9.31439 9.50974 9.31439L8.77182 9.81919L8.40526 10.0272V10.0267Z" fill="#EAC970"/>
<path fill-rule="evenodd" clip-rule="evenodd" d="M8.95132 9.52192C8.95132 9.52192 9.4854 9.59472 9.64796 9.44432C9.65276 9.46128 9.67228 9.46128 9.67228 9.47344C9.67098 9.48261 9.66671 9.49109 9.66012 9.4976C9.67781 9.49478 9.69566 9.49317 9.71356 9.4928C9.73494 9.49916 9.75693 9.50324 9.77916 9.50496C9.79707 9.50457 9.81493 9.50292 9.8326 9.5C9.83092 9.51206 9.82682 9.52367 9.82055 9.53411C9.81428 9.54456 9.80598 9.55363 9.79612 9.5608C9.82044 9.5608 9.84412 9.5656 9.84412 9.58496C9.84412 9.60432 9.84892 9.66272 9.8198 9.67488C9.79568 9.68155 9.77 9.6798 9.747 9.66992C9.74893 9.71587 9.76141 9.76077 9.78348 9.80112C9.83148 9.89088 9.93388 9.99312 10.0715 9.96368C10.0715 9.96368 10.1441 10.1384 9.83836 10.5267C9.79724 10.5802 9.7534 10.653 9.70012 10.7136C9.67907 10.7595 9.66298 10.8075 9.65212 10.8568C9.65212 10.8568 10.1692 10.6578 10.3172 10.2038C10.4678 9.74752 10.4969 9.29856 10.4678 8.87872C10.4628 8.75968 10.4435 8.67488 10.4144 8.61408C10.3416 8.46352 10.1376 8.48784 10.0552 8.5728C9.93612 8.69184 9.73708 8.98784 9.46044 9.19168C9.17884 9.39552 9.16684 9.43168 8.95068 9.52192H8.95132Z" fill="#D7BC6B"/>
<path fill-rule="evenodd" clip-rule="evenodd" d="M8.31057 10.1773C8.31057 10.1773 8.20864 10.238 8.1552 10.4653C8.10176 10.6983 8.2032 10.9823 8.26193 11.072C8.32065 11.1618 8.45394 11.4071 8.73043 11.4192C8.79887 11.4189 8.86655 11.4048 8.92949 11.378C9.02601 11.3337 9.11655 11.2774 9.19894 11.2104C9.31799 11.1207 9.41495 11.0431 9.40279 11.0357C9.37367 11.0235 8.66979 10.441 8.66979 10.441L8.40513 10.1456L8.31041 10.1776L8.31057 10.1773Z" fill="#585136"/>
<path fill-rule="evenodd" clip-rule="evenodd" d="M8.97599 11.1433C8.97599 11.1433 9.1192 11.1313 9.20416 11.0778C9.28912 11.0244 8.70654 10.4468 8.70654 10.4468L8.74782 11.0708L8.97599 11.1433Z" fill="#453A25"/>
<path fill-rule="evenodd" clip-rule="evenodd" d="M8.35694 10.1334C8.35694 10.1334 8.28414 10.2718 8.28414 10.3083C8.27198 10.4272 8.30846 10.8009 8.33758 10.9198C8.3667 11.0461 8.52446 11.2377 8.72846 11.2377C8.85454 11.2377 9.02942 11.1601 9.02942 11.1408C9.02942 11.1165 8.84974 11.0928 8.80126 11.0024C8.77214 10.9544 8.75998 10.835 8.75326 10.7144C8.74846 10.6368 8.74846 10.5518 8.77758 10.5224C8.84318 10.4496 8.85518 10.2408 8.85518 10.2408L9.08813 9.80798H8.78174L8.41518 10.0361L8.35694 10.1334Z" fill="#84754B"/>
<path fill-rule="evenodd" clip-rule="evenodd" d="M8.26709 10.267C8.26709 10.267 8.50709 9.94913 8.7234 9.87617C8.93972 9.80321 9.03651 9.84705 9.03651 9.84705L8.91028 10.1699L8.7306 10.369L8.74276 10.4709C8.74276 10.4709 8.71348 10.7403 8.89316 10.9272C9.07283 11.1141 9.20627 11.1069 9.28403 11.1069C9.36179 11.1069 9.58498 11.0413 9.69906 10.7718C9.80098 10.5195 9.88594 10.1958 9.6821 9.87137C9.48291 9.54849 9.13107 9.53601 9.06307 9.53601C8.99508 9.53601 8.46117 9.56273 8.26709 10.2666V10.267Z" fill="#252211"/>
<path fill-rule="evenodd" clip-rule="evenodd" d="M14.4298 11.347C14.34 11.3058 14.425 11.0534 14.5148 10.9757C14.6045 10.8979 14.7186 10.8083 14.9178 10.796C14.9904 10.7912 15.0608 10.8373 15.0488 10.8859C15.0319 10.9757 14.9056 11.1019 14.7916 11.1917C14.6338 11.3155 14.5317 11.3931 14.4298 11.347Z" fill="#F7F7E7"/>
<path fill-rule="evenodd" clip-rule="evenodd" d="M9.57529 9.97088C9.64089 9.96608 9.72586 10.0189 9.74282 10.0899C9.75978 10.1675 9.70154 10.3229 9.57529 10.3229C9.47337 10.3229 9.41992 10.1967 9.41992 10.1603C9.42107 10.1305 9.42941 10.1013 9.44424 10.0754C9.44904 10.068 9.4612 9.98304 9.57529 9.97088Z" fill="#F8F6DE"/>
<path fill-rule="evenodd" clip-rule="evenodd" d="M8.62862 10.0267C8.62862 10.0267 8.4611 10.1043 8.3835 10.2667C8.32805 10.3866 8.31128 10.5208 8.3355 10.6507C8.34766 10.7113 8.4083 10.8617 8.44958 10.9152C8.49086 10.9686 8.5467 11.0051 8.58798 11.0001C8.62926 10.9952 8.71406 10.8861 8.71406 10.8206C8.71406 10.7552 8.71902 10.4784 8.79902 10.3278C8.86942 10.1774 8.6291 10.0269 8.6291 10.0269L8.62862 10.0267Z" fill="#D4C38B"/>
<path fill-rule="evenodd" clip-rule="evenodd" d="M8.65292 10.0145C8.6238 10.0315 8.57532 10.0558 8.58732 10.0873C8.59948 10.1165 8.7014 10.1353 8.73788 10.2064C8.77916 10.2792 8.77916 10.3568 8.767 10.3932C8.79871 10.3782 8.82748 10.3576 8.85196 10.3324C8.9054 10.2718 8.97084 10.1894 9.02668 10.1894C9.06316 10.1894 9.09948 10.2064 9.13356 10.2064C9.187 10.2064 9.24029 10.1894 9.24765 10.1336C9.25965 10.0608 9.14573 9.99518 9.08012 10.0073C9.09228 9.95934 9.10924 9.88847 9.0558 9.83983C9.00236 9.79119 8.835 9.87631 8.79852 9.90063C8.76204 9.92495 8.65292 10.0147 8.65292 10.0147V10.0145Z" fill="#E2D59D"/>
<path fill-rule="evenodd" clip-rule="evenodd" d="M12.5097 15.1141L12.8689 15.0081L12.9708 15.0809C12.9708 15.0809 13.0435 15.2362 13.1577 15.2556C13.1212 15.3332 13.0265 15.3996 13.0315 15.4546C13.0364 15.5097 13.0849 15.5517 13.0849 15.5517C13.0849 15.5517 12.762 16.0857 13.398 16.6237C13.2475 16.6844 13.0558 16.7677 12.9539 16.8157C13.0265 16.8327 13.1819 16.8637 13.2475 16.9226C13.3131 16.9815 13.3131 17.0002 13.3737 17.0367C13.4344 17.0732 13.4707 17.1217 13.4587 17.1434C13.4174 17.1191 13.279 17.0465 13.2548 17.1143C13.2307 17.1821 12.6553 17.1556 12.6553 17.1556L11.6844 17.3425C11.6844 17.3425 11.7208 17.2453 11.6188 17.1556C11.5 17.0489 11.3544 17.1604 11.199 17.0415C10.9952 16.8861 10.9878 16.7065 10.9224 16.6386C10.9878 16.5973 11.1214 16.5367 11.4393 16.4946C11.4272 16.4703 11.3859 16.3975 11.4102 16.3321C11.4393 16.2471 11.5606 16.1937 11.5243 16.0921C11.5777 16.0799 11.6019 16.0799 11.7355 15.9124C11.8617 15.7449 11.9393 15.7085 12.0364 15.6964C12.1336 15.6842 12.1918 15.6964 12.3715 15.5289C12.4976 15.41 12.4564 15.3081 12.4564 15.3081C12.4564 15.3081 12.5388 15.2813 12.5099 15.1138L12.5097 15.1141Z" fill="#CBAC5A"/>
<path fill-rule="evenodd" clip-rule="evenodd" d="M11.4493 15.1681C11.4541 15.1438 11.4736 15.1316 11.6047 15.1438C11.7357 15.1559 12.5658 15.0662 12.7915 15.054C13.0197 15.037 13.8231 15.049 14.214 15.1316C14.6048 15.2142 15.0004 15.3113 15.192 15.3597C15.384 15.4132 15.4445 15.4324 15.4372 15.4567C15.4324 15.481 15.3892 15.5047 15.3644 15.498C15.3402 15.4932 14.7042 15.2989 14.5077 15.258C14.3112 15.217 13.6314 15.1074 13.2597 15.114C12.9127 15.119 12.7743 15.1092 12.4807 15.1431C12.1869 15.1796 11.7015 15.2281 11.5559 15.2087C11.4119 15.1918 11.4416 15.1918 11.449 15.1674L11.4493 15.1681Z" fill="#D6BC6F"/>
<path fill-rule="evenodd" clip-rule="evenodd" d="M13.4027 17.0704C13.4027 17.0704 13.9003 17.3399 14.08 17.6699C14.211 17.915 14.0024 18.0365 14.0024 18.0365C14.0024 18.0365 14.284 18.0365 14.2475 18.1918C14.2305 18.2888 13.7621 18.5509 13.4489 18.6893C13.131 18.8277 13.1432 18.8205 12.9878 18.8446C12.8373 18.869 12.4246 18.7966 12.3397 18.9174C12.2547 19.0382 12.2917 19.1627 12.3153 19.1821C12.3397 19.199 12.5363 19.2233 12.5363 19.2233C12.5363 19.2233 12.495 19.3374 12.0873 19.3496C11.6797 19.3617 11.5776 19.3907 11.5533 19.4345C11.5289 19.4757 11.6309 19.4515 11.8179 19.4825C12.0048 19.5117 12.2669 19.5305 12.2669 19.5305C12.2669 19.5305 12.1819 19.6033 11.9611 19.6616C11.7086 19.727 11.3129 19.7878 11.1941 19.8606C11.2547 19.9019 11.3446 19.9625 11.3861 19.9673C11.2841 19.9917 11.1408 20.0451 11.1166 20.0645C11.1529 20.0888 11.2016 20.1179 11.2016 20.1179C11.2016 20.1179 10.9976 20.363 10.8787 20.4238C10.7598 20.4846 10.0753 20.8024 9.83983 20.7417C9.25247 20.5864 9.17967 19.9432 9.03647 19.8947C8.82047 19.8219 8.71856 19.9673 8.52672 19.8654C8.61168 19.8048 8.65792 19.7685 8.74767 19.7272C8.65056 19.6792 8.14816 19.3606 8.14816 19.3606C8.09562 19.2461 8.03731 19.1343 7.97344 19.0258C7.87632 18.8582 7.73344 18.6349 7.62624 18.4382C7.39328 18.0062 7.38112 17.8072 7.16992 17.5621C7.2064 17.5141 7.33248 17.5208 7.33248 17.5208L9.10207 18.1034L12.2398 18.1942L13.0558 17.0293L13.4029 17.0706L13.4027 17.0704Z" fill="#DFC677"/>
<path fill-rule="evenodd" clip-rule="evenodd" d="M8.75488 18.847C8.77382 18.8681 8.79589 18.8861 8.82032 18.9004C8.88112 18.9417 8.97088 18.9904 9.03152 19.063C9.05584 19.0267 9.11648 18.9611 9.22352 19.063C9.33056 19.1649 9.46352 19.0923 9.54624 19.1164C9.6312 19.1457 9.636 19.1577 9.636 19.1577C9.636 19.1577 9.684 19.1164 9.79136 19.0728C9.85696 19.0484 9.93456 19.0315 10.0195 19.0073C10.0971 18.9904 10.1821 18.966 10.2405 18.966C10.2939 19.0024 10.4856 19.206 11.255 18.9054C11.9808 18.6238 12.1482 18.5923 12.2696 18.6358C12.2818 18.6067 12.2939 18.5508 12.4808 18.5582C12.4808 18.4806 12.3254 18.216 12.3254 18.216L11.4686 17.9224H11L9.59472 18.1796L8.816 18.624L8.75536 18.848L8.75488 18.847Z" fill="#C4A859"/>
<path fill-rule="evenodd" clip-rule="evenodd" d="M8.28662 18.3544C8.28662 18.3544 8.30358 18.4855 8.49782 18.6239C8.68982 18.7621 8.75014 18.8447 8.75014 18.8447C8.75014 18.8447 8.78662 18.7967 8.81574 18.7477C8.84486 18.6943 8.86918 18.6336 8.91766 18.6167C9.01478 18.5754 9.23558 18.653 9.28422 18.6408C9.3255 18.6288 9.31334 18.5439 9.35702 18.5439C9.45894 18.5389 9.52438 18.6093 9.56086 18.6093C9.59734 18.6093 9.68694 18.6045 9.6991 18.5851C9.71126 18.5658 9.71606 18.3642 9.85446 18.2671C10.005 18.1603 10.1895 18.2064 10.2385 18.2307C10.2385 18.2671 10.2433 18.357 10.3404 18.3618C10.4375 18.3666 10.4471 18.3496 10.5324 18.3787C10.6177 18.4079 10.7193 18.3739 10.7653 18.517C10.8066 18.505 10.9037 18.4928 10.8794 18.3544C10.9274 18.3181 10.9693 18.2938 11.0714 18.1506C11.0957 18.1143 11.1369 18.073 11.1685 18.0195C11.2535 18.0195 11.3554 18.0026 11.4913 18.1215C11.45 18.1506 11.4257 18.1695 11.4137 18.1991C11.4492 18.2342 11.4816 18.2724 11.5106 18.3131C11.5471 18.3611 11.5714 18.42 11.6175 18.4322C11.7194 18.4613 11.8869 18.42 12.0738 18.4322C12.2535 18.4443 12.4039 18.5098 12.4695 18.5511C12.4938 18.5391 12.4938 18.5341 12.5545 18.5463C12.6151 18.5584 12.6612 18.5632 12.5957 18.4856C12.6321 18.5026 12.6733 18.5391 12.7098 18.5026C12.7463 18.4661 12.7753 18.4128 12.8772 18.4007C12.9791 18.3885 13.0156 18.4055 13.0569 18.2987C13.1103 18.1677 12.9258 18.1677 12.9258 18.1677C12.9258 18.1677 13.0108 18.0899 13.1055 17.988C13.2196 17.8813 13.3506 17.7429 13.3821 17.573C13.4356 17.2599 13.1298 17.2188 13.1298 17.2188L11.6468 17.6751L9.83366 17.5851L8.28758 18.3546L8.28662 18.3544Z" fill="#927D49"/>
<path fill-rule="evenodd" clip-rule="evenodd" d="M6.95407 14.0704C6.95407 14.0704 6.90607 14.131 6.87647 14.2742C6.84687 14.4174 6.85951 14.4004 6.83519 14.5024C6.81087 14.6043 6.51215 15.6189 6.62415 15.9611C6.73615 16.3034 6.93007 16.4296 7.05135 16.7062C7.07567 16.7669 7.09935 16.8034 7.11199 16.8568C7.15327 17.0363 7.11695 17.1747 7.16543 17.3544C7.18239 17.4151 7.22623 17.4855 7.29167 17.5583C7.43567 17.7087 7.67039 17.8519 7.77167 17.9538C7.91471 18.1044 8.11871 18.4103 8.37839 18.4392C8.51679 18.4562 8.71343 18.398 8.87599 18.301C9.01999 18.2111 9.10895 18.085 9.25999 18.013C9.36671 17.9596 9.48079 17.9402 9.58271 17.9159C9.79391 17.8746 9.98575 17.8679 10.0998 17.8916C10.2746 17.928 10.6872 18.0543 10.9158 18.0543C11.0945 18.0514 11.2722 18.0269 11.445 17.9815C11.792 17.8795 12.2118 17.7047 12.4886 17.6271C12.6512 17.5791 12.7822 17.5664 12.9158 17.5373C13.144 17.4839 13.3357 17.4111 13.445 17.2727C13.3722 17.1877 13.2824 17.0567 12.7968 17.0615C12.2459 17.0736 11.6099 17.3794 11.2968 17.428C10.9837 17.4767 10.8478 17.5178 10.4982 17.3915C10.1555 17.264 10.1442 17.1797 10.1442 17.1797C10.1442 17.1797 9.78431 16.928 9.63375 16.2864C9.48319 15.6448 9.63375 15.1773 10.0246 14.7329C10.1266 14.6188 10.1022 14.5169 10.1022 14.5169C10.1022 14.5169 10.3595 14.1699 10.2891 13.8449C10.2115 13.522 9.71391 13.5876 9.71391 13.5876L6.95423 14.0704H6.95407Z" fill="#6E6342"/>
<path fill-rule="evenodd" clip-rule="evenodd" d="M7.36881 15.1505C7.34741 15.1907 7.33734 15.236 7.33969 15.2815C7.34449 15.347 7.36401 15.4319 7.56049 15.6238C7.72801 15.7911 7.69153 15.978 7.69153 15.978C7.69153 15.978 7.77585 15.995 8.00465 15.8879C8.18433 15.803 8.24464 15.9535 8.24464 15.9535C8.29695 15.9261 8.35364 15.908 8.41216 15.9001C8.46519 15.8952 8.51651 15.8788 8.56256 15.8521C8.56256 15.8521 8.77376 16.0681 8.95824 16.17C9.12576 16.2599 9.22288 16.3206 9.30544 16.2599C9.38304 16.2065 9.38304 16.0972 9.37808 16.0487C9.35883 16.004 9.33445 15.9616 9.30544 15.9225C9.252 15.8449 9.16704 15.755 9.16144 15.6825C9.14928 15.5151 9.28768 15.3159 9.2584 15.2675C9.22912 15.219 9.12016 15.2068 8.85072 15.3039C8.57168 15.3961 7.36769 15.151 7.36769 15.151L7.36881 15.1505Z" fill="#39331F"/>
<path fill-rule="evenodd" clip-rule="evenodd" d="M8.00483 16.2356C8.00483 16.2356 7.86663 16.1046 7.91509 15.4686C7.97376 15.4677 8.03235 15.4734 8.08976 15.4855C8.08976 15.4855 8.1651 15.9783 8.00483 16.2356Z" fill="#292311"/>
<path fill-rule="evenodd" clip-rule="evenodd" d="M7.01971 13.5849C7.039 13.5707 7.0569 13.5546 7.07315 13.5369C7.02515 13.6267 6.80355 13.9859 6.98323 14.5515C7.16291 15.1145 7.61427 15.5343 8.17011 15.5539C8.72595 15.5734 9.01811 15.3014 9.35219 14.8937C9.48323 14.7312 9.63379 14.5272 9.76723 14.3889C9.96627 14.1728 10.1216 14.1121 10.1216 13.9035C10.1216 13.4763 9.68467 13.2845 9.04147 13.0928C8.39827 12.9011 7.81811 12.9248 7.51715 13.056C7.22355 13.199 7.09731 13.3496 7.01955 13.5851L7.01971 13.5849Z" fill="#252211"/>
<path fill-rule="evenodd" clip-rule="evenodd" d="M9.08495 16.4273L9.13295 16.4029C9.13295 16.4029 9.14495 16.2109 9.2227 16.216C9.30029 16.2282 9.33677 16.3303 9.32941 16.3666C9.32461 16.4029 9.30525 16.4637 9.2275 16.4564C9.12559 16.4588 9.08447 16.4273 9.08447 16.4273H9.08495Z" fill="#3F3824"/>
<path fill-rule="evenodd" clip-rule="evenodd" d="M8.86914 15.6117C8.86914 15.6117 8.91714 15.5947 8.97586 15.6529C9.02386 15.6529 9.23314 15.6286 9.29874 15.6699C9.36434 15.7112 9.3837 15.7475 9.3837 15.7475C9.3837 15.7475 9.13858 15.8009 9.00498 15.7475C8.86914 15.7014 8.86914 15.6117 8.86914 15.6117Z" fill="#2D2815"/>
<path fill-rule="evenodd" clip-rule="evenodd" d="M9.94899 15.648C9.94899 15.6358 9.81795 15.5461 9.67954 15.5168C9.65522 15.512 9.65026 15.5289 9.63154 15.5289C9.61938 15.5241 9.61458 15.4877 9.61458 15.4877L9.53585 15.5291C9.53585 15.5291 9.52369 15.5461 9.56497 15.5771C9.60129 15.6062 9.6621 15.6305 9.67906 15.679C9.69602 15.7275 9.69602 15.7444 9.70338 15.7518C9.70818 15.7566 9.79314 15.7518 9.83443 15.7275C9.87571 15.7031 9.95347 15.6635 9.94851 15.6475L9.94899 15.648Z" fill="#82764F"/>
<path fill-rule="evenodd" clip-rule="evenodd" d="M8.72314 16.1408C8.72314 16.1408 8.7473 15.9735 8.91002 15.9661C9.07738 15.9539 9.10907 16.1165 9.10907 16.1165L9.01194 16.2136C9.01194 16.2112 8.93914 16.1093 8.72394 16.1408H8.72314Z" fill="#2D2816"/>
<path fill-rule="evenodd" clip-rule="evenodd" d="M9.77918 15.4199C9.77918 15.4199 9.68926 15.517 9.49039 15.5461C9.47343 15.5218 9.43695 15.4733 9.49039 15.3957C9.54383 15.3181 9.60446 15.2938 9.6651 15.3179C9.69186 15.3223 9.71682 15.3342 9.73703 15.3522C9.75724 15.3703 9.77187 15.3938 9.77918 15.4199Z" fill="#574F35"/>
<path fill-rule="evenodd" clip-rule="evenodd" d="M10.1456 15.5389C10.1506 15.5146 10.1336 15.5098 10.1456 15.4976C10.1576 15.4855 10.2234 15.4613 10.2355 15.4733C10.2403 15.4783 10.2355 15.4976 10.2355 15.5213C10.2355 15.545 10.2355 15.5693 10.2234 15.5867C10.2064 15.611 10.1579 15.6232 10.1336 15.616C10.1093 15.6088 10.1045 15.5747 10.1045 15.568C10.1165 15.5632 10.1456 15.5511 10.1456 15.5389ZM10.56 15.2768C10.56 15.2647 10.6013 15.2404 10.6256 15.2404C10.6619 15.2404 10.6619 15.2695 10.6669 15.2768C10.6789 15.2816 10.6789 15.2719 10.6911 15.2938C10.7032 15.3157 10.7203 15.3544 10.708 15.3787C10.6957 15.4031 10.6474 15.4199 10.6354 15.4151C10.6184 15.4029 10.565 15.2938 10.56 15.2768Z" fill="#82764F"/>
<path fill-rule="evenodd" clip-rule="evenodd" d="M9.72559 15.5948C9.72559 15.5948 9.77903 15.6068 9.85183 15.6676C9.82751 15.6845 9.79103 15.7039 9.79103 15.7039C9.79103 15.7039 9.78623 15.648 9.72559 15.5946V15.5948Z" fill="#6E6342"/>
<path fill-rule="evenodd" clip-rule="evenodd" d="M9.6069 15.0607C9.59474 15.0487 9.64322 15.0195 9.67234 15.0243C9.70146 15.0291 9.71362 15.0487 9.74514 15.0535C9.77666 15.0583 9.78162 15.0413 9.79314 15.0291C9.80466 15.017 9.84659 15.0243 9.85379 15.0291C9.85827 15.0345 9.86234 15.0401 9.86595 15.0461C9.86645 15.0369 9.86886 15.0278 9.87302 15.0196C9.87718 15.0113 9.88299 15.004 9.89011 14.9981C9.89942 14.9913 9.91015 14.9866 9.92151 14.9845C9.93287 14.9824 9.94456 14.9829 9.95571 14.9859C9.96051 15.0029 9.98483 15.0635 9.98003 15.0757C9.97523 15.0879 9.90243 15.105 9.89011 15.0927C9.90227 15.1219 9.95571 15.1826 9.96291 15.1946C9.97011 15.2066 9.90947 15.2359 9.88531 15.2311C9.85139 15.2287 9.64258 15.1072 9.60626 15.0611L9.6069 15.0607ZM9.92483 14.6577C9.92033 14.6455 9.91174 14.6352 9.90051 14.6286C9.88355 14.6238 9.8277 14.6286 9.8277 14.6577C9.8277 14.6869 9.87571 14.8498 9.92963 14.9346C9.99043 15.0195 10.0316 15.0898 10.0728 15.1093C10.0858 15.1152 10.1005 15.116 10.114 15.1115C10.1275 15.1069 10.1388 15.0975 10.1456 15.085C10.1504 15.0728 10.1626 14.983 10.1578 14.7718C10.153 14.5606 10.1456 14.3568 10.1335 14.3446C10.1213 14.3324 10.0728 14.3326 10.0559 14.3568C10.0389 14.3809 9.92963 14.6214 9.92467 14.6577H9.92483Z" fill="#585136"/>
<path fill-rule="evenodd" clip-rule="evenodd" d="M9.70867 15.9005C9.70867 15.9005 9.6237 15.8471 9.54113 15.8836C9.46352 15.9201 9.46832 16.0632 9.46832 16.0632C9.48578 16.0701 9.50465 16.0725 9.52328 16.0704C9.54191 16.0683 9.55974 16.0616 9.57522 16.0511C9.62866 16.0148 9.69651 15.9541 9.70867 15.9007V15.9005Z" fill="#574F35"/>
<path fill-rule="evenodd" clip-rule="evenodd" d="M9.8688 16.0923C9.864 16.0443 9.8208 16.0443 9.8208 16.0195C9.82378 16.0076 9.83064 15.9971 9.8403 15.9896C9.84997 15.9821 9.86186 15.9781 9.87408 15.9782C9.8984 15.9782 9.92208 16.0073 9.95184 16.0262C9.98096 16.0431 10.0246 16.0742 10.0294 16.1111C10.0342 16.1481 9.98144 16.2494 9.92272 16.2494C9.864 16.2494 9.88144 16.1401 9.86928 16.0916L9.8688 16.0923ZM10.3373 16.0267C10.3373 16.0267 10.2402 16.0558 10.2474 16.0267C10.2546 15.9975 10.2766 15.9903 10.3082 15.9903C10.3242 15.9736 10.3457 15.9632 10.3688 15.9611C10.382 15.9604 10.395 15.9647 10.4051 15.9732C10.4051 15.9732 10.4707 15.9441 10.4901 15.9611C10.5094 15.978 10.495 15.978 10.507 15.9975C10.5223 16.0192 10.5323 16.0441 10.5363 16.0703C10.5363 16.0897 10.4635 16.131 10.4051 16.1238C10.3373 16.1092 10.3493 16.0388 10.3373 16.0267ZM10.9027 15.9174C10.9027 15.9174 10.9318 15.9343 10.9077 15.9539C10.8907 15.9708 10.8058 16.0019 10.7328 16.0073C10.66 16.0073 10.5946 16.0193 10.5946 15.9951C10.5946 15.971 10.6552 15.9223 10.6915 15.9102C10.6988 15.9011 10.7081 15.8937 10.7186 15.8887C10.7291 15.8836 10.7406 15.881 10.7523 15.8811C10.7814 15.8811 10.8954 15.8689 10.927 15.8641C10.9562 15.8591 10.9805 15.8761 10.9634 15.9004C10.9562 15.9174 10.9027 15.9174 10.9027 15.9174ZM11.0702 15.1679C11.0702 15.1679 11.0338 15.2455 10.9926 15.2455C10.9514 15.2407 10.9514 15.2286 10.9514 15.2164C10.9514 15.1994 10.9926 15.1558 10.9877 15.1436C10.9757 15.1436 10.9464 15.1436 10.9514 15.1145C10.9514 15.0902 10.9926 15.061 11.029 15.0665C11.0564 15.0439 11.0906 15.0311 11.1261 15.0302C11.1674 15.0302 11.2037 15.0422 11.2037 15.0665C11.2037 15.0908 11.1557 15.1441 11.1381 15.1564C11.1187 15.1758 11.0944 15.1884 11.0702 15.1684V15.1679ZM10.5168 16.6024C10.5168 16.6024 10.4688 16.6073 10.4688 16.6315C10.4688 16.6436 10.4808 16.6436 10.4979 16.6364C10.5078 16.6359 10.5176 16.6342 10.527 16.6315C10.5318 16.6364 10.5318 16.6606 10.5683 16.6606C10.5983 16.6566 10.6271 16.6467 10.6533 16.6315C10.6824 16.6195 10.7067 16.6072 10.7067 16.5835C10.6946 16.5422 10.6702 16.5227 10.6339 16.5227C10.6153 16.5215 10.5968 16.5257 10.5805 16.5348C10.5805 16.5348 10.5683 16.5105 10.527 16.5348C10.4858 16.5592 10.4906 16.5592 10.5027 16.5713C10.5245 16.5907 10.5173 16.6033 10.5173 16.6033L10.5168 16.6024ZM10.2426 16.8548C10.2426 16.8427 10.3032 16.8184 10.3202 16.8257C10.3371 16.8305 10.3856 16.9227 10.3856 16.9324C10.3856 16.9446 10.325 16.9737 10.3006 16.9737C10.2763 16.9737 10.2352 16.9324 10.2352 16.9257C10.2352 16.9209 10.2643 16.9137 10.2643 16.9088C10.2715 16.8968 10.2426 16.8675 10.2426 16.8553V16.8548ZM10.0506 16.5004C10.0627 16.4956 10.0627 16.4835 10.0797 16.4713C10.085 16.4678 10.091 16.4655 10.0974 16.4647C10.1037 16.4638 10.1101 16.4645 10.1162 16.4665C10.1204 16.4589 10.1264 16.4523 10.1335 16.4472C10.1406 16.4422 10.1488 16.4387 10.1574 16.4372C10.1866 16.4324 10.2109 16.4372 10.2054 16.4494C10.2054 16.4859 10.2298 16.51 10.2298 16.5392C10.2298 16.5683 10.2128 16.6048 10.1522 16.6291C10.0915 16.646 10.009 16.646 9.9968 16.6412C9.98464 16.6364 9.97248 16.5878 9.98464 16.5635C9.9968 16.5392 10.0307 16.5126 10.0502 16.5004H10.0506Z" fill="#82764F"/>
<path fill-rule="evenodd" clip-rule="evenodd" d="M10.1282 16.517C10.1282 16.517 10.0869 16.5413 10.0869 16.5534C10.0833 16.5652 10.0816 16.5775 10.0821 16.5898C10.0821 16.5969 10.1356 16.585 10.1428 16.5776C10.1452 16.5728 10.1282 16.5296 10.1282 16.517Z" fill="#6E6342"/>
<path fill-rule="evenodd" clip-rule="evenodd" d="M9.7668 16.4028C9.79095 16.4078 9.83223 16.4028 9.86375 16.415C9.88807 16.4271 9.90503 16.4515 9.88071 16.4806C9.85639 16.5097 9.83271 16.5533 9.77879 16.546C9.71816 16.5412 9.65992 16.5097 9.65992 16.4854C9.6589 16.47 9.66095 16.4546 9.66595 16.44C9.67095 16.4254 9.6788 16.4119 9.68904 16.4004C9.71336 16.3811 9.72536 16.3932 9.76664 16.4028H9.7668Z" fill="#585136"/>
<path fill-rule="evenodd" clip-rule="evenodd" d="M9.73783 16.4272C9.73783 16.4272 9.66024 16.4879 9.64072 16.5172C9.61641 16.5463 9.49754 16.6967 9.46122 16.7282C9.47328 16.7069 9.48703 16.6866 9.50234 16.6676C9.45434 16.6983 9.41836 16.7445 9.40043 16.7986C9.37131 16.8885 9.56313 16.937 9.6892 16.9735C9.81527 17.01 9.86406 17.0215 9.86406 17.0215C9.81765 16.9517 9.7778 16.8778 9.74503 16.8007C9.69704 16.6866 9.67224 16.6744 9.70376 16.621C9.72807 16.5676 9.76455 16.5312 9.76455 16.49C9.74999 16.4516 9.73783 16.4272 9.73783 16.4272Z" fill="#574F35"/>
<path fill-rule="evenodd" clip-rule="evenodd" d="M6.97102 16.619C6.98869 16.6222 7.0068 16.6222 7.02446 16.619C7.06078 16.614 7.4395 16.475 7.83518 16.4999C8.13139 16.5178 8.42499 16.5661 8.71134 16.644C9.20894 16.775 9.82782 17.0347 10.2283 17.1829C10.335 17.224 10.4395 17.2969 10.5163 17.3259C10.8222 17.4449 10.8342 17.4449 11.0139 17.4765C11.2251 17.5056 11.4411 17.4352 11.6669 17.3867C11.9435 17.3259 12.4168 17.2968 12.8318 17.2361C12.966 17.2175 13.0984 17.1875 13.2275 17.1464C13.2275 17.1464 12.8974 17.4765 12.1061 17.5953C11.7862 17.6439 11.4611 17.648 11.1401 17.6075C10.8877 17.5832 10.7203 17.5467 10.5941 17.5104C10.4509 17.4691 10.1571 17.3598 9.7955 17.2704C9.54302 17.2048 9.26142 17.1563 8.9387 17.0956C8.14254 16.9499 7.27854 16.7825 6.9707 16.6199L6.97102 16.619Z" fill="#252211"/>
<path fill-rule="evenodd" clip-rule="evenodd" d="M6.07779 15.119C5.88579 15.2816 5.68211 15.4369 5.48323 15.5873L4.88371 16.048C4.67987 16.1984 4.48083 16.3537 4.27683 16.5043C4.07283 16.6549 3.86915 16.7979 3.65283 16.9363C3.84483 16.7737 4.04851 16.6232 4.25235 16.4752C4.45619 16.3272 4.66755 16.1821 4.86419 16.032L5.46371 15.5707C5.66995 15.4203 5.86899 15.2649 6.07779 15.1193V15.119ZM5.01715 16.8181C5.01715 16.8181 5.23315 16.6384 5.50259 16.3861C5.83747 16.0731 6.24771 15.6725 6.37875 15.5998L5.01699 16.8182L5.01715 16.8181Z" fill="#CFB66C"/>
<path fill-rule="evenodd" clip-rule="evenodd" d="M5.01709 16.818C5.12397 16.7112 5.23805 16.6069 5.35213 16.5048L5.52685 16.3544C5.58029 16.3064 5.64109 16.2525 5.69437 16.1991C5.80109 16.0924 5.90557 15.9781 6.01229 15.869C6.06519 15.8141 6.12111 15.7623 6.17981 15.7136C6.20916 15.6877 6.24175 15.6656 6.27677 15.648C6.30605 15.6311 6.33757 15.6 6.37869 15.5946C6.35453 15.6311 6.32541 15.648 6.30109 15.6796C6.27197 15.7039 6.24765 15.733 6.22349 15.7572C6.17005 15.8106 6.10941 15.8591 6.05597 15.9077C5.94189 16.0048 5.82301 16.0997 5.70893 16.2013C5.59485 16.3029 5.48813 16.4125 5.37389 16.5144C5.25021 16.6189 5.13613 16.7208 5.01709 16.8184V16.818ZM6.46861 15.8471C6.46861 15.8471 5.67741 16.6215 5.51469 16.7476L6.46861 15.8471Z" fill="#CFB66C"/>
<path fill-rule="evenodd" clip-rule="evenodd" d="M6.46857 15.847C6.39739 15.9294 6.32108 16.0072 6.24009 16.08L6.00009 16.3082C5.92249 16.3858 5.84953 16.4635 5.76713 16.5411C5.68217 16.6139 5.60457 16.6851 5.51465 16.7523L5.74761 16.5242C5.82537 16.4466 5.91033 16.3811 5.99289 16.3034L6.22585 16.0752C6.30585 15.9952 6.38361 15.9174 6.46857 15.847ZM6.50489 16.2669C6.43196 16.4704 6.34602 16.6691 6.24761 16.8616C6.04377 17.2694 5.73801 17.779 5.60441 18.0389L6.50489 16.2669Z" fill="#CFB66C"/>
<path fill-rule="evenodd" clip-rule="evenodd" d="M6.50501 16.2671C6.50501 16.3568 6.48069 16.4346 6.45157 16.5122C6.42319 16.5899 6.39083 16.666 6.35461 16.7404C6.31813 16.8132 6.27685 16.8909 6.23557 16.9613C6.19429 17.0317 6.14581 17.1044 6.10933 17.1773L5.86421 17.6093C5.77925 17.7533 5.69669 17.8981 5.60693 18.0365C5.66757 17.8812 5.75013 17.7356 5.82789 17.5924C5.91285 17.4484 5.99045 17.3044 6.06789 17.1554C6.1057 17.0812 6.13972 17.0051 6.16981 16.9274C6.20613 16.8496 6.24245 16.7768 6.27173 16.7065C6.30805 16.6289 6.33717 16.5559 6.37365 16.4856C6.41477 16.4103 6.44885 16.3375 6.50469 16.2671H6.50501Z" fill="#CFB66C"/>
<path fill-rule="evenodd" clip-rule="evenodd" d="M7.36906 18.2573C7.36906 18.2573 7.12905 18.5752 7.15305 18.9781C7.21849 18.7671 7.30105 18.4442 7.36906 18.2573ZM7.59722 18.576C7.59722 18.576 7.51226 19.44 7.44186 19.8648C7.54138 19.3738 7.56074 19.4151 7.59722 18.576ZM9.18698 19.9159C9.18698 19.9159 8.82778 20.9719 8.82042 21.2653C8.89818 20.9636 9.04858 20.3471 9.18698 19.9151V19.9159Z" fill="#DEC270"/>
<path fill-rule="evenodd" clip-rule="evenodd" d="M10.0269 18.192C10.0269 18.192 10.6094 19.1531 11.0464 19.9735C10.9281 19.5607 10.6561 18.8035 10.0269 18.192Z" fill="#CBAF59"/>
<path fill-rule="evenodd" clip-rule="evenodd" d="M11.5923 19.6069C11.9121 20.1723 12.2006 20.7549 12.4563 21.3521C12.4078 20.9394 12.2766 20.2332 11.5923 19.6069Z" fill="#E3C677"/>
<path fill-rule="evenodd" clip-rule="evenodd" d="M16.1944 21.024C16.2914 20.9633 16.4832 20.6331 16.6508 20.5507C16.8181 20.4657 16.9444 20.4488 17.0949 20.2812C17.2453 20.1064 17.2869 19.9996 17.6167 19.8614C18.078 19.6622 17.7607 19.4049 17.7607 19.4049C17.8115 19.355 17.8658 19.3088 17.9232 19.2667C18.0423 19.1769 18.1805 19.0676 18.1685 18.8758C18.1516 18.5531 18.0909 18.0846 17.8263 17.8128C18.0836 17.7593 18.5762 17.723 18.8823 17.6454C19.2365 17.5555 19.3992 17.4292 19.3992 17.4292C19.3992 17.4292 19.1954 17.0822 19.5255 16.7328C19.8556 16.3833 20.125 16.1745 20.3241 15.7836C20.0959 15.7545 19.748 15.6332 18.8604 15.9705C18.9083 15.9931 18.9545 16.019 18.9988 16.0481C18.9988 16.0481 18.4527 16.1987 18.2536 16.3662C17.9064 16.6598 17.8628 16.9001 17.4866 17.0798C17.1104 17.2595 16.7317 17.2108 16.4188 17.3564C16.1058 17.502 16.0596 17.6259 15.9453 17.6793C15.9696 17.7084 15.9405 17.7569 15.9866 17.7982C15.9575 17.8395 15.7875 18.1161 15.6152 18.1161C15.6322 18.1817 15.7778 18.2302 15.7778 18.2302C15.7778 18.2302 15.6711 18.308 15.3992 18.3273C15.5375 18.4713 15.6687 18.6283 16.0303 18.8564C16.0012 18.9171 15.8797 19.007 15.9284 19.1211C15.9818 19.2352 16.1204 19.3905 16.6735 19.5168C16.3919 19.5288 16.062 19.5944 15.6175 19.5337C15.1733 19.4803 15.1005 19.4488 14.8263 19.5168C14.8554 19.5459 14.933 19.5459 15.001 19.6235C14.9282 19.6283 14.4719 19.57 14.3165 19.774C14.1539 19.9851 14.0835 20.3323 14.0957 20.5652C14.0107 20.6065 13.9282 20.6793 13.9695 20.8299C14.0107 20.9804 14.2267 21.0289 14.3651 21.1235C14.5034 21.2254 14.5155 21.2617 14.6467 21.2376C14.785 21.2084 14.9888 21.0702 15.1079 21.0702C15.2269 21.0702 15.3117 21.16 15.3117 21.16C15.3117 21.16 15.6346 21.0046 15.6661 21.0337C15.6952 21.0628 15.6709 21.2497 15.7024 21.2788C15.7344 21.3008 16.0981 21.0848 16.1952 21.024H16.1944Z" fill="#ECD592"/>
<path fill-rule="evenodd" clip-rule="evenodd" d="M23.2499 11.3107C21.733 7.39324 17.9829 6.66748 17.9829 6.66748H7.28385L7.32513 10.6577H9.45585V19.568H7.28369V23.551H17.6867C20.1939 23.551 22.2037 21.0315 22.2037 21.0315C25.4221 16.4637 23.2498 11.3107 23.2498 11.3107H23.2499ZM17.7426 18.347C17.7426 18.347 16.9266 19.5243 16.0387 19.5243H14.2627L14.2207 10.6675H16.4999C16.4999 10.6675 17.5559 10.8883 18.2936 12.9781C18.2936 12.9781 19.2717 15.9701 17.7426 18.347Z" fill="white" fill-opacity="0.8"/>
</svg>
