<svg width="30" height="30" viewBox="0 0 30 30" fill="none" xmlns="http://www.w3.org/2000/svg">
<circle cx="15" cy="15" r="15" fill="white"/>
<g clip-path="url(#clip0_178_58)">
<path d="M14.713 4C9.90899 4.0193 6.0193 7.90899 6 12.713C6 13.6751 6.15529 14.6307 6.45945 15.5432C6.68642 16.1644 7.35997 16.4988 7.99217 16.3068C8.60324 16.0725 8.92761 15.4044 8.7328 14.7796C8.47459 14.0684 8.35973 13.3139 8.39373 12.5586C8.49848 9.08885 11.3958 6.36065 14.8655 6.4654C18.3353 6.57016 21.0635 9.46744 20.9587 12.9372C20.8604 16.1855 18.3022 18.8236 15.0576 19.0212C15.0576 19.0212 13.8345 19.0956 13.2262 19.1701C13.002 19.2022 12.7796 19.2463 12.56 19.3024C12.5288 19.3346 12.4782 19.3346 12.4461 19.3033L12.4451 19.3024C12.4231 19.2739 12.4231 19.2335 12.4451 19.205L12.6344 18.1722L13.7831 13.0061C13.9209 12.361 13.5101 11.7261 12.8651 11.5883C12.22 11.4504 11.5851 11.8612 11.4472 12.5062C11.4472 12.5062 8.71534 25.1512 8.71534 25.266C8.55913 25.8808 8.93036 26.5056 9.54511 26.6618C9.55154 26.6637 9.55889 26.6655 9.56532 26.6664H9.62873C10.2425 26.8254 10.8692 26.456 11.0273 25.8422C11.03 25.8321 11.0328 25.822 11.0346 25.8109C11.0328 25.7916 11.0328 25.7724 11.0346 25.754C11.0686 25.6051 11.4132 23.9226 11.4132 23.9226C11.6742 22.6527 12.6978 21.6796 13.9788 21.4829C14.2425 21.4425 15.3507 21.3681 15.3507 21.3681C20.1363 20.8912 23.629 16.6247 23.1512 11.8391C22.7157 7.47435 19.0998 4.11394 14.713 4Z" fill="#1E1E1E"/>
<path d="M15.2413 24.0899C14.4557 23.9263 13.6875 24.4308 13.5239 25.2155C13.5221 25.2229 13.5211 25.2302 13.5193 25.2376C13.3493 26.0177 13.8437 26.7887 14.6248 26.9587C14.6257 26.9587 14.6266 26.9587 14.6275 26.9596H14.6679C15.4325 27.1443 16.2016 26.6738 16.3854 25.9102C16.3872 25.9047 16.3881 25.8983 16.39 25.8928V25.8128C16.5251 25.0244 16.0215 24.2681 15.2413 24.0899Z" fill="#E6007A"/>
</g>
<defs>
<clipPath id="clip0_178_58">
<rect width="17.1953" height="23" fill="white" transform="translate(6 4)"/>
</clipPath>
</defs>
</svg>
