<svg width="32" height="32" viewBox="0 0 32 32" fill="none" xmlns="http://www.w3.org/2000/svg">
<path d="M18.3552 17.8396C16.9453 18.9693 16.0656 19.5298 15.188 19.5298C14.3453 19.5298 13.4943 19.0048 12.1781 17.9792L4.34375 24.8735H26.4068L18.4448 17.7725C18.4156 17.7938 18.3828 17.8204 18.3552 17.8396Z" fill="white"/>
<path d="M9.06458 15.5701C7.20469 14.1357 5.05937 12.4758 3 10.8477V23.844C3 23.8857 3.01979 23.9206 3.02396 23.9591L10.9224 17.0081C10.35 16.5612 9.73594 16.0888 9.06458 15.5701Z" fill="white"/>
<path d="M27.9404 24.1459C27.9721 24.0516 28.0018 23.9527 28.0018 23.8438V10.2959C25.5294 12.2188 21.9513 15.0058 19.6914 16.7891L27.9404 24.1459Z" fill="white"/>
<path d="M26.4375 6.12598H4.5625C3.99219 6.12598 3 7.11921 3 7.68848V8.91973C5.30417 10.7541 7.80677 12.6848 9.92708 14.3202C11.0964 15.2229 12.1443 16.0338 12.9714 16.6796C15.2005 18.4281 15.2005 18.4281 17.476 16.6088C19.5339 14.964 25.0703 10.6557 28 8.37702V7.69004C28 7.11764 27.0083 6.12598 26.4375 6.12598Z" fill="white"/>
</svg>
