<svg width="16" height="16" viewBox="0 0 16 16" fill="none" xmlns="http://www.w3.org/2000/svg">
<path d="M7.5625 6.6875V10.1875C7.5625 10.4297 7.75781 10.625 8 10.625C8.24219 10.625 8.4375 10.4297 8.4375 10.1875V6.6875C8.4375 6.44531 8.24219 6.25 8 6.25C7.75781 6.25 7.5625 6.44531 7.5625 6.6875Z" fill="#CE5E5E"/>
<path d="M7.5625 11.9375C7.5625 12.0535 7.60859 12.1648 7.69064 12.2469C7.77269 12.3289 7.88397 12.375 8 12.375C8.11603 12.375 8.22731 12.3289 8.30936 12.2469C8.39141 12.1648 8.4375 12.0535 8.4375 11.9375C8.4375 11.8215 8.39141 11.7102 8.30936 11.6281C8.22731 11.5461 8.11603 11.5 8 11.5C7.88397 11.5 7.77269 11.5461 7.69064 11.6281C7.60859 11.7102 7.5625 11.8215 7.5625 11.9375Z" fill="#CE5E5E"/>
<path d="M14.8847 12.893L8.741 2.25234C8.57694 1.96797 8.28787 1.82422 8.00037 1.82422C7.71287 1.82422 7.42381 1.96641 7.25975 2.25234L1.116 12.893C0.786311 13.4633 1.19881 14.1758 1.85662 14.1758H14.1441C14.8019 14.1758 15.2144 13.4633 14.8847 12.893ZM1.87381 13.3305L8.00037 2.71953L14.1441 13.3008L1.87381 13.3305Z" fill="#CE5E5E"/>
</svg>
