<svg width="30" height="30" viewBox="0 0 30 30" fill="none" xmlns="http://www.w3.org/2000/svg">
<g clip-path="url(#clip0_824_687)">
<path d="M15 30C23.2842 30 30 23.2842 30 15C30 6.71566 23.2842 0 15 0C6.71578 0 0 6.71566 0 15C0 23.2842 6.71578 30 15 30Z" fill="white"/>
<g clip-path="url(#clip1_824_687)">
<path d="M9 15.8919C11.1143 17.0473 13.3206 18.2567 15.0247 19.1925L21 15.8919C18.8364 19.1993 17.0337 21.9527 15.0247 25C13.012 21.9594 10.7893 18.6044 9 15.8919ZM9.22981 14.9796L15.0312 11.7942L20.757 14.9563L15.0345 18.1452L9.22981 14.9796ZM15.0247 10.7736L9 14.0371L14.9984 5L21 14.0574L15.0247 10.7736Z" fill="#3AB83A"/>
<path d="M15.0248 19.1925L21.0002 15.8919C18.8366 19.1993 15.0248 25 15.0248 25V19.1925ZM15.0314 11.7942L20.7572 14.9563L15.0346 18.1452L15.0314 11.7942ZM15.0248 10.7738L14.9985 5L21.0002 14.0574L15.0248 10.7738Z" fill="#0B8311"/>
<path d="M9.22998 14.9797L15.0317 15.4696L20.7575 14.9595L15.0346 18.1487L9.22998 14.9797Z" fill="#0B8311"/>
<path d="M15.0312 15.4696L20.7571 14.9595L15.0345 18.1487L15.0312 15.4696Z" fill="#146714"/>
</g>
</g>
<defs>
<clipPath id="clip0_824_687">
<rect width="30" height="30" fill="white"/>
</clipPath>
<clipPath id="clip1_824_687">
<rect width="12" height="20" fill="white" transform="translate(9 5)"/>
</clipPath>
</defs>
</svg>
