<svg width="41" height="30" viewBox="0 0 41 30" fill="none" xmlns="http://www.w3.org/2000/svg">
<path d="M19.2373 14.7641C21.1198 13.2875 22.3309 11.017 22.3309 8.46742C22.3309 4.02855 18.667 0.417725 14.1629 0.417725C9.65872 0.417725 5.9948 4.02855 5.9948 8.46742C5.9948 11.0445 7.23519 13.336 9.15224 14.8112C4.1708 16.8066 0.646484 21.6215 0.646484 27.2382V28.6336C0.646484 29.3751 1.25535 29.9752 2.00783 29.9752H26.512C27.2645 29.9752 27.8734 29.3751 27.8734 28.6336V27.2382C27.8734 21.573 24.2866 16.7281 19.2373 14.7641ZM8.71749 8.46742C8.71749 5.50775 11.1597 3.10095 14.1629 3.10095C17.1661 3.10095 19.6082 5.50775 19.6082 8.46742C19.6082 11.3891 17.2245 13.7631 14.2746 13.8234C14.2693 13.8234 14.2652 13.8221 14.2599 13.8221C14.2121 13.8221 14.1642 13.8286 14.1164 13.8286C11.1358 13.8038 8.71749 11.4114 8.71749 8.46742ZM3.36917 27.292V27.2382C3.36917 21.3752 8.1658 16.6036 14.0938 16.5145C14.1164 16.5145 14.139 16.5171 14.1629 16.5171C14.2188 16.5171 14.2733 16.5093 14.3291 16.5093C20.3023 16.546 25.1507 21.3438 25.1507 27.2382L3.36917 27.292Z" fill="white"/>
<path d="M38.0259 17.9618H28.2107C27.1196 17.9618 26.2324 17.087 26.2324 16.0123V5.20835C26.2324 4.13314 27.1201 3.25879 28.2107 3.25879H38.0264C39.1174 3.25879 40.0046 4.13357 40.0046 5.20835V16.0123C40.0046 17.0875 39.117 17.9618 38.0259 17.9618ZM28.4242 15.8018H37.8124V5.41879H28.4242V15.8018Z" fill="white"/>
<path d="M32.538 13.711L29.7414 11.464C29.2724 11.0871 29.2019 10.4066 29.5844 9.94444C29.9669 9.48227 30.6573 9.4127 31.1263 9.78966L32.388 10.8036L35.0298 8.20009C35.4577 7.77835 36.1517 7.77835 36.5796 8.20009C37.0076 8.62183 37.0076 9.30575 36.5796 9.72749L32.538 13.711Z" fill="#59AE99"/>
</svg>
