<svg width="49" height="49" viewBox="0 0 49 49" fill="none" xmlns="http://www.w3.org/2000/svg">
<path d="M24.5 39.0469C34.6482 39.0469 42.875 30.8201 42.875 20.6719C42.875 10.5236 34.6482 2.29688 24.5 2.29688C14.3518 2.29688 6.125 10.5236 6.125 20.6719C6.125 30.8201 14.3518 39.0469 24.5 39.0469Z" fill="url(#paint0_linear_4763_10930)"/>
<path d="M46.7031 34.4531H41.3438H39.8125H32.9219V43.6406V44.4062V46.7031H46.7031L43.6406 40.5781L46.7031 34.4531Z" fill="#5577FD"/>
<path d="M9.1875 34.4531H7.65625H2.29688L5.35938 40.5781L2.29688 46.7031H16.0781V44.4062V43.6406V34.4531H9.1875Z" fill="#5577FD"/>
<path d="M16.0781 43.6406H10.7188V45.1719H16.0781V43.6406Z" fill="#365CF3"/>
<path d="M41.3438 34.4531V45.1719H32.9219V43.6406H39.8125V34.4531H41.3438Z" fill="#365CF3"/>
<path d="M39.8125 31.3906V34.4531V43.6406H32.9219H16.0781H9.1875V34.4531V31.3906H9.58563H39.4144H39.8125Z" fill="#5577FD"/>
<path d="M44.4997 40.5781L47.3861 34.7977C47.4449 34.6811 47.4728 34.5515 47.4674 34.4211C47.4619 34.2907 47.4232 34.1638 47.3549 34.0526C47.2866 33.9414 47.1911 33.8494 47.0773 33.7855C46.9635 33.7216 46.8352 33.6879 46.7047 33.6875H40.5797V31.3906C40.5775 31.2939 40.5593 31.1982 40.5261 31.1073C42.5631 28.0085 43.6465 24.3803 43.6422 20.6719C43.6422 15.5955 41.6256 10.727 38.0361 7.13741C34.4465 3.54785 29.578 1.53125 24.5016 1.53125C19.4252 1.53125 14.5567 3.54785 10.9671 7.13741C7.37756 10.727 5.36096 15.5955 5.36096 20.6719C5.35668 24.3803 6.44009 28.0085 8.47706 31.1073C8.44383 31.1982 8.42573 31.2939 8.42346 31.3906V33.6875H2.29846C2.16795 33.6879 2.03971 33.7216 1.92591 33.7855C1.81211 33.8494 1.71654 33.9414 1.64827 34.0526C1.57999 34.1638 1.54129 34.2907 1.53583 34.4211C1.53036 34.5515 1.55833 34.6811 1.61706 34.7977L4.50346 40.5781L1.61706 46.3586C1.55833 46.4751 1.53036 46.6048 1.53583 46.7352C1.54129 46.8656 1.57999 46.9924 1.64827 47.1036C1.71654 47.2149 1.81211 47.3068 1.92591 47.3707C2.03971 47.4346 2.16795 47.4684 2.29846 47.4688H16.0797C16.2828 47.4688 16.4775 47.3881 16.6211 47.2445C16.7647 47.1009 16.8453 46.9062 16.8453 46.7031V44.4062H32.1578V46.7031C32.1578 46.9062 32.2385 47.1009 32.3821 47.2445C32.5257 47.3881 32.7204 47.4688 32.9235 47.4688H46.7047C46.8352 47.4684 46.9635 47.4346 47.0773 47.3707C47.1911 47.3068 47.2866 47.2149 47.3549 47.1036C47.4232 46.9924 47.4619 46.8656 47.4674 46.7352C47.4728 46.6048 47.4449 46.4751 47.3861 46.3586L44.4997 40.5781ZM6.89221 20.6719C6.89221 16.0016 8.74748 11.5226 12.0499 8.22017C15.3523 4.91777 19.8313 3.0625 24.5016 3.0625C29.1719 3.0625 33.6509 4.91777 36.9533 8.22017C40.2557 11.5226 42.111 16.0016 42.111 20.6719C42.1162 24.2281 41.0343 27.701 39.0102 30.625H9.993C7.96889 27.701 6.88695 24.2281 6.89221 20.6719ZM15.3141 45.9375H3.53878L6.04237 40.9227C6.09894 40.8166 6.12853 40.6983 6.12853 40.5781C6.12853 40.458 6.09894 40.3396 6.04237 40.2336L3.53878 35.2188H8.42346V43.6406C8.42346 43.8437 8.50413 44.0384 8.64771 44.182C8.79129 44.3256 8.98603 44.4062 9.18909 44.4062H15.3141V45.9375ZM9.95471 42.875V32.1562H39.0485V42.875H9.95471ZM33.6891 45.9375V44.4062H39.8141C40.0171 44.4062 40.2119 44.3256 40.3555 44.182C40.4991 44.0384 40.5797 43.8437 40.5797 43.6406V35.2188H45.4644L42.9608 40.2336C42.9042 40.3396 42.8746 40.458 42.8746 40.5781C42.8746 40.6983 42.9042 40.8166 42.9608 40.9227L45.4644 45.9375H33.6891Z" fill="white"/>
<path d="M25.2656 4.59375H23.7344V6.125H25.2656V4.59375Z" fill="white"/>
<path d="M22.4611 4.70491L20.9531 4.9707L21.2189 6.47871L22.7269 6.21292L22.4611 4.70491Z" fill="white"/>
<path d="M19.7194 5.30159L18.2812 5.8252L18.8051 7.26405L20.2432 6.74044L19.7194 5.30159Z" fill="white"/>
<path d="M17.1229 6.36421L15.7969 7.12988L16.5625 8.45596L17.8886 7.69029L17.1229 6.36421Z" fill="white"/>
<path d="M14.7511 7.86341L13.5781 8.84766L14.5624 10.0207L15.7354 9.03643L14.7511 7.86341Z" fill="white"/>
<path d="M12.6759 9.75394L11.6914 10.9268L12.8642 11.9113L13.8487 10.7384L12.6759 9.75394Z" fill="white"/>
<path d="M10.9571 11.9698L10.1914 13.2959L11.5175 14.0616L12.2832 12.7355L10.9571 11.9698Z" fill="white"/>
<path d="M9.65239 14.4544L9.12891 15.8926L10.5678 16.4163L11.0913 14.9781L9.65239 14.4544Z" fill="white"/>
<path d="M8.79704 17.1258L8.53125 18.6338L10.0393 18.8996L10.305 17.3916L8.79704 17.1258Z" fill="white"/>
<path d="M9.95312 19.9062H8.42188V21.4375H9.95312V19.9062Z" fill="white"/>
<path d="M10.0393 22.4432L8.53125 22.709L8.79704 24.217L10.305 23.9512L10.0393 22.4432Z" fill="white"/>
<path d="M10.5678 24.9283L9.12891 25.4521L9.65251 26.8903L11.0914 26.3664L10.5678 24.9283Z" fill="white"/>
<path d="M11.5176 27.2823L10.1914 28.0479L10.9569 29.374L12.2831 28.6085L11.5176 27.2823Z" fill="white"/>
<path d="M37.4805 27.2823L36.7148 28.6084L38.0409 29.3741L38.8066 28.048L37.4805 27.2823Z" fill="white"/>
<path d="M38.4297 24.929L37.9062 26.3672L39.3451 26.8909L39.8686 25.4528L38.4297 24.929Z" fill="white"/>
<path d="M38.9572 22.4441L38.6914 23.9521L40.1994 24.2179L40.4652 22.7099L38.9572 22.4441Z" fill="white"/>
<path d="M40.5781 19.9062H39.0469V21.4375H40.5781V19.9062Z" fill="white"/>
<path d="M40.1994 17.1248L38.6914 17.3906L38.9572 18.8986L40.4652 18.6328L40.1994 17.1248Z" fill="white"/>
<path d="M39.3451 14.4537L37.9062 14.9775L38.4299 16.4157L39.8687 15.8918L39.3451 14.4537Z" fill="white"/>
<path d="M38.0409 11.9687L36.7148 12.7344L37.4805 14.0604L38.8066 13.2948L38.0409 11.9687Z" fill="white"/>
<path d="M36.3254 9.7511L35.1523 10.7354L36.1366 11.9084L37.3096 10.9241L36.3254 9.7511Z" fill="white"/>
<path d="M34.2496 7.86292L33.2656 9.03613L34.4388 10.0202L35.4229 8.84694L34.2496 7.86292Z" fill="white"/>
<path d="M31.8749 6.36524L31.1094 7.69141L32.4355 8.45692L33.2011 7.13075L31.8749 6.36524Z" fill="white"/>
<path d="M29.2774 5.30127L28.7539 6.74023L30.1922 7.26352L30.7157 5.82455L29.2774 5.30127Z" fill="white"/>
<path d="M26.5389 4.70482L26.2734 6.21289L27.7815 6.47832L28.0469 4.97025L26.5389 4.70482Z" fill="white"/>
<path d="M20.442 34C20.4753 34 20.502 34.0133 20.522 34.04C20.5486 34.06 20.562 34.0867 20.562 34.12V35.1C20.562 35.1333 20.5486 35.1633 20.522 35.19C20.502 35.21 20.4753 35.22 20.442 35.22H18.652C18.6186 35.22 18.602 35.2367 18.602 35.27V40.88C18.602 40.9133 18.5886 40.9433 18.562 40.97C18.542 40.99 18.5153 41 18.482 41H17.312C17.2786 41 17.2486 40.99 17.222 40.97C17.202 40.9433 17.192 40.9133 17.192 40.88V35.27C17.192 35.2367 17.1753 35.22 17.142 35.22H15.402C15.3686 35.22 15.3386 35.21 15.312 35.19C15.292 35.1633 15.282 35.1333 15.282 35.1V34.12C15.282 34.0867 15.292 34.06 15.312 34.04C15.3386 34.0133 15.3686 34 15.402 34H20.442ZM22.073 35.28C21.8463 35.28 21.6563 35.2067 21.503 35.06C21.3563 34.9067 21.283 34.7167 21.283 34.49C21.283 34.2567 21.3563 34.0667 21.503 33.92C21.6496 33.7733 21.8396 33.7 22.073 33.7C22.3063 33.7 22.4963 33.7733 22.643 33.92C22.7896 34.0667 22.863 34.2567 22.863 34.49C22.863 34.7167 22.7863 34.9067 22.633 35.06C22.4863 35.2067 22.2996 35.28 22.073 35.28ZM21.473 41C21.4396 41 21.4096 40.99 21.383 40.97C21.363 40.9433 21.353 40.9133 21.353 40.88V35.97C21.353 35.9367 21.363 35.91 21.383 35.89C21.4096 35.8633 21.4396 35.85 21.473 35.85H22.643C22.6763 35.85 22.703 35.8633 22.723 35.89C22.7496 35.91 22.763 35.9367 22.763 35.97V40.88C22.763 40.9133 22.7496 40.9433 22.723 40.97C22.703 40.99 22.6763 41 22.643 41H21.473ZM28.4118 37.9C28.4518 38.1533 28.4651 38.4367 28.4518 38.75C28.4451 38.83 28.4018 38.87 28.3218 38.87H25.2318C25.1918 38.87 25.1785 38.8867 25.1918 38.92C25.2118 39.0533 25.2485 39.1867 25.3018 39.32C25.4751 39.6933 25.8285 39.88 26.3618 39.88C26.7885 39.8733 27.1251 39.7 27.3718 39.36C27.3985 39.32 27.4285 39.3 27.4618 39.3C27.4818 39.3 27.5051 39.3133 27.5318 39.34L28.2518 40.05C28.2851 40.0833 28.3018 40.1133 28.3018 40.14C28.3018 40.1533 28.2885 40.18 28.2618 40.22C28.0418 40.4933 27.7585 40.7067 27.4118 40.86C27.0651 41.0067 26.6851 41.08 26.2718 41.08C25.6985 41.08 25.2118 40.95 24.8118 40.69C24.4185 40.43 24.1351 40.0667 23.9618 39.6C23.8218 39.2667 23.7518 38.83 23.7518 38.29C23.7518 37.9233 23.8018 37.6 23.9018 37.32C24.0551 36.8467 24.3218 36.47 24.7018 36.19C25.0885 35.91 25.5451 35.77 26.0718 35.77C26.7385 35.77 27.2718 35.9633 27.6718 36.35C28.0785 36.7367 28.3251 37.2533 28.4118 37.9ZM26.0818 36.99C25.6618 36.99 25.3851 37.1867 25.2518 37.58C25.2251 37.6667 25.2018 37.7733 25.1818 37.9C25.1818 37.9333 25.1985 37.95 25.2318 37.95H26.9618C27.0018 37.95 27.0151 37.9333 27.0018 37.9C26.9685 37.7067 26.9518 37.6133 26.9518 37.62C26.8918 37.42 26.7851 37.2667 26.6318 37.16C26.4851 37.0467 26.3018 36.99 26.0818 36.99ZM31.8808 35.79C32.1208 35.79 32.3108 35.8367 32.4508 35.93C32.5041 35.9567 32.5241 36.0067 32.5108 36.08L32.3008 37.22C32.2941 37.3 32.2474 37.3233 32.1608 37.29C32.0608 37.2567 31.9441 37.24 31.8108 37.24C31.7574 37.24 31.6841 37.2467 31.5908 37.26C31.3508 37.28 31.1474 37.37 30.9808 37.53C30.8141 37.6833 30.7308 37.89 30.7308 38.15V40.88C30.7308 40.9133 30.7174 40.9433 30.6908 40.97C30.6708 40.99 30.6441 41 30.6108 41H29.4408C29.4074 41 29.3774 40.99 29.3508 40.97C29.3308 40.9433 29.3208 40.9133 29.3208 40.88V35.98C29.3208 35.9467 29.3308 35.92 29.3508 35.9C29.3774 35.8733 29.4074 35.86 29.4408 35.86H30.6108C30.6441 35.86 30.6708 35.8733 30.6908 35.9C30.7174 35.92 30.7308 35.9467 30.7308 35.98V36.36C30.7308 36.38 30.7374 36.3933 30.7508 36.4C30.7641 36.4067 30.7741 36.4033 30.7808 36.39C31.0541 35.99 31.4208 35.79 31.8808 35.79Z" fill="white"/>
<g filter="url(#filter0_d_4763_10930)">
<path d="M28.694 19.7946C28.8778 20.3949 28.9696 20.9767 28.9696 21.5402C28.9696 22.165 28.8716 22.7285 28.6756 23.2308C28.3939 24.0147 27.8978 24.6395 27.1873 25.105C26.4768 25.5582 25.6438 25.7849 24.6883 25.7849C23.7573 25.7849 22.9365 25.5644 22.226 25.1234C21.5278 24.6701 21.0316 24.0576 20.7376 23.2859C20.6151 22.9674 20.5233 22.6305 20.462 22.2752V22.2385C20.462 22.1037 20.5355 22.0364 20.6825 22.0364H22.9059C23.0284 22.0364 23.108 22.1037 23.1448 22.2385C23.157 22.312 23.1754 22.3732 23.1999 22.4222C23.2244 22.4712 23.2428 22.5141 23.255 22.5509C23.3775 22.8694 23.5613 23.1144 23.8063 23.2859C24.0513 23.4574 24.3391 23.5431 24.6699 23.5431C25.0129 23.5431 25.313 23.4512 25.5703 23.2675C25.8275 23.0837 26.0174 22.8265 26.1399 22.4957C26.2624 22.2507 26.3236 21.9322 26.3236 21.5402C26.3236 21.185 26.2685 20.8665 26.1583 20.5847C26.0725 20.2662 25.901 20.0212 25.6438 19.8497C25.3865 19.6782 25.0864 19.5925 24.7434 19.5925C24.4004 19.5925 24.0819 19.6721 23.7879 19.8314C23.4939 19.9906 23.2979 20.1989 23.1999 20.4561C23.1631 20.5786 23.0835 20.6399 22.961 20.6399H20.7009C20.6396 20.6399 20.5845 20.6215 20.5355 20.5847C20.4988 20.5357 20.4804 20.4806 20.4804 20.4194V13.0142C20.4804 12.953 20.4988 12.904 20.5355 12.8672C20.5845 12.8182 20.6396 12.7937 20.7009 12.7937H28.2898C28.351 12.7937 28.4 12.8182 28.4368 12.8672C28.4858 12.904 28.5103 12.953 28.5103 13.0142V14.7966C28.5103 14.8579 28.4858 14.913 28.4368 14.962C28.4 14.9987 28.351 15.0171 28.2898 15.0171H23.1631C23.1019 15.0171 23.0713 15.0477 23.0713 15.109L23.0529 17.8285C23.0529 17.9142 23.0896 17.9326 23.1631 17.8836C23.7144 17.5284 24.3514 17.3507 25.0741 17.3507C25.9316 17.3507 26.6789 17.5712 27.3159 18.0122C27.9651 18.441 28.4245 19.0351 28.694 19.7946Z" fill="white"/>
</g>
<defs>
<filter id="filter0_d_4763_10930" x="19.4609" y="12.7939" width="10.5078" height="14.9912" filterUnits="userSpaceOnUse" color-interpolation-filters="sRGB">
<feFlood flood-opacity="0" result="BackgroundImageFix"/>
<feColorMatrix in="SourceAlpha" type="matrix" values="0 0 0 0 0 0 0 0 0 0 0 0 0 0 0 0 0 0 127 0" result="hardAlpha"/>
<feOffset dy="1"/>
<feGaussianBlur stdDeviation="0.5"/>
<feComposite in2="hardAlpha" operator="out"/>
<feColorMatrix type="matrix" values="0 0 0 0 0.725 0 0 0 0 0.38568 0 0 0 0 0.111771 0 0 0 1 0"/>
<feBlend mode="normal" in2="BackgroundImageFix" result="effect1_dropShadow_4763_10930"/>
<feBlend mode="normal" in="SourceGraphic" in2="effect1_dropShadow_4763_10930" result="shape"/>
</filter>
<linearGradient id="paint0_linear_4763_10930" x1="36.5" y1="34" x2="14.5" y2="6.5" gradientUnits="userSpaceOnUse">
<stop stop-color="#EC8633"/>
<stop offset="1" stop-color="#FFC292"/>
</linearGradient>
</defs>
</svg>
