<svg width="47" height="46" viewBox="0 0 47 46" fill="none" xmlns="http://www.w3.org/2000/svg">
<path d="M23.2734 37.5156C33.4217 37.5156 41.6484 29.2889 41.6484 19.1406C41.6484 8.99239 33.4217 0.765625 23.2734 0.765625C13.1252 0.765625 4.89844 8.99239 4.89844 19.1406C4.89844 29.2889 13.1252 37.5156 23.2734 37.5156Z" fill="url(#paint0_linear_4763_10976)"/>
<path d="M45.4766 32.9219H40.1172H38.5859H31.6953V42.1094V42.875V45.1719H45.4766L42.4141 39.0469L45.4766 32.9219Z" fill="#5577FD"/>
<path d="M7.96094 32.9219H6.42969H1.07031L4.13281 39.0469L1.07031 45.1719H14.8516V42.875V42.1094V32.9219H7.96094Z" fill="#5577FD"/>
<path d="M14.8516 42.1094H9.49219V43.6406H14.8516V42.1094Z" fill="#365CF3"/>
<path d="M40.1172 32.9219V43.6406H31.6953V42.1094H38.5859V32.9219H40.1172Z" fill="#365CF3"/>
<path d="M38.5859 29.8594V32.9219V42.1094H31.6953H14.8516H7.96094V32.9219V29.8594H8.35906H38.1878H38.5859Z" fill="#5577FD"/>
<path d="M43.2732 39.0469L46.1596 33.2664C46.2183 33.1499 46.2463 33.0202 46.2408 32.8898C46.2353 32.7594 46.1966 32.6326 46.1283 32.5214C46.0601 32.4101 45.9645 32.3182 45.8507 32.2543C45.7369 32.1904 45.6087 32.1566 45.4782 32.1562H39.3532V29.8594C39.3509 29.7627 39.3328 29.667 39.2996 29.5761C41.3365 26.4772 42.4199 22.849 42.4157 19.1406C42.4157 14.0642 40.3991 9.19572 36.8095 5.60616C33.2199 2.0166 28.3514 0 23.275 0C18.1986 0 13.3301 2.0166 9.74056 5.60616C6.151 9.19572 4.1344 14.0642 4.1344 19.1406C4.13012 22.849 5.21353 26.4772 7.2505 29.5761C7.21727 29.667 7.19916 29.7627 7.1969 29.8594V32.1562H1.0719C0.94139 32.1566 0.813146 32.1904 0.699348 32.2543C0.585551 32.3182 0.489977 32.4101 0.421705 32.5214C0.353432 32.6326 0.314727 32.7594 0.309265 32.8898C0.303802 33.0202 0.331765 33.1499 0.390496 33.2664L3.2769 39.0469L0.390496 44.8273C0.331765 44.9439 0.303802 45.0735 0.309265 45.2039C0.314727 45.3343 0.353432 45.4612 0.421705 45.5724C0.489977 45.6836 0.585551 45.7756 0.699348 45.8395C0.813146 45.9034 0.94139 45.9371 1.0719 45.9375H14.8532C15.0562 45.9375 15.2509 45.8568 15.3945 45.7133C15.5381 45.5697 15.6188 45.3749 15.6188 45.1719V42.875H30.9313V45.1719C30.9313 45.3749 31.0119 45.5697 31.1555 45.7133C31.2991 45.8568 31.4938 45.9375 31.6969 45.9375H45.4782C45.6087 45.9371 45.7369 45.9034 45.8507 45.8395C45.9645 45.7756 46.0601 45.6836 46.1283 45.5724C46.1966 45.4612 46.2353 45.3343 46.2408 45.2039C46.2463 45.0735 46.2183 44.9439 46.1596 44.8273L43.2732 39.0469ZM5.66565 19.1406C5.66565 14.4703 7.52092 9.99131 10.8233 6.68892C14.1257 3.38652 18.6047 1.53125 23.275 1.53125C27.9453 1.53125 32.4243 3.38652 35.7267 6.68892C39.0291 9.99131 40.8844 14.4703 40.8844 19.1406C40.8897 22.6969 39.8077 26.1697 37.7836 29.0938H8.76643C6.74232 26.1697 5.66039 22.6969 5.66565 19.1406ZM14.0875 44.4062H2.31221L4.81581 39.3914C4.87238 39.2854 4.90197 39.167 4.90197 39.0469C4.90197 38.9267 4.87238 38.8084 4.81581 38.7023L2.31221 33.6875H7.1969V42.1094C7.1969 42.3124 7.27757 42.5072 7.42115 42.6508C7.56473 42.7943 7.75947 42.875 7.96253 42.875H14.0875V44.4062ZM8.72815 41.3438V30.625H37.8219V41.3438H8.72815ZM32.4625 44.4062V42.875H38.5875C38.7906 42.875 38.9853 42.7943 39.1289 42.6508C39.2725 42.5072 39.3532 42.3124 39.3532 42.1094V33.6875H44.2378L41.7342 38.7023C41.6777 38.8084 41.6481 38.9267 41.6481 39.0469C41.6481 39.167 41.6777 39.2854 41.7342 39.3914L44.2378 44.4062H32.4625Z" fill="white"/>
<path d="M24.0391 3.0625H22.5078V4.59375H24.0391V3.0625Z" fill="white"/>
<path d="M21.2346 3.17366L19.7266 3.43945L19.9924 4.94746L21.5004 4.68167L21.2346 3.17366Z" fill="white"/>
<path d="M18.4928 3.77034L17.0547 4.29395L17.5786 5.7328L19.0167 5.20919L18.4928 3.77034Z" fill="white"/>
<path d="M15.8964 4.83296L14.5703 5.59863L15.336 6.92471L16.6621 6.15904L15.8964 4.83296Z" fill="white"/>
<path d="M13.5246 6.33216L12.3516 7.31641L13.3358 8.48943L14.5088 7.50518L13.5246 6.33216Z" fill="white"/>
<path d="M11.4493 8.22269L10.4648 9.39551L11.6377 10.38L12.6222 9.20718L11.4493 8.22269Z" fill="white"/>
<path d="M9.73052 10.4386L8.96484 11.7646L10.2909 12.5303L11.0566 11.2042L9.73052 10.4386Z" fill="white"/>
<path d="M8.42583 12.9232L7.90234 14.3613L9.34124 14.8851L9.86472 13.4469L8.42583 12.9232Z" fill="white"/>
<path d="M7.57048 15.5945L7.30469 17.1025L8.81269 17.3683L9.07849 15.8603L7.57048 15.5945Z" fill="white"/>
<path d="M8.72656 18.375H7.19531V19.9062H8.72656V18.375Z" fill="white"/>
<path d="M8.81269 20.9119L7.30469 21.1777L7.57048 22.6857L9.07849 22.4199L8.81269 20.9119Z" fill="white"/>
<path d="M9.34119 23.397L7.90234 23.9209L8.42595 25.359L9.8648 24.8352L9.34119 23.397Z" fill="white"/>
<path d="M10.291 25.7511L8.96484 26.5166L9.73035 27.8428L11.0565 27.0773L10.291 25.7511Z" fill="white"/>
<path d="M36.254 25.7511L35.4883 27.0771L36.8144 27.8428L37.58 26.5167L36.254 25.7511Z" fill="white"/>
<path d="M37.2032 23.3978L36.6797 24.8359L38.1186 25.3597L38.6421 23.9215L37.2032 23.3978Z" fill="white"/>
<path d="M37.7306 20.9129L37.4648 22.4209L38.9728 22.6867L39.2386 21.1787L37.7306 20.9129Z" fill="white"/>
<path d="M39.3516 18.375H37.8203V19.9062H39.3516V18.375Z" fill="white"/>
<path d="M38.9728 15.5936L37.4648 15.8594L37.7306 17.3674L39.2386 17.1016L38.9728 15.5936Z" fill="white"/>
<path d="M38.1185 12.9224L36.6797 13.4463L37.2033 14.8844L38.6421 14.3606L38.1185 12.9224Z" fill="white"/>
<path d="M36.8144 10.4375L35.4883 11.2031L36.254 12.5292L37.58 11.7635L36.8144 10.4375Z" fill="white"/>
<path d="M35.0988 8.21985L33.9258 9.2041L34.91 10.3771L36.0831 9.39288L35.0988 8.21985Z" fill="white"/>
<path d="M33.0231 6.33167L32.0391 7.50488L33.2123 8.48891L34.1963 7.31569L33.0231 6.33167Z" fill="white"/>
<path d="M30.6483 4.83399L29.8828 6.16016L31.209 6.92567L31.9745 5.5995L30.6483 4.83399Z" fill="white"/>
<path d="M28.0509 3.77002L27.5273 5.20898L28.9656 5.73227L29.4891 4.2933L28.0509 3.77002Z" fill="white"/>
<path d="M25.3123 3.17357L25.0469 4.68164L26.5549 4.94707L26.8204 3.439L25.3123 3.17357Z" fill="white"/>
<path d="M19.2154 32.4687C19.2487 32.4687 19.2754 32.4821 19.2954 32.5087C19.3221 32.5287 19.3354 32.5554 19.3354 32.5887V33.5687C19.3354 33.6021 19.3221 33.6321 19.2954 33.6587C19.2754 33.6787 19.2487 33.6887 19.2154 33.6887H17.4254C17.3921 33.6887 17.3754 33.7054 17.3754 33.7387V39.3487C17.3754 39.3821 17.3621 39.4121 17.3354 39.4387C17.3154 39.4587 17.2887 39.4688 17.2554 39.4688H16.0854C16.0521 39.4688 16.0221 39.4587 15.9954 39.4387C15.9754 39.4121 15.9654 39.3821 15.9654 39.3487V33.7387C15.9654 33.7054 15.9487 33.6887 15.9154 33.6887H14.1754C14.1421 33.6887 14.1121 33.6787 14.0854 33.6587C14.0654 33.6321 14.0554 33.6021 14.0554 33.5687V32.5887C14.0554 32.5554 14.0654 32.5287 14.0854 32.5087C14.1121 32.4821 14.1421 32.4687 14.1754 32.4687H19.2154ZM20.8464 33.7487C20.6197 33.7487 20.4297 33.6754 20.2764 33.5287C20.1297 33.3754 20.0564 33.1854 20.0564 32.9587C20.0564 32.7254 20.1297 32.5354 20.2764 32.3887C20.4231 32.2421 20.6131 32.1687 20.8464 32.1687C21.0797 32.1687 21.2697 32.2421 21.4164 32.3887C21.5631 32.5354 21.6364 32.7254 21.6364 32.9587C21.6364 33.1854 21.5597 33.3754 21.4064 33.5287C21.2597 33.6754 21.0731 33.7487 20.8464 33.7487ZM20.2464 39.4688C20.2131 39.4688 20.1831 39.4587 20.1564 39.4387C20.1364 39.4121 20.1264 39.3821 20.1264 39.3487V34.4387C20.1264 34.4054 20.1364 34.3787 20.1564 34.3587C20.1831 34.3321 20.2131 34.3187 20.2464 34.3187H21.4164C21.4497 34.3187 21.4764 34.3321 21.4964 34.3587C21.5231 34.3787 21.5364 34.4054 21.5364 34.4387V39.3487C21.5364 39.3821 21.5231 39.4121 21.4964 39.4387C21.4764 39.4587 21.4497 39.4688 21.4164 39.4688H20.2464ZM27.1852 36.3687C27.2252 36.6221 27.2386 36.9054 27.2252 37.2187C27.2186 37.2987 27.1752 37.3387 27.0952 37.3387H24.0052C23.9652 37.3387 23.9519 37.3554 23.9652 37.3887C23.9852 37.5221 24.0219 37.6554 24.0752 37.7887C24.2486 38.1621 24.6019 38.3487 25.1352 38.3487C25.5619 38.3421 25.8986 38.1687 26.1452 37.8287C26.1719 37.7887 26.2019 37.7687 26.2352 37.7687C26.2552 37.7687 26.2786 37.7821 26.3052 37.8087L27.0252 38.5187C27.0586 38.5521 27.0752 38.5821 27.0752 38.6087C27.0752 38.6221 27.0619 38.6487 27.0352 38.6887C26.8152 38.9621 26.5319 39.1754 26.1852 39.3287C25.8386 39.4754 25.4586 39.5488 25.0452 39.5488C24.4719 39.5488 23.9852 39.4187 23.5852 39.1587C23.1919 38.8987 22.9086 38.5354 22.7352 38.0687C22.5952 37.7354 22.5252 37.2987 22.5252 36.7587C22.5252 36.3921 22.5752 36.0687 22.6752 35.7887C22.8286 35.3154 23.0952 34.9387 23.4752 34.6587C23.8619 34.3787 24.3186 34.2387 24.8452 34.2387C25.5119 34.2387 26.0452 34.4321 26.4452 34.8187C26.8519 35.2054 27.0986 35.7221 27.1852 36.3687ZM24.8552 35.4587C24.4352 35.4587 24.1586 35.6554 24.0252 36.0487C23.9986 36.1354 23.9752 36.2421 23.9552 36.3687C23.9552 36.4021 23.9719 36.4187 24.0052 36.4187H25.7352C25.7752 36.4187 25.7886 36.4021 25.7752 36.3687C25.7419 36.1754 25.7252 36.0821 25.7252 36.0887C25.6652 35.8887 25.5586 35.7354 25.4052 35.6287C25.2586 35.5154 25.0752 35.4587 24.8552 35.4587ZM30.6542 34.2587C30.8942 34.2587 31.0842 34.3054 31.2242 34.3987C31.2776 34.4254 31.2976 34.4754 31.2842 34.5487L31.0742 35.6887C31.0676 35.7687 31.0209 35.7921 30.9342 35.7587C30.8342 35.7254 30.7176 35.7087 30.5842 35.7087C30.5309 35.7087 30.4576 35.7154 30.3642 35.7287C30.1242 35.7487 29.9209 35.8387 29.7542 35.9987C29.5876 36.1521 29.5042 36.3587 29.5042 36.6187V39.3487C29.5042 39.3821 29.4909 39.4121 29.4642 39.4387C29.4442 39.4587 29.4176 39.4688 29.3842 39.4688H28.2142C28.1809 39.4688 28.1509 39.4587 28.1242 39.4387C28.1042 39.4121 28.0942 39.3821 28.0942 39.3487V34.4487C28.0942 34.4154 28.1042 34.3887 28.1242 34.3687C28.1509 34.3421 28.1809 34.3288 28.2142 34.3288H29.3842C29.4176 34.3288 29.4442 34.3421 29.4642 34.3687C29.4909 34.3887 29.5042 34.4154 29.5042 34.4487V34.8287C29.5042 34.8487 29.5109 34.8621 29.5242 34.8687C29.5376 34.8754 29.5476 34.8721 29.5542 34.8587C29.8276 34.4587 30.1942 34.2587 30.6542 34.2587Z" fill="white"/>
<g filter="url(#filter0_d_4763_10976)">
<path d="M27.2653 17.8959C27.5593 18.4471 27.7063 19.1515 27.7063 20.009C27.7063 20.7195 27.5899 21.3565 27.3572 21.92C27.0387 22.6427 26.5426 23.2124 25.8688 23.6289C25.1951 24.0454 24.3988 24.2536 23.4801 24.2536C22.5368 24.2536 21.7222 24.0392 21.0362 23.6105C20.3502 23.1695 19.8541 22.5631 19.5478 21.7914C19.3273 21.2524 19.2171 20.6521 19.2171 19.9906V14.4597C19.2171 13.7982 19.3886 13.2164 19.7316 12.7141C20.0868 12.1996 20.5768 11.8076 21.2016 11.5381C21.8263 11.2564 22.5429 11.1155 23.3514 11.1155C24.1477 11.1155 24.8521 11.2564 25.4646 11.5381C26.0771 11.8076 26.5487 12.1935 26.8794 12.6957C27.2224 13.1857 27.3939 13.7554 27.3939 14.4046V14.9191C27.3939 14.9804 27.3694 15.0355 27.3204 15.0845C27.2837 15.1212 27.2347 15.1396 27.1734 15.1396H25.0236C24.9623 15.1396 24.9072 15.1212 24.8582 15.0845C24.8214 15.0355 24.8031 14.9804 24.8031 14.9191V14.7537C24.8031 14.3495 24.6683 14.0126 24.3988 13.7431C24.1293 13.4736 23.7802 13.3389 23.3514 13.3389C22.8982 13.3389 22.5246 13.4797 22.2306 13.7615C21.9488 14.031 21.8079 14.3801 21.8079 14.8089V16.5361C21.8079 16.5729 21.8202 16.5974 21.8447 16.6096C21.8692 16.6096 21.8937 16.5974 21.9182 16.5729C22.4204 16.1441 23.0881 15.9297 23.9211 15.9297C24.6561 15.9297 25.3114 16.1012 25.8872 16.4442C26.4752 16.775 26.9346 17.2589 27.2653 17.8959ZM24.8398 21.2034C25.0236 20.8849 25.1154 20.499 25.1154 20.0457C25.1154 19.5557 25.0174 19.1515 24.8214 18.833C24.5152 18.343 24.0681 18.098 23.4801 18.098C22.8186 18.098 22.3592 18.3491 22.1019 18.8514C21.9182 19.1699 21.8263 19.5802 21.8263 20.0825C21.8263 20.5235 21.9059 20.8971 22.0652 21.2034C22.3347 21.7424 22.8002 22.0119 23.4617 22.0119C24.0987 22.0119 24.5581 21.7424 24.8398 21.2034Z" fill="white"/>
</g>
<defs>
<filter id="filter0_d_4763_10976" x="18.2188" y="11.1152" width="10.4883" height="15.1387" filterUnits="userSpaceOnUse" color-interpolation-filters="sRGB">
<feFlood flood-opacity="0" result="BackgroundImageFix"/>
<feColorMatrix in="SourceAlpha" type="matrix" values="0 0 0 0 0 0 0 0 0 0 0 0 0 0 0 0 0 0 127 0" result="hardAlpha"/>
<feOffset dy="1"/>
<feGaussianBlur stdDeviation="0.5"/>
<feComposite in2="hardAlpha" operator="out"/>
<feColorMatrix type="matrix" values="0 0 0 0 0.858333 0 0 0 0 0.186767 0 0 0 0 0.0357639 0 0 0 1 0"/>
<feBlend mode="normal" in2="BackgroundImageFix" result="effect1_dropShadow_4763_10976"/>
<feBlend mode="normal" in="SourceGraphic" in2="effect1_dropShadow_4763_10976" result="shape"/>
</filter>
<linearGradient id="paint0_linear_4763_10976" x1="35.2734" y1="32.4687" x2="13.2734" y2="4.96875" gradientUnits="userSpaceOnUse">
<stop stop-color="#FF5630"/>
<stop offset="0.0001" stop-color="#FF3030"/>
<stop offset="1" stop-color="#FF9B85"/>
</linearGradient>
</defs>
</svg>
