<svg width="50" height="49" viewBox="0 0 50 49" fill="none" xmlns="http://www.w3.org/2000/svg">
<path d="M24.8086 39.0469C34.9568 39.0469 43.1836 30.8201 43.1836 20.6719C43.1836 10.5236 34.9568 2.29688 24.8086 2.29688C14.6604 2.29688 6.43359 10.5236 6.43359 20.6719C6.43359 30.8201 14.6604 39.0469 24.8086 39.0469Z" fill="url(#paint0_linear_4763_10796)"/>
<path d="M47.0117 34.4531H41.6523H40.1211H33.2305V43.6406V44.4062V46.7031H47.0117L43.9492 40.5781L47.0117 34.4531Z" fill="#5577FD"/>
<path d="M9.49609 34.4531H7.96484H2.60547L5.66797 40.5781L2.60547 46.7031H16.3867V44.4062V43.6406V34.4531H9.49609Z" fill="#5577FD"/>
<path d="M16.3867 43.6406H11.0273V45.1719H16.3867V43.6406Z" fill="#365CF3"/>
<path d="M41.6523 34.4531V45.1719H33.2305V43.6406H40.1211V34.4531H41.6523Z" fill="#365CF3"/>
<path d="M40.1211 31.3906V34.4531V43.6406H33.2305H16.3867H9.49609V34.4531V31.3906H9.89422H39.723H40.1211Z" fill="#5577FD"/>
<path d="M44.8083 40.5781L47.6947 34.7977C47.7534 34.6811 47.7814 34.5515 47.7759 34.4211C47.7705 34.2907 47.7318 34.1638 47.6635 34.0526C47.5952 33.9414 47.4997 33.8494 47.3859 33.7855C47.2721 33.7216 47.1438 33.6879 47.0133 33.6875H40.8883V31.3906C40.886 31.2939 40.8679 31.1982 40.8347 31.1073C42.8717 28.0085 43.9551 24.3803 43.9508 20.6719C43.9508 15.5955 41.9342 10.727 38.3447 7.13741C34.7551 3.54785 29.8866 1.53125 24.8102 1.53125C19.7338 1.53125 14.8653 3.54785 11.2757 7.13741C7.68615 10.727 5.66956 15.5955 5.66956 20.6719C5.66528 24.3803 6.74869 28.0085 8.78565 31.1073C8.75242 31.1982 8.73432 31.2939 8.73206 31.3906V33.6875H2.60706C2.47655 33.6879 2.3483 33.7216 2.2345 33.7855C2.12071 33.8494 2.02513 33.9414 1.95686 34.0526C1.88859 34.1638 1.84988 34.2907 1.84442 34.4211C1.83896 34.5515 1.86692 34.6811 1.92565 34.7977L4.81206 40.5781L1.92565 46.3586C1.86692 46.4751 1.83896 46.6048 1.84442 46.7352C1.84988 46.8656 1.88859 46.9924 1.95686 47.1036C2.02513 47.2149 2.12071 47.3068 2.2345 47.3707C2.3483 47.4346 2.47655 47.4684 2.60706 47.4688H16.3883C16.5914 47.4688 16.7861 47.3881 16.9297 47.2445C17.0733 47.1009 17.1539 46.9062 17.1539 46.7031V44.4062H32.4664V46.7031C32.4664 46.9062 32.5471 47.1009 32.6907 47.2445C32.8343 47.3881 33.029 47.4688 33.2321 47.4688H47.0133C47.1438 47.4684 47.2721 47.4346 47.3859 47.3707C47.4997 47.3068 47.5952 47.2149 47.6635 47.1036C47.7318 46.9924 47.7705 46.8656 47.7759 46.7352C47.7814 46.6048 47.7534 46.4751 47.6947 46.3586L44.8083 40.5781ZM7.20081 20.6719C7.20081 16.0016 9.05608 11.5226 12.3585 8.22017C15.6609 4.91777 20.1399 3.0625 24.8102 3.0625C29.4805 3.0625 33.9595 4.91777 37.2619 8.22017C40.5643 11.5226 42.4196 16.0016 42.4196 20.6719C42.4248 24.2281 41.3429 27.701 39.3188 30.625H10.3016C8.27748 27.701 7.19555 24.2281 7.20081 20.6719ZM15.6227 45.9375H3.84737L6.35096 40.9227C6.40753 40.8166 6.43712 40.6983 6.43712 40.5781C6.43712 40.458 6.40753 40.3396 6.35096 40.2336L3.84737 35.2188H8.73206V43.6406C8.73206 43.8437 8.81272 44.0384 8.9563 44.182C9.09989 44.3256 9.29463 44.4062 9.49768 44.4062H15.6227V45.9375ZM10.2633 42.875V32.1562H39.3571V42.875H10.2633ZM33.9977 45.9375V44.4062H40.1227C40.3257 44.4062 40.5205 44.3256 40.6641 44.182C40.8076 44.0384 40.8883 43.8437 40.8883 43.6406V35.2188H45.773L43.2694 40.2336C43.2128 40.3396 43.1832 40.458 43.1832 40.5781C43.1832 40.6983 43.2128 40.8166 43.2694 40.9227L45.773 45.9375H33.9977Z" fill="white"/>
<path d="M25.5742 4.59375H24.043V6.125H25.5742V4.59375Z" fill="white"/>
<path d="M22.7697 4.70491L21.2617 4.9707L21.5275 6.47871L23.0355 6.21292L22.7697 4.70491Z" fill="white"/>
<path d="M20.028 5.30159L18.5898 5.8252L19.1137 7.26405L20.5518 6.74044L20.028 5.30159Z" fill="white"/>
<path d="M17.4315 6.36421L16.1055 7.12988L16.8711 8.45596L18.1972 7.69029L17.4315 6.36421Z" fill="white"/>
<path d="M15.0597 7.86341L13.8867 8.84766L14.871 10.0207L16.044 9.03643L15.0597 7.86341Z" fill="white"/>
<path d="M12.9845 9.75394L12 10.9268L13.1728 11.9113L14.1573 10.7384L12.9845 9.75394Z" fill="white"/>
<path d="M11.2657 11.9698L10.5 13.2959L11.8261 14.0616L12.5917 12.7355L11.2657 11.9698Z" fill="white"/>
<path d="M9.96098 14.4544L9.4375 15.8926L10.8764 16.4163L11.3999 14.9781L9.96098 14.4544Z" fill="white"/>
<path d="M9.10564 17.1258L8.83984 18.6338L10.3478 18.8996L10.6136 17.3916L9.10564 17.1258Z" fill="white"/>
<path d="M10.2617 19.9062H8.73047V21.4375H10.2617V19.9062Z" fill="white"/>
<path d="M10.3478 22.4432L8.83984 22.709L9.10564 24.217L10.6136 23.9512L10.3478 22.4432Z" fill="white"/>
<path d="M10.8763 24.9283L9.4375 25.4521L9.96111 26.8903L11.4 26.3664L10.8763 24.9283Z" fill="white"/>
<path d="M11.8262 27.2823L10.5 28.0479L11.2655 29.374L12.5917 28.6085L11.8262 27.2823Z" fill="white"/>
<path d="M37.7891 27.2823L37.0234 28.6084L38.3495 29.3741L39.1152 28.048L37.7891 27.2823Z" fill="white"/>
<path d="M38.7383 24.929L38.2148 26.3672L39.6537 26.8909L40.1772 25.4528L38.7383 24.929Z" fill="white"/>
<path d="M39.2658 22.4441L39 23.9521L40.508 24.2179L40.7738 22.7099L39.2658 22.4441Z" fill="white"/>
<path d="M40.8867 19.9062H39.3555V21.4375H40.8867V19.9062Z" fill="white"/>
<path d="M40.508 17.1248L39 17.3906L39.2658 18.8986L40.7738 18.6328L40.508 17.1248Z" fill="white"/>
<path d="M39.6537 14.4537L38.2148 14.9775L38.7385 16.4157L40.1773 15.8918L39.6537 14.4537Z" fill="white"/>
<path d="M38.3495 11.9687L37.0234 12.7344L37.7891 14.0604L39.1152 13.2948L38.3495 11.9687Z" fill="white"/>
<path d="M36.634 9.7511L35.4609 10.7354L36.4452 11.9084L37.6182 10.9241L36.634 9.7511Z" fill="white"/>
<path d="M34.5582 7.86292L33.5742 9.03613L34.7474 10.0202L35.7315 8.84694L34.5582 7.86292Z" fill="white"/>
<path d="M32.1835 6.36524L31.418 7.69141L32.7441 8.45692L33.5096 7.13075L32.1835 6.36524Z" fill="white"/>
<path d="M29.586 5.30127L29.0625 6.74023L30.5007 7.26352L31.0243 5.82455L29.586 5.30127Z" fill="white"/>
<path d="M26.8475 4.70482L26.582 6.21289L28.0901 6.47832L28.3555 4.97025L26.8475 4.70482Z" fill="white"/>
<path d="M20.7505 34C20.7839 34 20.8105 34.0133 20.8305 34.04C20.8572 34.06 20.8705 34.0867 20.8705 34.12V35.1C20.8705 35.1333 20.8572 35.1633 20.8305 35.19C20.8105 35.21 20.7839 35.22 20.7505 35.22H18.9605C18.9272 35.22 18.9105 35.2367 18.9105 35.27V40.88C18.9105 40.9133 18.8972 40.9433 18.8705 40.97C18.8505 40.99 18.8239 41 18.7905 41H17.6205C17.5872 41 17.5572 40.99 17.5305 40.97C17.5105 40.9433 17.5005 40.9133 17.5005 40.88V35.27C17.5005 35.2367 17.4839 35.22 17.4505 35.22H15.7105C15.6772 35.22 15.6472 35.21 15.6205 35.19C15.6005 35.1633 15.5905 35.1333 15.5905 35.1V34.12C15.5905 34.0867 15.6005 34.06 15.6205 34.04C15.6472 34.0133 15.6772 34 15.7105 34H20.7505ZM22.3816 35.28C22.1549 35.28 21.9649 35.2067 21.8116 35.06C21.6649 34.9067 21.5916 34.7167 21.5916 34.49C21.5916 34.2567 21.6649 34.0667 21.8116 33.92C21.9582 33.7733 22.1482 33.7 22.3816 33.7C22.6149 33.7 22.8049 33.7733 22.9516 33.92C23.0982 34.0667 23.1716 34.2567 23.1716 34.49C23.1716 34.7167 23.0949 34.9067 22.9416 35.06C22.7949 35.2067 22.6082 35.28 22.3816 35.28ZM21.7816 41C21.7482 41 21.7182 40.99 21.6916 40.97C21.6716 40.9433 21.6616 40.9133 21.6616 40.88V35.97C21.6616 35.9367 21.6716 35.91 21.6916 35.89C21.7182 35.8633 21.7482 35.85 21.7816 35.85H22.9516C22.9849 35.85 23.0116 35.8633 23.0316 35.89C23.0582 35.91 23.0716 35.9367 23.0716 35.97V40.88C23.0716 40.9133 23.0582 40.9433 23.0316 40.97C23.0116 40.99 22.9849 41 22.9516 41H21.7816ZM28.7204 37.9C28.7604 38.1533 28.7737 38.4367 28.7604 38.75C28.7537 38.83 28.7104 38.87 28.6304 38.87H25.5404C25.5004 38.87 25.4871 38.8867 25.5004 38.92C25.5204 39.0533 25.5571 39.1867 25.6104 39.32C25.7837 39.6933 26.1371 39.88 26.6704 39.88C27.0971 39.8733 27.4337 39.7 27.6804 39.36C27.7071 39.32 27.7371 39.3 27.7704 39.3C27.7904 39.3 27.8137 39.3133 27.8404 39.34L28.5604 40.05C28.5937 40.0833 28.6104 40.1133 28.6104 40.14C28.6104 40.1533 28.5971 40.18 28.5704 40.22C28.3504 40.4933 28.0671 40.7067 27.7204 40.86C27.3737 41.0067 26.9937 41.08 26.5804 41.08C26.0071 41.08 25.5204 40.95 25.1204 40.69C24.7271 40.43 24.4437 40.0667 24.2704 39.6C24.1304 39.2667 24.0604 38.83 24.0604 38.29C24.0604 37.9233 24.1104 37.6 24.2104 37.32C24.3637 36.8467 24.6304 36.47 25.0104 36.19C25.3971 35.91 25.8537 35.77 26.3804 35.77C27.0471 35.77 27.5804 35.9633 27.9804 36.35C28.3871 36.7367 28.6337 37.2533 28.7204 37.9ZM26.3904 36.99C25.9704 36.99 25.6937 37.1867 25.5604 37.58C25.5337 37.6667 25.5104 37.7733 25.4904 37.9C25.4904 37.9333 25.5071 37.95 25.5404 37.95H27.2704C27.3104 37.95 27.3237 37.9333 27.3104 37.9C27.2771 37.7067 27.2604 37.6133 27.2604 37.62C27.2004 37.42 27.0937 37.2667 26.9404 37.16C26.7937 37.0467 26.6104 36.99 26.3904 36.99ZM32.1894 35.79C32.4294 35.79 32.6194 35.8367 32.7594 35.93C32.8127 35.9567 32.8327 36.0067 32.8194 36.08L32.6094 37.22C32.6027 37.3 32.556 37.3233 32.4694 37.29C32.3694 37.2567 32.2527 37.24 32.1194 37.24C32.066 37.24 31.9927 37.2467 31.8994 37.26C31.6594 37.28 31.456 37.37 31.2894 37.53C31.1227 37.6833 31.0394 37.89 31.0394 38.15V40.88C31.0394 40.9133 31.026 40.9433 30.9994 40.97C30.9794 40.99 30.9527 41 30.9194 41H29.7494C29.716 41 29.686 40.99 29.6594 40.97C29.6394 40.9433 29.6294 40.9133 29.6294 40.88V35.98C29.6294 35.9467 29.6394 35.92 29.6594 35.9C29.686 35.8733 29.716 35.86 29.7494 35.86H30.9194C30.9527 35.86 30.9794 35.8733 30.9994 35.9C31.026 35.92 31.0394 35.9467 31.0394 35.98V36.36C31.0394 36.38 31.046 36.3933 31.0594 36.4C31.0727 36.4067 31.0827 36.4033 31.0894 36.39C31.3627 35.99 31.7294 35.79 32.1894 35.79Z" fill="white"/>
<g filter="url(#filter0_d_4763_10796)">
<path d="M24.2618 23.3226C24.2373 23.3471 24.2312 23.3716 24.2435 23.3961C24.2557 23.4206 24.2802 23.4329 24.317 23.4329H29.2966C29.3578 23.4329 29.4068 23.4574 29.4436 23.5064C29.4926 23.5431 29.5171 23.5921 29.5171 23.6534V25.4357C29.5171 25.497 29.4926 25.5521 29.4436 25.6011C29.4068 25.6379 29.3578 25.6562 29.2966 25.6562H21.0278C20.9666 25.6562 20.9115 25.6379 20.8625 25.6011C20.8257 25.5521 20.8073 25.497 20.8073 25.4357V23.7452C20.8073 23.635 20.8441 23.5431 20.9176 23.4696C21.5178 22.8816 22.1303 22.2446 22.7551 21.5586C23.3798 20.8604 23.7718 20.4255 23.9311 20.254C24.2741 19.8497 24.6232 19.4639 24.9785 19.0964C26.0932 17.8591 26.6506 16.9404 26.6506 16.3401C26.6506 15.9114 26.4975 15.5622 26.1912 15.2927C25.885 15.011 25.4868 14.8701 24.9968 14.8701C24.5068 14.8701 24.1087 15.011 23.8025 15.2927C23.4962 15.5622 23.3431 15.9236 23.3431 16.3769V16.8362C23.3431 16.8975 23.3186 16.9526 23.2696 17.0016C23.2328 17.0384 23.1838 17.0567 23.1226 17.0567H20.9543C20.8931 17.0567 20.838 17.0384 20.789 17.0016C20.7522 16.9526 20.7338 16.8975 20.7338 16.8362V15.9726C20.7706 15.3111 20.9788 14.7292 21.3586 14.227C21.7383 13.7125 22.2406 13.3205 22.8653 13.051C23.5023 12.7815 24.2128 12.6467 24.9968 12.6467C25.8666 12.6467 26.62 12.8121 27.257 13.1429C27.9062 13.4614 28.4023 13.8962 28.7453 14.4475C29.1006 14.9987 29.2782 15.6112 29.2782 16.285C29.2782 16.7995 29.1496 17.3262 28.8923 17.8652C28.6351 18.4042 28.2492 18.9861 27.7347 19.6109C27.355 20.0886 26.9446 20.5602 26.5036 21.0257C26.0626 21.4912 25.4072 22.165 24.5375 23.047L24.2618 23.3226Z" fill="white"/>
</g>
<defs>
<filter id="filter0_d_4763_10796" x="19.7344" y="12.6465" width="10.7812" height="15.0098" filterUnits="userSpaceOnUse" color-interpolation-filters="sRGB">
<feFlood flood-opacity="0" result="BackgroundImageFix"/>
<feColorMatrix in="SourceAlpha" type="matrix" values="0 0 0 0 0 0 0 0 0 0 0 0 0 0 0 0 0 0 127 0" result="hardAlpha"/>
<feOffset dy="1"/>
<feGaussianBlur stdDeviation="0.5"/>
<feComposite in2="hardAlpha" operator="out"/>
<feColorMatrix type="matrix" values="0 0 0 0 0.504583 0 0 0 0 0.57515 0 0 0 0 0.7 0 0 0 1 0"/>
<feBlend mode="normal" in2="BackgroundImageFix" result="effect1_dropShadow_4763_10796"/>
<feBlend mode="normal" in="SourceGraphic" in2="effect1_dropShadow_4763_10796" result="shape"/>
</filter>
<linearGradient id="paint0_linear_4763_10796" x1="36.8086" y1="34" x2="14.8086" y2="6.5" gradientUnits="userSpaceOnUse">
<stop stop-color="#93A1B8"/>
<stop offset="1" stop-color="#D2DEF2"/>
</linearGradient>
</defs>
</svg>
