<svg width="16" height="16" viewBox="0 0 16 16" fill="none" xmlns="http://www.w3.org/2000/svg">
<path d="M12.206 15.8745H2.07967C1.14838 15.8745 0.392456 15.1186 0.392456 14.1873V2.93917C0.392456 2.00787 1.14838 1.25195 2.07967 1.25195H9.95335C10.2648 1.25195 10.5158 1.50292 10.5158 1.81436C10.5158 2.1258 10.2648 2.37676 9.95335 2.37676H2.07967C1.77126 2.37676 1.51727 2.63075 1.51727 2.93917V14.1873C1.51727 14.4987 1.77126 14.7497 2.07967 14.7497H12.203C12.5144 14.7497 12.7654 14.4987 12.7654 14.1873V5.18577C12.7654 4.87433 13.0163 4.62336 13.3278 4.62336C13.6392 4.62336 13.8902 4.87433 13.8902 5.18577V14.1843C13.8932 15.1156 13.1343 15.8745 12.206 15.8745Z" fill="white"/>
<path d="M8.9011 6.87305C8.75596 6.87305 8.61385 6.81863 8.50197 6.70675C8.28124 6.48602 8.28124 6.13225 8.50197 5.91152L14.0928 0.32375C14.3135 0.103021 14.6673 0.103021 14.888 0.32375C15.1087 0.544479 15.1087 0.89825 14.888 1.11898L9.2972 6.70977C9.18835 6.81863 9.04321 6.87305 8.9011 6.87305Z" fill="white"/>
<path d="M6.57893 6.87286H3.2045C2.89306 6.87286 2.64209 6.62189 2.64209 6.31045C2.64209 5.99901 2.89306 5.74805 3.2045 5.74805H6.57893C6.89037 5.74805 7.14133 5.99901 7.14133 6.31045C7.14133 6.62189 6.89037 6.87286 6.57893 6.87286Z" fill="white"/>
<path d="M9.95639 10.2479H3.2045C2.89306 10.2479 2.64209 9.99689 2.64209 9.68545C2.64209 9.37401 2.89306 9.12305 3.2045 9.12305H9.95336C10.2648 9.12305 10.5158 9.37401 10.5158 9.68545C10.5158 9.99689 10.2648 10.2479 9.95639 10.2479Z" fill="white"/>
</svg>
