<svg width="40" height="40" viewBox="0 0 40 40" fill="none" xmlns="http://www.w3.org/2000/svg">
<path d="M0 4C0 1.79086 1.79086 0 4 0H36C38.2091 0 40 1.79086 40 4V36C40 38.2091 38.2091 40 36 40H4C1.79086 40 0 38.2091 0 36V4Z" fill="#203B60"/>
<path d="M14.9999 14H24.9999L19.9899 20.3L14.9999 14ZM12.2499 13.61C14.2699 16.2 17.9999 21 17.9999 21V27C17.9999 27.55 18.4499 28 18.9999 28H20.9999C21.5499 28 21.9999 27.55 21.9999 27V21C21.9999 21 25.7199 16.2 27.7399 13.61C28.2499 12.95 27.7799 12 26.9499 12H13.0399C12.2099 12 11.7399 12.95 12.2499 13.61Z" fill="#90A7FF"/>
</svg>
