<svg width="12" height="8" viewBox="0 0 12 8" fill="none" xmlns="http://www.w3.org/2000/svg">
<path fill-rule="evenodd" clip-rule="evenodd" d="M10.9558 0.234229C11.1057 0.384251 11.19 0.587698 11.19 0.799829C11.19 1.01196 11.1057 1.21541 10.9558 1.36543L4.55577 7.76543C4.40575 7.91541 4.2023 7.99966 3.99017 7.99966C3.77804 7.99966 3.57459 7.91541 3.42457 7.76543L0.224569 4.56543C0.078843 4.41455 -0.00179249 4.21247 3.02421e-05 4.00271C0.00185298 3.79295 0.0859881 3.5923 0.234315 3.44397C0.382641 3.29565 0.583291 3.21151 0.793048 3.20969C1.00281 3.20787 1.20489 3.2885 1.35577 3.43423L3.99017 6.06863L9.82457 0.234229C9.97459 0.0842524 10.178 0 10.3902 0C10.6023 0 10.8057 0.0842524 10.9558 0.234229Z" fill="white"/>
</svg>
