<svg width="16" height="21" viewBox="0 0 16 21" fill="none" xmlns="http://www.w3.org/2000/svg">
<g clip-path="url(#clip0_350_306)">
<path fill-rule="evenodd" clip-rule="evenodd" d="M3.2275 9.38019C2.72208 4.92149 5.36583 1.78545 10.3217 0C7.28625 3.88052 12.9088 8.08463 13.2188 12.115C13.9454 10.8934 14.3579 9.26193 14.4396 7.08267C18.1554 12.8283 15.075 22.2184 6.89708 20.869C6.14625 20.7454 5.42292 20.5118 4.76333 20.1639C1.78167 18.5937 0 15.1743 0 11.9085C0 9.82696 0.903333 7.96842 2.0725 6.49177C2.22875 7.93844 2.56125 9.0176 3.2275 9.38019V9.38019Z" fill="#E20919"/>
<path fill-rule="evenodd" clip-rule="evenodd" d="M5.79834 15.2961C4.88876 12.9284 5.01459 9.10579 7.56209 7.76465C7.58001 12.1597 11.8775 12.7186 11.0804 17.4105C11.8154 16.5732 12.185 15.2333 12.2513 14.1768C13.4163 16.8615 12.5029 19.0108 10.8425 20.1051C5.79459 23.4313 1.44751 16.6874 4.33793 12.9904C4.42459 13.8146 5.42709 15.0896 5.79834 15.2961V15.2961Z" fill="url(#paint0_linear_350_306)"/>
</g>
<defs>
<linearGradient id="paint0_linear_350_306" x1="6.81334" y1="11.7638" x2="6.81334" y2="20.5613" gradientUnits="userSpaceOnUse">
<stop stop-color="#FB6404"/>
<stop offset="1" stop-color="#F2BE10"/>
</linearGradient>
<clipPath id="clip0_350_306">
<rect width="16" height="21" fill="white"/>
</clipPath>
</defs>
</svg>
