<svg xmlns="http://www.w3.org/2000/svg" width="65" height="65.005" viewBox="0 0 65 65.005"><path d="M25.465,31.986l-.564-.566a.679.679,0,0,0-1.161.479v8.092a.679.679,0,0,0,.681.678h8.094a.677.677,0,0,0,.478-1.161.679.679,0,0,1,0-.958l8.61-8.633a.678.678,0,0,0,0-.959l-.785-.781a.678.678,0,0,1,.479-1.161h8.09a.68.68,0,0,1,.68.678v8.092a.68.68,0,0,1-1.161.479l-.547-.544a.662.662,0,0,0-.956,0L32.9,50.231a.684.684,0,0,1-.96,0L14.177,32.472a.677.677,0,0,1,0-.961L38.764,6.934a.684.684,0,0,0,0-.96L32.977.194a.681.681,0,0,0-.96,0L.194,32.021a.681.681,0,0,0,0,.96L32.017,64.8a.681.681,0,0,0,.96,0L64.8,32.98a.679.679,0,0,0,0-.958L46.077,13.3a.68.68,0,0,0-.959,0L26.431,31.988a.677.677,0,0,1-.961,0Z" transform="translate(0.004 0.004)" fill="#de5959"/></svg>