<svg width="150" height="110" viewBox="0 0 150 110" fill="none" xmlns="http://www.w3.org/2000/svg">
<path opacity="0.4" d="M26 54C26 30.804 44.804 12 68 12C83.9548 12 97.8318 20.8963 104.941 33.999L116.135 29.499C107.205 11.9903 89.0026 0 68 0C38.1766 0 14 24.1766 14 54C14 66.7545 18.4219 78.4761 25.8162 87.7156C27.8868 90.3028 31.7157 90.2843 34.0589 87.9411C36.402 85.598 36.3615 81.8206 34.3738 79.1692C29.1152 72.155 26 63.4413 26 54Z" fill="url(#paint0_linear_1659_72326)"/>
<path fill-rule="evenodd" clip-rule="evenodd" d="M67 0.0078125C37.6435 0.511307 14 24.5813 14 54.2002C14 66.9922 18.4101 78.7491 25.7858 88.0195C27.8586 90.6249 31.7082 90.6066 34.0567 88.2467C36.3891 85.903 36.3487 82.1366 34.3694 79.4878C29.1055 72.4432 25.9864 63.6877 25.9864 54.2002C25.9864 31.2335 44.2639 12.5563 67 12.0547V0.0078125Z" fill="url(#paint1_linear_1659_72326)"/>
<g opacity="0.15">
<path d="M106.865 37.9355C108.952 42.9401 110.104 48.4346 110.104 54.1993C110.104 63.6842 106.983 72.4374 101.716 79.481C99.7333 82.1327 99.6928 85.9049 102.03 88.2506C104.379 90.6086 108.227 90.627 110.301 88.0236C117.688 78.7524 122.104 66.9935 122.104 54.1993C122.104 46.9157 120.673 39.9676 118.077 33.623L106.865 37.9355Z" fill="#CE5E5E"/>
<path d="M30 89.9983C30.0238 89.9985 30.0476 89.9985 30.0714 89.9983H30Z" fill="#CE5E5E"/>
</g>
<circle cx="106" cy="84" r="2" fill="#CE5E5E"/>
<path d="M52.4246 49.72C52.8726 50.568 53.0966 51.584 53.0966 52.768C53.0966 53.744 52.9366 54.6 52.6166 55.336C52.2486 56.248 51.6726 56.952 50.8886 57.448C50.1206 57.928 49.1846 58.168 48.0806 58.168C46.8966 58.168 45.8886 57.896 45.0566 57.352C44.2406 56.808 43.6646 56.04 43.3286 55.048C43.0886 54.376 42.9686 53.6 42.9686 52.72V45.328C42.9686 44.016 43.4246 42.968 44.3366 42.184C45.2486 41.4 46.4406 41.008 47.9126 41.008C48.8566 41.008 49.6886 41.184 50.4086 41.536C51.1446 41.888 51.7126 42.384 52.1126 43.024C52.5126 43.648 52.7126 44.368 52.7126 45.184V45.664C52.7126 45.824 52.6326 45.904 52.4726 45.904H50.6486C50.4886 45.904 50.4086 45.824 50.4086 45.664V45.448C50.4086 44.728 50.1766 44.144 49.7126 43.696C49.2486 43.248 48.6486 43.024 47.9126 43.024C47.1286 43.024 46.4886 43.256 45.9926 43.72C45.5126 44.184 45.2726 44.8 45.2726 45.568V48.592C45.2726 48.624 45.2806 48.648 45.2966 48.664C45.3286 48.664 45.3606 48.648 45.3926 48.616C46.0806 47.848 47.0806 47.464 48.3926 47.464C50.2806 47.464 51.6246 48.216 52.4246 49.72ZM50.4326 54.616C50.6726 54.104 50.7926 53.488 50.7926 52.768C50.7926 51.952 50.6486 51.296 50.3606 50.8C49.8966 49.872 49.1126 49.408 48.0086 49.408C47.4486 49.408 46.9686 49.536 46.5686 49.792C46.1686 50.032 45.8646 50.384 45.6566 50.848C45.4006 51.376 45.2726 52.056 45.2726 52.888C45.2726 53.56 45.3766 54.128 45.5846 54.592C45.7926 55.104 46.1046 55.496 46.5206 55.768C46.9366 56.024 47.4406 56.152 48.0326 56.152C49.2006 56.152 50.0006 55.64 50.4326 54.616ZM64.9871 49.72C65.4351 50.568 65.6591 51.584 65.6591 52.768C65.6591 53.744 65.4991 54.6 65.1791 55.336C64.8111 56.248 64.2351 56.952 63.4511 57.448C62.6831 57.928 61.7471 58.168 60.6431 58.168C59.4591 58.168 58.4511 57.896 57.6191 57.352C56.8031 56.808 56.2271 56.04 55.8911 55.048C55.6511 54.376 55.5311 53.6 55.5311 52.72V45.328C55.5311 44.016 55.9871 42.968 56.8991 42.184C57.8111 41.4 59.0031 41.008 60.4751 41.008C61.4191 41.008 62.2511 41.184 62.9711 41.536C63.7071 41.888 64.2751 42.384 64.6751 43.024C65.0751 43.648 65.2751 44.368 65.2751 45.184V45.664C65.2751 45.824 65.1951 45.904 65.0351 45.904H63.2111C63.0511 45.904 62.9711 45.824 62.9711 45.664V45.448C62.9711 44.728 62.7391 44.144 62.2751 43.696C61.8111 43.248 61.2111 43.024 60.4751 43.024C59.6911 43.024 59.0511 43.256 58.5551 43.72C58.0751 44.184 57.8351 44.8 57.8351 45.568V48.592C57.8351 48.624 57.8431 48.648 57.8591 48.664C57.8911 48.664 57.9231 48.648 57.9551 48.616C58.6431 47.848 59.6431 47.464 60.9551 47.464C62.8431 47.464 64.1871 48.216 64.9871 49.72ZM62.9951 54.616C63.2351 54.104 63.3551 53.488 63.3551 52.768C63.3551 51.952 63.2111 51.296 62.9231 50.8C62.4591 49.872 61.6751 49.408 60.5711 49.408C60.0111 49.408 59.5311 49.536 59.1311 49.792C58.7311 50.032 58.4271 50.384 58.2191 50.848C57.9631 51.376 57.8351 52.056 57.8351 52.888C57.8351 53.56 57.9391 54.128 58.1471 54.592C58.3551 55.104 58.6671 55.496 59.0831 55.768C59.4991 56.024 60.0031 56.152 60.5951 56.152C61.7631 56.152 62.5631 55.64 62.9951 54.616ZM69.9656 58C69.5176 58 69.1496 57.856 68.8616 57.568C68.5736 57.28 68.4296 56.912 68.4296 56.464C68.4296 56.016 68.5736 55.648 68.8616 55.36C69.1496 55.072 69.5176 54.928 69.9656 54.928C70.4136 54.928 70.7816 55.072 71.0696 55.36C71.3576 55.648 71.5016 56.016 71.5016 56.464C71.5016 56.912 71.3576 57.28 71.0696 57.568C70.7816 57.856 70.4136 58 69.9656 58ZM85.431 51.424C85.591 51.424 85.671 51.504 85.671 51.664V53.248C85.671 53.408 85.591 53.488 85.431 53.488H84.399C84.335 53.488 84.303 53.52 84.303 53.584V57.76C84.303 57.92 84.223 58 84.063 58H82.239C82.079 58 81.999 57.92 81.999 57.76V53.584C81.999 53.52 81.967 53.488 81.903 53.488H74.607C74.447 53.488 74.367 53.408 74.367 53.248V51.952C74.367 51.872 74.391 51.776 74.439 51.664L79.167 41.368C79.215 41.256 79.303 41.2 79.431 41.2H81.351C81.431 41.2 81.487 41.232 81.519 41.296C81.567 41.344 81.575 41.408 81.543 41.488L77.031 51.304C77.015 51.336 77.015 51.368 77.031 51.4C77.047 51.416 77.071 51.424 77.103 51.424H81.903C81.967 51.424 81.999 51.392 81.999 51.328V47.752C81.999 47.592 82.079 47.512 82.239 47.512H84.063C84.223 47.512 84.303 47.592 84.303 47.752V51.328C84.303 51.392 84.335 51.424 84.399 51.424H85.431ZM90.2705 52.218C89.8878 52.218 89.5331 52.1247 89.2065 51.938C88.8891 51.7513 88.6371 51.4993 88.4505 51.182C88.2638 50.8647 88.1705 50.5147 88.1705 50.132C88.1705 49.7587 88.2638 49.4133 88.4505 49.096C88.6371 48.7787 88.8891 48.5313 89.2065 48.354C89.5331 48.1673 89.8878 48.074 90.2705 48.074C90.6438 48.074 90.9891 48.1673 91.3065 48.354C91.6238 48.5407 91.8758 48.7927 92.0625 49.11C92.2491 49.418 92.3425 49.7587 92.3425 50.132C92.3425 50.5147 92.2491 50.8647 92.0625 51.182C91.8758 51.4993 91.6238 51.7513 91.3065 51.938C90.9891 52.1247 90.6438 52.218 90.2705 52.218ZM89.8645 58C89.8085 58 89.7711 57.986 89.7525 57.958C89.7338 57.9207 89.7385 57.8787 89.7665 57.832L95.0585 48.298C95.0958 48.2327 95.1518 48.2 95.2265 48.2H95.9125C95.9685 48.2 96.0058 48.2187 96.0245 48.256C96.0431 48.284 96.0385 48.3213 96.0105 48.368L90.7185 57.902C90.6905 57.9673 90.6345 58 90.5505 58H89.8645ZM90.2705 51.392C90.6158 51.392 90.9051 51.2707 91.1385 51.028C91.3718 50.7853 91.4885 50.4867 91.4885 50.132C91.4885 49.7867 91.3671 49.4973 91.1245 49.264C90.8911 49.0213 90.6065 48.9 90.2705 48.9C89.9251 48.9 89.6311 49.0213 89.3885 49.264C89.1458 49.4973 89.0245 49.7867 89.0245 50.132C89.0245 50.4867 89.1458 50.7853 89.3885 51.028C89.6311 51.2707 89.9251 51.392 90.2705 51.392ZM95.6045 58.126C95.2218 58.126 94.8671 58.0327 94.5405 57.846C94.2231 57.6593 93.9711 57.4073 93.7845 57.09C93.5978 56.7727 93.5045 56.4273 93.5045 56.054C93.5045 55.6807 93.5978 55.3353 93.7845 55.018C93.9711 54.7007 94.2231 54.4487 94.5405 54.262C94.8671 54.0753 95.2218 53.982 95.6045 53.982C95.9778 53.982 96.3231 54.0753 96.6405 54.262C96.9578 54.4487 97.2098 54.7007 97.3965 55.018C97.5831 55.3353 97.6765 55.6807 97.6765 56.054C97.6765 56.4273 97.5831 56.7727 97.3965 57.09C97.2098 57.4073 96.9578 57.6593 96.6405 57.846C96.3231 58.0327 95.9778 58.126 95.6045 58.126ZM95.6045 57.3C95.9498 57.3 96.2391 57.1787 96.4725 56.936C96.7058 56.6933 96.8225 56.3993 96.8225 56.054C96.8225 55.7087 96.7011 55.4147 96.4585 55.172C96.2251 54.9293 95.9405 54.808 95.6045 54.808C95.2591 54.808 94.9651 54.9293 94.7225 55.172C94.4798 55.4147 94.3585 55.7087 94.3585 56.054C94.3585 56.3993 94.4798 56.6933 94.7225 56.936C94.9651 57.1787 95.2591 57.3 95.6045 57.3Z" fill="#E0ECFF"/>
<path d="M42 63H97" stroke="#93A1B8" stroke-dasharray="2 2"/>
<path d="M126.634 106.12C126.627 106.133 126.627 106.147 126.634 106.16C126.64 106.167 126.65 106.17 126.664 106.17H129.674C129.74 106.17 129.774 106.203 129.774 106.27V106.9C129.774 106.967 129.74 107 129.674 107H125.484C125.417 107 125.384 106.967 125.384 106.9V106.29C125.384 106.243 125.4 106.203 125.434 106.17C125.66 105.91 126.18 105.3 126.994 104.34L127.684 103.51C128.304 102.77 128.614 102.197 128.614 101.79C128.614 101.477 128.507 101.227 128.294 101.04C128.087 100.847 127.81 100.75 127.464 100.75C127.117 100.75 126.84 100.847 126.634 101.04C126.427 101.233 126.327 101.487 126.334 101.8V102.1C126.334 102.167 126.3 102.2 126.234 102.2H125.464C125.397 102.2 125.364 102.167 125.364 102.1V101.67C125.377 101.323 125.474 101.017 125.654 100.75C125.84 100.483 126.09 100.28 126.404 100.14C126.717 99.9933 127.07 99.92 127.464 99.92C127.89 99.92 128.264 100 128.584 100.16C128.904 100.32 129.15 100.54 129.324 100.82C129.497 101.1 129.584 101.417 129.584 101.77C129.584 102.323 129.284 102.977 128.684 103.73C128.417 104.07 128.1 104.453 127.734 104.88C127.367 105.3 127 105.713 126.634 106.12ZM133.103 107.1C132.43 107.1 131.893 106.91 131.493 106.53C131.1 106.143 130.903 105.627 130.903 104.98V102.02C130.903 101.373 131.1 100.86 131.493 100.48C131.893 100.1 132.43 99.91 133.103 99.91C133.777 99.91 134.313 100.1 134.713 100.48C135.12 100.86 135.323 101.373 135.323 102.02V104.98C135.323 105.627 135.12 106.143 134.713 106.53C134.313 106.91 133.777 107.1 133.103 107.1ZM133.103 106.27C133.49 106.27 133.797 106.16 134.023 105.94C134.25 105.713 134.363 105.413 134.363 105.04V101.98C134.363 101.607 134.25 101.31 134.023 101.09C133.797 100.863 133.49 100.75 133.103 100.75C132.73 100.75 132.43 100.863 132.203 101.09C131.977 101.31 131.863 101.607 131.863 101.98V105.04C131.863 105.413 131.977 105.713 132.203 105.94C132.43 106.16 132.73 106.27 133.103 106.27ZM138.767 107.1C138.094 107.1 137.557 106.91 137.157 106.53C136.764 106.143 136.567 105.627 136.567 104.98V102.02C136.567 101.373 136.764 100.86 137.157 100.48C137.557 100.1 138.094 99.91 138.767 99.91C139.441 99.91 139.977 100.1 140.377 100.48C140.784 100.86 140.987 101.373 140.987 102.02V104.98C140.987 105.627 140.784 106.143 140.377 106.53C139.977 106.91 139.441 107.1 138.767 107.1ZM138.767 106.27C139.154 106.27 139.461 106.16 139.687 105.94C139.914 105.713 140.027 105.413 140.027 105.04V101.98C140.027 101.607 139.914 101.31 139.687 101.09C139.461 100.863 139.154 100.75 138.767 100.75C138.394 100.75 138.094 100.863 137.867 101.09C137.641 101.31 137.527 101.607 137.527 101.98V105.04C137.527 105.413 137.641 105.713 137.867 105.94C138.094 106.16 138.394 106.27 138.767 106.27ZM143.931 102.87C143.658 102.87 143.405 102.803 143.171 102.67C142.945 102.537 142.765 102.357 142.631 102.13C142.498 101.903 142.431 101.653 142.431 101.38C142.431 101.113 142.498 100.867 142.631 100.64C142.765 100.413 142.945 100.237 143.171 100.11C143.405 99.9767 143.658 99.91 143.931 99.91C144.198 99.91 144.445 99.9767 144.671 100.11C144.898 100.243 145.078 100.423 145.211 100.65C145.345 100.87 145.411 101.113 145.411 101.38C145.411 101.653 145.345 101.903 145.211 102.13C145.078 102.357 144.898 102.537 144.671 102.67C144.445 102.803 144.198 102.87 143.931 102.87ZM143.641 107C143.601 107 143.575 106.99 143.561 106.97C143.548 106.943 143.551 106.913 143.571 106.88L147.351 100.07C147.378 100.023 147.418 100 147.471 100H147.961C148.001 100 148.028 100.013 148.041 100.04C148.055 100.06 148.051 100.087 148.031 100.12L144.251 106.93C144.231 106.977 144.191 107 144.131 107H143.641ZM143.931 102.28C144.178 102.28 144.385 102.193 144.551 102.02C144.718 101.847 144.801 101.633 144.801 101.38C144.801 101.133 144.715 100.927 144.541 100.76C144.375 100.587 144.171 100.5 143.931 100.5C143.685 100.5 143.475 100.587 143.301 100.76C143.128 100.927 143.041 101.133 143.041 101.38C143.041 101.633 143.128 101.847 143.301 102.02C143.475 102.193 143.685 102.28 143.931 102.28ZM147.741 107.09C147.468 107.09 147.215 107.023 146.981 106.89C146.755 106.757 146.575 106.577 146.441 106.35C146.308 106.123 146.241 105.877 146.241 105.61C146.241 105.343 146.308 105.097 146.441 104.87C146.575 104.643 146.755 104.463 146.981 104.33C147.215 104.197 147.468 104.13 147.741 104.13C148.008 104.13 148.255 104.197 148.481 104.33C148.708 104.463 148.888 104.643 149.021 104.87C149.155 105.097 149.221 105.343 149.221 105.61C149.221 105.877 149.155 106.123 149.021 106.35C148.888 106.577 148.708 106.757 148.481 106.89C148.255 107.023 148.008 107.09 147.741 107.09ZM147.741 106.5C147.988 106.5 148.195 106.413 148.361 106.24C148.528 106.067 148.611 105.857 148.611 105.61C148.611 105.363 148.525 105.153 148.351 104.98C148.185 104.807 147.981 104.72 147.741 104.72C147.495 104.72 147.285 104.807 147.111 104.98C146.938 105.153 146.851 105.363 146.851 105.61C146.851 105.857 146.938 106.067 147.111 106.24C147.285 106.413 147.495 106.5 147.741 106.5Z" fill="#93A1B8"/>
<path d="M128.468 24.03C128.508 24.01 128.551 24 128.598 24H129.388C129.454 24 129.488 24.0333 129.488 24.1V30.9C129.488 30.9667 129.454 31 129.388 31H128.628C128.561 31 128.528 30.9667 128.528 30.9V25.03C128.528 25.0167 128.521 25.0067 128.508 25C128.501 24.9933 128.491 24.9933 128.478 25L127.428 25.36C127.414 25.3667 127.398 25.37 127.378 25.37C127.338 25.37 127.314 25.3433 127.308 25.29L127.268 24.72C127.268 24.6533 127.288 24.6133 127.328 24.6L128.468 24.03ZM133.103 31.1C132.43 31.1 131.893 30.91 131.493 30.53C131.1 30.1433 130.903 29.6267 130.903 28.98V26.02C130.903 25.3733 131.1 24.86 131.493 24.48C131.893 24.1 132.43 23.91 133.103 23.91C133.777 23.91 134.313 24.1 134.713 24.48C135.12 24.86 135.323 25.3733 135.323 26.02V28.98C135.323 29.6267 135.12 30.1433 134.713 30.53C134.313 30.91 133.777 31.1 133.103 31.1ZM133.103 30.27C133.49 30.27 133.797 30.16 134.023 29.94C134.25 29.7133 134.363 29.4133 134.363 29.04V25.98C134.363 25.6067 134.25 25.31 134.023 25.09C133.797 24.8633 133.49 24.75 133.103 24.75C132.73 24.75 132.43 24.8633 132.203 25.09C131.977 25.31 131.863 25.6067 131.863 25.98V29.04C131.863 29.4133 131.977 29.7133 132.203 29.94C132.43 30.16 132.73 30.27 133.103 30.27ZM138.767 31.1C138.094 31.1 137.557 30.91 137.157 30.53C136.764 30.1433 136.567 29.6267 136.567 28.98V26.02C136.567 25.3733 136.764 24.86 137.157 24.48C137.557 24.1 138.094 23.91 138.767 23.91C139.441 23.91 139.977 24.1 140.377 24.48C140.784 24.86 140.987 25.3733 140.987 26.02V28.98C140.987 29.6267 140.784 30.1433 140.377 30.53C139.977 30.91 139.441 31.1 138.767 31.1ZM138.767 30.27C139.154 30.27 139.461 30.16 139.687 29.94C139.914 29.7133 140.027 29.4133 140.027 29.04V25.98C140.027 25.6067 139.914 25.31 139.687 25.09C139.461 24.8633 139.154 24.75 138.767 24.75C138.394 24.75 138.094 24.8633 137.867 25.09C137.641 25.31 137.527 25.6067 137.527 25.98V29.04C137.527 29.4133 137.641 29.7133 137.867 29.94C138.094 30.16 138.394 30.27 138.767 30.27ZM143.931 26.87C143.658 26.87 143.405 26.8033 143.171 26.67C142.945 26.5367 142.765 26.3567 142.631 26.13C142.498 25.9033 142.431 25.6533 142.431 25.38C142.431 25.1133 142.498 24.8667 142.631 24.64C142.765 24.4133 142.945 24.2367 143.171 24.11C143.405 23.9767 143.658 23.91 143.931 23.91C144.198 23.91 144.445 23.9767 144.671 24.11C144.898 24.2433 145.078 24.4233 145.211 24.65C145.345 24.87 145.411 25.1133 145.411 25.38C145.411 25.6533 145.345 25.9033 145.211 26.13C145.078 26.3567 144.898 26.5367 144.671 26.67C144.445 26.8033 144.198 26.87 143.931 26.87ZM143.641 31C143.601 31 143.575 30.99 143.561 30.97C143.548 30.9433 143.551 30.9133 143.571 30.88L147.351 24.07C147.378 24.0233 147.418 24 147.471 24H147.961C148.001 24 148.028 24.0133 148.041 24.04C148.055 24.06 148.051 24.0867 148.031 24.12L144.251 30.93C144.231 30.9767 144.191 31 144.131 31H143.641ZM143.931 26.28C144.178 26.28 144.385 26.1933 144.551 26.02C144.718 25.8467 144.801 25.6333 144.801 25.38C144.801 25.1333 144.715 24.9267 144.541 24.76C144.375 24.5867 144.171 24.5 143.931 24.5C143.685 24.5 143.475 24.5867 143.301 24.76C143.128 24.9267 143.041 25.1333 143.041 25.38C143.041 25.6333 143.128 25.8467 143.301 26.02C143.475 26.1933 143.685 26.28 143.931 26.28ZM147.741 31.09C147.468 31.09 147.215 31.0233 146.981 30.89C146.755 30.7567 146.575 30.5767 146.441 30.35C146.308 30.1233 146.241 29.8767 146.241 29.61C146.241 29.3433 146.308 29.0967 146.441 28.87C146.575 28.6433 146.755 28.4633 146.981 28.33C147.215 28.1967 147.468 28.13 147.741 28.13C148.008 28.13 148.255 28.1967 148.481 28.33C148.708 28.4633 148.888 28.6433 149.021 28.87C149.155 29.0967 149.221 29.3433 149.221 29.61C149.221 29.8767 149.155 30.1233 149.021 30.35C148.888 30.5767 148.708 30.7567 148.481 30.89C148.255 31.0233 148.008 31.09 147.741 31.09ZM147.741 30.5C147.988 30.5 148.195 30.4133 148.361 30.24C148.528 30.0667 148.611 29.8567 148.611 29.61C148.611 29.3633 148.525 29.1533 148.351 28.98C148.185 28.8067 147.981 28.72 147.741 28.72C147.495 28.72 147.285 28.8067 147.111 28.98C146.938 29.1533 146.851 29.3633 146.851 29.61C146.851 29.8567 146.938 30.0667 147.111 30.24C147.285 30.4133 147.495 30.5 147.741 30.5Z" fill="#93A1B8"/>
<path d="M4.76727 106.1C4.09393 106.1 3.55727 105.91 3.15727 105.53C2.76393 105.143 2.56727 104.627 2.56727 103.98V101.02C2.56727 100.373 2.76393 99.86 3.15727 99.48C3.55727 99.1 4.09393 98.91 4.76727 98.91C5.4406 98.91 5.97727 99.1 6.37727 99.48C6.78393 99.86 6.98727 100.373 6.98727 101.02V103.98C6.98727 104.627 6.78393 105.143 6.37727 105.53C5.97727 105.91 5.4406 106.1 4.76727 106.1ZM4.76727 105.27C5.15393 105.27 5.4606 105.16 5.68727 104.94C5.91393 104.713 6.02727 104.413 6.02727 104.04V100.98C6.02727 100.607 5.91393 100.31 5.68727 100.09C5.4606 99.8633 5.15393 99.75 4.76727 99.75C4.39393 99.75 4.09393 99.8633 3.86727 100.09C3.6406 100.31 3.52727 100.607 3.52727 100.98V104.04C3.52727 104.413 3.6406 104.713 3.86727 104.94C4.09393 105.16 4.39393 105.27 4.76727 105.27ZM9.93133 101.87C9.65799 101.87 9.40466 101.803 9.17133 101.67C8.94466 101.537 8.76466 101.357 8.63133 101.13C8.49799 100.903 8.43133 100.653 8.43133 100.38C8.43133 100.113 8.49799 99.8667 8.63133 99.64C8.76466 99.4133 8.94466 99.2367 9.17133 99.11C9.40466 98.9767 9.65799 98.91 9.93133 98.91C10.198 98.91 10.4447 98.9767 10.6713 99.11C10.898 99.2433 11.078 99.4233 11.2113 99.65C11.3447 99.87 11.4113 100.113 11.4113 100.38C11.4113 100.653 11.3447 100.903 11.2113 101.13C11.078 101.357 10.898 101.537 10.6713 101.67C10.4447 101.803 10.198 101.87 9.93133 101.87ZM9.64133 106C9.60133 106 9.57466 105.99 9.56133 105.97C9.54799 105.943 9.55133 105.913 9.57133 105.88L13.3513 99.07C13.378 99.0233 13.418 99 13.4713 99H13.9613C14.0013 99 14.028 99.0133 14.0413 99.04C14.0547 99.06 14.0513 99.0867 14.0313 99.12L10.2513 105.93C10.2313 105.977 10.1913 106 10.1313 106H9.64133ZM9.93133 101.28C10.178 101.28 10.3847 101.193 10.5513 101.02C10.718 100.847 10.8013 100.633 10.8013 100.38C10.8013 100.133 10.7147 99.9267 10.5413 99.76C10.3747 99.5867 10.1713 99.5 9.93133 99.5C9.68466 99.5 9.47466 99.5867 9.30133 99.76C9.12799 99.9267 9.04133 100.133 9.04133 100.38C9.04133 100.633 9.12799 100.847 9.30133 101.02C9.47466 101.193 9.68466 101.28 9.93133 101.28ZM13.7413 106.09C13.468 106.09 13.2147 106.023 12.9813 105.89C12.7547 105.757 12.5747 105.577 12.4413 105.35C12.308 105.123 12.2413 104.877 12.2413 104.61C12.2413 104.343 12.308 104.097 12.4413 103.87C12.5747 103.643 12.7547 103.463 12.9813 103.33C13.2147 103.197 13.468 103.13 13.7413 103.13C14.008 103.13 14.2547 103.197 14.4813 103.33C14.708 103.463 14.888 103.643 15.0213 103.87C15.1547 104.097 15.2213 104.343 15.2213 104.61C15.2213 104.877 15.1547 105.123 15.0213 105.35C14.888 105.577 14.708 105.757 14.4813 105.89C14.2547 106.023 14.008 106.09 13.7413 106.09ZM13.7413 105.5C13.988 105.5 14.1947 105.413 14.3613 105.24C14.528 105.067 14.6113 104.857 14.6113 104.61C14.6113 104.363 14.5247 104.153 14.3513 103.98C14.1847 103.807 13.9813 103.72 13.7413 103.72C13.4947 103.72 13.2847 103.807 13.1113 103.98C12.938 104.153 12.8513 104.363 12.8513 104.61C12.8513 104.857 12.938 105.067 13.1113 105.24C13.2847 105.413 13.4947 105.5 13.7413 105.5Z" fill="#93A1B8"/>
<defs>
<linearGradient id="paint0_linear_1659_72326" x1="14.1736" y1="51.5175" x2="116.308" y2="51.5175" gradientUnits="userSpaceOnUse">
<stop stop-color="#43608D"/>
<stop offset="1" stop-color="#3F4D8B"/>
</linearGradient>
<linearGradient id="paint1_linear_1659_72326" x1="23.6629" y1="86.9962" x2="72.5071" y2="19.7341" gradientUnits="userSpaceOnUse">
<stop stop-color="#8EEC6D"/>
<stop offset="1" stop-color="#FF8C39"/>
</linearGradient>
</defs>
</svg>

