<svg width="20" height="21" viewBox="0 0 20 21" fill="none" xmlns="http://www.w3.org/2000/svg">
<path d="M18.0715 3.72803H17.3692C17.7254 3.1242 17.8816 2.54826 17.8317 2.01403C17.7903 1.56692 17.5784 0.927443 16.8018 0.417811C16.1581 -0.0057151 15.3301 -0.109593 14.4116 0.119879C12.9221 0.493855 11.1592 1.77955 10.0002 3.33332C8.84035 1.77958 7.0789 0.493855 5.58942 0.119879C4.67014 -0.111085 3.84152 -0.00647351 3.1978 0.417811C2.42196 0.927443 2.21001 1.56692 2.1686 2.01403C2.11867 2.54826 2.27351 3.1242 2.63108 3.72803H1.92878C0.865406 3.72803 0 4.59409 0 5.65828V8.14448C0 8.9863 0.555238 9.7303 1.35855 9.98015C1.28221 10.1914 1.24224 10.4098 1.24224 10.6311V18.09C1.24224 19.1535 2.10863 20.0199 3.17211 20.0199H16.8304C17.8938 20.0199 18.7588 19.1535 18.7588 18.09V10.631C18.7588 10.4083 18.7203 10.1892 18.6439 9.97939C19.4461 9.72816 20 8.98415 20 8.14445V5.65891C20 4.5948 19.1349 3.72803 18.0715 3.72803ZM16.8304 18.6453H10.6868V10.0751H16.8304C17.1366 10.0751 17.3849 10.3248 17.3849 10.631V18.09C17.3849 18.3962 17.1366 18.6453 16.8304 18.6453ZM11.4433 3.72803C12.4204 2.60102 13.7029 1.71536 14.7442 1.45411C15.2852 1.31853 15.7277 1.35565 16.0481 1.56692C16.3886 1.79062 16.4492 1.99009 16.4628 2.14074C16.517 2.69312 15.9246 3.43786 15.6449 3.72803H11.4433ZM18.6253 5.65894V8.14448C18.6253 8.45068 18.3777 8.69969 18.0715 8.69969H10.6868V5.10332H18.0715C18.3777 5.10332 18.6253 5.35279 18.6253 5.65894ZM9.31285 10.0751V18.6453H3.17208C2.86515 18.6453 2.61677 18.3962 2.61677 18.09V10.631C2.61677 10.3248 2.86515 10.0751 3.17208 10.0751H9.31285ZM3.53752 2.14074C3.55104 1.99009 3.61245 1.7906 3.95149 1.56692C4.26974 1.35565 4.71226 1.31671 5.25614 1.45411C6.29171 1.7139 7.57281 2.59963 8.55203 3.72803H4.35398C4.10347 3.47431 3.48253 2.70636 3.53752 2.14074ZM1.37352 5.65894C1.37352 5.35281 1.6219 5.10332 1.92876 5.10332H9.31282V8.69969H1.92876C1.6219 8.69969 1.37352 8.45068 1.37352 8.14448V5.65894Z" fill="white"/>
</svg>
