<svg width="18" height="18" viewBox="0 0 18 18" fill="none" xmlns="http://www.w3.org/2000/svg">
<g clip-path="url(#clip0_4733_13651)">
<path d="M14.38 3H9.88C9.66 3 9.44 3.09 9.28 3.25C9.12 3.41 9.03 3.62 9.03 3.85C9.03 4.07 9.12 4.29 9.28 4.45C9.44 4.61 9.65 4.7 9.88 4.7H12.34L8.15 8.87C8.08 8.95 8.01 9.04 7.97 9.15C7.93 9.25 7.91 9.36 7.91 9.47C7.91 9.58 7.93 9.69 7.97 9.79C8.01 9.89 8.07 9.99 8.15 10.06C8.23 10.14 8.32 10.2 8.42 10.24C8.52 10.28 8.63 10.3 8.74 10.3C8.85 10.3 8.96 10.28 9.06 10.24C9.16 10.2 9.26 10.14 9.33 10.06L13.51 5.88V8.34C13.51 8.56 13.6 8.78 13.76 8.94C13.92 9.1 14.13 9.19 14.36 9.19C14.59 9.19 14.8 9.1 14.96 8.94C15.12 8.78 15.21 8.57 15.21 8.34V3.84C15.21 3.62 15.12 3.4 14.96 3.24C14.81 3.09 14.6 3 14.38 3ZM2 14.55V5.55C2 5.18 2.15 4.82 2.41 4.56C2.67 4.3 3.03 4.15 3.4 4.15H6.5C6.72 4.15 6.94 4.24 7.1 4.4C7.26 4.56 7.35 4.77 7.35 5C7.35 5.23 7.25 5.43 7.1 5.59C6.94 5.75 6.72 5.84 6.5 5.84H3.69V14.28H12.13V11.46C12.13 11.24 12.22 11.02 12.38 10.86C12.54 10.7 12.75 10.61 12.98 10.61C13.21 10.61 13.42 10.7 13.58 10.86C13.74 11.02 13.83 11.23 13.83 11.46V14.55C13.83 14.92 13.68 15.28 13.42 15.54C13.16 15.8 12.8 15.95 12.43 15.95H3.43C3.06 15.95 2.7 15.8 2.44 15.54C2.15 15.29 2 14.93 2 14.55Z" fill="#E0ECFF"/>
</g>
<defs>
<clipPath id="clip0_4733_13651">
<rect width="13.22" height="12.96" fill="white" transform="translate(2 3)"/>
</clipPath>
</defs>
</svg>
