<svg width="1568" height="1480" viewBox="0 0 1568 1480" fill="none" xmlns="http://www.w3.org/2000/svg">
<g clip-path="url(#clip0_1_36)">
<path d="M1443.08 970.143C1579.15 970.143 1689.46 852.004 1689.46 706.273C1689.46 560.541 1579.15 442.402 1443.08 442.402C1307.01 442.402 1196.71 560.541 1196.71 706.273C1196.71 852.004 1307.01 970.143 1443.08 970.143Z" fill="url(#paint0_linear_1_36)" fill-opacity="0.2"/>
<path d="M177.377 1590.74C313.447 1590.74 423.754 1472.6 423.754 1326.87C423.754 1181.14 313.447 1063 177.377 1063C41.3067 1063 -69 1181.14 -69 1326.87C-69 1472.6 41.3067 1590.74 177.377 1590.74Z" stroke="#284EAD" stroke-miterlimit="10"/>
<path d="M1389.38 610.741C1525.45 610.741 1635.75 492.602 1635.75 346.87C1635.75 201.139 1525.45 83 1389.38 83C1253.31 83 1143 201.139 1143 346.87C1143 492.602 1253.31 610.741 1389.38 610.741Z" stroke="#284EAD" stroke-miterlimit="10"/>
<path d="M944.456 616.559C978.376 616.559 1005.87 587.108 1005.87 550.779C1005.87 514.45 978.376 485 944.456 485C910.535 485 883.037 514.45 883.037 550.779C883.037 587.108 910.535 616.559 944.456 616.559Z" fill="url(#paint1_linear_1_36)" fill-opacity="0.2"/>
<path d="M551.34 959.782C563.126 959.782 572.68 949.55 572.68 936.927C572.68 924.305 563.126 914.072 551.34 914.072C539.554 914.072 530 924.305 530 936.927C530 949.55 539.554 959.782 551.34 959.782Z" fill="url(#paint2_linear_1_36)" fill-opacity="0.2"/>
<path d="M1241.45 1326.53C1333.37 1326.53 1407.89 1246.72 1407.89 1148.26C1407.89 1049.81 1333.37 970 1241.45 970C1149.52 970 1075 1049.81 1075 1148.26C1075 1246.72 1149.52 1326.53 1241.45 1326.53Z" fill="url(#paint3_linear_1_36)" fill-opacity="0.2"/>
<path d="M177.377 805.741C313.447 805.741 423.754 687.602 423.754 541.87C423.754 396.139 313.447 278 177.377 278C41.3067 278 -69 396.139 -69 541.87C-69 687.602 41.3067 805.741 177.377 805.741Z" fill="url(#paint4_linear_1_36)" fill-opacity="0.2"/>
<path d="M79.4454 422.527C171.371 422.527 245.891 342.716 245.891 244.264C245.891 145.811 171.371 66 79.4454 66C-12.4799 66 -87 145.811 -87 244.264C-87 342.716 -12.4799 422.527 79.4454 422.527Z" fill="url(#paint5_linear_1_36)" fill-opacity="0.2"/>
</g>
<defs>
<linearGradient id="paint0_linear_1_36" x1="1443.08" y1="970.143" x2="1443.08" y2="442.415" gradientUnits="userSpaceOnUse">
<stop stop-color="#40A4FF"/>
<stop offset="1" stop-color="#311996"/>
</linearGradient>
<linearGradient id="paint1_linear_1_36" x1="944.456" y1="616.556" x2="944.456" y2="485" gradientUnits="userSpaceOnUse">
<stop stop-color="#40A4FF"/>
<stop offset="1" stop-color="#311996"/>
</linearGradient>
<linearGradient id="paint2_linear_1_36" x1="572.681" y1="936.92" x2="530.004" y2="936.92" gradientUnits="userSpaceOnUse">
<stop stop-color="#40A4FF"/>
<stop offset="1" stop-color="#311996"/>
</linearGradient>
<linearGradient id="paint3_linear_1_36" x1="1075" y1="1148.26" x2="1407.9" y2="1148.26" gradientUnits="userSpaceOnUse">
<stop stop-color="#CD7A37"/>
<stop offset="1" stop-color="#311996"/>
</linearGradient>
<linearGradient id="paint4_linear_1_36" x1="177.371" y1="805.734" x2="177.371" y2="278.007" gradientUnits="userSpaceOnUse">
<stop stop-color="#CD7A37"/>
<stop offset="1" stop-color="#311996"/>
</linearGradient>
<linearGradient id="paint5_linear_1_36" x1="79.4392" y1="422.524" x2="79.4392" y2="65.9899" gradientUnits="userSpaceOnUse">
<stop stop-color="#CD7A37"/>
<stop offset="1" stop-color="#311996"/>
</linearGradient>
<clipPath id="clip0_1_36">
<rect width="1568" height="1500" fill="white" transform="translate(0 -20)"/>
</clipPath>
</defs>
</svg>
