<svg width="44" height="34" viewBox="0 0 44 34" fill="none" xmlns="http://www.w3.org/2000/svg">
<path d="M22 33.5039C21.8082 33.504 21.6188 33.4613 21.4456 33.3788C21.2724 33.2964 21.1199 33.1763 20.999 33.0273L17.4053 28.5967H4.71484C3.62865 28.5954 2.58732 28.1633 1.81931 27.3952C1.0513 26.6271 0.619327 25.5857 0.618164 24.4995V4.59473C0.618939 3.50828 1.05074 2.46652 1.81879 1.6981C2.58684 0.929683 3.6284 0.497387 4.71484 0.496094H39.2852C40.3713 0.497386 41.4125 0.929414 42.1805 1.69741C42.9485 2.46541 43.3805 3.50666 43.3818 4.59277V24.4976C43.3807 25.5838 42.9487 26.6251 42.1807 27.3932C41.4127 28.1613 40.3713 28.5934 39.2852 28.5947H26.5947L23.001 33.0254C22.8803 33.1747 22.7278 33.2952 22.5546 33.3779C22.3815 33.4607 22.192 33.5038 22 33.5039V33.5039ZM4.71484 3.0752C4.31196 3.07558 3.92568 3.2358 3.6408 3.52068C3.35592 3.80557 3.1957 4.19184 3.19531 4.59473V24.4976C3.1957 24.9004 3.35592 25.2867 3.6408 25.5716C3.92568 25.8565 4.31196 26.0167 4.71484 26.0171H18.0195C18.2113 26.0172 18.4007 26.0601 18.5739 26.1426C18.747 26.2251 18.8996 26.3452 19.0205 26.4941L21.999 30.1675L24.9775 26.4941C25.0984 26.3452 25.251 26.2251 25.4242 26.1426C25.5973 26.0601 25.7867 26.0172 25.9785 26.0171H39.2852C39.688 26.0167 40.0743 25.8565 40.3592 25.5716C40.6441 25.2867 40.8043 24.9004 40.8047 24.4976V4.59473C40.8043 4.19184 40.6441 3.80557 40.3592 3.52068C40.0743 3.2358 39.688 3.07558 39.2852 3.0752H4.71484Z" fill="#142E4F"/>
<path d="M22 33.5039C21.8082 33.504 21.6188 33.4613 21.4456 33.3788C21.2724 33.2964 21.1199 33.1763 20.999 33.0273L17.4053 28.5967H4.71484C3.62865 28.5954 2.58732 28.1633 1.81931 27.3952C1.0513 26.6271 0.619327 25.5857 0.618164 24.4995V4.59473C0.618939 3.50828 1.05074 2.46652 1.81879 1.6981C2.58684 0.929683 3.6284 0.497387 4.71484 0.496094H39.2852C40.3713 0.497386 41.4125 0.929414 42.1805 1.69741C42.9485 2.46541 43.3805 3.50666 43.3818 4.59277V24.4976C43.3807 25.5838 42.9487 26.6251 42.1807 27.3932C41.4127 28.1613 40.3713 28.5934 39.2852 28.5947H26.5947L23.001 33.0254C22.8803 33.1747 22.7278 33.2952 22.5546 33.3779C22.3815 33.4607 22.192 33.5038 22 33.5039V33.5039ZM4.71484 3.0752C4.31196 3.07558 3.92568 3.2358 3.6408 3.52068C3.35592 3.80557 3.1957 4.19184 3.19531 4.59473V24.4976C3.1957 24.9004 3.35592 25.2867 3.6408 25.5716C3.92568 25.8565 4.31196 26.0167 4.71484 26.0171H18.0195C18.2113 26.0172 18.4007 26.0601 18.5739 26.1426C18.747 26.2251 18.8996 26.3452 19.0205 26.4941L21.999 30.1675L24.9775 26.4941C25.0984 26.3452 25.251 26.2251 25.4242 26.1426C25.5973 26.0601 25.7867 26.0172 25.9785 26.0171H39.2852C39.688 26.0167 40.0743 25.8565 40.3592 25.5716C40.6441 25.2867 40.8043 24.9004 40.8047 24.4976V4.59473C40.8043 4.19184 40.6441 3.80557 40.3592 3.52068C40.0743 3.2358 39.688 3.07558 39.2852 3.0752H4.71484Z" fill="white"/>
<path d="M9.8678 14.3174C9.8678 14.932 10.112 15.5214 10.5465 15.956C10.9811 16.3906 11.5706 16.6348 12.1852 16.6348C12.7998 16.6348 13.3892 16.3906 13.8238 15.956C14.2584 15.5214 14.5026 14.932 14.5026 14.3174C14.5026 13.7028 14.2584 13.1133 13.8238 12.6787C13.3892 12.2442 12.7998 12 12.1852 12C11.5706 12 10.9811 12.2442 10.5465 12.6787C10.112 13.1133 9.8678 13.7028 9.8678 14.3174Z" fill="#142E4F"/>
<path d="M9.8678 14.3174C9.8678 14.932 10.112 15.5214 10.5465 15.956C10.9811 16.3906 11.5706 16.6348 12.1852 16.6348C12.7998 16.6348 13.3892 16.3906 13.8238 15.956C14.2584 15.5214 14.5026 14.932 14.5026 14.3174C14.5026 13.7028 14.2584 13.1133 13.8238 12.6787C13.3892 12.2442 12.7998 12 12.1852 12C11.5706 12 10.9811 12.2442 10.5465 12.6787C10.112 13.1133 9.8678 13.7028 9.8678 14.3174Z" fill="#59AE99"/>
<path d="M19.6826 14.6802C19.6826 15.2948 19.9268 15.8842 20.3614 16.3188C20.796 16.7534 21.3854 16.9976 22 16.9976C22.6146 16.9976 23.204 16.7534 23.6386 16.3188C24.0732 15.8842 24.3174 15.2948 24.3174 14.6802C24.3174 14.0656 24.0732 13.4761 23.6386 13.0415C23.204 12.6069 22.6146 12.3628 22 12.3628C21.3854 12.3628 20.796 12.6069 20.3614 13.0415C19.9268 13.4761 19.6826 14.0656 19.6826 14.6802V14.6802Z" fill="#142E4F"/>
<path d="M19.6826 14.6802C19.6826 15.2948 19.9268 15.8842 20.3614 16.3188C20.796 16.7534 21.3854 16.9976 22 16.9976C22.6146 16.9976 23.204 16.7534 23.6386 16.3188C24.0732 15.8842 24.3174 15.2948 24.3174 14.6802C24.3174 14.0656 24.0732 13.4761 23.6386 13.0415C23.204 12.6069 22.6146 12.3628 22 12.3628C21.3854 12.3628 20.796 12.6069 20.3614 13.0415C19.9268 13.4761 19.6826 14.0656 19.6826 14.6802V14.6802Z" fill="#59AE99"/>
<path d="M29.4976 14.6802C29.4976 15.2948 29.7417 15.8842 30.1763 16.3188C30.6109 16.7534 31.2003 16.9976 31.8149 16.9976C32.4295 16.9976 33.019 16.7534 33.4536 16.3188C33.8882 15.8842 34.1323 15.2948 34.1323 14.6802C34.1323 14.0656 33.8882 13.4761 33.4536 13.0415C33.019 12.6069 32.4295 12.3628 31.8149 12.3628C31.2003 12.3628 30.6109 12.6069 30.1763 13.0415C29.7417 13.4761 29.4976 14.0656 29.4976 14.6802V14.6802Z" fill="#142E4F"/>
<path d="M29.4976 14.6802C29.4976 15.2948 29.7417 15.8842 30.1763 16.3188C30.6109 16.7534 31.2003 16.9976 31.8149 16.9976C32.4295 16.9976 33.019 16.7534 33.4536 16.3188C33.8882 15.8842 34.1323 15.2948 34.1323 14.6802C34.1323 14.0656 33.8882 13.4761 33.4536 13.0415C33.019 12.6069 32.4295 12.3628 31.8149 12.3628C31.2003 12.3628 30.6109 12.6069 30.1763 13.0415C29.7417 13.4761 29.4976 14.0656 29.4976 14.6802V14.6802Z" fill="#59AE99"/>
</svg>
