<svg width="30" height="30" viewBox="0 0 30 30" fill="none" xmlns="http://www.w3.org/2000/svg">
<path d="M14.7803 2.98145C8.14268 2.98145 2.76184 8.36229 2.76184 14.9999C2.76184 21.6375 8.14268 27.0184 14.7803 27.0184C21.4179 27.0184 26.7987 21.6375 26.7987 14.9999C26.7987 8.36229 21.4179 2.98145 14.7803 2.98145ZM14.7803 25.102C9.20106 25.102 4.67818 20.5791 4.67818 14.9999C4.67818 9.42063 9.20106 4.89778 14.7803 4.89778C20.3595 4.89778 24.8824 9.42066 24.8824 14.9999C24.8824 20.5791 20.3595 25.102 14.7803 25.102Z" fill="white"/>
<path d="M13.5499 9.17768C13.5499 9.504 13.6795 9.81696 13.9102 10.0477C14.141 10.2785 14.454 10.4081 14.7803 10.4081C15.1066 10.4081 15.4196 10.2785 15.6503 10.0477C15.8811 9.81696 16.0107 9.504 16.0107 9.17768C16.0107 8.85135 15.8811 8.53839 15.6503 8.30764C15.4196 8.0769 15.1066 7.94727 14.7803 7.94727C14.454 7.94727 14.141 8.0769 13.9102 8.30764C13.6795 8.53839 13.5499 8.85135 13.5499 9.17768Z" fill="white"/>
<path d="M16.0107 20.8808C16.0107 21.5281 15.486 22.0527 14.8388 22.0527H14.7217C14.0745 22.0527 13.5499 21.5281 13.5499 20.8808V12.8101C13.5499 12.1629 14.0745 11.6382 14.7217 11.6382H14.8388C15.486 11.6382 16.0107 12.1629 16.0107 12.8101V20.8808Z" fill="white"/>
</svg>
