<svg width="339" height="614" viewBox="0 0 339 614" fill="none" xmlns="http://www.w3.org/2000/svg">
<path d="M372.447 330.511L278.021 278.592L303.391 264.746L397.818 316.666L372.447 330.511Z" fill="#66C8FF"/>
<path d="M285.342 378.038L190.915 326.118L278.016 278.589L372.443 330.508L285.342 378.038Z" fill="#66C8FF"/>
<path d="M140.011 545.285L45.5849 493.365L45.4062 447.946L139.833 499.866L140.011 545.285Z" fill="url(#paint0_linear_22_8389)"/>
<path d="M139.833 499.864L45.4062 447.944L46.1209 446.847L140.547 498.682L139.833 499.864Z" fill="#27BDFF"/>
<path d="M310.271 190.458C310.449 189.445 310.628 188.432 310.807 187.335C310.807 187.25 310.807 187.166 310.807 187.081C310.807 186.828 310.896 186.659 310.896 186.406C310.985 185.815 311.074 185.224 311.074 184.718C311.074 184.38 311.164 184.042 311.164 183.704C311.253 183.114 311.253 182.607 311.342 182.016C311.342 181.678 311.432 181.341 311.432 181.003C311.432 180.412 311.521 179.821 311.521 179.23C311.521 178.977 311.521 178.639 311.521 178.386C311.521 177.542 311.521 176.613 311.521 175.769C311.521 165.3 307.858 158.462 300.176 154.241L205.749 102.406C213.432 106.627 217.095 113.55 217.095 123.934C217.095 124.778 217.095 125.706 217.095 126.551C217.095 126.804 217.095 127.142 217.095 127.395C217.095 127.986 217.005 128.577 217.005 129.168C217.005 129.505 216.916 129.843 216.916 130.181C216.916 130.772 216.827 131.278 216.737 131.869C216.737 132.207 216.648 132.545 216.648 132.882C216.559 133.473 216.559 134.064 216.469 134.571C216.469 134.824 216.38 135.162 216.38 135.415C216.201 136.428 216.112 137.441 215.844 138.539C215.844 138.792 215.755 138.961 215.755 139.214C215.576 140.058 215.397 140.987 215.219 141.831C215.129 142.084 215.129 142.338 215.04 142.591C214.951 143.182 214.772 143.688 214.593 144.279C214.504 144.533 214.415 144.87 214.415 145.124C214.236 145.883 213.968 146.643 213.789 147.487C213.789 147.572 213.789 147.656 213.7 147.741C213.611 148.078 213.521 148.416 213.343 148.754C213.164 149.176 213.075 149.682 212.896 150.104C212.807 150.442 212.628 150.78 212.539 151.202C212.36 151.624 212.271 152.131 212.092 152.553C212.092 152.637 212.003 152.806 211.913 152.89C211.645 153.566 211.467 154.157 211.199 154.832C211.109 155.085 211.02 155.423 210.841 155.676C210.663 156.183 210.484 156.689 210.216 157.196C210.127 157.449 209.948 157.787 209.859 158.04C209.68 158.547 209.501 158.969 209.233 159.475C209.055 159.813 208.965 160.151 208.787 160.404C208.519 160.995 208.251 161.586 207.982 162.177C207.536 163.19 207 164.203 206.553 165.216C206.553 165.3 206.464 165.385 206.464 165.469C206.017 166.482 205.481 167.495 204.945 168.508C204.856 168.677 204.766 168.762 204.766 168.931C204.23 169.944 203.784 170.957 203.248 172.054C203.158 172.223 203.069 172.392 202.98 172.561C202.444 173.574 201.908 174.671 201.372 175.769C201.282 176.022 201.104 176.275 201.014 176.529C200.836 176.866 200.657 177.288 200.478 177.626C200.3 177.964 200.121 178.301 199.942 178.639C199.764 178.977 199.585 179.399 199.406 179.737C199.228 180.074 199.049 180.412 198.87 180.75C198.692 181.172 198.513 181.51 198.245 181.932C198.066 182.269 197.888 182.607 197.709 182.945C197.53 183.367 197.262 183.789 197.084 184.127C196.905 184.464 196.726 184.802 196.548 185.14C196.369 185.562 196.101 185.984 195.922 186.406C195.744 186.744 195.565 187.166 195.386 187.504C195.208 187.926 194.94 188.348 194.761 188.77C194.582 189.108 194.314 189.53 194.136 189.867C193.868 190.289 193.689 190.712 193.421 191.134C193.242 191.471 193.064 191.893 192.796 192.231C192.528 192.653 192.349 193.16 192.081 193.582C191.902 193.92 191.634 194.342 191.456 194.679C191.188 195.102 191.009 195.608 190.741 196.03C190.562 196.452 190.294 196.79 190.116 197.212C189.848 197.719 189.58 198.141 189.312 198.647C189.133 198.985 188.865 199.407 188.686 199.745C188.418 200.251 188.15 200.758 187.882 201.264C187.704 201.602 187.525 202.024 187.257 202.362C186.989 202.868 186.721 203.375 186.364 203.881C186.185 204.304 185.917 204.641 185.738 205.063C185.47 205.57 185.202 206.076 184.845 206.667C184.666 207.005 184.398 207.427 184.22 207.765C183.862 208.356 183.594 208.862 183.237 209.453C183.058 209.791 182.88 210.129 182.612 210.551C182.254 211.142 181.986 211.733 181.629 212.324C181.45 212.661 181.271 212.999 181.003 213.421C180.646 214.012 180.378 214.603 180.021 215.194C179.842 215.532 179.574 215.954 179.395 216.292C179.127 216.714 178.949 217.136 178.681 217.558C178.413 218.064 178.055 218.655 177.787 219.162C177.519 219.668 177.251 220.091 176.983 220.597C176.715 221.104 176.447 221.61 176.09 222.117C175.822 222.623 175.554 223.13 175.286 223.636C175.018 224.143 174.75 224.649 174.482 225.156C174.214 225.578 174.035 226 173.767 226.338C173.41 226.929 173.053 227.604 172.695 228.195C172.606 228.279 172.606 228.448 172.517 228.533C171.177 230.897 169.747 233.345 168.318 235.793C167.335 237.397 166.442 239.086 165.459 240.774L46.1084 446.849L140.535 498.684L259.886 292.778C260.869 291.09 261.851 289.486 262.745 287.797C264.174 285.349 265.603 282.901 266.943 280.537C267.033 280.452 267.033 280.284 267.122 280.199C267.479 279.608 267.837 278.933 268.194 278.342C268.462 277.92 268.641 277.498 268.909 277.16C269.177 276.653 269.445 276.147 269.713 275.64C269.981 275.134 270.249 274.627 270.517 274.121C270.785 273.614 271.053 273.108 271.41 272.601C271.678 272.095 271.946 271.673 272.214 271.166C272.482 270.575 272.839 270.069 273.107 269.562C273.375 269.14 273.554 268.718 273.822 268.296V268.211C274.001 267.874 274.179 267.536 274.447 267.114C274.805 266.523 275.073 265.932 275.43 265.341C275.609 265.003 275.787 264.666 276.055 264.243C276.413 263.652 276.681 263.061 277.038 262.471C277.217 262.133 277.395 261.795 277.663 261.373C278.021 260.782 278.289 260.191 278.646 259.685C278.825 259.262 279.093 258.925 279.271 258.587C279.539 258.081 279.897 257.574 280.165 256.983C280.343 256.561 280.611 256.223 280.79 255.801C281.058 255.295 281.326 254.788 281.683 254.282C281.862 253.944 282.041 253.522 282.309 253.184C282.577 252.678 282.845 252.171 283.113 251.664C283.291 251.242 283.559 250.905 283.738 250.567C284.006 250.06 284.274 249.638 284.542 249.132C284.721 248.71 284.989 248.372 285.168 247.95C285.436 247.528 285.704 247.021 285.882 246.599C286.061 246.177 286.329 245.839 286.508 245.502C286.776 245.08 286.954 244.573 287.222 244.151C287.401 243.813 287.58 243.391 287.848 243.053C288.116 242.631 288.294 242.209 288.562 241.787C288.741 241.365 289.009 241.027 289.188 240.69C289.366 240.267 289.634 239.845 289.813 239.423C289.992 239.086 290.17 238.663 290.349 238.326C290.528 237.904 290.796 237.482 290.974 237.059C291.153 236.722 291.332 236.384 291.51 236.046C291.689 235.624 291.957 235.202 292.136 234.78C292.314 234.442 292.493 234.105 292.672 233.767C292.85 233.345 293.118 233.007 293.297 232.585C293.476 232.247 293.654 231.91 293.833 231.572C294.012 231.234 294.19 230.812 294.369 230.474C294.548 230.137 294.726 229.799 294.905 229.461C295.084 229.124 295.262 228.702 295.441 228.364C295.53 228.195 295.62 228.026 295.709 227.857C295.798 227.773 295.798 227.689 295.888 227.604C296.424 226.507 296.96 225.409 297.496 224.396C297.585 224.227 297.674 224.058 297.764 223.89C298.3 222.792 298.836 221.779 299.282 220.766C299.372 220.597 299.372 220.513 299.461 220.344C299.997 219.331 300.444 218.318 300.98 217.305C300.98 217.22 301.069 217.136 301.069 217.051C301.605 216.038 302.052 215.025 302.498 214.012C302.588 213.759 302.766 213.421 302.856 213.168C303.034 212.83 303.124 212.577 303.302 212.239C303.481 211.902 303.57 211.564 303.749 211.311C303.928 210.804 304.196 210.382 304.374 209.875C304.464 209.622 304.642 209.284 304.732 209.031C304.732 208.947 304.821 208.862 304.821 208.862C305 208.44 305.178 208.018 305.357 207.596C305.446 207.343 305.536 207.005 305.714 206.752C305.982 206.076 306.161 205.485 306.429 204.81C306.518 204.641 306.518 204.557 306.608 204.388C306.786 203.966 306.876 203.544 307.054 203.122C307.144 202.784 307.322 202.446 307.412 202.024C307.59 201.602 307.68 201.18 307.858 200.673C307.948 200.336 308.037 199.998 308.216 199.576C308.216 199.491 308.216 199.407 308.305 199.407C308.573 198.647 308.752 197.887 308.931 197.043C309.02 196.79 309.109 196.452 309.109 196.199C309.288 195.608 309.377 195.102 309.556 194.511C309.556 194.426 309.645 194.257 309.645 194.173C309.645 194.004 309.734 193.835 309.734 193.751C309.913 192.907 310.092 191.978 310.271 191.134C310.181 190.88 310.181 190.627 310.271 190.458Z" fill="url(#paint1_linear_22_8389)"/>
<path d="M275.341 66.3559C275.699 66.1871 276.056 66.0183 276.413 65.8494C277.128 65.5117 277.753 65.174 278.468 64.8363C278.825 64.6675 279.093 64.4986 279.451 64.4142C280.344 63.9921 281.237 63.57 282.131 63.1479C282.22 63.1479 282.309 63.0635 282.309 63.0635C283.292 62.6414 284.185 62.2192 285.168 61.7971C285.436 61.7127 285.794 61.5439 286.061 61.4594C286.687 61.2062 287.402 60.8685 288.027 60.6152C288.384 60.4464 288.652 60.362 289.01 60.1931C289.546 60.0243 289.992 59.771 290.439 59.6021C291.243 59.2645 292.047 59.0112 292.851 58.6735C293.208 58.5047 293.655 58.4203 294.012 58.2514C294.906 57.9137 295.888 57.576 296.782 57.3228C296.96 57.2383 297.228 57.1539 297.407 57.0695C298.568 56.7318 299.64 56.3941 300.802 56.0564C301.07 55.972 301.427 55.8876 301.695 55.8031C302.499 55.5499 303.303 55.381 304.107 55.1278C304.554 55.0434 305.09 54.8745 305.536 54.7901C305.983 54.7057 306.34 54.6213 306.787 54.4524C307.323 54.368 307.859 54.1991 308.395 54.1147C308.752 54.0303 309.199 53.9459 309.556 53.8614C310.092 53.777 310.629 53.6926 311.165 53.5238C311.522 53.4393 311.968 53.3549 312.326 53.2705C312.862 53.1861 313.398 53.1016 314.023 53.0172C314.381 52.9328 314.738 52.9328 315.095 52.8484C315.899 52.7639 316.793 52.5951 317.597 52.5107C317.775 52.5107 317.954 52.5107 318.133 52.4263C318.758 52.3418 319.473 52.2574 320.098 52.2574C320.366 52.2574 320.634 52.173 320.902 52.173C321.438 52.0886 322.063 52.0886 322.599 52.0886C322.867 52.0886 323.135 52.0886 323.403 52.0041C324.118 52.0041 324.833 51.9197 325.547 51.9197C325.637 51.9197 325.726 51.9197 325.726 51.9197C326.53 51.9197 327.334 51.9197 328.049 51.9197C328.227 51.9197 328.495 51.9197 328.674 51.9197C329.299 51.9197 329.835 51.9197 330.461 52.0041C330.639 52.0041 330.907 52.0041 331.086 52.0041C331.354 52.0041 331.622 52.0041 331.979 52.0886C332.783 52.173 333.677 52.173 334.481 52.2574C334.749 52.2574 335.106 52.3418 335.374 52.3418C336.357 52.4263 337.25 52.5951 338.233 52.764C338.322 52.764 338.412 52.764 338.501 52.764C339.484 52.9328 340.466 53.1016 341.449 53.3549C341.717 53.4393 341.985 53.4393 342.253 53.5238C342.968 53.6926 343.682 53.8615 344.486 54.0303C344.754 54.1147 345.022 54.1991 345.29 54.2836C346.273 54.5368 347.256 54.8745 348.149 55.1278C348.238 55.1278 348.328 55.2122 348.328 55.2122C349.221 55.5499 350.114 55.8032 350.918 56.1409C351.186 56.2253 351.454 56.3941 351.812 56.4785C352.437 56.7318 353.062 56.9851 353.777 57.3228C354.045 57.4072 354.313 57.576 354.581 57.6604C355.474 58.0826 356.368 58.5047 357.172 58.9268C357.529 59.0956 357.976 59.3489 358.333 59.6021L263.907 7.76685C263.639 7.59801 263.46 7.51358 263.192 7.34474C263.013 7.26032 262.835 7.1759 262.745 7.09148C261.852 6.66937 261.048 6.24726 260.154 5.82515C259.886 5.74073 259.618 5.57187 259.35 5.48745C258.725 5.23418 258.1 4.89649 257.385 4.64323C257.206 4.5588 257.028 4.47439 256.849 4.47439C256.76 4.38996 256.581 4.38997 256.492 4.30554C255.598 3.96785 254.705 3.63016 253.901 3.37689C253.812 3.37689 253.722 3.29248 253.722 3.29248C252.74 2.95479 251.846 2.70152 250.864 2.44825C250.774 2.44825 250.685 2.36383 250.596 2.36383C250.417 2.27941 250.238 2.27941 250.06 2.19499C249.345 2.02614 248.63 1.85729 247.826 1.68845C247.558 1.60402 247.29 1.5196 247.022 1.5196C246.04 1.35076 245.057 1.0975 244.074 0.928651C243.985 0.928651 243.985 0.928651 243.896 0.928651C242.913 0.759806 242.02 0.675384 241.037 0.506539C240.769 0.506539 240.412 0.422112 240.144 0.422112C239.34 0.337689 238.536 0.253264 237.642 0.168842C237.464 0.168842 237.285 0.16885 237.106 0.0844275C237.017 0.0844275 236.928 0.0844275 236.749 0.0844275C236.57 0.0844275 236.302 0.0844275 236.124 0.0844275C235.498 0.0844275 234.962 0 234.337 0C234.158 0 233.89 0 233.711 0C232.907 0 232.193 0 231.389 0C231.299 0 231.21 0 231.21 0C230.674 0 230.138 5.15147e-06 229.513 0.0844275C229.334 0.0844275 229.155 0.0844275 229.066 0.0844275C228.798 0.0844275 228.53 0.0844197 228.262 0.168842C227.726 0.168842 227.101 0.25327 226.565 0.25327C226.297 0.25327 226.029 0.337697 225.761 0.337697C225.135 0.422119 224.421 0.422117 223.795 0.506539C223.617 0.506539 223.438 0.506531 223.259 0.590954C222.455 0.675376 221.741 0.759806 220.937 0.928651C220.847 0.928651 220.847 0.928651 220.758 0.928651C220.401 1.01307 220.043 1.01307 219.686 1.09749C219.15 1.18191 218.614 1.26634 217.989 1.35076C217.631 1.43518 217.185 1.51961 216.827 1.60403C216.291 1.68845 215.755 1.77287 215.219 1.94172C214.862 2.02614 214.415 2.11056 214.058 2.19499C213.522 2.27941 212.986 2.44825 212.45 2.53267C212.003 2.61709 211.646 2.70152 211.199 2.87037C210.931 2.95479 210.574 3.0392 210.306 3.12362C210.127 3.12362 209.949 3.20806 209.77 3.29248C208.966 3.54574 208.162 3.71458 207.358 3.96785C207.09 4.05227 206.732 4.13669 206.464 4.22112C205.303 4.5588 204.231 4.89649 203.07 5.23418C202.891 5.3186 202.623 5.40303 202.444 5.48745C201.551 5.82514 200.568 6.07841 199.675 6.4161C199.318 6.58495 198.871 6.66937 198.514 6.83821C197.71 7.09148 196.906 7.42916 196.102 7.76685C195.834 7.85127 195.655 7.9357 195.387 8.02012C195.119 8.10454 194.851 8.27339 194.583 8.35782C194.226 8.52666 193.958 8.61108 193.6 8.77993C192.975 9.0332 192.26 9.28646 191.635 9.62415C191.367 9.70857 191.01 9.87741 190.742 9.96184C189.759 10.3839 188.866 10.8061 187.883 11.2282C187.794 11.2282 187.704 11.3126 187.704 11.3126C186.811 11.7347 185.918 12.1568 185.024 12.5789C184.756 12.7478 184.399 12.9166 184.042 13.001C183.327 13.3387 182.702 13.6764 181.987 14.0141C181.629 14.183 181.272 14.3518 180.915 14.5206C180.2 14.8583 179.575 15.196 178.86 15.5337C178.592 15.7026 178.235 15.8714 177.967 16.0402C176.984 16.5468 176.001 17.0533 175.019 17.6443C173.947 18.2352 172.964 18.8262 171.892 19.3327C171.535 19.5016 171.177 19.7548 170.909 19.9237C170.195 20.3458 169.569 20.6835 168.855 21.1056C168.497 21.3588 168.051 21.6121 167.693 21.781C167.068 22.1186 166.443 22.5408 165.817 22.8785C165.371 23.1317 165.013 23.385 164.567 23.6382C163.941 23.9759 163.405 24.3981 162.78 24.7357C162.333 24.989 161.976 25.2423 161.529 25.58C160.904 26.0021 160.368 26.3398 159.743 26.7619C159.296 27.0151 158.939 27.3528 158.492 27.6061C157.867 28.0282 157.331 28.3659 156.705 28.788C156.348 29.0413 155.901 29.379 155.544 29.6322C154.918 30.0543 154.293 30.4764 153.668 30.8986C153.31 31.1518 152.953 31.4051 152.596 31.6584C151.881 32.1649 151.166 32.6714 150.452 33.178C150.184 33.3468 149.916 33.6001 149.648 33.7689C148.665 34.5287 147.682 35.2041 146.789 35.9639C146.61 36.1327 146.342 36.3016 146.164 36.4704C145.449 37.0614 144.645 37.6524 143.93 38.2433C143.573 38.4966 143.216 38.8343 142.948 39.0875C142.322 39.5941 141.697 40.1006 141.161 40.6071C140.804 40.9448 140.446 41.1981 140 41.5358C139.464 42.0423 138.838 42.4644 138.302 42.971C137.945 43.3087 137.498 43.6463 137.141 43.984C136.605 44.4906 136.069 44.9127 135.533 45.4192C135.176 45.7569 134.729 46.0946 134.372 46.4323C133.836 46.9388 133.299 47.3609 132.763 47.8675C132.406 48.2051 131.959 48.5428 131.602 48.8805C131.423 49.0494 131.245 49.2182 131.066 49.3871C130.798 49.6403 130.53 49.8936 130.352 50.0624C129.726 50.6534 129.011 51.3288 128.386 51.9197C127.939 52.3418 127.582 52.6795 127.225 53.1016C126.599 53.777 125.885 54.368 125.259 55.0433C124.902 55.4655 124.455 55.8031 124.098 56.2253C123.383 56.9006 122.669 57.6604 121.954 58.4202C121.686 58.7579 121.329 59.0112 121.061 59.3489C120.078 60.362 119.095 61.4594 118.113 62.5569C117.219 63.4856 116.415 64.4142 115.522 65.3429C115.254 65.5961 115.075 65.8494 114.807 66.1871C114.182 66.8625 113.557 67.6223 112.931 68.2977C112.574 68.6353 112.306 69.0574 111.949 69.3951C111.413 69.9861 110.877 70.6615 110.341 71.2524C109.983 71.6746 109.626 72.0967 109.269 72.5188C108.911 72.9409 108.554 73.363 108.197 73.7851C108.107 73.8695 108.018 74.0384 107.929 74.1228C106.678 75.6424 105.517 77.162 104.266 78.6816C103.998 79.0193 103.819 79.2726 103.551 79.6102C102.3 81.2143 101.139 82.8183 99.8884 84.4223C99.8884 84.4223 99.8884 84.5067 99.7991 84.5067C98.6378 86.0263 97.4764 87.6304 96.4044 89.2344C96.1364 89.5721 95.8684 89.9942 95.6004 90.3319C94.5284 91.9359 93.367 93.4555 92.295 95.1439C92.295 95.2284 92.2057 95.2284 92.2057 95.3128C92.1163 95.4816 92.027 95.6505 91.8483 95.8193C90.955 97.1701 90.0616 98.5208 89.1683 99.8716C88.9003 100.294 88.6323 100.716 88.3643 101.138C87.3816 102.742 86.3096 104.262 85.3269 105.866C85.2376 106.034 85.1482 106.203 84.9695 106.372C84.7909 106.625 84.7015 106.879 84.5229 107.048C83.8082 108.314 83.0042 109.496 82.2895 110.762C82.0215 111.184 81.7535 111.691 81.4855 112.113C80.7709 113.379 79.9669 114.73 79.2522 115.996C79.1628 116.165 78.9841 116.418 78.8948 116.587C78.8948 116.672 78.8055 116.672 78.8055 116.756C78.0015 118.276 77.1082 119.711 76.3041 121.23C76.1255 121.653 75.8575 121.99 75.6788 122.412C75.0535 123.594 74.4281 124.692 73.8921 125.874C73.7134 126.127 73.6241 126.38 73.4454 126.633C73.3561 126.802 73.2668 127.056 73.1774 127.224C72.4628 128.575 71.8374 129.926 71.2121 131.277C71.1227 131.446 71.0334 131.614 70.9441 131.868C70.2294 133.387 69.5147 134.907 68.8 136.426C68.7107 136.595 68.6213 136.68 68.6213 136.849C68.532 137.102 68.3534 137.355 68.264 137.693C67.728 138.875 67.192 140.141 66.656 141.323C66.4773 141.745 66.2987 142.167 66.12 142.589C65.4053 144.193 64.78 145.713 64.1546 147.317V147.401C64.0653 147.486 64.0653 147.655 63.9759 147.739C63.3506 149.259 62.7253 150.778 62.1893 152.382C62.0106 152.804 61.8319 153.227 61.6533 153.649C61.0279 155.337 60.4026 157.026 59.7773 158.714C59.7773 158.714 59.7773 158.714 59.7773 158.798C59.1519 160.656 58.5266 162.513 57.9012 164.37C57.8119 164.708 57.6332 165.13 57.5439 165.468C56.9186 167.325 56.3825 169.098 55.8465 170.955C55.8465 171.04 55.7572 171.208 55.7572 171.293C55.5785 171.799 55.4892 172.306 55.3105 172.812C55.1319 173.403 54.9532 173.994 54.7745 174.585C54.5958 175.261 54.4172 176.021 54.2385 176.696C54.0598 177.287 53.9705 177.878 53.7918 178.384C53.6132 179.144 53.4345 179.82 53.2558 180.579C53.0771 181.17 52.9878 181.677 52.8091 182.268C52.6305 183.028 52.4518 183.787 52.2731 184.547C52.1838 185.054 52.0051 185.56 51.9158 186.151C51.9158 186.236 51.9158 186.32 51.8265 186.32C51.7371 186.573 51.7371 186.827 51.6478 187.08C51.3798 188.346 51.1118 189.528 50.8438 190.794C50.7545 191.301 50.6651 191.807 50.5758 192.314C50.3971 193.412 50.1291 194.425 49.9505 195.522C49.8611 196.029 49.7718 196.535 49.6824 197.042C49.4144 198.308 49.2358 199.659 49.0571 200.925C49.0571 201.178 48.9678 201.432 48.9678 201.685C48.6998 203.205 48.5211 204.724 48.2531 206.244C48.2531 206.328 48.2531 206.497 48.1638 206.581C48.1638 206.835 48.0744 207.088 48.0744 207.341C47.8957 208.776 47.7171 210.127 47.5384 211.562C47.4491 211.984 47.4491 212.407 47.3598 212.829C47.1811 214.517 47.0024 216.206 46.8238 217.894C46.8238 218.147 46.8237 218.401 46.7344 218.654C46.6451 220.173 46.4664 221.609 46.3771 223.128C46.3771 223.55 46.2877 224.057 46.2877 224.479C46.1984 226.167 46.1091 227.94 46.0197 229.629L44.8584 259.092L139.285 310.927L140.446 281.464C140.536 279.776 140.625 278.003 140.714 276.314C140.714 275.892 140.804 275.386 140.804 274.964C140.893 273.444 140.982 272.009 141.161 270.489C141.161 270.236 141.161 269.983 141.25 269.729C141.429 268.041 141.608 266.352 141.786 264.664C141.876 264.242 141.876 263.82 141.965 263.398C142.144 261.962 142.322 260.612 142.501 259.177C142.59 258.839 142.59 258.417 142.68 258.079C142.858 256.559 143.126 255.04 143.394 253.52C143.394 253.267 143.484 253.014 143.484 252.76C143.662 251.494 143.93 250.143 144.109 248.877C144.198 248.37 144.288 247.864 144.377 247.357C144.556 246.26 144.824 245.247 145.002 244.149C145.092 243.643 145.181 243.136 145.27 242.63C145.538 241.363 145.806 240.181 146.074 238.915C146.164 238.577 146.164 238.324 146.253 237.987C146.342 237.48 146.521 236.973 146.61 236.382C146.789 235.623 146.968 234.863 147.146 234.103C147.325 233.512 147.414 233.006 147.593 232.415C147.772 231.655 147.95 230.979 148.129 230.22C148.308 229.629 148.397 229.038 148.576 228.531C148.754 227.856 148.933 227.096 149.112 226.421C149.29 225.83 149.469 225.239 149.648 224.648C149.826 223.972 150.005 223.381 150.184 222.706C150.72 220.849 151.256 219.076 151.881 217.219C151.97 216.881 152.149 216.459 152.238 216.121C152.864 214.264 153.489 212.407 154.114 210.549C154.114 210.549 154.114 210.549 154.114 210.465C154.74 208.776 155.365 207.088 155.99 205.399C156.169 204.977 156.348 204.555 156.527 204.133C157.152 202.614 157.688 201.094 158.313 199.574C158.403 199.406 158.403 199.237 158.492 199.068C159.117 197.464 159.832 195.944 160.457 194.34C160.636 193.918 160.815 193.496 160.993 193.074C161.529 191.892 162.065 190.626 162.601 189.444C162.78 189.022 162.959 188.599 163.137 188.177C163.852 186.658 164.567 185.138 165.281 183.619C165.371 183.45 165.46 183.281 165.549 183.028C166.175 181.677 166.889 180.326 167.515 178.975C167.783 178.553 167.961 178.047 168.229 177.625C168.855 176.443 169.391 175.345 170.016 174.163C170.195 173.741 170.463 173.319 170.641 172.981C171.445 171.462 172.249 169.942 173.143 168.507C173.321 168.254 173.411 168 173.589 167.747C174.304 166.481 175.019 165.13 175.823 163.864C176.091 163.442 176.359 162.935 176.627 162.513C177.341 161.247 178.145 160.065 178.86 158.798C179.128 158.376 179.396 157.954 179.575 157.532C180.557 155.928 181.54 154.324 182.612 152.804C182.88 152.382 183.148 151.96 183.416 151.538C184.31 150.187 185.203 148.837 186.096 147.486C186.275 147.317 186.364 147.064 186.543 146.895C187.615 145.291 188.776 143.687 189.848 142.083C190.116 141.745 190.384 141.323 190.652 140.985C191.814 139.381 192.886 137.862 194.047 136.258L194.136 136.173C195.298 134.569 196.548 132.965 197.799 131.361C198.067 131.023 198.246 130.77 198.514 130.432C199.764 128.913 200.926 127.393 202.176 125.874C202.623 125.367 203.07 124.776 203.516 124.27C203.874 123.848 204.231 123.425 204.588 123.003C205.124 122.412 205.66 121.737 206.196 121.146C206.554 120.808 206.822 120.386 207.179 120.049C207.805 119.373 208.43 118.613 209.055 117.938C209.323 117.685 209.502 117.431 209.77 117.094C210.663 116.165 211.467 115.152 212.361 114.223C213.343 113.126 214.326 112.113 215.309 111.015C215.577 110.678 215.934 110.34 216.202 110.087C216.917 109.327 217.631 108.652 218.346 107.892C218.703 107.47 219.15 107.132 219.507 106.71C220.133 106.034 220.847 105.443 221.473 104.768C221.83 104.346 222.277 104.008 222.634 103.586C223.259 102.995 223.974 102.32 224.599 101.729C225.046 101.307 225.493 100.969 225.85 100.547C226.207 100.209 226.565 99.8716 227.011 99.5339C227.547 99.0274 228.083 98.5208 228.619 98.0987C228.977 97.761 229.423 97.4234 229.781 97.0857C230.317 96.5791 230.853 96.157 231.389 95.6505C231.746 95.3128 232.193 94.9751 232.55 94.6374C233.086 94.1309 233.711 93.7088 234.247 93.2022C234.605 92.8646 234.962 92.5269 235.409 92.2736C236.034 91.7671 236.57 91.2605 237.196 90.754C237.553 90.5007 237.91 90.163 238.178 89.9098C238.893 89.3188 239.697 88.7279 240.412 88.1369C240.59 87.9681 240.858 87.7992 241.037 87.6304C242.02 86.8706 242.913 86.1952 243.896 85.4354C244.164 85.2665 244.432 85.0133 244.7 84.8444C245.414 84.3379 246.129 83.8314 246.844 83.3248C247.201 83.0716 247.558 82.8183 247.916 82.565C248.541 82.1429 249.166 81.7208 249.792 81.2987C250.149 81.0454 250.596 80.7077 251.042 80.4545C251.668 80.0324 252.204 79.6103 252.829 79.2726C253.276 79.0193 253.633 78.6816 254.08 78.4283C254.705 78.0062 255.241 77.6685 255.866 77.2464C256.313 76.9932 256.67 76.7399 257.117 76.4022C257.742 76.0645 258.278 75.6424 258.904 75.3047C259.35 75.0514 259.708 74.7982 260.154 74.5449C260.78 74.1228 261.405 73.7851 262.031 73.4474C262.388 73.1942 262.835 72.9409 263.192 72.772C263.907 72.3499 264.532 72.0122 265.247 71.5901C265.604 71.4213 265.961 71.168 266.229 70.9992C267.212 70.4082 268.284 69.8172 269.356 69.3107C270.339 68.8042 271.321 68.2132 272.304 67.7067C272.572 67.5378 272.929 67.369 273.197 67.2002C274.001 67.0313 274.627 66.6936 275.341 66.3559Z" fill="url(#paint2_linear_22_8389)"/>
<path d="M269.353 69.4777C304.194 50.4826 333.763 46.9369 357.258 59.1781C368.961 65.2565 377.895 74.543 383.791 86.6998C389.776 98.8566 392.813 114.053 392.813 131.866C392.903 158.205 386.471 186.487 373.696 215.866C362.44 241.784 346.181 272.935 324.026 311.348L285.344 377.957L372.445 330.427L397.816 316.582L397.906 344.103L397.995 376.859L398.084 404.381L372.713 418.226L159.293 534.729L139.997 545.282L139.818 499.863L140.533 498.681L259.884 292.775C279.895 258.246 294.188 231.737 302.496 214.093C308.571 201.092 311.519 188.598 311.519 175.85C311.519 165.044 307.588 158.037 299.28 153.816C290.704 149.51 280.609 150.861 267.477 158.037C254.613 165.044 244.786 174.668 236.657 188.175C227.991 202.527 222.899 220.34 221.381 241.108L219.505 267.448L196.188 280.111L165.993 296.574L139.461 311.01L140.622 281.546C142.23 238.744 155.452 197.04 179.84 157.699C204.407 118.189 234.513 88.4727 269.353 69.4777Z" fill="url(#paint3_linear_22_8389)"/>
<path d="M285.66 319.196V325.19L316.391 342.581V336.165L285.66 319.196Z" fill="#27BDFF"/>
<path d="M124.899 428.868L56.0225 390.962L119.539 356.264L188.505 394.17L124.899 428.868Z" fill="url(#paint4_linear_22_8389)"/>
<path d="M125.074 482.727V428.696L188.502 394.083" fill="url(#paint5_linear_22_8389)"/>
<path d="M56.2764 390.706V447.269L125.064 482.727V428.696L56.2764 390.706Z" fill="url(#paint6_linear_22_8389)"/>
<path d="M115.272 92.6946C115.272 92.6946 58.9908 147.569 63.4576 237.901L128.672 268.293C128.672 268.293 120.632 187.248 184.059 126.464L115.272 92.6946Z" fill="url(#paint7_linear_22_8389)"/>
<path d="M63.4453 237.901L137.146 202.021C137.146 202.021 127.766 241.278 128.659 268.293L63.4453 237.901Z" fill="url(#paint8_linear_22_8389)"/>
<path d="M222.466 353.557V367.065L291.253 405.899V391.547L222.466 353.557Z" fill="url(#paint9_linear_22_8389)"/>
<path d="M354.666 356.934V370.442L291.238 405.899V391.547L354.666 356.934Z" fill="#0080FF"/>
<path d="M382.335 372.468L354.284 357.187L354.641 357.018L285.675 319.113L222.158 353.81L291.035 391.716L323.374 374.072L351.515 389.437L382.335 372.468Z" fill="url(#paint10_linear_22_8389)"/>
<path d="M323.112 373.903V379.897L351.431 395.768V389.352L323.112 373.903Z" fill="#00A4FF"/>
<path opacity="0.19" d="M114.981 92.868C114.981 92.868 58.6998 147.743 63.1665 238.074L128.381 268.466C128.381 268.466 120.341 187.421 183.768 126.637L114.981 92.868Z" fill="#ABEFFF"/>
<path opacity="0.05" d="M315.318 604.327C300.64 614.94 276.234 616.634 260.774 608.166C245.314 599.698 244.706 584.229 259.298 573.616C273.976 563.003 298.382 561.309 313.842 569.777C329.302 578.245 329.91 593.714 315.318 604.327Z" fill="url(#paint11_radial_22_8389)"/>
<path opacity="0.05" d="M311.823 600.268C299.424 609.233 278.731 610.708 265.721 603.559C252.623 596.41 252.099 583.36 264.498 574.395C276.897 565.43 297.591 563.955 310.601 571.104C323.698 578.14 324.222 591.303 311.823 600.268Z" fill="url(#paint12_radial_22_8389)"/>
<path d="M320.336 305.8L287.949 325.407L255.562 305.8L287.949 286.291L320.336 305.8Z" fill="url(#paint13_linear_22_8389)"/>
<path d="M320.336 299.529L287.949 319.038L255.562 299.529L287.949 279.922L320.336 299.529Z" fill="url(#paint14_linear_22_8389)"/>
<path opacity="0.7" d="M320.332 299.526L287.945 236V319.035L320.332 299.526Z" fill="url(#paint15_linear_22_8389)"/>
<path opacity="0.7" d="M255.562 299.526L287.949 236V319.035L255.562 299.526Z" fill="url(#paint16_linear_22_8389)"/>
<path opacity="0.7" d="M320.332 305.795L287.945 357.361V325.402L320.332 305.795Z" fill="url(#paint17_linear_22_8389)"/>
<path opacity="0.7" d="M255.562 305.795L287.949 357.361V325.402L255.562 305.795Z" fill="url(#paint18_linear_22_8389)"/>
<path d="M320.336 305.801L287.949 325.31L255.562 305.801L287.949 286.194L320.336 305.801Z" fill="url(#paint19_linear_22_8389)"/>
<path d="M320.336 299.431L287.949 319.038L255.562 299.431L287.949 279.922L320.336 299.431Z" fill="url(#paint20_linear_22_8389)"/>
<path opacity="0.7" d="M320.332 299.428L287.945 236V319.035L320.332 299.428Z" fill="url(#paint21_linear_22_8389)"/>
<path opacity="0.7" d="M255.562 299.428L287.949 236V319.035L255.562 299.428Z" fill="url(#paint22_linear_22_8389)"/>
<path opacity="0.7" d="M320.332 305.795L287.945 357.361V325.304L320.332 305.795Z" fill="url(#paint23_linear_22_8389)"/>
<path opacity="0.8" d="M255.562 305.795L287.949 357.361V325.304L255.562 305.795Z" fill="url(#paint24_linear_22_8389)"/>
<path d="M217.084 131.529C217.084 131.529 158.123 190.624 157.229 263.228L174.203 252.253C174.203 252.253 185.817 179.65 227.804 147.569L217.084 131.529Z" fill="url(#paint25_linear_22_8389)"/>
<path d="M217.09 131.529C217.09 131.529 159.916 185.559 158.129 252.253L171.529 243.81C171.529 243.81 184.036 180.494 225.13 142.504L217.09 131.529Z" fill="url(#paint26_linear_22_8389)"/>
<path d="M323.06 167.409L330.921 163.103V127.223L327.794 125.535L323.06 128.068V167.409Z" fill="white"/>
<path d="M330.897 163.103L327.771 161.415V125.535L330.897 127.223V163.103Z" fill="#00EEFF"/>
<path d="M323.06 167.41L330.921 163.105L327.794 161.416L323.06 163.949V167.41Z" fill="#00EEFF"/>
<path d="M323.934 240.015L331.795 235.709V199.83L328.668 198.141L323.934 200.674V240.015Z" fill="white"/>
<path d="M331.78 235.709L328.653 234.021V198.141L331.78 199.83V235.709Z" fill="#00EEFF"/>
<path d="M323.934 240.012L331.795 235.707L328.668 234.018L323.934 236.551V240.012Z" fill="#00EEFF"/>
<path d="M117.286 149.011L117.371 148.92C117.879 148.465 118.388 148.101 118.896 147.736C119.15 147.554 119.489 147.372 119.744 147.19C120.083 146.917 120.506 146.735 120.845 146.553C121.099 146.462 121.269 146.28 121.523 146.188C122.032 146.006 122.455 145.824 122.964 145.642C123.048 145.642 123.218 145.551 123.303 145.551C123.896 145.369 124.404 145.278 124.997 145.187C125.167 145.187 125.251 145.187 125.421 145.187C125.845 145.187 126.268 145.187 126.692 145.187C126.861 145.187 126.946 145.187 127.116 145.187C127.624 145.278 128.217 145.369 128.726 145.551L118.727 142.273C118.642 142.273 118.642 142.273 118.557 142.273C118.134 142.182 117.795 142.091 117.371 142C117.286 142 117.202 142 117.117 142C116.947 142 116.863 142 116.693 142C116.524 142 116.269 142 116.1 142C115.846 142 115.676 142 115.422 142.091C115.253 142.091 115.168 142.091 114.998 142.091C114.914 142.091 114.829 142.091 114.744 142.091C114.321 142.182 113.812 142.273 113.388 142.364H113.304C113.219 142.364 113.049 142.455 112.965 142.455C112.626 142.546 112.287 142.637 111.948 142.819C111.863 142.911 111.694 142.911 111.609 143.002C111.355 143.093 111.185 143.184 110.931 143.366C110.762 143.457 110.507 143.548 110.338 143.639C110.168 143.73 109.999 143.912 109.829 144.003C109.575 144.185 109.236 144.367 108.982 144.549C108.813 144.641 108.643 144.732 108.474 144.823C108.135 145.096 107.796 145.369 107.457 145.642L107.372 145.733C106.948 146.097 106.525 146.462 106.101 146.917C105.932 147.099 105.762 147.281 105.593 147.463C105.423 147.645 105.254 147.827 105.084 147.918C104.491 148.556 103.898 149.193 103.22 150.013C102.627 150.832 101.949 151.652 101.356 152.471C101.186 152.744 100.932 153.017 100.763 153.291C100.339 153.928 100 154.474 99.5764 155.112C99.3222 155.476 99.1527 155.84 98.9832 156.204C98.6443 156.842 98.3053 157.388 97.9664 158.025C97.7969 158.39 97.5428 158.754 97.3733 159.209C97.2885 159.482 97.1191 159.664 96.9496 159.938C96.7801 160.211 96.6954 160.484 96.6106 160.757C96.187 161.576 95.848 162.396 95.4243 163.306C95.3396 163.58 95.1701 163.853 95.0854 164.126C95.0007 164.399 94.9159 164.581 94.8312 164.854C94.577 165.401 94.4075 165.947 94.1533 166.493C93.9838 166.858 93.8991 167.222 93.7296 167.586C93.6448 167.859 93.4754 168.223 93.3907 168.497C93.2212 168.952 93.0517 169.316 92.967 169.771C92.8823 170.044 92.7128 170.318 92.628 170.682C92.4586 171.137 92.2891 171.683 92.1196 172.23C92.0349 172.594 91.9501 172.867 91.7807 173.231C91.7807 173.322 91.6959 173.504 91.6112 173.596C91.357 174.506 91.1028 175.417 90.8486 176.327C90.8486 176.418 90.8486 176.418 90.7638 176.509C90.6791 176.691 90.6791 176.873 90.5944 177.056C90.4249 177.693 90.2554 178.33 90.0859 179.059C90.0012 179.332 89.9165 179.696 89.9165 179.969C89.8317 180.242 89.747 180.607 89.747 180.88C89.6623 181.153 89.6623 181.426 89.5775 181.699C89.4081 182.428 89.3233 183.156 89.1539 183.885C89.1539 183.976 89.0691 184.158 89.0691 184.249V184.34C88.8996 185.25 88.7301 186.161 88.6454 187.162C88.6454 187.345 88.6454 187.527 88.5607 187.709C88.476 188.073 88.476 188.346 88.476 188.71C88.3912 189.166 88.3912 189.621 88.3065 190.076C88.3065 190.44 88.2217 190.805 88.2217 191.169C88.2217 191.624 88.137 191.988 88.137 192.444C88.137 192.717 88.0523 192.99 88.0523 193.172C88.0523 193.627 88.0523 194.083 87.9675 194.538C87.9675 195.084 87.8828 195.539 87.8828 196.086C87.8828 196.268 87.8828 196.45 87.8828 196.632C87.8828 196.996 87.8828 197.36 87.8828 197.725C87.8828 198.544 87.8828 199.273 87.8828 200.092C87.8828 200.274 87.8828 200.547 87.8828 200.729C87.8828 201.185 87.9675 201.64 87.9675 202.186C87.9675 202.551 87.9676 202.824 88.0523 203.188C88.137 204.281 88.2217 205.282 88.3912 206.284C89.747 215.025 93.1365 220.306 97.458 221.763L107.457 225.041C103.051 223.584 99.6611 218.303 98.3901 209.562C98.2206 208.56 98.1359 207.467 98.0512 206.466C98.0512 206.102 97.9664 205.828 97.9664 205.464C97.8817 204.827 97.8817 204.098 97.8817 203.37C97.8817 202.642 97.8817 201.822 97.8817 201.003C97.8817 200.456 97.8817 199.91 97.8817 199.364C97.8817 198.817 97.8817 198.362 97.9664 197.816C97.9664 197.087 98.0512 196.359 98.0512 195.721C98.0512 195.266 98.1359 194.902 98.1359 194.447C98.2206 193.627 98.3053 192.808 98.3901 191.988C98.3901 191.624 98.4748 191.351 98.4748 190.987C98.6443 189.894 98.8138 188.71 98.9832 187.618C98.9832 187.527 99.068 187.345 99.068 187.254C99.2375 186.252 99.4917 185.25 99.6611 184.158C99.7459 183.793 99.8306 183.52 99.8306 183.156C100.085 182.155 100.254 181.244 100.508 180.242C100.593 180.06 100.593 179.878 100.678 179.696C101.017 178.603 101.271 177.42 101.61 176.327C101.695 175.963 101.78 175.69 101.949 175.326C102.203 174.506 102.457 173.687 102.712 172.958C102.881 172.503 103.051 172.139 103.135 171.683C103.39 171.046 103.644 170.409 103.898 169.68C104.152 169.134 104.322 168.588 104.576 168.041C104.83 167.495 105 167.04 105.254 166.493C105.593 165.674 106.016 164.763 106.44 163.944C106.694 163.398 106.948 162.942 107.203 162.396C107.372 162.032 107.626 161.668 107.796 161.212C108.135 160.575 108.474 159.938 108.813 159.391C108.982 159.027 109.236 158.663 109.406 158.299C109.829 157.661 110.168 157.115 110.592 156.477C110.762 156.204 111.016 155.931 111.185 155.658C111.778 154.839 112.372 154.019 113.049 153.2C113.643 152.471 114.236 151.743 114.914 151.105C115.083 150.923 115.253 150.741 115.422 150.65C116.1 150.104 116.693 149.557 117.286 149.011Z" fill="url(#paint27_linear_22_8389)"/>
<path d="M113.201 153.294C124.048 140 135.063 143.46 137.69 161.033C140.402 178.698 133.708 203.737 122.861 217.031C112.015 230.325 100.999 226.865 98.3725 209.292C95.7456 191.627 102.355 166.588 113.201 153.294Z" fill="url(#paint28_linear_22_8389)"/>
<path d="M114.196 159.568C122.923 148.915 131.651 151.646 133.854 165.759C135.973 179.873 130.719 199.995 121.991 210.649C113.263 221.302 104.536 218.57 102.332 204.457C100.129 190.344 105.468 170.221 114.196 159.568Z" fill="url(#paint29_linear_22_8389)"/>
<path d="M114.475 161.666C122.525 151.832 130.575 154.381 132.608 167.402C134.557 180.423 129.727 198.906 121.677 208.74C113.627 218.574 105.578 216.025 103.544 203.004C101.595 189.983 106.51 171.499 114.475 161.666Z" fill="url(#paint30_linear_22_8389)"/>
<path d="M122.161 179.151C124.025 177.877 125.381 179.333 125.889 182.338C126.397 185.798 125.465 190.078 123.94 193.082C123.516 193.811 123.177 194.448 122.754 194.995L123.262 198.09L121.567 200.094L121.144 197.089L119.703 198.819L120.127 201.824L118.432 203.827L118.008 200.822L113.772 206.012L113.348 203.098L115.382 200.549L112.246 179.88L110.213 182.429L109.789 179.516L114.026 174.325L113.517 171.23L115.212 169.226L115.721 172.322L117.161 170.592L116.653 167.496L118.347 165.493L118.856 168.771C119.364 168.316 119.873 167.952 120.296 167.679C121.737 167.041 123.008 168.043 123.432 170.865C123.771 173.506 123.262 176.602 122.161 179.151ZM122.584 191.261C123.432 189.44 123.771 187.073 123.516 185.07C123.093 182.338 121.737 181.883 120.042 183.977L116.399 188.439L117.839 197.635L121.313 193.356C121.652 192.9 122.161 192.081 122.584 191.261ZM114.619 177.33L115.805 185.434L119.195 181.246C120.635 179.424 121.313 176.602 120.974 174.234C120.72 172.687 120.212 171.867 119.364 172.049C118.856 172.231 118.263 172.778 117.585 173.597L114.619 177.33Z" fill="url(#paint31_linear_22_8389)"/>
<path d="M121.832 179.325C123.697 178.05 125.052 179.507 125.561 182.512C126.069 185.972 125.137 190.251 123.612 193.256C123.188 193.984 122.849 194.622 122.426 195.168L122.934 198.264L121.239 200.267L120.816 197.262L119.375 198.992L119.799 201.997L118.104 204L117.68 200.995L113.444 206.185L113.02 203.272L115.054 200.722L111.918 180.053L109.885 182.603L109.461 179.689L113.698 174.499L113.189 171.403L114.884 169.4L115.392 172.496L116.833 170.766L116.325 167.67L118.019 165.667L118.528 168.945C119.036 168.489 119.545 168.125 119.968 167.852C121.409 167.215 122.68 168.216 123.103 171.039C123.358 173.679 122.934 176.775 121.832 179.325ZM122.256 191.435C123.103 189.614 123.442 187.246 123.188 185.243C122.765 182.512 121.409 182.056 119.714 184.15L116.07 188.612L117.511 197.808L120.985 193.529C121.239 193.074 121.832 192.254 122.256 191.435ZM114.206 177.504L115.392 185.607L118.782 181.419C120.222 179.598 120.9 176.775 120.561 174.408C120.307 172.86 119.799 172.04 118.951 172.222C118.443 172.405 117.85 172.951 117.172 173.77L114.206 177.504Z" fill="white"/>
<path opacity="0.6" d="M43.9527 73.0195L115.242 92.6899L184.029 126.459C184.029 126.459 134.002 151.785 128.642 268.288C67.001 240.429 0.0894702 209.699 0.000135721 210.037C-0.0891988 210.375 43.9527 73.0195 43.9527 73.0195Z" fill="url(#paint32_linear_22_8389)"/>
<path opacity="0.9" d="M101.566 87.8785L130.242 99.6977L184.022 126.46C184.022 126.46 127.741 173.736 128.634 268.289C128.634 268.289 63.5094 237.559 63.4201 237.897C63.3307 238.235 101.566 87.8785 101.566 87.8785Z" fill="url(#paint33_linear_22_8389)"/>
<path d="M109.692 134.562C110.432 134.562 111.032 133.995 111.032 133.296C111.032 132.596 110.432 132.029 109.692 132.029C108.952 132.029 108.352 132.596 108.352 133.296C108.352 133.995 108.952 134.562 109.692 134.562Z" fill="#00FFFF"/>
<path d="M115.062 153.134C115.802 153.134 116.402 152.567 116.402 151.868C116.402 151.168 115.802 150.601 115.062 150.601C114.322 150.601 113.722 151.168 113.722 151.868C113.722 152.567 114.322 153.134 115.062 153.134Z" fill="#00FFFF"/>
<path d="M86.1955 128.061C86.9356 128.061 87.5355 127.494 87.5355 126.794C87.5355 126.095 86.9356 125.528 86.1955 125.528C85.4554 125.528 84.8555 126.095 84.8555 126.794C84.8555 127.494 85.4554 128.061 86.1955 128.061Z" fill="#00FFFF"/>
<path d="M100.209 127.641C100.949 127.641 101.549 127.074 101.549 126.374C101.549 125.675 100.949 125.108 100.209 125.108C99.4691 125.108 98.8691 125.675 98.8691 126.374C98.8691 127.074 99.4691 127.641 100.209 127.641Z" fill="#00FFFF"/>
<path d="M134.095 132.2C134.835 132.2 135.435 131.633 135.435 130.934C135.435 130.234 134.835 129.667 134.095 129.667C133.355 129.667 132.755 130.234 132.755 130.934C132.755 131.633 133.355 132.2 134.095 132.2Z" fill="#00FFFF"/>
<path d="M80.131 160.817C80.8711 160.817 81.471 160.251 81.471 159.551C81.471 158.852 80.8711 158.285 80.131 158.285C79.391 158.285 78.791 158.852 78.791 159.551C78.791 160.251 79.391 160.817 80.131 160.817Z" fill="#00FFFF"/>
<path opacity="0.3" d="M105.398 111.175C105.892 111.175 106.292 110.797 106.292 110.331C106.292 109.865 105.892 109.487 105.398 109.487C104.905 109.487 104.505 109.865 104.505 110.331C104.505 110.797 104.905 111.175 105.398 111.175Z" fill="#00FFFF"/>
<path opacity="0.3" d="M94.9568 116.582C95.4502 116.582 95.8502 116.204 95.8502 115.738C95.8502 115.272 95.4502 114.894 94.9568 114.894C94.4634 114.894 94.0635 115.272 94.0635 115.738C94.0635 116.204 94.4634 116.582 94.9568 116.582Z" fill="#00FFFF"/>
<path opacity="0.3" d="M117.365 117.76C117.858 117.76 118.258 117.382 118.258 116.916C118.258 116.45 117.858 116.072 117.365 116.072C116.872 116.072 116.472 116.45 116.472 116.916C116.472 117.382 116.872 117.76 117.365 117.76Z" fill="#00FFFF"/>
<path opacity="0.3" d="M128.372 123.25C128.865 123.25 129.265 122.872 129.265 122.406C129.265 121.94 128.865 121.562 128.372 121.562C127.878 121.562 127.479 121.94 127.479 122.406C127.479 122.872 127.878 123.25 128.372 123.25Z" fill="#00FFFF"/>
<path opacity="0.3" d="M130.076 130.593C130.569 130.593 130.969 130.215 130.969 129.749C130.969 129.283 130.569 128.905 130.076 128.905C129.583 128.905 129.183 129.283 129.183 129.749C129.183 130.215 129.583 130.593 130.076 130.593Z" fill="#00FFFF"/>
<path opacity="0.3" d="M121.322 124.006C121.815 124.006 122.215 123.628 122.215 123.162C122.215 122.696 121.815 122.318 121.322 122.318C120.829 122.318 120.429 122.696 120.429 123.162C120.429 123.628 120.829 124.006 121.322 124.006Z" fill="#00FFFF"/>
<path opacity="0.3" d="M84.6697 104.423C85.1631 104.423 85.5631 104.045 85.5631 103.579C85.5631 103.113 85.1631 102.735 84.6697 102.735C84.1763 102.735 83.7764 103.113 83.7764 103.579C83.7764 104.045 84.1763 104.423 84.6697 104.423Z" fill="#00FFFF"/>
<path opacity="0.3" d="M96.5672 139.962C97.0606 139.962 97.4605 139.584 97.4605 139.118C97.4605 138.651 97.0606 138.273 96.5672 138.273C96.0738 138.273 95.6738 138.651 95.6738 139.118C95.6738 139.584 96.0738 139.962 96.5672 139.962Z" fill="#00FFFF"/>
<path opacity="0.3" d="M95.4109 148.658C95.9043 148.658 96.3043 148.28 96.3043 147.814C96.3043 147.348 95.9043 146.97 95.4109 146.97C94.9175 146.97 94.5176 147.348 94.5176 147.814C94.5176 148.28 94.9175 148.658 95.4109 148.658Z" fill="#00FFFF"/>
<path opacity="0.3" d="M82.6228 149.932C83.1162 149.932 83.5162 149.554 83.5162 149.088C83.5162 148.622 83.1162 148.244 82.6228 148.244C82.1295 148.244 81.7295 148.622 81.7295 149.088C81.7295 149.554 82.1295 149.932 82.6228 149.932Z" fill="#00FFFF"/>
<path opacity="0.3" d="M109.245 145.789C109.738 145.789 110.138 145.411 110.138 144.944C110.138 144.478 109.738 144.1 109.245 144.1C108.752 144.1 108.352 144.478 108.352 144.944C108.352 145.411 108.752 145.789 109.245 145.789Z" fill="#00FFFF"/>
<path opacity="0.3" d="M100.319 154.571C100.813 154.571 101.212 154.193 101.212 153.726C101.212 153.26 100.813 152.882 100.319 152.882C99.8257 152.882 99.4258 153.26 99.4258 153.726C99.4258 154.193 99.8257 154.571 100.319 154.571Z" fill="#00FFFF"/>
<path opacity="0.3" d="M75.0252 142.078C75.5186 142.078 75.9185 141.7 75.9185 141.233C75.9185 140.767 75.5186 140.389 75.0252 140.389C74.5318 140.389 74.1318 140.767 74.1318 141.233C74.1318 141.7 74.5318 142.078 75.0252 142.078Z" fill="#00FFFF"/>
<path opacity="0.3" d="M90.657 157.442C91.1504 157.442 91.5504 157.064 91.5504 156.598C91.5504 156.132 91.1504 155.754 90.657 155.754C90.1636 155.754 89.7637 156.132 89.7637 156.598C89.7637 157.064 90.1636 157.442 90.657 157.442Z" fill="#00FFFF"/>
<path opacity="0.3" d="M107.814 158.031C108.308 158.031 108.708 157.653 108.708 157.187C108.708 156.721 108.308 156.343 107.814 156.343C107.321 156.343 106.921 156.721 106.921 157.187C106.921 157.653 107.321 158.031 107.814 158.031Z" fill="#00FFFF"/>
<path opacity="0.3" d="M118.256 158.449C118.749 158.449 119.149 158.071 119.149 157.604C119.149 157.138 118.749 156.76 118.256 156.76C117.762 156.76 117.362 157.138 117.362 157.604C117.362 158.071 117.762 158.449 118.256 158.449Z" fill="#00FFFF"/>
<path opacity="0.3" d="M61.8084 146.889C62.3018 146.889 62.7017 146.511 62.7017 146.045C62.7017 145.579 62.3018 145.201 61.8084 145.201C61.315 145.201 60.915 145.579 60.915 146.045C60.915 146.511 61.315 146.889 61.8084 146.889Z" fill="#00FFFF"/>
<path d="M115.156 143.849C115.896 143.849 116.496 143.282 116.496 142.583C116.496 141.883 115.896 141.316 115.156 141.316C114.416 141.316 113.816 141.883 113.816 142.583C113.816 143.282 114.416 143.849 115.156 143.849Z" fill="#00FFFF"/>
<path d="M126.488 138.194C127.229 138.194 127.828 137.627 127.828 136.927C127.828 136.228 127.229 135.661 126.488 135.661C125.748 135.661 125.148 136.228 125.148 136.927C125.148 137.627 125.748 138.194 126.488 138.194Z" fill="#00FFFF"/>
<path d="M119.429 136.418C119.923 136.418 120.323 136.04 120.323 135.574C120.323 135.107 119.923 134.729 119.429 134.729C118.936 134.729 118.536 135.107 118.536 135.574C118.536 136.04 118.936 136.418 119.429 136.418Z" fill="#00FFFF"/>
<path d="M93.158 134.987C93.6514 134.987 94.0513 134.609 94.0513 134.143C94.0513 133.677 93.6514 133.299 93.158 133.299C92.6646 133.299 92.2646 133.677 92.2646 134.143C92.2646 134.609 92.6646 134.987 93.158 134.987Z" fill="#00FFFF"/>
<path d="M136.758 136.418C137.251 136.418 137.651 136.04 137.651 135.574C137.651 135.107 137.251 134.729 136.758 134.729C136.264 134.729 135.864 135.107 135.864 135.574C135.864 136.04 136.264 136.418 136.758 136.418Z" fill="#00FFFF"/>
<path d="M102.093 134.304C102.586 134.304 102.986 133.926 102.986 133.46C102.986 132.994 102.586 132.616 102.093 132.616C101.599 132.616 101.199 132.994 101.199 133.46C101.199 133.926 101.599 134.304 102.093 134.304Z" fill="#00FFFF"/>
<path d="M75.9158 132.368C76.4092 132.368 76.8092 131.991 76.8092 131.524C76.8092 131.058 76.4092 130.68 75.9158 130.68C75.4224 130.68 75.0225 131.058 75.0225 131.524C75.0225 131.991 75.4224 132.368 75.9158 132.368Z" fill="#00FFFF"/>
<path d="M75.7361 106.871C76.2295 106.871 76.6295 106.493 76.6295 106.027C76.6295 105.56 76.2295 105.182 75.7361 105.182C75.2427 105.182 74.8428 105.56 74.8428 106.027C74.8428 106.493 75.2427 106.871 75.7361 106.871Z" fill="#00FFFF"/>
<path d="M122.386 146.38C123.126 146.38 123.726 145.813 123.726 145.114C123.726 144.414 123.126 143.848 122.386 143.848C121.646 143.848 121.046 144.414 121.046 145.114C121.046 145.813 121.646 146.38 122.386 146.38Z" fill="#00FFFF"/>
<path d="M132.03 149.843C132.771 149.843 133.37 149.276 133.37 148.577C133.37 147.877 132.771 147.31 132.03 147.31C131.29 147.31 130.69 147.877 130.69 148.577C130.69 149.276 131.29 149.843 132.03 149.843Z" fill="#00FFFF"/>
<path opacity="0.1" d="M144.366 408.589C130.927 416.454 108.64 417.789 94.469 411.469C80.2983 405.149 79.6996 393.702 93.1384 385.837C106.577 377.972 128.864 376.638 143.035 382.958C157.206 389.278 157.804 400.725 144.366 408.589Z" fill="url(#paint34_radial_22_8389)"/>
<path opacity="0.1" d="M141.021 405.639C129.711 412.24 110.95 413.364 99.0414 408.097C87.1328 402.83 86.6005 393.14 97.9104 386.469C109.22 379.868 127.981 378.744 139.89 384.011C151.799 389.348 152.331 398.968 141.021 405.639Z" fill="url(#paint35_radial_22_8389)"/>
<path d="M93.3438 385.406L145.17 382.878L145.569 390.462C145.768 394.464 143.44 398.678 138.583 402.049C128.804 408.79 112.438 409.773 101.993 404.155C96.8032 401.346 94.009 397.484 93.8095 393.411L93.3438 385.406Z" fill="url(#paint36_linear_22_8389)"/>
<mask id="mask0_22_8389" style="mask-type:luminance" maskUnits="userSpaceOnUse" x="93" y="379" width="53" height="29">
<path d="M93.3438 385.409L144.97 379.932L145.502 390.395C145.702 394.398 143.373 398.611 138.517 401.982C128.737 408.723 112.371 409.706 101.926 404.088C96.7367 401.279 93.9425 397.417 93.7429 393.344L93.3438 385.409Z" fill="white"/>
</mask>
<g mask="url(#mask0_22_8389)">
<path d="M95.8089 384.347L94.9453 384.397L96.2733 410.06L97.1369 410.01L95.8089 384.347Z" fill="#23E4A1"/>
<path d="M98.8089 384.14L97.9453 384.19L99.2733 409.853L100.137 409.803L98.8089 384.14Z" fill="#23E4A1"/>
<path d="M101.793 383.992L100.93 384.042L102.258 409.706L103.121 409.655L101.793 383.992Z" fill="#23E4A1"/>
<path d="M104.793 383.782L103.93 383.833L105.258 409.496L106.121 409.446L104.793 383.782Z" fill="#23E4A1"/>
<path d="M107.723 383.655L106.859 383.706L108.187 409.369L109.051 409.319L107.723 383.655Z" fill="#23E4A1"/>
<path d="M110.715 383.433L109.852 383.484L111.18 409.147L112.043 409.097L110.715 383.433Z" fill="#23E4A1"/>
<path d="M113.707 383.295L112.844 383.345L114.172 409.009L115.035 408.958L113.707 383.295Z" fill="#23E4A1"/>
<path d="M116.637 383.088L115.773 383.139L117.101 408.802L117.965 408.752L116.637 383.088Z" fill="#23E4A1"/>
<path d="M119.614 382.942L118.75 382.992L120.078 408.655L120.942 408.605L119.614 382.942Z" fill="#23E4A1"/>
<path d="M122.59 382.729L121.727 382.78L123.055 408.443L123.918 408.393L122.59 382.729Z" fill="#23E4A1"/>
<path d="M125.637 382.587L124.773 382.638L126.101 408.301L126.965 408.251L125.637 382.587Z" fill="#23E4A1"/>
<path d="M128.528 382.455L127.664 382.505L128.992 408.168L129.856 408.118L128.528 382.455Z" fill="#23E4A1"/>
<path d="M131.535 382.245L130.672 382.295L132 407.958L132.863 407.908L131.535 382.245Z" fill="#23E4A1"/>
<path d="M134.52 382.1L133.656 382.15L134.984 407.814L135.848 407.763L134.52 382.1Z" fill="#23E4A1"/>
<path d="M137.489 381.89L136.625 381.94L137.953 407.604L138.817 407.553L137.489 381.89Z" fill="#23E4A1"/>
<path d="M140.465 381.747L139.602 381.797L140.932 407.46L141.796 407.41L140.465 381.747Z" fill="#23E4A1"/>
<path d="M143.45 381.537L142.586 381.587L143.914 407.25L144.778 407.2L143.45 381.537Z" fill="#23E4A1"/>
</g>
<path d="M138.192 394.744C128.413 401.485 112.047 402.468 101.602 396.851C91.1565 391.303 90.6243 381.261 100.471 374.52C110.25 367.778 126.616 366.795 137.061 372.413C147.44 378.031 147.972 388.003 138.192 394.744Z" fill="url(#paint37_linear_22_8389)"/>
<path d="M119.967 397.672C132.441 396.95 142.234 390.212 141.839 382.622C141.445 375.032 131.013 369.464 118.539 370.186C106.065 370.908 96.2729 377.647 96.6673 385.237C97.0617 392.827 107.494 398.395 119.967 397.672Z" stroke="#23E4A1" stroke-width="0.841407" stroke-miterlimit="10"/>
<path d="M116.089 375.503L112.696 373.677L109.769 375.644L112.829 377.329L109.902 379.295L106.841 377.61L103.914 379.576L106.974 381.262L104.047 383.228L119.482 391.514L122.409 389.548L125.469 391.233L128.397 389.267L125.336 387.582L128.264 385.615L131.324 387.301L134.251 385.335L130.858 383.509C131.723 382.315 131.59 380.91 130.393 379.857C129.262 378.804 127.266 378.242 125.137 378.312C125.004 377.048 123.74 375.925 121.877 375.363C120.214 374.801 117.952 374.871 116.089 375.503ZM110.168 383.017L117.419 378.031C118.218 377.47 119.548 377.399 120.413 377.891C121.278 378.382 121.278 379.155 120.48 379.717L113.228 384.702L110.168 383.017ZM126.733 382.947L119.482 387.933L116.421 386.247L123.673 381.262C124.471 380.7 125.802 380.63 126.667 381.121C127.465 381.613 127.532 382.455 126.733 382.947Z" fill="white"/>
<path d="M92.9062 376.494L144.732 373.966L145.131 381.55C145.331 385.553 143.002 389.766 138.146 393.137C128.366 399.878 112 400.861 101.555 395.243C96.3657 392.434 93.5715 388.572 93.3719 384.499L92.9062 376.494Z" fill="url(#paint38_linear_22_8389)"/>
<mask id="mask1_22_8389" style="mask-type:luminance" maskUnits="userSpaceOnUse" x="92" y="371" width="54" height="28">
<path d="M92.9375 376.496L144.564 371.018L145.096 381.481C145.296 385.484 142.967 389.697 138.111 393.068C128.331 399.81 111.965 400.793 101.52 395.175C96.3304 392.366 93.5362 388.504 93.3367 384.431L92.9375 376.496Z" fill="white"/>
</mask>
<g mask="url(#mask1_22_8389)">
<path d="M95.3714 375.378L94.5078 375.428L95.8358 401.092L96.6994 401.041L95.3714 375.378Z" fill="#23E4A1"/>
<path d="M98.387 375.16L97.5234 375.21L98.8515 400.873L99.715 400.823L98.387 375.16Z" fill="#23E4A1"/>
<path d="M101.364 375.018L100.5 375.068L101.828 400.731L102.692 400.681L101.364 375.018Z" fill="#23E4A1"/>
<path d="M104.364 374.877L103.5 374.927L104.828 400.591L105.692 400.54L104.364 374.877Z" fill="#23E4A1"/>
<path d="M107.27 374.674L106.406 374.724L107.734 400.388L108.598 400.337L107.27 374.674Z" fill="#23E4A1"/>
<path d="M110.293 374.526L109.43 374.576L110.758 400.24L111.621 400.189L110.293 374.526Z" fill="#23E4A1"/>
<path d="M113.27 374.316L112.406 374.367L113.734 400.03L114.598 399.98L113.27 374.316Z" fill="#23E4A1"/>
<path d="M116.2 374.181L115.336 374.232L116.664 399.895L117.528 399.845L116.2 374.181Z" fill="#23E4A1"/>
<path d="M119.184 373.969L118.32 374.019L119.648 399.682L120.512 399.632L119.184 373.969Z" fill="#23E4A1"/>
<path d="M122.16 373.829L121.297 373.879L122.625 399.543L123.488 399.492L122.16 373.829Z" fill="#23E4A1"/>
<path d="M125.176 373.617L124.312 373.667L125.641 399.33L126.504 399.28L125.176 373.617Z" fill="#23E4A1"/>
<path d="M128.09 373.478L127.227 373.529L128.555 399.192L129.418 399.142L128.09 373.478Z" fill="#23E4A1"/>
<path d="M131.098 373.338L130.234 373.388L131.562 399.051L132.426 399.001L131.098 373.338Z" fill="#23E4A1"/>
<path d="M134.082 373.13L133.219 373.18L134.547 398.843L135.41 398.793L134.082 373.13Z" fill="#23E4A1"/>
<path d="M137.059 372.981L136.195 373.031L137.523 398.694L138.387 398.644L137.059 372.981Z" fill="#23E4A1"/>
<path d="M140.012 372.773L139.148 372.823L140.478 398.486L141.342 398.436L140.012 372.773Z" fill="#23E4A1"/>
<path d="M143.02 372.638L142.156 372.688L143.484 398.351L144.348 398.301L143.02 372.638Z" fill="#23E4A1"/>
</g>
<path d="M137.755 385.76C127.975 392.501 111.609 393.485 101.164 387.867C90.719 382.319 90.1868 372.277 100.033 365.536C109.813 358.795 126.179 357.811 136.624 363.429C147.002 369.047 147.535 379.019 137.755 385.76Z" fill="url(#paint39_linear_22_8389)"/>
<path d="M119.506 388.688C131.98 387.966 141.773 381.228 141.378 373.638C140.984 366.048 130.552 360.48 118.078 361.202C105.604 361.925 95.8119 368.663 96.2064 376.253C96.6008 383.843 107.033 389.411 119.506 388.688Z" stroke="#23E4A1" stroke-width="0.841407" stroke-miterlimit="10"/>
<path d="M115.667 366.588L112.274 364.762L109.347 366.729L112.407 368.414L109.48 370.38L106.419 368.695L103.492 370.661L106.553 372.347L103.625 374.313L119.06 382.599L121.987 380.633L125.048 382.318L127.975 380.352L124.914 378.667L127.842 376.7L130.902 378.386L133.829 376.419L130.436 374.594C131.301 373.4 131.168 371.995 129.971 370.942C128.84 369.889 126.844 369.327 124.715 369.397C124.582 368.133 123.318 367.01 121.455 366.448C119.792 365.816 117.53 365.886 115.667 366.588ZM109.746 374.032L116.998 369.046C117.796 368.484 119.126 368.414 119.991 368.906C120.856 369.327 120.856 370.17 120.058 370.731L112.806 375.717L109.746 374.032ZM126.312 374.032L119.06 379.018L116 377.332L123.251 372.347C124.05 371.785 125.38 371.715 126.245 372.206C127.043 372.627 127.11 373.47 126.312 374.032Z" fill="white"/>
<path d="M92.4453 367.514L144.271 364.986L144.67 372.57C144.87 376.572 142.542 380.786 137.685 384.157C127.905 390.898 111.539 391.881 101.094 386.263C95.9048 383.454 93.1106 379.592 92.911 375.519L92.4453 367.514Z" fill="url(#paint40_linear_22_8389)"/>
<mask id="mask2_22_8389" style="mask-type:luminance" maskUnits="userSpaceOnUse" x="92" y="362" width="53" height="28">
<path d="M92.4609 367.521L144.087 362.043L144.62 372.506C144.819 376.509 142.491 380.722 137.634 384.093C127.854 390.835 111.488 391.818 101.043 386.2C95.8539 383.391 93.0597 379.529 92.8601 375.456L92.4609 367.521Z" fill="white"/>
</mask>
<g mask="url(#mask2_22_8389)">
<path d="M94.9261 366.394L94.0625 366.444L95.3905 392.107L96.2541 392.057L94.9261 366.394Z" fill="#23E4A1"/>
<path d="M97.9261 366.252L97.0625 366.302L98.3905 391.965L99.2541 391.915L97.9261 366.252Z" fill="#23E4A1"/>
<path d="M100.887 366.042L100.023 366.092L101.351 391.755L102.215 391.705L100.887 366.042Z" fill="#23E4A1"/>
<path d="M103.903 365.899L103.039 365.949L104.367 391.612L105.231 391.562L103.903 365.899Z" fill="#23E4A1"/>
<path d="M106.848 365.692L105.984 365.743L107.312 391.406L108.176 391.356L106.848 365.692Z" fill="#23E4A1"/>
<path d="M109.848 365.549L108.984 365.599L110.312 391.262L111.176 391.212L109.848 365.549Z" fill="#23E4A1"/>
<path d="M112.824 365.408L111.961 365.458L113.289 391.122L114.153 391.071L112.824 365.408Z" fill="#23E4A1"/>
<path d="M115.739 365.205L114.875 365.255L116.203 390.919L117.067 390.868L115.739 365.205Z" fill="#23E4A1"/>
<path d="M118.739 365.066L117.875 365.116L119.203 390.779L120.067 390.729L118.739 365.066Z" fill="#23E4A1"/>
<path d="M121.739 364.842L120.875 364.893L122.203 390.556L123.067 390.506L121.739 364.842Z" fill="#23E4A1"/>
<path d="M124.754 364.704L123.891 364.754L125.219 390.418L126.082 390.367L124.754 364.704Z" fill="#23E4A1"/>
<path d="M127.66 364.5L126.797 364.55L128.125 390.213L128.988 390.163L127.66 364.5Z" fill="#23E4A1"/>
<path d="M130.653 364.36L129.789 364.411L131.117 390.074L131.981 390.024L130.653 364.36Z" fill="#23E4A1"/>
<path d="M133.637 364.148L132.773 364.198L134.101 389.861L134.965 389.811L133.637 364.148Z" fill="#23E4A1"/>
<path d="M136.653 364.004L135.789 364.055L137.117 389.718L137.981 389.668L136.653 364.004Z" fill="#23E4A1"/>
<path d="M139.582 363.866L138.719 363.917L140.049 389.58L140.913 389.53L139.582 363.866Z" fill="#23E4A1"/>
<path d="M142.567 363.658L141.703 363.708L143.031 389.372L143.895 389.321L142.567 363.658Z" fill="#23E4A1"/>
</g>
<path d="M137.286 376.852C127.506 383.593 111.14 384.576 100.695 378.959C90.2503 373.411 89.7181 363.369 99.5643 356.628C109.344 349.886 125.71 348.903 136.155 354.521C146.534 360.139 147.066 370.11 137.286 376.852Z" fill="url(#paint41_linear_22_8389)"/>
<path d="M134.827 374.814C126.244 380.713 111.941 381.555 102.826 376.64C93.7118 371.794 93.2461 363.016 101.828 357.188C110.411 351.289 124.714 350.447 133.829 355.362C142.943 360.208 143.409 368.915 134.827 374.814Z" stroke="#23E4A1" stroke-width="0.841407" stroke-miterlimit="10"/>
<path d="M115.198 357.61L111.805 355.785L108.878 357.751L111.938 359.436L109.011 361.402L105.951 359.717L103.023 361.683L106.084 363.369L103.157 365.335L118.591 373.621L121.518 371.655L124.579 373.34L127.506 371.374L124.446 369.689L127.373 367.723L130.433 369.408L133.361 367.442L129.968 365.616C130.833 364.422 130.699 363.018 129.502 361.964C128.371 360.911 126.375 360.349 124.246 360.419C124.113 359.155 122.849 358.032 120.986 357.47C119.323 356.838 117.061 356.908 115.198 357.61ZM109.277 365.124L116.529 360.138C117.327 359.577 118.658 359.506 119.523 359.998C120.388 360.419 120.387 361.262 119.589 361.824L112.337 366.81L109.277 365.124ZM125.843 365.054L118.591 370.04L115.531 368.355L122.783 363.369C123.581 362.807 124.911 362.737 125.776 363.228C126.575 363.72 126.641 364.492 125.843 365.054Z" fill="white"/>
<path d="M91.9141 358.525L143.74 355.997L144.139 363.581C144.339 367.584 142.01 371.798 137.154 375.168C127.374 381.91 111.008 382.893 100.563 377.275C95.3736 374.466 92.5794 370.604 92.3798 366.531L91.9141 358.525Z" fill="url(#paint42_linear_22_8389)"/>
<mask id="mask3_22_8389" style="mask-type:luminance" maskUnits="userSpaceOnUse" x="91" y="353" width="54" height="28">
<path d="M91.9062 358.524L143.533 353.047L144.065 363.51C144.264 367.513 141.936 371.726 137.079 375.097C127.3 381.838 110.934 382.821 100.488 377.204C95.2992 374.395 92.505 370.532 92.3054 366.46L91.9062 358.524Z" fill="white"/>
</mask>
<g mask="url(#mask3_22_8389)">
<path d="M94.3401 357.468L93.4766 357.518L94.8046 383.181L95.6681 383.131L94.3401 357.468Z" fill="#23E4A1"/>
<path d="M97.3557 357.264L96.4922 357.314L97.8202 382.977L98.6838 382.927L97.3557 357.264Z" fill="#23E4A1"/>
<path d="M100.324 357.113L99.4609 357.164L100.789 382.827L101.653 382.777L100.324 357.113Z" fill="#23E4A1"/>
<path d="M103.317 356.91L102.453 356.961L103.781 382.624L104.645 382.574L103.317 356.91Z" fill="#23E4A1"/>
<path d="M106.246 356.771L105.383 356.821L106.711 382.484L107.574 382.434L106.246 356.771Z" fill="#23E4A1"/>
<path d="M109.254 356.55L108.391 356.6L109.719 382.264L110.582 382.213L109.254 356.55Z" fill="#23E4A1"/>
<path d="M112.231 356.422L111.367 356.472L112.695 382.135L113.559 382.085L112.231 356.422Z" fill="#23E4A1"/>
<path d="M115.176 356.275L114.312 356.326L115.641 381.989L116.504 381.939L115.176 356.275Z" fill="#23E4A1"/>
<path d="M118.153 356.063L117.289 356.113L118.617 381.776L119.481 381.726L118.153 356.063Z" fill="#23E4A1"/>
<path d="M121.145 355.921L120.281 355.971L121.609 381.634L122.473 381.584L121.145 355.921Z" fill="#23E4A1"/>
<path d="M124.153 355.717L123.289 355.767L124.617 381.43L125.481 381.38L124.153 355.717Z" fill="#23E4A1"/>
<path d="M127.075 355.576L126.211 355.626L127.539 381.289L128.403 381.239L127.075 355.576Z" fill="#23E4A1"/>
<path d="M130.067 355.359L129.203 355.409L130.531 381.072L131.395 381.022L130.067 355.359Z" fill="#23E4A1"/>
<path d="M133.067 355.217L132.203 355.267L133.531 380.93L134.395 380.88L133.067 355.217Z" fill="#23E4A1"/>
<path d="M136.051 355.004L135.188 355.055L136.516 380.718L137.379 380.668L136.051 355.004Z" fill="#23E4A1"/>
<path d="M138.981 354.871L138.117 354.921L139.448 380.584L140.311 380.534L138.981 354.871Z" fill="#23E4A1"/>
<path d="M141.989 354.662L141.125 354.712L142.453 380.375L143.317 380.325L141.989 354.662Z" fill="#23E4A1"/>
</g>
<path d="M136.755 367.863C126.975 374.605 110.609 375.588 100.164 369.97C89.719 364.423 89.1868 354.381 99.0331 347.639C108.813 340.898 125.179 339.915 135.624 345.533C146.002 351.15 146.535 361.122 136.755 367.863Z" fill="url(#paint43_linear_22_8389)"/>
<path d="M118.506 370.792C130.98 370.07 140.773 363.331 140.378 355.741C139.984 348.151 129.552 342.584 117.078 343.306C104.604 344.028 94.8119 350.766 95.2064 358.357C95.6008 365.947 106.033 371.514 118.506 370.792Z" stroke="#23E4A1" stroke-width="0.841407" stroke-miterlimit="10"/>
<path d="M114.69 348.619L111.297 346.793L108.37 348.759L111.43 350.445L108.503 352.411L105.443 350.725L102.516 352.692L105.576 354.377L102.649 356.343L118.083 364.63L121.011 362.663L124.071 364.349L126.998 362.382L123.938 360.697L126.865 358.731L129.925 360.416L132.853 358.45L129.46 356.624C130.325 355.43 130.192 354.026 128.994 352.973C127.863 351.919 125.867 351.357 123.738 351.428C123.605 350.164 122.341 349.04 120.478 348.478C118.815 347.917 116.553 347.987 114.69 348.619ZM108.769 356.133L116.021 351.147C116.819 350.585 118.15 350.515 119.015 351.006C119.88 351.428 119.88 352.27 119.081 352.832L111.83 357.818L108.769 356.133ZM125.335 356.133L118.083 361.118L115.023 359.433L122.275 354.447C123.073 353.885 124.404 353.815 125.268 354.307C126.067 354.728 126.133 355.571 125.335 356.133Z" fill="white"/>
<path d="M91.4844 349.598L143.31 347.07L143.71 354.654C143.909 358.656 141.581 362.87 136.724 366.241C126.944 372.982 110.578 373.965 100.133 368.347C94.9439 365.538 92.1497 361.676 91.9501 357.603L91.4844 349.598Z" fill="url(#paint44_linear_22_8389)"/>
<mask id="mask4_22_8389" style="mask-type:luminance" maskUnits="userSpaceOnUse" x="91" y="344" width="53" height="28">
<path d="M91.4766 349.597L143.103 344.119L143.635 354.582C143.835 358.585 141.506 362.798 136.65 366.169C126.87 372.91 110.504 373.894 100.059 368.276C94.8696 365.467 92.0753 361.605 91.8758 357.532L91.4766 349.597Z" fill="white"/>
</mask>
<g mask="url(#mask4_22_8389)">
<path d="M93.9339 348.471L93.0703 348.521L94.3983 374.184L95.2619 374.134L93.9339 348.471Z" fill="#23E4A1"/>
<path d="M96.9417 348.33L96.0781 348.38L97.4061 374.044L98.2697 373.993L96.9417 348.33Z" fill="#23E4A1"/>
<path d="M99.8948 348.116L99.0312 348.167L100.359 373.83L101.223 373.78L99.8948 348.116Z" fill="#23E4A1"/>
<path d="M102.934 347.986L102.07 348.036L103.398 373.7L104.262 373.649L102.934 347.986Z" fill="#23E4A1"/>
<path d="M105.825 347.771L104.961 347.822L106.289 373.485L107.153 373.435L105.825 347.771Z" fill="#23E4A1"/>
<path d="M108.848 347.63L107.984 347.681L109.312 373.344L110.176 373.294L108.848 347.63Z" fill="#23E4A1"/>
<path d="M111.817 347.417L110.953 347.467L112.281 373.13L113.145 373.08L111.817 347.417Z" fill="#23E4A1"/>
<path d="M114.762 347.28L113.898 347.33L115.226 372.993L116.09 372.943L114.762 347.28Z" fill="#23E4A1"/>
<path d="M117.746 347.067L116.883 347.117L118.211 372.781L119.074 372.73L117.746 347.067Z" fill="#23E4A1"/>
<path d="M120.739 346.925L119.875 346.975L121.203 372.639L122.067 372.588L120.739 346.925Z" fill="#23E4A1"/>
<path d="M123.754 346.787L122.891 346.837L124.219 372.5L125.082 372.45L123.754 346.787Z" fill="#23E4A1"/>
<path d="M126.66 346.579L125.797 346.629L127.125 372.292L127.988 372.242L126.66 346.579Z" fill="#23E4A1"/>
<path d="M129.653 346.435L128.789 346.485L130.117 372.148L130.981 372.098L129.653 346.435Z" fill="#23E4A1"/>
<path d="M132.645 346.226L131.781 346.276L133.109 371.939L133.973 371.889L132.645 346.226Z" fill="#23E4A1"/>
<path d="M135.66 346.086L134.797 346.136L136.125 371.799L136.988 371.749L135.66 346.086Z" fill="#23E4A1"/>
<path d="M138.567 345.875L137.703 345.925L139.033 371.588L139.897 371.538L138.567 345.875Z" fill="#23E4A1"/>
<path d="M141.574 345.733L140.711 345.783L142.039 371.446L142.903 371.396L141.574 345.733Z" fill="#23E4A1"/>
</g>
<path d="M136.325 358.936C126.546 365.677 110.179 366.66 99.7344 361.042C89.2894 355.495 88.7571 345.453 98.6034 338.712C108.383 331.97 124.749 330.987 135.194 336.605C145.573 342.152 146.105 352.194 136.325 358.936Z" fill="url(#paint45_linear_22_8389)"/>
<path d="M118.085 361.795C130.558 361.073 140.351 354.335 139.956 346.745C139.562 339.155 129.13 333.587 116.656 334.309C104.182 335.032 94.3901 341.77 94.7845 349.36C95.1789 356.95 105.611 362.518 118.085 361.795Z" stroke="#23E4A1" stroke-width="0.841407" stroke-miterlimit="10"/>
<path d="M112.602 345.174C111.405 343.559 112.203 342.014 114.199 340.891C116.594 339.627 119.721 339.627 122.049 340.539C122.648 340.75 123.114 341.031 123.58 341.312L125.709 340.188L127.438 341.382L125.376 342.435L126.84 343.489L128.902 342.435L130.632 343.629L128.569 344.683L132.894 347.702L130.898 348.756L128.835 347.281L114.864 354.654L116.927 356.129L114.997 357.182L110.673 354.163L108.611 355.286L106.881 354.092L108.943 352.969L107.48 351.916L105.417 353.039L103.688 351.845L105.883 350.722C105.417 350.3 105.151 349.949 104.885 349.528C104.22 348.264 104.685 346.789 106.615 345.806C108.411 344.823 110.607 344.683 112.602 345.174ZM120.985 342.295C119.588 341.874 117.858 342.014 116.528 342.716C114.665 343.699 114.598 345.104 116.328 346.368L120.054 349.036L126.241 345.736L122.648 343.208C122.249 342.857 121.65 342.506 120.985 342.295ZM112.536 352.969L117.991 350.09L114.465 347.632C112.935 346.579 110.873 346.508 109.276 347.351C108.211 347.913 107.746 348.615 108.012 349.388C108.211 349.879 108.677 350.3 109.409 350.792L112.536 352.969Z" fill="white"/>
<g opacity="0.5">
<path d="M143.161 312.162H143.027C142.961 312.162 142.961 312.162 142.961 312.091V311.95C142.961 311.88 142.961 311.88 143.027 311.88H143.161C143.227 311.88 143.227 311.88 143.227 311.95V312.091C143.227 312.091 143.227 312.162 143.161 312.162Z" fill="white"/>
<path d="M142.793 334.984H142.66C142.594 334.984 142.594 334.984 142.594 334.913V334.772C142.594 334.702 142.594 334.702 142.66 334.702H142.793C142.86 334.702 142.86 334.702 142.86 334.772V334.913C142.926 334.913 142.86 334.984 142.793 334.984Z" fill="white"/>
<path d="M132.668 330.628H132.535C132.469 330.628 132.469 330.628 132.469 330.557V330.416C132.469 330.346 132.469 330.346 132.535 330.346H132.668C132.735 330.346 132.735 330.346 132.735 330.416V330.557C132.735 330.557 132.735 330.628 132.668 330.628Z" fill="white"/>
<path d="M126.153 332.595H126.02C125.953 332.595 125.953 332.595 125.953 332.524V332.383C125.953 332.313 125.953 332.313 126.02 332.313H126.153C126.219 332.313 126.219 332.313 126.219 332.383V332.524C126.219 332.595 126.219 332.595 126.153 332.595Z" fill="white"/>
<path d="M122.364 325.572L122.231 325.502C122.231 325.431 122.231 325.431 122.164 325.361L122.231 325.221C122.297 325.221 122.297 325.221 122.364 325.15L122.497 325.221C122.563 325.221 122.563 325.291 122.563 325.361L122.497 325.502C122.43 325.572 122.364 325.642 122.364 325.572Z" fill="white"/>
<path d="M117.825 339.693L117.692 339.623C117.625 339.623 117.625 339.553 117.625 339.483L117.692 339.342C117.692 339.272 117.758 339.272 117.825 339.272L117.958 339.342C118.024 339.342 118.024 339.412 118.024 339.483L117.958 339.623C117.891 339.693 117.891 339.693 117.825 339.693Z" fill="white"/>
<path d="M108.778 320.305L108.645 320.234C108.578 320.234 108.578 320.164 108.578 320.094L108.645 319.953C108.645 319.883 108.711 319.883 108.778 319.883L108.911 319.953C108.911 320.023 108.911 320.023 108.977 320.094L108.911 320.234C108.844 320.305 108.844 320.305 108.778 320.305Z" fill="white"/>
<path d="M95.723 327.328L95.59 327.257C95.5234 327.257 95.5234 327.187 95.5234 327.117L95.59 326.976C95.59 326.906 95.6565 326.906 95.723 326.906L95.8561 326.976C95.9226 326.976 95.9226 327.047 95.9226 327.117L95.8561 327.257C95.7896 327.328 95.7895 327.328 95.723 327.328Z" fill="white"/>
<path d="M103.387 347.623L103.254 347.553C103.187 347.553 103.188 347.483 103.188 347.412L103.254 347.272C103.254 347.202 103.321 347.202 103.387 347.202L103.52 347.272C103.587 347.272 103.587 347.342 103.587 347.412L103.52 347.553C103.454 347.623 103.454 347.623 103.387 347.623Z" fill="white"/>
<path d="M105.176 333.367L105.043 333.297C104.977 333.297 104.977 333.227 104.977 333.157L105.043 333.016C105.043 332.946 105.11 332.946 105.176 332.946L105.309 333.016C105.376 333.016 105.376 333.086 105.376 333.157L105.309 333.297C105.243 333.367 105.176 333.367 105.176 333.367Z" fill="white"/>
<path d="M95.1918 316.867L95.0587 316.796C95.0587 316.726 95.0587 316.726 94.9922 316.656L95.0587 316.515C95.1253 316.515 95.1253 316.515 95.1918 316.445L95.3248 316.515C95.3914 316.515 95.3914 316.585 95.3914 316.656L95.3248 316.796C95.2583 316.867 95.2583 316.867 95.1918 316.867Z" fill="white"/>
<path d="M85.3011 331.258L85.1681 331.188C85.1015 331.188 85.1016 331.118 85.1016 331.047L85.1681 330.907C85.1681 330.837 85.2346 330.837 85.3011 330.837L85.4342 330.907C85.5007 330.907 85.5007 330.977 85.5007 331.047L85.4342 331.188C85.4342 331.258 85.3677 331.258 85.3011 331.258Z" fill="white"/>
<path d="M84.7621 320.797L84.629 320.727C84.5625 320.727 84.5625 320.657 84.5625 320.586L84.629 320.446C84.629 320.375 84.6955 320.375 84.7621 320.375L84.8951 320.446C84.8951 320.516 84.8951 320.516 84.9617 320.586L84.8951 320.727C84.8286 320.797 84.8286 320.797 84.7621 320.797Z" fill="white"/>
<path d="M150.434 323.957L150.301 323.886C150.234 323.886 150.234 323.816 150.234 323.746L150.301 323.605C150.301 323.535 150.367 323.535 150.434 323.535L150.567 323.605C150.634 323.605 150.634 323.676 150.634 323.746L150.567 323.886C150.5 323.957 150.434 324.027 150.434 323.957Z" fill="white"/>
<path d="M150.887 316.937L150.754 316.866C150.688 316.866 150.688 316.796 150.688 316.726L150.754 316.586C150.754 316.515 150.821 316.515 150.887 316.515L151.02 316.586C151.087 316.586 151.087 316.656 151.087 316.726L151.02 316.866C151.02 316.937 150.954 317.007 150.887 316.937Z" fill="white"/>
<path d="M138.395 327.616L138.262 327.545C138.195 327.545 138.195 327.475 138.195 327.405L138.262 327.264C138.262 327.194 138.328 327.194 138.395 327.194L138.528 327.264C138.594 327.264 138.594 327.335 138.594 327.405L138.528 327.545C138.528 327.616 138.461 327.616 138.395 327.616Z" fill="white"/>
<path d="M132.262 315.744L132.129 315.674C132.063 315.674 132.062 315.603 132.062 315.533L132.129 315.393C132.129 315.322 132.196 315.322 132.262 315.322L132.395 315.393C132.462 315.393 132.462 315.463 132.462 315.533L132.395 315.674C132.395 315.744 132.329 315.744 132.262 315.744Z" fill="white"/>
<path d="M119.692 352.052H119.559C119.492 352.052 119.492 352.052 119.492 351.982V351.841C119.492 351.77 119.492 351.77 119.559 351.77H119.692C119.758 351.77 119.758 351.77 119.758 351.841V351.982C119.758 352.052 119.758 352.052 119.692 352.052Z" fill="white"/>
<path d="M135.668 339.762L135.535 339.692C135.535 339.622 135.535 339.622 135.469 339.551L135.535 339.411C135.602 339.411 135.602 339.411 135.668 339.34L135.801 339.411C135.868 339.411 135.868 339.481 135.868 339.551L135.801 339.692C135.735 339.762 135.668 339.762 135.668 339.762Z" fill="white"/>
<path d="M96.5434 336.386L96.4103 336.316C96.4103 336.246 96.4103 336.246 96.3438 336.176L96.4103 336.035C96.4103 335.965 96.4768 335.965 96.5434 335.965L96.6764 336.035C96.6764 336.105 96.6764 336.105 96.7429 336.176L96.6764 336.316C96.6099 336.386 96.6099 336.456 96.5434 336.386Z" fill="white"/>
<path d="M125.817 347.411L125.684 347.34C125.617 347.34 125.617 347.27 125.617 347.2L125.684 347.059C125.684 346.989 125.75 346.989 125.817 346.989L125.95 347.059C126.016 347.059 126.016 347.129 126.016 347.2L125.95 347.34C125.883 347.41 125.883 347.411 125.817 347.411Z" fill="white"/>
<path d="M127.809 320.797L127.676 320.727C127.609 320.727 127.609 320.657 127.609 320.586L127.676 320.446C127.676 320.375 127.742 320.375 127.809 320.375L127.942 320.446C128.009 320.446 128.009 320.516 128.009 320.586L127.942 320.727C127.942 320.797 127.876 320.797 127.809 320.797Z" fill="white"/>
</g>
<g opacity="0.5">
<path d="M122.231 275.435H122.098C122.031 275.435 122.031 275.435 122.031 275.365V275.224C122.031 275.153 122.031 275.153 122.098 275.153H122.231C122.297 275.153 122.297 275.153 122.297 275.224V275.365C122.364 275.365 122.297 275.435 122.231 275.435Z" fill="white"/>
<path d="M121.887 298.257H121.754C121.687 298.257 121.688 298.257 121.688 298.187V298.046C121.688 297.975 121.687 297.975 121.754 297.975H121.887C121.954 297.975 121.954 297.975 121.954 298.046V298.187L121.887 298.257Z" fill="white"/>
<path d="M112.059 287.377H111.926C111.859 287.377 111.859 287.377 111.859 287.307V287.166C111.859 287.095 111.859 287.095 111.926 287.095H112.059C112.125 287.095 112.125 287.095 112.125 287.166V287.307C112.125 287.307 112.125 287.377 112.059 287.377Z" fill="white"/>
<path d="M105.2 295.868H105.067C105 295.868 105 295.868 105 295.798V295.657C105 295.586 105 295.586 105.067 295.586H105.2C105.266 295.586 105.266 295.586 105.266 295.657V295.798C105.266 295.868 105.266 295.868 105.2 295.868Z" fill="white"/>
<path d="M98.3402 282.04L98.2072 281.97C98.1406 281.97 98.1406 281.899 98.1406 281.829L98.2072 281.689C98.2072 281.618 98.2737 281.618 98.3402 281.618L98.4733 281.689C98.5398 281.689 98.5398 281.759 98.5398 281.829L98.4733 281.97C98.4733 282.04 98.4067 282.04 98.3402 282.04Z" fill="white"/>
<path d="M96.8871 302.967L96.7541 302.897C96.6875 302.897 96.6875 302.826 96.6875 302.756L96.7541 302.616C96.7541 302.545 96.8206 302.545 96.8871 302.545L97.0201 302.616C97.0867 302.616 97.0867 302.686 97.0867 302.756L97.0201 302.897C97.0201 302.967 96.9536 302.967 96.8871 302.967Z" fill="white"/>
<path d="M87.9027 283.578L87.7697 283.508C87.7031 283.508 87.7031 283.438 87.7031 283.367L87.7697 283.227C87.7697 283.156 87.8362 283.156 87.9027 283.156L88.0358 283.227C88.1023 283.227 88.1023 283.297 88.1023 283.367L88.0358 283.508C87.9692 283.578 87.9027 283.578 87.9027 283.578Z" fill="white"/>
<path d="M82.4418 310.897L82.3087 310.826C82.2422 310.826 82.2422 310.756 82.2422 310.686L82.3087 310.545C82.3087 310.475 82.3752 310.475 82.4418 310.475L82.5748 310.545C82.5748 310.616 82.5748 310.616 82.6413 310.686L82.5748 310.826C82.5748 310.897 82.5083 310.897 82.4418 310.897Z" fill="white"/>
<path d="M84.2543 296.641L84.1212 296.571C84.0547 296.571 84.0547 296.5 84.0547 296.43L84.1212 296.29C84.1212 296.219 84.1878 296.219 84.2543 296.219L84.3873 296.29C84.3873 296.36 84.3874 296.36 84.4539 296.43L84.3873 296.571C84.3208 296.641 84.3208 296.641 84.2543 296.641Z" fill="white"/>
<path d="M129.489 287.23L129.356 287.16C129.289 287.16 129.289 287.09 129.289 287.02L129.356 286.879C129.356 286.809 129.422 286.809 129.489 286.809L129.622 286.879C129.622 286.949 129.622 286.949 129.688 287.02L129.622 287.16C129.555 287.23 129.555 287.23 129.489 287.23Z" fill="white"/>
<path d="M136.121 300.992L135.988 300.922C135.922 300.922 135.922 300.851 135.922 300.781L135.988 300.641C135.988 300.57 136.055 300.57 136.121 300.57L136.255 300.641C136.321 300.641 136.321 300.711 136.321 300.781L136.255 300.922C136.188 300.992 136.188 300.992 136.121 300.992Z" fill="white"/>
<path d="M150.043 298.884L149.91 298.814C149.844 298.814 149.844 298.744 149.844 298.674L149.91 298.533C149.91 298.463 149.977 298.463 150.043 298.463L150.176 298.533C150.243 298.533 150.243 298.603 150.243 298.674L150.176 298.814C150.11 298.814 150.043 298.884 150.043 298.884Z" fill="white"/>
<path d="M159.02 293.972L158.887 293.902C158.82 293.902 158.82 293.832 158.82 293.761L158.887 293.621C158.887 293.551 158.953 293.551 159.02 293.551L159.153 293.621C159.219 293.621 159.219 293.691 159.219 293.761L159.153 293.902C159.086 293.972 159.02 293.972 159.02 293.972Z" fill="white"/>
<path d="M98.7543 315.326H98.6212C98.5547 315.326 98.5547 315.326 98.5547 315.255V315.114C98.5547 315.044 98.5547 315.044 98.6212 315.044H98.7543C98.8208 315.044 98.8208 315.044 98.8208 315.114V315.255C98.8208 315.326 98.8208 315.326 98.7543 315.326Z" fill="white"/>
<path d="M114.707 303.035L114.574 302.965C114.508 302.965 114.508 302.895 114.508 302.825L114.574 302.684C114.574 302.614 114.641 302.614 114.707 302.614L114.84 302.684C114.907 302.684 114.907 302.754 114.907 302.825L114.84 302.965C114.774 303.035 114.774 303.106 114.707 303.035Z" fill="white"/>
<path d="M75.6605 299.66L75.5275 299.59C75.4609 299.59 75.4609 299.519 75.4609 299.449L75.5275 299.309C75.5275 299.238 75.594 299.238 75.6605 299.238L75.7936 299.309C75.7936 299.379 75.7936 299.379 75.8601 299.449L75.7936 299.59C75.6605 299.66 75.6605 299.66 75.6605 299.66Z" fill="white"/>
<path d="M104.926 310.684L104.793 310.614C104.727 310.614 104.727 310.544 104.727 310.473L104.793 310.333C104.793 310.262 104.86 310.262 104.926 310.262L105.059 310.333C105.126 310.333 105.126 310.403 105.126 310.473L105.059 310.614C104.993 310.684 104.926 310.684 104.926 310.684Z" fill="white"/>
<path d="M119.973 284.352L119.84 284.282C119.773 284.282 119.773 284.212 119.773 284.141L119.84 284.001C119.84 283.931 119.906 283.931 119.973 283.931L120.106 284.001C120.173 284.001 120.173 284.071 120.173 284.141L120.106 284.282C120.04 284.352 120.04 284.352 119.973 284.352Z" fill="white"/>
</g>
<path opacity="0.8" d="M136.323 359.083C126.544 365.824 110.244 366.737 99.7989 361.19C94.3435 358.311 91.6159 354.167 91.6159 349.954C84.6303 337.595 74.8506 326.219 56.2891 295.18C82.1688 260.139 125.213 250.097 168.922 283.313C173.446 286.753 146.369 338.718 143.242 346.935C143.708 351.148 141.446 355.572 136.323 359.083Z" fill="url(#paint46_linear_22_8389)"/>
<defs>
<linearGradient id="paint0_linear_22_8389" x1="108.024" y1="536.069" x2="72.4699" y2="433.462" gradientUnits="userSpaceOnUse">
<stop stop-color="#4CFFFF"/>
<stop offset="0.4456" stop-color="#2CCFFF"/>
<stop offset="0.9967" stop-color="#008EFF"/>
</linearGradient>
<linearGradient id="paint1_linear_22_8389" x1="39.9007" y1="390.452" x2="315.307" y2="182.36" gradientUnits="userSpaceOnUse">
<stop stop-color="#00EDFF"/>
<stop offset="0.3" stop-color="#00BDFF"/>
<stop offset="0.7378" stop-color="#0070FF"/>
<stop offset="0.9967" stop-color="#0000C2"/>
</linearGradient>
<linearGradient id="paint2_linear_22_8389" x1="94.5396" y1="313.281" x2="272.731" y2="-48.2783" gradientUnits="userSpaceOnUse">
<stop stop-color="#00CCFF"/>
<stop offset="0.6593" stop-color="#00A6FF"/>
<stop offset="0.7038" stop-color="#0285FF"/>
<stop offset="0.7568" stop-color="#0364FF"/>
<stop offset="0.8078" stop-color="#044CFF"/>
<stop offset="0.8551" stop-color="#053EFF"/>
<stop offset="0.8954" stop-color="#0539FF"/>
<stop offset="0.9163" stop-color="#0324FF"/>
<stop offset="0.943" stop-color="#0110FF"/>
<stop offset="0.9697" stop-color="#0004FF"/>
<stop offset="0.9967" stop-color="#0000FF"/>
</linearGradient>
<linearGradient id="paint3_linear_22_8389" x1="139.494" y1="298.643" x2="398.055" y2="298.643" gradientUnits="userSpaceOnUse">
<stop stop-color="#4FEDFF"/>
<stop offset="0.1538" stop-color="#00EDFF"/>
<stop offset="0.5371" stop-color="#00BDFF"/>
<stop offset="0.9967" stop-color="#007EFF"/>
</linearGradient>
<linearGradient id="paint4_linear_22_8389" x1="101.485" y1="420.825" x2="139.909" y2="362.26" gradientUnits="userSpaceOnUse">
<stop stop-color="#00A6FF"/>
<stop offset="0.5547" stop-color="#00D6FF"/>
<stop offset="0.9967" stop-color="#00FFFF"/>
</linearGradient>
<linearGradient id="paint5_linear_22_8389" x1="111.853" y1="473.708" x2="171.916" y2="382.162" gradientUnits="userSpaceOnUse">
<stop stop-color="#00EDFF"/>
<stop offset="0.3" stop-color="#00BDFF"/>
<stop offset="0.7378" stop-color="#0070FF"/>
<stop offset="0.9967" stop-color="#0000C2"/>
</linearGradient>
<linearGradient id="paint6_linear_22_8389" x1="56.2764" y1="436.716" x2="125.064" y2="436.716" gradientUnits="userSpaceOnUse">
<stop stop-color="#4CFFFF"/>
<stop offset="0.4456" stop-color="#2CCFFF"/>
<stop offset="0.9967" stop-color="#008EFF"/>
</linearGradient>
<linearGradient id="paint7_linear_22_8389" x1="146.686" y1="205.743" x2="89.0807" y2="139.459" gradientUnits="userSpaceOnUse">
<stop offset="0.00187577" stop-color="#0000CC"/>
<stop offset="1" stop-color="#006AFF"/>
</linearGradient>
<linearGradient id="paint8_linear_22_8389" x1="132.778" y1="235.206" x2="74.8335" y2="260.6" gradientUnits="userSpaceOnUse">
<stop stop-color="#000085"/>
<stop offset="1" stop-color="#008BFF"/>
</linearGradient>
<linearGradient id="paint9_linear_22_8389" x1="222.466" y1="379.728" x2="291.253" y2="379.728" gradientUnits="userSpaceOnUse">
<stop stop-color="#4CFFFF"/>
<stop offset="0.4456" stop-color="#2CCFFF"/>
<stop offset="0.9967" stop-color="#008EFF"/>
</linearGradient>
<linearGradient id="paint10_linear_22_8389" x1="231.54" y1="338.458" x2="330.963" y2="371.657" gradientUnits="userSpaceOnUse">
<stop stop-color="#00A6FF"/>
<stop offset="0.5547" stop-color="#00D6FF"/>
<stop offset="0.9967" stop-color="#00FFFF"/>
</linearGradient>
<radialGradient id="paint11_radial_22_8389" cx="0" cy="0" r="1" gradientUnits="userSpaceOnUse" gradientTransform="translate(287.288 589.029) rotate(-4.07897) scale(31.5474 34.5283)">
<stop stop-color="#2439A1"/>
<stop offset="0.1389" stop-color="#192B82"/>
<stop offset="0.3124" stop-color="#0E1C62"/>
<stop offset="0.4804" stop-color="#06124B"/>
<stop offset="0.6388" stop-color="#020B3E"/>
<stop offset="0.7778" stop-color="#000939"/>
<stop offset="1" stop-color="#00001B"/>
</radialGradient>
<radialGradient id="paint12_radial_22_8389" cx="0" cy="0" r="1" gradientUnits="userSpaceOnUse" gradientTransform="translate(288.108 587.268) rotate(-4.07799) scale(26.7017 29.2178)">
<stop stop-color="#2439A1"/>
<stop offset="0.1389" stop-color="#192B82"/>
<stop offset="0.3124" stop-color="#0E1C62"/>
<stop offset="0.4804" stop-color="#06124B"/>
<stop offset="0.6388" stop-color="#020B3E"/>
<stop offset="0.7778" stop-color="#000939"/>
<stop offset="1" stop-color="#00001B"/>
</radialGradient>
<linearGradient id="paint13_linear_22_8389" x1="287.949" y1="325.378" x2="287.949" y2="286.243" gradientUnits="userSpaceOnUse">
<stop stop-color="#4FA4FF"/>
<stop offset="1" stop-color="#1339E2"/>
</linearGradient>
<linearGradient id="paint14_linear_22_8389" x1="287.949" y1="319.085" x2="287.949" y2="279.95" gradientUnits="userSpaceOnUse">
<stop stop-color="#4F81FF"/>
<stop offset="1" stop-color="#1339E2"/>
</linearGradient>
<linearGradient id="paint15_linear_22_8389" x1="284.634" y1="275.531" x2="326.319" y2="299.501" gradientUnits="userSpaceOnUse">
<stop stop-color="#4F24FF"/>
<stop offset="1" stop-color="#00FFE2"/>
</linearGradient>
<linearGradient id="paint16_linear_22_8389" x1="251.588" y1="314.326" x2="290.333" y2="277.665" gradientUnits="userSpaceOnUse">
<stop stop-color="#4F24FF"/>
<stop offset="1" stop-color="#00FFE2"/>
</linearGradient>
<linearGradient id="paint17_linear_22_8389" x1="281.5" y1="346.757" x2="318.656" y2="317.674" gradientUnits="userSpaceOnUse">
<stop stop-color="#4F24FF"/>
<stop offset="1" stop-color="#00FFE2"/>
</linearGradient>
<linearGradient id="paint18_linear_22_8389" x1="259.987" y1="342.707" x2="282.201" y2="323.021" gradientUnits="userSpaceOnUse">
<stop stop-color="#4F24FF"/>
<stop offset="1" stop-color="#00FFE2"/>
</linearGradient>
<linearGradient id="paint19_linear_22_8389" x1="287.949" y1="325.331" x2="287.949" y2="286.196" gradientUnits="userSpaceOnUse">
<stop stop-color="#4FA4FF"/>
<stop offset="1" stop-color="#1339E2"/>
</linearGradient>
<linearGradient id="paint20_linear_22_8389" x1="287.949" y1="319.038" x2="287.949" y2="279.903" gradientUnits="userSpaceOnUse">
<stop stop-color="#4F81FF"/>
<stop offset="1" stop-color="#1339E2"/>
</linearGradient>
<linearGradient id="paint21_linear_22_8389" x1="284.634" y1="275.484" x2="326.319" y2="299.453" gradientUnits="userSpaceOnUse">
<stop stop-color="#4F24FF"/>
<stop offset="1" stop-color="#00FFE2"/>
</linearGradient>
<linearGradient id="paint22_linear_22_8389" x1="251.588" y1="314.278" x2="290.333" y2="277.618" gradientUnits="userSpaceOnUse">
<stop stop-color="#4F24FF"/>
<stop offset="1" stop-color="#00FFE2"/>
</linearGradient>
<linearGradient id="paint23_linear_22_8389" x1="281.5" y1="346.709" x2="318.656" y2="317.626" gradientUnits="userSpaceOnUse">
<stop stop-color="#4F24FF"/>
<stop offset="1" stop-color="#00FFE2"/>
</linearGradient>
<linearGradient id="paint24_linear_22_8389" x1="259.987" y1="342.659" x2="282.201" y2="322.974" gradientUnits="userSpaceOnUse">
<stop stop-color="#F3EBF9" stop-opacity="0"/>
<stop offset="0.2779" stop-color="#F4EEFA" stop-opacity="0"/>
<stop offset="0.2989" stop-color="#F4EFFA" stop-opacity="0"/>
<stop offset="0.4459" stop-color="#EBF6FC" stop-opacity="0.1068"/>
<stop offset="0.5741" stop-color="#DFFFFF" stop-opacity="0.2"/>
<stop offset="1" stop-color="#DBFFFF"/>
</linearGradient>
<linearGradient id="paint25_linear_22_8389" x1="157.229" y1="197.378" x2="227.804" y2="197.378" gradientUnits="userSpaceOnUse">
<stop stop-color="#0068E9"/>
<stop offset="1" stop-color="#00D7FF"/>
</linearGradient>
<linearGradient id="paint26_linear_22_8389" x1="158.129" y1="191.891" x2="225.13" y2="191.891" gradientUnits="userSpaceOnUse">
<stop stop-color="#009DF1"/>
<stop offset="1" stop-color="#00D7FF"/>
</linearGradient>
<linearGradient id="paint27_linear_22_8389" x1="112.903" y1="144.215" x2="85.2109" y2="278.282" gradientUnits="userSpaceOnUse">
<stop stop-color="#85FFC4"/>
<stop offset="0.0602226" stop-color="#84F6C4"/>
<stop offset="0.1604" stop-color="#7FDCC3"/>
<stop offset="0.2882" stop-color="#79B3C1"/>
<stop offset="0.437" stop-color="#707ABF"/>
<stop offset="0.5674" stop-color="#6742BD"/>
<stop offset="0.8652" stop-color="#411D87"/>
<stop offset="0.9944" stop-color="#3C148A"/>
</linearGradient>
<linearGradient id="paint28_linear_22_8389" x1="76.7934" y1="181.695" x2="245.654" y2="202.741" gradientUnits="userSpaceOnUse">
<stop stop-color="#85FFC4"/>
<stop offset="0.0602226" stop-color="#84F6C4"/>
<stop offset="0.1604" stop-color="#7FDCC3"/>
<stop offset="0.2882" stop-color="#79B3C1"/>
<stop offset="0.437" stop-color="#707ABF"/>
<stop offset="0.5674" stop-color="#6742BD"/>
<stop offset="0.8652" stop-color="#411D87"/>
<stop offset="0.9944" stop-color="#3C148A"/>
</linearGradient>
<linearGradient id="paint29_linear_22_8389" x1="93.4432" y1="222.786" x2="185.314" y2="134.897" gradientUnits="userSpaceOnUse">
<stop stop-color="#85FFC4"/>
<stop offset="0.0602226" stop-color="#84F6C4"/>
<stop offset="0.1604" stop-color="#7FDCC3"/>
<stop offset="0.2882" stop-color="#79B3C1"/>
<stop offset="0.437" stop-color="#707ABF"/>
<stop offset="0.5674" stop-color="#6742BD"/>
<stop offset="0.8652" stop-color="#411D87"/>
<stop offset="0.9944" stop-color="#3C148A"/>
</linearGradient>
<linearGradient id="paint30_linear_22_8389" x1="119.356" y1="111.707" x2="144.586" y2="371.579" gradientUnits="userSpaceOnUse">
<stop stop-color="#85FFC4"/>
<stop offset="0.1003" stop-color="#84FCC4"/>
<stop offset="0.1839" stop-color="#83F1C3"/>
<stop offset="0.2615" stop-color="#80E0C3"/>
<stop offset="0.3354" stop-color="#7CC8C2"/>
<stop offset="0.4068" stop-color="#77A8C1"/>
<stop offset="0.4763" stop-color="#7181BF"/>
<stop offset="0.543" stop-color="#6A54BE"/>
<stop offset="0.5674" stop-color="#6742BD"/>
<stop offset="0.8652" stop-color="#411D87"/>
<stop offset="0.9944" stop-color="#3C148A"/>
</linearGradient>
<linearGradient id="paint31_linear_22_8389" x1="130.478" y1="167.379" x2="123.682" y2="173.372" gradientUnits="userSpaceOnUse">
<stop stop-color="#85FFC4"/>
<stop offset="0.0602226" stop-color="#84F6C4"/>
<stop offset="0.1604" stop-color="#7FDCC3"/>
<stop offset="0.2882" stop-color="#79B3C1"/>
<stop offset="0.437" stop-color="#707ABF"/>
<stop offset="0.5674" stop-color="#6742BD"/>
<stop offset="0.8652" stop-color="#411D87"/>
<stop offset="0.9944" stop-color="#3C148A"/>
</linearGradient>
<linearGradient id="paint32_linear_22_8389" x1="162.724" y1="188.2" x2="30.6236" y2="154.203" gradientUnits="userSpaceOnUse">
<stop stop-color="#6CE1F5"/>
<stop offset="1" stop-color="#6CE1F5" stop-opacity="0"/>
</linearGradient>
<linearGradient id="paint33_linear_22_8389" x1="159.868" y1="189.245" x2="96.0957" y2="171.456" gradientUnits="userSpaceOnUse">
<stop stop-color="#6CE1F5"/>
<stop offset="1" stop-color="#6CE1F5" stop-opacity="0"/>
</linearGradient>
<radialGradient id="paint34_radial_22_8389" cx="0" cy="0" r="1" gradientUnits="userSpaceOnUse" gradientTransform="translate(118.761 397.229) rotate(-3.3139) scale(28.8509 25.6838)">
<stop stop-color="#2439A1"/>
<stop offset="0.1389" stop-color="#192B82"/>
<stop offset="0.3124" stop-color="#0E1C62"/>
<stop offset="0.4804" stop-color="#06124B"/>
<stop offset="0.6388" stop-color="#020B3E"/>
<stop offset="0.7778" stop-color="#000939"/>
<stop offset="1" stop-color="#00001B"/>
</radialGradient>
<radialGradient id="paint35_radial_22_8389" cx="0" cy="0" r="1" gradientUnits="userSpaceOnUse" gradientTransform="translate(119.469 396.048) rotate(-3.3139) scale(24.2905 21.624)">
<stop stop-color="#2439A1"/>
<stop offset="0.1389" stop-color="#192B82"/>
<stop offset="0.3124" stop-color="#0E1C62"/>
<stop offset="0.4804" stop-color="#06124B"/>
<stop offset="0.6388" stop-color="#020B3E"/>
<stop offset="0.7778" stop-color="#000939"/>
<stop offset="1" stop-color="#00001B"/>
</radialGradient>
<linearGradient id="paint36_linear_22_8389" x1="119.751" y1="393.536" x2="121.097" y2="416.786" gradientUnits="userSpaceOnUse">
<stop offset="0.0873016" stop-color="#23E4A1"/>
<stop offset="0.9709" stop-color="#2B52DB"/>
</linearGradient>
<linearGradient id="paint37_linear_22_8389" x1="116.522" y1="367.597" x2="123.937" y2="408.507" gradientUnits="userSpaceOnUse">
<stop offset="0.0873016" stop-color="#23E4A1"/>
<stop offset="0.9709" stop-color="#2B52DB"/>
</linearGradient>
<linearGradient id="paint38_linear_22_8389" x1="119.313" y1="384.58" x2="120.659" y2="407.829" gradientUnits="userSpaceOnUse">
<stop offset="0.0873016" stop-color="#23E4A1"/>
<stop offset="0.9709" stop-color="#2B52DB"/>
</linearGradient>
<linearGradient id="paint39_linear_22_8389" x1="116.084" y1="358.639" x2="123.5" y2="399.549" gradientUnits="userSpaceOnUse">
<stop offset="0.0873016" stop-color="#23E4A1"/>
<stop offset="0.9709" stop-color="#2B52DB"/>
</linearGradient>
<linearGradient id="paint40_linear_22_8389" x1="118.852" y1="375.626" x2="120.198" y2="398.875" gradientUnits="userSpaceOnUse">
<stop offset="0.0873016" stop-color="#23E4A1"/>
<stop offset="0.9709" stop-color="#2B52DB"/>
</linearGradient>
<linearGradient id="paint41_linear_22_8389" x1="115.615" y1="349.687" x2="123.031" y2="390.597" gradientUnits="userSpaceOnUse">
<stop offset="0.0873016" stop-color="#23E4A1"/>
<stop offset="0.9709" stop-color="#2B52DB"/>
</linearGradient>
<linearGradient id="paint42_linear_22_8389" x1="118.321" y1="366.663" x2="119.667" y2="389.913" gradientUnits="userSpaceOnUse">
<stop offset="0.0873016" stop-color="#23E4A1"/>
<stop offset="0.9709" stop-color="#2B52DB"/>
</linearGradient>
<linearGradient id="paint43_linear_22_8389" x1="115.084" y1="340.724" x2="122.5" y2="381.634" gradientUnits="userSpaceOnUse">
<stop offset="0.0873016" stop-color="#23E4A1"/>
<stop offset="0.9709" stop-color="#2B52DB"/>
</linearGradient>
<linearGradient id="paint44_linear_22_8389" x1="117.891" y1="357.691" x2="119.237" y2="380.941" gradientUnits="userSpaceOnUse">
<stop offset="0.0873016" stop-color="#23E4A1"/>
<stop offset="0.9709" stop-color="#2B52DB"/>
</linearGradient>
<linearGradient id="paint45_linear_22_8389" x1="114.654" y1="331.752" x2="122.07" y2="372.662" gradientUnits="userSpaceOnUse">
<stop offset="0.0873016" stop-color="#23E4A1"/>
<stop offset="0.9709" stop-color="#2B52DB"/>
</linearGradient>
<linearGradient id="paint46_linear_22_8389" x1="111.045" y1="271.761" x2="122.403" y2="370.269" gradientUnits="userSpaceOnUse">
<stop stop-color="#F3EBF9" stop-opacity="0"/>
<stop offset="0.2779" stop-color="#F4EEFA" stop-opacity="0"/>
<stop offset="0.2989" stop-color="#F4EFFA" stop-opacity="0"/>
<stop offset="0.4459" stop-color="#EBF6FC" stop-opacity="0.1068"/>
<stop offset="0.5741" stop-color="#DFFFFF" stop-opacity="0.2"/>
<stop offset="1" stop-color="#DBFFFF"/>
</linearGradient>
</defs>
</svg>
