<svg width="48" height="50" viewBox="0 0 48 50" fill="none" xmlns="http://www.w3.org/2000/svg">
<path d="M29.0281 46.3357C28.3395 47.3797 27.4268 48.1727 26.405 48.6913C24.5816 49.6271 22.4076 49.6677 20.5997 48.6729C19.9874 48.3291 19.4224 47.8684 18.9317 47.2832L29.0281 46.3357V46.3357ZM29.0098 17.0771C29.3323 17.0703 29.6607 17.1244 29.9794 17.2326C30.5821 17.4364 31.1635 17.8353 31.6106 18.3655C32.0607 18.8976 32.3823 19.5679 32.4634 20.3125C32.5011 20.6612 32.4866 21.0253 32.4074 21.3971C32.7454 21.6965 33.0255 22.0355 33.237 22.3967C33.5577 22.9443 33.7248 23.5518 33.7064 24.1689C33.689 24.7899 33.4833 25.4119 33.0613 25.9846C32.7908 26.3506 32.4316 26.6954 31.9776 27.0045C32.024 27.9645 31.742 28.8269 31.2832 29.4914C30.7685 30.237 30.0209 30.7421 29.2483 30.8782C29.0832 31.5553 28.637 32.1531 28.0594 32.5674C27.3399 33.0831 26.3992 33.3246 25.5426 33.0899C24.9032 32.9141 24.3209 32.4882 23.9249 31.733C23.443 32.5616 22.7756 32.9991 22.0773 33.144C21.2477 33.3159 20.3891 33.0619 19.743 32.5597C19.2176 32.1502 18.8245 31.5688 18.6913 30.9121C18.4179 30.9024 18.1417 30.8493 17.8723 30.7575C17.2851 30.5595 16.7172 30.1732 16.2729 29.6604C15.8287 29.1476 15.5032 28.5014 15.4028 27.7819C15.3496 27.4014 15.3583 27.0025 15.4452 26.594C15.1468 26.3274 14.8918 26.0252 14.6919 25.6997C14.3549 25.153 14.1685 24.5349 14.1762 23.8965C14.183 23.2562 14.3867 22.6063 14.8291 22.0046C15.0898 21.6482 15.4366 21.3092 15.876 20.9982C15.8692 20.8727 15.8692 20.749 15.8731 20.6273C15.9079 19.6915 16.2536 18.8677 16.7558 18.2534C17.2745 17.6179 17.9727 17.1988 18.6903 17.0993H18.6942C18.7202 16.9825 18.754 16.8666 18.7956 16.7536C19.0274 16.1248 19.5054 15.5879 20.0917 15.2469C20.6798 14.9041 21.3878 14.7534 22.0773 14.8963C22.7418 15.0345 23.3782 15.4372 23.8544 16.1915C24.3305 15.4372 24.967 15.0345 25.6314 14.8963C26.2582 14.766 26.9014 14.879 27.4558 15.1581C28.0024 15.4343 28.4699 15.8766 28.7567 16.4088C28.8707 16.6203 28.9566 16.8443 29.0098 17.0771V17.0771ZM24.5652 17.4789V29.9134C24.6222 29.9888 24.6618 30.0786 24.6782 30.178C24.8569 31.2626 25.3282 31.7861 25.8584 31.9319C26.3471 32.0652 26.9101 31.9087 27.3583 31.5871C27.7977 31.2723 28.1125 30.8087 28.1164 30.3229C28.1212 29.7705 27.7166 29.1437 26.633 28.5903C26.4914 28.5177 26.3845 28.3919 26.3356 28.2405C26.2867 28.0891 26.2999 27.9246 26.3722 27.7829C26.408 27.7127 26.4573 27.6502 26.5172 27.599C26.5772 27.5478 26.6466 27.509 26.7216 27.4846C26.7966 27.4603 26.8757 27.451 26.9543 27.4573C27.0328 27.4636 27.1094 27.4853 27.1796 27.5212C28.381 28.1354 29.004 28.8907 29.2232 29.6498C29.6201 29.5261 30.0055 29.2277 30.2943 28.8086C30.6506 28.2919 30.8544 27.5975 30.7569 26.819C30.7028 26.5708 30.811 26.3052 31.0428 26.17C31.5112 25.8967 31.8589 25.5896 32.0955 25.2689C32.3649 24.9039 32.4953 24.5156 32.5069 24.1361C32.5175 23.7526 32.4074 23.3644 32.1969 23.0042C32.0047 22.6758 31.7304 22.3716 31.3904 22.1166C31.2805 22.0429 31.1979 21.9351 31.1553 21.8098C31.1127 21.6844 31.1125 21.5486 31.1548 21.4232C31.2707 21.0822 31.3016 20.75 31.2678 20.44C31.2137 19.9503 30.9974 19.5022 30.6922 19.142C30.386 18.7798 29.9949 18.5084 29.5931 18.3722C29.3826 18.3008 29.172 18.2689 28.9769 18.2824C28.8736 18.6388 28.6833 18.9981 28.3897 19.3477C28.1763 19.6007 27.7977 19.6336 27.5447 19.4201C27.4231 19.3178 27.3472 19.1715 27.3334 19.0132C27.3196 18.855 27.3692 18.6977 27.4713 18.576C27.9397 18.0207 27.9426 17.4364 27.6973 16.9786C27.5273 16.6647 27.2453 16.3991 26.914 16.232C26.5895 16.0688 26.2235 16.0012 25.8767 16.0727C25.3678 16.1789 24.8762 16.6 24.5652 17.4789V17.4789ZM27.6325 21.5555C27.5041 21.4616 27.4181 21.3208 27.3933 21.1636C27.3685 21.0065 27.407 20.846 27.5002 20.7172C27.5941 20.5887 27.735 20.5027 27.8921 20.4779C28.0492 20.4531 28.2097 20.4916 28.3385 20.5849C28.4631 20.6756 28.5781 20.7693 28.6833 20.864C29.4849 21.5844 29.9224 22.5367 30.0016 23.5228C30.0818 24.4973 29.8094 25.5065 29.1942 26.3516C29.1102 26.4684 29.0117 26.5892 28.8987 26.7138C28.6775 26.9591 28.297 26.9784 28.0517 26.7553C27.9932 26.7025 27.9457 26.6387 27.912 26.5676C27.8782 26.4964 27.8587 26.4193 27.8548 26.3406C27.8508 26.2619 27.8625 26.1832 27.889 26.1091C27.9154 26.0349 27.9563 25.9667 28.0092 25.9083C28.0778 25.831 28.1492 25.7431 28.2198 25.6456C28.6621 25.0371 28.8581 24.3138 28.8021 23.6165C28.7461 22.9288 28.44 22.2634 27.8808 21.7583C27.8016 21.6849 27.7175 21.6173 27.6325 21.5555V21.5555ZM23.3589 18.1066L23.3551 18.1018L23.3512 18.096L23.3406 18.0786L23.3396 18.0767L23.3155 18.0313L23.3126 18.0265L23.3116 18.0255L23.3097 18.0197L23.301 17.9994L23.2981 17.9946L23.2952 17.9888V17.9869L23.2933 17.982L23.2855 17.9627L23.2846 17.9598L23.2836 17.956L23.2807 17.9453L23.2797 17.9425L23.2778 17.9367L23.2768 17.9318L23.2759 17.9289L23.2739 17.9231L23.273 17.9173L23.272 17.9164L23.2701 17.9086L23.2691 17.9038C22.9794 16.7323 22.4163 16.1953 21.832 16.0736C21.4486 15.9935 21.041 16.0852 20.6943 16.2871C20.3428 16.4918 20.0598 16.8057 19.9265 17.1679C19.7478 17.6517 19.8531 18.2467 20.4567 18.8049C20.6991 19.0299 20.7136 19.4105 20.4896 19.6529C20.2645 19.8962 19.884 19.9107 19.6416 19.6857C19.1655 19.2453 18.8767 18.7769 18.7386 18.3114C18.361 18.3983 17.9862 18.6484 17.6868 19.0145C17.3372 19.4385 17.0977 20.0131 17.0736 20.6698C17.0668 20.8437 17.0765 21.0272 17.1025 21.2174C17.1334 21.4454 17.0311 21.682 16.8234 21.8104C16.3705 22.0896 16.0334 22.3967 15.7987 22.7164C15.5129 23.1065 15.3815 23.5151 15.3767 23.911C15.3718 24.3089 15.4955 24.7068 15.7176 25.069C15.905 25.3732 16.1619 25.6495 16.4699 25.8784C16.5776 25.9528 16.658 26.0603 16.6992 26.1845C16.7403 26.3087 16.7398 26.443 16.6979 26.567C16.5743 26.932 16.5482 27.2874 16.5945 27.6177C16.6612 28.0929 16.8804 28.5265 17.1817 28.8742C17.484 29.2238 17.8665 29.4856 18.2586 29.6179C18.4247 29.6749 18.5899 29.7067 18.7492 29.7116C18.9849 28.9322 19.6319 28.1518 20.8653 27.5212C21.1608 27.3705 21.523 27.4874 21.6736 27.7829C21.8243 28.0775 21.7074 28.4396 21.4119 28.5903C20.2713 29.1727 19.8425 29.8449 19.8435 30.4301C19.8435 30.885 20.1033 31.3138 20.4828 31.6084C20.8682 31.9087 21.3665 32.0633 21.832 31.9667C22.4173 31.845 22.9813 31.3061 23.2701 30.1307C23.2884 30.0583 23.3184 29.9917 23.3589 29.9337V18.1066V18.1066ZM18.8922 20.9886C19.0058 20.8768 19.1591 20.8147 19.3185 20.8159C19.4779 20.8172 19.6302 20.8817 19.742 20.9953C19.9748 21.2319 19.9709 21.6125 19.7353 21.8452C19.2041 22.3667 18.9269 23.0418 18.8979 23.7324C18.868 24.4422 19.0998 25.1724 19.5846 25.774C19.7923 26.0319 19.7517 26.4105 19.4929 26.6191C19.3685 26.7187 19.2098 26.765 19.0514 26.7478C18.893 26.7306 18.7479 26.6514 18.6478 26.5274C17.9766 25.6939 17.6559 24.6779 17.6975 23.6841C17.738 22.698 18.134 21.7332 18.8922 20.9886V20.9886ZM14.1965 34.5647C13.6547 33.8722 13.1022 33.1652 12.5682 32.354C12.0254 31.5273 11.5145 30.6117 11.0799 29.5358C10.654 28.4715 10.3352 27.3975 10.1421 26.313C9.94893 25.2235 9.87843 24.1168 9.94893 22.9926V22.9897C10.0204 21.8732 10.2309 20.7423 10.596 19.5997C10.9582 18.462 11.4691 17.3224 12.1413 16.1847L12.1963 16.1007C13.0559 14.8114 14.0603 13.7413 15.1632 12.8788C16.3038 11.9863 17.5853 11.2904 18.9549 10.8197L19.0283 10.7985C20.083 10.4392 21.1647 10.2161 22.2463 10.1215C23.3908 10.021 24.5478 10.0606 25.6875 10.2287C26.8029 10.3929 27.8991 10.6816 28.946 11.0824C29.99 11.4823 30.9935 11.9999 31.9274 12.6229C33.1376 13.4312 34.227 14.4212 35.1338 15.5695C36.0002 16.6676 36.6984 17.9106 37.1707 19.2772H37.1746C37.4295 20.0189 37.6372 20.8099 37.7753 21.6463C37.918 22.5029 37.9781 23.3713 37.9549 24.2394C37.9308 25.1714 37.8072 26.1343 37.5667 27.1184C37.3407 28.0369 37.0104 28.9795 36.5594 29.9385C35.6361 31.9078 34.056 33.8635 32.5079 35.7787C31.7043 36.7744 30.9075 37.7605 30.2325 38.7147C30.0094 39.0324 29.6192 39.1638 29.2628 39.0739C27.139 38.9107 20.0801 39.9267 17.4695 40.1692C17.2568 40.1885 17.044 40.1324 16.8683 40.0108C16.6927 39.8892 16.5654 39.7097 16.5086 39.5037C16.2449 38.5505 15.8963 37.5963 15.4858 36.7232C15.1034 35.909 14.6668 35.1664 14.1965 34.5647V34.5647ZM14.0912 31.3525C14.5799 32.0942 15.1111 32.7751 15.6336 33.4424C16.1889 34.1523 16.6979 35.0157 17.1373 35.9506C17.4869 36.6942 17.794 37.4852 18.049 38.2839L29.0272 37.2631C29.6597 36.3987 30.3686 35.5208 31.0853 34.6352C32.5697 32.7982 34.084 30.9236 34.9078 29.1669C35.3048 28.3228 35.5955 27.4941 35.7925 26.6886C36.004 25.8301 36.1103 24.9975 36.1315 24.1969C36.1518 23.4166 36.0938 22.6632 35.9741 21.9389C35.8553 21.2261 35.6728 20.5346 35.4439 19.8702L35.4477 19.8692C35.044 18.7025 34.4462 17.6392 33.7035 16.6985C32.9203 15.7066 31.9709 14.8471 30.9124 14.1382C30.104 13.5993 29.2232 13.1463 28.2951 12.7909C27.3699 12.4365 26.4031 12.1815 25.4228 12.0376C24.4261 11.8908 23.4111 11.857 22.4038 11.9449C21.4515 12.028 20.5156 12.2182 19.6204 12.5224L19.5489 12.5495C18.3928 12.9474 17.2899 13.5317 16.2855 14.3169C15.34 15.0557 14.4746 15.978 13.7271 17.0926L13.7146 17.1148C13.1061 18.1443 12.6493 19.1565 12.3335 20.1502C12.0177 21.1392 11.8351 22.1243 11.7723 23.1036C11.7115 24.0752 11.7743 25.04 11.9443 25.9981C12.1162 26.962 12.3972 27.9152 12.7748 28.8568C13.1612 29.8139 13.6131 30.6242 14.0912 31.3525V31.3525ZM29.2628 39.073H29.2667H29.2628ZM29.2676 39.072C29.2705 39.072 29.2754 39.071 29.2676 39.072V39.072ZM24.8685 1.49118C24.9052 1.04305 25.1167 0.654806 25.4325 0.386316C25.7406 0.122655 26.153 -0.0241448 26.5895 0.00386316V0C26.6272 0.00193158 26.6639 0.00772632 26.7006 0.0144869C27.1062 0.0695369 27.4626 0.27525 27.7108 0.564987C27.9754 0.873074 28.1212 1.2816 28.0932 1.722H28.0981C28.0961 1.75098 28.0942 1.77995 28.0894 1.8041L27.8132 5.24617H27.817C27.8161 5.28287 27.8093 5.31957 27.8035 5.35724C27.7475 5.76673 27.5427 6.11925 27.252 6.36746C26.9306 6.64018 26.5157 6.77732 26.095 6.74991V6.75377C26.0583 6.75184 26.0216 6.74605 25.9849 6.74025C25.5745 6.68423 25.2219 6.47949 24.9737 6.18878C24.701 5.86732 24.5639 5.45245 24.5913 5.03177H24.5874C24.5893 5.00279 24.5903 4.97382 24.5961 4.94968L24.8685 1.49118V1.49118ZM6.76086 6.55289C6.46445 6.24319 6.30175 5.82934 6.3079 5.4007C6.31128 5.18867 6.35644 4.97939 6.44079 4.78483C6.52515 4.59027 6.64704 4.41426 6.79949 4.26686C7.10894 3.97007 7.52296 3.80731 7.95168 3.81391C8.36407 3.8197 8.77646 3.98678 9.08552 4.30549L11.5396 6.85615C11.8477 7.17872 11.9983 7.59594 11.9925 8.00833C11.9858 8.42555 11.8187 8.83312 11.501 9.14217C11.191 9.43875 10.7768 9.60146 10.3478 9.59513C9.93155 9.58837 9.52302 9.42128 9.21493 9.10257L6.76086 6.55289ZM1.55718 24.0916C1.12065 24.0762 0.730466 23.885 0.449421 23.5933C0.153102 23.2819 -0.00829371 22.8661 0.000328523 22.4363C0.00805484 21.991 0.200247 21.5883 0.500608 21.3034C0.800969 21.0185 1.2066 20.8466 1.65666 20.8591L5.19145 20.9335C5.63765 20.9412 6.03942 21.1325 6.32432 21.4328C6.6102 21.7341 6.78114 22.1398 6.76955 22.5889L6.76762 22.614H6.77148L6.76472 22.6719C6.73382 23.0872 6.54839 23.4523 6.26927 23.7227C5.96891 24.0067 5.56328 24.1747 5.11322 24.167L5.08908 24.165L5.08811 24.1699L5.05141 24.1679L1.55718 24.0916V24.0916ZM46.3196 21.5294L46.3727 21.5284C46.7948 21.5265 47.1782 21.6839 47.4689 21.9476C47.776 22.2248 47.9731 22.6236 47.9982 23.0669L47.9972 23.0834C48.002 23.0834 47.9991 23.1287 47.9991 23.1365C48.0001 23.5585 47.8427 23.9419 47.579 24.2336C47.3018 24.5398 46.903 24.7368 46.4597 24.7619L42.9278 24.9396C42.4806 24.9609 42.0682 24.7976 41.765 24.5214C41.4578 24.2442 41.257 23.8454 41.2357 23.4021C41.2159 22.9742 41.3666 22.556 41.6549 22.2393C41.932 21.9331 42.3309 21.7312 42.7742 21.711C43.9544 21.6472 45.1394 21.5758 46.3196 21.5294V21.5294ZM40.1357 7.0947C40.4071 6.73832 40.7905 6.52778 41.198 6.46693C41.6066 6.41188 42.0344 6.50943 42.3956 6.77695L42.3995 6.78081C42.5694 6.90757 42.7124 7.06686 42.8202 7.24941C42.928 7.43197 42.9984 7.63413 43.0272 7.84415C43.0833 8.25171 42.9848 8.67956 42.7172 9.04076L40.5925 11.8696C40.325 12.2259 39.9377 12.4403 39.5253 12.5002C39.1177 12.5562 38.6899 12.4587 38.3277 12.1912C37.9713 11.9236 37.7569 11.5315 37.6971 11.124C37.641 10.7164 37.7386 10.2876 38.0061 9.92639L40.1357 7.0947V7.0947ZM30.2894 40.7853L30.2643 41.4411L30.2672 41.669C30.2798 42.0988 30.2614 42.5324 30.2122 42.9593L29.964 43.8932L17.7303 45.0329L17.5458 44.5365L17.1769 42.5701L17.1982 42.008L30.2894 40.7853V40.7853Z" fill="#E0ECFF"/>
</svg>
