<svg width="57" height="57" viewBox="0 0 57 57" fill="none" xmlns="http://www.w3.org/2000/svg">
<g clip-path="url(#clip0_4103_466)">
<mask id="mask0_4103_466" style="mask-type:luminance" maskUnits="userSpaceOnUse" x="0" y="0" width="57" height="57">
<path d="M57 28.5C57 12.7599 44.2401 0 28.5 0C12.7599 0 0 12.7599 0 28.5C0 44.2401 12.7599 57 28.5 57C44.2401 57 57 44.2401 57 28.5Z" fill="white"/>
</mask>
<g mask="url(#mask0_4103_466)">
<path d="M57 28.5C57 12.7599 44.2401 0 28.5 0C12.7599 0 0 12.7599 0 28.5C0 44.2401 12.7599 57 28.5 57C44.2401 57 57 44.2401 57 28.5Z" fill="#121212"/>
<path d="M57 0H0V57H57V0Z" fill="#61DFFF"/>
<path d="M39.3265 39.9226H17.6992V16.9891H22.6476V35.478H39.3265V39.9202V39.9226Z" fill="#190066"/>
<path d="M39.3261 21.4313C41.7639 21.4313 43.7401 19.4425 43.7401 16.9891C43.7401 14.5358 41.7639 12.547 39.3261 12.547C36.8883 12.547 34.9121 14.5358 34.9121 16.9891C34.9121 19.4425 36.8883 21.4313 39.3261 21.4313Z" fill="#190066"/>
</g>
</g>
<defs>
<clipPath id="clip0_4103_466">
<rect width="57" height="57" fill="white"/>
</clipPath>
</defs>
</svg>
