<svg width="30" height="30" viewBox="0 0 30 30" fill="none" xmlns="http://www.w3.org/2000/svg">
<path fill-rule="evenodd" clip-rule="evenodd" d="M15 0C23.2849 0 30 6.71514 30 15C30 23.2849 23.2849 30 15 30C6.71514 30 0 23.2849 0 15C0 6.71514 6.71514 0 15 0Z" fill="#121212"/>
<mask id="mask0_0_1" style="mask-type:luminance" maskUnits="userSpaceOnUse" x="7" y="6" width="16" height="17">
<path d="M22.3862 6.802H7.45508V22.3986H22.3862V6.802Z" fill="white"/>
</mask>
<g mask="url(#mask0_0_1)">
<path d="M19.8554 22.3985H7.45508V9.33276H10.2923V19.8663H19.8554V22.3971V22.3985Z" fill="white"/>
<path d="M19.8555 11.8636C21.2532 11.8636 22.3863 10.7305 22.3863 9.33282C22.3863 7.93509 21.2532 6.802 19.8555 6.802C18.4577 6.802 17.3247 7.93509 17.3247 9.33282C17.3247 10.7305 18.4577 11.8636 19.8555 11.8636Z" fill="white"/>
</g>
</svg>
