<svg width="9" height="5" viewBox="0 0 9 5" fill="none" xmlns="http://www.w3.org/2000/svg">
<path d="M9 0.282175C9 0.207338 8.96836 0.135565 8.91203 0.0826473C8.85571 0.0297292 8.77932 0 8.69967 0H6.22192C6.14227 0 6.06588 0.0297292 6.00955 0.0826473C5.95323 0.135565 5.92159 0.207338 5.92159 0.282175C5.92159 0.357013 5.95323 0.428785 6.00955 0.481703C6.06588 0.534621 6.14227 0.564351 6.22192 0.564351H7.96836L5.47709 2.87819L3.20508 1.35726C3.14677 1.31823 3.07554 1.30005 3.00423 1.306C2.93292 1.31195 2.86622 1.34164 2.81614 1.38971L0.0756058 4.03511C0.0244064 4.08936 -0.00259713 4.16006 0.000197098 4.23252C0.00299132 4.30498 0.0353689 4.37365 0.0906129 4.42429C0.145857 4.47492 0.219727 4.50363 0.296899 4.50446C0.37407 4.50529 0.44862 4.47817 0.505082 4.42874L3.06692 1.95689L5.33444 3.47499C5.39215 3.51362 5.46254 3.53183 5.53316 3.52641C5.60378 3.52099 5.67009 3.49228 5.72036 3.44536L8.39933 0.957985V2.61012C8.39933 2.68496 8.43098 2.75673 8.4873 2.80965C8.54362 2.86257 8.62001 2.8923 8.69967 2.8923C8.77932 2.8923 8.85571 2.86257 8.91203 2.80965C8.96836 2.75673 9 2.68496 9 2.61012V0.282175Z" fill="white"/>
</svg>
