<svg width="18" height="18" viewBox="0 0 18 18" fill="none" xmlns="http://www.w3.org/2000/svg">
<path d="M16.6508 13.2251L10.5019 2.54677C10.3483 2.28515 10.1289 2.06823 9.8656 1.91751C9.60229 1.76679 9.30415 1.6875 9.00075 1.6875C8.69735 1.6875 8.39922 1.76679 8.13591 1.91751C7.87259 2.06823 7.65323 2.28515 7.49958 2.54677L1.35075 13.2251C1.20291 13.4782 1.125 13.766 1.125 14.059C1.125 14.3521 1.20291 14.6399 1.35075 14.8929C1.50244 15.1561 1.72142 15.3742 1.98523 15.5249C2.24903 15.6755 2.54816 15.7532 2.85193 15.75H15.1496C15.4531 15.753 15.7519 15.6751 16.0155 15.5245C16.279 15.3739 16.4978 15.1559 16.6493 14.8929C16.7974 14.64 16.8756 14.3523 16.8758 14.0592C16.8761 13.7662 16.7984 13.4783 16.6508 13.2251ZM15.6755 14.3297C15.6219 14.4212 15.545 14.4967 15.4525 14.5486C15.3601 14.6005 15.2556 14.6269 15.1496 14.625H2.85193C2.74595 14.6269 2.64139 14.6005 2.54897 14.5486C2.45655 14.4967 2.37959 14.4212 2.32599 14.3297C2.27743 14.2475 2.25182 14.1538 2.25182 14.0583C2.25182 13.9629 2.27743 13.8691 2.32599 13.7869L8.47482 3.10856C8.5295 3.01756 8.60681 2.94226 8.69922 2.88998C8.79163 2.8377 8.89599 2.81022 9.00216 2.81022C9.10833 2.81022 9.2127 2.8377 9.3051 2.88998C9.39751 2.94226 9.47482 3.01756 9.5295 3.10856L15.6783 13.7869C15.7265 13.8694 15.7516 13.9632 15.7511 14.0587C15.7506 14.1542 15.7245 14.2478 15.6755 14.3297ZM8.43825 10.125V7.31255C8.43825 7.16336 8.49752 7.02029 8.60301 6.9148C8.7085 6.80931 8.85157 6.75005 9.00075 6.75005C9.14994 6.75005 9.29301 6.80931 9.3985 6.9148C9.50399 7.02029 9.56325 7.16336 9.56325 7.31255V10.125C9.56325 10.2742 9.50399 10.4173 9.3985 10.5228C9.29301 10.6283 9.14994 10.6875 9.00075 10.6875C8.85157 10.6875 8.7085 10.6283 8.60301 10.5228C8.49752 10.4173 8.43825 10.2742 8.43825 10.125ZM9.8445 12.6563C9.8445 12.8232 9.79502 12.9863 9.70231 13.1251C9.60959 13.2638 9.47782 13.372 9.32364 13.4358C9.16947 13.4997 8.99982 13.5164 8.83615 13.4838C8.67247 13.4513 8.52213 13.3709 8.40413 13.2529C8.28613 13.1349 8.20577 12.9846 8.17322 12.8209C8.14066 12.6572 8.15737 12.4876 8.22123 12.3334C8.28509 12.1792 8.39324 12.0475 8.53199 11.9547C8.67075 11.862 8.83388 11.8125 9.00075 11.8125C9.22453 11.8125 9.43914 11.9014 9.59737 12.0597C9.75561 12.2179 9.8445 12.4325 9.8445 12.6563Z" fill="#CD7A37"/>
</svg>
