<svg width="30" height="30" viewBox="0 0 30 30" fill="none" xmlns="http://www.w3.org/2000/svg">
<path d="M15 0C12.0333 0 9.13318 0.879735 6.66644 2.52796C4.1997 4.17618 2.27711 6.51886 1.1418 9.25975C0.00648396 12.0006 -0.290566 15.0166 0.288212 17.9264C0.866991 20.8361 2.2956 23.5088 4.39339 25.6066C6.49118 27.7044 9.16392 29.133 12.0736 29.7118C14.9834 30.2906 17.9994 29.9935 20.7402 28.8582C23.4811 27.7229 25.8238 25.8003 27.472 23.3336C29.1203 20.8668 30 17.9667 30 15C30.0057 13.0359 29.6245 11.0899 28.8782 9.2731C28.1319 7.45631 27.035 5.80431 25.6502 4.41143C24.2654 3.01855 22.6198 1.91207 20.8074 1.15515C18.995 0.398236 17.0513 0.00571514 15.0872 0H15ZM15.2542 15.5085L13.6925 20.7748H22.046C22.1013 20.7729 22.1565 20.7819 22.2084 20.8013C22.2602 20.8207 22.3078 20.8501 22.3482 20.8879C22.3887 20.9256 22.4213 20.971 22.4443 21.0214C22.4672 21.0718 22.48 21.1263 22.4818 21.1816V21.3196L21.7554 23.8257C21.7234 23.9442 21.652 24.0483 21.553 24.1209C21.454 24.1935 21.3333 24.2303 21.2106 24.2252H8.42614L10.569 16.9249L8.17191 17.6513L8.7167 15.9806L11.1138 15.2542L14.1283 5.01211C14.1615 4.89426 14.2332 4.7909 14.3319 4.7185C14.4306 4.6461 14.5507 4.60882 14.6731 4.61259H17.9056C17.9609 4.61065 18.0161 4.61964 18.0679 4.63903C18.1198 4.65843 18.1673 4.68786 18.2078 4.72564C18.2483 4.76342 18.2809 4.80881 18.3038 4.85921C18.3268 4.90961 18.3395 4.96403 18.3414 5.01937V5.15738L15.799 13.8015L18.1961 13.0751L17.6876 14.8184L15.2542 15.5085Z" fill="#345D9D"/>
</svg>
