<svg width="30" height="30" viewBox="0 0 30 30" fill="none" xmlns="http://www.w3.org/2000/svg">
<g clip-path="url(#clip0_1604_878)">
<mask id="mask0_1604_878" style="mask-type:luminance" maskUnits="userSpaceOnUse" x="0" y="0" width="30" height="30">
<path d="M30 0H0V30H30V0Z" fill="white"/>
</mask>
<g mask="url(#mask0_1604_878)">
<path d="M29.4005 19.2961C27.8165 24.7561 23.2685 28.8601 17.6765 29.8681V25.5961C18.6845 25.2121 19.5965 24.6001 20.3405 23.8081C20.7485 23.3641 21.1085 22.8721 21.3845 22.3441C21.9125 21.3361 22.2005 20.2201 22.2005 19.0801C22.2005 19.0681 22.2005 19.0561 22.2005 19.0441C22.2005 15.2761 19.4765 13.7641 16.9205 12.6481L15.6245 12.0721C14.2445 11.4481 13.1885 10.8961 13.1885 9.96011C13.1885 8.65211 14.3285 7.95611 15.3965 7.95611C16.5365 7.95611 17.1845 8.37611 17.8685 9.56411L18.3965 10.4881L21.8165 8.29211L21.3725 7.46411C20.5925 5.97611 19.2605 4.82411 17.6765 4.27211V0.360107C18.0125 0.420107 18.3365 0.492107 18.6725 0.576107C18.7085 0.588107 18.7445 0.588107 18.7805 0.600107C18.8165 0.612107 18.8525 0.612107 18.8885 0.624107C18.9005 0.624107 18.9125 0.624107 18.9245 0.636107C19.0085 0.660107 19.1045 0.684107 19.2005 0.708107C25.6085 2.56811 30.0125 8.43611 30.0125 15.1081C30.0125 16.5241 29.8085 17.9401 29.4125 19.2961H29.4005Z" fill="#745DDF"/>
<path d="M18 19.2479C18 20.9639 16.452 22.0319 15.012 22.0319C13.284 22.0319 12.3 20.6039 12.108 19.2839L11.94 18.1319L7.8 19.2959L7.992 20.2199C8.58 23.1359 10.572 25.2359 13.284 25.8599V29.9879C12.552 29.9039 11.82 29.7599 11.112 29.5679C11.016 29.5439 10.908 29.5199 10.812 29.4839C4.416 27.6239 0 21.7559 0 15.0839V0.671862C0 0.347862 0.264 0.0838623 0.588 0.0838623H13.284V4.21186C11.796 4.64386 10.536 5.62786 9.744 6.94786C9.24 7.82386 8.976 8.80786 8.976 9.81586C8.976 9.82786 8.976 9.83986 8.976 9.85186V9.93586C9.012 13.2959 11.484 14.7119 13.824 15.7679L14.988 16.2719L15.084 16.3199C16.932 17.1719 17.976 17.7239 17.976 19.2359L18 19.2479Z" fill="#2EB6EA"/>
<path d="M22.1876 19.0441C22.1876 19.0561 22.1876 19.0681 22.1876 19.0801C22.1876 20.2201 21.9116 21.3361 21.3716 22.3441C21.0956 22.8721 20.7356 23.3761 20.3276 23.8081C19.5836 24.6001 18.6716 25.2121 17.6636 25.5961V29.8801L16.4636 29.9881C16.4636 29.9881 13.8956 30.0601 13.2836 29.9881L13.2716 25.8721C10.5716 25.2361 8.5796 23.1481 7.9796 20.2321L7.7876 19.3081L11.9276 18.1441L12.0956 19.2961C12.2876 20.6161 13.2716 22.0441 14.9996 22.0441C16.4396 22.0441 17.9876 20.9761 17.9876 19.2601C17.9876 17.7481 16.9436 17.1961 15.0836 16.3441L14.9876 16.2961L13.8236 15.7921C11.4836 14.7361 9.0116 13.3321 8.9756 9.96009V9.87609C8.9756 9.86409 8.9756 9.85209 8.9756 9.84009C8.9756 8.83209 9.2396 7.84809 9.7436 6.97209C10.5356 5.64009 11.7956 4.65609 13.2836 4.23609V0.108092C15.9836 0.0840921 16.1996 0.0960921 17.6756 0.360092V4.28409C19.2716 4.83609 20.5916 5.97609 21.3716 7.47609L21.8156 8.30409L18.3956 10.5001L17.8676 9.57609C17.1836 8.38809 16.5356 7.96809 15.3956 7.96809C14.3156 7.96809 13.1876 8.66409 13.1876 9.97209C13.1876 10.9201 14.2436 11.4721 15.6236 12.0841L16.9196 12.6601C19.4756 13.7761 22.1996 15.2881 22.1996 19.0561L22.1876 19.0441Z" fill="white"/>
</g>
</g>
<defs>
<clipPath id="clip0_1604_878">
<rect width="30" height="30" fill="white"/>
</clipPath>
</defs>
</svg>
