<svg width="30" height="30" viewBox="0 0 30 30" fill="none" xmlns="http://www.w3.org/2000/svg">
<path fill-rule="evenodd" clip-rule="evenodd" d="M6.97427 25.758C3.69915 23.3107 1.57895 19.403 1.57895 15C1.57895 7.58776 7.58776 1.57895 15 1.57895C21.1175 1.57895 27.798 5.23477 29.4136 10.8337C27.6082 4.57711 21.8396 0 15 0C6.71575 0 0 6.71575 0 15C0 23.2843 6.71575 30 15 30C23.2843 30 30 23.2843 30 15V14.2105L29.1759 14.2104C29.1514 14.2102 29.1144 14.2098 29.0661 14.2091C28.9694 14.2076 28.8278 14.2046 28.6513 14.1986C28.2976 14.1866 27.806 14.1626 27.2553 14.1147C26.1298 14.0168 24.8464 13.8258 23.9721 13.4766C22.5657 12.915 21.7717 12.1704 20.8644 11.2991L20.8119 11.2487C19.9031 10.3756 18.882 9.39471 17.1124 8.56194C15.3691 7.74156 13.4413 7.87317 12.0247 8.16467C11.3054 8.31265 10.6892 8.50784 10.252 8.66616C10.0329 8.7455 9.85724 8.81616 9.7344 8.86788C9.02154 9.16802 8.32962 9.52312 7.63001 9.85258C7.63001 9.85258 9.00265 10.2291 9.68154 10.4393C9.7061 10.4469 9.74442 10.459 9.79459 10.4759C9.89501 10.5097 10.042 10.5622 10.2198 10.6341C10.5779 10.7791 11.0489 10.9984 11.5139 11.2973C12.2462 11.7681 12.8533 12.3604 13.1023 13.0875C11.5478 13.2918 10.0897 13.9742 8.9994 14.6156C8.33826 15.0045 7.78843 15.3926 7.40309 15.6841C7.21006 15.8301 7.05732 15.9525 6.95149 16.0397C6.86268 16.1128 5.45913 17.3501 5.45913 17.3501C5.45913 17.3501 7.26992 17.5426 8.16347 17.7227C8.75794 17.8425 9.55939 18.0352 10.3954 18.3269C11.2352 18.6199 12.0836 19.0038 12.7876 19.4952C13.4931 19.9877 14.0098 20.557 14.2648 21.2087C15.0074 23.1065 14.2787 24.9553 12.8156 25.9952C11.3699 27.0228 9.17195 27.2671 6.97427 25.758ZM12.0922 28.1052C12.6833 27.9132 13.235 27.6343 13.7304 27.2822C15.7213 25.8671 16.7689 23.275 15.7352 20.6334C15.3291 19.5956 14.5531 18.802 13.6913 18.2005C12.8282 17.598 11.8349 17.1569 10.9156 16.8361C10.3111 16.6252 9.72722 16.4624 9.21585 16.3388C9.39727 16.2205 9.59268 16.0985 9.79994 15.9765C11.0151 15.2617 12.5455 14.6052 14.0132 14.6052C16.2252 14.6052 17.8727 15.284 19.4457 16.0125C19.5887 16.0786 19.7322 16.146 19.8765 16.2137C21.2822 16.8731 22.7585 17.5658 24.4737 17.5658C26.1371 17.5658 27.4327 17.0955 28.3256 16.6092C27.5306 23.2627 21.8677 28.4211 15 28.4211C14.0015 28.4211 13.0285 28.312 12.0922 28.1052ZM26.6195 15.6394C26.0283 15.8411 25.3117 15.9868 24.4737 15.9868C23.1281 15.9868 21.9721 15.4478 20.5044 14.7635C20.3753 14.7033 20.2436 14.6419 20.1092 14.5797C18.6397 13.8991 16.9395 13.178 14.7264 13.0473C14.4295 11.582 13.3189 10.5807 12.3677 9.96915C12.2617 9.90101 12.1559 9.83648 12.0512 9.77552C12.1461 9.7532 12.2435 9.73166 12.343 9.71118C13.6213 9.44813 15.1475 9.38236 16.4401 9.9906C17.9742 10.7126 18.8396 11.5436 19.7399 12.4083L19.7707 12.4379C20.6972 13.3276 21.677 14.2602 23.3866 14.943C24.3363 15.3223 25.5654 15.5263 26.6195 15.6394Z" fill="url(#paint0_linear_1795_841)"/>
<defs>
<linearGradient id="paint0_linear_1795_841" x1="0.0024525" y1="15.274" x2="30.0094" y2="14.7257" gradientUnits="userSpaceOnUse">
<stop stop-color="#29CCB9"/>
<stop offset="0.49479" stop-color="#0091FF"/>
<stop offset="1" stop-color="#FF66B7"/>
</linearGradient>
</defs>
</svg>
