<svg xmlns="http://www.w3.org/2000/svg" width="30" height="23.67" viewBox="0 0 30 23.67"><path d="M187.763,140.663l3.349,7.428,4.985-2.874h0v-5.752Z" transform="translate(-176.118 -130.812)" fill="#2bbdf7" fill-rule="evenodd"/><path d="M329.2,47.9l-3.111-1.174-3.325-.269V64.368l4.989,2.881,3.937-8.075-2.483-7.809Z" transform="translate(-302.745 -43.582)" fill="#2891f9" fill-rule="evenodd"/><path d="M404.226,46.553l-1.155,2.881h0v17.91l4.989-2.881V46.553Z" transform="translate(-378.081 -43.673)" fill="#2bbdf7" fill-rule="evenodd"/><path d="M327.755,0l-4.989,2.877,4.989,2.876,4.989-2.876Z" transform="translate(-302.745)" fill="#2b6def" fill-rule="evenodd"/><path d="M14.967,55.1h0L9.978,49.506,0,46.456v17.91l4.988,2.882,1.426-9.912,3.565.649v0l4.989,2.881V55.1Z" transform="translate(0 -43.582)" fill="#2891f9" fill-rule="evenodd"/><path d="M4.991,0,0,2.876l14.965,8.63,2.261-1.3,2.727-1.573Z" fill="#2b6def" fill-rule="evenodd"/><path d="M80.692,185.92h0v12.12l4.989-2.875V188.8Z" transform="translate(-75.689 -174.375)" fill="#2bbdf7" fill-rule="evenodd"/></svg>