<svg width="20" height="20" viewBox="0 0 20 20" fill="none" xmlns="http://www.w3.org/2000/svg">
<g opacity="0.3">
<path d="M6.73001 4.80396V17.634C6.73001 17.816 6.68401 17.972 6.59401 18.098C6.50401 18.224 6.37001 18.29 6.19401 18.29C6.07001 18.29 5.95001 18.26 5.83401 18.202L0.746012 15.654C0.592012 15.582 0.464012 15.458 0.358012 15.288C0.252012 15.118 0.200012 14.948 0.200012 14.78V2.30996C0.200012 2.16396 0.236012 2.03996 0.310012 1.93796C0.382012 1.83596 0.488012 1.78396 0.628012 1.78396C0.730012 1.78396 0.890012 1.83796 1.11001 1.94796L6.70001 4.74796C6.71801 4.77196 6.73001 4.78996 6.73001 4.80396ZM7.43001 5.90996L13.27 15.382L7.43001 12.472V5.90996ZM19.8 6.10596V17.634C19.8 17.816 19.748 17.964 19.646 18.076C19.544 18.19 19.406 18.246 19.23 18.246C19.054 18.246 18.884 18.198 18.716 18.104L13.894 15.698L19.8 6.10596ZM19.768 4.79396C19.768 4.81596 18.832 6.34596 16.962 9.38196C15.092 12.42 13.996 14.196 13.676 14.714L9.41001 7.77996L12.954 2.01596C13.078 1.81196 13.268 1.70996 13.522 1.70996C13.624 1.70996 13.718 1.73196 13.806 1.77596L19.724 4.72996C19.752 4.74196 19.768 4.76396 19.768 4.79396Z" fill="white"/>
</g>
</svg>
