<svg width="20" height="20" viewBox="0 0 20 20" fill="none" xmlns="http://www.w3.org/2000/svg">
<mask id="mask0_4079_3476" style="mask-type:luminance" maskUnits="userSpaceOnUse" x="0" y="0" width="20" height="20">
<path d="M20 10C20 4.47715 15.5228 0 10 0C4.47715 0 0 4.47715 0 10C0 15.5228 4.47715 20 10 20C15.5228 20 20 15.5228 20 10Z" fill="white"/>
</mask>
<g mask="url(#mask0_4079_3476)">
<path d="M20 10C20 4.47715 15.5228 0 10 0C4.47715 0 0 4.47715 0 10C0 15.5228 4.47715 20 10 20C15.5228 20 20 15.5228 20 10Z" fill="#E5FFC3"/>
<path d="M9.98531 19.9706C15.5 19.9706 19.9706 15.5 19.9706 9.98531C19.9706 4.47058 15.5 0 9.98531 0C4.47058 0 0 4.47058 0 9.98531C0 15.5 4.47058 19.9706 9.98531 19.9706Z" fill="#CCE7FF"/>
<mask id="mask1_4079_3476" style="mask-type:luminance" maskUnits="userSpaceOnUse" x="1" y="12" width="18" height="18">
<path d="M18.1558 12.709H1.81531V29.0495H18.1558V12.709Z" fill="white"/>
</mask>
<g mask="url(#mask1_4079_3476)">
<path d="M17.0857 27.8285L13.5659 26.7869L10.9115 28.3639L9.0596 28.3631L6.4037 26.7869L2.8855 27.8285L1.81531 24.2381L2.8855 20.2533L1.81531 16.8844L2.8855 12.709L8.38298 15.9731H11.5882L17.0857 12.709L18.1558 16.8844L17.0857 20.2533L18.1558 24.2381L17.0857 27.8285Z" fill="#FF5C16"/>
<path d="M2.88635 12.709L8.38346 15.9751L8.16485 18.2166L2.88635 12.709Z" fill="#FF5C16"/>
<path d="M8.63045 21.2122L8.16558 18.2188L5.18996 20.2542L5.18842 20.2534V20.255L5.19763 22.3503L6.40429 21.2122H6.40506H8.63045Z" fill="#FF5C16"/>
<path d="M17.0857 12.709L11.5886 15.9751L11.8065 18.2166L17.0857 12.709Z" fill="#FF5C16"/>
<path d="M14.7828 20.255V20.2534L14.782 20.2542L11.8064 18.2188L11.3416 21.2122H13.5669L14.7744 22.3503L14.7828 20.255Z" fill="#FF5C16"/>
<path d="M11.589 15.9736H9.98642H8.38383L8.16595 18.2153L9.30211 25.5369H10.6707L11.8077 18.2153L11.589 15.9736Z" fill="#FF8D5D"/>
<path d="M2.8855 12.709L1.81531 16.8844L2.8855 20.2533H5.18698L8.16433 18.217L2.8855 12.709Z" fill="#661800"/>
<path d="M17.086 12.709L18.1562 16.8844L17.086 20.2533H14.7845L11.8071 18.217L17.086 12.709Z" fill="#661800"/>
</g>
<path d="M5.94263 12.6401V10.549H11.2705V9.50461H7.35989L5.94263 8.27787V5.7715L7.35989 4.34424H8.68249V2.97168H11.2705V4.34424H14.0104V6.43531H8.68249V7.47973H12.6131L14.0304 8.82709V11.2128L12.6131 12.6401H11.2705V14.0127L8.68249 14.0304V12.6401H5.94263Z" fill="#190066"/>
</g>
</svg>
