<svg xmlns="http://www.w3.org/2000/svg" xmlns:xlink="http://www.w3.org/1999/xlink" width="72.667" height="45.507" viewBox="0 0 72.667 45.507"><defs><linearGradient id="a" x1="0.457" y1="0.5" x2="1.049" y2="0.5" gradientUnits="objectBoundingBox"><stop offset="0" stop-color="#67f9a5"/><stop offset="1" stop-color="#029176"/></linearGradient></defs><g transform="translate(0.01)"><path d="M67.33,45.507H32.589a7.7,7.7,0,0,1-6.695-11.49l17.1-29.946a8,8,0,0,1,13.933,0l17.1,29.946A7.717,7.717,0,0,1,67.33,45.507Z" transform="translate(-2.373 0)" fill="#008477"/><path d="M42.43,45.507H7.689A7.7,7.7,0,0,1,.994,34.017l17.1-29.946a8,8,0,0,1,13.933,0l17.1,29.946c4.071,6.514,7.69,11.49,15.2,11.49" transform="translate(0 0)" opacity="0.95" fill="url(#a)"/></g></svg>