<svg width="26" height="12" viewBox="0 0 26 12" fill="none" xmlns="http://www.w3.org/2000/svg">
<path d="M0 4.33333C0 1.9401 1.9401 0 4.33333 0H20C23.3137 0 26 2.68629 26 6V6C26 9.31371 23.3137 12 20 12H0V4.33333Z" fill="#59AE99"/>
<path d="M8.00992 3.496C8.00992 3.46933 8.01792 3.448 8.03392 3.432C8.05526 3.41067 8.07926 3.4 8.10592 3.4H8.84192C8.86859 3.4 8.88992 3.41067 8.90592 3.432C8.92726 3.448 8.93792 3.46933 8.93792 3.496V8.904C8.93792 8.93067 8.92726 8.95467 8.90592 8.976C8.88992 8.992 8.86859 9 8.84192 9H8.12992C8.07659 9 8.03926 8.97867 8.01792 8.936L5.71392 5.16C5.70326 5.144 5.69259 5.13867 5.68192 5.144C5.67126 5.144 5.66592 5.15467 5.66592 5.176L5.68192 8.904C5.68192 8.93067 5.67126 8.95467 5.64992 8.976C5.63392 8.992 5.61259 9 5.58592 9H4.84992C4.82326 9 4.79926 8.992 4.77792 8.976C4.76192 8.95467 4.75392 8.93067 4.75392 8.904V3.496C4.75392 3.46933 4.76192 3.448 4.77792 3.432C4.79926 3.41067 4.82326 3.4 4.84992 3.4H5.56192C5.61526 3.4 5.65259 3.42133 5.67392 3.464L7.96992 7.24C7.98059 7.256 7.99126 7.264 8.00192 7.264C8.01259 7.25867 8.01792 7.24533 8.01792 7.224L8.00992 3.496ZM13.8272 4.104C13.8272 4.13067 13.8165 4.15467 13.7952 4.176C13.7792 4.192 13.7578 4.2 13.7312 4.2H11.0032C10.9765 4.2 10.9632 4.21333 10.9632 4.24V5.736C10.9632 5.76267 10.9765 5.776 11.0032 5.776H12.8352C12.8618 5.776 12.8832 5.78667 12.8992 5.808C12.9205 5.824 12.9312 5.84533 12.9312 5.872V6.48C12.9312 6.50667 12.9205 6.53067 12.8992 6.552C12.8832 6.568 12.8618 6.576 12.8352 6.576H11.0032C10.9765 6.576 10.9632 6.58933 10.9632 6.616V8.16C10.9632 8.18667 10.9765 8.2 11.0032 8.2H13.7312C13.7578 8.2 13.7792 8.21067 13.7952 8.232C13.8165 8.248 13.8272 8.26933 13.8272 8.296V8.904C13.8272 8.93067 13.8165 8.95467 13.7952 8.976C13.7792 8.992 13.7578 9 13.7312 9H10.1312C10.1045 9 10.0805 8.992 10.0592 8.976C10.0432 8.95467 10.0352 8.93067 10.0352 8.904V3.496C10.0352 3.46933 10.0432 3.448 10.0592 3.432C10.0805 3.41067 10.1045 3.4 10.1312 3.4H13.7312C13.7578 3.4 13.7792 3.41067 13.7952 3.432C13.8165 3.448 13.8272 3.46933 13.8272 3.496V4.104ZM16.0319 9C15.9732 9 15.9359 8.97333 15.9199 8.92L14.4639 3.504L14.4559 3.472C14.4559 3.424 14.4852 3.4 14.5439 3.4H15.3279C15.3865 3.4 15.4239 3.42667 15.4399 3.48L16.3519 7.128C16.3572 7.144 16.3652 7.152 16.3759 7.152C16.3865 7.152 16.3945 7.144 16.3999 7.128L17.2719 3.48C17.2879 3.42667 17.3225 3.4 17.3759 3.4H18.1439C18.2025 3.4 18.2399 3.42667 18.2559 3.48L19.1839 7.136C19.1892 7.152 19.1972 7.16 19.2079 7.16C19.2185 7.16 19.2265 7.152 19.2319 7.136L20.1279 3.48C20.1439 3.42667 20.1812 3.4 20.2399 3.4H20.9839C21.0585 3.4 21.0879 3.43467 21.0719 3.504L19.6879 8.92C19.6719 8.97333 19.6345 9 19.5759 9H18.8319C18.7732 9 18.7359 8.97333 18.7199 8.92L17.7839 5.104C17.7785 5.088 17.7705 5.08 17.7599 5.08C17.7492 5.07467 17.7412 5.08267 17.7359 5.104L16.8399 8.92C16.8239 8.97333 16.7892 9 16.7359 9H16.0319Z" fill="#E0ECFF"/>
</svg>
