<svg width="30" height="16" viewBox="0 0 30 16" fill="none" xmlns="http://www.w3.org/2000/svg">
<path d="M0 8C0 3.58172 3.58172 0 8 0H22C26.4183 0 30 3.58172 30 8V8C30 12.4183 26.4183 16 22 16H8C3.58172 16 0 12.4183 0 8V8Z" fill="#59AE99"/>
<path d="M9.60664 5.12C9.60664 5.08667 9.61664 5.06 9.63664 5.04C9.66331 5.01333 9.69331 5 9.72664 5H10.6466C10.68 5 10.7066 5.01333 10.7266 5.04C10.7533 5.06 10.7666 5.08667 10.7666 5.12V11.88C10.7666 11.9133 10.7533 11.9433 10.7266 11.97C10.7066 11.99 10.68 12 10.6466 12H9.75664C9.68997 12 9.64331 11.9733 9.61664 11.92L6.73664 7.2C6.72331 7.18 6.70997 7.17333 6.69664 7.18C6.68331 7.18 6.67664 7.19333 6.67664 7.22L6.69664 11.88C6.69664 11.9133 6.68331 11.9433 6.65664 11.97C6.63664 11.99 6.60997 12 6.57664 12H5.65664C5.62331 12 5.59331 11.99 5.56664 11.97C5.54664 11.9433 5.53664 11.9133 5.53664 11.88V5.12C5.53664 5.08667 5.54664 5.06 5.56664 5.04C5.59331 5.01333 5.62331 5 5.65664 5H6.54664C6.61331 5 6.65997 5.02667 6.68664 5.08L9.55664 9.8C9.56997 9.82 9.58331 9.83 9.59664 9.83C9.60997 9.82333 9.61664 9.80667 9.61664 9.78L9.60664 5.12ZM16.8782 5.88C16.8782 5.91333 16.8649 5.94333 16.8382 5.97C16.8182 5.99 16.7915 6 16.7582 6H13.3482C13.3149 6 13.2982 6.01667 13.2982 6.05V7.92C13.2982 7.95333 13.3149 7.97 13.3482 7.97H15.6382C15.6715 7.97 15.6982 7.98333 15.7182 8.01C15.7449 8.03 15.7582 8.05667 15.7582 8.09V8.85C15.7582 8.88333 15.7449 8.91333 15.7182 8.94C15.6982 8.96 15.6715 8.97 15.6382 8.97H13.3482C13.3149 8.97 13.2982 8.98667 13.2982 9.02V10.95C13.2982 10.9833 13.3149 11 13.3482 11H16.7582C16.7915 11 16.8182 11.0133 16.8382 11.04C16.8649 11.06 16.8782 11.0867 16.8782 11.12V11.88C16.8782 11.9133 16.8649 11.9433 16.8382 11.97C16.8182 11.99 16.7915 12 16.7582 12H12.2582C12.2249 12 12.1949 11.99 12.1682 11.97C12.1482 11.9433 12.1382 11.9133 12.1382 11.88V5.12C12.1382 5.08667 12.1482 5.06 12.1682 5.04C12.1949 5.01333 12.2249 5 12.2582 5H16.7582C16.7915 5 16.8182 5.01333 16.8382 5.04C16.8649 5.06 16.8782 5.08667 16.8782 5.12V5.88ZM19.6341 12C19.5607 12 19.5141 11.9667 19.4941 11.9L17.6741 5.13L17.6641 5.09C17.6641 5.03 17.7007 5 17.7741 5H18.7541C18.8274 5 18.8741 5.03333 18.8941 5.1L20.0341 9.66C20.0407 9.68 20.0507 9.69 20.0641 9.69C20.0774 9.69 20.0874 9.68 20.0941 9.66L21.1841 5.1C21.2041 5.03333 21.2474 5 21.3141 5H22.2741C22.3474 5 22.3941 5.03333 22.4141 5.1L23.5741 9.67C23.5807 9.69 23.5907 9.7 23.6041 9.7C23.6174 9.7 23.6274 9.69 23.6341 9.67L24.7541 5.1C24.7741 5.03333 24.8207 5 24.8941 5H25.8241C25.9174 5 25.9541 5.04333 25.9341 5.13L24.2041 11.9C24.1841 11.9667 24.1374 12 24.0641 12H23.1341C23.0607 12 23.0141 11.9667 22.9941 11.9L21.8241 7.13C21.8174 7.11 21.8074 7.1 21.7941 7.1C21.7807 7.09333 21.7707 7.10333 21.7641 7.13L20.6441 11.9C20.6241 11.9667 20.5807 12 20.5141 12H19.6341Z" fill="#E0ECFF"/>
</svg>
