<svg width="40" height="40" viewBox="0 0 40 40" fill="none" xmlns="http://www.w3.org/2000/svg">
<g clip-path="url(#clip0_2797_72917)">
<path d="M39.7566 16.9102L23.0906 0.244084C22.9341 0.087918 22.7218 0.000343112 22.5006 0.000733723H0.834814C0.374597 -4.74982e-05 0.000860636 0.372361 1.29305e-06 0.832578C-0.000389317 1.05444 0.0877324 1.26733 0.244836 1.42404L38.5767 39.756C38.7332 39.9122 38.9455 39.9997 39.1667 39.9993C39.2759 39.9993 39.3841 39.9778 39.485 39.936C39.7966 39.8072 39.9999 39.5033 40 39.166V17.5002C40.0004 17.279 39.9129 17.0667 39.7566 16.9102Z" fill="#CD7A37"/>
<path d="M17.5007 13.3335C17.0405 13.3336 16.6673 12.9607 16.6672 12.5004C16.6672 12.4444 16.6728 12.3885 16.6841 12.3336L17.8107 6.69879L14.7574 9.75703C14.4264 10.0768 13.8989 10.0676 13.5791 9.73656C13.2672 9.41361 13.2672 8.90167 13.5791 8.5788L18.5789 3.57898C18.9043 3.25352 19.432 3.25345 19.7574 3.57882C19.9542 3.77561 20.0398 4.05763 19.9855 4.33059L18.8589 9.96538L21.9138 6.91214C22.2335 6.58113 22.7611 6.57192 23.0921 6.89167C23.4232 7.21142 23.4324 7.7389 23.1126 8.06999C23.1059 8.07694 23.0991 8.08373 23.0921 8.09045L18.0923 13.0903C17.9354 13.2468 17.7224 13.3344 17.5007 13.3335Z" fill="#FAFAFA"/>
<path d="M22.5004 18.3333C22.2792 18.3337 22.0669 18.2462 21.9104 18.09L19.4105 15.5901C19.0852 15.2647 19.0852 14.7372 19.4105 14.4118L24.4103 9.41194C24.7357 9.08664 25.2631 9.08664 25.5886 9.41194L28.0885 11.9119C28.4195 12.2316 28.4287 12.7591 28.109 13.0902C27.7892 13.4212 27.2617 13.4303 26.9307 13.1106C26.9237 13.1039 26.9169 13.0971 26.9102 13.0902L25.0003 11.1786L21.1788 15.0001L23.0887 16.91C23.4145 17.235 23.4152 17.7627 23.0902 18.0885C22.9339 18.2452 22.7217 18.3333 22.5004 18.3333Z" fill="#FAFAFA"/>
<path d="M24.1672 15.0002C23.946 15.0006 23.7338 14.9131 23.5772 14.7569L21.9107 13.0903C21.591 12.7593 21.6001 12.2318 21.9311 11.912C22.2541 11.6001 22.766 11.6001 23.0889 11.912L24.7554 13.5786C25.0804 13.9045 25.0796 14.4321 24.7536 14.757C24.598 14.9124 24.3871 14.9997 24.1672 15.0002Z" fill="#FAFAFA"/>
<path d="M29.1667 24.9999C28.7065 24.9996 28.3337 24.6261 28.334 24.1659C28.3341 24.0766 28.3484 23.988 28.3767 23.9032L29.5167 20.485L26.0984 21.6249C25.7784 21.7287 25.4274 21.6324 25.2051 21.3799C24.9847 21.1252 24.9393 20.7628 25.0901 20.4616L28.4234 13.7952C28.629 13.3834 29.1297 13.2162 29.5417 13.4219C29.9536 13.6276 30.1207 14.1282 29.915 14.5402L27.4817 19.4066L30.5733 18.3767C30.873 18.2787 31.2024 18.3566 31.4266 18.5783C31.6501 18.8015 31.7282 19.132 31.6282 19.4316L30.5983 22.5215L35.4647 20.0883C35.8766 19.8826 36.3773 20.0497 36.5831 20.4616C36.7888 20.8735 36.6217 21.3741 36.2097 21.5799L29.5434 24.9132C29.4264 24.9712 29.2973 25.0009 29.1667 24.9999Z" fill="#FAFAFA"/>
</g>
<defs>
<clipPath id="clip0_2797_72917">
<rect width="40" height="40" fill="white"/>
</clipPath>
</defs>
</svg>
