<svg width="196" height="114" viewBox="0 0 196 114" fill="none" xmlns="http://www.w3.org/2000/svg">
<g clip-path="url(#clip0_3265_7116)">
<path d="M168.688 90.7608H29.2517C24.1302 90.7608 20 86.6243 20 81.4952V43.6055H177.774V81.4952C177.774 86.6243 173.644 90.7608 168.688 90.7608Z" fill="#0A172B"/>
<path d="M168.688 23.75H29.2517C24.1302 23.75 20 27.8864 20 33.0156V43.6049H177.774V33.0156C177.774 27.8864 173.644 23.75 168.688 23.75Z" fill="#1A2D4A"/>
<path d="M38.5257 33.3468C38.5257 35.0014 37.0389 36.4905 35.3868 36.4905C33.7347 36.4905 32.2478 35.0014 32.2478 33.3468C32.2478 31.6922 33.7347 30.2031 35.3868 30.2031C37.0389 30.2031 38.5257 31.6922 38.5257 33.3468Z" fill="#FFC3D0"/>
<path d="M52.238 33.3468C52.238 35.0014 50.7511 36.4905 49.099 36.4905C47.447 36.4905 45.9601 35.0014 45.9601 33.3468C45.9601 31.6922 47.447 30.2031 49.099 30.2031C50.7511 30.2031 52.238 31.6922 52.238 33.3468Z" fill="#F5D79B"/>
<path d="M65.7851 33.3468C65.7851 35.0014 64.2983 36.4905 62.6462 36.4905C60.9941 36.4905 59.5072 35.0014 59.5072 33.3468C59.5072 31.6922 60.9941 30.2031 62.6462 30.2031C64.4635 30.2031 65.7851 31.6922 65.7851 33.3468Z" fill="#6AEBE7"/>
<path d="M73.246 70C73.0967 70 73.022 69.9253 73.022 69.776V60.424C73.022 60.2747 73.0967 60.2 73.246 60.2H74.366C74.4967 60.2 74.59 60.2513 74.646 60.354L78.566 66.766C78.5847 66.8033 78.6033 66.8173 78.622 66.808C78.65 66.7987 78.664 66.7753 78.664 66.738V60.424C78.664 60.2747 78.7387 60.2 78.888 60.2H80.064C80.2133 60.2 80.288 60.2747 80.288 60.424V69.776C80.288 69.9253 80.2133 70 80.064 70H78.916C78.7853 70 78.692 69.9487 78.636 69.846L74.716 63.392C74.6973 63.3547 74.674 63.3407 74.646 63.35C74.6273 63.3593 74.618 63.3827 74.618 63.42L74.632 69.776C74.632 69.9253 74.5573 70 74.408 70H73.246ZM85.6369 70.14C84.9369 70.14 84.3162 70 83.7749 69.72C83.2335 69.4307 82.8135 69.0247 82.5149 68.502C82.2255 67.9793 82.0809 67.3773 82.0809 66.696V63.504C82.0809 62.832 82.2302 62.2393 82.5289 61.726C82.8275 61.2033 83.2429 60.802 83.7749 60.522C84.3162 60.2327 84.9369 60.088 85.6369 60.088C86.3462 60.088 86.9669 60.2327 87.4989 60.522C88.0402 60.802 88.4602 61.2033 88.7589 61.726C89.0575 62.2393 89.2069 62.832 89.2069 63.504V66.696C89.2069 67.3773 89.0575 67.9793 88.7589 68.502C88.4602 69.0247 88.0402 69.4307 87.4989 69.72C86.9669 70 86.3462 70.14 85.6369 70.14ZM85.6369 68.74C86.2249 68.74 86.6962 68.558 87.0509 68.194C87.4055 67.83 87.5829 67.3493 87.5829 66.752V63.49C87.5829 62.8833 87.4055 62.398 87.0509 62.034C86.6962 61.67 86.2249 61.488 85.6369 61.488C85.0582 61.488 84.5915 61.67 84.2369 62.034C83.8822 62.398 83.7049 62.8833 83.7049 63.49V66.752C83.7049 67.3493 83.8822 67.83 84.2369 68.194C84.5915 68.558 85.0582 68.74 85.6369 68.74ZM94.0409 70C93.8916 70 93.8169 69.9253 93.8169 69.776V60.424C93.8169 60.2747 93.8916 60.2 94.0409 60.2H97.4009C98.0636 60.2 98.6469 60.3167 99.1509 60.55C99.6549 60.7833 100.042 61.1193 100.313 61.558C100.593 61.9873 100.733 62.4913 100.733 63.07V67.13C100.733 67.7087 100.593 68.2173 100.313 68.656C100.042 69.0853 99.6549 69.4167 99.1509 69.65C98.6469 69.8833 98.0636 70 97.4009 70H94.0409ZM95.4409 68.516C95.4409 68.572 95.4689 68.6 95.5249 68.6H97.4709C97.9656 68.6 98.3576 68.446 98.6469 68.138C98.9456 67.8207 99.0996 67.4007 99.1089 66.878V63.336C99.1089 62.804 98.9596 62.384 98.6609 62.076C98.3623 61.7587 97.9609 61.6 97.4569 61.6H95.5249C95.4689 61.6 95.4409 61.628 95.4409 61.684V68.516ZM108.138 70C108.008 70 107.924 69.9393 107.886 69.818L107.452 68.376C107.443 68.3293 107.41 68.306 107.354 68.306H103.686C103.63 68.306 103.598 68.3293 103.588 68.376L103.154 69.818C103.117 69.9393 103.033 70 102.902 70H101.628C101.554 70 101.498 69.9767 101.46 69.93C101.432 69.8833 101.428 69.8227 101.446 69.748L104.442 60.382C104.48 60.2607 104.564 60.2 104.694 60.2H106.332C106.463 60.2 106.547 60.2607 106.584 60.382L109.594 69.748C109.604 69.7667 109.608 69.7947 109.608 69.832C109.608 69.944 109.543 70 109.412 70H108.138ZM104.022 66.934C104.013 66.9993 104.036 67.032 104.092 67.032H106.948C107.004 67.032 107.028 66.9993 107.018 66.934L105.576 62.174C105.567 62.1367 105.548 62.118 105.52 62.118C105.502 62.118 105.483 62.1367 105.464 62.174L104.022 66.934ZM116.375 60.2C116.524 60.2 116.599 60.2747 116.599 60.424V61.39C116.599 61.5393 116.524 61.614 116.375 61.614H113.869C113.813 61.614 113.785 61.642 113.785 61.698V69.776C113.785 69.9253 113.71 70 113.561 70H112.385C112.235 70 112.161 69.9253 112.161 69.776V61.698C112.161 61.642 112.133 61.614 112.077 61.614H109.669C109.519 61.614 109.445 61.5393 109.445 61.39V60.424C109.445 60.2747 109.519 60.2 109.669 60.2H116.375ZM123.383 70C123.252 70 123.168 69.9393 123.131 69.818L122.697 68.376C122.687 68.3293 122.655 68.306 122.599 68.306H118.931C118.875 68.306 118.842 68.3293 118.833 68.376L118.399 69.818C118.361 69.9393 118.277 70 118.147 70H116.873C116.798 70 116.742 69.9767 116.705 69.93C116.677 69.8833 116.672 69.8227 116.691 69.748L119.687 60.382C119.724 60.2607 119.808 60.2 119.939 60.2H121.577C121.707 60.2 121.791 60.2607 121.829 60.382L124.839 69.748C124.848 69.7667 124.853 69.7947 124.853 69.832C124.853 69.944 124.787 70 124.657 70H123.383ZM119.267 66.934C119.257 66.9993 119.281 67.032 119.337 67.032H122.193C122.249 67.032 122.272 66.9993 122.263 66.934L120.821 62.174C120.811 62.1367 120.793 62.118 120.765 62.118C120.746 62.118 120.727 62.1367 120.709 62.174L119.267 66.934Z" fill="#E0ECFF"/>
</g>
<defs>
<clipPath id="clip0_3265_7116">
<rect width="195.938" height="114" fill="white"/>
</clipPath>
</defs>
</svg>
