<svg width="48" height="48" viewBox="0 0 48 48" fill="none" xmlns="http://www.w3.org/2000/svg">
<path d="M41.3374 36.3468L24.0002 45.8668L6.66309 36.3468V17.3071L24.0002 7.78711L41.3374 17.3071V36.3468Z" fill="#40526A" fill-opacity="0.6"/>
<path d="M6.66309 17.3071L24.0002 26.8275L41.3374 17.3075L24.0002 7.78711L6.66309 17.3071Z" fill="#202E52" fill-opacity="0.6"/>
<path d="M6.66309 17.313V36.3468L24.0002 45.8668L24.0105 45.8613V26.8271L6.67334 17.3071L6.66309 17.313Z" fill="#777F8B" fill-opacity="0.8"/>
<path d="M41.3371 17.3075L47.0625 23.0325L29.7253 32.5525L24 26.8271L41.3371 17.3075Z" fill="#93A1B8" fill-opacity="0.8"/>
<path d="M6.66284 17.3075L0.9375 23.0325L18.2747 32.5525L24 26.8271L6.66284 17.3075Z" fill="#93A1B8" fill-opacity="0.8"/>
<path d="M41.3371 17.3075L47.0625 11.5825L29.7253 2.0625L24 7.78784L41.3371 17.3075Z" fill="#93A1B8" fill-opacity="0.8"/>
<path d="M6.66284 17.3075L0.9375 11.5825L18.2747 2.0625L24 7.78784L6.66284 17.3075Z" fill="#93A1B8" fill-opacity="0.8"/>
</svg>
