<svg width="79" height="84" viewBox="0 0 79 84" fill="none" xmlns="http://www.w3.org/2000/svg">
<rect x="0.342238" y="9.82425" width="53.6018" height="71.2996" rx="4.5" transform="rotate(-7.90474 0.342238 9.82425)" fill="#93A1B8" fill-opacity="0.28" stroke="#5577FD"/>
<rect x="26.7481" y="0.52717" width="53.6018" height="70.1185" rx="4.5" transform="rotate(14.2733 26.7481 0.52717)" fill="#5577FD" fill-opacity="0.62" stroke="#E0ECFF"/>
<rect x="9.5" y="16.5007" width="54" height="67" rx="4.5" fill="url(#paint0_linear_5504_5259)" stroke="#5577FD"/>
<path d="M18.6633 66.0002C18.5499 66.0002 18.4933 65.9436 18.4933 65.8302V59.1702C18.4933 59.0569 18.5499 59.0002 18.6633 59.0002H19.6933C19.7799 59.0002 19.8466 59.0369 19.8933 59.1102L22.3933 63.2702C22.4066 63.2969 22.4199 63.3069 22.4333 63.3002C22.4533 63.2936 22.4633 63.2769 22.4633 63.2502V59.1702C22.4633 59.0569 22.5199 59.0002 22.6333 59.0002H23.6833C23.7966 59.0002 23.8533 59.0569 23.8533 59.1702V65.8302C23.8533 65.9436 23.7966 66.0002 23.6833 66.0002H22.6633C22.5833 66.0002 22.5166 65.9602 22.4633 65.8802L19.9533 61.6802C19.9399 61.6536 19.9233 61.6436 19.9033 61.6502C19.8899 61.6569 19.8833 61.6736 19.8833 61.7002L19.8933 65.8302C19.8933 65.9436 19.8366 66.0002 19.7233 66.0002H18.6633ZM27.5653 66.1102C27.0453 66.1102 26.5853 66.0036 26.1853 65.7902C25.792 65.5769 25.4853 65.2802 25.2653 64.9002C25.0453 64.5136 24.9353 64.0702 24.9353 63.5702V61.4302C24.9353 60.9369 25.0453 60.5002 25.2653 60.1202C25.4853 59.7402 25.792 59.4469 26.1853 59.2402C26.5853 59.0269 27.0453 58.9202 27.5653 58.9202C28.092 58.9202 28.552 59.0269 28.9453 59.2402C29.3453 59.4469 29.6553 59.7402 29.8753 60.1202C30.0953 60.5002 30.2053 60.9369 30.2053 61.4302V63.5702C30.2053 64.0702 30.0953 64.5136 29.8753 64.9002C29.6553 65.2869 29.3453 65.5869 28.9453 65.8002C28.552 66.0069 28.092 66.1102 27.5653 66.1102ZM27.5653 64.9002C27.932 64.9002 28.2286 64.7836 28.4553 64.5502C28.682 64.3169 28.7953 64.0069 28.7953 63.6202V61.4202C28.7953 61.0336 28.682 60.7236 28.4553 60.4902C28.2353 60.2502 27.9386 60.1302 27.5653 60.1302C27.1986 60.1302 26.902 60.2502 26.6753 60.4902C26.4553 60.7236 26.3453 61.0336 26.3453 61.4202V63.6202C26.3453 64.0069 26.4553 64.3169 26.6753 64.5502C26.902 64.7836 27.1986 64.9002 27.5653 64.9002ZM33.4582 66.0002C33.3449 66.0002 33.2882 65.9436 33.2882 65.8302V59.1702C33.2882 59.0569 33.3449 59.0002 33.4582 59.0002H35.9082C36.4082 59.0002 36.8449 59.0902 37.2182 59.2702C37.5982 59.4436 37.8915 59.6902 38.0982 60.0102C38.3049 60.3302 38.4082 60.7002 38.4082 61.1202V63.8802C38.4082 64.3002 38.3049 64.6702 38.0982 64.9902C37.8915 65.3102 37.5982 65.5602 37.2182 65.7402C36.8449 65.9136 36.4082 66.0002 35.9082 66.0002H33.4582ZM34.6982 64.7302C34.6982 64.7702 34.7182 64.7902 34.7582 64.7902H35.9582C36.2649 64.7902 36.5115 64.6869 36.6982 64.4802C36.8915 64.2736 36.9915 63.9969 36.9982 63.6502V61.3502C36.9982 61.0036 36.9015 60.7269 36.7082 60.5202C36.5215 60.3136 36.2682 60.2102 35.9482 60.2102H34.7582C34.7182 60.2102 34.6982 60.2302 34.6982 60.2702V64.7302ZM43.589 66.0002C43.4956 66.0002 43.4323 65.9536 43.399 65.8602L43.119 64.9302C43.1123 64.8969 43.0923 64.8802 43.059 64.8802H40.609C40.5756 64.8802 40.5556 64.8969 40.549 64.9302L40.269 65.8602C40.2356 65.9536 40.1723 66.0002 40.079 66.0002H38.919C38.859 66.0002 38.8156 65.9836 38.789 65.9502C38.7623 65.9102 38.759 65.8636 38.779 65.8102L40.909 59.1402C40.9423 59.0469 41.0056 59.0002 41.099 59.0002H42.569C42.6623 59.0002 42.7256 59.0469 42.759 59.1402L44.889 65.8102C44.8956 65.8236 44.899 65.8436 44.899 65.8702C44.899 65.9102 44.8856 65.9436 44.859 65.9702C44.8323 65.9902 44.7956 66.0002 44.749 66.0002H43.589ZM40.899 63.7202C40.8923 63.7669 40.909 63.7902 40.949 63.7902H42.719C42.759 63.7902 42.7756 63.7669 42.769 63.7202L41.869 60.6702C41.8623 60.6436 41.849 60.6302 41.829 60.6302C41.8156 60.6302 41.8023 60.6436 41.789 60.6702L40.899 63.7202ZM49.7186 59.0002C49.8319 59.0002 49.8886 59.0569 49.8886 59.1702V60.0502C49.8886 60.1636 49.8319 60.2202 49.7186 60.2202H47.9886C47.9486 60.2202 47.9286 60.2402 47.9286 60.2802V65.8302C47.9286 65.9436 47.8719 66.0002 47.7586 66.0002H46.6886C46.5752 66.0002 46.5186 65.9436 46.5186 65.8302V60.2802C46.5186 60.2402 46.4986 60.2202 46.4586 60.2202H44.7786C44.6652 60.2202 44.6086 60.1636 44.6086 60.0502V59.1702C44.6086 59.0569 44.6652 59.0002 44.7786 59.0002H49.7186ZM54.6437 66.0002C54.5503 66.0002 54.487 65.9536 54.4537 65.8602L54.1737 64.9302C54.167 64.8969 54.147 64.8802 54.1137 64.8802H51.6637C51.6303 64.8802 51.6103 64.8969 51.6037 64.9302L51.3237 65.8602C51.2903 65.9536 51.227 66.0002 51.1337 66.0002H49.9737C49.9137 66.0002 49.8703 65.9836 49.8437 65.9502C49.817 65.9102 49.8137 65.8636 49.8337 65.8102L51.9637 59.1402C51.997 59.0469 52.0603 59.0002 52.1537 59.0002H53.6237C53.717 59.0002 53.7803 59.0469 53.8137 59.1402L55.9437 65.8102C55.9503 65.8236 55.9537 65.8436 55.9537 65.8702C55.9537 65.9102 55.9403 65.9436 55.9137 65.9702C55.887 65.9902 55.8503 66.0002 55.8037 66.0002H54.6437ZM51.9537 63.7202C51.947 63.7669 51.9637 63.7902 52.0037 63.7902H53.7737C53.8137 63.7902 53.8303 63.7669 53.8237 63.7202L52.9237 60.6702C52.917 60.6436 52.9037 60.6302 52.8837 60.6302C52.8703 60.6302 52.857 60.6436 52.8437 60.6702L51.9537 63.7202Z" fill="#5577FD" fill-opacity="0.5"/>
<g opacity="0.5">
<path d="M41.6376 40.3626C41.1462 39.8713 40.48 39.5949 39.7851 39.594C39.0902 39.5931 38.4233 39.8677 37.9306 40.3577L36.975 41.3593C36.8527 41.4735 36.6915 41.5368 36.5242 41.5361C36.3569 41.5354 36.1962 41.4709 36.0749 41.3557C35.9536 41.2404 35.8809 41.0832 35.8716 40.9162C35.8623 40.7492 35.9172 40.5849 36.025 40.457L36.9864 39.4488C36.9898 39.445 36.9934 39.4415 36.9971 39.4381C37.7376 38.7096 38.7359 38.3033 39.7746 38.3075C40.8133 38.3117 41.8083 38.7262 42.5428 39.4607C43.2773 40.1952 43.6918 41.1902 43.696 42.2289C43.7003 43.2676 43.2939 44.266 42.5654 45.0064C42.562 45.0102 42.5585 45.0137 42.5547 45.0171L41.5466 45.9785C41.4186 46.0863 41.2544 46.1412 41.0873 46.1319C40.9203 46.1227 40.7631 46.0499 40.6479 45.9286C40.5326 45.8073 40.4681 45.6466 40.4674 45.4793C40.4667 45.312 40.53 45.1508 40.6442 45.0286L41.6458 44.0729C42.1364 43.5796 42.4111 42.9118 42.4095 42.2161C42.408 41.5204 42.1304 40.8537 41.6376 40.3626ZM36.025 49.6412L35.0694 50.6428C34.5747 51.1232 33.9109 51.3897 33.2214 51.3846C32.5318 51.3796 31.872 51.1034 31.3844 50.6159C30.8968 50.1283 30.6207 49.4684 30.6156 48.7789C30.6106 48.0894 30.8771 47.4255 31.3575 46.9309L32.3591 45.9752C32.4733 45.853 32.5365 45.6917 32.5359 45.5244C32.5352 45.3571 32.4706 45.1964 32.3554 45.0751C32.2402 44.9538 32.083 44.8811 31.916 44.8719C31.7489 44.8626 31.5846 44.9175 31.4567 45.0253L30.4453 45.9867C30.4415 45.99 30.438 45.9936 30.4346 45.9974C29.7061 46.7378 29.2997 47.7361 29.304 48.7749C29.3082 49.8136 29.7227 50.8086 30.4572 51.5431C31.1917 52.2775 32.1867 52.6921 33.2254 52.6963C34.2641 52.7005 35.2624 52.2941 36.0029 51.5656C36.0066 51.5623 36.0102 51.5587 36.0136 51.555L36.975 50.5468C37.0403 50.4857 37.0925 50.4119 37.1283 50.3299C37.1641 50.2479 37.1827 50.1595 37.1831 50.07C37.1835 49.9806 37.1655 49.892 37.1304 49.8097C37.0953 49.7274 37.0437 49.6532 36.9788 49.5916C36.914 49.53 36.8372 49.4822 36.7532 49.4514C36.6692 49.4205 36.5798 49.4072 36.4905 49.4121C36.4012 49.4171 36.3138 49.4402 36.2338 49.4802C36.1537 49.5202 36.0827 49.5761 36.025 49.6445V49.6412ZM43.0625 47.469H41.0938C40.9197 47.469 40.7528 47.5381 40.6297 47.6612C40.5066 47.7843 40.4375 47.9512 40.4375 48.1252C40.4375 48.2993 40.5066 48.4662 40.6297 48.5893C40.7528 48.7124 40.9197 48.7815 41.0938 48.7815H43.0625C43.2365 48.7815 43.4035 48.7124 43.5265 48.5893C43.6496 48.4662 43.7188 48.2993 43.7188 48.1252C43.7188 47.9512 43.6496 47.7843 43.5265 47.6612C43.4035 47.5381 43.2365 47.469 43.0625 47.469ZM29.9375 43.5315H31.9062C32.0803 43.5315 32.2472 43.4624 32.3703 43.3393C32.4934 43.2162 32.5625 43.0493 32.5625 42.8752C32.5625 42.7012 32.4934 42.5343 32.3703 42.4112C32.2472 42.2881 32.0803 42.219 31.9062 42.219H29.9375C29.7635 42.219 29.5965 42.2881 29.4735 42.4112C29.3504 42.5343 29.2812 42.7012 29.2812 42.8752C29.2812 43.0493 29.3504 43.2162 29.4735 43.3393C29.5965 43.4624 29.7635 43.5315 29.9375 43.5315ZM39.125 49.4377C38.951 49.4377 38.784 49.5069 38.661 49.63C38.5379 49.753 38.4688 49.9199 38.4688 50.094V52.0627C38.4688 52.2368 38.5379 52.4037 38.661 52.5268C38.784 52.6499 38.951 52.719 39.125 52.719C39.299 52.719 39.466 52.6499 39.589 52.5268C39.7121 52.4037 39.7812 52.2368 39.7812 52.0627V50.094C39.7812 49.9199 39.7121 49.753 39.589 49.63C39.466 49.5069 39.299 49.4377 39.125 49.4377ZM33.875 41.5627C34.049 41.5627 34.216 41.4936 34.339 41.3705C34.4621 41.2475 34.5312 41.0805 34.5312 40.9065V38.9377C34.5312 38.7637 34.4621 38.5968 34.339 38.4737C34.216 38.3506 34.049 38.2815 33.875 38.2815C33.701 38.2815 33.534 38.3506 33.411 38.4737C33.2879 38.5968 33.2188 38.7637 33.2188 38.9377V40.9065C33.2188 41.0805 33.2879 41.2475 33.411 41.3705C33.534 41.4936 33.701 41.5627 33.875 41.5627Z" fill="#5577FD"/>
</g>
<defs>
<linearGradient id="paint0_linear_5504_5259" x1="10.1057" y1="17.0007" x2="56.2634" y2="87.4817" gradientUnits="userSpaceOnUse">
<stop stop-color="#EDF4FF"/>
<stop offset="1" stop-color="#C8DCFF"/>
</linearGradient>
</defs>
</svg>
