<svg width="14" height="8" viewBox="0 0 14 8" fill="none" xmlns="http://www.w3.org/2000/svg">
<path d="M0.499632 6.47255H1.49277C1.66497 6.47719 1.83613 6.40523 1.93327 6.2706L2.99746 4.80077L4.51622 7.74135C4.58029 7.86663 4.70643 7.95266 4.84965 7.98445C5.10995 8.04616 5.38225 7.919 5.4613 7.6946L7.51364 1.90322L9.00936 6.12668C9.05644 6.32492 9.25666 6.47263 9.49893 6.47263H11.9998C12.0429 6.47263 12.0839 6.46791 12.1249 6.45857C12.2951 6.72412 12.6224 6.90461 12.9999 6.90461C13.5525 6.90461 14 6.51841 14 6.04155C14 5.56381 13.5525 5.1776 12.9999 5.1776C12.6235 5.1776 12.2961 5.35803 12.1249 5.62365C12.0839 5.6143 12.0428 5.60959 11.9998 5.60959H9.87234L7.99317 0.305232C7.91308 0.0780538 7.63371 -0.051044 7.3694 0.0191246C7.27834 0.0434396 7.19921 0.0892933 7.14113 0.147252C7.09213 0.192136 7.05503 0.247273 7.03196 0.309949L4.89352 6.34914L3.5411 3.72827C3.51706 3.67501 3.48206 3.62452 3.43298 3.58241C3.43097 3.57964 3.42801 3.57777 3.426 3.5768L3.41695 3.56841C3.27575 3.45246 3.05951 3.41321 2.86834 3.488C2.7602 3.52914 2.67708 3.6002 2.6271 3.68533L1.23246 5.60959H0.499616C0.223302 5.60959 0 5.80309 0 6.04155C1.59773e-05 6.27905 0.224356 6.47255 0.499632 6.47255Z" fill="white"/>
</svg>
