<svg width="48" height="43" viewBox="0 0 48 43" fill="none" xmlns="http://www.w3.org/2000/svg">
<path d="M0.801654 17.6039C0.672534 17.5963 0.543548 17.6209 0.426269 17.6754C0.30899 17.73 0.207088 17.8128 0.129705 17.9164C-0.20627 18.4087 0.180492 18.9009 0.496933 19.2603C1.39938 20.2917 3.97388 23.6944 4.45831 24.2687C4.53144 24.3614 4.62462 24.4363 4.73085 24.4878C4.83709 24.5393 4.9536 24.566 5.07166 24.566C5.18971 24.566 5.30623 24.5393 5.41246 24.4878C5.51869 24.4363 5.61187 24.3614 5.68501 24.2687C6.16162 23.7179 8.67752 20.4753 9.64247 19.4322C9.97845 19.0416 10.4785 18.5337 10.123 17.9946C10.0465 17.8912 9.94617 17.8077 9.83057 17.7513C9.71496 17.6948 9.58746 17.6671 9.45886 17.6703L7.03281 17.6508C7.78482 14.0119 9.68299 10.7096 12.4489 8.22836C15.2149 5.74709 18.7031 4.21733 22.402 3.86343C26.101 3.50953 29.816 4.3501 33.0022 6.26189C36.1885 8.17367 38.6784 11.0561 40.1068 14.4864L43.5486 13.0565C41.8012 8.81735 38.7202 5.26289 34.7721 2.93125C30.824 0.599615 26.2238 -0.382238 21.6678 0.134335C17.1118 0.650909 12.8481 2.63778 9.52224 5.79416C6.19639 8.95054 3.98944 13.1046 3.23552 17.6273L0.801654 17.6039ZM22.0071 12.2244V10.189H25.4294V12.1814C26.9956 12.266 28.552 12.4817 30.0822 12.826V16.4788C29.2618 16.4163 28.3385 16.3655 27.3124 16.3264C26.2862 16.2874 25.3538 16.2678 24.5152 16.2678C24.0668 16.2641 23.6187 16.2954 23.1752 16.3616C21.3781 16.6507 21.3586 19.0103 23.6831 19.0103H25.4333C26.5098 18.9735 27.5801 19.1889 28.5586 19.6393C29.3367 20.0102 29.9877 20.6028 30.4299 21.3426C30.8595 22.0864 31.0783 22.9333 31.0628 23.7921V24.5734C31.0628 26.0684 30.7672 27.2117 30.176 28.0035C29.553 28.8164 28.6613 29.3814 27.6601 29.5974C26.9351 29.8062 26.1899 29.9372 25.4372 29.9881V32.1954H22.0071V29.9725C20.4363 29.904 18.8757 29.6856 17.3464 29.32V25.6751C19.374 25.8353 21.4446 25.89 23.476 25.89C23.9698 25.8991 24.4632 25.8585 24.9489 25.7689C26.7616 25.4056 26.4685 23.3584 24.734 23.3584H23.3159C21.2453 23.3584 19.6748 22.9561 18.6044 22.1513C17.534 21.3465 16.9988 19.9974 16.9988 18.104V17.3226C16.9988 15.5881 17.5874 14.2858 18.7646 13.4159C19.7103 12.7165 20.8342 12.2981 22.0071 12.2088V12.2244ZM44.9003 24.3703C44.191 29.0573 41.9239 33.3689 38.4643 36.6097C35.0048 39.8506 30.5546 41.8318 25.8313 42.234C21.108 42.6361 16.3869 41.4357 12.4293 38.8264C8.4717 36.217 5.50826 32.3508 4.01685 27.8511L7.53287 26.6791C8.75336 30.3227 11.1463 33.4594 14.338 35.5992C17.5296 37.7389 21.3402 38.7612 25.1742 38.5064C29.0083 38.2516 32.65 36.7339 35.5304 34.1906C38.4108 31.6473 40.3676 28.2215 41.0952 24.4484L38.5558 24.5031C38.4296 24.5101 38.3037 24.4864 38.1887 24.434C38.0737 24.3816 37.9731 24.3021 37.8956 24.2023C37.5049 23.6749 38.0089 23.1319 38.3331 22.7529C39.2668 21.6786 41.6851 18.3618 42.1422 17.7953C42.2133 17.7016 42.3048 17.6252 42.4096 17.5717C42.5145 17.5183 42.63 17.4892 42.7477 17.4867C42.8661 17.4841 42.9835 17.5084 43.0911 17.5578C43.1987 17.6072 43.2937 17.6804 43.3689 17.7719C43.8728 18.3306 46.5489 21.6551 47.4826 22.6592C47.8068 23.0068 48.2092 23.4874 47.8733 23.9874C47.7992 24.0942 47.6997 24.1809 47.5838 24.2396C47.4678 24.2982 47.339 24.327 47.2091 24.3234L44.8846 24.3703H44.9003Z" fill="#E0ECFF"/>
</svg>
