<svg width="20" height="21" viewBox="0 0 20 21" fill="none" xmlns="http://www.w3.org/2000/svg">
<path d="M10 0C15.5122 0 20.0102 4.50204 20 10.0061C19.9898 15.5306 15.4979 20.0184 9.99388 20.0041C4.47347 19.9898 0.00817435 15.5224 1.1099e-05 10.0041C-0.00815216 4.49796 4.48776 0 10 0ZM19.0551 10C19.0551 5.01224 15.0143 0.959183 10.0041 0.948979C5.01021 0.938775 0.95103 4.99184 0.944908 10C0.938785 14.9877 4.99184 19.0388 9.99388 19.0531C14.9755 19.0673 19.0571 14.9918 19.0551 10Z" fill="white"/>
<path d="M10.5577 13.2329C10.1312 13.2329 9.71487 13.2329 9.28834 13.2329C9.28834 12.9799 9.27406 12.7309 9.29038 12.4839C9.32303 11.986 9.43936 11.5064 9.69854 11.0717C9.90058 10.7329 10.1598 10.4411 10.4475 10.1737C10.8047 9.84108 11.1638 9.51251 11.5149 9.17169C11.721 8.97169 11.9026 8.7472 11.9985 8.46965C12.2271 7.80231 12.0802 7.20843 11.6373 6.67782C10.9006 5.79823 9.66997 5.76762 8.91487 6.20843C8.43936 6.48598 8.15365 6.91047 7.98834 7.42272C7.91283 7.65129 7.86181 7.88802 7.79447 8.13904C7.35569 8.08802 6.90671 8.03292 6.44141 7.97782C6.45977 7.86149 6.47202 7.75333 6.49243 7.64517C6.60875 7.04109 6.81692 6.47782 7.21283 5.99619C7.69242 5.40844 8.31895 5.06558 9.05569 4.92476C9.82507 4.77782 10.5924 4.79211 11.3414 5.03701C12.2985 5.34721 13.0067 5.95537 13.3292 6.92272C13.6373 7.85129 13.4863 8.72884 12.8781 9.51455C12.4924 10.0125 12.0128 10.4166 11.5618 10.8492C11.3638 11.039 11.1618 11.2309 10.9904 11.4452C10.7353 11.7615 10.6373 12.1452 10.6067 12.5452C10.5843 12.7676 10.5741 12.9941 10.5577 13.2329Z" fill="white"/>
<path d="M9.20312 15.9201C9.20312 15.4181 9.20312 14.9221 9.20312 14.416C9.70517 14.416 10.2031 14.416 10.7072 14.416C10.7072 14.916 10.7072 15.414 10.7072 15.9201C10.2092 15.9201 9.70925 15.9201 9.20312 15.9201Z" fill="white"/>
</svg>
