<svg width="13" height="24" viewBox="0 0 13 24" fill="none" xmlns="http://www.w3.org/2000/svg">
<path d="M4.375 21.8418C4.375 22.8774 5.21447 23.7168 6.25002 23.7168C7.28556 23.7168 8.12503 22.8774 8.12503 21.8418C8.12503 20.8063 7.28556 19.9668 6.25002 19.9668C5.21447 19.9668 4.375 20.8063 4.375 21.8418Z" fill="#E0ECFF"/>
<path d="M6.25003 17.52C5.56001 17.52 5 16.96 5 16.27V14.1562C5 12.1112 6.56249 10.5487 7.94248 9.17001C8.9537 8.15751 10 7.11249 10 6.27873C10 4.195 8.3175 2.5 6.25003 2.5C4.14756 2.5 2.50007 4.1225 2.50007 6.19373C2.50007 6.88375 1.94006 7.44369 1.25003 7.44369C0.560005 7.44369 0 6.88369 0 6.19373C0 2.77873 2.80372 0 6.25003 0C9.69635 0 12.5001 2.81622 12.5001 6.27873C12.5001 8.14998 11.0813 9.56747 9.71005 10.9387C8.62256 12.0237 7.50007 13.1462 7.50007 14.155V16.2687C7.50007 16.9587 6.94006 17.52 6.25003 17.52Z" fill="#E0ECFF"/>
</svg>
