<svg width="7" height="7" viewBox="0 0 7 7" fill="none" xmlns="http://www.w3.org/2000/svg">
<path d="M6.0008 1.59455C5.92621 1.59455 5.85467 1.62418 5.80192 1.67692C5.74918 1.72967 5.71955 1.80121 5.71955 1.8758V5.69705L0.949547 0.927047C0.896232 0.877367 0.825714 0.850321 0.752851 0.851606C0.679988 0.852892 0.610469 0.882409 0.558939 0.933939C0.507409 0.985469 0.477892 1.05499 0.476606 1.12785C0.475321 1.20071 0.502367 1.27123 0.552047 1.32455L5.32205 6.09455H1.5008C1.42621 6.09455 1.35467 6.12418 1.30192 6.17692C1.24918 6.22967 1.21955 6.30121 1.21955 6.3758C1.21955 6.45039 1.24918 6.52193 1.30192 6.57467C1.35467 6.62742 1.42621 6.65705 1.5008 6.65705H6.0008C6.07539 6.65705 6.14693 6.62742 6.19967 6.57467C6.25242 6.52193 6.28205 6.45039 6.28205 6.3758V1.8758C6.28205 1.80121 6.25242 1.72967 6.19967 1.67692C6.14693 1.62418 6.07539 1.59455 6.0008 1.59455Z" fill="#CE5E5E"/>
</svg>
