<svg width="22" height="12" viewBox="0 0 22 12" fill="none" xmlns="http://www.w3.org/2000/svg">
<path d="M0.684597 10.688C0.684597 10.8689 0.756462 11.0424 0.88438 11.1703C1.0123 11.2983 1.18579 11.3701 1.3667 11.3701H6.99405C7.17496 11.3701 7.34845 11.2983 7.47637 11.1703C7.60429 11.0424 7.67615 10.8689 7.67615 10.688C7.67615 10.5071 7.60429 10.3336 7.47637 10.2057C7.34845 10.0778 7.17496 10.0059 6.99405 10.0059H3.02762L8.68567 4.41267L13.8458 8.08921C13.9782 8.18356 14.14 8.2275 14.3019 8.21312C14.4639 8.19874 14.6154 8.12697 14.7291 8.01076L20.9533 1.61606C21.0696 1.4849 21.1309 1.31402 21.1246 1.13885C21.1182 0.963685 21.0447 0.797687 20.9192 0.67529C20.7937 0.552894 20.626 0.483494 20.4507 0.481489C20.2754 0.479486 20.1061 0.545029 19.9779 0.664524L14.1595 6.63974L9.00966 2.97003C8.87859 2.87665 8.71873 2.83262 8.55833 2.84573C8.39793 2.85883 8.24733 2.92823 8.13316 3.04165L2.0488 9.05438V5.06067C2.0488 4.87977 1.97694 4.70627 1.84902 4.57835C1.7211 4.45043 1.54761 4.37857 1.3667 4.37857C1.18579 4.37857 1.0123 4.45043 0.88438 4.57835C0.756462 4.70627 0.684597 4.87977 0.684597 5.06067V10.688Z" fill="#CE5E5E"/>
</svg>
