<svg width="16" height="8" viewBox="0 0 16 8" fill="none" xmlns="http://www.w3.org/2000/svg">
<path d="M15.3534 0.617821C15.3534 0.497218 15.3024 0.381554 15.2116 0.296275C15.1209 0.210995 14.9978 0.163086 14.8694 0.163086H10.8764C10.7481 0.163086 10.625 0.210995 10.5342 0.296275C10.4434 0.381554 10.3924 0.497218 10.3924 0.617821C10.3924 0.738424 10.4434 0.854087 10.5342 0.939367C10.625 1.02465 10.7481 1.07256 10.8764 1.07256H13.6909L9.67613 4.80138L6.01469 2.35036C5.92073 2.28746 5.80595 2.25816 5.69103 2.26775C5.57611 2.27734 5.46861 2.32518 5.38792 2.40265L0.971451 6.66579C0.888941 6.75323 0.845424 6.86715 0.849927 6.98393C0.85443 7.10071 0.906607 7.21137 0.995635 7.29297C1.08466 7.37457 1.20371 7.42084 1.32807 7.42217C1.45244 7.42351 1.57258 7.37981 1.66357 7.30015L5.79206 3.31667L9.44623 5.76314C9.53923 5.8254 9.65267 5.85475 9.76648 5.84601C9.88029 5.83727 9.98715 5.79101 10.0682 5.7154L14.3854 1.70691V4.36938C14.3854 4.48999 14.4364 4.60565 14.5272 4.69093C14.6179 4.77621 14.741 4.82412 14.8694 4.82412C14.9978 4.82412 15.1209 4.77621 15.2116 4.69093C15.3024 4.60565 15.3534 4.48999 15.3534 4.36938V0.617821Z" fill="#59AE99"/>
</svg>
