<svg width="29" height="28" viewBox="0 0 29 28" fill="none" xmlns="http://www.w3.org/2000/svg">
<g clip-path="url(#clip0_1641_70630)">
<path d="M28.431 14C28.431 6.26801 22.1712 0 14.4494 0C6.72756 0 0.467773 6.26801 0.467773 14C0.467773 21.732 6.72756 28 14.4494 28C22.1712 28 28.431 21.732 28.431 14Z" fill="#8247E5"/>
<path d="M19.032 10.9482C18.6979 10.7562 18.2683 10.7562 17.8865 10.9482L15.2138 12.5323L13.4001 13.5404L10.7751 15.1245C10.441 15.3165 10.0115 15.3165 9.62968 15.1245L7.5774 13.8764C7.24332 13.6844 7.00468 13.3004 7.00468 12.8684V10.4682C7.00468 10.0842 7.19559 9.70016 7.5774 9.46014L9.62968 8.26005C9.96377 8.06805 10.3933 8.06805 10.7751 8.26005L12.8274 9.50815C13.1615 9.70016 13.4001 10.0842 13.4001 10.5162V12.1003L15.2138 11.0443V9.41214C15.2138 9.0281 15.0229 8.64409 14.641 8.40406L10.8229 6.14793C10.4888 5.9559 10.0592 5.9559 9.67741 6.14793L5.76376 8.45208C5.38195 8.64409 5.19104 9.0281 5.19104 9.41214V13.9244C5.19104 14.3085 5.38195 14.6925 5.76376 14.9325L9.62968 17.1887C9.96377 17.3807 10.3933 17.3807 10.7751 17.1887L13.4001 15.6526L15.2138 14.5965L17.8388 13.0604C18.1729 12.8684 18.6024 12.8684 18.9842 13.0604L21.0366 14.2605C21.3706 14.4525 21.6093 14.8365 21.6093 15.2685V17.6687C21.6093 18.0527 21.4182 18.4367 21.0366 18.6768L19.032 19.8769C18.6979 20.0689 18.2683 20.0689 17.8865 19.8769L15.8342 18.6768C15.5001 18.4847 15.2615 18.1007 15.2615 17.6687V16.1326L13.4479 17.1887V18.7728C13.4479 19.1569 13.6388 19.5409 14.0206 19.7808L17.8865 22.0371C18.2206 22.2289 18.6501 22.2289 19.032 22.0371L22.8978 19.7808C23.2319 19.5888 23.4705 19.2047 23.4705 18.7728V14.2125C23.4705 13.8284 23.2797 13.4444 22.8978 13.2044L19.032 10.9482Z" fill="white"/>
</g>
<defs>
<clipPath id="clip0_1641_70630">
<rect width="27.9633" height="28" fill="white" transform="translate(0.467773)"/>
</clipPath>
</defs>
</svg>
