<svg width="29" height="25" viewBox="0 0 29 25" fill="none" xmlns="http://www.w3.org/2000/svg">
<path d="M20.9508 17.6L27.6438 13.736C27.9978 13.5314 28.218 13.1504 28.218 12.7412V5.01202C28.218 4.60343 27.9978 4.22183 27.6438 4.01722L20.9508 0.153225C20.5968 -0.0513749 20.1564 -0.0507749 19.8024 0.153225L13.1094 4.01722C12.7554 4.22183 12.5352 4.60283 12.5352 5.01202V18.8234L7.842 21.5324L3.1488 18.8234V13.4036L7.842 10.6946L10.938 12.4814V8.84602L8.4162 7.39042C8.2422 7.29023 8.0436 7.23742 7.842 7.23742C7.6404 7.23742 7.4418 7.29023 7.2678 7.39042L0.5742 11.255C0.2202 11.4596 0 11.8406 0 12.2498V19.9784C0 20.387 0.2202 20.7686 0.5742 20.9732L7.2672 24.8378C7.6212 25.0418 8.061 25.0418 8.4156 24.8378L15.1086 20.9738C15.4626 20.7692 15.6828 20.3876 15.6828 19.979V6.16762L15.7674 6.11902L20.376 3.45863L25.0692 6.16823V11.5874L20.376 14.297L17.2848 12.5126V16.148L19.8018 17.6018C20.1558 17.8058 20.5962 17.8058 20.9502 17.6018L20.9508 17.6Z" fill="url(#paint0_linear_1781_841)"/>
<defs>
<linearGradient id="paint0_linear_1781_841" x1="2.3988" y1="21.0338" x2="26.6508" y2="3.35002" gradientUnits="userSpaceOnUse">
<stop stop-color="#A726C1"/>
<stop offset="0.88" stop-color="#803BDF"/>
<stop offset="1" stop-color="#7B3FE4"/>
</linearGradient>
</defs>
</svg>
