<svg width="32" height="33" viewBox="0 0 32 33" fill="none" xmlns="http://www.w3.org/2000/svg">
<path d="M28.085 32.3914H3.91504C1.8999 32.3914 0.260742 30.7522 0.260742 28.7371V12.3113C0.260742 10.2961 1.8999 8.65698 3.91504 8.65698H9.21778C9.8877 8.65698 10.4307 9.19995 10.4307 9.86987C10.4307 10.5398 9.8877 11.0828 9.21778 11.0828H3.91504C3.23779 11.0828 2.68652 11.634 2.68652 12.3113V28.7371C2.68652 29.4143 3.23779 29.9656 3.91504 29.9656H28.085C28.7622 29.9656 29.3135 29.4143 29.3135 28.7371V12.3113C29.3135 11.634 28.7622 11.0828 28.085 11.0828H22.7666C22.0967 11.0828 21.5537 10.5398 21.5537 9.86987C21.5537 9.19995 22.0967 8.65698 22.7666 8.65698H28.085C30.1001 8.65698 31.7393 10.2961 31.7393 12.3113V28.7371C31.7393 30.7522 30.1001 32.3914 28.085 32.3914Z" fill="white"/>
<path d="M25.814 17.3816H6.18604C5.51611 17.3816 4.97314 16.8386 4.97314 16.1687C4.97314 15.4988 5.51611 14.9558 6.18604 14.9558H25.814C26.4839 14.9558 27.0269 15.4988 27.0269 16.1687C27.0269 16.8386 26.4839 17.3816 25.814 17.3816Z" fill="white"/>
<path d="M21.4316 17.3904H10.5684C9.36084 17.3904 8.37891 16.408 8.37891 15.2009V3.06763C8.37891 1.86011 9.36133 0.878174 10.5684 0.878174H21.4321C22.6397 0.878174 23.6216 1.8606 23.6216 3.06763V15.2009C23.6216 16.4084 22.6392 17.3904 21.4316 17.3904ZM10.8047 14.9646H21.1953V3.30396H10.8047V14.9646Z" fill="white"/>
<path d="M15.3564 12.6165L12.2612 10.093C11.7422 9.66968 11.6641 8.90552 12.0874 8.38648C12.5107 7.86743 13.2749 7.78931 13.7939 8.21265L15.1904 9.35132L18.1143 6.42749C18.5879 5.95386 19.356 5.95386 19.8296 6.42749C20.3032 6.90112 20.3032 7.66919 19.8296 8.14282L15.3564 12.6165V12.6165Z" fill="#CD7A37"/>
</svg>
