<svg width="40" height="41" viewBox="0 0 40 41" fill="none" xmlns="http://www.w3.org/2000/svg">
<path d="M40 40.5L0 0.5H21.7284L40 17.5732V40.5Z" fill="#CD7A37"/>
<path d="M17.1311 10.4801C17.0591 10.4079 17.0596 10.3362 17.1327 10.265L21.4273 6.08362C21.5004 6.01246 21.573 6.01299 21.645 6.08519L22.2998 6.74139C22.3549 6.79661 22.3736 6.8621 22.356 6.93787L21.2627 11.1424C21.254 11.1676 21.256 11.1824 21.2688 11.1867C21.2858 11.1953 21.3029 11.1912 21.3201 11.1744L23.9511 8.61286C24.0241 8.54171 24.0967 8.54223 24.1687 8.61443L24.8362 9.28338C24.9083 9.35558 24.9078 9.42726 24.8347 9.49841L20.5401 13.6798C20.467 13.751 20.3944 13.7505 20.3224 13.6783L19.6739 13.0284C19.6231 12.9775 19.6065 12.9099 19.6242 12.8257L20.7369 8.58964C20.7456 8.56441 20.7415 8.54751 20.7245 8.53896C20.7117 8.53465 20.6967 8.54086 20.6795 8.55761L18.0227 11.157C17.9496 11.2281 17.877 11.2276 17.805 11.1554L17.1311 10.4801ZM28.1028 13.8821C28.0297 13.9533 27.9571 13.9527 27.8851 13.8805L25.8381 11.8291C25.8127 11.8036 25.7871 11.8034 25.7613 11.8285L24.7747 12.7891C24.7489 12.8143 24.7487 12.8396 24.7741 12.865L26.1028 14.1965C26.1748 14.2688 26.1743 14.3404 26.1012 14.4116L25.5402 14.9578C25.4671 15.029 25.3946 15.0284 25.3225 14.9562L23.9939 13.6247C23.9685 13.5992 23.9429 13.5991 23.9171 13.6242L22.8853 14.6287C22.8595 14.6538 22.8593 14.6791 22.8848 14.7046L24.9317 16.756C25.0038 16.8282 25.0033 16.8999 24.9302 16.9711L24.3692 17.5173C24.2961 17.5884 24.2235 17.5879 24.1515 17.5157L21.2781 14.6361C21.2061 14.5639 21.2066 14.4922 21.2797 14.421L25.5743 10.2396C25.6474 10.1685 25.7199 10.169 25.792 10.2412L28.6654 13.1208C28.7374 13.193 28.7369 13.2647 28.6638 13.3359L28.1028 13.8821ZM25.8923 19.2603C25.8245 19.1924 25.8165 19.1206 25.8683 19.0451L29.044 13.7424C29.0484 13.7298 29.057 13.7172 29.0699 13.7047C29.1301 13.6461 29.1941 13.6507 29.2619 13.7187L29.9866 14.445C30.0502 14.5087 30.0561 14.5783 30.0043 14.6538L28.029 17.7578C28.016 17.7788 28.0159 17.7956 28.0286 17.8084C28.0413 17.8211 28.0584 17.8212 28.0798 17.8087L31.2249 15.877C31.3021 15.827 31.3725 15.8338 31.436 15.8975L32.1544 16.6175C32.2222 16.6854 32.2302 16.7572 32.1784 16.8327L30.2285 19.9621C30.2155 19.9831 30.2133 19.9978 30.2218 20.0063C30.2345 20.0191 30.2516 20.0192 30.273 20.0067L33.418 18.075C33.4952 18.025 33.5656 18.0318 33.6292 18.0955L34.3221 18.7899C34.3603 18.8282 34.3728 18.8662 34.3597 18.9041C34.3552 18.942 34.3315 18.9734 34.2886 18.9984L28.9705 22.1541C28.8933 22.2042 28.8208 22.1952 28.753 22.1272L28.0537 21.4264C27.9859 21.3585 27.9779 21.2867 28.0296 21.2112L30.1345 17.9058C30.1475 17.8848 30.1476 17.868 30.1349 17.8552C30.1222 17.8425 30.1051 17.8424 30.0837 17.8548L26.7519 19.9307C26.6747 19.9807 26.6043 19.9739 26.5407 19.9102L25.8923 19.2603Z" fill="white"/>
</svg>
