<svg width="55" height="55" viewBox="0 0 55 55" fill="none" xmlns="http://www.w3.org/2000/svg">
<g clip-path="url(#clip0_1017_2097)">
<path d="M48.8698 55.5403H6.1302C2.7423 55.5403 0 52.7708 0 49.3492V6.19109C0 2.76954 2.7423 0 6.1302 0H48.8698C52.2577 0 55 2.76954 55 6.19109V49.3552C55 52.7708 52.2577 55.5403 48.8698 55.5403Z" fill="#2564F4"/>
<circle cx="27.4992" cy="27.5002" r="22.55" fill="white"/>
<path d="M27.5 3.4375C40.7894 3.4375 51.5625 14.2106 51.5625 27.5C51.5625 40.7894 40.7894 51.5625 27.5 51.5625C14.2106 51.5625 3.4375 40.7894 3.4375 27.5C3.4375 14.2106 14.2106 3.4375 27.5 3.4375ZM27.5 6.875C16.1098 6.875 6.875 16.1098 6.875 27.5C6.875 38.8902 16.1098 48.125 27.5 48.125C38.8902 48.125 48.125 38.8902 48.125 27.5C48.125 16.1098 38.8902 6.875 27.5 6.875ZM27.5 13.75C34.9714 13.75 41.25 16.8884 41.25 21.4844C41.25 22.7047 40.8083 23.8202 40.0194 24.8016C40.81 25.7898 41.25 26.9053 41.25 28.1067C41.25 29.2772 40.8427 30.3531 40.1122 31.307C40.8461 32.2644 41.25 33.3403 41.25 34.4936C41.25 39.0895 34.9714 42.228 27.5 42.228C20.0286 42.228 13.75 39.0895 13.75 34.4936C13.75 33.3369 14.1539 32.2609 14.8878 31.3036C14.1573 30.3514 13.75 29.2755 13.75 28.1067C13.75 26.9036 14.1883 25.7881 14.9789 24.8016C14.1917 23.8219 13.75 22.7047 13.75 21.4844C13.75 16.8884 20.0286 13.75 27.5 13.75ZM17.5227 33.5294C17.3172 33.8101 17.2005 34.1459 17.1875 34.4936C17.1875 36.5423 21.682 38.7905 27.5 38.7905C33.318 38.7905 37.8125 36.5423 37.8125 34.4936C37.8125 34.1894 37.7042 33.8645 37.4791 33.5311L37.1766 33.6978C34.6741 35.0556 31.2366 35.8411 27.5 35.8411C23.6122 35.8411 20.0475 34.992 17.5227 33.5294ZM37.357 26.9758L37.1766 27.0755C34.6741 28.4333 31.2366 29.2188 27.5 29.2188C23.6741 29.2188 20.1609 28.3955 17.6447 26.9758C17.3353 27.3677 17.1875 27.7527 17.1875 28.1067C17.1875 30.1572 21.682 32.4036 27.5 32.4036C33.318 32.4036 37.8125 30.1572 37.8125 28.1067C37.8125 27.7527 37.6647 27.3677 37.357 26.9758ZM27.5 17.1875C21.682 17.1875 17.1875 19.4356 17.1875 21.4844C17.1875 23.5331 21.682 25.7813 27.5 25.7813C33.318 25.7813 37.8125 23.5331 37.8125 21.4844C37.8125 19.4356 33.318 17.1875 27.5 17.1875Z" fill="#2564F4"/>
</g>
<defs>
<clipPath id="clip0_1017_2097">
<rect width="55" height="55" fill="white"/>
</clipPath>
</defs>
</svg>
