<svg width="103" height="80" viewBox="0 0 103 80" fill="none" xmlns="http://www.w3.org/2000/svg">
<g clip-path="url(#clip0_1772_905)">
<path d="M40.1162 42.9204V40.6135H45.581C46.4167 40.6135 47.0687 40.376 47.5366 39.9011C48.0042 39.4261 48.2383 38.8 48.2383 38.0259C48.2383 37.2518 48.0042 36.6134 47.5366 36.1508C47.0687 35.6882 46.4167 35.4569 45.581 35.4569H38.3762V46.7124H36.0176V33.0713H45.581C46.3674 33.0713 47.0687 33.1869 47.6873 33.4182C48.3043 33.6496 48.8258 33.9749 49.2505 34.3944C49.6751 34.8138 49.9996 35.3227 50.2243 35.9226C50.4489 36.5224 50.5613 37.1978 50.5613 37.9488C50.5613 38.6998 50.4489 39.3583 50.2243 39.9658C49.9996 40.5719 49.6751 41.0946 49.2505 41.5326C48.8258 41.9705 48.3059 42.3113 47.6873 42.5549C47.0705 42.7986 46.3674 42.9204 45.581 42.9204H40.1162Z" fill="#9CA1AA"/>
<path d="M58.3013 46.7092V41.531L51.0781 33.0713H54.2781L59.5752 39.3552L64.8894 33.0713H67.9217L60.6784 41.531V46.7092H58.3013Z" fill="#9CA1AA"/>
<path d="M76.1168 46.7092V35.4538H69.8574V33.0713H84.7618V35.4538H78.4936V46.7092H76.1168Z" fill="#9CA1AA"/>
<path d="M99.6328 33.0713H102.001V46.7092H99.6328V33.0713Z" fill="#9CA1AA"/>
<path d="M89.4146 46.7092V40.8062H98.2237V38.6952H89.4146V33.0713H87.0469V46.7092H89.4146Z" fill="#9CA1AA"/>
<path d="M19.0078 36.6374C19.0078 38.5202 17.4846 40.0469 15.6061 40.0469V43.4564C19.3632 43.4564 22.4095 40.4031 22.4095 36.6374C22.4095 32.8717 19.3632 29.8184 15.6061 29.8184C14.3676 29.8184 13.2045 30.1499 12.2044 30.7313C10.1705 31.9094 8.80273 34.113 8.80273 36.6374V53.6849L11.8613 56.7504L12.2044 57.0943V36.6374C12.2044 34.7545 13.7275 33.2279 15.6061 33.2279C17.4846 33.2279 19.0078 34.7545 19.0078 36.6374Z" fill="#9CA1AA"/>
<path d="M15.6067 23C13.1282 23 10.805 23.6646 8.80335 24.8258C7.52177 25.5675 6.37403 26.5128 5.40167 27.6185C3.28467 30.0225 2 33.1807 2 36.638V46.8665L5.40167 50.276V36.638C5.40167 33.6094 6.71559 30.8876 8.80335 29.014C9.78493 28.1351 10.9373 27.4411 12.2051 26.9939C13.2682 26.6146 14.4144 26.4095 15.6067 26.4095C21.2423 26.4095 25.8118 30.9894 25.8118 36.638C25.8118 42.2865 21.2423 46.8665 15.6067 46.8665V50.276C23.1224 50.276 29.2134 44.1694 29.2134 36.638C29.2134 29.1065 23.1224 23 15.6067 23Z" fill="#9CA1AA"/>
</g>
<defs>
<clipPath id="clip0_1772_905">
<rect width="100" height="34.0944" fill="white" transform="translate(2 23)"/>
</clipPath>
</defs>
</svg>
