<svg width="16" height="16" viewBox="0 0 16 16" fill="none" xmlns="http://www.w3.org/2000/svg">
<g clip-path="url(#clip0_3879_9165)">
<path d="M7.99984 15.3359C6.54944 15.3359 5.13162 14.9058 3.92566 14.1C2.7197 13.2942 1.77977 12.1489 1.22472 10.8089C0.669681 9.46895 0.524457 7.99447 0.807415 6.57194C1.09037 5.14941 1.78881 3.84273 2.81439 2.81715C3.83998 1.79156 5.14665 1.09313 6.56918 0.810171C7.9917 0.527213 9.46619 0.672438 10.8062 1.22748C12.1462 1.78252 13.2915 2.72246 14.0973 3.92842C14.9031 5.13438 15.3332 6.5522 15.3332 8.0026C15.3309 9.94682 14.5575 11.8107 13.1828 13.1855C11.808 14.5603 9.94406 15.3336 7.99984 15.3359ZM7.99984 2.0026C6.81315 2.0026 5.65311 2.35449 4.66642 3.01378C3.67972 3.67307 2.91069 4.61014 2.45656 5.7065C2.00244 6.80286 1.88362 8.00926 2.11513 9.17314C2.34664 10.337 2.91808 11.4061 3.7572 12.2452C4.59631 13.0844 5.66541 13.6558 6.8293 13.8873C7.99318 14.1188 9.19958 14 10.2959 13.5459C11.3923 13.0918 12.3294 12.3227 12.9887 11.336C13.6479 10.3493 13.9998 9.18929 13.9998 8.0026C13.9981 6.41184 13.3654 4.88674 12.2405 3.76191C11.1157 2.63707 9.5906 2.00436 7.99984 2.0026Z" fill="#E0ECFF"/>
<path d="M8.00016 12.6641C7.82335 12.6641 7.65378 12.5938 7.52876 12.4688C7.40373 12.3438 7.3335 12.1742 7.3335 11.9974V6.66406C7.3335 6.48725 7.40373 6.31768 7.52876 6.19265C7.65378 6.06763 7.82335 5.99739 8.00016 5.99739C8.17697 5.99739 8.34654 6.06763 8.47156 6.19265C8.59659 6.31768 8.66683 6.48725 8.66683 6.66406V11.9974C8.66683 12.1742 8.59659 12.3438 8.47156 12.4688C8.34654 12.5938 8.17697 12.6641 8.00016 12.6641Z" fill="#E0ECFF"/>
<path d="M8.00016 4.0026C8.36835 4.0026 8.66683 4.30108 8.66683 4.66927C8.66683 5.03746 8.36835 5.33594 8.00016 5.33594C7.63197 5.33594 7.3335 5.03746 7.3335 4.66927C7.3335 4.30108 7.63197 4.0026 8.00016 4.0026Z" fill="#E0ECFF"/>
</g>
<defs>
<clipPath id="clip0_3879_9165">
<rect width="16" height="16" fill="white" transform="matrix(1 0 0 -1 0 16)"/>
</clipPath>
</defs>
</svg>
