<svg width="52" height="52" viewBox="0 0 52 52" fill="none" xmlns="http://www.w3.org/2000/svg">
<circle cx="26" cy="26" r="25.5" fill="url(#paint0_linear_1159_3597)"/>
<circle cx="26" cy="26" r="25.5" stroke="url(#paint1_linear_1159_3597)"/>
<circle cx="26" cy="26" r="25.5" stroke="url(#paint2_linear_1159_3597)"/>
<g clip-path="url(#clip0_1159_3597)">
<path d="M31.205 22.4267V21.9087C31.205 19.5761 27.6866 17.8164 23.0205 17.8164C18.3544 17.8164 14.8359 19.5761 14.8359 21.9087V25.6289C14.8359 27.5718 17.2773 29.1157 20.7883 29.5779V30.0932C20.7883 32.4258 24.3067 34.1855 28.9728 34.1855C33.639 34.1855 37.1574 32.4258 37.1574 30.0932V26.373C37.1574 24.4477 34.7932 22.902 31.205 22.4267ZM35.6693 26.373C35.6693 27.6025 32.8056 28.9771 28.9728 28.9771C28.6259 28.9771 28.2818 28.965 27.9423 28.9427C29.9485 28.2117 31.205 27.024 31.205 25.6289V23.9306C33.9831 24.3445 35.6693 25.468 35.6693 26.373ZM20.7883 28.0703V25.8577C21.5284 25.9541 22.2741 26.002 23.0205 26.0009C23.7668 26.002 24.5125 25.9541 25.2526 25.8577V28.0703C24.5136 28.1795 23.7675 28.2339 23.0205 28.2331C22.2734 28.2339 21.5273 28.1795 20.7883 28.0703ZM29.7169 24.3203V25.6289C29.7169 26.4092 28.5627 27.2472 26.7407 27.756V25.5824C27.9414 25.2913 28.958 24.8579 29.7169 24.3203ZM23.0205 19.3045C26.8532 19.3045 29.7169 20.6791 29.7169 21.9087C29.7169 23.1382 26.8532 24.5128 23.0205 24.5128C19.1877 24.5128 16.324 23.1382 16.324 21.9087C16.324 20.6791 19.1877 19.3045 23.0205 19.3045ZM16.324 25.6289V24.3203C17.083 24.8579 18.0995 25.2913 19.3002 25.5824V27.756C17.4782 27.2472 16.324 26.4092 16.324 25.6289ZM22.2764 30.0932V29.7054C22.521 29.7147 22.7684 29.7212 23.0205 29.7212C23.3813 29.7212 23.7338 29.7091 24.0798 29.6886C24.4642 29.8262 24.8557 29.9429 25.2526 30.0383V32.2202C23.4306 31.7115 22.2764 30.8735 22.2764 30.0932ZM26.7407 32.5346V30.3164C27.4806 30.4159 28.2263 30.4656 28.9728 30.4652C29.7192 30.4663 30.4649 30.4184 31.205 30.322V32.5346C29.7248 32.7516 28.2209 32.7516 26.7407 32.5346ZM32.6931 32.2202V30.0467C33.8938 29.7556 34.9103 29.3222 35.6693 28.7846V30.0932C35.6693 30.8735 34.5151 31.7115 32.6931 32.2202Z" fill="#E0ECFF"/>
</g>
<defs>
<linearGradient id="paint0_linear_1159_3597" x1="1" y1="1" x2="52.8256" y2="49.0302" gradientUnits="userSpaceOnUse">
<stop stop-color="#5577FD"/>
<stop offset="1" stop-color="#5577FD" stop-opacity="0"/>
</linearGradient>
<linearGradient id="paint1_linear_1159_3597" x1="1" y1="-10.6667" x2="53.8071" y2="-9.43307" gradientUnits="userSpaceOnUse">
<stop offset="0.11632" stop-color="#5577FD" stop-opacity="0.54"/>
<stop offset="0.527778" stop-color="#CD7A37" stop-opacity="0.71"/>
<stop offset="0.983091" stop-color="#CE5E5E" stop-opacity="0.75"/>
</linearGradient>
<linearGradient id="paint2_linear_1159_3597" x1="26" y1="1" x2="26" y2="51" gradientUnits="userSpaceOnUse">
<stop stop-color="#5577FD"/>
<stop offset="1" stop-color="white" stop-opacity="0"/>
</linearGradient>
<clipPath id="clip0_1159_3597">
<rect width="23.8095" height="23.8095" fill="white" transform="translate(14.0938 14.0957)"/>
</clipPath>
</defs>
</svg>
