<svg width="52" height="52" viewBox="0 0 52 52" fill="none" xmlns="http://www.w3.org/2000/svg">
<circle cx="26" cy="26" r="25.5" fill="url(#paint0_linear_1159_3597)"/>
<circle cx="26" cy="26" r="25.5" stroke="url(#paint1_linear_1159_3597)"/>
<circle cx="26" cy="26" r="25.5" stroke="url(#paint2_linear_1159_3597)"/>
<g clip-path="url(#clip0_1159_3597)">
<path d="M27.486 21.5365C27.486 21.3391 27.5644 21.1499 27.704 21.0103C27.8435 20.8708 28.0328 20.7924 28.2301 20.7924H37.1587C37.356 20.7924 37.5452 20.8708 37.6848 21.0103C37.8243 21.1499 37.9027 21.3391 37.9027 21.5365C37.9027 21.7338 37.8243 21.923 37.6848 22.0626C37.5452 22.2021 37.356 22.2805 37.1587 22.2805H28.2301C28.0328 22.2805 27.8435 22.2021 27.704 22.0626C27.5644 21.923 27.486 21.7338 27.486 21.5365ZM37.1587 25.2567H28.2301C28.0328 25.2567 27.8435 25.3351 27.704 25.4746C27.5644 25.6142 27.486 25.8034 27.486 26.0008C27.486 26.1981 27.5644 26.3873 27.704 26.5269C27.8435 26.6664 28.0328 26.7448 28.2301 26.7448H37.1587C37.356 26.7448 37.5452 26.6664 37.6848 26.5269C37.8243 26.3873 37.9027 26.1981 37.9027 26.0008C37.9027 25.8034 37.8243 25.6142 37.6848 25.4746C37.5452 25.3351 37.356 25.2567 37.1587 25.2567ZM37.1587 29.721H30.4622C30.2649 29.721 30.0756 29.7994 29.9361 29.9389C29.7966 30.0785 29.7182 30.2677 29.7182 30.465C29.7182 30.6624 29.7966 30.8516 29.9361 30.9912C30.0756 31.1307 30.2649 31.2091 30.4622 31.2091H37.1587C37.356 31.2091 37.5452 31.1307 37.6848 30.9912C37.8243 30.8516 37.9027 30.6624 37.9027 30.465C37.9027 30.2677 37.8243 30.0785 37.6848 29.9389C37.5452 29.7994 37.356 29.721 37.1587 29.721ZM28.2068 31.7671C28.2312 31.8618 28.2366 31.9603 28.2228 32.0571C28.2091 32.1538 28.1764 32.2469 28.1266 32.331C28.0769 32.4152 28.0111 32.4887 27.9329 32.5473C27.8547 32.606 27.7658 32.6487 27.6711 32.673C27.6105 32.6893 27.5479 32.6975 27.4851 32.6972C27.3201 32.6973 27.1597 32.6425 27.0293 32.5415C26.8988 32.4405 26.8056 32.2989 26.7643 32.1391C26.1914 29.9126 23.9425 28.2329 21.5327 28.2329C19.1229 28.2329 16.8741 29.9117 16.3011 32.1391C16.2518 32.3303 16.1286 32.4941 15.9585 32.5943C15.7884 32.6946 15.5855 32.7233 15.3943 32.6739C15.2032 32.6246 15.0394 32.5013 14.9391 32.3313C14.8388 32.1612 14.8102 31.9583 14.8596 31.7671C15.3795 29.748 16.8908 28.1129 18.8086 27.3028C18.0701 26.7341 17.5283 25.9484 17.2589 25.0561C16.9896 24.1638 17.0063 23.2095 17.3067 22.3272C17.6071 21.4448 18.1761 20.6787 18.934 20.1361C19.6919 19.5935 20.6006 19.3018 21.5327 19.3018C22.4648 19.3018 23.3735 19.5935 24.1314 20.1361C24.8893 20.6787 25.4584 21.4448 25.7588 22.3272C26.0592 23.2095 26.0759 24.1638 25.8066 25.0561C25.5372 25.9484 24.9953 26.7341 24.2569 27.3028C26.1756 28.1129 27.6869 29.748 28.2068 31.7671ZM21.5337 26.7448C22.1223 26.7448 22.6977 26.5702 23.1871 26.2432C23.6766 25.9162 24.058 25.4514 24.2833 24.9075C24.5086 24.3637 24.5675 23.7653 24.4527 23.188C24.3378 22.6107 24.0544 22.0804 23.6381 21.6641C23.2219 21.2479 22.6916 20.9644 22.1143 20.8496C21.537 20.7348 20.9386 20.7937 20.3947 21.019C19.8509 21.2442 19.3861 21.6257 19.059 22.1151C18.732 22.6046 18.5575 23.18 18.5575 23.7686C18.5575 24.5579 18.871 25.3149 19.4292 25.8731C19.9873 26.4312 20.7443 26.7448 21.5337 26.7448Z" fill="#E0ECFF"/>
</g>
<defs>
<linearGradient id="paint0_linear_1159_3597" x1="1" y1="1" x2="52.8256" y2="49.0302" gradientUnits="userSpaceOnUse">
<stop stop-color="#5577FD"/>
<stop offset="1" stop-color="#5577FD" stop-opacity="0"/>
</linearGradient>
<linearGradient id="paint1_linear_1159_3597" x1="1" y1="-10.6667" x2="53.8071" y2="-9.43307" gradientUnits="userSpaceOnUse">
<stop offset="0.11632" stop-color="#5577FD" stop-opacity="0.54"/>
<stop offset="0.527778" stop-color="#CD7A37" stop-opacity="0.71"/>
<stop offset="0.983091" stop-color="#CE5E5E" stop-opacity="0.75"/>
</linearGradient>
<linearGradient id="paint2_linear_1159_3597" x1="26" y1="1" x2="26" y2="51" gradientUnits="userSpaceOnUse">
<stop stop-color="#5577FD"/>
<stop offset="1" stop-color="white" stop-opacity="0"/>
</linearGradient>
<clipPath id="clip0_1159_3597">
<rect width="23.8095" height="23.8095" fill="white" transform="translate(14.0938 14.0957)"/>
</clipPath>
</defs>
</svg>
