<svg width="52" height="52" viewBox="0 0 52 52" fill="none" xmlns="http://www.w3.org/2000/svg">
<circle cx="26" cy="26" r="25.5" fill="url(#paint0_linear_4763_10670)"/>
<circle cx="26" cy="26" r="25.5" stroke="url(#paint1_linear_4763_10670)"/>
<circle cx="26" cy="26" r="25.5" stroke="url(#paint2_linear_4763_10670)"/>
<g clip-path="url(#clip0_4763_10670)">
<path d="M33.9626 23.3216C33.9634 22.0803 33.6504 20.8589 33.0527 19.7709C32.4551 18.6828 31.5921 17.7635 30.5441 17.0983C29.4961 16.433 28.2969 16.0434 27.058 15.9656C25.8191 15.8879 24.5806 16.1245 23.4576 16.6535C22.3346 17.1824 21.3635 17.9866 20.6345 18.9914C19.9055 19.9961 19.4422 21.1688 19.2877 22.4005C19.1332 23.6322 19.2925 24.8829 19.7508 26.0366C20.2091 27.1903 20.9515 28.2094 21.909 28.9994V35.3752C21.909 35.4894 21.9381 35.6017 21.9937 35.7015C22.0492 35.8013 22.1294 35.8852 22.2265 35.9452C22.3237 36.0053 22.4345 36.0395 22.5486 36.0446C22.6627 36.0498 22.7762 36.0256 22.8783 35.9745L26.5965 34.1196L30.3156 35.9787C30.4088 36.0233 30.511 36.0459 30.6144 36.0448C30.792 36.0448 30.9623 35.9743 31.0879 35.8487C31.2135 35.7231 31.284 35.5528 31.284 35.3752V28.9994C32.1219 28.3093 32.7966 27.4423 33.2597 26.4607C33.7228 25.479 33.9628 24.407 33.9626 23.3216ZM20.5698 23.3216C20.5698 22.1296 20.9232 20.9644 21.5855 19.9733C22.2477 18.9822 23.1889 18.2097 24.2902 17.7536C25.3914 17.2974 26.6032 17.1781 27.7723 17.4106C28.9414 17.6432 30.0153 18.2172 30.8581 19.06C31.701 19.9029 32.275 20.9768 32.5075 22.1459C32.7401 23.3149 32.6207 24.5267 32.1646 25.628C31.7084 26.7292 30.9359 27.6705 29.9448 28.3327C28.9537 28.9949 27.7885 29.3484 26.5965 29.3484C24.9987 29.3466 23.4668 28.7111 22.3369 27.5812C21.2071 26.4514 20.5715 24.9195 20.5698 23.3216ZM29.9448 34.292L26.8954 32.7678C26.8023 32.7212 26.6997 32.697 26.5957 32.697C26.4917 32.697 26.3891 32.7212 26.296 32.7678L23.2483 34.292V29.8816C24.2849 30.4114 25.4324 30.6877 26.5965 30.6877C27.7607 30.6877 28.9082 30.4114 29.9448 29.8816V34.292ZM26.5965 28.0091C27.5236 28.0091 28.4299 27.7342 29.2008 27.2191C29.9716 26.7041 30.5724 25.972 30.9272 25.1154C31.282 24.2589 31.3748 23.3164 31.194 22.4071C31.0131 21.4978 30.5667 20.6626 29.9111 20.0071C29.2555 19.3515 28.4203 18.9051 27.511 18.7242C26.6017 18.5433 25.6592 18.6361 24.8027 18.9909C23.9462 19.3457 23.2141 19.9465 22.699 20.7174C22.184 21.4882 21.909 22.3945 21.909 23.3216C21.9104 24.5644 22.4047 25.7559 23.2834 26.6347C24.1622 27.5135 25.3537 28.0078 26.5965 28.0091ZM26.5965 19.9734C27.2588 19.9734 27.9061 20.1698 28.4567 20.5377C29.0073 20.9056 29.4365 21.4285 29.6899 22.0403C29.9433 22.6521 30.0096 23.3253 29.8804 23.9748C29.7512 24.6243 29.4323 25.2209 28.9641 25.6892C28.4958 26.1574 27.8992 26.4763 27.2497 26.6055C26.6003 26.7347 25.927 26.6684 25.3152 26.415C24.7034 26.1615 24.1805 25.7324 23.8126 25.1818C23.4447 24.6312 23.2483 23.9838 23.2483 23.3216C23.2483 22.4336 23.6011 21.582 24.229 20.9541C24.8569 20.3262 25.7085 19.9734 26.5965 19.9734Z" fill="#E0ECFF"/>
</g>
<defs>
<linearGradient id="paint0_linear_4763_10670" x1="1" y1="1" x2="52.8256" y2="49.0302" gradientUnits="userSpaceOnUse">
<stop stop-color="#5577FD"/>
<stop offset="1" stop-color="#5577FD" stop-opacity="0"/>
</linearGradient>
<linearGradient id="paint1_linear_4763_10670" x1="1" y1="-10.6667" x2="53.8071" y2="-9.43307" gradientUnits="userSpaceOnUse">
<stop offset="0.11632" stop-color="#5577FD" stop-opacity="0.54"/>
<stop offset="0.527778" stop-color="#CD7A37" stop-opacity="0.71"/>
<stop offset="0.983091" stop-color="#CE5E5E" stop-opacity="0.75"/>
</linearGradient>
<linearGradient id="paint2_linear_4763_10670" x1="26" y1="1" x2="26" y2="51" gradientUnits="userSpaceOnUse">
<stop stop-color="#5577FD"/>
<stop offset="1" stop-color="white" stop-opacity="0"/>
</linearGradient>
<clipPath id="clip0_4763_10670">
<rect width="21.4286" height="21.4286" fill="white" transform="translate(15.8828 15.2861)"/>
</clipPath>
</defs>
</svg>
