<svg width="35" height="35" viewBox="0 0 35 35" fill="none" xmlns="http://www.w3.org/2000/svg">
<path d="M27.7083 20.4168V8.75016C27.7083 7.146 26.3958 5.8335 24.7917 5.8335H4.375C2.77084 5.8335 1.45834 7.146 1.45834 8.75016V20.4168C1.45834 22.021 2.77084 23.3335 4.375 23.3335H24.7917C26.3958 23.3335 27.7083 22.021 27.7083 20.4168ZM14.5833 18.9585C12.1625 18.9585 10.2083 17.0043 10.2083 14.5835C10.2083 12.1627 12.1625 10.2085 14.5833 10.2085C17.0042 10.2085 18.9583 12.1627 18.9583 14.5835C18.9583 17.0043 17.0042 18.9585 14.5833 18.9585ZM33.5417 10.2085V26.2502C33.5417 27.8543 32.2292 29.1668 30.625 29.1668H5.83334V26.2502H30.625V10.2085H33.5417Z" fill="#CED2D9"/>
</svg>
