<svg width="26" height="26" viewBox="0 0 26 26" fill="none" xmlns="http://www.w3.org/2000/svg">
<path d="M13 26C5.83886 26 0 20.1611 0 13C0 5.83886 5.83886 0 13 0C20.1611 0 26 5.83886 26 13C26 20.1611 20.1611 26 13 26Z" fill="#377DFF"/>
<path d="M13 26C5.83886 26 0 20.1611 0 13C0 5.83886 5.83886 0 13 0C20.1611 0 26 5.83886 26 13C26 20.1611 20.1611 26 13 26Z" fill="#377DFF"/>
<path d="M13 26C5.83886 26 0 20.1611 0 13C0 5.83886 5.83886 0 13 0C20.1611 0 26 5.83886 26 13C26 20.1611 20.1611 26 13 26Z" fill="#377DFF"/>
<path d="M19.0669 13.386C19.0669 14.1261 18.9225 14.823 18.6336 15.4765C18.3447 16.1301 17.9487 16.7092 17.4457 17.2138C16.9426 17.7184 16.3499 18.1317 15.6675 18.4537C14.9851 18.7757 14.2505 18.9703 13.4635 19.0376C13.4137 19.0472 13.3688 19.0544 13.329 19.0592C13.2891 19.064 13.2443 19.0664 13.1945 19.0664H10.6095C10.4401 19.0664 10.2732 19.0376 10.1089 18.9799C9.94451 18.9222 9.79758 18.8429 9.66808 18.742C9.53857 18.6411 9.43149 18.5234 9.34681 18.3888C9.26214 18.2542 9.2198 18.1149 9.2198 17.9707C9.2198 17.8265 9.25965 17.6872 9.33934 17.5526C9.41903 17.418 9.52363 17.3027 9.65313 17.2066C9.78264 17.1105 9.92708 17.0336 10.0865 16.9759C10.2459 16.9183 10.4102 16.8894 10.5796 16.8894L12.8957 16.9038C13.4236 16.9038 13.9217 16.8101 14.3899 16.6227C14.8581 16.4353 15.2665 16.183 15.6152 15.8658C15.9639 15.5486 16.2378 15.1762 16.437 14.7485C16.6363 14.3208 16.7359 13.8618 16.7359 13.3716C16.7359 12.9103 16.6462 12.4778 16.4669 12.0741C16.2876 11.6704 16.0411 11.31 15.7273 10.9928C15.4135 10.6756 15.0474 10.4185 14.629 10.2215C14.2106 10.0244 13.7573 9.9019 13.2692 9.85385C13.2493 9.85385 13.2368 9.85625 13.2319 9.86105C13.2269 9.86586 13.2144 9.86826 13.1945 9.86826H10.8187V11.0072C10.8187 11.1706 10.7514 11.2908 10.6169 11.3676C10.4824 11.4445 10.2658 11.3965 9.96693 11.2235C9.88723 11.1754 9.76022 11.0913 9.58589 10.9712C9.41156 10.851 9.20735 10.7093 8.97325 10.5459C8.73915 10.3825 8.4926 10.2095 8.23359 10.0269L7.48647 9.479C7.33704 9.36366 7.20754 9.26034 7.09796 9.16903C6.98838 9.07772 6.93359 8.96479 6.93359 8.83023C6.93359 8.71489 6.99585 8.59475 7.12038 8.4698C7.2449 8.34485 7.38685 8.2199 7.54624 8.09495C7.72555 7.95078 7.93972 7.78258 8.18877 7.59035C8.43781 7.39812 8.68436 7.2107 8.92842 7.02808C9.17248 6.84547 9.39164 6.67967 9.58589 6.53069C9.78015 6.38171 9.91712 6.27839 9.99681 6.22072C10.2359 6.05733 10.4301 6.02369 10.5796 6.1198C10.729 6.21592 10.8087 6.36009 10.8187 6.55232V7.70569H13.1945C13.2443 7.70569 13.2966 7.7105 13.3514 7.72011C13.4062 7.72972 13.4585 7.73933 13.5083 7.74894C14.2853 7.82583 15.0125 8.02287 15.6899 8.34004C16.3673 8.65722 16.9575 9.06811 17.4606 9.57271C17.9637 10.0773 18.3572 10.6564 18.6411 11.31C18.925 11.9636 19.0669 12.6556 19.0669 13.386Z" fill="#E0ECFF"/>
</svg>
