<svg width="12" height="12" viewBox="0 0 12 12" fill="none" xmlns="http://www.w3.org/2000/svg">
<g clip-path="url(#clip0_4445_10240)">
<path d="M6 4V6.25" stroke="white" stroke-linecap="round" stroke-linejoin="round"/>
<path d="M7.95 7.125L6 6" stroke="white" stroke-linecap="round" stroke-linejoin="round"/>
<path d="M8.63281 4.67334H10.5078V2.79834" stroke="white" stroke-linecap="round" stroke-linejoin="round"/>
<path d="M8.9141 8.91563C8.33734 9.49285 7.60234 9.88606 6.80208 10.0455C6.00182 10.2049 5.17224 10.1234 4.4183 9.81133C3.66436 9.49921 3.01993 8.9705 2.56652 8.29208C2.11311 7.61365 1.87109 6.81599 1.87109 6C1.87109 5.18401 2.11311 4.38635 2.56652 3.70792C3.01993 3.0295 3.66436 2.50079 4.4183 2.18868C5.17224 1.87656 6.00182 1.79507 6.80208 1.95451C7.60234 2.11395 8.33734 2.50715 8.9141 3.08438L10.5078 4.67344" stroke="white" stroke-linecap="round" stroke-linejoin="round"/>
</g>
<defs>
<clipPath id="clip0_4445_10240">
<rect width="12" height="12" fill="white"/>
</clipPath>
</defs>
</svg>
