<svg width="40" height="40" viewBox="0 0 40 40" fill="none" xmlns="http://www.w3.org/2000/svg">
<path d="M40 40L0 0H21.7284L40 17.0732V40Z" fill="#203B60"/>
<path d="M12.2532 8.41584C12.2108 8.37337 12.2005 8.3248 12.2223 8.27014L13.2138 5.73466C13.2226 5.70943 13.2184 5.68831 13.2015 5.67133L12.6103 5.07883C12.5891 5.0576 12.5678 5.05744 12.5463 5.07837L10.7858 6.79237C10.7644 6.8133 10.7365 6.82364 10.7024 6.82339C10.6768 6.82321 10.6534 6.8125 10.6322 6.79126L9.88841 6.04587C9.86722 6.02463 9.85459 5.99924 9.85054 5.9697C9.85502 5.94021 9.86801 5.91501 9.8895 5.89408L14.2486 1.64988C14.2701 1.62896 14.2937 1.61858 14.3193 1.61877C14.3534 1.61902 14.3811 1.62976 14.4023 1.65099L16.2204 3.47307C16.4916 3.74489 16.6731 4.03715 16.7647 4.34984C16.8606 4.66678 16.8605 4.98092 16.7643 5.29226C16.6724 5.60785 16.491 5.89748 16.2202 6.16118C15.9279 6.4458 15.6043 6.61845 15.2496 6.67914C14.8991 6.73564 14.5517 6.67621 14.2072 6.50084C14.1774 6.48797 14.156 6.49625 14.143 6.52567L13.1826 9.1689C13.1739 9.19413 13.1652 9.21094 13.1567 9.21931C13.1223 9.25279 13.0818 9.24618 13.0351 9.19946L12.2532 8.41584ZM14.4739 3.26438C14.4527 3.24314 14.4313 3.24299 14.4098 3.26391L13.3072 4.33752C13.2857 4.35845 13.2855 4.37953 13.3067 4.40077L14.1395 5.23535C14.3175 5.41374 14.5153 5.50582 14.733 5.51161C14.9549 5.52165 15.1518 5.44296 15.3238 5.27553C15.4957 5.10811 15.5782 4.91474 15.5713 4.69542C15.5728 4.47617 15.4846 4.27735 15.3066 4.09896L14.4739 3.26438ZM20.6175 9.2685C20.596 9.28943 20.5682 9.29977 20.534 9.29953C20.5084 9.29934 20.485 9.28863 20.4638 9.26739L18.3787 7.17774C18.3575 7.15651 18.3362 7.15635 18.3147 7.17728L17.3152 8.15043C17.2937 8.17136 17.2936 8.19244 17.3147 8.21368L18.6815 9.58342C18.7027 9.60465 18.711 9.63001 18.7066 9.6595C18.7106 9.68904 18.7019 9.71428 18.6804 9.73521L18.0549 10.3442C18.0334 10.3651 18.0056 10.3755 17.9714 10.3752C17.9458 10.3751 17.9224 10.3643 17.9012 10.3431L16.5345 8.97336C16.5133 8.95213 16.492 8.95197 16.4705 8.9729L15.4258 9.99C15.4043 10.0109 15.4042 10.032 15.4254 10.0532L17.5105 12.1429C17.5317 12.1641 17.54 12.1895 17.5355 12.219C17.5396 12.2485 17.5309 12.2738 17.5094 12.2947L16.8839 12.9037C16.8624 12.9246 16.8346 12.935 16.8004 12.9347C16.7748 12.9345 16.7514 12.9238 16.7302 12.9026L13.7933 9.95923C13.7721 9.938 13.7594 9.91261 13.7554 9.88306C13.7599 9.85358 13.7729 9.82837 13.7944 9.80744L18.1535 5.56325C18.175 5.54232 18.1985 5.53195 18.2241 5.53213C18.2583 5.53238 18.2859 5.54312 18.3071 5.56436L21.2441 8.50771C21.2653 8.52894 21.2736 8.5543 21.2691 8.58379C21.2732 8.61333 21.2645 8.63857 21.243 8.6595L20.6175 9.2685ZM25.0137 12.2855C25.0349 12.3068 25.0433 12.3321 25.0388 12.3616C25.0428 12.3912 25.0341 12.4164 25.0126 12.4373L24.3807 13.0526C24.3592 13.0735 24.3314 13.0839 24.2972 13.0836C24.2716 13.0835 24.2482 13.0727 24.227 13.0515L23.0891 11.9111C23.0679 11.8899 23.0466 11.8897 23.0251 11.9107L19.4075 15.4328C19.386 15.4538 19.3582 15.4641 19.3241 15.4639C19.2984 15.4637 19.275 15.453 19.2539 15.4317L18.5101 14.6863C18.4889 14.6651 18.4763 14.6397 18.4722 14.6102C18.4767 14.5807 18.4897 14.5555 18.5112 14.5345L22.1287 11.0124C22.1502 10.9914 22.1504 10.9704 22.1292 10.9491L21.0231 9.84058C21.0019 9.81934 20.9892 9.79395 20.9852 9.76441C20.9897 9.73492 21.0027 9.70972 21.0242 9.68879L21.6561 9.07351C21.6776 9.05258 21.7011 9.04221 21.7268 9.04239C21.7609 9.04264 21.7886 9.05338 21.8098 9.07462L25.0137 12.2855ZM21.2243 17.4065C21.2031 17.3852 21.1905 17.3598 21.1864 17.3303C21.1909 17.3008 21.2039 17.2756 21.2254 17.2547L25.5845 13.0105C25.606 12.9895 25.6295 12.9792 25.6552 12.9794C25.6893 12.9796 25.717 12.9903 25.7382 13.0116L26.4819 13.757C26.5031 13.7782 26.5115 13.8036 26.507 13.833C26.511 13.8626 26.5023 13.8878 26.4808 13.9088L22.1217 18.153C22.1002 18.1739 22.0724 18.1842 22.0383 18.184C22.0126 18.1838 21.9892 18.1731 21.9681 18.1518L21.2243 17.4065ZM25.2591 21.45C25.2167 21.4075 25.2064 21.359 25.2281 21.3043L26.2197 18.7688C26.2284 18.7436 26.2243 18.7225 26.2073 18.7055L25.6161 18.113C25.5949 18.0918 25.5736 18.0916 25.5521 18.1126L23.7917 19.8266C23.7702 19.8475 23.7424 19.8578 23.7082 19.8576C23.6826 19.8574 23.6592 19.8467 23.638 19.8254L22.8942 19.0801C22.8731 19.0588 22.8604 19.0334 22.8564 19.0039C22.8609 18.9744 22.8738 18.9492 22.8953 18.9283L27.2545 14.6841C27.276 14.6631 27.2995 14.6528 27.3251 14.653C27.3593 14.6532 27.3869 14.6639 27.4081 14.6852L29.2262 16.5072C29.4975 16.7791 29.6789 17.0713 29.7706 17.384C29.8665 17.701 29.8663 18.0151 29.7702 18.3264C29.6782 18.642 29.4969 18.9317 29.226 19.1954C28.9337 19.48 28.6102 19.6526 28.2554 19.7133C27.905 19.7698 27.5575 19.7104 27.213 19.535C27.1832 19.5222 27.1618 19.5304 27.1488 19.5599L26.1885 22.2031C26.1797 22.2283 26.1711 22.2451 26.1625 22.2535C26.1281 22.287 26.0876 22.2804 26.041 22.2336L25.2591 21.45ZM27.4797 16.2986C27.4585 16.2773 27.4372 16.2772 27.4157 16.2981L26.313 17.3717C26.2915 17.3926 26.2914 17.4137 26.3125 17.4349L27.1453 18.2695C27.3233 18.4479 27.5211 18.54 27.7388 18.5458C27.9607 18.5558 28.1576 18.4771 28.3296 18.3097C28.5015 18.1423 28.5841 17.9489 28.5771 17.7296C28.5787 17.5104 28.4905 17.3115 28.3125 17.1331L27.4797 16.2986ZM33.6233 22.3027C33.6018 22.3236 33.574 22.334 33.5399 22.3337C33.5143 22.3335 33.4909 22.3228 33.4697 22.3016L31.3846 20.2119C31.3634 20.1907 31.342 20.1905 31.3205 20.2115L30.321 21.1846C30.2995 21.2055 30.2994 21.2266 30.3206 21.2479L31.6873 22.6176C31.7085 22.6388 31.7169 22.6642 31.7124 22.6937C31.7165 22.7232 31.7077 22.7485 31.6862 22.7694L31.0607 23.3784C31.0393 23.3993 31.0114 23.4097 30.9773 23.4094C30.9517 23.4092 30.9283 23.3985 30.9071 23.3773L29.5403 22.0075C29.5191 21.9863 29.4978 21.9862 29.4763 22.0071L28.4317 23.0242C28.4102 23.0451 28.41 23.0662 28.4312 23.0874L30.5163 25.1771C30.5375 25.1983 30.5458 25.2237 30.5414 25.2532C30.5454 25.2827 30.5367 25.3079 30.5152 25.3289L29.8897 25.9379C29.8682 25.9588 29.8404 25.9691 29.8063 25.9689C29.7806 25.9687 29.7572 25.958 29.736 25.9368L26.7991 22.9934C26.7779 22.9722 26.7653 22.9468 26.7612 22.9172C26.7657 22.8878 26.7787 22.8626 26.8002 22.8416L31.1593 18.5974C31.1808 18.5765 31.2044 18.5661 31.23 18.5663C31.2641 18.5666 31.2918 18.5773 31.313 18.5985L34.2499 21.5419C34.2711 21.5631 34.2795 21.5885 34.275 21.618C34.279 21.6475 34.2703 21.6728 34.2488 21.6937L33.6233 22.3027ZM30.5115 26.7139C30.4903 26.6927 30.4777 26.6673 30.4736 26.6377C30.4781 26.6083 30.4911 26.5831 30.5126 26.5621L34.8717 22.3179C34.8932 22.297 34.9168 22.2866 34.9424 22.2868C34.9765 22.2871 35.0042 22.2978 35.0254 22.319L36.6146 23.9118C36.9325 24.2303 37.152 24.565 37.2733 24.9159C37.4031 25.2668 37.4305 25.6085 37.3555 25.9411C37.2806 26.2737 37.1077 26.5718 36.8368 26.8355L35.0571 28.5683C34.7862 28.832 34.482 28.9985 34.1442 29.0677C33.8065 29.137 33.4588 29.1071 33.1012 28.978C32.7521 28.849 32.4186 28.6252 32.1008 28.3066L30.5115 26.7139ZM32.1441 26.7447C32.1226 26.7656 32.1224 26.7867 32.1436 26.8079L32.9128 27.5788C33.1078 27.7742 33.3312 27.8665 33.5831 27.8556C33.8393 27.849 34.0813 27.739 34.3091 27.5256L35.7922 26.0816C36.0157 25.864 36.1327 25.6287 36.143 25.3757C36.1576 25.1271 36.0632 24.9008 35.8598 24.6969L35.097 23.9324C35.0758 23.9112 35.0544 23.911 35.0329 23.932L32.1441 26.7447Z" fill="white"/>
</svg>
