<svg width="40" height="40" viewBox="0 0 40 40" fill="none" xmlns="http://www.w3.org/2000/svg">
<path d="M40 40L0 0H21.7284L40 17.0732V40Z" fill="#203B60"/>
<path d="M15.0677 8.94132C15.0126 8.88611 14.9982 8.81643 15.0244 8.73228L15.9965 6.24094C16.0095 6.21152 16.0054 6.18619 15.9842 6.16495L15.4057 5.5852C15.3803 5.55972 15.3547 5.55954 15.3289 5.58465L13.6071 7.26098C13.5341 7.33214 13.4615 7.33161 13.3895 7.25941L12.7093 6.57772C12.6372 6.50552 12.6377 6.43384 12.7108 6.36269L17.0119 2.175C17.085 2.10384 17.1575 2.10437 17.2296 2.17657L19.0159 3.96679C19.2871 4.23861 19.4664 4.53296 19.5538 4.84984C19.6497 5.16678 19.6495 5.48092 19.5534 5.79226C19.4615 6.10785 19.2822 6.39539 19.0157 6.6549C18.7234 6.93952 18.3998 7.11217 18.0451 7.17286C17.6904 7.23355 17.3429 7.17833 17.0026 7.00721C16.9856 6.99865 16.9685 6.99853 16.9514 7.00684C16.9385 7.01096 16.9321 7.02146 16.9319 7.03832L15.9913 9.61211C15.9868 9.6416 15.9738 9.6668 15.9523 9.68773C15.9309 9.70866 15.9052 9.71691 15.8753 9.71248C15.8455 9.70804 15.8157 9.69096 15.7861 9.66123L15.0677 8.94132ZM17.2693 3.77075C17.2439 3.74526 17.2183 3.74508 17.1925 3.77019L16.1091 4.82496C16.0833 4.85008 16.0832 4.87538 16.1086 4.90086L16.935 5.72907C17.113 5.90746 17.3087 6.00164 17.522 6.01161C17.7439 6.02165 17.9409 5.94296 18.1128 5.77553C18.2848 5.60811 18.3673 5.41474 18.3603 5.19542C18.3619 4.97617 18.2737 4.77735 18.0957 4.59896L17.2693 3.77075ZM23.4388 9.73711C23.3657 9.80827 23.2932 9.80774 23.2211 9.73554L21.1741 7.68411C21.1487 7.65863 21.1231 7.65845 21.0973 7.68356L20.1107 8.64415C20.0849 8.66927 20.0847 8.69457 20.1102 8.72005L21.4388 10.0516C21.5108 10.1238 21.5103 10.1954 21.4372 10.2666L20.8762 10.8128C20.8031 10.884 20.7306 10.8835 20.6585 10.8112L19.3299 9.47973C19.3045 9.45425 19.2789 9.45407 19.2531 9.47918L18.2213 10.4837C18.1955 10.5088 18.1954 10.5341 18.2208 10.5596L20.2677 12.611C20.3398 12.6832 20.3393 12.7549 20.2662 12.8261L19.7052 13.3723C19.6321 13.4435 19.5595 13.4429 19.4875 13.3707L16.6141 10.4911C16.5421 10.4189 16.5426 10.3472 16.6157 10.2761L20.9103 6.09464C20.9834 6.02349 21.0559 6.02401 21.128 6.09621L24.0014 8.97585C24.0734 9.04806 24.0729 9.11974 23.9998 9.19089L23.4388 9.73711ZM27.771 12.7537C27.843 12.8259 27.8425 12.8976 27.7694 12.9687L27.202 13.5212C27.1289 13.5924 27.0563 13.5919 26.9843 13.5197L25.8845 12.4175C25.8591 12.392 25.8335 12.3918 25.8077 12.4169L22.2288 15.9014C22.1557 15.9726 22.0832 15.9721 22.0111 15.8999L21.3309 15.2182C21.2589 15.146 21.2594 15.0743 21.3325 15.0031L24.9113 11.5186C24.9371 11.4935 24.9373 11.4682 24.9119 11.4427L23.8439 10.3724C23.7719 10.3002 23.7724 10.2286 23.8455 10.1574L24.4129 9.6049C24.486 9.53374 24.5586 9.53427 24.6306 9.60647L27.771 12.7537ZM24.0451 17.9383C23.9731 17.8661 23.9736 17.7944 24.0467 17.7233L28.3413 13.5419C28.4144 13.4707 28.487 13.4712 28.559 13.5434L29.2392 14.2251C29.3113 14.2973 29.3107 14.369 29.2377 14.4402L24.943 18.6216C24.8699 18.6927 24.7974 18.6922 24.7253 18.62L24.0451 17.9383ZM28.0736 21.9755C28.0185 21.9203 28.004 21.8506 28.0302 21.7665L29.0023 19.2751C29.0153 19.2457 29.0112 19.2204 28.99 19.1991L28.4115 18.6194C28.3861 18.5939 28.3605 18.5937 28.3347 18.6188L26.613 20.2952C26.5399 20.3663 26.4673 20.3658 26.3953 20.2936L25.7151 19.6119C25.643 19.5397 25.6436 19.468 25.7166 19.3969L30.0177 15.2092C30.0908 15.138 30.1634 15.1385 30.2354 15.2108L32.0217 17.001C32.293 17.2728 32.4723 17.5671 32.5596 17.884C32.6555 18.201 32.6554 18.5151 32.5592 18.8264C32.4673 19.142 32.2881 19.4296 32.0215 19.6891C31.7292 19.9737 31.4057 20.1464 31.0509 20.207C30.6962 20.2677 30.3487 20.2125 30.0084 20.0414C29.9914 20.0328 29.9743 20.0327 29.9572 20.041C29.9444 20.0451 29.9379 20.0556 29.9378 20.0725L28.9971 22.6463C28.9927 22.6758 28.9797 22.701 28.9582 22.7219C28.9367 22.7428 28.911 22.7511 28.8812 22.7467C28.8513 22.7422 28.8216 22.7251 28.7919 22.6954L28.0736 21.9755ZM30.2751 16.8049C30.2497 16.7794 30.2241 16.7793 30.1983 16.8044L29.115 17.8591C29.0892 17.8843 29.089 17.9096 29.1144 17.935L29.9408 18.7633C30.1188 18.9416 30.3145 19.0358 30.5279 19.0458C30.7498 19.0558 30.9467 18.9771 31.1187 18.8097C31.2906 18.6423 31.3731 18.4489 31.3662 18.2296C31.3677 18.0104 31.2795 17.8115 31.1015 17.6331L30.2751 16.8049ZM36.4446 22.7713C36.3716 22.8424 36.299 22.8419 36.2269 22.7697L34.18 20.7183C34.1546 20.6928 34.1289 20.6926 34.1031 20.7177L33.1165 21.6783C33.0908 21.7034 33.0906 21.7287 33.116 21.7542L34.4446 23.0857C34.5167 23.158 34.5161 23.2296 34.4431 23.3008L33.8821 23.847C33.809 23.9182 33.7364 23.9176 33.6644 23.8454L32.3357 22.5139C32.3103 22.4884 32.2847 22.4882 32.2589 22.5134L31.2272 23.5179C31.2014 23.543 31.2012 23.5683 31.2266 23.5938L33.2736 25.6452C33.3456 25.7174 33.3451 25.7891 33.272 25.8603L32.711 26.4065C32.6379 26.4776 32.5654 26.4771 32.4933 26.4049L29.6199 23.5253C29.5479 23.4531 29.5484 23.3814 29.6215 23.3102L33.9161 19.1288C33.9892 19.0577 34.0618 19.0582 34.1338 19.1304L37.0072 22.01C37.0792 22.0822 37.0787 22.1539 37.0056 22.2251L36.4446 22.7713Z" fill="white"/>
</svg>
