<svg width="56" height="56" viewBox="0 0 56 56" fill="none" xmlns="http://www.w3.org/2000/svg">
<path d="M34 35C23.442 38.1508 14.7109 42.747 9.24134 48.1298L9 48.3696C10.4548 49.7366 12.0494 50.9602 13.7726 52L14.1426 51.5496C15.6357 49.7366 17.2371 47.9864 18.9039 46.337C23.3766 41.9089 28.4921 38.0768 34 35Z" fill="white"/>
<path d="M35 30H0C0.423542 35.6328 2.53219 40.7983 5.84125 45L5.99301 44.8495C9.39267 41.5219 13.8183 38.4976 19.1568 35.8621C23.8361 33.55 29.2086 31.5661 35 30Z" fill="white"/>
<path d="M21.306 6.863C30.8397 16.3485 42.8383 22.6207 56 25C54.4136 10.9376 42.4264 0 27.8606 0C24.0143 0 20.3479 0.765838 17 2.14753C18.3587 3.78147 19.8107 5.37223 21.306 6.86528V6.863Z" fill="white"/>
<path d="M9.23905 7.86637C14.7077 13.256 23.4416 17.8437 34 21C28.4886 17.9176 23.3695 14.0894 18.8954 9.66068C17.2333 8.01646 15.6345 6.26696 14.1349 4.45026L13.7651 4C12.0421 5.03939 10.4478 6.26024 9 7.62669L9.2413 7.86637H9.23905Z" fill="white"/>
<path d="M21.3055 49.1366C19.8036 50.6292 18.354 52.2195 17 53.8531C20.3429 55.2344 24.0135 56 27.8593 56C42.4235 56 54.4093 45.063 56 31C42.8422 33.3787 30.845 39.6491 21.3101 49.132L21.3055 49.1366Z" fill="white"/>
<path d="M19.1537 20.1312V20.1357C13.8188 17.5002 9.3945 14.4736 5.99418 11.1505L5.84239 11C2.53269 15.2017 0.423625 20.3672 0 26H35C29.2098 24.4339 23.8407 22.45 19.1537 20.1312Z" fill="white"/>
</svg>
