<svg width="40" height="40" viewBox="0 0 40 40" fill="none" xmlns="http://www.w3.org/2000/svg">
<g clip-path="url(#clip0_2805_73075)">
<path d="M38.1817 0H23.6363C22.6322 0 21.8181 0.814063 21.8181 1.8182C21.8181 2.82234 22.6322 3.63641 23.6363 3.63641H33.7923L15.078 22.3508C14.368 23.0609 14.368 24.212 15.078 24.922C15.4329 25.277 15.8983 25.4545 16.3636 25.4545C16.8289 25.4545 17.2943 25.2771 17.6493 24.922L36.3636 6.20766V16.3637C36.3636 17.3678 37.1777 18.1819 38.1818 18.1819C39.1859 18.1819 40 17.3678 40 16.3637V1.8182C39.9999 0.814063 39.1859 0 38.1817 0Z" fill="#93A1B8"/>
<path d="M30.9091 18.1818C29.9049 18.1818 29.0909 18.9958 29.0909 20V36.3636H3.63633V10.909H20C21.0041 10.909 21.8182 10.095 21.8182 9.09083C21.8182 8.08669 21.0041 7.27271 20 7.27271H1.8182C0.814063 7.27271 0 8.08677 0 9.09091V38.1818C0 39.1859 0.814063 40 1.8182 40H30.9091C31.9133 40 32.7273 39.1859 32.7273 38.1818V20C32.7273 18.9958 31.9132 18.1818 30.9091 18.1818Z" fill="#93A1B8"/>
</g>
<defs>
<clipPath id="clip0_2805_73075">
<rect width="40" height="40" fill="white"/>
</clipPath>
</defs>
</svg>
