<svg width="26" height="26" viewBox="0 0 26 26" fill="none" xmlns="http://www.w3.org/2000/svg">
<path d="M24.1478 17.353L24.1506 2.27804C24.1267 1.01605 23.1275 0 21.8627 0H6.12864C2.73477 0.0562132 0 2.82893 0 6.23966C0 7.39203 0.307767 8.37295 0.781363 9.23442C1.17626 9.95254 1.80304 10.6271 2.427 11.1358C2.59705 11.275 2.51695 11.223 3.05097 11.5504C3.78736 12.0029 4.63197 12.2264 4.63197 12.2264L4.62494 21.2416C4.64321 21.6674 4.68958 22.0777 4.79639 22.4586C5.14772 23.7262 6.02605 24.7043 7.2262 25.1779C7.7265 25.3746 8.29566 25.5095 8.89574 25.5124L21.4622 25.5573C23.9679 25.5573 26 23.5224 26 21.0125C26 19.5102 25.2706 18.1779 24.1492 17.3502L24.1478 17.353Z" fill="#FFEEDA"/>
<path d="M24.4518 21.1137C24.3998 22.7228 23.0802 24.0115 21.4613 24.0115L12.8101 23.9778C13.5015 23.1795 13.9175 22.1424 13.9175 21.0153C13.9175 19.239 12.8592 18.0192 12.8592 18.0192H21.4613C23.1139 18.0192 24.4532 19.3613 24.4532 21.0153V21.1137H24.4518Z" fill="#EBC28E"/>
<path d="M3.24069 9.85417C2.24712 8.914 1.54446 7.69418 1.54446 6.24107L1.54727 6.08648C1.62737 3.61732 3.66088 1.62878 6.12724 1.55008H21.8613C22.2745 1.56413 22.6047 1.86066 22.6047 2.27804V15.5879C22.9687 15.654 23.1416 15.6989 23.4901 15.8254C23.7627 15.9252 24.1492 16.143 24.1492 16.143V2.27804C24.1253 1.01605 23.1261 0 21.8599 0H6.12864C2.73477 0.0562132 0 2.82893 0 6.23966C0 8.22118 0.902222 9.90898 2.38063 11.0979C2.479 11.1766 2.57737 11.2806 2.84298 11.2792C3.30674 11.2778 3.63137 10.9138 3.6131 10.5105C3.59764 10.1788 3.45711 10.0565 3.2421 9.85276L3.24069 9.85417Z" fill="#190602"/>
<path d="M21.4606 16.4704H9.11901C8.28987 16.4774 7.62093 17.1506 7.62093 17.9811V19.7504C7.64482 20.5697 8.34327 21.2724 9.1682 21.2724H10.0859V19.7504H9.1682V18.0177H9.6685C11.2256 18.0177 12.3724 19.468 12.3724 21.0138C12.3724 22.384 11.1258 24.1407 9.02907 24.0001C7.16842 23.8751 6.16923 22.2224 6.16923 21.0138V5.97399C6.16923 5.29381 5.61834 4.74292 4.93816 4.74292H3.7085V6.27754H4.62337V21.0138C4.57699 24.01 6.75806 25.5221 9.02907 25.5221L21.4592 25.5587C23.9649 25.5587 25.997 23.5237 25.997 21.0138C25.997 18.5039 23.9649 16.469 21.4592 16.469L21.4606 16.4704ZM24.4512 21.1136C24.3992 22.7227 23.0796 24.0114 21.4606 24.0114L12.8094 23.9777C13.5008 23.1794 13.9168 22.1423 13.9168 21.0152C13.9168 19.2389 12.8586 18.0191 12.8586 18.0191H21.4606C23.1133 18.0191 24.4526 19.3612 24.4526 21.0152V21.1136H24.4512Z" fill="#190602"/>
<path d="M18.1402 5.02124H8.83691V6.55586H18.1402C18.5632 6.55586 18.9075 6.21296 18.9075 5.78855C18.9075 5.36414 18.5646 5.02124 18.1402 5.02124Z" fill="#190602"/>
<path d="M18.1402 12.2644H8.83691V13.799H18.1402C18.5632 13.799 18.9075 13.4561 18.9075 13.0317C18.9075 12.6073 18.5646 12.2644 18.1402 12.2644Z" fill="#190602"/>
<path d="M19.776 8.6427H8.83691V10.1773H19.776C20.199 10.1773 20.5433 9.83442 20.5433 9.41001C20.5433 8.9856 20.2004 8.6427 19.776 8.6427Z" fill="#190602"/>
</svg>
