<svg width="80" height="26" viewBox="0 0 80 26" fill="none" xmlns="http://www.w3.org/2000/svg">
<g clip-path="url(#clip0_1_8)">
<path fill-rule="evenodd" clip-rule="evenodd" d="M77.2721 0H2.72786C1.23047 0 0 1.23047 0 2.72786V22.3307C0 23.8281 1.23047 25.0586 2.72786 25.0586H77.2721C78.7695 25.0586 80 23.8281 80 22.3307V2.72786C80 1.23047 78.7695 0 77.2721 0Z" fill="#1DA1F2"/>
<path d="M33.8477 13.8932L35.8854 13.7435C35.931 14.1276 36.0221 14.4206 36.1589 14.6159C36.3802 14.9414 36.6927 15.1042 37.1094 15.1042C37.4154 15.1042 37.6497 15.0195 37.819 14.8568C37.9883 14.6875 38.0664 14.4987 38.0664 14.2773C38.0664 14.069 37.9883 13.8802 37.832 13.7174C37.6758 13.5547 37.3112 13.3984 36.7383 13.2487C35.7943 13.0078 35.1302 12.6758 34.7266 12.2721C34.3229 11.8685 34.1211 11.3477 34.1211 10.7161C34.1211 10.306 34.2253 9.91536 34.4336 9.54427C34.6419 9.17318 34.9479 8.88672 35.3646 8.67188C35.7812 8.46354 36.3477 8.35938 37.0703 8.35938C37.9557 8.35938 38.6328 8.54818 39.1016 8.9388C39.5703 9.32292 39.8438 9.9349 39.9349 10.7682L37.9167 10.9049C37.8646 10.5404 37.7474 10.2734 37.5781 10.1042C37.4023 9.9349 37.168 9.85677 36.862 9.85677C36.6146 9.85677 36.4258 9.92188 36.2956 10.0391C36.1654 10.1563 36.1068 10.3125 36.1068 10.4883C36.1068 10.6185 36.1589 10.7292 36.263 10.8333C36.3607 10.9375 36.6016 11.0352 36.9792 11.1328C37.9167 11.3672 38.5872 11.6081 38.9909 11.849C39.3945 12.0898 39.694 12.3828 39.8763 12.7409C40.0586 13.0924 40.1497 13.4961 40.1497 13.9323C40.1497 14.4466 40.026 14.9284 39.7786 15.3646C39.5312 15.8008 39.1862 16.1328 38.7435 16.3607C38.3008 16.5885 37.7474 16.6992 37.0703 16.6992C35.8919 16.6992 35.0716 16.4323 34.6159 15.9049C34.1667 15.3776 33.9063 14.707 33.8477 13.8932ZM20.1888 8.40495C19.7005 8.6263 19.1732 8.76953 18.6263 8.83464C19.1862 8.49609 19.6224 7.96224 19.8242 7.32422C19.2969 7.63672 18.7109 7.86458 18.0924 7.98828C17.5911 7.46094 16.888 7.12891 16.1003 7.12891C14.5964 7.12891 13.3724 8.34635 13.3724 9.85677C13.3724 10.0716 13.3984 10.2799 13.444 10.4753C11.1784 10.3581 9.16667 9.27734 7.82552 7.6237C7.58464 8.04036 7.45443 8.51562 7.45443 8.9974C7.45443 9.94141 7.9362 10.7812 8.66536 11.263C8.21615 11.25 7.79948 11.1263 7.42839 10.9245V10.957C7.42839 12.2786 8.36589 13.3789 9.61589 13.6328C9.38802 13.6979 9.14714 13.7305 8.89974 13.7305C8.72396 13.7305 8.55469 13.7109 8.38542 13.6849C8.73698 14.7656 9.73958 15.5534 10.931 15.5794C9.99349 16.3151 8.82161 16.7448 7.54557 16.7448C7.32422 16.7448 7.10938 16.7318 6.89453 16.7057C8.10547 17.4805 9.53776 17.9297 11.0742 17.9297C16.0872 17.9297 18.8346 13.776 18.8346 10.1693C18.8346 10.0521 18.8346 9.9349 18.8281 9.81771C19.362 9.43359 19.8242 8.95182 20.1888 8.40495ZM41.1003 8.49609H43.2422V11.3151H45.5924V8.49609H47.7474V16.5625H45.5924V13.2943H43.2422V16.5625H41.1003V8.49609ZM53.4505 15.2279H51.0156L50.6641 16.556H48.4701L51.0872 8.48958H53.4375L56.0417 16.556H53.7956L53.4505 15.2279ZM53.0013 13.4831L52.2396 10.5859L51.4779 13.4831H53.0013ZM56.7578 16.5625V8.49609H60.3385C61.0026 8.49609 61.5104 8.5612 61.8555 8.69792C62.207 8.82812 62.4935 9.07552 62.7018 9.43359C62.9167 9.79167 63.0273 10.2279 63.0273 10.7422C63.0273 11.1914 62.9427 11.5755 62.7799 11.901C62.6172 12.2266 62.3893 12.4935 62.1029 12.6953C61.9206 12.8255 61.6667 12.9297 61.3477 13.0143C61.6016 13.112 61.7904 13.2096 61.9076 13.3138C61.9857 13.3789 62.1029 13.5221 62.2526 13.737C62.4023 13.9518 62.5 14.1211 62.5521 14.2383L63.5938 16.569H61.1654L60.0195 14.1081C59.8698 13.7891 59.7461 13.5807 59.6289 13.4896C59.4727 13.3659 59.2969 13.3008 59.1016 13.3008H58.9128V16.569H56.7578V16.5625ZM58.9128 11.7708H59.8177C59.9154 11.7708 60.1042 11.7318 60.3906 11.6602C60.5339 11.6276 60.651 11.543 60.7357 11.4063C60.8268 11.2695 60.8724 11.1133 60.8724 10.9375C60.8724 10.6771 60.8008 10.4753 60.6576 10.3385C60.5143 10.2018 60.2474 10.1302 59.8568 10.1302H58.9128V11.7708ZM64.2839 8.49609H70.0326V10.2214H66.4388V11.5039H69.7656V13.151H66.4388V14.7396H70.1367V16.5625H64.2839V8.49609Z" fill="white"/>
<path d="M26.4714 0V25.0521H24.9154V0H26.4714Z" fill="#1A91DA"/>
</g>
<defs>
<clipPath id="clip0_1_8">
<rect width="80" height="25.0521" fill="white"/>
</clipPath>
</defs>
</svg>
