<svg xmlns="http://www.w3.org/2000/svg" width="29.658" height="30" viewBox="0 0 29.658 30"><g transform="translate(-953.47 -231.963)"><g transform="translate(953.47 232.93)"><path d="M1138.49,254.831a18.835,18.835,0,0,0-2.078,2.465l-.2-.064a14.218,14.218,0,0,0-3.481-.674c-.355-.027-1.681-.027-2.114,0a12.3,12.3,0,0,0-3.449.679c-.046.018-.087.032-.127.046a18.555,18.555,0,0,0-2.146-2.447,14.916,14.916,0,0,1,12.164-.642c.424.159.838.346,1.244.547Z" transform="translate(-1116.878 -253.196)" fill="#f00500"/><path d="M982.336,397.489a14.515,14.515,0,0,1-2.588,4.559,16.12,16.12,0,0,1-2.024,1.992,14.91,14.91,0,0,1-5.838,2.892,15.234,15.234,0,0,1-7.173,0,14.879,14.879,0,0,1-5.838-2.892,16.12,16.12,0,0,1-2.024-1.992,14.376,14.376,0,0,1-2.588-13.964,15.2,15.2,0,0,1,1.179-2.553c.217-.371.485-.789.615-.961.444,1.917.989,3.6,1.193,4.211a1.042,1.042,0,0,1-.051.1,16.89,16.89,0,0,0-1.8,6.55c0,.028,0,.06,0,.088a4.06,4.06,0,0,0,.092,1.416,9.08,9.08,0,0,0,3.088,4.211,17.766,17.766,0,0,0,9.272,4.225c2.935.2,7.266-1.523,10.15-4.039a14.538,14.538,0,0,0,1.276-1.286,7.043,7.043,0,0,0,.679-.91c-.009,0,0-.009.018-.019s.028-.023.018-.033,0-.019.018-.023.023-.014.018-.023,0-.019.018-.023a.021.021,0,0,0,.014-.028c0-.009,0-.019.009-.019s.018-.014.018-.023.009-.023.018-.023a.02.02,0,0,0,.018-.019.482.482,0,0,1,.06-.107c.069-.107.347-.6.384-.687a6.424,6.424,0,0,0,.508-1.667,4.767,4.767,0,0,0,.042-.836c0-.019,0-.051-.009-.1-.009-.093-.014-.232-.023-.371-.009-.209-.028-.5-.042-.645a13.661,13.661,0,0,0-1.752-5.654,1.616,1.616,0,0,1-.1-.195.281.281,0,0,1-.018-.037h0c.143-.432.73-2.238,1.2-4.3l.009.009.069.093c.12.162.439.645.582.877a14.311,14.311,0,0,1,1.308,12.209Z" transform="translate(-953.47 -378.327)" fill="#f00500"/><path d="M1344.264,516.6a1.537,1.537,0,0,1-.442.451,7.614,7.614,0,0,1-2.9,1.093,3.561,3.561,0,0,1-1.5.041c-.128-.064-.146-.114-.1-.278a2.216,2.216,0,0,1,.888-1.066c.246-.178,1.244-.784,1.708-1.039a6.034,6.034,0,0,1,1.8-.729.926.926,0,0,1,.342,0c.082.032.173.273.21.565A7.435,7.435,0,0,1,1344.264,516.6Z" transform="translate(-1321.417 -502.93)"/><path d="M1106.747,519.1a.5.5,0,0,1-.319.137,5.156,5.156,0,0,1-.9-.023,9.431,9.431,0,0,1-2.738-.788,3.449,3.449,0,0,1-.943-.633l-.128-.132-.014-.173a4.764,4.764,0,0,1,.018-.943,1.239,1.239,0,0,1,.141-.4c.036-.046.036-.046.2-.046a1.97,1.97,0,0,1,.642.118,12.546,12.546,0,0,1,2.41,1.2,4.181,4.181,0,0,1,1.394,1.084A.911.911,0,0,1,1106.747,519.1Z" transform="translate(-1094.823 -503.92)"/><path d="M1214.852,631.578c0,.014-.055.232-.123.492s-.123.469-.123.478a.788.788,0,0,1-.146,0h-.146l-.2.474c-.109.26-.21.5-.223.538l-.027.064-.1-.155-.1-.155v-1.262l-.036.009c-.077.018-.629.091-.87.114a12.415,12.415,0,0,1-2.993-.064c-.159-.023-.3-.041-.3-.036s0,.3.009.656l.014.647-.077.118c-.041.064-.082.118-.082.123s-.059-.059-.164-.269a3.074,3.074,0,0,1-.255-.693l-.032-.132-.141.009-.141.014-.036-.169c-.018-.091-.041-.232-.05-.31l-.014-.146-.118-.1c-.068-.059-.137-.118-.15-.128a.1.1,0,0,1-.032-.077v-.055l.569,0,.569,0,.018.059.018.059.2.009c.109,0,.456.014.765.023l.569.014.146-.228.15-.228h.191l0-.474,0-.474-.25-.109a2.445,2.445,0,0,1-1.458-1.253,1.743,1.743,0,0,1-.046-.592,1.81,1.81,0,0,1,.027-.592.662.662,0,0,1,.469-.465,10.857,10.857,0,0,1,1.358-.023l1.266,0,.141.068a.791.791,0,0,1,.342.269.753.753,0,0,1,.141.538,4.01,4.01,0,0,1-.068.875,1.89,1.89,0,0,1-.264.524,2.426,2.426,0,0,1-1.021.715l-.109.041,0,.478,0,.478.1.009.1.009.137.2.132.205h.61c.337,0,.633,0,.661.009.046.009.055,0,.1-.073l.055-.082h.524A1.651,1.651,0,0,1,1214.852,631.578Z" transform="translate(-1196.377 -609.927)"/><path d="M1254.537,741.787c-.087.05-.146.073-.16.064s-.077-.059-.146-.109l-.123-.1-.128.137c-.278.3-.287.314-.369.319-.128.014-.155-.009-.31-.241-.082-.118-.146-.219-.146-.219s-.059-.009-.128-.014l-.127-.014-.059.123-.059.123-.1-.032a2.247,2.247,0,0,1-.241-.1l-.137-.068v-.26l1.212,0,1.212,0,0,.123C1254.733,741.678,1254.737,741.673,1254.537,741.787Z" transform="translate(-1238.47 -718.816)"/></g><path d="M1020.511,582.182c0-.018,0-.05-.009-.1a9.97,9.97,0,0,0-7.231,2.2,5.574,5.574,0,0,0-5.4-4.283c-4.447,0-6.1,4.283-6.1,4.283a8.1,8.1,0,0,0-7.032-2.273c0,.027,0,.059,0,.087a3.9,3.9,0,0,0,.093,1.39,8.92,8.92,0,0,0,3.094,4.132,17.984,17.984,0,0,0,9.292,4.146c2.941.2,7.282-1.494,10.172-3.964a14.384,14.384,0,0,0,1.278-1.262,6.908,6.908,0,0,0,.681-.893c-.009,0,0-.009.019-.018s.028-.023.019-.032,0-.018.018-.023.023-.014.019-.023,0-.018.019-.023a.02.02,0,0,0,.014-.027c0-.009,0-.018.009-.018s.018-.014.018-.023.009-.023.019-.023a.02.02,0,0,0,.018-.018.474.474,0,0,1,.06-.1c.069-.1.347-.592.384-.674a6.208,6.208,0,0,0,.51-1.636A5.4,5.4,0,0,0,1020.511,582.182Zm-11.58,5.558c-.088.05-.148.073-.162.064s-.079-.059-.148-.109l-.125-.1-.13.137c-.283.3-.292.314-.375.319-.13.014-.157-.009-.315-.241-.083-.118-.148-.219-.148-.219s-.06-.009-.13-.014l-.13-.014-.06.123-.06.123-.107-.032a2.285,2.285,0,0,1-.245-.1l-.139-.068v-.26l1.232,0,1.232,0,0,.123C1009.13,587.631,1009.135,587.627,1008.931,587.741Zm2.316-.82c-.069.26-.125.469-.125.478a.8.8,0,0,1-.148,0h-.148l-.2.478c-.111.26-.213.5-.227.538l-.028.064-.1-.155-.1-.155v-1.262l-.037.009c-.079.018-.639.091-.885.114a12.834,12.834,0,0,1-3.043-.064c-.162-.023-.3-.041-.306-.036s0,.3.009.656l.014.647-.079.119c-.042.064-.083.118-.083.123s-.06-.059-.167-.269a3.047,3.047,0,0,1-.259-.693l-.032-.132-.144.009-.144.014-.037-.169c-.019-.091-.042-.232-.051-.31l-.014-.146-.12-.1c-.07-.059-.139-.118-.153-.128a.1.1,0,0,1-.032-.077v-.055l.579,0,.579,0,.018.059.019.059.2.009c.111,0,.463.014.778.023l.579.014.148-.228.153-.228h.195l0-.474,0-.474-.255-.109a2.472,2.472,0,0,1-1.482-1.253,1.715,1.715,0,0,1-.046-.592,1.785,1.785,0,0,1,.028-.592.668.668,0,0,1,.477-.465,11.189,11.189,0,0,1,1.38-.023l1.288,0,.144.068a.8.8,0,0,1,.347.269.744.744,0,0,1,.144.538,3.951,3.951,0,0,1-.069.875,1.874,1.874,0,0,1-.269.524,2.468,2.468,0,0,1-1.038.715l-.111.041,0,.478,0,.478.1.009.1.009.139.2.134.205h.621c.343,0,.644,0,.672.009.046.009.056,0,.1-.073l.056-.082h.533a2.266,2.266,0,0,1,.533.018A3.116,3.116,0,0,0,1011.247,586.92Z" transform="translate(-39.377 -331.752)" fill="#fff"/><path d="M985.456,624.1a4.22,4.22,0,0,0-.456.087" transform="translate(-30.094 -374.012)" fill="none"/><path d="M1551.605,625.759s-.146-.032-.406-.059" transform="translate(-570.074 -375.538)" fill="none"/><path d="M1020.737,249.536c-.009-.205-.028-.492-.042-.633a13.207,13.207,0,0,0-1.756-5.549,1.565,1.565,0,0,1-.1-.191.24.24,0,0,1-.019-.036h0c.144-.424.732-2.2,1.2-4.223.635-2.752,1.038-5.968-.195-6.934,0,0-2.131-.155-4.984,2.6a18.908,18.908,0,0,0-2.112,2.465l-.2-.064a14.672,14.672,0,0,0-3.539-.674c-.361-.027-1.709-.027-2.149,0a12.686,12.686,0,0,0-3.507.679c-.046.018-.088.032-.13.046a18.637,18.637,0,0,0-2.182-2.447c-2.969-2.765-5.179-2.606-5.179-2.606-1.306,1-.862,4.36-.185,7.2.445,1.882.991,3.535,1.2,4.132a1.031,1.031,0,0,1-.051.1,16.31,16.31,0,0,0-1.8,6.428,8.09,8.09,0,0,1,7.036,2.273s1.649-4.283,6.1-4.283a5.574,5.574,0,0,1,5.4,4.283,9.992,9.992,0,0,1,7.231-2.2C1020.755,249.81,1020.746,249.673,1020.737,249.536Zm-23.008-7.955s-1.732-4.26-1.288-6.693h0a2.326,2.326,0,0,1,.431-1.043s1.964.191,5.133,3.654a9.078,9.078,0,0,0-1.408.9.016.016,0,0,1-.009,0,11.018,11.018,0,0,0-2.858,3.18Zm7.351,6.328a.507.507,0,0,1-.324.137,5.326,5.326,0,0,1-.913-.023,9.711,9.711,0,0,1-2.784-.788,3.508,3.508,0,0,1-.959-.633l-.13-.132-.014-.173a4.681,4.681,0,0,1,.019-.943,1.223,1.223,0,0,1,.144-.4c.037-.046.037-.046.2-.046a2.035,2.035,0,0,1,.653.118,12.842,12.842,0,0,1,2.45,1.2,4.236,4.236,0,0,1,1.417,1.084A.9.9,0,0,1,1005.08,247.91Zm10.914-1.508a1.544,1.544,0,0,1-.449.451,7.822,7.822,0,0,1-2.946,1.093,3.681,3.681,0,0,1-1.524.041c-.13-.064-.148-.114-.1-.278a2.224,2.224,0,0,1,.9-1.066c.25-.178,1.265-.784,1.737-1.039a6.2,6.2,0,0,1,1.834-.729.957.957,0,0,1,.347,0c.083.032.176.273.213.565A7.3,7.3,0,0,1,1015.993,246.4Zm-.769-8-.009,0a8.665,8.665,0,0,0-1.362-.9c3.062-3.462,4.957-3.654,4.957-3.654a2.448,2.448,0,0,1,.417,1.043h0c.431,2.433-1.241,6.7-1.241,6.7a10.9,10.9,0,0,0-2.761-3.185Z" transform="translate(-39.638)" fill="#ffa409"/><path d="M1377.123,343.2c-.009.009-.014.023-.023.032" transform="translate(-404.05 -106.17)" fill="none"/><path d="M1508.432,476.9c-.023.064-.032.1-.032.1" transform="translate(-529.224 -233.616)" fill="none"/><g transform="translate(974.329 233.841)"><g transform="translate(0 0)"><path d="M1407.289,274.243c-.355-.046-2.036-.055-3.941,3.513l-.009,0a8.507,8.507,0,0,0-1.339-.9c3.011-3.462,4.875-3.654,4.875-3.654A2.418,2.418,0,0,1,1407.289,274.243Z" transform="translate(-1402 -273.2)" fill="#ff9300"/><path d="M1434.32,302.608a10.808,10.808,0,0,0-2.72-3.185c1.9-3.567,3.581-3.558,3.941-3.513h0C1435.965,298.348,1434.32,302.608,1434.32,302.608Z" transform="translate(-1430.251 -294.867)" fill="#ff8300"/><path d="M1518.168,296.114l-.068-.014Z" transform="translate(-1512.811 -295.057)" fill="#ff8300"/></g></g><path d="M1172.141,343.091c-.046-.064-.1-.128-.141-.191" transform="translate(-208.429 -105.883)" fill="none"/><path d="M1035,480.8c.05.155.082.237.082.237" transform="translate(-77.816 -237.335)" fill="none"/><g transform="translate(956.706 233.841)"><g transform="translate(0 0)"><g transform="translate(0.068)"><path d="M1031.476,276.854a8.907,8.907,0,0,0-1.385.9.016.016,0,0,1-.009,0c-1.973-3.572-3.708-3.558-4.082-3.513a2.349,2.349,0,0,1,.424-1.043S1028.36,273.391,1031.476,276.854Z" transform="translate(-1026 -273.2)" fill="#ff9300"/></g><path d="M1028.678,299.423a10.918,10.918,0,0,0-2.816,3.185s-1.7-4.26-1.267-6.7h0C1024.965,295.865,1026.705,295.856,1028.678,299.423Z" transform="translate(-1024.523 -294.867)" fill="#ff8300"/><path d="M1024.573,296.1l-.073.014Z" transform="translate(-1024.5 -295.057)" fill="#ff8300"/></g></g><path d="M1363.045,447.123s-1.458.091-1.276-1.048a1.5,1.5,0,0,1,1.64-1.23c.319.046,1.594.5,1.367,1.458s-.547.775-.729.82A7.222,7.222,0,0,1,1363.045,447.123Z" transform="translate(-389.382 -203.024)" fill="#fff"/><path d="M1127.045,447.123s-1.458.091-1.276-1.048a1.505,1.505,0,0,1,1.64-1.23c.319.046,1.595.5,1.367,1.458s-.547.775-.729.82A7.222,7.222,0,0,1,1127.045,447.123Z" transform="translate(-164.308 -203.024)" fill="#fff"/></g></svg>