<svg width="9" height="6" viewBox="0 0 9 6" fill="none" xmlns="http://www.w3.org/2000/svg">
<path d="M0 5.02682C0 5.10647 0.031642 5.18286 0.087966 5.23918C0.144289 5.29551 0.22068 5.32715 0.300333 5.32715H2.77808C2.85773 5.32715 2.93412 5.29551 2.99045 5.23918C3.04677 5.18286 3.07841 5.10647 3.07841 5.02682C3.07841 4.94716 3.04677 4.87077 2.99045 4.81445C2.93412 4.75813 2.85773 4.72648 2.77808 4.72648H1.03164L3.52291 2.26376L5.79492 3.88255C5.85323 3.92409 5.92446 3.94344 5.99577 3.93711C6.06708 3.93078 6.13378 3.89918 6.18386 3.84801L8.92439 1.03239C8.97559 0.974644 9.0026 0.899402 8.9998 0.822276C8.99701 0.74515 8.96463 0.67206 8.90939 0.618168C8.85414 0.564277 8.78027 0.53372 8.7031 0.532837C8.62593 0.531955 8.55138 0.560814 8.49492 0.613428L5.93308 3.24434L3.66556 1.62855C3.60785 1.58744 3.53746 1.56805 3.46684 1.57382C3.39622 1.57959 3.32991 1.61015 3.27964 1.66009L0.600666 4.30752V2.54907C0.600666 2.46942 0.569024 2.39303 0.512701 2.3367C0.456378 2.28038 0.379987 2.24874 0.300333 2.24874C0.22068 2.24874 0.144289 2.28038 0.087966 2.3367C0.031642 2.39303 0 2.46942 0 2.54907V5.02682Z" fill="white"/>
</svg>
