<svg width="12" height="13" viewBox="0 0 12 13" fill="none" xmlns="http://www.w3.org/2000/svg">
<path d="M10.0789 9.06904C10.3029 8.67004 10.7054 8.43204 11.1534 8.43204C11.5279 8.43204 11.8345 8.11844 11.8345 7.73064V5.56134C11.8345 5.17634 11.5279 4.86134 11.1534 4.86134C10.704 4.86134 10.3029 4.62264 10.0789 4.22294C9.96887 4.02842 9.91103 3.80873 9.91103 3.58524C9.91103 3.36174 9.96887 3.14205 10.0789 2.94754C10.1694 2.78674 10.1939 2.59711 10.1473 2.41861C10.1006 2.2401 9.98656 2.08667 9.82903 1.99064L8.00553 0.907036C7.92809 0.861431 7.84229 0.831824 7.7532 0.819965C7.66412 0.808105 7.57356 0.814236 7.48688 0.837993C7.40021 0.86175 7.31918 0.902651 7.24859 0.958276C7.178 1.0139 7.11929 1.08312 7.07593 1.16184C6.971 1.35528 6.81577 1.51678 6.62664 1.62927C6.4375 1.74177 6.22149 1.80108 6.00143 1.80094C5.55343 1.80094 5.15093 1.56294 4.92693 1.16324C4.86856 1.0574 4.78292 0.969129 4.6789 0.90758C4.57489 0.846032 4.45629 0.813457 4.33543 0.813236C4.21636 0.813638 4.09958 0.846034 3.99733 0.907036L2.17103 1.99064C2.09272 2.03708 2.02434 2.09852 1.9698 2.17143C1.91527 2.24434 1.87566 2.32729 1.85323 2.41554C1.80519 2.59491 1.82957 2.78598 1.92113 2.94754C2.03118 3.14205 2.08902 3.36174 2.08902 3.58524C2.08902 3.80873 2.03118 4.02842 1.92113 4.22294C1.8159 4.41602 1.66056 4.57715 1.47147 4.68937C1.28237 4.8016 1.06652 4.86076 0.846627 4.86064C0.472127 4.86064 0.165527 5.17564 0.165527 5.56134V7.73134C0.165527 8.11634 0.472127 8.43134 0.846627 8.43134C1.29463 8.43134 1.69713 8.67004 1.92113 9.06974C2.03118 9.26425 2.08902 9.48394 2.08902 9.70744C2.08902 9.93093 2.03118 10.1506 1.92113 10.3451C1.83047 10.5057 1.80578 10.6952 1.85228 10.8737C1.89878 11.0521 2.01283 11.2054 2.17033 11.3013L3.99593 12.3856C4.07338 12.4315 4.15927 12.4612 4.24848 12.4732C4.33768 12.4851 4.42838 12.4789 4.51514 12.455C4.60191 12.4311 4.68296 12.3899 4.75347 12.334C4.82398 12.278 4.8825 12.2085 4.92553 12.1294C5.03058 11.9361 5.18584 11.7747 5.37495 11.6623C5.56406 11.5498 5.78001 11.4904 6.00003 11.4904C6.22005 11.4904 6.436 11.5498 6.6251 11.6623C6.81421 11.7747 6.96947 11.9361 7.07453 12.1294C7.1175 12.2087 7.17603 12.2785 7.2466 12.3347C7.31717 12.3908 7.39834 12.4321 7.48526 12.4562C7.57217 12.4802 7.66304 12.4865 7.75244 12.4746C7.84183 12.4627 7.92791 12.433 8.00553 12.387L9.82903 11.302C10.1545 11.1088 10.2665 10.6797 10.0789 10.3451C9.96887 10.1506 9.91103 9.93093 9.91103 9.70744C9.91103 9.48394 9.96887 9.26425 10.0789 9.06974V9.06904ZM6.00003 3.38084C6.866 3.38195 7.6962 3.7264 8.3086 4.33867C8.921 4.95094 9.26563 5.78106 9.26693 6.64704C9.26526 7.51296 8.92054 8.34294 8.30824 8.95524C7.69593 9.56755 6.86595 9.91227 6.00003 9.91394C5.13405 9.91246 4.30396 9.56779 3.69162 8.95545C3.07927 8.34311 2.73461 7.51302 2.73313 6.64704C2.73461 5.78106 3.07927 4.95097 3.69162 4.33862C4.30396 3.72628 5.13405 3.38162 6.00003 3.38014V3.38084Z" fill="#DFE9E6"/>
<path d="M6 4.86389C5.52737 4.86463 5.07432 5.05271 4.74012 5.3869C4.40592 5.7211 4.21784 6.17416 4.2171 6.64679C4.21784 7.11941 4.40592 7.57247 4.74012 7.90667C5.07432 8.24087 5.52737 8.42895 6 8.42969C6.47263 8.42895 6.92569 8.24087 7.25988 7.90667C7.59408 7.57247 7.78216 7.11941 7.7829 6.64679C7.78235 6.1741 7.59433 5.72094 7.26009 5.3867C6.92585 5.05246 6.47269 4.86444 6 4.86389Z" fill="#DFE9E6"/>
</svg>
