<svg width="2" height="5" viewBox="0 0 2 5" fill="none" xmlns="http://www.w3.org/2000/svg">
<path d="M0.839453 0.818C0.859453 0.806 0.889453 0.8 0.929453 0.8H1.65545C1.67545 0.8 1.69145 0.808 1.70345 0.824C1.71945 0.836 1.72745 0.852 1.72745 0.872V4.928C1.72745 4.948 1.71945 4.966 1.70345 4.982C1.69145 4.994 1.67545 5 1.65545 5H0.953453C0.933453 5 0.915453 4.994 0.899453 4.982C0.887453 4.966 0.881453 4.948 0.881453 4.928V1.64C0.881453 1.632 0.877453 1.624 0.869453 1.616C0.861453 1.608 0.853453 1.606 0.845453 1.61L0.251453 1.772L0.227453 1.778C0.191453 1.778 0.173453 1.756 0.173453 1.712L0.155453 1.196C0.155453 1.156 0.173453 1.128 0.209453 1.112L0.839453 0.818Z" fill="#93A1B8"/>
</svg>
