<svg width="4" height="6" viewBox="0 0 4 6" fill="none" xmlns="http://www.w3.org/2000/svg">
<path d="M3.24188 2.996C3.32188 3.18 3.36188 3.392 3.36188 3.632C3.36188 3.848 3.32588 4.048 3.25388 4.232C3.15788 4.488 2.99588 4.688 2.76788 4.832C2.54388 4.976 2.27788 5.048 1.96988 5.048C1.66588 5.048 1.39788 4.972 1.16588 4.82C0.937883 4.668 0.773883 4.462 0.673883 4.202C0.617883 4.046 0.585883 3.878 0.577883 3.698C0.577883 3.65 0.601883 3.626 0.649883 3.626H1.35788C1.40588 3.626 1.42988 3.65 1.42988 3.698C1.44588 3.83 1.46788 3.928 1.49588 3.992C1.53188 4.096 1.58988 4.178 1.66988 4.238C1.75388 4.294 1.85188 4.322 1.96388 4.322C2.18788 4.322 2.34188 4.224 2.42588 4.028C2.48188 3.908 2.50988 3.768 2.50988 3.608C2.50988 3.42 2.47988 3.266 2.41988 3.146C2.32788 2.958 2.17388 2.864 1.95788 2.864C1.91388 2.864 1.86788 2.878 1.81988 2.906C1.77188 2.93 1.71388 2.966 1.64588 3.014C1.62988 3.026 1.61388 3.032 1.59788 3.032C1.57388 3.032 1.55588 3.02 1.54388 2.996L1.18988 2.498C1.18188 2.486 1.17788 2.472 1.17788 2.456C1.17788 2.432 1.18588 2.412 1.20188 2.396L2.15588 1.562C2.16388 1.554 2.16588 1.546 2.16188 1.538C2.16188 1.53 2.15588 1.526 2.14388 1.526H0.733883C0.713883 1.526 0.695883 1.52 0.679883 1.508C0.667883 1.492 0.661883 1.474 0.661883 1.454V0.872C0.661883 0.852 0.667883 0.836 0.679883 0.824C0.695883 0.808 0.713883 0.8 0.733883 0.8H3.23588C3.25588 0.8 3.27188 0.808 3.28388 0.824C3.29988 0.836 3.30788 0.852 3.30788 0.872V1.532C3.30788 1.564 3.29388 1.594 3.26588 1.622L2.47988 2.342C2.47188 2.35 2.46788 2.358 2.46788 2.366C2.47188 2.374 2.48188 2.378 2.49788 2.378C2.84588 2.446 3.09388 2.652 3.24188 2.996Z" fill="#93A1B8"/>
</svg>
