<svg width="4" height="5" viewBox="0 0 4 5" fill="none" xmlns="http://www.w3.org/2000/svg">
<path d="M1.71929 4.238C1.71129 4.246 1.70929 4.254 1.71329 4.262C1.71729 4.27 1.72529 4.274 1.73729 4.274H3.36329C3.38329 4.274 3.39929 4.282 3.41129 4.298C3.42729 4.31 3.43529 4.326 3.43529 4.346V4.928C3.43529 4.948 3.42729 4.966 3.41129 4.982C3.39929 4.994 3.38329 5 3.36329 5H0.663289C0.643289 5 0.625289 4.994 0.609289 4.982C0.597289 4.966 0.591289 4.948 0.591289 4.928V4.376C0.591289 4.34 0.603289 4.31 0.627289 4.286C0.823289 4.094 1.02329 3.886 1.22729 3.662C1.43129 3.434 1.55929 3.292 1.61129 3.236C1.72329 3.104 1.83729 2.978 1.95329 2.858C2.31729 2.454 2.49929 2.154 2.49929 1.958C2.49929 1.818 2.44929 1.704 2.34929 1.616C2.24929 1.524 2.11929 1.478 1.95929 1.478C1.79929 1.478 1.66929 1.524 1.56929 1.616C1.46929 1.704 1.41929 1.822 1.41929 1.97V2.12C1.41929 2.14 1.41129 2.158 1.39529 2.174C1.38329 2.186 1.36729 2.192 1.34729 2.192H0.639289C0.619289 2.192 0.601289 2.186 0.585289 2.174C0.573289 2.158 0.567289 2.14 0.567289 2.12V1.838C0.579289 1.622 0.647289 1.432 0.771289 1.268C0.895289 1.1 1.05929 0.972 1.26329 0.884C1.47129 0.796 1.70329 0.752 1.95929 0.752C2.24329 0.752 2.48929 0.806 2.69729 0.914C2.90929 1.018 3.07129 1.16 3.18329 1.34C3.29929 1.52 3.35729 1.72 3.35729 1.94C3.35729 2.108 3.31529 2.28 3.23129 2.456C3.14729 2.632 3.02129 2.822 2.85329 3.026C2.72929 3.182 2.59529 3.336 2.45129 3.488C2.30729 3.64 2.09329 3.86 1.80929 4.148L1.71929 4.238Z" fill="#93A1B8"/>
</svg>
