<svg width="39" height="38" viewBox="0 0 39 38" fill="none" xmlns="http://www.w3.org/2000/svg">
<path d="M19.5041 0C8.73328 0 0 8.83132 0 19.7189C0 27.614 4.58775 34.4183 11.2131 37.5697L14.5444 28.4708C11.548 26.7321 9.52678 23.4638 9.52678 19.7189C9.52678 14.1477 13.9947 9.63374 19.5 9.63374C25.0053 9.63374 29.4732 14.1518 29.4732 19.7189C29.4732 23.4638 27.4521 26.728 24.4556 28.4708L27.7869 37.5697C34.4123 34.4183 39 27.6099 39 19.7189C39.0041 8.83132 30.2709 0 19.5041 0Z" fill="url(#paint0_linear_2942_2383)"/>
<path d="M27.1793 19.7189C22.0625 21.1484 20.9176 22.3061 19.5041 27.4803C18.0905 22.3061 16.9457 21.1484 11.8289 19.7189C16.9457 18.2895 18.0905 17.1318 19.5041 11.9576C20.9176 17.1318 22.0625 18.2895 27.1793 19.7189Z" fill="white"/>
<defs>
<linearGradient id="paint0_linear_2942_2383" x1="-0.604415" y1="19.2397" x2="38.7189" y2="19.2397" gradientUnits="userSpaceOnUse">
<stop stop-color="#FEBF4E"/>
<stop offset="0.715" stop-color="#FC4CD2"/>
</linearGradient>
</defs>
</svg>
