<svg width="15" height="15" viewBox="0 0 15 15" fill="none" xmlns="http://www.w3.org/2000/svg">
<circle cx="7.5" cy="7.5" r="7" stroke="#93A1B8"/>
<path d="M5.25746 10.625V9.6555L7.52264 7.55811C7.71529 7.37167 7.87686 7.20388 8.00737 7.05473C8.13994 6.90558 8.24041 6.75954 8.30877 6.61661C8.37713 6.47161 8.41131 6.31521 8.41131 6.14742C8.41131 5.96098 8.36884 5.80044 8.28391 5.66579C8.19898 5.52908 8.08298 5.42446 7.9359 5.35196C7.78883 5.27739 7.62207 5.2401 7.43564 5.2401C7.24092 5.2401 7.07105 5.27946 6.92605 5.35818C6.78104 5.43689 6.66918 5.54979 6.59047 5.69687C6.51175 5.84394 6.47239 6.01898 6.47239 6.22199H5.19531C5.19531 5.80562 5.28957 5.44414 5.47807 5.13756C5.66658 4.83098 5.93069 4.59379 6.27042 4.426C6.61014 4.25821 7.00166 4.17432 7.44496 4.17432C7.90069 4.17432 8.29738 4.2551 8.63503 4.41668C8.97476 4.57619 9.23887 4.79784 9.42738 5.08163C9.61589 5.36543 9.71014 5.69065 9.71014 6.05731C9.71014 6.2976 9.66249 6.53479 9.56721 6.76887C9.47399 7.00294 9.30723 7.26292 9.06694 7.54878C8.82665 7.83258 8.48796 8.17334 8.05087 8.57107L7.1218 9.48149V9.52499H9.79403V10.625H5.25746Z" fill="#93A1B8"/>
</svg>
