<svg width="11" height="11" viewBox="0 0 11 11" fill="none" xmlns="http://www.w3.org/2000/svg">
<g clip-path="url(#clip0_5464_11265)">
<path d="M5.4974 0.916504C4.5909 0.916504 3.70476 1.18531 2.95103 1.68893C2.19731 2.19256 1.60985 2.90838 1.26295 3.74587C0.916048 4.58337 0.825283 5.50492 1.00213 6.394C1.17898 7.28308 1.6155 8.09975 2.25649 8.74074C2.89748 9.38173 3.71415 9.81825 4.60323 9.9951C5.49231 10.172 6.41387 10.0812 7.25136 9.73428C8.08886 9.38738 8.80468 8.79992 9.3083 8.0462C9.81192 7.29247 10.0807 6.40633 10.0807 5.49984C10.0794 4.28467 9.59606 3.11967 8.73681 2.26042C7.87756 1.40117 6.71256 0.917852 5.4974 0.916504ZM6.7175 5.40096L5.4974 7.02761H6.51592C6.65098 7.02761 6.78051 7.08127 6.87602 7.17677C6.97152 7.27228 7.02517 7.40181 7.02517 7.53687C7.02517 7.67194 6.97152 7.80147 6.87602 7.89697C6.78051 7.99248 6.65098 8.04613 6.51592 8.04613H4.47888C4.3843 8.04613 4.2916 8.0198 4.21115 7.97008C4.13069 7.92035 4.06568 7.84921 4.02338 7.76462C3.98109 7.68003 3.96318 7.58533 3.97168 7.49114C3.98017 7.39695 4.01473 7.30698 4.07147 7.23132L5.90353 4.78857C5.94773 4.72995 5.97872 4.66247 5.9944 4.59075C6.01008 4.51903 6.01006 4.44477 5.99436 4.37306C5.97866 4.30135 5.94763 4.23388 5.90342 4.17527C5.8592 4.11667 5.80284 4.06832 5.73819 4.03353C5.67354 3.99875 5.60213 3.97835 5.52887 3.97374C5.4556 3.96913 5.3822 3.98042 5.3137 4.00683C5.2452 4.03323 5.18323 4.07414 5.13201 4.12674C5.0808 4.17934 5.04156 4.24239 5.017 4.31156C4.97197 4.43892 4.87821 4.54317 4.75632 4.60139C4.63443 4.65961 4.49441 4.66702 4.36705 4.622C4.2397 4.57698 4.13545 4.48321 4.07723 4.36132C4.01901 4.23944 4.0116 4.09941 4.05662 3.97206C4.10895 3.82487 4.18336 3.68649 4.2773 3.56168C4.5212 3.23809 4.88366 3.02464 5.28494 2.9683C5.48363 2.94039 5.68587 2.9519 5.88012 3.00216C6.07436 3.05242 6.25681 3.14045 6.41703 3.26122C6.57726 3.38199 6.71213 3.53313 6.81394 3.70602C6.91576 3.87891 6.98252 4.07017 7.01042 4.26886C7.03832 4.46755 7.02681 4.66979 6.97655 4.86404C6.92629 5.05829 6.83827 5.24073 6.7175 5.40096Z" fill="#93A1B8"/>
</g>
<defs>
<clipPath id="clip0_5464_11265">
<rect width="11" height="11" fill="white"/>
</clipPath>
</defs>
</svg>
