<svg width="11" height="12" viewBox="0 0 11 12" fill="none" xmlns="http://www.w3.org/2000/svg">
<path d="M5.5 1.50391C4.58217 1.50391 3.68496 1.77725 2.92181 2.28938C2.15866 2.8015 1.56386 3.52941 1.21262 4.38104C0.861386 5.23268 0.769486 6.16979 0.948545 7.07388C1.1276 7.97797 1.56958 8.80843 2.21858 9.46024C2.86759 10.1121 3.69447 10.5559 4.59466 10.7358C5.49485 10.9156 6.42793 10.8233 7.27589 10.4706C8.12386 10.1178 8.84862 9.52042 9.35854 8.75397C9.86846 7.98752 10.1406 7.08642 10.1406 6.16462C10.1393 4.92894 9.6499 3.74427 8.77991 2.87051C7.90992 1.99676 6.73035 1.50528 5.5 1.50391ZM6.1875 4.09319V8.23605C6.1875 8.37339 6.13318 8.50511 6.03648 8.60223C5.93978 8.69935 5.80863 8.75391 5.67188 8.75391C5.53512 8.75391 5.40397 8.69935 5.30727 8.60223C5.21058 8.50511 5.15625 8.37339 5.15625 8.23605V5.06072L4.9268 5.21522C4.81284 5.29144 4.6734 5.31908 4.53915 5.29205C4.4049 5.26502 4.28684 5.18553 4.21094 5.07108C4.13504 4.95663 4.10752 4.81658 4.13444 4.68175C4.16135 4.54692 4.24049 4.42835 4.35446 4.35212L5.3857 3.66164C5.46341 3.60958 5.55373 3.57969 5.64703 3.57517C5.74033 3.57065 5.8331 3.59167 5.91543 3.63598C5.99777 3.68029 6.06657 3.74623 6.11448 3.82676C6.1624 3.90729 6.18764 3.99938 6.1875 4.09319Z" fill="#93A1B8"/>
</svg>
