<svg width="15" height="15" viewBox="0 0 15 15" fill="none" xmlns="http://www.w3.org/2000/svg">
<circle cx="7.5" cy="7.5" r="7" stroke="#93A1B8"/>
<path d="M7.48464 10.7124C7.02063 10.7124 6.60736 10.6327 6.24485 10.4732C5.88441 10.3116 5.59958 10.09 5.39036 9.80824C5.18321 9.52444 5.07653 9.19715 5.07031 8.82635H6.42507C6.43336 8.98171 6.48411 9.11843 6.57733 9.23651C6.67262 9.35251 6.79898 9.44262 6.95641 9.50684C7.11384 9.57105 7.29096 9.60316 7.48775 9.60316C7.69283 9.60316 7.87408 9.56691 8.03152 9.49441C8.18895 9.42191 8.3122 9.32144 8.40128 9.193C8.49035 9.06457 8.53489 8.91646 8.53489 8.74867C8.53489 8.57881 8.48725 8.42862 8.39196 8.29812C8.29874 8.16554 8.16409 8.06197 7.98802 7.98739C7.81401 7.91282 7.60686 7.87553 7.36657 7.87553H6.77308V6.88743H7.36657C7.56957 6.88743 7.74876 6.85221 7.90412 6.78178C8.06155 6.71135 8.18377 6.61399 8.27077 6.4897C8.35778 6.36334 8.40128 6.21626 8.40128 6.04847C8.40128 5.88897 8.36296 5.74914 8.28631 5.62899C8.21174 5.50678 8.10609 5.41149 7.96937 5.34313C7.83472 5.27477 7.67729 5.24059 7.49707 5.24059C7.31478 5.24059 7.14802 5.27373 6.9968 5.34002C6.84558 5.40424 6.7244 5.49642 6.63326 5.61657C6.54211 5.73671 6.49343 5.87757 6.48722 6.03915H5.19771C5.20392 5.6725 5.30853 5.34934 5.51154 5.06969C5.71455 4.79004 5.98799 4.5715 6.33185 4.41406C6.67779 4.25456 7.06827 4.1748 7.50329 4.1748C7.94244 4.1748 8.3267 4.25456 8.65607 4.41406C8.98544 4.57357 9.24127 4.789 9.42356 5.06037C9.60793 5.32966 9.69907 5.6321 9.697 5.96768C9.69907 6.32398 9.58825 6.62124 9.36452 6.85946C9.14287 7.09769 8.8539 7.24891 8.4976 7.31312V7.36284C8.96576 7.42291 9.32206 7.58552 9.5665 7.85067C9.813 8.11375 9.93522 8.44312 9.93315 8.83878C9.93522 9.20129 9.83061 9.52341 9.61932 9.80513C9.4101 10.0869 9.12112 10.3085 8.7524 10.4701C8.38367 10.6317 7.96109 10.7124 7.48464 10.7124Z" fill="#93A1B8"/>
</svg>
