<svg width="14" height="14" viewBox="0 0 14 14" fill="none" xmlns="http://www.w3.org/2000/svg">
<path d="M14 7C14 10.866 10.866 14 7 14C3.13401 14 0 10.866 0 7C0 3.13401 3.13401 0 7 0C10.866 0 14 3.13401 14 7Z" fill="#59AE99"/>
<path fill-rule="evenodd" clip-rule="evenodd" d="M10.3535 4.64639C10.4472 4.74016 10.4999 4.86731 10.4999 4.99989C10.4999 5.13248 10.4472 5.25963 10.3535 5.35339L6.35346 9.35339C6.2597 9.44713 6.13254 9.49979 5.99996 9.49979C5.86738 9.49979 5.74022 9.44713 5.64646 9.35339L3.64646 7.35339C3.55538 7.25909 3.50498 7.13279 3.50612 7.00169C3.50726 6.87059 3.55985 6.74519 3.65255 6.65248C3.74525 6.55978 3.87066 6.5072 4.00176 6.50606C4.13286 6.50492 4.25916 6.55531 4.35346 6.64639L5.99996 8.29289L9.64646 4.64639C9.74022 4.55266 9.86738 4.5 9.99996 4.5C10.1325 4.5 10.2597 4.55266 10.3535 4.64639Z" fill="#0A172B"/>
</svg>