<svg width="93" height="92" viewBox="0 0 93 92" fill="none" xmlns="http://www.w3.org/2000/svg">
<g clip-path="url(#clip0_2960_2601)">
<g clip-path="url(#clip1_2960_2601)">
<mask id="mask0_2960_2601" style="mask-type:luminance" maskUnits="userSpaceOnUse" x="0" y="0" width="93" height="92">
<path d="M92.49 0H0.48999V92H92.49V0Z" fill="white"/>
</mask>
<g mask="url(#mask0_2960_2601)">
<path d="M91.0674 46.0002C91.0674 70.6196 71.1094 90.5775 46.49 90.5775C21.8707 90.5775 1.91272 70.6196 1.91272 46.0002C1.91272 21.3808 21.8707 1.42285 46.49 1.42285C71.1094 1.42285 91.0674 21.3808 91.0674 46.0002Z" stroke="white" stroke-opacity="0.2" stroke-width="2.84536"/>
<path d="M69.5002 28.0318C68.6122 25.7804 67.1223 23.8072 65.4585 22.1527C63.7039 20.5259 61.6618 19.2296 59.4334 18.3279C57.9907 17.7537 56.4769 17.3714 54.9318 17.1912C49.4076 16.3952 43.5881 18.0829 39.367 22.2909C34.4934 27.1401 32.781 34.2388 34.9308 40.8475V40.912C33.5805 41.7506 32.3437 42.7548 31.25 43.9004C29.5544 45.6691 28.1804 47.7252 27.2905 49.9766C26.4186 52.2355 25.9812 54.6346 26.0006 57.0514C26.0006 59.5073 26.5185 61.8416 27.4887 64.012C28.3785 66.2634 29.8685 68.2366 31.5304 69.891C33.285 71.5178 35.327 72.8142 37.5555 73.7159C39.7371 74.6002 42.0907 75 44.4705 75C44.134 75 43.8031 74.9834 43.4741 74.9687C46.0387 75.1061 48.6036 74.7047 50.9988 73.7912C53.3941 72.8777 55.565 71.4729 57.3676 69.6699C59.7616 67.3057 61.4465 64.3357 62.2365 61.0877C63.0265 57.8396 62.891 54.4396 61.8449 51.2626C63.2846 50.4044 64.5974 49.3548 65.7464 48.1434C67.442 46.3747 68.8179 44.3186 69.7058 42.0672C70.5788 39.8085 71.0175 37.4093 70.9995 34.9924C71.0018 32.5951 70.4943 30.2239 69.5095 28.0318M53.5316 29.3418C53.4026 28.7641 53.3418 28.1737 53.3503 27.5823C54.0176 27.6965 54.6514 27.8918 55.2851 28.1534C56.175 28.5219 56.9489 29.1207 57.549 29.8079C58.1248 30.5209 58.6351 31.291 58.923 32.1754C59.2371 33.0597 59.3268 33.9441 59.3268 34.8284C59.227 36.508 58.51 38.0943 57.3097 39.2907L53.5335 29.351L53.5316 29.3418ZM57.8462 40.7001C57.9603 40.5933 58.0762 40.4864 58.1752 40.363C58.9473 39.5615 59.4334 38.7103 59.8372 37.7099C60.241 36.7113 60.3232 35.6298 60.3232 34.6571C60.3232 33.5756 60.0353 32.6009 59.6315 31.7166C59.2277 30.8322 58.5454 30.029 57.8537 29.351C57.162 28.7522 56.2722 28.1534 55.3842 27.8678C54.743 27.6394 54.0419 27.5399 53.3353 27.492C53.3631 26.3414 53.6586 25.2125 54.199 24.1923C55.0047 24.347 55.7786 24.5847 56.5283 24.9292C57.9023 25.5261 58.9959 26.4105 59.968 27.3851C60.8579 28.4666 61.6636 29.6365 62.1496 30.9225C62.6357 32.2085 62.8413 33.5516 62.8413 34.9426C62.8413 36.3355 62.5534 37.7099 61.9533 38.8817C61.4604 40.1143 60.6857 41.2182 59.6895 42.1077C59.3676 42.3946 59.0266 42.6599 58.6688 42.9018L57.8369 40.7075L57.8462 40.7001ZM59.1866 44.2283C59.7008 43.8496 60.188 43.4366 60.6447 42.9921C61.6486 41.9106 62.5366 40.5361 63.0226 39.1672C63.6227 37.686 63.8284 36.2047 63.8284 34.7455C63.8284 33.29 63.4582 31.8069 62.8507 30.4398C62.2551 29.1008 61.3865 27.8967 60.2989 26.9024C59.2109 25.9352 58.035 25.1337 56.6591 24.6492C55.883 24.3832 55.0812 24.1967 54.2663 24.0928C54.6102 23.4627 55.0309 22.8805 55.5487 22.3572C55.9525 21.9556 56.3974 21.6129 56.8573 21.3181C57.2274 21.4471 57.5901 21.5945 57.9434 21.7603C59.6616 22.4805 61.2068 23.5489 62.4786 24.896C63.7723 26.182 64.7425 27.8605 65.4342 29.5131C66.1259 31.2818 66.4138 33.1334 66.4138 34.9021C66.3353 36.7246 65.9368 38.5199 65.236 40.2082C64.5444 41.7798 63.4601 43.2297 62.1665 44.5157C61.5022 45.1774 60.7655 45.7644 59.9699 46.266L59.1866 44.2117V44.2283ZM39.9185 70.6612C39.6281 70.5527 39.3424 70.4322 39.0623 70.3C37.3441 69.5799 35.7989 68.5115 34.5271 67.1643C33.2334 65.8783 32.2632 64.1999 31.5715 62.538C30.9149 60.8156 30.5854 58.9889 30.5994 57.149C30.674 55.326 31.0726 53.5301 31.7771 51.8429C32.4688 50.2714 33.555 48.8214 34.8486 47.5373C35.4614 46.9239 36.1367 46.3744 36.8638 45.8975L37.6621 47.961C37.2068 48.3038 36.7752 48.6762 36.3703 49.0756C35.3664 50.1571 34.4766 51.5334 33.9924 52.9005C33.3904 54.3817 33.1848 55.8649 33.1848 57.3222C33.1848 58.7777 33.555 60.2608 34.1644 61.6297C34.76 62.9687 35.6286 64.1728 36.7161 65.1671C37.8023 66.1325 38.9781 66.9358 40.3615 67.4185C41.0626 67.6636 41.7954 67.8349 42.5282 67.9418C42.1897 68.5473 41.7682 69.104 41.2757 69.5963C40.87 69.9999 40.4169 70.3543 39.9259 70.652M40.4774 67.1238C39.1034 66.525 38.0098 65.6406 37.0377 64.666C36.1478 63.5864 35.3496 62.4146 34.8561 61.1286C34.3825 59.8404 34.1482 58.4786 34.1644 57.1085C34.1644 55.7175 34.4523 54.3412 35.0542 53.1695C35.5403 51.9166 36.3441 50.8296 37.3162 49.9453C37.5892 49.6984 37.8771 49.4773 38.1724 49.2636L39.0286 51.4929C38.9632 51.5574 38.8978 51.6145 38.8323 51.6882C38.0584 52.4822 37.5723 53.3426 37.1685 54.3412C36.7648 55.3398 36.6825 56.4213 36.6825 57.3959C36.6825 58.4829 36.9704 59.4502 37.3742 60.3345C37.778 61.2189 38.4603 62.0222 39.152 62.702C39.8437 63.2989 40.7335 63.8977 41.6215 64.1833C42.2141 64.3878 42.8478 64.4965 43.4984 64.5444C43.4463 65.69 43.1339 66.8095 42.5843 67.8202C41.8579 67.666 41.1512 67.4324 40.4774 67.1238ZM43.3507 62.6762C43.4741 63.2658 43.5152 63.8554 43.4984 64.4375C42.8942 64.3174 42.3041 64.1366 41.7374 63.8977C40.8476 63.5292 40.0736 62.9305 39.4735 62.2433C38.8978 61.5302 38.3874 60.7601 38.0995 59.8758C37.7855 58.9914 37.6957 58.1071 37.6957 57.2227C37.792 55.6092 38.4587 54.0799 39.5801 52.9005L43.3507 62.6762ZM31.9846 69.5797C30.2872 67.8939 29.1188 65.952 28.229 63.7909C27.4569 61.7348 27.0512 59.3691 27.0512 57.1177C27.1671 54.8645 27.6532 52.6131 28.543 50.5588C29.431 48.4769 30.805 46.6197 32.3866 45.0555C33.3482 44.108 34.4265 43.2829 35.5964 42.5996L36.2058 44.1712C35.2748 44.7773 34.4111 45.4572 33.654 46.2844C32.274 47.7233 31.2021 49.4214 30.5022 51.2773C29.8105 53.1289 29.5301 55.1021 29.5301 57.068C29.646 59.008 30.0161 60.9738 30.8219 62.7425C31.6229 64.5111 32.7637 66.1103 34.1812 67.4517C35.5748 68.7619 37.2093 69.798 38.9968 70.5046C39.2511 70.604 39.5072 70.6851 39.7633 70.7754C38.5935 71.4584 37.2675 71.8386 35.9086 71.8808C35.4244 71.8897 34.941 71.8402 34.4691 71.7334C33.5781 71.0981 32.7489 70.3826 31.9921 69.5963M68.4888 41.5108C67.599 43.589 66.225 45.448 64.6434 47.0122C63.6295 48.0153 62.4839 48.8803 61.2373 49.5842L60.6447 48.0181C61.6538 47.3957 62.5753 46.6449 63.3853 45.7851C64.7593 44.326 65.853 42.6475 66.5372 40.7886C67.2288 38.9388 67.5093 36.9656 67.5093 34.9997C67.3934 33.0597 67.0232 31.0939 66.2156 29.3252C64.6192 25.7887 61.6875 23.0045 58.0425 21.5632C57.7083 21.4343 57.3676 21.3224 57.0218 21.2278C58.6876 20.2422 60.6741 19.9255 62.5702 20.3435C63.4676 20.981 64.2976 21.7013 65.0379 22.4807C66.7353 24.1665 67.9037 26.0991 68.7917 28.2695C69.5656 30.3237 69.9694 32.6912 69.9694 34.9426C69.8554 37.194 69.3693 39.4547 68.4795 41.5016" fill="white"/>
</g>
</g>
</g>
<defs>
<clipPath id="clip0_2960_2601">
<rect width="92" height="92" fill="white" transform="translate(0.48999)"/>
</clipPath>
<clipPath id="clip1_2960_2601">
<rect width="92" height="92" fill="white" transform="translate(0.48999)"/>
</clipPath>
</defs>
</svg>
