<svg width="20" height="20" viewBox="0 0 20 20" fill="none" xmlns="http://www.w3.org/2000/svg">
<path d="M20 10C20 15.522 15.5222 20 10.0003 20C4.47775 20 0 15.522 0 10C0 4.478 4.47775 0 10.0003 0C15.5222 0 20 4.478 20 10Z" fill="#DD1438"/>
<path d="M15.7356 5.18919C15.4959 4.57819 15.0936 4.04269 14.6445 3.59369C14.1708 3.1522 13.6194 2.8004 13.0178 2.55569C12.6283 2.39986 12.2196 2.29611 11.8025 2.24719C10.3111 2.03119 8.7399 2.48919 7.60027 3.63119C6.2845 4.94719 5.82219 6.87369 6.40261 8.66719V8.68469C6.03805 8.91228 5.70412 9.18479 5.40884 9.49569C4.95107 9.97569 4.58011 10.5337 4.33987 11.1447C4.10447 11.7577 3.98637 12.4088 3.99162 13.0647C3.99162 13.7312 4.13143 14.3647 4.39337 14.9537C4.63361 15.5647 5.03586 16.1002 5.48454 16.5492C5.95825 16.9907 6.50957 17.3425 7.11121 17.5872C7.70021 17.8272 8.33563 17.9357 8.97812 17.9357C8.88727 17.9357 8.79794 17.9312 8.70911 17.9272C9.40149 17.9645 10.094 17.8556 10.7406 17.6076C11.3873 17.3597 11.9734 16.9785 12.4601 16.4892C13.1064 15.8476 13.5613 15.0416 13.7746 14.1601C13.9879 13.2786 13.9513 12.3559 13.6689 11.4937C14.0575 11.2608 14.412 10.9759 14.7222 10.6472C15.18 10.1672 15.5514 9.60919 15.7912 8.99819C16.0268 8.38521 16.1453 7.73411 16.1404 7.07819C16.141 6.42759 16.004 5.78409 15.7382 5.18919M11.4244 5.54469C11.3896 5.38792 11.3732 5.22769 11.3755 5.06719C11.5557 5.09819 11.7268 5.15119 11.8978 5.22219C12.1381 5.32219 12.347 5.48469 12.509 5.67119C12.6645 5.86469 12.8023 6.07369 12.88 6.31369C12.9648 6.55369 12.989 6.79369 12.989 7.03369C12.9621 7.48951 12.7685 7.92 12.4444 8.24469L11.4249 5.54719L11.4244 5.54469ZM12.5893 8.62719C12.6201 8.59819 12.6514 8.56919 12.6781 8.53569C12.8866 8.31819 13.0178 8.08719 13.1268 7.81569C13.2358 7.54469 13.258 7.25119 13.258 6.98719C13.258 6.69369 13.1803 6.42919 13.0713 6.18919C12.9623 5.94919 12.7781 5.73119 12.5913 5.54719C12.4046 5.38469 12.1643 5.22219 11.9246 5.14469C11.7515 5.08269 11.5622 5.05569 11.3714 5.04269C11.3789 4.73044 11.4587 4.42407 11.6046 4.14719C11.8221 4.18919 12.0311 4.25369 12.2335 4.34719C12.6044 4.50919 12.8997 4.74919 13.1621 5.01369C13.4024 5.30719 13.6199 5.62469 13.7511 5.97369C13.8824 6.32269 13.9379 6.68719 13.9379 7.06469C13.9379 7.44269 13.8601 7.81569 13.6981 8.13369C13.5651 8.4682 13.3559 8.7678 13.0869 9.00919C13.0001 9.08705 12.908 9.15904 12.8114 9.22469L12.5868 8.62919L12.5893 8.62719ZM12.9512 9.58469C13.09 9.48191 13.2215 9.36982 13.3448 9.24919C13.6159 8.95569 13.8556 8.58269 13.9868 8.21119C14.1488 7.80919 14.2044 7.40719 14.2044 7.01119C14.2044 6.61619 14.1044 6.21369 13.9404 5.84269C13.7796 5.47929 13.5451 5.15252 13.2515 4.88269C12.9577 4.62019 12.6403 4.40269 12.2688 4.27119C12.0593 4.199 11.8428 4.1484 11.6228 4.12019C11.7156 3.94919 11.8292 3.79119 11.969 3.64919C12.078 3.54019 12.1981 3.44719 12.3223 3.36719C12.4222 3.40219 12.5202 3.44219 12.6155 3.48719C13.0794 3.68264 13.4966 3.97258 13.84 4.33819C14.1892 4.68719 14.4512 5.14269 14.6379 5.59119C14.8246 6.07119 14.9024 6.57369 14.9024 7.05369C14.8812 7.54829 14.7736 8.0355 14.5844 8.49369C14.3977 8.92019 14.1049 9.31369 13.7557 9.66269C13.5763 9.84226 13.3774 10.0016 13.1626 10.1377L12.9512 9.58019V9.58469ZM7.74916 16.7582C7.67076 16.7287 7.59364 16.6961 7.51801 16.6602C7.05413 16.4648 6.63695 16.1748 6.29359 15.8092C5.94433 15.4602 5.68239 15.0047 5.49565 14.5537C5.31838 14.0863 5.22942 13.5905 5.2332 13.0912C5.25334 12.5965 5.36096 12.1091 5.55117 11.6512C5.73791 11.2247 6.03114 10.8312 6.3804 10.4827C6.54584 10.3162 6.72816 10.1671 6.92447 10.0377L7.13998 10.5977C7.01707 10.6907 6.90056 10.7918 6.79123 10.9002C6.5202 11.1937 6.27996 11.5672 6.14924 11.9382C5.98673 12.3402 5.93121 12.7427 5.93121 13.1382C5.93121 13.5332 6.03114 13.9357 6.19568 14.3072C6.35648 14.6706 6.59098 14.9973 6.8846 15.2672C7.17783 15.5292 7.49529 15.7472 7.86878 15.8782C8.05804 15.9447 8.25589 15.9912 8.45373 16.0202C8.36234 16.1845 8.24856 16.3356 8.11558 16.4692C8.00607 16.5787 7.88373 16.6749 7.75118 16.7557M7.90007 15.7982C7.52911 15.6357 7.23386 15.3957 6.97141 15.1312C6.73117 14.8382 6.51566 14.5202 6.38242 14.1712C6.25455 13.8216 6.19129 13.452 6.19568 13.0802C6.19568 12.7027 6.2734 12.3292 6.43592 12.0112C6.56714 11.6712 6.78416 11.3762 7.04661 11.1362C7.1203 11.0692 7.19802 11.0092 7.27777 10.9512L7.50892 11.5562C7.49126 11.5737 7.47359 11.5892 7.45593 11.6092C7.24698 11.8247 7.11576 12.0582 7.00674 12.3292C6.89772 12.6002 6.87552 12.8937 6.87552 13.1582C6.87552 13.4532 6.95324 13.7157 7.06226 13.9557C7.17127 14.1957 7.35549 14.4137 7.54223 14.5982C7.72897 14.7602 7.96921 14.9227 8.20895 15.0002C8.36894 15.0557 8.54004 15.0852 8.71567 15.0982C8.70161 15.4091 8.61727 15.7129 8.46887 15.9872C8.27277 15.9453 8.08199 15.8819 7.90007 15.7982ZM8.6758 14.5912C8.70911 14.7512 8.72022 14.9112 8.71567 15.0692C8.55256 15.0366 8.39324 14.9875 8.24024 14.9227C8 14.8227 7.79105 14.6602 7.62904 14.4737C7.47359 14.2802 7.33581 14.0712 7.25808 13.8312C7.17329 13.5912 7.14907 13.3512 7.14907 13.1112C7.17505 12.6733 7.35505 12.2583 7.65781 11.9382L8.6758 14.5912ZM5.60719 16.4647C5.14891 16.0072 4.83347 15.4802 4.59323 14.8937C4.38479 14.3357 4.27527 13.6937 4.27527 13.0827C4.30656 12.4712 4.43778 11.8602 4.67802 11.3027C4.91776 10.7377 5.28872 10.2337 5.7157 9.80919C5.97532 9.55202 6.26645 9.32811 6.58228 9.14269L6.74682 9.56919C6.49547 9.73369 6.2623 9.91819 6.05789 10.1427C5.68531 10.5332 5.39591 10.994 5.20696 11.4977C5.02021 12.0002 4.94451 12.5357 4.94451 13.0692C4.9758 13.5957 5.07573 14.1292 5.29326 14.6092C5.50953 15.0892 5.81751 15.5231 6.20022 15.8872C6.57647 16.2427 7.01773 16.5239 7.50034 16.7157C7.56898 16.7427 7.63813 16.7647 7.70727 16.7892C7.39146 16.9745 7.03346 17.0777 6.66657 17.0892C6.53586 17.0916 6.40535 17.0782 6.27794 17.0492C6.0374 16.8768 5.81353 16.6826 5.60921 16.4692M15.4626 8.84719C15.2223 9.41119 14.8514 9.91569 14.4244 10.3402C14.1507 10.6124 13.8414 10.8472 13.5048 11.0382L13.3448 10.6132C13.6173 10.4443 13.8661 10.2405 14.0847 10.0072C14.4557 9.61119 14.751 9.15569 14.9357 8.65119C15.1224 8.14919 15.1981 7.61369 15.1981 7.08019C15.1668 6.55369 15.0669 6.02019 14.8489 5.54019C14.4179 4.58045 13.6264 3.82484 12.6423 3.43369C12.5521 3.39872 12.4601 3.36835 12.3667 3.34269C12.8164 3.07519 13.3528 2.98926 13.8647 3.10269C14.1069 3.27569 14.331 3.47119 14.5309 3.68269C14.9892 4.14019 15.3046 4.66469 15.5444 5.25369C15.7533 5.81119 15.8623 6.45369 15.8623 7.06469C15.8315 7.67569 15.7003 8.28919 15.4601 8.84469" fill="white"/>
</svg>
