<svg width="30" height="30" viewBox="0 0 30 30" fill="none" xmlns="http://www.w3.org/2000/svg">
<path d="M14.9997 29.9995C23.2839 29.9995 29.9995 23.2839 29.9995 14.9997C29.9995 6.71562 23.2839 0 14.9997 0C6.71562 0 0 6.71562 0 14.9997C0 23.2839 6.71562 29.9995 14.9997 29.9995Z" fill="url(#paint0_linear_108_47)"/>
<path fill-rule="evenodd" clip-rule="evenodd" d="M14.4566 5.4112C13.5857 5.51158 12.7759 5.90895 12.1637 6.53644C11.704 6.99159 11.2685 7.45888 10.8028 7.91858C10.5696 8.15779 10.334 8.39042 10.0983 8.62659C9.86262 8.86277 9.60268 9.1136 9.35791 9.36141C9.11314 9.60921 8.90984 9.82667 8.68327 10.0568C8.32927 10.4108 7.97526 10.7648 7.62125 11.1223C7.34968 11.403 7.08418 11.6928 6.81564 11.973C6.65735 12.1404 6.48692 12.2956 6.33773 12.4716C5.72205 13.2228 5.38555 14.164 5.38545 15.1353C5.38545 15.1924 5.38545 15.2511 5.38899 15.3077C5.40158 15.8654 5.54797 16.4119 5.81582 16.9012C5.96831 17.197 6.1449 17.4796 6.3438 17.7463C6.47529 17.9314 6.57087 17.9284 6.74382 17.7852C6.77687 17.7578 6.8078 17.7278 6.83637 17.6957C7.0068 17.5162 7.17369 17.3372 7.34715 17.1581C7.59192 16.9012 7.84276 16.6448 8.08753 16.3849C8.3323 16.125 8.59781 15.8387 8.85471 15.5702C8.9771 15.4387 9.10757 15.3173 9.23097 15.1878C9.49344 14.9102 9.75035 14.624 10.0128 14.3494C10.2753 14.0748 10.5413 13.8178 10.7982 13.5493C11.0551 13.2808 11.3712 12.952 11.6605 12.6537C11.9497 12.3553 12.195 12.1045 12.4636 11.8298C12.813 11.4683 13.1534 11.0981 13.4993 10.737C13.7142 10.516 13.9352 10.3041 14.1501 10.0861C14.4485 9.78773 14.7262 9.48936 15.019 9.19098C15.3118 8.8926 15.5292 8.69234 15.7801 8.43543C16.3408 7.86902 16.9006 7.29924 17.4596 6.72608C17.4957 6.6905 17.5295 6.65267 17.5607 6.6128C17.6983 6.43934 17.7099 6.4009 17.54 6.27852C17.2806 6.0741 17.0027 5.89414 16.7101 5.74093C16.1929 5.49905 15.6289 5.37372 15.0579 5.37378H15.0296C14.8389 5.37382 14.6484 5.38581 14.4591 5.40969L14.4561 5.40665L14.4566 5.4112ZM19.397 9.08579H19.3611C19.1161 9.08587 18.8741 9.13935 18.6519 9.2425C18.4298 9.34565 18.2327 9.49599 18.0746 9.68305C18.0462 9.71438 18.0164 9.74426 17.985 9.77256L17.0717 10.6682C16.7733 10.9671 16.4507 11.2923 16.1371 11.6058C15.8777 11.8652 15.6177 12.1191 15.3613 12.3791C15.1049 12.639 14.8298 12.9283 14.5522 13.1999C14.2745 13.4714 13.9792 13.7561 13.6925 14.0358L12.6744 15.0624L10.782 16.9554C9.94589 17.7949 9.11095 18.6327 8.27718 19.4688C8.11636 19.6271 8.11332 19.6478 8.27718 19.8177C8.6772 20.2223 9.0833 20.6239 9.47119 21.0315C9.71118 21.2859 10.0279 21.4546 10.3729 21.5119C10.6984 21.5774 11.0346 21.5661 11.355 21.479C11.595 21.4197 11.8166 21.3017 11.9998 21.1357L12.991 20.1783C13.2237 19.9548 13.4598 19.7338 13.6894 19.5067C14.1491 19.0516 14.6028 18.5934 15.0625 18.1413C15.4357 17.7741 15.818 17.41 16.1968 17.0428L17.7509 15.5282C18.2344 15.0533 18.7209 14.5759 19.2104 14.101C19.243 14.0525 19.2883 14.0139 19.3414 13.9894C19.3944 13.9648 19.4532 13.9553 19.5113 13.9618C19.5694 13.9683 19.6245 13.9906 19.6708 14.0263C19.7171 14.062 19.7527 14.1097 19.7738 14.1643C20.0226 14.5277 20.1557 14.9578 20.1556 15.3982C20.1555 15.4736 20.1516 15.5488 20.144 15.6238C20.1038 16.0678 19.9207 16.4868 19.6221 16.8178C19.2635 17.2032 18.8817 17.5673 18.5095 17.9375C18.244 18.1999 17.9724 18.4568 17.7064 18.7223C17.363 19.0627 17.0257 19.4091 16.6823 19.7495C16.6317 19.8061 16.5842 19.8658 16.5306 19.9194L16.1933 20.2689C15.9404 20.5217 15.683 20.7675 15.4347 21.0209C15.1864 21.2742 14.9011 21.5706 14.6356 21.8472C14.6119 21.874 14.5851 21.8917 14.5613 21.9155C14.2624 22.1931 13.9878 22.4718 13.7041 22.7514C13.5701 22.8829 13.4416 23.017 13.3101 23.1484C13.0836 23.3785 12.8504 23.6036 12.6325 23.8382C12.4984 23.9783 12.4984 24.0648 12.6567 24.1756C12.9166 24.3751 13.1933 24.5517 13.4836 24.7035C14.2058 25.0301 15.0061 25.144 15.7907 25.0318C16.5695 24.9393 17.3001 24.6065 17.8809 24.0795C18.3224 23.6916 18.7168 23.2557 19.1285 22.8379C19.4269 22.539 19.7257 22.2199 20.0448 21.9125L20.9076 21.0436C21.1706 20.7781 21.43 20.5121 21.696 20.2496C21.962 19.9872 22.2928 19.6736 22.5912 19.3778C22.8895 19.0819 23.1884 18.781 23.4868 18.4644C23.7247 18.2222 23.9445 17.9627 24.1442 17.6881C24.5167 17.1254 24.7492 16.4818 24.8224 15.8109C24.8629 15.4777 24.8629 15.1408 24.8224 14.8075C24.7336 14.2146 24.5188 13.6476 24.1923 13.1447C23.9575 12.7889 23.6766 12.4658 23.3568 12.1839C22.53 11.3631 21.7056 10.5362 20.897 9.69721C20.7207 9.50094 20.5051 9.34394 20.2642 9.23643C20.0233 9.12891 19.7625 9.07328 19.4987 9.07315H19.4875L19.398 9.08528L19.397 9.08579Z" fill="white"/>
<defs>
<linearGradient id="paint0_linear_108_47" x1="2.04391" y1="6.29374" x2="26.1176" y2="22.7652" gradientUnits="userSpaceOnUse">
<stop stop-color="#FF3B3B"/>
<stop offset="1" stop-color="#FF9914"/>
</linearGradient>
</defs>
</svg>
