<svg width="26" height="26" viewBox="0 0 26 26" fill="none" xmlns="http://www.w3.org/2000/svg">
<path d="M13 26C5.83886 26 0 20.1611 0 13C0 5.83886 5.83886 0 13 0C20.1611 0 26 5.83886 26 13C26 20.1611 20.1611 26 13 26Z" fill="#377DFF"/>
<path d="M13 26C5.83886 26 0 20.1611 0 13C0 5.83886 5.83886 0 13 0C20.1611 0 26 5.83886 26 13C26 20.1611 20.1611 26 13 26Z" fill="#377DFF"/>
<path d="M13 26C5.83886 26 0 20.1611 0 13C0 5.83886 5.83886 0 13 0C20.1611 0 26 5.83886 26 13C26 20.1611 20.1611 26 13 26Z" fill="#377DFF"/>
<path d="M19.4636 12.0796H6.53785C6.09213 12.0796 5.7207 11.7082 5.7207 11.2625C5.7207 10.8167 6.09213 10.4453 6.53785 10.4453H19.4636C19.9093 10.4453 20.2807 10.8167 20.2807 11.2625C20.2807 11.7082 19.9093 12.0796 19.4636 12.0796Z" fill="#377DFF"/>
<path d="M19.4636 12.0796H6.53785C6.09213 12.0796 5.7207 11.7082 5.7207 11.2625C5.7207 10.8167 6.09213 10.4453 6.53785 10.4453H19.4636C19.9093 10.4453 20.2807 10.8167 20.2807 11.2625C20.2807 11.7082 19.9093 12.0796 19.4636 12.0796Z" fill="white"/>
<path d="M15.9426 6.58166L20.0432 10.6822C20.3552 10.9942 20.3552 11.5142 20.0432 11.8411C19.7312 12.1531 19.2112 12.1531 18.8843 11.8411L14.7838 7.74051C14.4718 7.42851 14.4718 6.90851 14.7838 6.58166C15.1106 6.26966 15.6306 6.26966 15.9426 6.58166ZM7.11747 14.1737L11.218 18.2742C11.53 18.5862 11.53 19.1062 11.218 19.4331C10.906 19.7451 10.386 19.7451 10.0592 19.4331L5.95861 15.3325C5.64661 15.0205 5.64661 14.5005 5.95861 14.1737C6.27061 13.8468 6.79061 13.8468 7.11747 14.1737Z" fill="white"/>
<path d="M19.4636 15.5708H6.53785C6.09213 15.5708 5.7207 15.1994 5.7207 14.7537C5.7207 14.308 6.09213 13.9365 6.53785 13.9365H19.4636C19.9093 13.9365 20.2807 14.308 20.2807 14.7537C20.2807 15.1994 19.9093 15.5708 19.4636 15.5708Z" fill="white"/>
</svg>
