<svg width="33" height="22" viewBox="0 0 33 22" fill="none" xmlns="http://www.w3.org/2000/svg">
<path d="M1.5 21.8C1.1 21.8 0.8 21.7 0.6 21.5C0.4 21.2333 0.366667 20.8667 0.5 20.4L7.6 0.999994C7.8 0.333328 8.23333 -4.76837e-06 8.9 -4.76837e-06H15.4C16.3333 -4.76837e-06 16.7 0.433329 16.5 1.3L11.7 20.8C11.5 21.4667 11.0333 21.8 10.3 21.8H1.5ZM17.6 21.8C17.2 21.8 16.9 21.7 16.7 21.5C16.5 21.2333 16.4667 20.8667 16.6 20.4L23.7 0.999994C23.9 0.333328 24.3333 -4.76837e-06 25 -4.76837e-06H31.5C32.4333 -4.76837e-06 32.8 0.433329 32.6 1.3L27.8 20.8C27.6 21.4667 27.1333 21.8 26.4 21.8H17.6Z" fill="#CE5E5E"/>
</svg>
