<svg width="20" height="20" viewBox="0 0 20 20" fill="none" xmlns="http://www.w3.org/2000/svg">
<g opacity="0.3" clip-path="url(#clip0_256_4968)">
<path fill-rule="evenodd" clip-rule="evenodd" d="M15.32 18.9826C15.5884 19.1726 15.9342 19.2201 16.2425 19.1035C16.5509 18.986 16.7775 18.7226 16.8459 18.4035C17.57 15.0001 19.3267 6.38596 19.9859 3.29012C20.0359 3.05679 19.9525 2.81429 19.7692 2.65846C19.5859 2.50262 19.3317 2.45762 19.105 2.54179C15.6109 3.83512 4.85003 7.87262 0.451693 9.50012C0.172526 9.60346 -0.0091403 9.87179 2.6369e-05 10.166C0.0100264 10.461 0.20836 10.7168 0.494193 10.8026C2.46669 11.3926 5.05586 12.2135 5.05586 12.2135C5.05586 12.2135 6.26586 15.8676 6.89669 17.726C6.97586 17.9593 7.15836 18.1426 7.39919 18.206C7.63919 18.2685 7.89586 18.2026 8.07503 18.0335C9.08836 17.0768 10.655 15.5976 10.655 15.5976C10.655 15.5976 13.6317 17.7801 15.32 18.9826ZM6.14503 11.7518L7.54419 16.3668L7.85503 13.4443C7.85503 13.4443 13.2609 8.56846 16.3425 5.78929C16.4325 5.70762 16.445 5.57096 16.37 5.47512C16.2959 5.37929 16.1592 5.35679 16.0567 5.42179C12.485 7.70262 6.14503 11.7518 6.14503 11.7518Z" fill="white"/>
</g>
<defs>
<clipPath id="clip0_256_4968">
<rect width="20" height="20" fill="white"/>
</clipPath>
</defs>
</svg>
