<svg width="35" height="35" viewBox="0 0 35 35" fill="none" xmlns="http://www.w3.org/2000/svg">
<path d="M17.0889 0.360352C7.71782 0.360352 0.121094 8.03254 0.121094 17.4967C0.121094 26.9608 7.71782 34.633 17.0889 34.633C26.4599 34.633 34.0567 26.9608 34.0567 17.4967C34.0567 8.03847 26.4658 0.360352 17.0889 0.360352ZM21.5423 19.2352H16.8069C15.8551 19.2352 15.0854 18.4579 15.0854 17.4967V8.41822C15.0854 7.45698 15.8551 6.67967 16.8069 6.67967C17.7587 6.67967 18.5283 7.45698 18.5283 8.41822V15.7641H21.5423C22.4941 15.7641 23.2638 16.5414 23.2638 17.5026C23.2638 18.4639 22.4883 19.2352 21.5423 19.2352Z" fill="white"/>
</svg>
