<svg width="14" height="14" viewBox="0 0 14 14" fill="none" xmlns="http://www.w3.org/2000/svg">
<path d="M13.6946 10.8903C14.3631 12.0511 13.7996 13.0369 12.4976 13.0369H1.51458C0.177001 13.0369 -0.386499 12.0867 0.282584 10.8903L5.77408 1.77275C6.44258 0.57575 7.534 0.57575 8.20308 1.77275L13.6946 10.8903ZM6.55108 4.05417V8.72083C6.55108 8.77829 6.5624 8.83518 6.58439 8.88826C6.60637 8.94134 6.6386 8.98957 6.67922 9.03019C6.71985 9.07082 6.76808 9.10304 6.82116 9.12503C6.87424 9.14702 6.93113 9.15833 6.98858 9.15833C7.04604 9.15833 7.10293 9.14702 7.15601 9.12503C7.20909 9.10304 7.25732 9.07082 7.29794 9.03019C7.33857 8.98957 7.3708 8.94134 7.39278 8.88826C7.41477 8.83518 7.42608 8.77829 7.42608 8.72083V4.05417C7.42608 3.93813 7.37999 3.82685 7.29794 3.74481C7.2159 3.66276 7.10462 3.61667 6.98858 3.61667C6.87255 3.61667 6.76127 3.66276 6.67922 3.74481C6.59718 3.82685 6.55108 3.93813 6.55108 4.05417ZM6.55108 10.4708V11.0542C6.55108 11.1116 6.5624 11.1685 6.58439 11.2216C6.60637 11.2747 6.6386 11.3229 6.67922 11.3635C6.71985 11.4042 6.76808 11.4364 6.82116 11.4584C6.87424 11.4804 6.93113 11.4917 6.98858 11.4917C7.04604 11.4917 7.10293 11.4804 7.15601 11.4584C7.20909 11.4364 7.25732 11.4042 7.29794 11.3635C7.33857 11.3229 7.3708 11.2747 7.39278 11.2216C7.41477 11.1685 7.42608 11.1116 7.42608 11.0542V10.4708C7.42608 10.3548 7.37999 10.2435 7.29794 10.1615C7.2159 10.0794 7.10462 10.0333 6.98858 10.0333C6.87255 10.0333 6.76127 10.0794 6.67922 10.1615C6.59718 10.2435 6.55108 10.3548 6.55108 10.4708Z" fill="#FAAD14"/>
</svg>
