<svg width="13" height="13" viewBox="0 0 13 13" fill="none" xmlns="http://www.w3.org/2000/svg">
<path d="M12.6278 0.375894C12.3028 0.0437441 11.8218 -0.0791059 11.3733 0.0508941L0.914823 3.07274C0.441623 3.20404 0.106223 3.57909 0.0158731 4.05489C-0.0764269 4.53979 0.245973 5.15599 0.667173 5.41339L3.93732 7.41019C4.27272 7.61559 4.70562 7.56424 4.98317 7.28604L8.72782 3.54139C8.91632 3.34574 9.22832 3.34574 9.41682 3.54139C9.60532 3.72924 9.60532 4.03539 9.41682 4.23039L5.66567 7.97504C5.38747 8.25324 5.33547 8.68484 5.54022 9.02089L7.53832 12.3034C7.77232 12.6927 8.17532 12.9144 8.61732 12.9144C8.66932 12.9144 8.72782 12.9144 8.77982 12.9072C9.28682 12.8429 9.68982 12.4977 9.83932 12.0102L12.9398 1.63039C13.0763 1.18839 12.9528 0.707394 12.6278 0.375894Z" fill="#377DFF"/>
</svg>
