<svg width="32" height="16" viewBox="0 0 32 16" fill="none" xmlns="http://www.w3.org/2000/svg">
<path d="M4.00031 0.5H28.0003C29.9333 0.5 31.5003 2.067 31.5003 4V12C31.5003 13.933 29.9333 15.5 28.0003 15.5H4.00031C2.06731 15.5 0.500305 13.933 0.500305 12V4C0.500305 2.067 2.06731 0.5 4.00031 0.5Z" fill="#0A172B" stroke="#377DFF"/>
<path d="M7.02214 12C6.91547 12 6.86214 11.9467 6.86214 11.84V5.16C6.86214 5.05333 6.91547 5 7.02214 5H7.87214C7.96547 5 8.03214 5.03667 8.07214 5.11L9.63214 7.63C9.64547 7.65 9.65881 7.66 9.67214 7.66C9.69214 7.66 9.70547 7.65 9.71214 7.63L11.2921 5.11C11.3321 5.03667 11.3988 5 11.4921 5H12.3321C12.4388 5 12.4921 5.05333 12.4921 5.16V11.84C12.4921 11.9467 12.4388 12 12.3321 12H11.4921C11.3855 12 11.3321 11.9467 11.3321 11.84V7.11C11.3321 7.08333 11.3221 7.06667 11.3021 7.06C11.2888 7.05333 11.2755 7.06333 11.2621 7.09L10.0721 9.04C10.0321 9.11333 9.96547 9.15 9.87214 9.15H9.48214C9.38881 9.15 9.32214 9.11333 9.28214 9.04L8.09214 7.09C8.07881 7.06333 8.06214 7.05333 8.04214 7.06C8.02881 7.06667 8.02214 7.08333 8.02214 7.11V11.84C8.02214 11.9467 7.96881 12 7.86214 12H7.02214ZM18.332 12C18.2387 12 18.1787 11.9567 18.152 11.87L17.842 10.84C17.8353 10.8067 17.812 10.79 17.772 10.79H15.152C15.112 10.79 15.0887 10.8067 15.082 10.84L14.772 11.87C14.7453 11.9567 14.6853 12 14.592 12H13.682C13.6287 12 13.5887 11.9833 13.562 11.95C13.542 11.9167 13.5387 11.8733 13.552 11.82L15.692 5.13C15.7187 5.04333 15.7787 5 15.872 5H17.042C17.1353 5 17.1953 5.04333 17.222 5.13L19.372 11.82C19.3787 11.8333 19.382 11.8533 19.382 11.88C19.382 11.96 19.3353 12 19.242 12H18.332ZM15.392 9.81C15.3853 9.85667 15.402 9.88 15.442 9.88H17.482C17.522 9.88 17.5387 9.85667 17.532 9.81L16.502 6.41C16.4953 6.38333 16.482 6.37 16.462 6.37C16.4487 6.37 16.4353 6.38333 16.422 6.41L15.392 9.81ZM20.1964 12C20.1097 12 20.0664 11.9667 20.0664 11.9C20.0664 11.8667 20.0764 11.8367 20.0964 11.81L22.0564 8.54C22.0764 8.51333 22.0764 8.48667 22.0564 8.46L20.0964 5.19C20.0764 5.15667 20.0664 5.12667 20.0664 5.1C20.0664 5.03333 20.1097 5 20.1964 5H21.1164C21.2097 5 21.273 5.03667 21.3064 5.11L22.7464 7.55C22.7597 7.57 22.773 7.58 22.7864 7.58C22.8064 7.58 22.8197 7.57 22.8264 7.55L24.2764 5.11C24.3164 5.03667 24.3797 5 24.4664 5H25.3764C25.463 5 25.5064 5.03333 25.5064 5.1C25.5064 5.12667 25.4964 5.15667 25.4764 5.19L23.5164 8.46C23.4964 8.48667 23.4964 8.51333 23.5164 8.54L25.4764 11.81C25.4964 11.8367 25.5064 11.8667 25.5064 11.9C25.5064 11.9667 25.463 12 25.3764 12H24.4664C24.3797 12 24.3164 11.9633 24.2764 11.89L22.8264 9.46C22.8197 9.44 22.8064 9.43 22.7864 9.43C22.773 9.43 22.7597 9.44 22.7464 9.46L21.2964 11.89C21.263 11.9633 21.1997 12 21.1064 12H20.1964Z" fill="#377DFF"/>
</svg>
