<svg width="19" height="27" viewBox="0 0 19 27" fill="none" xmlns="http://www.w3.org/2000/svg">
<g clip-path="url(#clip0_2610_6265)">
<path fill-rule="evenodd" clip-rule="evenodd" d="M7.64368 15.9462L15.6369 14.5898L18.9999 22.3377L14.841 22.2909L11.4236 25.0228L7.64368 15.9462Z" fill="#D0401B"/>
<path fill-rule="evenodd" clip-rule="evenodd" d="M12.2413 15.0859L3.67175 15.3096L0 23.9155L4.15889 23.8682L7.57625 26.6001L12.2413 15.0859Z" fill="#FF6600"/>
<path fill-rule="evenodd" clip-rule="evenodd" d="M9.66928 0.00172417C10.1628 -0.0190782 10.5517 0.150461 10.9439 0.396449C11.4421 0.707445 12.0026 1.32216 12.6945 1.7122C13.6683 2.26034 15.4711 1.50418 16.3948 2.85581C16.9336 3.64422 16.959 4.26205 16.9991 4.8726C17.0423 5.53152 17.1595 6.13739 17.8435 7.02929C18.9766 8.50522 19.2126 9.48761 18.6288 10.5116C18.2309 11.2095 17.3933 11.5975 17.1991 12.0395C16.7869 12.9803 17.2429 13.6892 16.6782 14.786C16.286 15.5463 15.6812 16.0476 14.8753 16.3035C14.1955 16.5188 13.5136 16.2073 12.97 16.4325C12.0137 16.8282 11.3086 17.7482 10.548 17.9807C10.2541 18.0707 9.96167 18.1149 9.66928 18.1128C9.37742 18.1149 9.08451 18.0707 8.79106 17.9807C8.03001 17.7482 7.3249 16.8282 6.36856 16.4325C5.82495 16.2073 5.14306 16.5188 4.46328 16.3035C3.65789 16.0476 3.05253 15.5463 2.66039 14.786C2.09567 13.6892 2.55167 12.9803 2.13948 12.0395C1.94526 11.5975 1.10767 11.2095 0.709728 10.5116C0.126006 9.48761 0.36245 8.50522 1.49506 7.02929C2.17906 6.13739 2.29623 5.53152 2.33951 4.8726C2.37962 4.26205 2.40495 3.64422 2.94381 2.85581C3.86742 1.50418 5.67031 2.26034 6.64406 1.7122C7.33651 1.32216 7.89648 0.707445 8.3947 0.396449C8.78737 0.150461 9.17634 -0.0190782 9.66928 0.00172417V0.00172417Z" fill="#F5C800"/>
<path fill-rule="evenodd" clip-rule="evenodd" d="M9.66931 0.00180227C10.1628 -0.0195202 10.5512 0.150539 10.9439 0.396007C11.4421 0.707003 12.0026 1.32171 12.6945 1.71176C13.4688 2.14757 14.7676 1.75908 15.7314 2.26094L4.85281 16.3764C4.7235 16.366 4.59314 16.3442 4.46331 16.3031C3.65739 16.0472 3.05256 15.5464 2.66042 14.7855C2.0957 13.6887 2.5517 12.9799 2.1395 12.0391C1.94528 11.597 1.1077 11.2091 0.709751 10.5112C0.126028 9.48717 0.362473 8.50477 1.49456 7.02885C2.17908 6.13746 2.29625 5.53107 2.33953 4.87216C2.37964 4.26161 2.40497 3.64378 2.94331 2.85537C3.86745 1.50321 5.67086 2.2599 6.64408 1.71176C7.33653 1.32171 7.89703 0.707003 8.39472 0.396007C8.78739 0.150539 9.17636 -0.0195202 9.66931 0.00180227Z" fill="#FFDD61"/>
<path fill-rule="evenodd" clip-rule="evenodd" d="M9.64313 2.43359C13.4331 2.43359 16.5058 5.46138 16.5058 9.19645C16.5058 12.931 13.4331 15.9588 9.64313 15.9588C5.85263 15.9588 2.77991 12.931 2.77991 9.19645C2.77991 5.46138 5.85263 2.43359 9.64313 2.43359V2.43359Z" fill="#E37E00"/>
<path fill-rule="evenodd" clip-rule="evenodd" d="M9.64299 3.79102C12.673 3.79102 15.1287 6.21137 15.1287 9.19703C15.1287 12.1827 12.673 14.6025 9.64299 14.6025C6.61302 14.6025 4.15674 12.1827 4.15674 9.19703C4.15674 6.21137 6.61302 3.79102 9.64299 3.79102Z" fill="white"/>
<path d="M11.6987 11.9062H7.58728V10.503H8.91148V8.17942L7.58728 8.28447V6.88135L9.37381 6.42578H10.7803V10.503H11.6987V11.9062Z" fill="#203B60"/>
</g>
<defs>
<clipPath id="clip0_2610_6265">
<rect width="19" height="26.6" fill="white"/>
</clipPath>
</defs>
</svg>
