<svg width="19" height="27" viewBox="0 0 19 27" fill="none" xmlns="http://www.w3.org/2000/svg">
<g clip-path="url(#clip0_2610_6283)">
<path fill-rule="evenodd" clip-rule="evenodd" d="M7.64368 15.9462L15.6369 14.5898L18.9999 22.3377L14.841 22.2909L11.4236 25.0228L7.64368 15.9462Z" fill="#D0401B"/>
<path fill-rule="evenodd" clip-rule="evenodd" d="M12.2413 15.0859L3.67175 15.3096L0 23.9155L4.15889 23.8682L7.57625 26.6001L12.2413 15.0859Z" fill="#FF6600"/>
<path fill-rule="evenodd" clip-rule="evenodd" d="M9.66929 0.00172417C10.1628 -0.0190782 10.5517 0.150461 10.9439 0.396449C11.4421 0.707445 12.0026 1.32216 12.6945 1.7122C13.6683 2.26034 15.4717 1.50418 16.3953 2.85581C16.9336 3.64422 16.959 4.26205 16.9991 4.8726C17.0423 5.53152 17.1595 6.13739 17.844 7.02929C18.9767 8.50522 19.2126 9.48761 18.6288 10.5116C18.2309 11.2095 17.3933 11.5975 17.1991 12.0395C16.7869 12.9803 17.2429 13.6892 16.6782 14.786C16.286 15.5463 15.6812 16.0476 14.8753 16.3035C14.196 16.5188 13.5142 16.2073 12.97 16.4325C12.0137 16.8282 11.3086 17.7482 10.548 17.9807C10.2541 18.0707 9.96168 18.1149 9.66929 18.1128C9.37743 18.1149 9.08452 18.0707 8.79107 17.9807C8.03002 17.7482 7.3249 16.8282 6.3691 16.4325C5.82496 16.2073 5.14307 16.5188 4.46329 16.3035C3.6579 16.0476 3.05254 15.5463 2.6604 14.786C2.09568 13.6892 2.55221 12.9803 2.13949 12.0395C1.94579 11.5975 1.10768 11.2095 0.709738 10.5116C0.126543 9.48761 0.36246 8.50522 1.49507 7.02929C2.17907 6.13739 2.29624 5.53152 2.33952 4.8726C2.37963 4.26205 2.40496 3.64422 2.94382 2.85581C3.86743 1.50418 5.67032 2.26034 6.64407 1.7122C7.33651 1.32216 7.89649 0.707445 8.39471 0.396449C8.78738 0.150461 9.17635 -0.0190782 9.66929 0.00172417Z" fill="#F5C800"/>
<path fill-rule="evenodd" clip-rule="evenodd" d="M9.66928 0.00180227C10.1628 -0.0195202 10.5512 0.150539 10.9439 0.396007C11.4421 0.707003 12.0026 1.32171 12.6945 1.71176C13.4688 2.14757 14.7676 1.75908 15.7319 2.26094L4.85278 16.3764C4.72348 16.366 4.59312 16.3442 4.46328 16.3031C3.65737 16.0472 3.05253 15.5464 2.66039 14.7855C2.09567 13.6887 2.5522 12.9799 2.13948 12.0391C1.94578 11.597 1.10767 11.2091 0.709728 10.5112C0.126006 9.48717 0.36245 8.50478 1.49506 7.02885C2.17906 6.13746 2.29623 5.53107 2.33951 4.87216C2.37962 4.26161 2.40495 3.64378 2.94328 2.85537C3.86742 1.50321 5.67084 2.2599 6.64406 1.71176C7.33651 1.32171 7.89701 0.707003 8.3947 0.396007C8.78737 0.150539 9.17634 -0.0195202 9.66928 0.00180227Z" fill="#FFDD61"/>
<path d="M9.64313 15.9593C13.4336 15.9593 16.5064 12.9315 16.5064 9.19645C16.5064 5.46143 13.4336 2.43359 9.64313 2.43359C5.85268 2.43359 2.77991 5.46143 2.77991 9.19645C2.77991 12.9315 5.85268 15.9593 9.64313 15.9593Z" fill="#E37E00"/>
<path d="M9.64299 14.6031C12.673 14.6031 15.1292 12.1827 15.1292 9.19703C15.1292 6.21137 12.673 3.79102 9.64299 3.79102C6.61302 3.79102 4.15674 6.21137 4.15674 9.19703C4.15674 12.1827 6.61302 14.6031 9.64299 14.6031Z" fill="white"/>
<path d="M10.0299 8.38469V7.81471C9.85199 7.78559 9.56382 7.77102 9.16641 7.77102C8.76899 7.77102 8.27394 7.83239 7.68071 7.95512L7.44902 6.65758C8.17313 6.43499 8.87296 6.32422 9.54905 6.32422C10.1307 6.32422 10.5518 6.35906 10.8125 6.42927C11.0738 6.49948 11.267 6.58425 11.391 6.68358C11.6644 6.91137 11.8005 7.25617 11.8005 7.71798C11.8005 8.30252 11.5541 8.72377 11.0622 8.98068V9.02489C11.6496 9.26411 11.943 9.69992 11.943 10.3313C11.943 10.6407 11.894 10.9054 11.7963 11.1244C11.6982 11.3438 11.5752 11.5134 11.4269 11.6335C11.2786 11.7531 11.0828 11.8483 10.8395 11.9185C10.4774 12.0178 9.96916 12.0672 9.31366 12.0672C8.65816 12.0672 8.00107 11.9913 7.34241 11.8394L7.59152 10.3926C8.15519 10.5268 8.63282 10.5939 9.02444 10.5939C9.41605 10.5939 9.75118 10.5767 10.0299 10.5414V9.98076L8.4993 9.8315V8.55995L10.0299 8.38469Z" fill="#203B60"/>
</g>
<defs>
<clipPath id="clip0_2610_6283">
<rect width="19" height="26.6" fill="white"/>
</clipPath>
</defs>
</svg>
