<svg width="19" height="28" viewBox="0 0 19 28" fill="none" xmlns="http://www.w3.org/2000/svg">
<g clip-path="url(#clip0_2610_6274)">
<path fill-rule="evenodd" clip-rule="evenodd" d="M7.64368 16.5141L15.6369 15.1094L18.9999 23.1339L14.841 23.0855L11.4236 25.9149L7.64368 16.5141Z" fill="#D0401B"/>
<path fill-rule="evenodd" clip-rule="evenodd" d="M12.2413 15.625L3.67175 15.8566L0 24.7699L4.15889 24.7209L7.57625 27.5503L12.2413 15.625Z" fill="#FF6600"/>
<path fill-rule="evenodd" clip-rule="evenodd" d="M9.66928 0.00178575C10.1628 -0.0197596 10.5517 0.155835 10.9439 0.410608C11.4421 0.732711 12.0026 1.36937 12.6945 1.77335C13.6683 2.34107 15.4711 1.5579 16.3948 2.9578C16.9336 3.77437 16.959 4.41427 16.9991 5.04662C17.0423 5.72907 17.1595 6.35658 17.8435 7.28033C18.9766 8.80897 19.2126 9.82645 18.6288 10.887C18.2309 11.6099 17.3933 12.0117 17.1991 12.4695C16.7869 13.4439 17.2429 14.1781 16.6782 15.314C16.286 16.1015 15.6812 16.6208 14.8753 16.8858C14.1955 17.1088 13.5136 16.7861 12.97 17.0194C12.0137 17.4293 11.3086 18.3821 10.548 18.6229C10.2541 18.716 9.96167 18.7618 9.66928 18.7597C9.37742 18.7618 9.08451 18.716 8.79106 18.6229C8.03001 18.3821 7.32489 17.4293 6.36856 17.0194C5.82495 16.7861 5.14306 17.1088 4.46328 16.8858C3.65789 16.6208 3.05253 16.1015 2.66039 15.314C2.09567 14.1781 2.55167 13.4439 2.13948 12.4695C1.94526 12.0117 1.10767 11.6099 0.709728 10.887C0.126006 9.82645 0.36245 8.80897 1.49506 7.28033C2.17906 6.35658 2.29623 5.72907 2.33951 5.04662C2.37962 4.41427 2.40495 3.77437 2.94381 2.9578C3.86742 1.5579 5.67031 2.34107 6.64406 1.77335C7.33651 1.36937 7.89648 0.732711 8.3947 0.410608C8.78737 0.155835 9.17634 -0.0197596 9.66928 0.00178575Z" fill="#F5C800"/>
<path fill-rule="evenodd" clip-rule="evenodd" d="M9.66931 0.00186664C10.1628 -0.0202173 10.5512 0.155916 10.9439 0.41015C11.4421 0.732253 12.0026 1.36892 12.6945 1.77289C13.4688 2.22427 14.7676 1.82191 15.7314 2.34169L4.85281 16.9613C4.7235 16.9505 4.59314 16.9279 4.46331 16.8853C3.65739 16.6203 3.05256 16.1016 2.66042 15.3136C2.0957 14.1776 2.5517 13.4435 2.1395 12.4691C1.94528 12.0112 1.1077 11.6094 0.709751 10.8866C0.126028 9.82599 0.362473 8.80852 1.49456 7.27988C2.17908 6.35666 2.29625 5.72861 2.33953 5.04616C2.37964 4.41381 2.40497 3.77391 2.94331 2.95735C3.86745 1.5569 5.67086 2.34061 6.64408 1.77289C7.33653 1.36892 7.89703 0.732253 8.39472 0.41015C8.78739 0.155916 9.17636 -0.0202173 9.66931 0.00186664Z" fill="#FFDD61"/>
<path d="M9.64313 16.5283C13.4336 16.5283 16.5064 13.3923 16.5064 9.52391C16.5064 5.6555 13.4336 2.51953 9.64313 2.51953C5.85268 2.51953 2.77991 5.6555 2.77991 9.52391C2.77991 13.3923 5.85268 16.5283 9.64313 16.5283Z" fill="#E37E00"/>
<path d="M9.64299 15.124C12.673 15.124 15.1292 12.6172 15.1292 9.52487C15.1292 6.43258 12.673 3.92578 9.64299 3.92578C6.61302 3.92578 4.15674 6.43258 4.15674 9.52487C4.15674 12.6172 6.61302 15.124 9.64299 15.124Z" fill="white"/>
<path d="M7.67176 8.31496L7.4406 6.96245C8.18793 6.73192 8.93262 6.61719 9.67415 6.61719C9.97076 6.61719 10.2183 6.62634 10.4173 6.64412C10.6157 6.66243 10.8221 6.70768 11.0358 6.78039C11.249 6.85311 11.4179 6.95329 11.5425 7.08041C11.8275 7.37073 11.9695 7.81565 11.9695 8.41514C11.9695 9.01464 11.8037 9.45632 11.4718 9.74126C11.1393 10.0257 10.4394 10.3526 9.37121 10.7216V10.9763H11.8808V12.429H7.31604V11.2941C7.31604 10.9548 7.37832 10.6311 7.50287 10.3219C7.57993 10.1468 7.76676 9.93463 8.06337 9.68686C8.22329 9.54735 8.43862 9.41431 8.70832 9.28719C8.97801 9.15953 9.23346 9.03996 9.4736 8.92792C9.71426 8.81589 9.90796 8.72378 10.0568 8.65107V8.16091C9.78973 8.13075 9.54379 8.11566 9.3179 8.11566C8.77218 8.11566 8.22329 8.18192 7.67176 8.31496Z" fill="#203B60"/>
</g>
<defs>
<clipPath id="clip0_2610_6274">
<rect width="19" height="27.55" fill="white"/>
</clipPath>
</defs>
</svg>
