<svg width="20" height="20" viewBox="0 0 20 20" fill="none" xmlns="http://www.w3.org/2000/svg">
<path d="M10 20C11.1 20 12 19.1 12 18H8.00003C8.00003 19.1 8.90003 20 10 20ZM16 14V9C16 5.93 14.37 3.36 11.5 2.68V2C11.5 1.17 10.83 0.5 10 0.5C9.17003 0.5 8.50003 1.17 8.50003 2V2.68C5.64003 3.36 4.00003 5.92 4.00003 9V14L2.00003 16V17H18V16L16 14ZM14 15H6.00003V9C6.00003 6.52 7.51003 4.5 10 4.5C12.49 4.5 14 6.52 14 9V15ZM5.58003 2.08L4.15003 0.65C1.75003 2.48 0.170029 5.3 0.0300293 8.5H2.03003C2.18003 5.85 3.54003 3.53 5.58003 2.08ZM17.97 8.5H19.97C19.82 5.3 18.24 2.48 15.85 0.65L14.43 2.08C16.45 3.53 17.82 5.85 17.97 8.5Z" fill="#CE5E5E"/>
</svg>
