<svg width="23" height="23" viewBox="0 0 23 23" fill="none" xmlns="http://www.w3.org/2000/svg">
<path d="M21.7008 0.645972C21.1423 0.075174 20.3157 -0.135943 19.545 0.0874612L1.57212 5.28049C0.758927 5.50613 0.182544 6.15065 0.0272778 6.96831C-0.131339 7.80161 0.422703 8.86055 1.14653 9.30289L6.76627 12.7344C7.34265 13.0874 8.08658 12.9991 8.56355 12.521L14.9987 6.08587C15.3226 5.74964 15.8588 5.74964 16.1828 6.08587C16.5067 6.40868 16.5067 6.9348 16.1828 7.26991L9.73642 13.7051C9.25834 14.1832 9.16898 14.9249 9.52084 15.5024L12.9546 21.1433C13.3567 21.8124 14.0492 22.1933 14.8088 22.1933C14.8982 22.1933 14.9987 22.1933 15.0881 22.181C15.9593 22.0704 16.6519 21.4773 16.9088 20.6395L22.237 2.80182C22.4716 2.04225 22.2593 1.21565 21.7008 0.645972" fill="white"/>
<path opacity="0.3" fill-rule="evenodd" clip-rule="evenodd" d="M1.12877 16.5406C0.914304 16.5406 0.699836 16.4591 0.536751 16.2949C0.209464 15.9676 0.209464 15.4381 0.536751 15.1108L2.06148 13.585C2.38877 13.2588 2.91936 13.2588 3.24664 13.585C3.57281 13.9123 3.57281 14.4429 3.24664 14.7701L1.72079 16.2949C1.55771 16.4591 1.34324 16.5406 1.12877 16.5406ZM5.33011 17.8726C5.11564 17.8726 4.90118 17.791 4.73809 17.6268C4.4108 17.2995 4.4108 16.7701 4.73809 16.4428L6.26282 14.9169C6.59011 14.5908 7.1207 14.5908 7.44798 14.9169C7.77415 15.2442 7.77415 15.7748 7.44798 16.1021L5.92213 17.6268C5.75905 17.791 5.54458 17.8726 5.33011 17.8726ZM5.6135 21.8581C5.77658 22.0223 5.99105 22.1038 6.20552 22.1038C6.41999 22.1038 6.63446 22.0223 6.79754 21.8581L8.32339 20.3334C8.64956 20.0061 8.64956 19.4755 8.32339 19.1482C7.99611 18.822 7.46552 18.822 7.13823 19.1482L5.6135 20.6741C5.28621 21.0013 5.28621 21.5308 5.6135 21.8581Z" fill="white"/>
</svg>
