<svg width="25" height="24" viewBox="0 0 25 24" fill="none" xmlns="http://www.w3.org/2000/svg">
<path d="M20.925 22.8754H12.3801H3.83525C2.68921 22.8754 1.76855 22.4091 1.30875 21.5959C0.848837 20.7827 0.904795 19.7205 1.46284 18.6825L10.0855 2.64487C10.6468 1.59931 11.4815 1 12.3744 1C13.2675 1 14.1013 1.59855 14.6641 2.64319L23.2959 18.6842C23.8538 19.7222 23.9115 20.7836 23.4507 21.5967C22.9917 22.4099 22.0703 22.8754 20.925 22.8754ZM12.3753 2.68354C12.0914 2.68354 11.7661 2.97562 11.5025 3.46475L2.87982 19.5041C2.60965 20.0074 2.5464 20.4596 2.70777 20.7448C2.8693 21.0294 3.28044 21.1928 3.83525 21.1928H20.925C21.4807 21.1928 21.891 21.0302 22.0524 20.7448C22.2129 20.4603 22.1506 20.0083 21.8797 19.505L13.248 3.46473C12.9852 2.97562 12.6583 2.68354 12.3753 2.68354ZM12.3801 15.2809C11.9325 15.2809 11.5691 14.9045 11.5691 14.4391V8.86302C11.5691 8.39831 11.9325 8.0212 12.3801 8.0212C12.8279 8.0212 13.1913 8.39834 13.1913 8.86302V14.4391C13.1913 14.9045 12.8279 15.2809 12.3801 15.2809ZM12.3945 19.4404C13.0925 19.4404 13.6583 18.8521 13.6583 18.1264C13.6583 17.4008 13.0925 16.8125 12.3945 16.8125C11.6966 16.8125 11.1307 17.4008 11.1307 18.1265C11.1307 18.8521 11.6966 19.4404 12.3945 19.4404Z" fill="white" stroke="white" stroke-width="0.5"/>
</svg>
