<svg width="12" height="12" viewBox="0 0 12 12" fill="none" xmlns="http://www.w3.org/2000/svg">
<path d="M5.6086 0.391602C2.51106 0.391602 0 2.90266 0 6.0002C0 9.09777 2.51106 11.6088 5.6086 11.6088C8.70614 11.6088 11.2172 9.09777 11.2172 6.0002C11.2172 2.90266 8.70614 0.391602 5.6086 0.391602ZM5.6086 10.7145C3.00497 10.7145 0.894291 8.60385 0.894291 6.0002C0.894291 3.39656 3.00497 1.28589 5.6086 1.28589C8.21224 1.28589 10.3229 3.39657 10.3229 6.0002C10.3229 8.60386 8.21224 10.7145 5.6086 10.7145Z" fill="#CE5E5E"/>
<path d="M5.03516 3.28269C5.03516 3.43497 5.09565 3.58102 5.20333 3.6887C5.31102 3.79638 5.45706 3.85688 5.60935 3.85688C5.76163 3.85688 5.90768 3.79638 6.01537 3.6887C6.12305 3.58102 6.18354 3.43497 6.18354 3.28269C6.18354 3.1304 6.12305 2.98435 6.01537 2.87667C5.90768 2.76899 5.76163 2.7085 5.60935 2.7085C5.45706 2.7085 5.31102 2.76899 5.20333 2.87667C5.09565 2.98435 5.03516 3.1304 5.03516 3.28269Z" fill="#CE5E5E"/>
<path d="M6.18354 8.7444C6.18354 9.04644 5.93871 9.29127 5.63667 9.29127H5.58203C5.28001 9.29127 5.03516 9.04644 5.03516 8.7444V4.97803C5.03516 4.676 5.28001 4.43115 5.58203 4.43115H5.63667C5.93871 4.43115 6.18354 4.676 6.18354 4.97803V8.7444Z" fill="#CE5E5E"/>
</svg>
