<svg width="30" height="30" viewBox="0 0 30 30" fill="none" xmlns="http://www.w3.org/2000/svg">
<circle cx="15" cy="15" r="15" fill="white"/>
<path d="M24.75 13.0253C23.8125 12.1596 22.5156 10.8378 21.4594 9.90027L21.3969 9.85652C21.2929 9.77301 21.1756 9.70752 21.05 9.66277V9.66277C18.5031 9.18777 6.65 6.97214 6.41875 7.00027C6.35395 7.00934 6.29202 7.03283 6.2375 7.06902L6.17812 7.11589C6.10501 7.19014 6.04948 7.27984 6.01563 7.37839L6 7.41902V7.64089V7.67527C7.33438 11.3909 12.6031 23.5628 13.6406 26.419C13.7031 26.6128 13.8219 26.9815 14.0438 27.0003H14.0938C14.2125 27.0003 14.7188 26.3315 14.7188 26.3315C14.7188 26.3315 23.7688 15.3565 24.6844 14.1878C24.8029 14.0438 24.9075 13.8889 24.9969 13.7253C25.0197 13.5972 25.0089 13.4654 24.9657 13.3427C24.9224 13.2201 24.8481 13.1107 24.75 13.0253V13.0253ZM17.0406 14.3034L20.9031 11.1003L23.1688 13.1878L17.0406 14.3034ZM15.5406 14.094L8.89063 8.64402L19.65 10.6284L15.5406 14.094ZM16.1406 15.5221L22.9469 14.4253L15.1656 23.8003L16.1406 15.5221ZM7.9875 9.18777L14.9844 15.1253L13.9719 23.8065L7.9875 9.18777Z" fill="#FF060A"/>
</svg>
