<svg width="20" height="20" viewBox="0 0 20 20" fill="none" xmlns="http://www.w3.org/2000/svg">
<g opacity="0.3" clip-path="url(#clip0_256_4966)">
<path d="M20 3.7977C19.2642 4.12437 18.4733 4.34437 17.6433 4.44353C18.4908 3.93603 19.1417 3.13187 19.4475 2.17354C18.655 2.64354 17.7767 2.9852 16.8417 3.16937C16.0942 2.37187 15.0267 1.87354 13.8467 1.87354C11.1975 1.87354 9.25083 4.3452 9.84917 6.91104C6.44 6.7402 3.41667 5.10687 1.3925 2.62437C0.3175 4.46854 0.835 6.88103 2.66167 8.1027C1.99 8.08103 1.35667 7.89687 0.804167 7.58937C0.759167 9.4902 2.12167 11.2685 4.095 11.6644C3.5175 11.821 2.885 11.8577 2.24167 11.7344C2.76333 13.3644 4.27833 14.5502 6.075 14.5835C4.35 15.936 2.17667 16.5402 0 16.2835C1.81583 17.4477 3.97333 18.1269 6.29 18.1269C13.9083 18.1269 18.2125 11.6927 17.9525 5.92187C18.7542 5.3427 19.45 4.6202 20 3.7977V3.7977Z" fill="white"/>
</g>
<defs>
<clipPath id="clip0_256_4966">
<rect width="20" height="20" fill="white"/>
</clipPath>
</defs>
</svg>
