<svg width="14" height="14" viewBox="0 0 14 14" fill="none" xmlns="http://www.w3.org/2000/svg">
<path d="M13.9863 2.65777C13.4716 2.88625 12.9186 3.04053 12.3382 3.10997C12.9307 2.75437 13.3855 2.19157 13.5998 1.52097C13.0453 1.85025 12.4311 2.08909 11.7776 2.21789C11.2542 1.65957 10.5085 1.31097 9.68302 1.31097C8.09837 1.31097 6.81359 2.59701 6.81359 4.18321C6.81359 4.40833 6.83904 4.62757 6.88799 4.83785C4.50332 4.71801 2.38887 3.57449 0.973729 1.83681C0.72673 2.26101 0.585189 2.75437 0.585189 3.28077C0.585189 4.27729 1.09177 5.15649 1.86158 5.67141C1.39108 5.65657 0.948833 5.52721 0.561971 5.31217C0.561692 5.32421 0.561691 5.33625 0.561691 5.34829C0.561691 6.73989 1.55081 7.90077 2.86356 8.16481C2.62272 8.23033 2.36929 8.26561 2.10746 8.26561C1.92256 8.26561 1.7427 8.24769 1.56759 8.21409C1.93263 9.35509 2.99252 10.1856 4.24821 10.2088C3.26609 10.9791 2.02886 11.4383 0.684492 11.4383C0.452878 11.4383 0.224341 11.4246 0 11.398C1.26996 12.2131 2.77825 12.6885 4.3987 12.6885C9.67659 12.6885 12.5628 8.31181 12.5628 4.51613C12.5628 4.39153 12.56 4.26777 12.5544 4.14457C13.1153 3.73969 13.6017 3.23373 13.9863 2.65777Z" fill="#5577FD"/>
</svg>
