<svg width="48" height="42" viewBox="0 0 48 42" fill="none" xmlns="http://www.w3.org/2000/svg">
<path fill-rule="evenodd" clip-rule="evenodd" d="M1.5629 16.9449H12.6478C13.0623 16.9449 13.4598 17.1096 13.7529 17.4027C14.046 17.6958 14.2107 18.0933 14.2107 18.5078V39.4663C14.2107 39.8808 14.046 40.2783 13.7529 40.5714C13.4598 40.8645 13.0623 41.0292 12.6478 41.0292H1.5629C1.14839 41.0292 0.750863 40.8645 0.457762 40.5714C0.164662 40.2783 0 39.8808 0 39.4663V18.5195C0 18.105 0.164662 17.7075 0.457762 17.4144C0.750863 17.1213 1.14839 16.9566 1.5629 16.9566V16.9449ZM24.2874 2.46464C24.3497 1.994 24.5275 1.54609 24.805 1.16088C25.0825 0.775676 25.451 0.46516 25.8777 0.257044C26.5651 -0.0374735 27.3343 -0.0803595 28.0501 0.13592C28.8028 0.350461 29.5063 0.71017 30.121 1.19478C31.2322 2.09007 32.1441 3.20773 32.7981 4.47607C33.4521 5.74441 33.8339 7.13544 33.9188 8.55994C33.9824 9.64716 33.9667 10.7376 33.8719 11.8225C33.8068 12.5883 33.7078 13.3893 33.575 14.2255H41.4676C42.7053 14.2642 43.9192 14.575 45.0232 15.1358C45.9056 15.578 46.6592 16.2401 47.2113 17.0582C47.7757 17.929 48.0493 18.9564 47.9927 19.9925C47.9385 20.9335 47.6967 21.8541 47.2816 22.7003C47.5633 23.7677 47.6349 24.8797 47.4926 25.9745C47.3886 26.8149 47.0062 27.5962 46.4064 28.1939C46.4599 29.4456 46.2743 30.6962 45.8594 31.8784C45.4735 32.9043 44.8742 33.8365 44.1011 34.6135C44.0425 35.2739 43.9248 35.9277 43.7494 36.5671C43.5526 37.3235 43.2261 38.04 42.7843 38.6848C41.4442 40.5759 40.3736 40.5329 38.6778 40.4626C38.4395 40.4626 38.1855 40.4626 37.7948 40.4626H22.4237C21.2307 40.5113 20.0435 40.2728 18.9619 39.7671C17.8863 39.1898 16.9522 38.3811 16.2268 37.3993L16.0197 36.7312V18.8165L16.8012 18.6094C18.786 18.0741 20.345 16.3783 21.5524 14.3505C22.7198 12.3 23.638 10.1173 24.2874 7.84882V2.66782L24.3109 2.46464H24.2874ZM26.7568 2.15987C26.6499 2.22631 26.5593 2.31594 26.4916 2.42212C26.424 2.5283 26.3811 2.64832 26.3661 2.77331V7.9973L26.3192 8.29816C25.6179 10.7846 24.6196 13.1774 23.3458 15.425C22.0369 17.6208 20.3177 19.5041 18.1179 20.3755V36.3678C18.5987 36.9979 19.2055 37.5208 19.8996 37.9034C20.6922 38.257 21.5569 38.419 22.4237 38.3761H37.7948C38.0683 38.3761 38.4239 38.3761 38.7599 38.4074C39.764 38.4465 40.4009 38.4738 41.0808 37.5126C41.3837 37.0663 41.6095 36.5724 41.7489 36.0513C41.918 35.4123 42.0215 34.7577 42.0576 34.0977L42.3819 33.4061C43.0599 32.7879 43.5821 32.018 43.9057 31.1595C44.2697 30.0696 44.4028 28.9159 44.2965 27.7719L44.2574 27.1467L44.7888 26.8185C44.9738 26.6809 45.1269 26.5049 45.2375 26.3026C45.3481 26.1003 45.4136 25.8764 45.4296 25.6463C45.5341 24.7106 45.4437 23.7634 45.1639 22.8644L45.2459 22.1064C45.6289 21.4402 45.8573 20.6964 45.9141 19.93C45.9474 19.3255 45.7873 18.726 45.4569 18.2187C45.0999 17.7003 44.6173 17.2809 44.0542 16.9996C43.2354 16.5833 42.3349 16.3525 41.4168 16.3236H31.0665L31.301 15.0811C31.5189 13.9453 31.678 12.7989 31.7776 11.6467C31.8674 10.6659 31.8844 9.67992 31.8284 8.6967C31.7687 7.5661 31.4729 6.46053 30.9601 5.45113C30.4473 4.44173 29.7289 3.55086 28.8511 2.83583C28.4557 2.5198 28.0034 2.2824 27.5187 2.13643C27.2659 2.04705 26.9901 2.04705 26.7373 2.13643L26.7568 2.15987ZM8.84601 33.3319C9.24244 33.3319 9.62998 33.4494 9.9596 33.6697C10.2892 33.8899 10.5461 34.203 10.6978 34.5692C10.8496 34.9355 10.8892 35.3385 10.8119 35.7273C10.7346 36.1162 10.5437 36.4733 10.2633 36.7536C9.98302 37.034 9.62587 37.2249 9.23705 37.3022C8.84823 37.3795 8.44521 37.3399 8.07895 37.1881C7.71269 37.0364 7.39964 36.7795 7.17939 36.4499C6.95915 36.1203 6.84159 35.7327 6.84159 35.3363C6.84159 34.8047 7.05277 34.2949 7.42867 33.919C7.80457 33.5431 8.3144 33.3319 8.84601 33.3319Z" fill="#E0ECFF"/>
</svg>
