<svg width="30" height="30" viewBox="0 0 30 30" fill="none" xmlns="http://www.w3.org/2000/svg">
<g clip-path="url(#clip0_511_2587)">
<path d="M15 30.0003C23.2843 30.0003 30 23.2845 30 15.0003C30 6.71598 23.2843 0.000244141 15 0.000244141C6.71573 0.000244141 0 6.71598 0 15.0003C0 23.2845 6.71573 30.0003 15 30.0003Z" fill="white"/>
<path d="M14.9999 30.0002C13.9844 30.0007 12.9715 29.8986 11.9765 29.6956C9.10292 29.1043 6.46607 27.6827 4.3928 25.6071C3.02428 24.2396 1.93278 22.6205 1.17824 20.839C0.79468 19.9316 0.501923 18.9886 0.304257 18.0235C-0.10207 16.0286 -0.10207 13.9721 0.304257 11.9772C0.697261 10.0585 1.46414 8.23599 2.56116 6.61354C4.18905 4.20182 6.48151 2.31403 9.1607 1.17897C10.068 0.795207 11.0112 0.502408 11.9764 0.304875C13.9713 -0.101625 16.0276 -0.101625 18.0225 0.304875C19.9411 0.697932 21.7636 1.46483 23.386 2.56188C25.7976 4.18992 27.6853 6.48248 28.8203 9.16168C29.2038 10.069 29.4966 11.0121 29.6943 11.9772C30.1006 13.9721 30.1006 16.0284 29.6943 18.0233C29.3014 19.942 28.5345 21.7645 27.4374 23.3869C25.8093 25.7984 23.517 27.6861 20.8381 28.8215C19.9307 29.205 18.9876 29.4977 18.0225 29.6954C17.0278 29.8984 16.0151 30.0006 14.9999 30.0002ZM14.9999 0.351796C14.0083 0.351545 13.0192 0.451236 12.0476 0.649342C10.1737 1.03302 8.39378 1.78195 6.80934 2.85347C4.45404 4.44336 2.61042 6.68223 1.50191 9.29878C1.12734 10.1849 0.841403 11.1059 0.648309 12.0483C0.251481 13.9965 0.251481 16.0046 0.648309 17.9528C1.03202 19.8267 1.781 21.6068 2.8525 23.1912C4.44236 25.5464 6.68126 27.39 9.29781 28.4983C10.184 28.8729 11.105 29.1588 12.0475 29.3518C13.9956 29.7485 16.0037 29.7485 17.9519 29.3518C19.8257 28.9681 21.6056 28.219 23.1902 27.1477C25.5453 25.5577 27.3889 23.3188 28.4974 20.7024C28.872 19.8163 29.158 18.8953 29.351 17.9528C29.7479 16.0046 29.7479 13.9965 29.351 12.0483C28.9673 10.1745 28.2183 8.39465 27.1469 6.81015C25.5569 4.45498 23.318 2.61142 20.7016 1.50284C19.8154 1.1284 18.8943 0.842493 17.9519 0.649342C16.9804 0.451246 15.9914 0.351556 14.9999 0.351796Z" fill="#FF007A"/>
<path d="M11.6205 6.87481C11.3843 6.83813 11.3744 6.83391 11.4855 6.81621C11.8424 6.79551 12.2004 6.8271 12.5482 6.90996C13.3568 7.10227 14.0937 7.59504 14.8802 8.4702L15.089 8.7027L15.3878 8.65465C16.6093 8.44766 17.8647 8.60528 18.9971 9.10782C19.2849 9.23863 19.5587 9.39832 19.8142 9.58442C19.8528 9.68652 19.8782 9.79318 19.8895 9.90176C19.9691 10.4291 19.9292 10.8331 19.7681 11.1349C19.6803 11.299 19.6754 11.3513 19.7344 11.4918C19.7624 11.5499 19.8062 11.5989 19.8607 11.6334C19.9152 11.6679 19.9783 11.6864 20.0428 11.6869C20.3089 11.6869 20.5953 11.2563 20.7281 10.6579L20.7807 10.4201L20.8853 10.5383C21.4581 11.1873 21.908 12.0723 21.9853 12.7023L22.0055 12.8664L21.9092 12.7171C21.771 12.4889 21.585 12.2933 21.3639 12.144C20.9795 11.8897 20.5732 11.8031 19.4969 11.7464C18.525 11.6952 17.9749 11.6122 17.4294 11.4343C16.5014 11.1318 16.0336 10.7288 14.9311 9.28243C14.6015 8.82585 14.2359 8.39643 13.8377 7.99829C13.1532 7.34883 12.481 7.00828 11.6205 6.87481Z" fill="#FF007A"/>
<path d="M20.0333 8.30834C20.0372 7.97396 20.1051 7.64342 20.2335 7.33463C20.2594 7.26933 20.2918 7.20679 20.3302 7.14795C20.323 7.20583 20.3079 7.26246 20.2853 7.31623C20.1961 7.64084 20.1822 7.98154 20.2447 8.31232C20.3193 8.82045 20.3619 8.89381 20.8989 9.44271C21.1507 9.70053 21.4438 10.0249 21.5501 10.1642L21.7432 10.4177L21.5501 10.2365C21.2673 9.97759 20.9668 9.73872 20.6507 9.5217C20.5703 9.48033 20.5583 9.48103 20.5087 9.53037C20.4629 9.57584 20.4533 9.64428 20.4469 9.9676C20.4371 10.4715 20.3684 10.7949 20.2026 11.1183C20.113 11.2932 20.0987 11.2558 20.1799 11.0584C20.2405 10.911 20.2467 10.8462 20.2463 10.3584C20.2452 9.37826 20.1291 9.14271 19.4466 8.739C19.2736 8.6367 18.9888 8.48928 18.8138 8.41088C18.7072 8.36802 18.6038 8.31754 18.5044 8.25982C18.8285 8.32845 19.1469 8.42141 19.457 8.53791C19.8554 8.69119 19.9212 8.711 19.9696 8.69248C20.0018 8.681 20.0175 8.58654 20.0333 8.30834Z" fill="#FF007A"/>
<path d="M12.0796 9.98582C11.6001 9.32559 11.3034 8.31379 11.3676 7.55664L11.3874 7.32227L11.4965 7.34219C11.7493 7.39738 11.9931 7.48813 12.2205 7.61172C12.6747 7.88758 12.8712 8.25074 13.0713 9.1832C13.1298 9.45637 13.2068 9.76539 13.2421 9.87004C13.3633 10.1569 13.513 10.4308 13.6891 10.6877C13.8152 10.8716 13.7314 10.9588 13.4529 10.9338C13.0277 10.8953 12.4513 10.4976 12.0796 9.98582Z" fill="#FF007A"/>
<path d="M19.452 14.8993C17.211 13.9969 16.4217 13.2138 16.4217 11.8923C16.4169 11.7742 16.4218 11.6559 16.4365 11.5387C16.504 11.5816 16.5684 11.6293 16.6291 11.6813C17.0835 12.0458 17.5924 12.2014 19.0013 12.4071C19.8302 12.5279 20.2967 12.6256 20.7271 12.7683C22.0949 13.222 22.9411 14.1426 23.1429 15.3964C23.1964 15.8663 23.1726 16.3418 23.0726 16.804C22.9975 17.0885 22.7679 17.6009 22.7078 17.6207C22.6909 17.6262 22.6744 17.5621 22.6701 17.4738C22.6521 17.2279 22.5842 16.9883 22.4707 16.7696C22.3571 16.5508 22.2003 16.3574 22.0096 16.2012C21.5542 15.811 20.9439 15.5001 19.452 14.8993Z" fill="#FF007A"/>
<path d="M17.8783 15.2743C17.8519 15.1142 17.8158 14.9559 17.7701 14.8002L17.7128 14.6298L17.8191 14.7491C17.9818 14.9421 18.1047 15.1654 18.1806 15.4062C18.2557 15.6208 18.2642 15.6847 18.2636 16.0333C18.2636 16.3756 18.2536 16.4475 18.1841 16.6406C18.0875 16.9249 17.9255 17.1826 17.7112 17.3929C17.3018 17.8096 16.7755 18.0403 16.016 18.1359C15.884 18.1525 15.4992 18.1805 15.1606 18.1981C14.308 18.2425 13.7469 18.3341 13.2428 18.5111C13.1974 18.5313 13.1486 18.5429 13.099 18.5455C13.0786 18.5253 13.4219 18.3206 13.7055 18.1841C14.1052 17.9915 14.5032 17.8863 15.3948 17.7379C15.8353 17.6646 16.2901 17.5755 16.4057 17.54C17.4969 17.2055 18.0578 16.3425 17.8783 15.2743Z" fill="#FF007A"/>
<path d="M18.9055 17.0987C18.6077 16.4586 18.5394 15.8407 18.7025 15.2644C18.7199 15.2029 18.748 15.1523 18.7649 15.1523C18.8208 15.1727 18.8735 15.2011 18.9211 15.2368C19.0582 15.3291 19.3335 15.4848 20.0666 15.8845C20.9814 16.3833 21.503 16.7695 21.8577 17.2107C22.1719 17.6053 22.3772 18.0753 22.453 18.574C22.4993 19.0216 22.4804 19.4735 22.3967 19.9157C22.2918 20.371 22.0921 20.7991 21.8109 21.1723C21.5296 21.5454 21.173 21.8552 20.7642 22.0815C20.6873 22.1259 20.6077 22.1653 20.5258 22.1998C20.5455 22.1133 20.5781 22.0304 20.6225 21.9537C20.7575 21.6838 20.8358 21.3891 20.8527 21.0878C20.8696 20.7866 20.8247 20.485 20.7207 20.2017C20.5938 19.8217 20.3349 19.358 19.8122 18.5739C19.2041 17.6626 19.055 17.4202 18.9055 17.0987Z" fill="#FF007A"/>
<path d="M10.4882 20.5521C11.3203 19.8499 12.3547 19.3511 13.2972 19.198C13.7833 19.1351 14.2765 19.1542 14.7563 19.2544C15.3592 19.4088 15.8985 19.7544 16.1791 20.1662C16.4532 20.5686 16.5708 20.9193 16.6932 21.6996C16.7416 22.0073 16.7941 22.3164 16.8104 22.3864C16.9024 22.7908 17.0812 23.1141 17.3026 23.2764C17.6547 23.5342 18.2613 23.5502 18.8579 23.3176C18.92 23.2888 18.9856 23.2683 19.0531 23.2569C19.0748 23.2783 18.7743 23.4795 18.5624 23.585C18.3125 23.7189 18.0326 23.7869 17.749 23.7826C17.2026 23.7826 16.749 23.5046 16.3705 22.9378C16.2313 22.6982 16.107 22.4503 15.9984 22.1954C15.5988 21.2838 15.4013 21.0062 14.9374 20.7022C14.7459 20.5726 14.5248 20.4937 14.2945 20.4728C14.0643 20.4518 13.8326 20.4895 13.6209 20.5824C13.5016 20.6378 13.3968 20.7201 13.3146 20.8227C13.2324 20.9253 13.175 21.0456 13.147 21.174C13.1189 21.3025 13.121 21.4357 13.153 21.5633C13.1849 21.6908 13.246 21.8093 13.3313 21.9093C13.5034 22.0883 13.7292 22.2063 13.9744 22.2455C14.072 22.2585 14.1712 22.2503 14.2654 22.2216C14.3595 22.1929 14.4463 22.1443 14.52 22.079C14.5937 22.0138 14.6525 21.9335 14.6925 21.8435C14.7324 21.7536 14.7525 21.6561 14.7515 21.5576C14.7515 21.2837 14.646 21.1273 14.3811 21.0076C14.0191 20.8442 13.6299 21.0352 13.6317 21.3753C13.629 21.4415 13.648 21.5069 13.6857 21.5613C13.7235 21.6158 13.7781 21.6565 13.8411 21.6772C13.9348 21.7195 13.9365 21.7228 13.8604 21.7069C13.5282 21.638 13.4503 21.2375 13.7176 20.9716C14.0382 20.6524 14.7019 20.7932 14.9292 21.2294C15.0268 21.4746 15.0351 21.7463 14.9526 21.997C14.7659 22.4892 14.2216 22.7486 13.6694 22.6076C13.2935 22.5117 13.1403 22.4077 12.6871 21.9408C11.8995 21.1296 11.5938 20.9723 10.4583 20.7951L10.2407 20.7611L10.4882 20.5521Z" fill="#FF007A"/>
<path fill-rule="evenodd" clip-rule="evenodd" d="M7.30554 6.24564C9.93581 9.43806 11.2344 10.5406 11.4357 10.8188C11.6019 11.0486 11.5394 11.2551 11.2546 11.4164C11.0531 11.5188 10.8333 11.5807 10.6079 11.5984C10.4044 11.5903 10.211 11.5076 10.0646 11.366C9.95773 11.2647 9.52624 10.6204 8.53015 9.07478C7.76843 7.89213 7.13023 6.91115 7.11277 6.8951C7.07257 6.85713 7.07327 6.85842 8.45245 9.32615C9.31847 10.8757 9.61085 11.4238 9.61085 11.4968C9.61085 11.6458 9.57019 11.7242 9.38632 11.9292C9.07988 12.2712 8.94288 12.6558 8.84398 13.4503C8.73312 14.341 8.4214 14.971 7.55749 16.0484C7.05183 16.6791 6.96898 16.7947 6.84148 17.0489C6.69128 17.3262 6.61463 17.6373 6.61882 17.9527C6.59312 18.3296 6.64362 18.7078 6.7673 19.0648C6.89232 19.4453 7.07406 19.8048 7.30636 20.1312C7.56956 20.5389 7.7212 20.8418 7.7212 20.9604C7.7212 21.0542 7.73925 21.0549 8.14718 20.9626C9.12335 20.7423 9.91613 20.3545 10.362 19.8793C10.6379 19.5852 10.7027 19.4229 10.7048 19.0198C10.7062 18.7562 10.6969 18.701 10.6257 18.5494C10.5097 18.3026 10.2985 18.0974 9.83316 17.7792C9.22378 17.3624 8.96292 17.0268 8.89097 16.5653C8.83238 16.1865 8.90046 15.9193 9.23773 15.2122C9.58695 14.4804 9.67343 14.1685 9.73202 13.431C9.76988 12.9545 9.82214 12.7664 9.95913 12.6156C10.102 12.4582 10.2305 12.4047 10.584 12.3567C11.1602 12.278 11.5271 12.1289 11.8287 11.851C11.9494 11.7502 12.0466 11.6244 12.1136 11.4822C12.1806 11.3401 12.2158 11.185 12.2168 11.0278L12.2295 10.7628L12.0833 10.5922C11.5525 9.97443 6.95093 5.76025 6.91835 5.76025C6.91144 5.76025 7.0857 5.97881 7.30554 6.24564ZM8.01804 18.4357C8.07574 18.3334 8.09295 18.2132 8.06626 18.0989C8.03957 17.9845 7.97092 17.8843 7.8739 17.8181C7.68464 17.6923 7.39074 17.7515 7.39074 17.9155C7.39074 17.9656 7.41839 18.0019 7.48074 18.034C7.5862 18.088 7.59335 18.1487 7.51074 18.2729C7.42812 18.3972 7.43386 18.5092 7.52972 18.5843C7.68406 18.7052 7.90296 18.6392 8.01804 18.4357Z" fill="#FF007A"/>
<path fill-rule="evenodd" clip-rule="evenodd" d="M12.5919 12.4952C12.4444 12.5515 12.312 12.6414 12.2053 12.7577C12.0985 12.8741 12.0204 13.0137 11.9771 13.1656C11.9274 13.349 11.9556 13.6706 12.03 13.7699C12.1503 13.9304 12.2663 13.9726 12.5808 13.9705C13.1969 13.9662 13.7324 13.7021 13.7946 13.3717C13.8457 13.101 13.6104 12.7258 13.2865 12.5611C13.0665 12.4712 12.8249 12.4482 12.5919 12.4952ZM13.3121 13.0578C13.4071 12.9228 13.3655 12.7765 13.204 12.6783C12.8963 12.4908 12.4306 12.6458 12.4306 12.9361C12.4306 13.0808 12.6731 13.2387 12.8956 13.2387C13.0526 13.2353 13.2021 13.1706 13.3121 13.0583V13.0578Z" fill="#FF007A"/>
</g>
<defs>
<clipPath id="clip0_511_2587">
<rect width="30" height="30.0002" fill="white"/>
</clipPath>
</defs>
</svg>
