<svg width="20" height="20" viewBox="0 0 20 20" fill="none" xmlns="http://www.w3.org/2000/svg">
<g clip-path="url(#clip0_3555_325)">
<path fill-rule="evenodd" clip-rule="evenodd" d="M10 19C14.9706 19 19 14.9706 19 10C19 5.02944 14.9706 1 10 1C5.02944 1 1 5.02944 1 10C1 14.9706 5.02944 19 10 19ZM10 20C15.5228 20 20 15.5228 20 10C20 4.47716 15.5228 0 10 0C4.47716 0 0 4.47716 0 10C0 15.5228 4.47716 20 10 20Z" fill="#EAAC08"/>
<path d="M10 18.3596C14.6171 18.3596 18.36 14.6167 18.36 9.99965C18.36 5.38255 14.6171 1.63965 10 1.63965C5.38291 1.63965 1.64001 5.38255 1.64001 9.99965C1.64001 14.6167 5.38291 18.3596 10 18.3596Z" fill="url(#paint0_linear_3555_325)"/>
<path d="M1.84718 11.8583L5.52435 9.76779L1.69507 9.03507C1.90221 7.23311 2.6823 5.60543 3.84856 4.33887C4.77191 4.84739 5.69527 5.35607 6.61863 5.86471C7.74783 6.48683 8.87707 7.10891 10.0063 7.73063L14.8212 10.3818L15.0015 10.4814C15.1977 10.6315 15.3161 10.8866 15.3069 11.1623C15.973 11.3874 16.2652 12.2675 16.1072 13.0261C15.8347 12.554 15.3964 12.2279 14.8963 12.1324C14.1367 12.1542 13.3799 12.0219 12.6612 11.7435C11.6069 11.5921 10.7645 11.8022 10.0076 12.2142C9.07763 12.7212 8.04691 13.6884 7.11475 14.5632C6.82255 14.8374 6.54003 15.1025 6.27331 15.3416C5.76935 15.7572 5.10635 16.0559 4.42055 16.2261C4.14667 15.9804 3.88908 15.717 3.64962 15.4376L5.95739 13.4436C6.06535 13.3495 6.08639 13.1748 6.00215 13.0534C5.91923 12.9319 5.76259 12.9087 5.65463 13.0029L3.31668 15.0233C3.00581 14.6103 2.73232 14.1676 2.50124 13.7002L3.08658 13.2921C3.20242 13.2103 3.23796 13.0397 3.16556 12.9087C3.09317 12.7791 2.93916 12.7395 2.82333 12.8201L2.2751 13.2022C2.09626 12.7712 1.95244 12.3221 1.84718 11.8583Z" fill="#CA8404"/>
<path d="M17.7436 6.84377C17.9705 7.39993 18.1393 7.98597 18.2423 8.59441C18.118 8.61665 17.9937 8.63885 17.8695 8.66105L17.8692 8.66109C16.6306 8.88233 15.3923 9.10353 14.1013 9.36505L9.53638 6.87765L15.0384 3.87994C15.1798 3.80291 15.3168 3.73009 15.4507 3.66113C16.2941 4.38697 16.9909 5.27825 17.491 6.28457L16.668 6.43421C16.5258 6.45877 16.4284 6.61157 16.4508 6.77529C16.4719 6.93905 16.6048 7.04957 16.747 7.02501L17.7436 6.84377Z" fill="#CA8404"/>
<path fill-rule="evenodd" clip-rule="evenodd" d="M10 18.36C14.6171 18.36 18.36 14.6171 18.36 10C18.36 5.38288 14.6171 1.64 10 1.64C5.38288 1.64 1.64 5.38288 1.64 10C1.64 14.6171 5.38288 18.36 10 18.36ZM10 19C14.9706 19 19 14.9706 19 10C19 5.02944 14.9706 1 10 1C5.02944 1 1 5.02944 1 10C1 14.9706 5.02944 19 10 19Z" fill="#EAAC08"/>
<path fill-rule="evenodd" clip-rule="evenodd" d="M10 18.36C14.6171 18.36 18.36 14.6171 18.36 10C18.36 5.38288 14.6171 1.64 10 1.64C5.38288 1.64 1.64 5.38288 1.64 10C1.64 14.6171 5.38288 18.36 10 18.36ZM10 19C14.9706 19 19 14.9706 19 10C19 5.02944 14.9706 1 10 1C5.02944 1 1 5.02944 1 10C1 14.9706 5.02944 19 10 19Z" fill="url(#paint1_linear_3555_325)"/>
<path fill-rule="evenodd" clip-rule="evenodd" d="M10 18.36C14.6171 18.36 18.36 14.6171 18.36 10C18.36 5.38288 14.6171 1.64 10 1.64C5.38288 1.64 1.64 5.38288 1.64 10C1.64 14.6171 5.38288 18.36 10 18.36ZM10 19C14.9706 19 19 14.9706 19 10C19 5.02944 14.9706 1 10 1C5.02944 1 1 5.02944 1 10C1 14.9706 5.02944 19 10 19Z" fill="url(#paint2_linear_3555_325)"/>
<path d="M9.312 5.99902V6.55062C8.9768 6.79822 8.6372 7.00102 8.294 7.15942C7.9228 7.32022 7.5512 7.40102 7.18 7.40102C7.1568 7.40102 7.1332 7.40102 7.11 7.40022V7.39062C7.1068 7.39062 7.1032 7.39062 7.1 7.39022V7.38062C7.0968 7.38062 7.0932 7.38062 7.09 7.38022V7.37062C7.0868 7.37062 7.0832 7.37062 7.08 7.37022V7.36062C7.0768 7.36062 7.0732 7.36062 7.07 7.36022V7.35062C7.0668 7.35062 7.0632 7.35062 7.06 7.35022V7.34062C7.0568 7.34062 7.0532 7.34062 7.05 7.34022V7.33062C7.0468 7.33062 7.0432 7.33062 7.04 7.33022V7.32062C7.0368 7.32062 7.0332 7.32062 7.03 7.32022V7.31062C7.0268 7.31062 7.0232 7.31062 7.02 7.31022V7.30062C7.0168 7.30062 7.0132 7.30062 7.01 7.30022V7.29062C7.0068 7.29062 7.0032 7.29062 7 7.29022V7.28062C6.9968 7.28062 6.9932 7.28062 6.99 7.28022V7.27062C6.9868 7.27062 6.9832 7.27062 6.98 7.27022V7.26062C6.9768 7.26062 6.9732 7.26062 6.97 7.26022V7.25062C6.9668 7.25062 6.9632 7.25062 6.96 7.25022V7.24062C6.9568 7.24062 6.9532 7.24062 6.95 7.24022V7.23062C6.9468 7.23062 6.9432 7.23062 6.94 7.23022V7.22062C6.9368 7.22062 6.9332 7.22062 6.93 7.22022V7.21062C6.9268 7.21062 6.9232 7.21062 6.92 7.21022V7.20062C6.9168 7.20062 6.9132 7.20062 6.91 7.20022V7.19062C6.9068 7.19062 6.9032 7.19062 6.9 7.19022V7.18062C6.8968 7.18062 6.8932 7.18062 6.89 7.18022V7.17062C6.8868 7.17062 6.8832 7.17062 6.88 7.17022V7.16062C6.8768 7.16062 6.8732 7.16062 6.87 7.16022V7.15062C6.8668 7.15062 6.8632 7.15062 6.86 7.15022V7.14062C6.8568 7.14062 6.8532 7.14062 6.85 7.14022V7.13062C6.8468 7.13062 6.8432 7.13062 6.84 7.13022V7.12062C6.8368 7.12062 6.8332 7.12062 6.83 7.12022V7.11062C6.8268 7.11062 6.8232 7.11062 6.82 7.11022V7.10062C6.8168 7.10062 6.8132 7.10062 6.81 7.10022V7.09022C6.83 7.09102 6.85 7.09102 6.87 7.09102C7.2412 7.09102 7.6128 7.01022 7.984 6.84942C8.3788 6.66742 8.768 6.42662 9.152 6.12662C9.2056 6.08462 9.2592 6.04222 9.312 5.99902Z" fill="#85490E"/>
<path d="M10.95 4.50996V15.75H9.62202V15.74H9.61202V15.73H9.60202V15.72H9.59202V15.71H9.58202V15.7H9.57202V15.69H9.56202V15.68H9.55202V15.67H9.54202V15.66H9.53202V15.65H9.52202V15.64H9.51202V15.63H9.50202V15.62H9.49202V15.61H9.48202V15.6H9.47202V15.59H9.46202V15.58H9.45202V15.57H9.44202V15.56H9.43202V15.55H9.42202V15.54H9.41202V15.53H9.40202V15.52H9.39202V15.51H9.38202V15.5H9.37202V15.49H9.36202V15.48H9.35202V15.47H9.34202V15.46H9.33202V15.45H9.32202V15.44H10.64V4.20996H10.65V4.21996H10.66V4.22996H10.67V4.23996H10.68V4.24996H10.69V4.25996H10.7V4.26996H10.71V4.27996H10.72V4.28996H10.73V4.29996H10.74V4.30996H10.75V4.31996H10.76V4.32996H10.77V4.33996H10.78V4.34996H10.79V4.35996H10.8V4.36996H10.81V4.37996H10.82V4.38996H10.83V4.39996H10.84V4.40996H10.85V4.41996H10.86V4.42996H10.87V4.43996H10.88V4.44996H10.89V4.45996H10.9V4.46996H10.91V4.47996H10.92V4.48996H10.93V4.49996H10.94V4.50996H10.95Z" fill="#85490E"/>
<path d="M10.64 4.2002V15.4402H9.31199V6.551C9.30879 6.5534 9.31519 6.5486 9.31199 6.551V5.9994C9.25919 6.0426 9.20559 6.085 9.15199 6.127C8.76799 6.427 8.37879 6.6678 7.98399 6.8498C7.61279 7.0106 7.24119 7.0914 6.86999 7.0914C6.84999 7.0914 6.82999 7.0914 6.80999 7.0906C6.80679 7.091 6.80319 7.0906 6.79999 7.0906V5.8542C6.81399 5.8554 6.82839 5.8554 6.84279 5.8554C7.05759 5.8554 7.31039 5.7798 7.59999 5.6294C7.90959 5.469 8.22959 5.2602 8.55999 5.003C8.89079 4.7462 9.17879 4.4786 9.42399 4.2002H10.64Z" fill="url(#paint3_linear_3555_325)"/>
</g>
<defs>
<linearGradient id="paint0_linear_3555_325" x1="10" y1="1.63965" x2="10" y2="18.3596" gradientUnits="userSpaceOnUse">
<stop stop-color="#CA8404"/>
<stop offset="1" stop-color="#A15D07"/>
</linearGradient>
<linearGradient id="paint1_linear_3555_325" x1="19" y1="1" x2="1" y2="19" gradientUnits="userSpaceOnUse">
<stop stop-color="#44403C"/>
<stop offset="0.4" stop-color="#44403C" stop-opacity="0"/>
</linearGradient>
<linearGradient id="paint2_linear_3555_325" x1="19" y1="1" x2="1" y2="19" gradientUnits="userSpaceOnUse">
<stop offset="0.6" stop-color="#F5F5F4" stop-opacity="0"/>
<stop offset="1" stop-color="#F5F5F4"/>
</linearGradient>
<linearGradient id="paint3_linear_3555_325" x1="8.71999" y1="4.2002" x2="8.71999" y2="15.4402" gradientUnits="userSpaceOnUse">
<stop stop-color="#FEF7C3"/>
<stop offset="1" stop-color="#FDDA47"/>
</linearGradient>
<clipPath id="clip0_3555_325">
<rect width="20" height="20" fill="white"/>
</clipPath>
</defs>
</svg>
