<svg width="30" height="30" viewBox="0 0 30 30" fill="none" xmlns="http://www.w3.org/2000/svg">
<path d="M15 30C23.3125 30 30 23.3125 30 15C30 6.68745 23.3125 0 15 0C6.68745 0 0 6.68745 0 15C0 23.3125 6.68745 30 15 30Z" fill="#2775CA"/>
<path d="M19.125 17.375C19.125 15.1876 17.8125 14.4376 15.1875 14.1251C13.3125 13.8751 12.9375 13.3751 12.9375 12.5C12.9375 11.6249 13.5625 11.0626 14.8125 11.0626C15.9375 11.0626 16.5626 11.4376 16.875 12.3751C16.9376 12.5626 17.1251 12.6875 17.3126 12.6875H18.3124C18.5625 12.6875 18.75 12.5 18.75 12.2501V12.1876C18.4999 10.8125 17.3749 9.75005 15.9375 9.6251V8.1251C15.9375 7.87505 15.75 7.68755 15.4376 7.625H14.5C14.25 7.625 14.0625 7.8125 14 8.1251V9.56255C12.125 9.8126 10.9375 11.0626 10.9375 12.6251C10.9375 14.6876 12.1875 15.5 14.8125 15.8126C16.5626 16.1251 17.1251 16.5001 17.1251 17.5001C17.1251 18.5002 16.2499 19.1876 15.0625 19.1876C13.4374 19.1876 12.875 18.5 12.6875 17.5625C12.6251 17.3126 12.4375 17.1875 12.25 17.1875H11.1875C10.9376 17.1875 10.75 17.375 10.75 17.6251V17.6876C10.9999 19.25 12 20.375 14.0625 20.6876V22.1876C14.0625 22.4375 14.25 22.625 14.5625 22.6876H15.4999C15.75 22.6876 15.9375 22.5001 16.0001 22.1876V20.6876C17.8751 20.375 19.125 19.0625 19.125 17.375Z" fill="white"/>
<path d="M11.8125 23.9375C6.9375 22.1876 4.43745 16.7501 6.25005 11.9374C7.18756 9.31242 9.25006 7.31246 11.8125 6.37496C12.0626 6.25001 12.1875 6.06251 12.1875 5.74991V4.87495C12.1875 4.6249 12.0626 4.4374 11.8125 4.375C11.75 4.375 11.625 4.375 11.5625 4.4374C5.625 6.31241 2.37495 12.625 4.24995 18.5625C5.37495 22.0625 8.06251 24.75 11.5625 25.875C11.8125 26 12.0626 25.875 12.125 25.625C12.1875 25.5626 12.1875 25.5 12.1875 25.3751V24.5C12.1875 24.3125 12 24.0626 11.8125 23.9375ZM18.4376 4.4374C18.1875 4.31245 17.9375 4.4374 17.8751 4.68745C17.8125 4.75 17.8125 4.8124 17.8125 4.9375V5.81246C17.8125 6.06251 18 6.31241 18.1875 6.43751C23.0625 8.18742 25.5626 13.6249 23.75 18.4376C22.8125 21.0626 20.75 23.0625 18.1875 24C17.9375 24.125 17.8125 24.3125 17.8125 24.6251V25.5C17.8125 25.7501 17.9375 25.9376 18.1875 26C18.2501 26 18.375 26 18.4376 25.9376C24.375 24.0626 27.6251 17.75 25.7501 11.8125C24.6251 8.24997 21.875 5.5624 18.4376 4.4374Z" fill="white"/>
</svg>
