<svg xmlns="http://www.w3.org/2000/svg" width="30" height="27.633" viewBox="0 0 30 27.633"><path d="M82.162,55.084h0c-.17.013-1.051.065-3.016.065-1.563,0-2.672-.047-3.061-.065h0c-6.039-.266-10.546-1.317-10.546-2.575s4.507-2.308,10.546-2.578v4.107c.395.028,1.526.1,3.088.1,1.875,0,2.814-.078,2.983-.094V49.934c6.026.268,10.523,1.32,10.523,2.575s-4.5,2.307-10.523,2.574h0Zm0-5.576V45.834h8.409v-5.6h-22.9v5.6h8.408v3.673c-6.834.314-11.974,1.668-11.974,3.29s5.139,2.975,11.974,3.29V67.863h6.077V56.083c6.819-.314,11.949-1.666,11.949-3.287s-5.127-2.973-11.949-3.289h0Zm0,0Z" transform="translate(-64.11 -40.23)" fill="#50af95" fill-rule="evenodd"/></svg>