<svg width="25" height="25" viewBox="0 0 25 25" fill="none" xmlns="http://www.w3.org/2000/svg">
<path d="M25 12.5C25 5.59644 19.4036 0 12.5 0C5.59644 0 0 5.59644 0 12.5C0 19.4036 5.59644 25 12.5 25C19.4036 25 25 19.4036 25 12.5Z" fill="#FF7400"/>
<path fill-rule="evenodd" clip-rule="evenodd" d="M5.49687 9.10002V10.5401C5.49441 10.579 5.49316 10.6183 5.49316 10.6578V17.3772C5.49316 18.3894 6.31375 19.21 7.32595 19.21H17.6846C18.6968 19.21 19.5174 18.3894 19.5174 17.3772V15.8498H17.862C16.7684 15.8498 15.8819 14.9633 15.8819 13.8697C15.8819 12.7762 16.7684 11.8897 17.862 11.8897H19.5174V10.6579C19.5174 9.64563 18.6968 8.82505 17.6846 8.82505H17.6548L17.2524 7.12673C17.0751 6.37888 16.3653 5.88274 15.6021 5.97329L7.46096 6.93916C6.4145 7.0633 5.59927 7.90554 5.50928 8.95547L5.49687 9.10002ZM15.6975 6.77759L7.55637 7.74345C6.89146 7.82234 6.37344 8.35749 6.31624 9.02463L6.30684 9.13427C6.59824 8.93896 6.94878 8.82505 7.32593 8.82505H16.8224L16.4643 7.3135C16.3819 6.96601 16.0521 6.73552 15.6975 6.77759ZM12.3185 14.0873L15.1294 10.8338C15.2018 10.7501 15.1423 10.6201 15.0315 10.6201H13.3704C13.3328 10.6201 13.2971 10.6365 13.2725 10.6649L11.3229 12.9249L12.3185 14.0873ZM9.47397 17.4317C9.51147 17.4317 9.54712 17.4153 9.57158 17.3868L12.1026 14.4397C12.1308 14.4069 12.1399 14.3634 12.1298 14.3237L12.1315 14.3218L12.1353 14.325C12.1359 14.3217 12.1367 14.3184 12.1376 14.3151L12.1294 14.3222C12.1245 14.304 12.1156 14.2866 12.1027 14.2716L9.57158 11.3242C9.54712 11.2957 9.51147 11.2793 9.47397 11.2793H7.81943C7.70933 11.2793 7.65002 11.4088 7.72183 11.4924L10.1084 14.2716C10.1217 14.2869 10.1306 14.3046 10.1354 14.3231C10.1305 14.3438 10.1306 14.3654 10.136 14.386C10.1313 14.4053 10.1221 14.4238 10.1084 14.4397L7.72185 17.2186C7.65005 17.3022 7.70935 17.4317 7.81946 17.4317H9.47397ZM12.789 17.4317C12.7512 17.4317 12.7154 17.4152 12.6908 17.3865L11.3052 15.7701L12.3083 14.603L14.5499 17.2185C14.6217 17.3023 14.5621 17.4317 14.4516 17.4317H12.789Z" fill="white"/>
<path fill-rule="evenodd" clip-rule="evenodd" d="M19.7803 12.6953H17.9156C17.2438 12.6953 16.6992 13.2399 16.6992 13.9117C16.6992 14.5835 17.2438 15.1281 17.9156 15.1281H19.7803C20.0229 15.1281 20.2197 14.9314 20.2197 14.6887V13.1347C20.2197 12.892 20.0229 12.6953 19.7803 12.6953ZM17.9474 14.5217C18.2967 14.5217 18.5798 14.2386 18.5798 13.8893C18.5798 13.54 18.2967 13.2568 17.9474 13.2568C17.5981 13.2568 17.3149 13.54 17.3149 13.8893C17.3149 14.2386 17.5981 14.5217 17.9474 14.5217Z" fill="white"/>
</svg>