<svg width="40" height="41" viewBox="0 0 40 41" fill="none" xmlns="http://www.w3.org/2000/svg">
<path d="M40 40.5L0 0.5H21.7284L40 17.5732V40.5Z" fill="#3756CD"/>
<path d="M21.3505 15.4912C21.2912 15.4317 21.281 15.3621 21.32 15.2822L24.3306 9.80127C24.335 9.78865 24.3458 9.77397 24.363 9.75722C24.4188 9.70281 24.4786 9.70746 24.5421 9.77117L25.2796 10.5102C25.3389 10.5697 25.3491 10.6393 25.3101 10.7191L23.0347 14.5799C23.0218 14.6009 23.0216 14.6178 23.0343 14.6305C23.0471 14.6432 23.0641 14.6434 23.0856 14.6309L27.0073 12.4328C27.093 12.3913 27.1655 12.4002 27.2248 12.4597L27.9432 13.1796C27.9813 13.2178 27.996 13.258 27.9871 13.3001C27.9826 13.338 27.9567 13.3673 27.9096 13.3881L22.299 16.2634C22.2176 16.3007 22.1473 16.2897 22.088 16.2302L21.3505 15.4912ZM24.0972 18.2439C24.0252 18.1717 24.0257 18.1 24.0988 18.0288L24.6404 17.5014C24.6877 17.4554 24.7519 17.4306 24.8331 17.4269C25.1831 17.4295 25.563 17.4238 25.9729 17.4099C26.3871 17.3918 26.6647 17.3811 26.8056 17.3779C27.2241 17.3556 27.5336 17.3431 27.7343 17.3404C28.5541 17.3041 29.0694 17.1834 29.28 16.9783C29.4305 16.8319 29.5 16.6595 29.4887 16.4612C29.4816 16.2588 29.3933 16.0726 29.2238 15.9027C29.0542 15.7328 28.8671 15.6429 28.6622 15.633C28.4617 15.6189 28.2819 15.6893 28.1229 15.8441L27.9939 15.9697C27.9208 16.0409 27.8482 16.0403 27.7762 15.9681L27.0896 15.2801C27.0176 15.2079 27.0181 15.1362 27.0912 15.065L27.362 14.8014C27.6069 14.5881 27.8831 14.4615 28.1908 14.4215C28.5027 14.3774 28.814 14.4176 29.1247 14.5421C29.4397 14.6709 29.7328 14.8712 30.004 15.143C30.3049 15.4446 30.5075 15.7623 30.6118 16.0961C30.7247 16.4301 30.7437 16.7507 30.6689 17.058C30.5984 17.3695 30.4449 17.6403 30.2084 17.8706C30.0279 18.0463 29.7985 18.1817 29.5204 18.2767C29.2422 18.3717 28.9045 18.4367 28.5073 18.4718C28.1271 18.507 27.5101 18.5299 26.6563 18.5406C26.6478 18.5406 26.4407 18.5454 26.0351 18.5551C26.0138 18.5508 25.9988 18.557 25.9901 18.5738C25.9858 18.5864 25.9921 18.6012 26.009 18.6182L27.6746 20.2874C27.7466 20.3596 27.7461 20.4312 27.673 20.5024L27.112 21.0486C27.0389 21.1198 26.9664 21.1193 26.8943 21.047L24.0972 18.2439Z" fill="white"/>
</svg>
