<svg width="40" height="41" viewBox="0 0 40 41" fill="none" xmlns="http://www.w3.org/2000/svg">
<path d="M40 40.5L0 0.5H21.7284L40 17.5732V40.5Z" fill="#7EA2FF"/>
<path d="M21.2467 15.7692C21.1874 15.7097 21.1772 15.6401 21.2162 15.5602L24.2268 10.0793C24.2312 10.0666 24.2419 10.052 24.2591 10.0352C24.315 9.9808 24.3748 9.98545 24.4383 10.0492L25.1757 10.7882C25.2351 10.8476 25.2452 10.9173 25.2062 10.9971L22.9309 14.8579C22.9179 14.8789 22.9178 14.8957 22.9305 14.9085C22.9432 14.9212 22.9603 14.9214 22.9817 14.9089L26.9035 12.7108C26.9892 12.6693 27.0617 12.6782 27.121 12.7377L27.8393 13.4576C27.8775 13.4958 27.8921 13.536 27.8833 13.5781C27.8787 13.616 27.8529 13.6453 27.8058 13.6661L22.1952 16.5413C22.1138 16.5787 22.0435 16.5677 21.9841 16.5082L21.2467 15.7692ZM28.7853 19.0688C28.6723 19.3463 28.4869 19.6106 28.2289 19.8617C28.0011 20.0835 27.748 20.2546 27.4697 20.3749C27.0886 20.5366 26.702 20.5738 26.3099 20.4867C25.9178 20.3995 25.5586 20.1924 25.2323 19.8654C24.9102 19.5426 24.7079 19.1785 24.6255 18.7731C24.5473 18.3719 24.5949 17.9822 24.7684 17.604C24.8508 17.4233 24.9867 17.224 25.1761 17.0061C25.2492 16.9349 25.3217 16.9354 25.3938 17.0076L26.0804 17.6957C26.1482 17.7637 26.1498 17.8375 26.0852 17.9171C25.9905 18.0261 25.9171 18.1394 25.865 18.2571C25.7914 18.4041 25.7647 18.5515 25.785 18.6992C25.8138 18.847 25.8875 18.9804 26.0062 19.0993C26.2435 19.3372 26.512 19.3981 26.8116 19.2822C26.9999 19.2161 27.1801 19.0994 27.352 18.9319C27.5369 18.7519 27.6685 18.5568 27.7468 18.3466C27.8557 18.0564 27.7956 17.7966 27.5668 17.5673C27.4905 17.4908 27.3522 17.4329 27.1518 17.3935C27.1135 17.3806 27.0859 17.3656 27.0689 17.3486C27.035 17.3147 27.0204 17.2703 27.0251 17.2155L27.146 16.4321C27.1505 16.3942 27.1678 16.3606 27.1979 16.3313C27.2237 16.3061 27.2622 16.2938 27.3135 16.2941L29.1821 16.4341C29.2034 16.4385 29.2163 16.4344 29.2206 16.4218C29.2293 16.405 29.2252 16.3881 29.2082 16.3711L27.7397 14.8994C27.6677 14.8272 27.6682 14.7555 27.7413 14.6844L28.3023 14.1381C28.3754 14.067 28.4479 14.0675 28.52 14.1397L31.1073 16.7327C31.1793 16.8049 31.1788 16.8765 31.1057 16.9477L30.4738 17.563C30.4222 17.6132 30.358 17.638 30.2812 17.6375L28.681 17.55C28.6298 17.5497 28.6211 17.5749 28.6549 17.6257C28.9505 18.0664 28.994 18.5474 28.7853 19.0688Z" fill="white"/>
</svg>
