<svg width="36" height="36" viewBox="0 0 36 36" fill="none" xmlns="http://www.w3.org/2000/svg">
<g clip-path="url(#clip0_2586_6750)">
<path d="M25.3269 32.1668H5.66835C4.25787 32.1668 3.20001 30.9231 3.20001 29.4881V6.14546C3.20001 4.6148 4.34603 3.4668 5.66835 3.4668H25.3269C26.7374 3.4668 27.7952 4.71046 27.7952 6.14546V29.3925C27.8834 30.9231 26.7374 32.1668 25.3269 32.1668Z" stroke="white" stroke-width="1.5" stroke-miterlimit="10"/>
<path d="M30.1452 32.4401H5.71103C4.26237 32.4401 3.20001 31.2811 3.20001 29.9291V9.9375H30.2417C31.3041 9.9375 32.1733 10.8067 32.1733 11.8691V30.5085C32.1733 31.5709 31.3041 32.4401 30.1452 32.4401Z" stroke="white" stroke-width="1.5" stroke-miterlimit="10"/>
<path d="M27.5084 25.9712H19.8788C17.1746 25.9712 14.9533 23.7499 14.9533 21.0457V20.2731C14.9533 17.5689 17.1746 15.3477 19.8788 15.3477H27.5084V25.9712Z" stroke="white" stroke-width="1.5" stroke-miterlimit="10"/>
<path d="M20.8445 22.2034C21.8046 22.2034 22.5829 21.425 22.5829 20.465C22.5829 19.5049 21.8046 18.7266 20.8445 18.7266C19.8844 18.7266 19.1061 19.5049 19.1061 20.465C19.1061 21.425 19.8844 22.2034 20.8445 22.2034Z" fill="#5577FD"/>
</g>
<defs>
<clipPath id="clip0_2586_6750">
<rect width="36" height="36" fill="white"/>
</clipPath>
</defs>
</svg>
