<svg width="21" height="21" viewBox="0 0 21 21" fill="none" xmlns="http://www.w3.org/2000/svg">
<path d="M10.4062 0C4.65938 0 0 4.65938 0 10.4062C0 16.1531 4.65938 20.8125 10.4062 20.8125C16.1531 20.8125 20.8125 16.1531 20.8125 10.4062C20.8125 4.65938 16.1531 0 10.4062 0ZM10.4062 18.6875C5.83125 18.6875 2.125 14.9812 2.125 10.4062C2.125 5.83125 5.83125 2.125 10.4062 2.125C14.9812 2.125 18.6875 5.83125 18.6875 10.4062C18.6875 14.9812 14.9812 18.6875 10.4062 18.6875Z" fill="white"/>
<path d="M10.4062 7.65625C9.81875 7.65625 9.34375 8.13125 9.34375 8.71875V15.3438C9.34375 15.9312 9.81875 16.4062 10.4062 16.4062C10.9937 16.4062 11.4688 15.9312 11.4688 15.3438V8.71875C11.4688 8.13125 10.9937 7.65625 10.4062 7.65625Z" fill="#377DFF"/>
<path d="M9.34375 5.46875C9.34375 5.75054 9.45569 6.02079 9.65495 6.22005C9.85421 6.41931 10.1245 6.53125 10.4062 6.53125C10.688 6.53125 10.9583 6.41931 11.1576 6.22005C11.3568 6.02079 11.4688 5.75054 11.4688 5.46875C11.4688 5.18696 11.3568 4.91671 11.1576 4.71745C10.9583 4.51819 10.688 4.40625 10.4062 4.40625C10.1245 4.40625 9.85421 4.51819 9.65495 4.71745C9.45569 4.91671 9.34375 5.18696 9.34375 5.46875Z" fill="#377DFF"/>
</svg>
