<svg width="23" height="23" viewBox="0 0 23 23" fill="none" xmlns="http://www.w3.org/2000/svg">
<path d="M21.5851 16.7202L13.7283 3.07563C13.5007 2.68643 13.1752 2.36361 12.7841 2.13926C12.3931 1.91492 11.9501 1.79687 11.4992 1.79688C11.0484 1.79687 10.6054 1.91492 10.2143 2.13926C9.82328 2.36361 9.49777 2.68643 9.2702 3.07563L1.41337 16.7202C1.19255 17.0979 1.07617 17.5275 1.07617 17.965C1.07617 18.4025 1.19255 18.8321 1.41337 19.2098C1.63842 19.6009 1.96347 19.9251 2.35518 20.1492C2.74689 20.3732 3.19116 20.489 3.64239 20.4846H19.3561C19.807 20.4887 20.2509 20.3727 20.6423 20.1487C21.0336 19.9247 21.3584 19.6006 21.5833 19.2098C21.8044 18.8322 21.9211 18.4027 21.9214 17.9652C21.9217 17.5277 21.8056 17.098 21.5851 16.7202ZM19.7163 18.1307C19.6798 18.193 19.6271 18.2442 19.5639 18.279C19.5006 18.3138 19.4291 18.3309 19.357 18.3284H3.64239C3.57024 18.3309 3.49876 18.3138 3.4355 18.279C3.37224 18.2442 3.31956 18.193 3.28302 18.1307C3.25202 18.0803 3.23561 18.0223 3.23561 17.9632C3.23561 17.904 3.25202 17.846 3.28302 17.7956L11.1399 4.15106C11.1788 4.09117 11.232 4.04196 11.2948 4.00789C11.3575 3.97382 11.4278 3.95597 11.4992 3.95597C11.5706 3.95597 11.6409 3.97382 11.7037 4.00789C11.7664 4.04196 11.8197 4.09117 11.8586 4.15106L19.7145 17.7956C19.7458 17.8459 19.7625 17.9038 19.7628 17.9629C19.7632 18.0221 19.7471 18.0802 19.7163 18.1307ZM10.4211 12.219V9.34402C10.4211 9.05809 10.5347 8.78386 10.7369 8.58167C10.9391 8.37949 11.2133 8.2659 11.4992 8.2659C11.7852 8.2659 12.0594 8.37949 12.2616 8.58167C12.4638 8.78386 12.5774 9.05809 12.5774 9.34402V12.219C12.5774 12.505 12.4638 12.7792 12.2616 12.9814C12.0594 13.1836 11.7852 13.2971 11.4992 13.2971C11.2133 13.2971 10.9391 13.1836 10.7369 12.9814C10.5347 12.7792 10.4211 12.505 10.4211 12.219ZM12.9367 15.8128C12.9367 16.0971 12.8524 16.375 12.6945 16.6114C12.5365 16.8478 12.312 17.032 12.0493 17.1409C11.7867 17.2497 11.4976 17.2781 11.2188 17.2227C10.9399 17.1672 10.6838 17.0303 10.4828 16.8292C10.2817 16.6282 10.1448 16.3721 10.0893 16.0932C10.0339 15.8144 10.0623 15.5253 10.1712 15.2627C10.28 15 10.4642 14.7755 10.7006 14.6175C10.937 14.4596 11.2149 14.3753 11.4992 14.3753C11.8805 14.3753 12.2461 14.5267 12.5157 14.7963C12.7853 15.0659 12.9367 15.4315 12.9367 15.8128Z" fill="#E0ECFF"/>
</svg>
