<svg width="20" height="20" viewBox="0 0 20 20" fill="none" xmlns="http://www.w3.org/2000/svg">
<path d="M9.9993 20C11.0993 20 11.9993 19.1 11.9993 18H7.9993C7.9993 19.1 8.8993 20 9.9993 20ZM15.9993 14V9C15.9993 5.93 14.3693 3.36 11.4993 2.68V2C11.4993 1.17 10.8293 0.5 9.9993 0.5C9.1693 0.5 8.4993 1.17 8.4993 2V2.68C5.6393 3.36 3.9993 5.92 3.9993 9V14L1.9993 16V17H17.9993V16L15.9993 14ZM13.9993 15H5.9993V9C5.9993 6.52 7.5093 4.5 9.9993 4.5C12.4893 4.5 13.9993 6.52 13.9993 9V15ZM5.5793 2.08L4.1493 0.65C1.7493 2.48 0.169297 5.3 0.0292969 8.5H2.0293C2.1793 5.85 3.5393 3.53 5.5793 2.08ZM17.9693 8.5H19.9693C19.8193 5.3 18.2393 2.48 15.8493 0.65L14.4293 2.08C16.4493 3.53 17.8193 5.85 17.9693 8.5Z" fill="#CE5E5E"/>
</svg>
