<svg width="16" height="16" viewBox="0 0 16 16" fill="none" xmlns="http://www.w3.org/2000/svg">
<path d="M8.0013 0.666504C6.55091 0.666504 5.13308 1.0966 3.92712 1.90239C2.72116 2.70819 1.78123 3.8535 1.22619 5.19349C0.671146 6.53349 0.525922 8.00798 0.80888 9.4305C1.09184 10.853 1.79027 12.1597 2.81586 13.1853C3.84144 14.2109 5.14812 14.9093 6.57064 15.1923C7.99317 15.4752 9.46766 15.33 10.8077 14.775C12.1476 14.2199 13.293 13.28 14.0987 12.074C14.9045 10.8681 15.3346 9.45024 15.3346 7.99984C15.3323 6.05562 14.559 4.19169 13.1842 2.81692C11.8095 1.44215 9.94552 0.668798 8.0013 0.666504V0.666504ZM8.0013 13.9998C6.81462 13.9998 5.65458 13.648 4.66788 12.9887C3.68119 12.3294 2.91215 11.3923 2.45803 10.2959C2.0039 9.19959 1.88508 7.99319 2.11659 6.8293C2.3481 5.66541 2.91955 4.59631 3.75866 3.7572C4.59778 2.91808 5.66688 2.34664 6.83076 2.11513C7.99465 1.88361 9.20105 2.00243 10.2974 2.45656C11.3938 2.91069 12.3308 3.67972 12.9901 4.66642C13.6494 5.65311 14.0013 6.81315 14.0013 7.99984C13.9995 9.5906 13.3668 11.1157 12.242 12.2405C11.1172 13.3654 9.59206 13.9981 8.0013 13.9998V13.9998Z" fill="#CE5E5E"/>
<path d="M7.9987 3.3335C7.82189 3.3335 7.65232 3.40373 7.52729 3.52876C7.40227 3.65378 7.33203 3.82335 7.33203 4.00016V9.3335C7.33203 9.51031 7.40227 9.67988 7.52729 9.80491C7.65232 9.92993 7.82189 10.0002 7.9987 10.0002C8.17551 10.0002 8.34508 9.92993 8.4701 9.80491C8.59512 9.67988 8.66536 9.51031 8.66536 9.3335V4.00016C8.66536 3.82335 8.59512 3.65378 8.4701 3.52876C8.34508 3.40373 8.17551 3.3335 7.9987 3.3335Z" fill="#CE5E5E"/>
<path d="M7.9987 11.9998C8.36689 11.9998 8.66536 11.7014 8.66536 11.3332C8.66536 10.965 8.36689 10.6665 7.9987 10.6665C7.63051 10.6665 7.33203 10.965 7.33203 11.3332C7.33203 11.7014 7.63051 11.9998 7.9987 11.9998Z" fill="#CE5E5E"/>
</svg>
