<svg xmlns="http://www.w3.org/2000/svg" width="30" height="30" viewBox="0 0 30 30"><path d="M9.174,12.606,15,6.78l5.829,5.829,3.39-3.39L15,0,5.784,9.216l3.39,3.39M0,15l3.39-3.391L6.78,15l-3.39,3.39Zm9.174,2.394L15,23.22l5.829-5.829,3.392,3.388,0,0L15,30,5.784,20.784l0,0,3.395-3.385M23.22,15l3.39-3.39L30,15l-3.39,3.39Z" fill="#f3ba2f"/><path d="M973.624,968.407h0l-5.216-5.217-3.856,3.855h0l-.443.443-.914.914-.007.007.007.007,5.212,5.213,5.217-5.217,0,0,0,0" transform="translate(-953.409 -953.409)" fill="#f3ba2f"/></svg>