<svg width="558" height="329" viewBox="0 0 558 329" fill="none" xmlns="http://www.w3.org/2000/svg">
<path d="M121.447 178.812H269.677C271.285 178.812 272.826 179.352 273.963 180.314C275.099 181.275 275.738 182.579 275.738 183.938V322.278C275.738 323.638 275.099 324.942 273.963 325.903C272.826 326.864 271.285 327.405 269.677 327.405H121.447C120.651 327.405 119.863 327.272 119.127 327.014C118.392 326.757 117.724 326.379 117.161 325.903C116.598 325.427 116.152 324.861 115.847 324.239C115.543 323.617 115.386 322.951 115.386 322.277L115.386 183.938C115.386 182.579 116.025 181.275 117.162 180.314C118.298 179.352 119.84 178.812 121.447 178.812V178.812Z" fill="#0246AF"/>
<path d="M115.139 290.3C115.139 290.3 119.915 306.368 131.353 308.729C142.792 311.091 139.852 228.429 153.482 214.171C167.112 199.914 225.779 201.007 227.446 177.745L146.085 177.821C140.718 177.826 135.493 179.549 131.175 182.738C126.857 185.926 123.673 190.413 122.089 195.542C114.42 220.33 103.485 265.156 115.139 290.3Z" fill="#00378B"/>
<path d="M141.591 173.981C142.383 171.605 142.608 169.076 142.246 166.597C141.885 164.118 140.947 161.759 139.509 159.707C138.071 157.656 136.172 155.971 133.965 154.786C131.758 153.601 129.304 152.95 126.8 152.884C117.737 152.757 107.114 153.775 101.169 158.398C89.3782 167.561 42.7804 211.633 37.1998 216.76C31.6193 221.887 30.4208 225.729 18.0227 216.76C3.17825 206.023 -4.94455 201.637 6.15911 221.095C17.2628 240.552 15.9673 239.509 19.2509 241.544C22.5345 243.58 25.9171 236.794 31.1216 236.679C36.326 236.565 109.066 213.488 128.753 194.031C134.57 188.467 138.972 181.593 141.591 173.981V173.981Z" fill="#C5D5FF"/>
<path d="M166.528 44.6816C166.528 44.6816 166.627 51.9277 166.802 52.8956C166.977 53.8634 171.246 53.4349 170.958 52.8956C170.67 52.3562 166.528 44.6816 166.528 44.6816Z" fill="#D5E0FC"/>
<path d="M189.818 152.476H172.537C171.637 152.476 170.745 152.653 169.913 152.998C169.081 153.342 168.325 153.847 167.688 154.484C167.052 155.121 166.547 155.877 166.202 156.709C165.857 157.541 165.68 158.432 165.68 159.333V159.333C165.68 160.233 165.857 161.125 166.202 161.957C166.547 162.789 167.052 163.545 167.688 164.181C168.325 164.818 169.081 165.323 169.913 165.668C170.745 166.013 171.637 166.19 172.537 166.19H189.818C191.637 166.19 193.381 165.467 194.667 164.181C195.953 162.896 196.675 161.151 196.675 159.333V159.333C196.675 157.514 195.953 155.77 194.667 154.484C193.381 153.198 191.637 152.476 189.818 152.476V152.476Z" fill="#037A4A"/>
<path d="M270.872 125.871L241.999 135.929C240.642 136.402 239.457 137.268 238.595 138.417C237.733 139.567 237.233 140.947 237.159 142.382L236.311 158.923C236.311 158.923 268.815 143.288 270.872 125.871Z" fill="#00378B"/>
<path d="M187.255 36.1562L177.178 40.8184C176.289 41.2297 175.599 41.9773 175.262 42.8967C174.924 43.8162 174.965 44.8321 175.376 45.7211L185.118 66.7778C185.529 67.6668 186.277 68.356 187.196 68.6938C188.116 69.0316 189.132 68.9903 190.021 68.579L200.098 63.9168C200.987 63.5055 201.676 62.758 202.014 61.8385C202.352 60.9191 202.311 59.9031 201.899 59.0141L192.158 37.9574C191.746 37.0684 190.999 36.3792 190.079 36.0414C189.16 35.7036 188.144 35.7449 187.255 36.1562V36.1562Z" fill="#D5E0FC"/>
<path d="M193.442 51.2798L184.197 64.6002L179.788 56.1062L193.442 51.2798Z" fill="#C5D5FF"/>
<path d="M172.142 16.4766C172.142 16.4766 160.712 12.0886 157.033 18.9141C153.353 25.7395 159.051 41.2797 166.878 38.1505C174.705 35.0213 172.142 16.4766 172.142 16.4766Z" fill="#2564F4"/>
<path d="M182.179 58.5536C172.852 58.5536 165.291 49.2513 165.291 37.7763C165.291 26.3013 172.852 16.999 182.179 16.999C191.506 16.999 199.067 26.3013 199.067 37.7763C199.067 49.2513 191.506 58.5536 182.179 58.5536Z" fill="#D5E0FC"/>
<path d="M199.813 6.71602C199.394 6.72378 198.975 6.7033 198.559 6.65468C195.653 6.24794 193.631 3.45719 191.108 2.15087C188.954 1.00832 186.567 0.371696 184.129 0.289366C176.649 0.127066 170.757 6.60322 168.394 12.7508C166.966 16.4639 167.739 17.1527 164.783 18.9973C161.827 20.842 159.043 21.7307 159.449 25.6694C159.855 29.6082 164.848 33.3767 170.095 33.733C174.787 34.0526 179.131 34.3159 182.483 38.0448C182.819 38.421 183.277 38.666 183.777 38.7363C184.277 38.8066 184.785 38.6977 185.212 38.4288L185.248 38.407C185.505 38.2442 185.725 38.0279 185.891 37.7728C186.058 37.5177 186.168 37.2298 186.213 36.9285C186.431 35.5153 187.018 33.0046 188.443 32.8324C190.432 32.5909 192.383 35.0195 190.545 40.5674C189.374 44.1102 191.463 45.3641 191.463 45.3641C191.463 45.3641 194.918 47.4968 201.099 46.231C204.235 45.955 207.199 44.6782 209.554 42.5892C213.71 39.1067 214.943 34.7998 215.517 29.6101C216.084 24.4918 212.47 24.7263 212.802 18.4511C212.814 18.2762 212.848 18.1035 212.901 17.9365C213.768 15.1002 213.073 12.6112 210.283 10.3796C207.472 7.98327 203.889 6.68298 200.195 6.71801C200.065 6.71603 199.94 6.71602 199.813 6.71602Z" fill="#2564F4"/>
<path d="M138.737 156.106C138.737 156.106 93.4435 144.123 84.7328 198.245C76.022 252.367 74.317 273.879 70.6989 275.3C67.0808 276.721 45.306 285.097 41.5414 287.928C37.7768 290.76 30.8613 294.496 52.175 293.247C73.4887 291.998 81.5047 294.242 81.6106 287.147C81.7165 280.051 86.7814 274.489 91.8285 268.76C96.8756 263.031 116.475 239.588 119.18 207.157C119.089 208.131 171.479 223.045 166.42 177.82C165.285 165.336 144.046 155.348 138.737 156.106Z" fill="#D5E0FC"/>
<path d="M235.56 158.922C235.56 158.922 256.911 97.9467 219.716 85.4625C182.522 72.9783 172.926 156.363 173.485 158.922C174.044 161.481 235.56 158.922 235.56 158.922Z" fill="white"/>
<path d="M126.821 155.584C126.559 154.716 126.223 153.873 125.816 153.063C125.797 153.032 125.786 152.996 125.785 152.959C125.783 152.922 125.791 152.885 125.808 152.853C125.825 152.82 125.85 152.792 125.881 152.772C125.912 152.752 125.948 152.74 125.985 152.737C127.98 152.578 136.618 151.931 138.736 152.475C140.314 152.881 141.21 155.035 141.639 156.464C141.683 156.612 141.69 156.767 141.661 156.918C141.631 157.069 141.566 157.21 141.471 157.331C141.376 157.451 141.254 157.547 141.114 157.611C140.974 157.674 140.821 157.703 140.668 157.695L128.878 157.144C128.417 157.123 127.974 156.963 127.607 156.684C127.239 156.405 126.965 156.022 126.821 155.584Z" fill="white"/>
<path d="M235.946 157.471C235.946 157.471 129.174 152.789 125.26 154.745C121.346 156.702 135.742 167.837 133.363 202.516C133.077 205.428 132.817 207.319 132.603 208.547C132.548 208.829 132.553 209.119 132.616 209.4C132.68 209.68 132.801 209.945 132.971 210.176C133.142 210.407 133.359 210.601 133.608 210.744C133.858 210.887 134.134 210.977 134.42 211.008C147.415 212.107 209.487 216.226 227.712 196.506C234.872 188.612 235.946 157.471 235.946 157.471Z" fill="#2564F4"/>
<path d="M152.533 148.018H90.269C89.9779 148.018 89.6988 148.133 89.4929 148.339C89.2871 148.545 89.1715 148.824 89.1715 149.115V151.958C89.1715 152.249 89.2871 152.529 89.4929 152.734C89.6988 152.94 89.9779 153.056 90.269 153.056H152.533C152.824 153.056 153.103 152.94 153.309 152.734C153.514 152.529 153.63 152.249 153.63 151.958V149.115C153.63 148.824 153.514 148.545 153.309 148.339C153.103 148.133 152.824 148.018 152.533 148.018V148.018Z" fill="#0246AF"/>
<path d="M74.1773 72.2085L71.5539 72.8459C71.1859 72.9354 70.8684 73.1673 70.6714 73.4908C70.4744 73.8143 70.414 74.2027 70.5034 74.5708L88.4852 148.577C88.5295 148.759 88.6093 148.93 88.7199 149.082C88.8305 149.233 88.9699 149.361 89.1301 149.459C89.2903 149.557 89.4681 149.622 89.6534 149.65C89.8387 149.679 90.0278 149.671 90.2101 149.627L92.8335 148.99C93.2015 148.9 93.5189 148.668 93.7159 148.345C93.9129 148.021 93.9734 147.633 93.8839 147.265L75.9021 73.259C75.8127 72.891 75.5807 72.5735 75.2573 72.3765C74.9338 72.1795 74.5453 72.1191 74.1773 72.2085V72.2085Z" fill="#0246AF"/>
<path d="M97.6371 85.4437C97.5211 85.4173 97.4137 85.3615 97.3255 85.2816C97.2374 85.2017 97.1714 85.1004 97.1337 84.9875C97.0961 84.8746 97.0881 84.7539 97.1107 84.6371C97.1332 84.5203 97.1856 84.4112 97.2626 84.3205L119.016 58.6951C119.136 58.5604 119.304 58.478 119.485 58.4656C119.665 58.4531 119.843 58.5116 119.98 58.6284C120.118 58.7453 120.205 58.9114 120.222 59.0912C120.239 59.271 120.185 59.4504 120.071 59.591L98.3181 85.2164C98.2362 85.3129 98.1295 85.3851 98.0094 85.4252C97.8893 85.4653 97.7606 85.4717 97.6371 85.4437Z" fill="white"/>
<path d="M103.297 95.7217C103.145 95.6859 103.009 95.5998 102.912 95.4773C102.815 95.3548 102.763 95.2031 102.763 95.0469C102.763 94.8906 102.816 94.7391 102.913 94.6168C103.011 94.4945 103.146 94.4087 103.298 94.3732L114.359 91.9242C114.448 91.9016 114.542 91.8973 114.633 91.9115C114.725 91.9256 114.813 91.958 114.891 92.0067C114.97 92.0554 115.038 92.1194 115.092 92.1949C115.146 92.2704 115.184 92.3559 115.204 92.4463C115.224 92.5368 115.225 92.6303 115.208 92.7214C115.192 92.8124 115.157 92.8992 115.106 92.9766C115.055 93.0539 114.989 93.1203 114.912 93.1717C114.835 93.2231 114.748 93.2586 114.657 93.2759L103.597 95.7257C103.498 95.7463 103.395 95.745 103.297 95.7217Z" fill="white"/>
<path d="M125.065 111.661L105.927 107.336C105.748 107.296 105.592 107.186 105.494 107.031C105.396 106.875 105.364 106.688 105.404 106.508C105.445 106.329 105.554 106.174 105.71 106.076C105.865 105.977 106.053 105.945 106.232 105.986L125.37 110.31C125.55 110.35 125.705 110.46 125.803 110.616C125.901 110.771 125.934 110.959 125.893 111.138C125.853 111.317 125.743 111.473 125.587 111.571C125.432 111.669 125.244 111.701 125.065 111.661Z" fill="white"/>
<path d="M168.124 93.0137C168.124 93.0137 152.652 124.225 131.943 136.156C126.599 139.172 120.15 137.665 117.543 140.545C114.937 143.424 114.663 148.499 116.309 149.048C117.955 149.596 126.422 150.992 128.693 149.596C130.965 148.199 179.472 142.003 190.231 111.198C189.681 110.917 168.124 93.0137 168.124 93.0137Z" fill="#C5D5FF"/>
<path d="M201.34 66.0723C201.34 66.0723 189.982 58.4215 184.689 63.8951C179.395 69.3688 167.876 94.1897 167.053 94.8755C166.231 95.5613 181.179 109.001 181.179 109.001L201.34 66.0723Z" fill="#0246AF"/>
<path d="M193.151 84.0602L194.816 80.5154L194.42 80.6054C194.098 80.677 193.797 80.8213 193.539 81.0274C193.282 81.2336 193.075 81.496 192.935 81.7945C192.794 82.0931 192.724 82.4198 192.73 82.7496C192.736 83.0794 192.817 83.4035 192.967 83.697L193.151 84.0602ZM194.083 81.1458L193.167 83.0973C193.139 82.9756 193.125 82.8511 193.125 82.7262C193.123 82.4001 193.213 82.0799 193.382 81.8011C193.551 81.5222 193.794 81.2955 194.083 81.1458Z" fill="white"/>
<path d="M182.156 105.708C182.45 105.709 182.741 105.649 183.012 105.533L183.08 105.503L184.26 102.992L184.239 102.92C184.193 102.764 184.131 102.615 184.053 102.473C183.892 102.072 183.614 101.727 183.256 101.486C182.897 101.244 182.473 101.116 182.041 101.118C181.457 101.169 180.915 101.44 180.524 101.876C180.133 102.313 179.924 102.882 179.939 103.468C179.953 104.054 180.191 104.612 180.603 105.028C181.016 105.444 181.571 105.688 182.157 105.708H182.156ZM182.789 105.198C182.351 105.364 181.865 105.351 181.436 105.162C181.007 104.972 180.671 104.621 180.499 104.185L180.489 104.163C180.338 103.899 180.258 103.602 180.255 103.299C180.253 102.882 180.396 102.478 180.661 102.156C180.925 101.834 181.294 101.615 181.703 101.537C182.112 101.459 182.536 101.527 182.9 101.729C183.265 101.931 183.547 102.254 183.697 102.642C183.754 102.745 183.802 102.852 183.841 102.963L182.789 105.198Z" fill="white"/>
<path d="M193.872 68.1105C194.303 68.1105 194.724 67.9828 195.082 67.7436C195.44 67.5043 195.719 67.1643 195.884 66.7665C196.048 66.3686 196.091 65.9309 196.007 65.5085C195.923 65.0862 195.716 64.6983 195.412 64.3938C195.107 64.0893 194.719 63.8819 194.297 63.7979C193.875 63.7139 193.437 63.757 193.039 63.9218C192.641 64.0866 192.301 64.3657 192.062 64.7237C191.823 65.0817 191.695 65.5027 191.695 65.9333C191.695 66.5107 191.924 67.0645 192.333 67.4728C192.741 67.8811 193.295 68.1105 193.872 68.1105V68.1105ZM193.872 64.146C194.224 64.146 194.569 64.2505 194.862 64.4462C195.155 64.642 195.383 64.9202 195.518 65.2457C195.653 65.5712 195.688 65.9293 195.619 66.2749C195.55 66.6204 195.381 66.9378 195.132 67.1869C194.883 67.4361 194.565 67.6057 194.22 67.6745C193.874 67.7432 193.516 67.7079 193.19 67.5731C192.865 67.4383 192.587 67.2099 192.391 66.917C192.195 66.6241 192.091 66.2797 192.091 65.9274C192.092 65.4553 192.28 65.003 192.614 64.6692C192.948 64.3354 193.4 64.1473 193.872 64.146V64.146Z" fill="white"/>
<path d="M182.156 77.2301C182.189 77.2299 182.222 77.2273 182.255 77.2222L182.275 77.0243L182.296 77.2222C182.328 77.2273 182.361 77.23 182.395 77.2301C182.972 77.2301 183.526 77.0007 183.934 76.5924C184.342 76.1841 184.572 75.6303 184.572 75.0529C184.572 74.4755 184.342 73.9217 183.934 73.5134C183.526 73.1051 182.972 72.8757 182.395 72.8757C182.363 72.8761 182.332 72.8787 182.301 72.8836C182.227 72.8836 182.196 72.8757 182.164 72.8757C181.586 72.8757 181.033 73.1051 180.624 73.5134C180.216 73.9217 179.987 74.4755 179.987 75.0529C179.987 75.6303 180.216 76.1841 180.624 76.5924C181.033 77.0007 181.586 77.2301 182.164 77.2301H182.156ZM182.354 73.2716C182.826 73.2675 183.281 73.4513 183.618 73.7825C183.955 74.1137 184.147 74.5651 184.151 75.0376C184.155 75.51 183.971 75.9647 183.64 76.3017C183.309 76.6386 182.857 76.8302 182.385 76.8343L182.269 76.8224L182.194 76.8303H182.186C181.952 76.8324 181.72 76.7885 181.503 76.7009C181.286 76.6134 181.088 76.484 180.921 76.3201C180.754 76.1562 180.621 75.961 180.53 75.7457C180.438 75.5304 180.39 75.2992 180.388 75.0653C180.386 74.8314 180.43 74.5993 180.517 74.3823C180.605 74.1654 180.734 73.9678 180.898 73.8009C181.062 73.634 181.257 73.5009 181.473 73.4094C181.688 73.3179 181.919 73.2698 182.153 73.2676C182.214 73.2745 182.235 73.2775 182.257 73.2785C182.286 73.2781 182.316 73.2758 182.345 73.2716H182.354Z" fill="white"/>
<path d="M181.117 92.7691C181.694 92.7691 182.248 92.5397 182.656 92.1314C183.065 91.7231 183.294 91.1693 183.294 90.5919C183.294 90.5588 183.291 90.5257 183.286 90.493C183.286 90.4207 183.294 90.394 183.294 90.3584C183.294 89.7809 183.065 89.2272 182.656 88.8188C182.248 88.4105 181.694 88.1812 181.117 88.1812C180.539 88.1812 179.986 88.4105 179.577 88.8188C179.169 89.2272 178.94 89.7809 178.94 90.3584C178.94 90.3888 178.942 90.4192 178.947 90.4494C178.947 90.5266 178.94 90.5573 178.94 90.5889C178.939 90.8751 178.995 91.1585 179.104 91.423C179.214 91.6875 179.374 91.9279 179.576 92.1304C179.779 92.3329 180.019 92.4935 180.283 92.6031C180.547 92.7127 180.831 92.7691 181.117 92.7691V92.7691ZM181.117 88.574C181.589 88.5756 182.041 88.7638 182.375 89.0975C182.708 89.4312 182.897 89.8834 182.898 90.3554L182.886 90.4544L182.894 90.5434C182.9 91.0159 182.717 91.4711 182.387 91.8089C182.057 92.1468 181.606 92.3397 181.133 92.345C180.661 92.3504 180.205 92.1679 179.868 91.8376C179.53 91.5074 179.337 91.0564 179.332 90.584C179.339 90.5246 179.341 90.5019 179.342 90.4781C179.342 90.448 179.339 90.4179 179.335 90.388C179.332 90.1516 179.376 89.9169 179.463 89.6974C179.551 89.4779 179.682 89.2781 179.848 89.1094C180.013 88.9407 180.211 88.8065 180.429 88.7146C180.646 88.6227 180.88 88.5749 181.117 88.574V88.574Z" fill="white"/>
<path d="M198.003 129.614C197.783 130.137 197.695 130.705 197.747 131.27C197.799 131.834 197.989 132.377 198.3 132.851C201.763 138.368 215.106 158.506 224.082 156.312C234.473 153.773 236.338 144.423 241.291 137.844C246.036 131.537 203.877 116.499 198.003 129.614Z" fill="#EBEBEB"/>
<path d="M208.009 56.6702C208.009 56.6702 193.132 52.4623 187.441 68.2894C181.751 84.1166 178.483 89.7892 185.428 102.297C192.374 114.805 202.833 135.61 219.148 148.62C222.766 151.356 226.535 144.313 235.096 141.198C243.657 138.082 267.952 137.432 270.87 125.868C270.872 125.867 229.035 61.9449 208.009 56.6702Z" fill="#0246AF"/>
<path d="M201.365 130.197C200.773 129.419 200.452 128.469 200.45 127.491C200.449 126.513 200.767 125.561 201.357 124.781C204.606 120.466 211.362 111.337 211.515 109.866C211.543 109.591 211.33 110.889 211.299 111.082C211.055 112.625 210.816 114.168 210.566 115.711C210.061 118.824 209.824 121.985 209.035 125.046C208.28 127.973 207.082 130.39 206.874 133.458C206.847 133.873 206.479 136.031 206.786 136.352C204.877 134.392 203.068 132.338 201.365 130.197V130.197Z" fill="#00378B"/>
<path d="M188.641 66.3625L176.128 104.364L170.761 99.2411C170.761 99.2411 181.66 82.3758 188.641 66.3625Z" fill="#00378B"/>
<path d="M172.968 49.8183C173.372 49.2923 173.572 48.6378 173.532 47.9756C173.496 46.8338 173.195 45.7161 172.654 44.7099C171.426 42.3149 169.433 40.9671 168.118 41.642C166.803 42.3169 166.732 44.7217 167.959 47.1166C168.46 48.1421 169.191 49.0379 170.095 49.7342C170.413 50.026 170.807 50.2228 171.231 50.3022C171.656 50.3816 172.094 50.3405 172.496 50.1835C172.675 50.0928 172.835 49.9689 172.968 49.8183V49.8183ZM168.189 42.4861C168.261 42.4049 168.348 42.3377 168.444 42.2882C169.269 41.8666 170.9 42.8731 172.013 45.0444C172.501 45.948 172.775 46.9521 172.812 47.9786C172.91 48.2747 172.899 48.5961 172.781 48.8849C172.663 49.1736 172.445 49.4106 172.168 49.5528C171.89 49.6951 171.571 49.7333 171.267 49.6606C170.964 49.5879 170.697 49.409 170.514 49.1563C169.702 48.5274 169.046 47.7192 168.598 46.795V46.795C167.613 44.8682 167.606 43.1482 168.189 42.4861Z" fill="white"/>
<path d="M167.484 44.9157C167.524 44.8503 167.543 44.7734 167.537 44.6966C167.531 44.6197 167.5 44.5469 167.45 44.4887C167.399 44.4306 167.331 44.3902 167.256 44.3735C167.18 44.3568 167.102 44.3648 167.031 44.3961L166.089 44.8236C166.002 44.863 165.935 44.9353 165.901 45.0246C165.868 45.1138 165.871 45.2128 165.91 45.2997C165.949 45.3866 166.022 45.4542 166.111 45.4878C166.2 45.5214 166.299 45.5182 166.386 45.4788L167.329 45.0523C167.393 45.0227 167.447 44.9752 167.484 44.9157V44.9157Z" fill="white"/>
<path d="M169.844 45.8405C169.329 45.8405 168.912 45.4232 168.912 44.9083C168.912 44.3934 169.329 43.9761 169.844 43.9761C170.359 43.9761 170.776 44.3934 170.776 44.9083C170.776 45.4232 170.359 45.8405 169.844 45.8405Z" fill="#231F20"/>
<path d="M186.364 35.3991L170.815 42.5927C170.728 42.6331 170.66 42.7066 170.627 42.797C170.594 42.8875 170.598 42.9874 170.638 43.0748L170.673 43.1493C170.713 43.2368 170.787 43.3045 170.877 43.3378C170.968 43.371 171.067 43.3669 171.155 43.3265L186.704 36.1329C186.791 36.0924 186.859 36.0189 186.892 35.9285C186.926 35.8381 186.922 35.7382 186.881 35.6508L186.847 35.5762C186.806 35.4888 186.733 35.421 186.642 35.3878C186.552 35.3546 186.452 35.3586 186.364 35.3991V35.3991Z" fill="white"/>
<path d="M166.156 41.7006C166.208 41.7006 166.259 41.683 166.3 41.6504C166.341 41.6179 166.37 41.5725 166.382 41.5215C166.541 40.9146 166.932 40.3943 167.47 40.0727C167.836 39.9216 168.23 39.8531 168.625 39.8719C169.02 39.8907 169.406 39.9964 169.755 40.1815C169.783 40.1931 169.813 40.1991 169.844 40.199C169.874 40.199 169.904 40.193 169.932 40.1814C169.96 40.1697 169.985 40.1527 170.007 40.1313C170.028 40.1098 170.045 40.0844 170.057 40.0564C170.068 40.0284 170.074 39.9984 170.074 39.9681C170.074 39.9378 170.068 39.9077 170.057 39.8797C170.045 39.8518 170.028 39.8264 170.006 39.805C169.985 39.7836 169.96 39.7666 169.932 39.755C169.52 39.5417 169.066 39.4229 168.603 39.4073C168.14 39.3917 167.679 39.4797 167.255 39.665C166.927 39.8539 166.641 40.1065 166.413 40.4079C166.185 40.7092 166.019 41.0532 165.927 41.4196C165.913 41.479 165.924 41.5413 165.956 41.5928C165.989 41.6444 166.04 41.681 166.1 41.6947C166.118 41.6994 166.137 41.7014 166.156 41.7006V41.7006Z" fill="#231F20"/>
<path d="M227.855 143.631C228.286 143.631 228.707 143.504 229.065 143.265C229.423 143.025 229.702 142.685 229.867 142.287C230.032 141.89 230.075 141.452 229.991 141.03C229.907 140.607 229.699 140.219 229.395 139.915C229.09 139.61 228.702 139.403 228.28 139.319C227.858 139.235 227.42 139.278 227.022 139.443C226.624 139.608 226.284 139.887 226.045 140.245C225.806 140.603 225.678 141.024 225.678 141.454C225.678 141.74 225.735 142.023 225.844 142.287C225.953 142.552 226.114 142.792 226.316 142.994C226.518 143.196 226.758 143.356 227.022 143.466C227.286 143.575 227.569 143.631 227.855 143.631V143.631ZM227.855 139.667C228.208 139.667 228.552 139.772 228.845 139.967C229.138 140.163 229.366 140.441 229.501 140.767C229.636 141.092 229.671 141.45 229.602 141.796C229.534 142.141 229.364 142.459 229.115 142.708C228.866 142.957 228.548 143.127 228.203 143.195C227.857 143.264 227.499 143.229 227.174 143.094C226.848 142.959 226.57 142.731 226.374 142.438C226.179 142.145 226.074 141.801 226.074 141.448C226.075 140.976 226.263 140.524 226.597 140.19C226.931 139.856 227.383 139.668 227.855 139.667ZM214.351 139.206C214.781 139.206 215.202 139.078 215.56 138.839C215.919 138.6 216.198 138.26 216.362 137.862C216.527 137.464 216.57 137.026 216.486 136.604C216.402 136.182 216.195 135.794 215.89 135.489C215.586 135.185 215.198 134.977 214.776 134.893C214.353 134.809 213.916 134.852 213.518 135.017C213.12 135.182 212.78 135.461 212.541 135.819C212.301 136.177 212.174 136.598 212.174 137.029C212.174 137.606 212.403 138.16 212.811 138.568C213.219 138.976 213.773 139.206 214.35 139.206H214.351ZM214.351 135.241C214.703 135.241 215.048 135.346 215.34 135.542C215.633 135.737 215.862 136.016 215.997 136.341C216.131 136.667 216.167 137.025 216.098 137.37C216.029 137.716 215.86 138.033 215.61 138.282C215.361 138.531 215.044 138.701 214.698 138.77C214.353 138.839 213.995 138.803 213.669 138.668C213.344 138.534 213.066 138.305 212.87 138.012C212.674 137.719 212.57 137.375 212.57 137.023C212.571 136.551 212.759 136.099 213.092 135.765C213.426 135.431 213.878 135.243 214.35 135.241H214.351ZM240.726 139.206C241.156 139.206 241.577 139.078 241.935 138.839C242.293 138.6 242.572 138.26 242.737 137.862C242.902 137.464 242.945 137.026 242.861 136.604C242.777 136.182 242.57 135.794 242.265 135.489C241.961 135.185 241.573 134.977 241.15 134.893C240.728 134.809 240.29 134.852 239.892 135.017C239.495 135.182 239.155 135.461 238.915 135.819C238.676 136.177 238.548 136.598 238.548 137.029C238.548 137.606 238.778 138.16 239.186 138.568C239.594 138.976 240.147 139.206 240.725 139.206H240.726ZM240.726 135.241C241.078 135.241 241.422 135.346 241.715 135.542C242.008 135.737 242.236 136.016 242.371 136.341C242.506 136.667 242.541 137.025 242.473 137.37C242.404 137.716 242.234 138.033 241.985 138.282C241.736 138.531 241.419 138.701 241.073 138.77C240.728 138.839 240.369 138.803 240.044 138.668C239.718 138.534 239.44 138.305 239.244 138.012C239.049 137.719 238.944 137.375 238.944 137.023C238.946 136.551 239.134 136.099 239.467 135.765C239.801 135.432 240.253 135.243 240.725 135.241H240.726ZM227.86 131.529C228.291 131.529 228.712 131.402 229.07 131.162C229.428 130.923 229.707 130.583 229.872 130.185C230.037 129.787 230.08 129.35 229.996 128.927C229.912 128.505 229.704 128.117 229.4 127.813C229.095 127.508 228.707 127.301 228.285 127.217C227.863 127.133 227.425 127.176 227.027 127.341C226.629 127.505 226.289 127.784 226.05 128.143C225.811 128.501 225.683 128.922 225.683 129.352C225.683 129.929 225.912 130.482 226.319 130.89C226.726 131.298 227.279 131.528 227.855 131.529H227.86ZM227.86 127.571C228.213 127.571 228.557 127.675 228.85 127.871C229.143 128.067 229.371 128.345 229.506 128.67C229.641 128.996 229.676 129.354 229.607 129.7C229.539 130.045 229.369 130.363 229.12 130.612C228.871 130.861 228.553 131.03 228.208 131.099C227.862 131.168 227.504 131.133 227.179 130.998C226.853 130.863 226.575 130.635 226.379 130.342C226.184 130.049 226.079 129.704 226.079 129.352C226.079 128.88 226.266 128.427 226.599 128.092C226.931 127.758 227.383 127.568 227.855 127.566L227.86 127.571ZM254.877 131.529C255.455 131.529 256.008 131.3 256.417 130.892C256.825 130.483 257.054 129.93 257.054 129.352C257.052 129.127 257.014 128.903 256.942 128.689C256.836 128.158 256.537 127.685 256.102 127.363C255.667 127.041 255.128 126.892 254.589 126.946C254.05 127 253.551 127.253 253.188 127.655C252.826 128.057 252.626 128.58 252.629 129.122C252.631 129.351 252.671 129.579 252.746 129.795C252.846 130.286 253.113 130.726 253.501 131.042C253.889 131.358 254.374 131.53 254.874 131.529H254.877ZM254.81 127.335C255.223 127.336 255.624 127.48 255.943 127.743C256.262 128.005 256.48 128.371 256.56 128.776L256.566 128.8C256.628 128.977 256.661 129.163 256.664 129.351C256.674 129.8 256.514 130.236 256.216 130.572C255.917 130.908 255.503 131.119 255.056 131.163C254.609 131.206 254.162 131.079 253.804 130.807C253.447 130.534 253.205 130.137 253.129 129.694C253.065 129.51 253.032 129.316 253.03 129.121C253.03 128.649 253.217 128.196 253.55 127.862C253.883 127.527 254.335 127.338 254.807 127.335H254.81ZM215.094 123.746C215.525 123.746 215.946 123.618 216.304 123.379C216.662 123.14 216.941 122.8 217.106 122.402C217.27 122.004 217.313 121.566 217.229 121.144C217.145 120.722 216.938 120.334 216.634 120.029C216.329 119.725 215.941 119.517 215.519 119.433C215.096 119.349 214.659 119.392 214.261 119.557C213.863 119.722 213.523 120.001 213.284 120.359C213.045 120.717 212.917 121.138 212.917 121.569C212.917 122.146 213.146 122.699 213.554 123.107C213.961 123.515 214.514 123.745 215.091 123.746H215.094ZM215.094 119.781C215.446 119.781 215.791 119.886 216.084 120.082C216.377 120.277 216.605 120.556 216.74 120.881C216.875 121.207 216.91 121.565 216.841 121.91C216.773 122.256 216.603 122.573 216.354 122.822C216.105 123.071 215.787 123.241 215.442 123.31C215.096 123.379 214.738 123.343 214.412 123.208C214.087 123.074 213.809 122.845 213.613 122.552C213.417 122.259 213.313 121.915 213.313 121.563C213.314 121.091 213.502 120.64 213.835 120.306C214.168 119.972 214.62 119.784 215.091 119.781H215.094ZM241.47 123.746C241.9 123.746 242.321 123.618 242.679 123.379C243.037 123.14 243.316 122.8 243.481 122.402C243.646 122.004 243.689 121.566 243.605 121.144C243.521 120.722 243.314 120.334 243.009 120.029C242.705 119.725 242.317 119.517 241.894 119.433C241.472 119.349 241.034 119.392 240.637 119.557C240.239 119.722 239.899 120.001 239.659 120.359C239.42 120.717 239.293 121.138 239.293 121.569C239.293 122.146 239.522 122.699 239.929 123.107C240.337 123.515 240.89 123.745 241.467 123.746H241.47ZM241.47 119.781C241.822 119.781 242.166 119.886 242.459 120.082C242.752 120.277 242.981 120.556 243.116 120.881C243.25 121.207 243.286 121.565 243.217 121.91C243.148 122.256 242.978 122.573 242.729 122.822C242.48 123.071 242.163 123.241 241.817 123.31C241.472 123.379 241.114 123.343 240.788 123.208C240.463 123.074 240.184 122.845 239.989 122.552C239.793 122.259 239.688 121.915 239.688 121.563C239.69 121.091 239.877 120.639 240.211 120.306C240.544 119.972 240.995 119.783 241.467 119.781H241.47ZM268.374 123.746C268.69 123.745 269.002 123.674 269.288 123.54L269.497 123.441L269.368 123.249C268.775 122.37 268.041 121.285 267.174 120.02L267.044 119.83L266.877 119.988C266.661 120.19 266.49 120.435 266.373 120.706C266.255 120.977 266.195 121.269 266.196 121.565C266.195 121.851 266.251 122.134 266.36 122.398C266.469 122.663 266.629 122.903 266.831 123.106C267.033 123.308 267.273 123.469 267.537 123.579C267.801 123.689 268.084 123.745 268.37 123.746H268.374ZM268.904 123.268C268.733 123.323 268.554 123.352 268.374 123.352C267.902 123.35 267.45 123.162 267.116 122.829C266.782 122.495 266.594 122.043 266.593 121.571C266.59 121.163 266.73 120.767 266.988 120.451C267.726 121.53 268.368 122.476 268.901 123.268H268.904ZM228.599 116.07C229.029 116.07 229.45 115.943 229.808 115.703C230.166 115.464 230.445 115.124 230.61 114.726C230.775 114.328 230.818 113.891 230.734 113.468C230.65 113.046 230.443 112.658 230.138 112.354C229.834 112.049 229.446 111.842 229.023 111.758C228.601 111.674 228.163 111.717 227.765 111.882C227.368 112.046 227.028 112.325 226.788 112.683C226.549 113.042 226.421 113.462 226.421 113.893C226.422 114.469 226.65 115.022 227.057 115.43C227.464 115.838 228.016 116.068 228.593 116.069L228.599 116.07ZM228.599 112.106C228.951 112.106 229.295 112.21 229.588 112.406C229.881 112.602 230.11 112.88 230.244 113.205C230.379 113.531 230.414 113.889 230.346 114.235C230.277 114.58 230.107 114.898 229.858 115.147C229.609 115.396 229.292 115.566 228.946 115.634C228.601 115.703 228.242 115.668 227.917 115.533C227.591 115.398 227.313 115.17 227.117 114.877C226.922 114.584 226.817 114.239 226.817 113.887C226.819 113.416 227.006 112.964 227.338 112.631C227.671 112.297 228.122 112.108 228.593 112.105L228.599 112.106ZM255.616 116.07C256.152 116.125 256.692 116.006 257.155 115.73C257.618 115.454 257.979 115.036 258.186 114.538C258.392 114.04 258.432 113.488 258.3 112.966C258.168 112.443 257.871 111.977 257.453 111.636C257.035 111.296 256.519 111.1 255.98 111.076C255.442 111.053 254.91 111.204 254.464 111.507C254.018 111.81 253.682 112.249 253.505 112.758C253.329 113.268 253.321 113.82 253.484 114.334C253.586 114.825 253.853 115.265 254.241 115.581C254.63 115.897 255.115 116.069 255.616 116.069V116.07ZM255.548 111.875C255.962 111.876 256.362 112.02 256.681 112.283C257 112.546 257.218 112.911 257.298 113.316C257.36 113.502 257.394 113.695 257.397 113.891C257.409 114.341 257.249 114.78 256.951 115.117C256.652 115.455 256.237 115.667 255.789 115.71C255.34 115.754 254.892 115.626 254.534 115.352C254.176 115.079 253.935 114.68 253.86 114.235C253.797 114.05 253.764 113.856 253.761 113.66C253.761 113.426 253.806 113.193 253.896 112.976C253.986 112.758 254.117 112.561 254.283 112.395C254.449 112.229 254.647 112.097 254.864 112.007C255.081 111.917 255.313 111.87 255.548 111.87V111.875ZM214.054 110.806C214.485 110.806 214.906 110.679 215.264 110.439C215.622 110.2 215.901 109.86 216.065 109.462C216.23 109.065 216.273 108.627 216.189 108.204C216.105 107.782 215.898 107.394 215.593 107.09C215.289 106.785 214.901 106.578 214.479 106.494C214.056 106.41 213.619 106.453 213.221 106.618C212.823 106.783 212.483 107.062 212.244 107.42C212.004 107.778 211.877 108.199 211.877 108.629C211.877 109.206 212.107 109.76 212.515 110.168C212.923 110.576 213.477 110.805 214.054 110.805V110.806ZM214.054 106.842C214.406 106.842 214.751 106.946 215.044 107.142C215.337 107.338 215.565 107.616 215.7 107.942C215.835 108.267 215.87 108.625 215.801 108.971C215.732 109.316 215.563 109.634 215.314 109.883C215.064 110.132 214.747 110.302 214.401 110.37C214.056 110.439 213.698 110.404 213.372 110.269C213.047 110.134 212.769 109.906 212.573 109.613C212.377 109.32 212.273 108.976 212.273 108.623C212.274 108.151 212.462 107.699 212.796 107.365C213.13 107.032 213.582 106.844 214.054 106.842V106.842ZM240.43 110.806C240.86 110.806 241.281 110.679 241.639 110.439C241.997 110.2 242.276 109.86 242.441 109.462C242.606 109.065 242.649 108.627 242.565 108.204C242.481 107.782 242.274 107.394 241.969 107.09C241.665 106.785 241.277 106.578 240.854 106.494C240.432 106.41 239.994 106.453 239.596 106.618C239.199 106.783 238.859 107.062 238.619 107.42C238.38 107.778 238.252 108.199 238.252 108.629C238.253 109.206 238.482 109.76 238.891 110.168C239.299 110.576 239.852 110.805 240.43 110.805V110.806ZM240.43 106.842C240.782 106.842 241.126 106.946 241.419 107.142C241.712 107.338 241.941 107.616 242.075 107.942C242.21 108.267 242.245 108.625 242.177 108.971C242.108 109.316 241.938 109.634 241.689 109.883C241.44 110.132 241.123 110.302 240.777 110.37C240.432 110.439 240.073 110.404 239.748 110.269C239.422 110.134 239.144 109.906 238.948 109.613C238.753 109.32 238.648 108.976 238.648 108.623C238.65 108.151 238.838 107.699 239.172 107.365C239.505 107.032 239.958 106.844 240.43 106.842V106.842ZM227.56 103.13C227.99 103.13 228.411 103.002 228.769 102.763C229.127 102.524 229.406 102.184 229.571 101.786C229.736 101.388 229.779 100.95 229.695 100.528C229.611 100.106 229.404 99.7176 229.099 99.4131C228.795 99.1087 228.407 98.9013 227.984 98.8173C227.562 98.7333 227.124 98.7764 226.726 98.9412C226.328 99.106 225.988 99.385 225.749 99.7431C225.51 100.101 225.382 100.522 225.382 100.953C225.382 101.53 225.612 102.084 226.02 102.492C226.428 102.9 226.981 103.13 227.559 103.13H227.56ZM227.56 99.1654C227.912 99.1654 228.256 99.2699 228.549 99.4656C228.842 99.6613 229.07 99.9395 229.205 100.265C229.34 100.591 229.375 100.949 229.307 101.294C229.238 101.64 229.068 101.957 228.819 102.206C228.57 102.455 228.252 102.625 227.907 102.694C227.561 102.763 227.203 102.727 226.878 102.592C226.552 102.458 226.274 102.229 226.078 101.936C225.883 101.643 225.778 101.299 225.778 100.947C225.78 100.475 225.968 100.023 226.301 99.6892C226.635 99.3555 227.087 99.1672 227.559 99.1654H227.56ZM254.576 103.13C254.612 103.129 254.649 103.126 254.684 103.121L255.044 103.096L254.871 102.799C254.189 101.882 253.493 100.954 252.782 100.014L252.553 99.7077L252.438 100.073C252.369 100.281 252.332 100.499 252.33 100.718C252.35 101.323 252.588 101.901 253.001 102.344C253.414 102.787 253.974 103.066 254.576 103.128V103.13ZM252.729 100.597C253.266 101.311 253.796 102.017 254.318 102.716C253.953 102.662 253.614 102.496 253.347 102.242C253.079 101.987 252.898 101.656 252.826 101.294C252.763 101.109 252.73 100.915 252.727 100.719C252.726 100.68 252.728 100.639 252.732 100.597H252.729ZM215.088 95.2672C215.519 95.2672 215.94 95.1395 216.298 94.9003C216.656 94.6611 216.935 94.321 217.1 93.9232C217.264 93.5254 217.307 93.0876 217.223 92.6653C217.139 92.243 216.932 91.855 216.628 91.5505C216.323 91.2461 215.935 91.0387 215.513 90.9547C215.091 90.8707 214.653 90.9138 214.255 91.0786C213.857 91.2434 213.517 91.5224 213.278 91.8805C213.039 92.2385 212.911 92.6594 212.911 93.09C212.911 93.3762 212.967 93.6596 213.077 93.9239C213.187 94.1882 213.347 94.4284 213.55 94.6306C213.752 94.8328 213.993 94.9931 214.257 95.1023C214.521 95.2116 214.805 95.2676 215.091 95.2672H215.088ZM215.088 91.3028C215.44 91.3028 215.785 91.4072 216.078 91.603C216.371 91.7987 216.599 92.0769 216.734 92.4024C216.869 92.7279 216.904 93.0861 216.835 93.4316C216.766 93.7772 216.597 94.0946 216.348 94.3437C216.099 94.5928 215.781 94.7625 215.436 94.8312C215.09 94.8999 214.732 94.8647 214.406 94.7298C214.081 94.595 213.803 94.3667 213.607 94.0738C213.411 93.7808 213.307 93.4364 213.307 93.0841C213.309 92.6118 213.497 92.1594 213.832 91.8258C214.166 91.4922 214.619 91.3045 215.091 91.3037L215.088 91.3028ZM241.464 95.2672C241.894 95.2672 242.315 95.1395 242.673 94.9003C243.031 94.6611 243.31 94.321 243.475 93.9232C243.64 93.5254 243.683 93.0876 243.599 92.6653C243.515 92.243 243.308 91.855 243.003 91.5505C242.699 91.2461 242.311 91.0387 241.889 90.9547C241.466 90.8707 241.028 90.9138 240.631 91.0786C240.233 91.2434 239.893 91.5224 239.654 91.8805C239.414 92.2385 239.287 92.6594 239.287 93.09C239.287 93.3762 239.343 93.6596 239.453 93.9239C239.562 94.1882 239.723 94.4284 239.925 94.6306C240.128 94.8328 240.368 94.9931 240.633 95.1023C240.897 95.2116 241.181 95.2676 241.467 95.2672H241.464ZM241.464 91.3028C241.816 91.3028 242.161 91.4072 242.454 91.603C242.746 91.7987 242.975 92.0769 243.11 92.4024C243.244 92.7279 243.28 93.0861 243.211 93.4316C243.142 93.7772 242.973 94.0946 242.723 94.3437C242.474 94.5928 242.157 94.7625 241.811 94.8312C241.466 94.8999 241.108 94.8647 240.782 94.7298C240.457 94.595 240.178 94.3667 239.983 94.0738C239.787 93.7808 239.682 93.4364 239.682 93.0841C239.684 92.6118 239.873 92.1594 240.207 91.8258C240.542 91.4922 240.994 91.3045 241.467 91.3037L241.464 91.3028ZM228.594 87.5907C229.024 87.5907 229.445 87.463 229.803 87.2237C230.161 86.9845 230.44 86.6445 230.605 86.2466C230.77 85.8488 230.813 85.411 230.729 84.9887C230.645 84.5664 230.438 84.1784 230.133 83.874C229.829 83.5695 229.441 83.3621 229.018 83.2781C228.596 83.1941 228.158 83.2372 227.761 83.402C227.363 83.5668 227.023 83.8458 226.783 84.2039C226.544 84.5619 226.416 84.9828 226.416 85.4135C226.416 85.6994 226.473 85.9825 226.582 86.2467C226.691 86.5109 226.851 86.751 227.053 86.9533C227.256 87.1555 227.495 87.316 227.76 87.4255C228.024 87.5351 228.307 87.5915 228.593 87.5917L228.594 87.5907ZM228.594 83.6321C228.946 83.6321 229.29 83.7366 229.583 83.9323C229.876 84.1281 230.105 84.4063 230.239 84.7318C230.374 85.0573 230.41 85.4154 230.341 85.761C230.272 86.1065 230.102 86.4239 229.853 86.6731C229.604 86.9222 229.287 87.0918 228.941 87.1606C228.596 87.2293 228.237 87.194 227.912 87.0592C227.586 86.9244 227.308 86.6961 227.113 86.4031C226.917 86.1102 226.812 85.7658 226.812 85.4135C226.813 84.941 227 84.488 227.334 84.1534C227.668 83.8188 228.12 83.63 228.593 83.6282L228.594 83.6321ZM187.215 78.4771C187.646 78.4771 188.067 78.3494 188.425 78.1102C188.783 77.871 189.062 77.5309 189.227 77.1331C189.391 76.7353 189.435 76.2975 189.351 75.8752C189.267 75.4529 189.059 75.0649 188.755 74.7605C188.45 74.456 188.062 74.2486 187.64 74.1646C187.218 74.0806 186.78 74.1237 186.382 74.2885C185.984 74.4533 185.644 74.7323 185.405 75.0904C185.166 75.4484 185.038 75.8693 185.038 76.3C185.039 76.8769 185.27 77.4297 185.678 77.837C186.087 78.2442 186.64 78.4727 187.217 78.4722L187.215 78.4771ZM187.215 74.5127C187.567 74.5127 187.912 74.6171 188.205 74.8129C188.498 75.0086 188.726 75.2868 188.861 75.6123C188.996 75.9378 189.031 76.296 188.962 76.6415C188.894 76.9871 188.724 77.3045 188.475 77.5536C188.226 77.8027 187.908 77.9724 187.563 78.0411C187.217 78.1098 186.859 78.0746 186.534 77.9398C186.208 77.8049 185.93 77.5766 185.734 77.2837C185.538 76.9907 185.434 76.6463 185.434 76.294C185.434 75.8208 185.622 75.3671 185.956 75.0323C186.291 74.6974 186.744 74.5088 187.217 74.5077L187.215 74.5127ZM214.052 78.4771C214.483 78.4771 214.904 78.3494 215.262 78.1102C215.62 77.871 215.899 77.5309 216.064 77.1331C216.228 76.7353 216.271 76.2975 216.187 75.8752C216.103 75.4529 215.896 75.0649 215.592 74.7605C215.287 74.456 214.899 74.2486 214.477 74.1646C214.054 74.0806 213.617 74.1237 213.219 74.2885C212.821 74.4533 212.481 74.7323 212.242 75.0904C212.003 75.4484 211.875 75.8693 211.875 76.3C211.876 76.8769 212.106 77.4297 212.515 77.837C212.924 78.2442 213.477 78.4727 214.054 78.4722L214.052 78.4771ZM214.052 74.5127C214.404 74.5127 214.749 74.6171 215.042 74.8129C215.335 75.0086 215.563 75.2868 215.698 75.6123C215.833 75.9378 215.868 76.296 215.799 76.6415C215.73 76.9871 215.561 77.3045 215.312 77.5536C215.062 77.8027 214.745 77.9724 214.4 78.0411C214.054 78.1098 213.696 78.0746 213.37 77.9398C213.045 77.8049 212.767 77.5766 212.571 77.2837C212.375 76.9907 212.271 76.6463 212.271 76.294C212.271 75.8209 212.459 75.3673 212.793 75.0325C213.128 74.6977 213.581 74.509 214.054 74.5077L214.052 74.5127ZM201.298 70.8016C201.875 70.8016 202.429 70.5722 202.837 70.1639C203.245 69.7556 203.475 69.2018 203.475 68.6244C203.475 68.5912 203.472 68.5581 203.467 68.5254C203.467 68.4522 203.475 68.4215 203.475 68.3888C203.475 67.8114 203.245 67.2576 202.837 66.8493C202.429 66.441 201.875 66.2117 201.298 66.2117C200.72 66.2117 200.166 66.441 199.758 66.8493C199.35 67.2576 199.12 67.8114 199.12 68.3888C199.121 68.422 199.123 68.455 199.128 68.4878C199.128 68.559 199.12 68.5868 199.12 68.6224C199.12 68.9086 199.177 69.1919 199.286 69.4563C199.396 69.7207 199.556 69.9609 199.759 70.1632C199.961 70.3655 200.201 70.5259 200.466 70.6353C200.73 70.7447 201.013 70.8008 201.3 70.8006L201.298 70.8016ZM201.298 66.6065C201.77 66.6081 202.222 66.7963 202.556 67.13C202.889 67.4637 203.077 67.9159 203.079 68.3879L203.068 68.4868L203.075 68.5759C203.08 69.0483 202.898 69.5035 202.568 69.8414C202.237 70.1793 201.786 70.3721 201.314 70.3775C200.842 70.3829 200.386 70.2004 200.048 69.8701C199.711 69.5398 199.518 69.0889 199.512 68.6165L199.524 68.5175L199.517 68.4294C199.512 68.1918 199.554 67.9556 199.642 67.7345C199.729 67.5134 199.859 67.3118 200.025 67.1417C200.191 66.9715 200.389 66.8361 200.608 66.7434C200.827 66.6506 201.062 66.6024 201.3 66.6016L201.298 66.6065ZM227.559 70.8006H228.082L227.736 70.4641C227.058 69.7878 226.384 69.1281 225.713 68.4848L225.378 68.1652V68.6273C225.379 69.2046 225.61 69.7578 226.018 70.1653C226.427 70.5729 226.981 70.8014 227.559 70.8006V70.8006ZM225.86 69.1716C226.256 69.5523 226.652 69.9389 227.048 70.3315C226.771 70.2477 226.518 70.0981 226.311 69.8954C226.104 69.6928 225.95 69.4431 225.86 69.1677V69.1716ZM215.09 62.9369C215.557 62.9381 216.012 62.7879 216.387 62.5087C216.762 62.2294 217.036 61.8363 217.168 61.3882L217.209 61.2536L217.095 61.1714C216.018 60.3936 214.953 59.687 213.928 59.0764L213.809 59.0042L213.701 59.0942C213.356 59.3797 213.109 59.7646 212.991 60.1963C212.874 60.628 212.893 61.0853 213.045 61.5059C213.198 61.9264 213.476 62.2896 213.843 62.5457C214.21 62.8019 214.647 62.9385 215.094 62.9369H215.09ZM216.744 61.405C216.616 61.74 216.389 62.0282 216.094 62.2314C215.799 62.4347 215.449 62.5434 215.09 62.5431C214.736 62.5426 214.391 62.4368 214.097 62.2391C213.804 62.0414 213.576 61.7608 213.443 61.4331C213.309 61.1054 213.276 60.7453 213.349 60.3989C213.421 60.0525 213.594 59.7355 213.847 59.4881C214.788 60.0542 215.761 60.6974 216.745 61.3991L216.744 61.405Z" fill="white"/>
<path d="M212.794 98.5201L185.952 86.0507C185.464 85.8233 184.931 85.7056 184.393 85.7058C183.854 85.706 183.322 85.8241 182.833 86.0519C182.345 86.2796 181.913 86.6115 181.566 87.0242C181.22 87.4369 180.968 87.9203 180.829 88.4407C177.86 99.5028 169.342 128.826 160.823 136.348C150.26 145.673 144.881 152.005 140.194 145.216C137.469 142.12 128.073 149.365 128.732 152.61C129.39 155.855 133.867 155.078 133.867 155.078C133.867 155.078 135.281 154.537 137.992 157.332C140.702 160.127 174.549 162.551 190.233 143.39C202.378 128.553 211.221 110.709 214.595 103.409C215.003 102.522 215.043 101.509 214.705 100.592C214.368 99.6756 213.68 98.9304 212.794 98.5201Z" fill="#D5E0FC"/>
<path d="M217.641 87.0122L187.516 75.3247C187.045 75.1382 186.52 75.1441 186.053 75.3413C185.587 75.5384 185.217 75.911 185.022 76.3786L177.024 96.5997C176.862 97.0149 176.858 97.4751 177.013 97.8929C177.168 98.3107 177.471 98.657 177.865 98.866L209.574 116.269C209.829 116.412 210.114 116.494 210.406 116.511C210.698 116.527 210.991 116.477 211.26 116.363C211.53 116.25 211.771 116.076 211.963 115.856C212.156 115.636 212.296 115.374 212.373 115.092L218.787 89.1567C218.891 88.721 218.832 88.2623 218.621 87.8672C218.41 87.4721 218.061 87.168 217.641 87.0122V87.0122Z" fill="#0246AF"/>
<path d="M198.788 110.357L198.877 110.318C199.261 110.17 199.597 109.92 199.851 109.596C200.104 109.272 200.266 108.885 200.318 108.477C200.369 108.069 200.31 107.654 200.146 107.277C199.982 106.899 199.718 106.573 199.384 106.333C199.05 106.093 198.657 105.948 198.247 105.913C197.837 105.878 197.425 105.954 197.055 106.134C196.685 106.313 196.37 106.59 196.144 106.933C195.917 107.277 195.788 107.676 195.77 108.087C195.773 108.288 195.804 108.488 195.862 108.68L195.884 108.759L198.788 110.357ZM197.949 106.299C198.363 106.3 198.763 106.444 199.082 106.707C199.402 106.97 199.62 107.335 199.7 107.741C199.762 107.926 199.796 108.12 199.799 108.315C199.799 108.649 199.706 108.975 199.529 109.258C199.353 109.541 199.101 109.769 198.802 109.915L196.215 108.495C196.179 108.361 196.159 108.223 196.158 108.085C196.158 107.85 196.205 107.618 196.295 107.401C196.386 107.184 196.518 106.988 196.684 106.822C196.851 106.656 197.048 106.525 197.265 106.436C197.482 106.347 197.714 106.301 197.949 106.301V106.299ZM209.735 105.23C210.165 105.23 210.586 105.102 210.944 104.863C211.302 104.623 211.581 104.283 211.746 103.886C211.911 103.488 211.954 103.05 211.87 102.628C211.786 102.205 211.579 101.817 211.274 101.513C210.97 101.208 210.582 101.001 210.159 100.917C209.737 100.833 209.299 100.876 208.901 101.041C208.504 101.206 208.164 101.485 207.924 101.843C207.685 102.201 207.557 102.622 207.557 103.052C207.557 103.339 207.613 103.622 207.722 103.886C207.832 104.151 207.992 104.391 208.194 104.594C208.396 104.796 208.636 104.957 208.901 105.067C209.165 105.176 209.448 105.233 209.735 105.233V105.23ZM209.735 101.265C210.087 101.265 210.431 101.37 210.724 101.565C211.017 101.761 211.245 102.039 211.38 102.365C211.515 102.69 211.55 103.048 211.482 103.394C211.413 103.74 211.243 104.057 210.994 104.306C210.745 104.555 210.428 104.725 210.082 104.794C209.737 104.862 209.378 104.827 209.053 104.692C208.727 104.557 208.449 104.329 208.254 104.036C208.058 103.743 207.953 103.399 207.953 103.046C207.956 102.575 208.145 102.124 208.478 101.791C208.812 101.458 209.263 101.27 209.735 101.268V101.265ZM196.98 97.554C197.558 97.554 198.111 97.3246 198.52 96.9163C198.928 96.508 199.157 95.9542 199.157 95.3768C199.155 95.1516 199.117 94.9282 199.046 94.7147C198.941 94.1826 198.643 93.7085 198.207 93.3852C197.772 93.0619 197.232 92.9126 196.692 92.9665C196.153 93.0205 195.653 93.2738 195.29 93.677C194.928 94.0801 194.728 94.604 194.732 95.1462C194.734 95.3757 194.773 95.6033 194.849 95.8202C194.949 96.3113 195.216 96.7526 195.604 97.0692C195.993 97.3858 196.479 97.5582 196.98 97.557V97.554ZM196.913 93.359C197.326 93.3598 197.726 93.5039 198.045 93.7666C198.364 94.0293 198.583 94.3944 198.663 94.7999L198.669 94.8226C198.747 95.0543 198.776 95.2995 198.755 95.543C198.735 95.7866 198.664 96.0232 198.548 96.2383C198.432 96.4534 198.272 96.6422 198.08 96.7931C197.888 96.944 197.666 97.0536 197.43 97.1153C197.193 97.177 196.947 97.1893 196.705 97.1516C196.464 97.1138 196.233 97.0267 196.026 96.8957C195.82 96.7648 195.643 96.5927 195.505 96.3903C195.368 96.1879 195.275 95.9595 195.23 95.7192C195.166 95.534 195.133 95.3399 195.131 95.1442C195.132 94.6723 195.321 94.2202 195.655 93.8867C195.989 93.5531 196.441 93.3652 196.913 93.3639V93.359ZM183.867 89.6924C184.297 89.6924 184.718 89.5647 185.076 89.3254C185.434 89.0862 185.713 88.7462 185.878 88.3483C186.043 87.9505 186.086 87.5128 186.002 87.0904C185.918 86.6681 185.711 86.2802 185.406 85.9757C185.102 85.6712 184.714 85.4638 184.291 85.3798C183.869 85.2958 183.431 85.3389 183.034 85.5037C182.636 85.6685 182.296 85.9476 182.056 86.3056C181.817 86.6636 181.689 87.0846 181.689 87.5152C181.689 87.8013 181.745 88.0848 181.854 88.3493C181.964 88.6137 182.124 88.8541 182.326 89.0566C182.528 89.2591 182.768 89.4197 183.033 89.5293C183.297 89.6389 183.581 89.6953 183.867 89.6953V89.6924ZM183.867 85.7279C184.219 85.7279 184.563 85.8324 184.856 86.0281C185.149 86.2238 185.378 86.5021 185.512 86.8276C185.647 87.1531 185.683 87.5112 185.614 87.8568C185.545 88.2023 185.375 88.5197 185.126 88.7688C184.877 89.018 184.56 89.1876 184.214 89.2563C183.869 89.3251 183.51 89.2898 183.185 89.155C182.859 89.0202 182.581 88.7918 182.386 88.4989C182.19 88.206 182.085 87.8616 182.085 87.5092C182.087 87.0377 182.276 86.5861 182.609 86.253C182.943 85.9198 183.395 85.7322 183.867 85.7309V85.7279ZM210.772 89.6924C211.202 89.6924 211.623 89.5647 211.981 89.3254C212.339 89.0862 212.618 88.7462 212.783 88.3483C212.948 87.9505 212.991 87.5128 212.907 87.0904C212.823 86.6681 212.616 86.2802 212.311 85.9757C212.007 85.6712 211.619 85.4638 211.196 85.3798C210.774 85.2958 210.336 85.3389 209.939 85.5037C209.541 85.6685 209.201 85.9476 208.961 86.3056C208.722 86.6636 208.595 87.0846 208.595 87.5152C208.594 87.8016 208.65 88.0853 208.76 88.3499C208.869 88.6146 209.03 88.8551 209.232 89.0577C209.435 89.2602 209.675 89.4208 209.94 89.5302C210.205 89.6396 210.488 89.6957 210.775 89.6953L210.772 89.6924ZM210.772 85.7279C211.124 85.7279 211.469 85.8324 211.761 86.0281C212.054 86.2238 212.283 86.5021 212.418 86.8276C212.552 87.1531 212.588 87.5112 212.519 87.8568C212.45 88.2023 212.28 88.5197 212.031 88.7688C211.782 89.018 211.465 89.1876 211.119 89.2563C210.774 89.3251 210.416 89.2898 210.09 89.155C209.765 89.0202 209.486 88.7918 209.291 88.4989C209.095 88.206 208.99 87.8616 208.99 87.5092C208.993 87.0373 209.182 86.5854 209.516 86.2522C209.85 85.9191 210.303 85.7317 210.775 85.7309L210.772 85.7279ZM198.017 82.0158C198.57 82.0141 199.101 81.8025 199.503 81.4238C199.906 81.045 200.149 80.5275 200.184 79.9762L200.192 79.8317L196.211 78.2869L196.123 78.4205C195.917 78.7715 195.805 79.1691 195.796 79.5758C195.786 79.9825 195.881 80.3849 196.071 80.7448C196.26 81.1047 196.539 81.4103 196.879 81.6327C197.22 81.8551 197.612 81.987 198.017 82.0158V82.0158ZM199.776 80.092C199.715 80.5078 199.51 80.8888 199.195 81.1677C198.881 81.4466 198.478 81.6054 198.058 81.6161C197.638 81.6267 197.228 81.4886 196.9 81.226C196.572 80.9633 196.347 80.5932 196.266 80.181C196.203 79.996 196.17 79.8023 196.167 79.607C196.167 79.3158 196.239 79.0291 196.378 78.7728L199.776 80.092Z" fill="white"/>
<path d="M375.972 282.812C376.685 282.255 399.051 267.253 399.246 264.245C399.516 260.068 410.386 285.597 421.526 289.774C432.666 293.951 457.034 303.003 453.321 281.187C449.607 259.372 435.915 224.328 415.956 220.847C395.997 217.365 320.107 251.713 316.626 263.317C313.145 274.921 329.719 307.412 375.972 282.812Z" fill="#0246AF"/>
<path d="M518.122 311.099L512.221 311.533C511.562 311.581 510.901 311.488 510.281 311.26C509.662 311.031 509.098 310.673 508.629 310.209C508.159 309.745 507.795 309.185 507.559 308.568C507.324 307.951 507.223 307.291 507.264 306.632L507.658 300.307C507.729 299.168 508.218 298.096 509.031 297.297C509.844 296.497 510.923 296.026 512.063 295.973L517.261 295.735C517.261 295.53 517.261 295.409 517.261 295.409C517.261 295.409 526.416 273.793 526.73 271.585C527.044 269.376 533.386 257.216 534.661 272.812C535.935 288.408 535.125 308.167 532.166 309.517C529.315 310.816 520.716 310.501 518.756 311.006C518.548 311.056 518.336 311.087 518.122 311.099V311.099Z" fill="#97B2F8"/>
<path d="M364.549 214.826C364.549 214.826 373.641 211.72 374.259 209.59C374.877 207.461 378.592 197.851 379.829 197.395C381.066 196.939 377.972 207.15 377.508 208.852C377.044 210.555 382.344 213.721 383.635 213.298C384.926 212.876 382.731 220.739 375.476 223.073C368.221 225.407 358.861 220.959 364.549 214.826Z" fill="#C5D5FF"/>
<path d="M312.117 147.872C314.367 149.049 316.057 151.071 316.816 153.493C317.575 155.916 317.341 158.541 316.164 160.791L308.798 174.879C307.622 177.129 305.6 178.82 303.178 179.579C300.755 180.338 298.13 180.104 295.881 178.928V178.928C293.631 177.751 291.94 175.73 291.181 173.307C290.422 170.884 290.656 168.259 291.833 166.009L299.199 151.92C300.375 149.67 302.397 147.98 304.82 147.221C307.242 146.462 309.867 146.696 312.117 147.872V147.872Z" fill="#D5E0FC"/>
<path d="M301.048 153.576L310.973 170.871L315.54 161.861L301.048 153.576Z" fill="#C5D5FF"/>
<path d="M306.317 160.609C306.317 160.609 324.011 182.306 332.997 149.502C341.984 116.698 309.261 120.005 302.571 130.609C296.968 139.489 299.079 150.677 306.317 160.609Z" fill="#D5E0FC"/>
<path d="M339.383 138.29C339.383 138.29 327.603 145.302 322.76 134.982C322.628 135.114 318.31 139.547 307.97 143.317C307.449 143.598 307.015 144.018 306.715 144.531C306.415 145.045 306.26 145.632 306.267 146.228C306.205 148.18 304.482 146.781 304.697 144.508C304.912 142.235 302.734 140.029 300.901 141.068C299.068 142.107 299.2 148.479 302.995 152.579C304.278 155.02 301.948 155.621 301.948 155.621C301.948 155.621 278.781 139.216 288.597 129.293C292.39 126.118 293.178 128.367 296.189 122.943C299.2 117.519 304.435 118.71 306.267 118.18C308.099 117.65 319.88 107.199 326.425 111.962C332.969 116.724 329.042 120.429 334.278 119.899C339.514 119.37 353.782 129.823 339.383 138.29Z" fill="#2564F4"/>
<path d="M317.143 189.245C319.095 190.214 320.739 191.709 321.888 193.562C325.717 199.621 337.506 216.152 352.289 216.278C364.202 216.432 367.76 213.297 367.76 213.297C367.76 213.297 375.187 218.599 375.961 222.002C376.735 225.405 335.01 251.861 314.099 215.657C296.265 184.785 309.278 185.415 317.143 189.245Z" fill="#7C9EF8"/>
<path d="M270.443 269.267C270.443 269.267 270.675 331 350.278 328.447C429.881 325.894 510.413 312.434 511.573 311.737C512.734 311.041 514.126 295.724 511.573 295.492C509.02 295.26 369.541 276.926 319.18 256.038C300.149 251.165 273.692 251.165 270.443 269.267Z" fill="#0246AF"/>
<path d="M392.51 217.854L377.973 214.636C377.739 214.59 377.518 214.493 377.326 214.351C377.134 214.209 376.977 214.027 376.864 213.816C376.751 213.606 376.687 213.373 376.676 213.135C376.664 212.897 376.706 212.659 376.798 212.439L389.445 178.728C389.64 178.242 389.998 177.839 390.457 177.588C390.916 177.336 391.448 177.252 391.962 177.348L406.498 180.567C406.732 180.612 406.953 180.709 407.145 180.851C407.337 180.993 407.495 181.175 407.607 181.386C407.72 181.596 407.784 181.829 407.796 182.067C407.807 182.305 407.765 182.543 407.673 182.763L395.026 216.474C394.832 216.96 394.474 217.363 394.015 217.614C393.556 217.866 393.024 217.951 392.51 217.854V217.854Z" fill="#0053CC"/>
<path d="M390.725 217.457L376.188 214.24C375.954 214.194 375.733 214.097 375.541 213.955C375.349 213.813 375.191 213.631 375.078 213.42C374.966 213.21 374.902 212.977 374.89 212.739C374.879 212.5 374.921 212.263 375.013 212.042L387.659 178.332C387.854 177.846 388.212 177.443 388.671 177.191C389.13 176.94 389.662 176.855 390.176 176.952L404.712 180.171C404.946 180.216 405.168 180.313 405.359 180.455C405.551 180.597 405.709 180.779 405.822 180.99C405.934 181.2 405.998 181.433 406.01 181.671C406.021 181.909 405.98 182.147 405.888 182.367L393.241 216.078C393.046 216.564 392.689 216.967 392.23 217.218C391.771 217.47 391.239 217.554 390.725 217.457V217.457Z" fill="#2564F4"/>
<path d="M405.451 183.528L399.767 198.682L399.246 200.075L396.693 206.881L396.15 208.335L394.108 213.774L375.884 209.736L376.38 208.397L376.922 206.982L381.832 193.879L383.359 189.777L387.218 179.494L393.252 180.824L394.795 181.176L403.048 182.995L404.34 183.273L405.451 183.528Z" fill="white"/>
<path d="M394.403 214.319L375.706 210.192L387.301 179.071L406.078 183.192L394.403 214.319ZM376.95 209.516L393.82 213.239L404.836 183.866L387.892 180.147L376.95 209.516Z" fill="#0246AF"/>
<path d="M374.262 221.543C374.262 221.543 380.451 217.984 381.225 215.973C381.998 213.961 382.617 208.546 384.474 207.618C386.33 206.69 386.485 209.01 386.485 211.641C386.485 214.272 384.784 216.747 386.485 216.283C388.187 215.819 398.863 206.69 400.101 201.43C401.339 196.17 402.886 196.942 403.35 198.799C403.814 200.656 404.588 210.867 399.637 217.365C394.686 223.863 387.723 231.403 382.308 234.519C376.893 237.634 364.979 231.136 374.262 221.543Z" fill="#D5E0FC"/>
<path d="M271.372 275.233C271.372 275.233 259.829 173.08 291.516 164.744C302.315 163.371 325.987 159.658 325.987 213.654C326.436 229.982 345.449 238.913 373.477 220.651C373.85 220.404 374.269 220.234 374.708 220.15C375.147 220.067 375.599 220.071 376.037 220.163C376.475 220.256 376.89 220.434 377.258 220.688C377.626 220.941 377.94 221.266 378.182 221.642C380.577 225.402 384.287 231.788 383.543 234.232C383.853 233.923 357.55 260.534 324.286 261.926C324.441 262.079 314.538 274.769 271.372 275.233Z" fill="#97B2F8"/>
<path d="M405.006 271.158C404.473 270.199 402.091 266.062 399.52 263.837C399.52 263.827 400.947 262.166 401.897 261.068C401.983 260.968 402.094 260.892 402.218 260.847C402.343 260.803 402.477 260.791 402.607 260.812C402.738 260.834 402.86 260.889 402.963 260.972C403.066 261.055 403.147 261.163 403.196 261.285L410.716 279.887L405.257 271.571C405.166 271.435 405.083 271.299 405.006 271.158Z" fill="#00378B"/>
<path d="M271.371 275.23C271.371 275.23 296.883 276.211 318.947 266.105C314.537 270.283 304.778 277.576 273.447 285.156C272.845 284.233 271.458 276.699 271.371 275.23Z" fill="#00378B"/>
<path d="M338.166 259.907C338.166 259.907 304.631 271.053 287.458 240.419C287.458 240.419 286.668 247.704 285.584 249.561C284.501 251.418 305.483 270.112 338.166 259.907Z" fill="#7C9EF8"/>
<path d="M339.114 259.667C339.114 259.667 392.237 253.272 394.256 223.88C394.256 223.88 366.322 253.931 339.114 259.667Z" fill="#00378B"/>
<path d="M328.843 151.528C329.361 151.528 329.78 151.108 329.78 150.59C329.78 150.073 329.361 149.653 328.843 149.653C328.325 149.653 327.905 150.073 327.905 150.59C327.905 151.108 328.325 151.528 328.843 151.528Z" fill="#231F20"/>
<path d="M331.734 149.228C331.656 149.228 331.58 149.202 331.519 149.154C331.458 149.106 331.415 149.039 331.396 148.963C331.339 148.565 331.19 148.185 330.96 147.855C330.73 147.525 330.427 147.253 330.073 147.061C329.211 146.805 328.283 146.9 327.491 147.325C327.409 147.368 327.315 147.377 327.227 147.35C327.139 147.324 327.065 147.264 327.022 147.183C326.978 147.103 326.967 147.008 326.993 146.92C327.019 146.832 327.078 146.757 327.158 146.713C327.643 146.45 328.176 146.288 328.725 146.238C329.274 146.188 329.828 146.251 330.352 146.422C330.805 146.654 331.197 146.989 331.496 147.401C331.795 147.813 331.992 148.29 332.072 148.792C332.094 148.882 332.08 148.977 332.032 149.056C331.984 149.135 331.907 149.192 331.818 149.214C331.79 149.222 331.762 149.226 331.734 149.228V149.228Z" fill="#231F20"/>
<path d="M530.945 67.0699L393.342 67.0339C378.394 67.0339 366.271 80.3249 366.264 96.7298C366.257 111.005 375.428 122.925 387.659 125.783L382.464 137.417L405.362 126.442L505.359 126.468L521.837 126.473H530.92C545.866 126.473 557.99 113.181 557.998 96.7774C558.006 80.3735 545.891 67.0738 530.945 67.0699Z" fill="#D5E0FC"/>
<path d="M421.831 88.9004C421.831 88.827 421.853 88.7684 421.897 88.7244C421.956 88.6657 422.022 88.6364 422.095 88.6364H424.119C424.193 88.6364 424.251 88.6657 424.295 88.7244C424.354 88.7684 424.383 88.827 424.383 88.9004V103.772C424.383 103.846 424.354 103.912 424.295 103.97C424.251 104.014 424.193 104.036 424.119 104.036H422.161C422.015 104.036 421.912 103.978 421.853 103.86L415.517 93.4764C415.488 93.4324 415.459 93.4177 415.429 93.4324C415.4 93.4324 415.385 93.4617 415.385 93.5204L415.429 103.772C415.429 103.846 415.4 103.912 415.341 103.97C415.297 104.014 415.239 104.036 415.165 104.036H413.141C413.068 104.036 413.002 104.014 412.943 103.97C412.899 103.912 412.877 103.846 412.877 103.772V88.9004C412.877 88.827 412.899 88.7684 412.943 88.7244C413.002 88.6657 413.068 88.6364 413.141 88.6364H415.099C415.246 88.6364 415.349 88.695 415.407 88.8124L421.721 99.1964C421.751 99.2404 421.78 99.2624 421.809 99.2624C421.839 99.2477 421.853 99.211 421.853 99.1524L421.831 88.9004ZM436.834 97.1504C436.893 97.517 436.922 97.9277 436.922 98.3824L436.9 99.0644C436.9 99.2404 436.812 99.3284 436.636 99.3284H429.75C429.677 99.3284 429.64 99.365 429.64 99.4384C429.684 99.9224 429.75 100.252 429.838 100.428C430.19 101.484 431.048 102.02 432.412 102.034C433.41 102.034 434.202 101.624 434.788 100.802C434.847 100.714 434.92 100.67 435.008 100.67C435.067 100.67 435.118 100.692 435.162 100.736L436.526 101.858C436.658 101.961 436.68 102.078 436.592 102.21C436.138 102.856 435.529 103.354 434.766 103.706C434.018 104.058 433.182 104.234 432.258 104.234C431.114 104.234 430.139 103.978 429.332 103.464C428.54 102.951 427.961 102.232 427.594 101.308C427.257 100.516 427.088 99.4164 427.088 98.0084C427.088 97.1577 427.176 96.4684 427.352 95.9404C427.646 94.9137 428.196 94.107 429.002 93.5204C429.824 92.919 430.806 92.6184 431.95 92.6184C434.84 92.6184 436.468 94.129 436.834 97.1504ZM431.95 94.8184C431.408 94.8184 430.953 94.9577 430.586 95.2364C430.234 95.5004 429.985 95.8744 429.838 96.3584C429.75 96.6077 429.692 96.9304 429.662 97.3264C429.633 97.3997 429.662 97.4364 429.75 97.4364H434.216C434.29 97.4364 434.326 97.3997 434.326 97.3264C434.297 96.9597 434.253 96.681 434.194 96.4904C434.062 95.9624 433.798 95.5517 433.402 95.2584C433.021 94.965 432.537 94.8184 431.95 94.8184ZM448.737 97.1504C448.795 97.517 448.825 97.9277 448.825 98.3824L448.803 99.0644C448.803 99.2404 448.715 99.3284 448.539 99.3284H441.653C441.579 99.3284 441.543 99.365 441.543 99.4384C441.587 99.9224 441.653 100.252 441.741 100.428C442.093 101.484 442.951 102.02 444.315 102.034C445.312 102.034 446.104 101.624 446.691 100.802C446.749 100.714 446.823 100.67 446.911 100.67C446.969 100.67 447.021 100.692 447.065 100.736L448.429 101.858C448.561 101.961 448.583 102.078 448.495 102.21C448.04 102.856 447.431 103.354 446.669 103.706C445.921 104.058 445.085 104.234 444.161 104.234C443.017 104.234 442.041 103.978 441.235 103.464C440.443 102.951 439.863 102.232 439.497 101.308C439.159 100.516 438.991 99.4164 438.991 98.0084C438.991 97.1577 439.079 96.4684 439.255 95.9404C439.548 94.9137 440.098 94.107 440.905 93.5204C441.726 92.919 442.709 92.6184 443.853 92.6184C446.742 92.6184 448.37 94.129 448.737 97.1504ZM443.853 94.8184C443.31 94.8184 442.855 94.9577 442.489 95.2364C442.137 95.5004 441.887 95.8744 441.741 96.3584C441.653 96.6077 441.594 96.9304 441.565 97.3264C441.535 97.3997 441.565 97.4364 441.653 97.4364H446.119C446.192 97.4364 446.229 97.3997 446.229 97.3264C446.199 96.9597 446.155 96.681 446.097 96.4904C445.965 95.9624 445.701 95.5517 445.305 95.2584C444.923 94.965 444.439 94.8184 443.853 94.8184ZM458.131 88.9004C458.131 88.827 458.153 88.7684 458.197 88.7244C458.256 88.6657 458.322 88.6364 458.395 88.6364H460.419C460.492 88.6364 460.551 88.6657 460.595 88.7244C460.654 88.7684 460.683 88.827 460.683 88.9004V103.772C460.683 103.846 460.654 103.912 460.595 103.97C460.551 104.014 460.492 104.036 460.419 104.036H458.395C458.322 104.036 458.256 104.014 458.197 103.97C458.153 103.912 458.131 103.846 458.131 103.772V103.112C458.131 103.068 458.116 103.039 458.087 103.024C458.058 103.01 458.028 103.024 457.999 103.068C457.354 103.831 456.51 104.212 455.469 104.212C454.428 104.212 453.548 103.941 452.829 103.398C452.11 102.856 451.59 102.1 451.267 101.132C451.003 100.311 450.871 99.3944 450.871 98.3824C450.871 97.341 450.996 96.4464 451.245 95.6984C451.568 94.7304 452.088 93.975 452.807 93.4324C453.526 92.8897 454.428 92.6184 455.513 92.6184C456.525 92.6184 457.354 92.985 457.999 93.7184C458.028 93.7477 458.058 93.7624 458.087 93.7624C458.116 93.7477 458.131 93.7184 458.131 93.6744V88.9004ZM457.603 100.956C457.94 100.355 458.109 99.5044 458.109 98.4044C458.109 97.2604 457.926 96.3877 457.559 95.7864C457.163 95.141 456.606 94.8184 455.887 94.8184C455.139 94.8184 454.552 95.1264 454.127 95.7424C453.687 96.3877 453.467 97.2824 453.467 98.4264C453.467 99.453 453.643 100.296 453.995 100.956C454.406 101.66 455.029 102.012 455.865 102.012C456.613 102.012 457.192 101.66 457.603 100.956ZM476.474 88.9004C476.474 88.827 476.496 88.7684 476.54 88.7244C476.599 88.6657 476.665 88.6364 476.738 88.6364H478.762C478.836 88.6364 478.894 88.6657 478.938 88.7244C478.997 88.7684 479.026 88.827 479.026 88.9004V103.772C479.026 103.846 478.997 103.912 478.938 103.97C478.894 104.014 478.836 104.036 478.762 104.036H476.738C476.665 104.036 476.599 104.014 476.54 103.97C476.496 103.912 476.474 103.846 476.474 103.772V97.4804C476.474 97.407 476.438 97.3704 476.364 97.3704H470.754C470.681 97.3704 470.644 97.407 470.644 97.4804V103.772C470.644 103.846 470.615 103.912 470.556 103.97C470.512 104.014 470.454 104.036 470.38 104.036H468.356C468.283 104.036 468.217 104.014 468.158 103.97C468.114 103.912 468.092 103.846 468.092 103.772V88.9004C468.092 88.827 468.114 88.7684 468.158 88.7244C468.217 88.6657 468.283 88.6364 468.356 88.6364H470.38C470.454 88.6364 470.512 88.6657 470.556 88.7244C470.615 88.7684 470.644 88.827 470.644 88.9004V95.0604C470.644 95.1337 470.681 95.1704 470.754 95.1704H476.364C476.438 95.1704 476.474 95.1337 476.474 95.0604V88.9004ZM491.34 97.1504C491.399 97.517 491.428 97.9277 491.428 98.3824L491.406 99.0644C491.406 99.2404 491.318 99.3284 491.142 99.3284H484.256C484.183 99.3284 484.146 99.365 484.146 99.4384C484.19 99.9224 484.256 100.252 484.344 100.428C484.696 101.484 485.554 102.02 486.918 102.034C487.915 102.034 488.707 101.624 489.294 100.802C489.353 100.714 489.426 100.67 489.514 100.67C489.573 100.67 489.624 100.692 489.668 100.736L491.032 101.858C491.164 101.961 491.186 102.078 491.098 102.21C490.643 102.856 490.035 103.354 489.272 103.706C488.524 104.058 487.688 104.234 486.764 104.234C485.62 104.234 484.645 103.978 483.838 103.464C483.046 102.951 482.467 102.232 482.1 101.308C481.763 100.516 481.594 99.4164 481.594 98.0084C481.594 97.1577 481.682 96.4684 481.858 95.9404C482.151 94.9137 482.701 94.107 483.508 93.5204C484.329 92.919 485.312 92.6184 486.456 92.6184C489.345 92.6184 490.973 94.129 491.34 97.1504ZM486.456 94.8184C485.913 94.8184 485.459 94.9577 485.092 95.2364C484.74 95.5004 484.491 95.8744 484.344 96.3584C484.256 96.6077 484.197 96.9304 484.168 97.3264C484.139 97.3997 484.168 97.4364 484.256 97.4364H488.722C488.795 97.4364 488.832 97.3997 488.832 97.3264C488.803 96.9597 488.759 96.681 488.7 96.4904C488.568 95.9624 488.304 95.5517 487.908 95.2584C487.527 94.965 487.043 94.8184 486.456 94.8184ZM494.024 104.036C493.951 104.036 493.885 104.014 493.826 103.97C493.782 103.912 493.76 103.846 493.76 103.772V88.9004C493.76 88.827 493.782 88.7684 493.826 88.7244C493.885 88.6657 493.951 88.6364 494.024 88.6364H496.048C496.122 88.6364 496.18 88.6657 496.224 88.7244C496.283 88.7684 496.312 88.827 496.312 88.9004V103.772C496.312 103.846 496.283 103.912 496.224 103.97C496.18 104.014 496.122 104.036 496.048 104.036H494.024ZM508.55 95.6984C508.814 96.4464 508.946 97.363 508.946 98.4484C508.946 99.4897 508.821 100.384 508.572 101.132C508.249 102.1 507.729 102.856 507.01 103.398C506.306 103.941 505.411 104.212 504.326 104.212C503.285 104.212 502.449 103.838 501.818 103.09C501.789 103.061 501.759 103.054 501.73 103.068C501.701 103.083 501.686 103.112 501.686 103.156V107.93C501.686 108.004 501.657 108.062 501.598 108.106C501.554 108.165 501.495 108.194 501.422 108.194H499.398C499.325 108.194 499.259 108.165 499.2 108.106C499.156 108.062 499.134 108.004 499.134 107.93V93.0584C499.134 92.985 499.156 92.9264 499.2 92.8824C499.259 92.8237 499.325 92.7944 499.398 92.7944H501.422C501.495 92.7944 501.554 92.8237 501.598 92.8824C501.657 92.9264 501.686 92.985 501.686 93.0584V93.7184C501.686 93.7624 501.701 93.7917 501.73 93.8064C501.759 93.821 501.789 93.8064 501.818 93.7624C502.463 92.9997 503.307 92.6184 504.348 92.6184C505.389 92.6184 506.269 92.8897 506.988 93.4324C507.707 93.975 508.227 94.7304 508.55 95.6984ZM505.69 101.088C506.13 100.414 506.35 99.519 506.35 98.4044C506.35 97.3337 506.174 96.4904 505.822 95.8744C505.411 95.1557 504.788 94.7964 503.952 94.7964C503.189 94.7964 502.617 95.1484 502.236 95.8524C501.899 96.4244 501.73 97.275 501.73 98.4044C501.73 99.563 501.913 100.443 502.28 101.044C502.661 101.69 503.211 102.012 503.93 102.012C504.707 102.012 505.294 101.704 505.69 101.088ZM514.149 99.3284C514.075 99.3284 514.009 99.3064 513.951 99.2624C513.907 99.2037 513.885 99.1377 513.885 99.0644V98.1624C513.885 97.4584 514.061 96.8937 514.413 96.4684C514.765 96.0284 515.278 95.5664 515.953 95.0824C516.539 94.657 516.979 94.2757 517.273 93.9384C517.566 93.5864 517.713 93.1537 517.713 92.6404C517.713 92.0684 517.515 91.6137 517.119 91.2764C516.723 90.9244 516.202 90.7484 515.557 90.7484C514.882 90.7484 514.339 90.9317 513.929 91.2984C513.518 91.665 513.313 92.1344 513.313 92.7064V93.1684C513.313 93.3297 513.225 93.4104 513.049 93.4104L511.025 93.3224C510.951 93.3224 510.885 93.293 510.827 93.2344C510.783 93.1757 510.761 93.1097 510.761 93.0364V92.7064C510.761 91.8704 510.966 91.1297 511.377 90.4844C511.787 89.8244 512.359 89.3184 513.093 88.9664C513.826 88.5997 514.669 88.4164 515.623 88.4164C517.045 88.4164 518.182 88.7977 519.033 89.5604C519.883 90.3084 520.309 91.3057 520.309 92.5524C520.309 93.1977 520.191 93.755 519.957 94.2244C519.737 94.6937 519.473 95.075 519.165 95.3684C518.871 95.6617 518.468 95.9917 517.955 96.3584C517.441 96.725 517.06 97.0477 516.811 97.3264C516.561 97.5904 516.437 97.9204 516.437 98.3164V99.0644C516.437 99.1377 516.407 99.2037 516.349 99.2624C516.305 99.3064 516.246 99.3284 516.173 99.3284H514.149ZM515.095 104.058C514.64 104.058 514.266 103.912 513.973 103.618C513.679 103.325 513.533 102.951 513.533 102.496C513.533 102.042 513.679 101.675 513.973 101.396C514.266 101.103 514.64 100.956 515.095 100.956C515.549 100.956 515.916 101.103 516.195 101.396C516.488 101.675 516.635 102.042 516.635 102.496C516.635 102.951 516.488 103.325 516.195 103.618C515.901 103.912 515.535 104.058 515.095 104.058Z" fill="#0246AF"/>
</svg>
