<svg width="24" height="20" viewBox="0 0 24 20" fill="none" xmlns="http://www.w3.org/2000/svg">
<path d="M3.55917 7.28624C4.60434 3.65981 7.94948 1 11.9032 1C15.9105 1 19.2907 3.72896 20.291 7.42599H19.0463C18.0852 4.39726 15.248 2.19541 11.9057 2.19541C8.61018 2.19541 5.807 4.33319 4.8078 7.29457C5.12186 7.40205 5.39448 7.60499 5.58752 7.87502C5.78057 8.14505 5.88439 8.46866 5.88447 8.8006V14.0247C5.8839 14.4456 5.71644 14.8492 5.41879 15.1469C5.12114 15.4446 4.7176 15.6122 4.29662 15.6129H4.26476C2.46368 15.6129 1 14.1488 1 12.3477V10.4743C1 8.91537 2.09658 7.60917 3.55917 7.28624ZM4.2644 8.46971C3.73351 8.47029 3.22454 8.68143 2.84914 9.05683C2.47375 9.43222 2.2626 9.9412 2.26203 10.4721V12.3456C2.2626 12.8765 2.47375 13.3854 2.84914 13.7608C3.22454 14.1362 3.73351 14.3474 4.2644 14.3479H4.29626C4.47474 14.3479 4.62208 14.201 4.62208 14.0221V8.79771C4.62208 8.61669 4.4751 8.46971 4.29409 8.46971H4.2644ZM19.4656 15.6129H19.4337C19.0127 15.6123 18.609 15.4448 18.3113 15.1471C18.0136 14.8493 17.8461 14.4457 17.8455 14.0247V8.79735C17.8457 8.37551 18.0133 7.97101 18.3116 7.67273C18.6099 7.37445 19.0144 7.20679 19.4362 7.2066H19.4652C21.2667 7.2066 22.7307 8.67064 22.7307 10.4717V12.3452C22.7329 14.1463 21.267 15.6129 19.4656 15.6129ZM19.4362 8.46971C19.2552 8.46971 19.1079 8.61669 19.1079 8.79771V14.0221C19.1079 14.201 19.2552 14.3479 19.4337 14.3479H19.4656C19.9964 14.3473 20.5053 14.1361 20.8806 13.7607C21.2559 13.3853 21.467 12.8764 21.4676 12.3456V10.4721C21.467 9.9412 21.2559 9.43222 20.8805 9.05683C20.5051 8.68143 19.9961 8.47029 19.4652 8.46971H19.4362ZM12.9983 19H12.8828C12.7199 18.9921 12.5664 18.9216 12.4543 18.8031C12.3423 18.6846 12.2804 18.5274 12.2816 18.3643C12.2828 18.2012 12.347 18.0449 12.4608 17.9281C12.5747 17.8113 12.7292 17.743 12.8922 17.7376H12.9009C16.6436 17.7919 18.895 14.6513 18.9178 14.6195C19.0144 14.4829 19.1611 14.39 19.326 14.3612C19.4908 14.3323 19.6603 14.3699 19.7975 14.4656C20.0828 14.6647 20.1531 15.0586 19.9539 15.3435C19.8453 15.493 17.3448 19 12.9983 19Z" fill="#E0ECFF" stroke="#E0ECFF"/>
</svg>
