<svg width="22" height="30" viewBox="0 0 22 30" fill="none" xmlns="http://www.w3.org/2000/svg">
<g clip-path="url(#clip0_1803_840)">
<path d="M1.96167 13.5L1.7309 13.8462C-0.922947 18 -0.346024 23.4231 3.2309 26.8846C5.19244 28.9615 7.96167 30 10.7309 30C10.7309 30 10.7309 30 1.96167 13.5Z" fill="#00A3FF"/>
<path opacity="0.6" d="M10.7307 18.4616L1.96143 13.3846C10.7307 30 10.7307 30 10.7307 30C10.7307 26.4231 10.7307 22.2693 10.7307 18.4616Z" fill="#00A3FF"/>
<path opacity="0.6" d="M19.5002 13.5L19.731 13.8462C22.3848 18 21.8079 23.4231 18.231 26.8846C16.154 28.9615 13.5002 30 10.731 30C10.731 30 10.731 30 19.5002 13.5Z" fill="#00A3FF"/>
<path opacity="0.2" d="M10.731 18.4616L19.5002 13.3846C10.731 30 10.731 30 10.731 30C10.731 26.4231 10.731 22.2693 10.731 18.4616Z" fill="#00A3FF"/>
<path opacity="0.2" d="M10.731 7.26929V15.9231L18.3463 11.6539L10.731 7.26929Z" fill="#00A3FF"/>
<path opacity="0.6" d="M10.7306 7.26929L3.11523 11.6539L10.7306 15.9231V7.26929Z" fill="#00A3FF"/>
<path d="M10.7306 0L3.11523 11.6538L10.7306 7.26923V0Z" fill="#00A3FF"/>
<path opacity="0.6" d="M10.731 7.26923L18.3463 11.6538L10.731 0V7.26923Z" fill="#00A3FF"/>
</g>
<defs>
<clipPath id="clip0_1803_840">
<rect width="21.4615" height="30" fill="white"/>
</clipPath>
</defs>
</svg>
