<svg width="30" height="30" viewBox="0 0 30 30" fill="none" xmlns="http://www.w3.org/2000/svg">
<circle cx="15" cy="15" r="15" fill="#23292F"/>
<g clip-path="url(#clip0_1611_899)">
<path d="M22.0702 7H24.9608L18.9452 12.9562C16.7667 15.1121 13.2347 15.1121 11.0546 12.9562L5.03662 7H7.92959L12.4999 11.5246C13.1658 12.1809 14.0632 12.5488 14.9981 12.5488C15.9331 12.5488 16.8305 12.1809 17.4964 11.5246L22.0702 7Z" fill="white"/>
<path d="M7.89258 23.5625H5L11.0547 17.5695C13.2332 15.4137 16.7652 15.4137 18.9453 17.5695L25 23.5625H22.1094L17.5 19.0012C16.8341 18.3449 15.9367 17.977 15.0018 17.977C14.0668 17.977 13.1694 18.3449 12.5035 19.0012L7.89258 23.5625Z" fill="white"/>
</g>
<defs>
<clipPath id="clip0_1611_899">
<rect width="20" height="16.5625" fill="white" transform="translate(5 7)"/>
</clipPath>
</defs>
</svg>
